<svg width="128" height="128" viewBox="0 0 128 128" fill="none" xmlns="http://www.w3.org/2000/svg">
<path d="M-0.000244141 14.9999C-0.000244141 6.71565 6.71549 -7.62939e-05 14.9998 -7.62939e-05H112.295C120.579 -7.62939e-05 127.295 6.71565 127.295 14.9999V127.29H-0.000244141V14.9999Z" fill="#FCF5EB"/>
<path d="M75.0756 41.3822L75.0756 41.3815C75.7397 34.0029 70.207 27.5853 62.7549 27.2164L62.7543 27.2164C55.6699 26.8474 49.5457 32.1606 48.9552 39.2438C48.4285 45.7155 47.9037 52.9191 47.9785 56.4373L47.9786 56.44C48.0151 59.9482 49.7801 61.9643 51.5403 63.1135C52.4239 63.6904 53.307 64.0484 53.97 64.2621C54.3011 64.3689 54.5762 64.4392 54.7675 64.4828C54.8631 64.5045 54.9377 64.5196 54.9878 64.529C55.0129 64.5338 55.0318 64.5372 55.0441 64.5393L55.0576 64.5416L55.0606 64.542L55.0609 64.5421L75.0756 41.3822ZM75.0756 41.3822L72.0893 75.7244L75.0756 41.3822Z" fill="#FCF5EB" stroke="#383838" stroke-width="0.5"/>
<path d="M55.1603 64.6403C55.1603 64.6403 59.7472 65.0163 64.5595 61.9333C64.5595 61.9333 62.3037 67.1217 55.1603 66.4449V64.6403Z" fill="#383838"/>
<path d="M50.7931 44.1853C50.7931 44.7117 51.2442 45.1628 51.7706 45.238C52.3721 45.238 52.8233 44.862 52.8233 44.3357C52.8233 43.8093 52.3722 43.3582 51.8458 43.283C51.2442 43.283 50.7931 43.6589 50.7931 44.1853Z" fill="#383838"/>
<path d="M50.3875 42.831C50.5378 42.9814 51.2898 42.3798 52.4177 42.3798C53.5456 42.3798 54.3727 42.9062 54.4479 42.831C54.5231 42.7558 54.3727 42.5302 53.9967 42.3046C53.6208 42.0791 53.0192 41.7783 52.3425 41.7783C51.6657 41.7783 51.0642 42.0039 50.7634 42.3046C50.4626 42.5302 50.3875 42.7558 50.3875 42.831Z" fill="#383838"/>
<path d="M61.7131 44.186C61.7131 44.7124 62.1643 45.1635 62.6906 45.2387C63.2922 45.2387 63.7433 44.8628 63.7433 44.3364C63.7433 43.81 63.2922 43.3589 62.7658 43.2837C62.1643 43.2837 61.7131 43.6597 61.7131 44.186Z" fill="#383838"/>
<path d="M61.2702 42.9804C61.4206 43.1308 62.1725 42.5292 63.3004 42.5292C64.4283 42.5292 65.2555 43.0556 65.3307 42.9804C65.4058 42.9052 65.2555 42.6796 64.8795 42.454C64.5035 42.2284 63.902 41.9277 63.2252 41.9277C62.5485 41.9277 61.9469 42.1532 61.6462 42.454C61.3454 42.6796 61.195 42.9804 61.2702 42.9804Z" fill="#383838"/>
<path d="M57.2609 51.2525C57.2609 51.1773 56.5842 51.1022 55.4563 50.9518C55.1555 50.9518 54.9299 50.8766 54.8547 50.651C54.7795 50.4254 54.9299 50.1246 55.0803 49.8239C55.3811 49.1471 55.6067 48.3952 55.9074 47.6432C57.0353 44.5603 57.9377 42.0789 57.7873 42.0037C57.6369 41.9285 56.5842 44.4099 55.4563 47.4929C55.1555 48.2448 54.9299 48.9967 54.6291 49.6735C54.5539 49.9742 54.3284 50.3502 54.4788 50.8014C54.5539 51.027 54.7795 51.1773 54.9299 51.1773C55.0803 51.2525 55.3059 51.2525 55.3811 51.2525C56.509 51.2525 57.2609 51.2525 57.2609 51.2525Z" fill="#383838"/>
<path d="M60.4906 52.0039C60.3402 52.0039 60.3402 53.207 59.2875 54.0342C58.2348 54.8613 56.9565 54.7861 56.9565 54.9365C56.9565 55.0117 57.2573 55.1621 57.7836 55.1621C58.31 55.1621 59.0619 55.0117 59.7387 54.4853C60.3402 53.959 60.641 53.2822 60.641 52.7559C60.7162 52.3047 60.5658 52.0039 60.4906 52.0039Z" fill="#383838"/>
<path d="M60.9687 38.6965C61.0439 38.9973 62.1718 38.8469 63.4501 38.9973C64.7284 39.1477 65.7811 39.5236 66.0066 39.2228C66.0818 39.0725 65.9315 38.8469 65.4803 38.5461C65.0291 38.2453 64.4276 37.9446 63.6005 37.8694C62.8485 37.7942 62.0966 37.9446 61.6454 38.0949C61.1943 38.3205 60.9687 38.5461 60.9687 38.6965Z" fill="#383838"/>
<path d="M50.7599 39.5981C50.9855 39.8236 51.7374 39.5981 52.6397 39.5981C53.5421 39.5229 54.3692 39.7485 54.5196 39.5229C54.5948 39.3725 54.4444 39.1469 54.1436 38.9213C53.8428 38.6957 53.2413 38.4702 52.6397 38.5454C52.0382 38.5454 51.4366 38.7709 51.1359 39.0717C50.7599 39.2221 50.6847 39.4477 50.7599 39.5981Z" fill="#383838"/>
<path d="M76.9484 36.9665C76.5724 40.5006 75.5949 44.8618 75.2941 48.4711C75.2941 48.7719 75.2189 49.1479 75.0685 49.4486C74.5422 50.1254 73.3391 51.6292 72.7375 51.0277C71.2336 49.599 70.6321 45.6889 70.3313 43.5835C70.0306 41.5533 70.1057 39.4479 69.805 37.4176C69.805 37.3425 69.805 37.3425 69.805 37.2673C69.5794 35.8386 68.8275 34.4851 67.6996 33.5828C67.3988 33.4324 67.1732 33.2068 66.8724 33.1316C64.767 32.3797 61.2329 33.7332 59.1275 34.5603C58.0748 34.9363 57.0221 35.4626 55.8941 35.9138C53.488 37.0417 50.6306 36.8161 48.45 35.3122C47.1717 34.4099 47.0213 31.4774 47.6228 29.5975C49.1267 24.5595 55.443 22.8301 63.5639 24.7851C71.5344 26.5898 77.7755 29.7479 76.9484 36.9665Z" fill="#383838"/>
<path d="M77.5329 48.088L77.5329 48.0881C77.4966 49.2868 77.1757 50.0849 76.7391 50.6156C76.3021 51.1469 75.7298 51.4339 75.1485 51.5748C74.5652 51.7162 73.9812 51.7081 73.5413 51.6542C73.3218 51.6273 73.1429 51.5896 73.0227 51.5559C73.0086 51.5519 72.9956 51.5481 72.9837 51.5445C72.9828 51.4953 72.9826 51.4334 72.983 51.3593C72.984 51.1585 72.9895 50.8781 72.9983 50.5437C73.0159 49.8755 73.0464 48.9978 73.0793 48.1239C73.1122 47.2502 73.1474 46.3811 73.1744 45.7304C73.1879 45.4051 73.1994 45.1343 73.2074 44.945L73.2126 44.8243C73.2345 44.8187 73.2585 44.8127 73.2844 44.8065C73.4225 44.7737 73.6136 44.7354 73.8392 44.7061C74.2927 44.6471 74.8724 44.6261 75.436 44.7494C75.9971 44.8722 76.5306 45.1349 76.9177 45.6356C77.305 46.1366 77.5693 46.9062 77.5329 48.088Z" fill="#FCF5EB" stroke="#383838" stroke-width="0.5"/>
<path d="M74.2758 49.9001C74.2758 49.9001 74.351 49.9753 74.5014 50.0505C74.6518 50.1257 74.8774 50.2009 75.1782 50.0505C75.7045 49.9001 76.1557 49.073 76.2309 48.1707C76.2309 47.7195 76.1557 47.2683 76.0053 46.9676C75.8549 46.5916 75.6293 46.366 75.4037 46.2908C75.1781 46.2156 74.9526 46.366 74.8774 46.5164C74.8022 46.6668 74.8022 46.742 74.8022 46.742C74.8022 46.742 74.727 46.6668 74.727 46.4412C74.727 46.366 74.8022 46.2156 74.9526 46.1404C75.1029 46.0652 75.2533 45.9901 75.4037 46.0652C75.7797 46.1404 76.0805 46.4412 76.3061 46.8924C76.4564 47.2683 76.6068 47.7947 76.5316 48.2459C76.4564 49.2234 75.9301 50.1257 75.1782 50.3513C74.8022 50.4265 74.5766 50.3513 74.4262 50.2009C74.2758 50.0505 74.2758 49.9001 74.2758 49.9001Z" fill="#383838"/>
<path d="M76.8841 37.2676C76.9593 37.3428 75.4555 38.17 73.35 38.17C71.2446 38.2452 69.7407 37.418 69.8159 37.3428C69.8911 37.1924 71.395 37.794 73.35 37.794C75.3051 37.794 76.8089 37.1924 76.8841 37.2676Z" fill="#383838"/>
<path d="M76.7286 38.6963C76.8038 38.7715 75.3751 39.5986 73.3449 39.5986C71.3147 39.6738 69.886 38.8467 69.9612 38.7715C70.0364 38.6211 71.4651 39.2227 73.3449 39.2227C75.2248 39.2227 76.6534 38.5459 76.7286 38.6963Z" fill="#383838"/>
<mask id="path-17-outside-1" maskUnits="userSpaceOnUse" x="27.4607" y="75.4065" width="14" height="29" fill="black">
<rect fill="white" x="27.4607" y="75.4065" width="14" height="29"/>
<path fill-rule="evenodd" clip-rule="evenodd" d="M38.815 103.214C33.4206 101.531 29.3339 96.8849 28.4607 91.1805C31.8208 85.5528 34.861 80.5503 35.4525 79.8654C36.806 78.2111 40.3401 76.4065 40.3401 76.4065L38.815 103.214Z"/>
</mask>
<path fill-rule="evenodd" clip-rule="evenodd" d="M38.815 103.214C33.4206 101.531 29.3339 96.8849 28.4607 91.1805C31.8208 85.5528 34.861 80.5503 35.4525 79.8654C36.806 78.2111 40.3401 76.4065 40.3401 76.4065L38.815 103.214Z" fill="#FCF5EB"/>
<path d="M38.815 103.214L38.6661 103.691L39.2778 103.882L39.3142 103.242L38.815 103.214ZM28.4607 91.1805L28.0314 90.9242L27.9393 91.0785L27.9665 91.2561L28.4607 91.1805ZM35.4525 79.8654L35.8311 80.1923L35.8395 80.182L35.4525 79.8654ZM40.3401 76.4065L40.8393 76.4349L40.8888 75.5649L40.1127 75.9612L40.3401 76.4065ZM38.9639 102.737C33.7493 101.11 29.7988 96.6178 28.9549 91.1048L27.9665 91.2561C28.869 97.1521 33.0918 101.953 38.6661 103.691L38.9639 102.737ZM28.89 91.4368C30.5697 88.6235 32.1685 85.9682 33.4208 83.9313C34.0471 82.9125 34.5855 82.0506 35.0034 81.4016C35.4307 80.7382 35.711 80.331 35.8309 80.1922L35.0741 79.5386C34.8983 79.7422 34.5768 80.2172 34.1627 80.8602C33.7392 81.5177 33.1966 82.3865 32.5689 83.4075C31.3132 85.45 29.7118 88.1097 28.0314 90.9242L28.89 91.4368ZM35.8395 80.182C36.4593 79.4245 37.6175 78.5967 38.6689 77.9396C39.1859 77.6165 39.662 77.3437 40.0088 77.1518C40.1821 77.0559 40.3227 76.9804 40.4196 76.9291C40.4681 76.9035 40.5055 76.8839 40.5306 76.8708C40.5432 76.8643 40.5527 76.8594 40.5589 76.8562C40.562 76.8546 40.5643 76.8535 40.5657 76.8527C40.5664 76.8524 40.5669 76.8521 40.5672 76.8519C40.5674 76.8519 40.5675 76.8518 40.5675 76.8518C40.5676 76.8518 40.5676 76.8518 40.5676 76.8518C40.5675 76.8518 40.5675 76.8518 40.3401 76.4065C40.1127 75.9612 40.1127 75.9612 40.1126 75.9613C40.1126 75.9613 40.1125 75.9613 40.1124 75.9614C40.1122 75.9615 40.112 75.9616 40.1117 75.9617C40.1112 75.962 40.1104 75.9624 40.1094 75.9629C40.1074 75.9639 40.1046 75.9653 40.101 75.9672C40.0938 75.9709 40.0832 75.9764 40.0696 75.9835C40.0423 75.9977 40.0025 76.0185 39.9516 76.0454C39.8499 76.0993 39.7039 76.1777 39.5247 76.2768C39.1666 76.475 38.6746 76.7568 38.1389 77.0916C37.0849 77.7503 35.7993 78.652 35.0656 79.5488L35.8395 80.182ZM39.8409 76.3781L38.3158 103.186L39.3142 103.242L40.8393 76.4349L39.8409 76.3781Z" fill="#383838" mask="url(#path-17-outside-1)"/>
<mask id="path-19-outside-2" maskUnits="userSpaceOnUse" x="37.48" y="66.8717" width="56" height="38" fill="black">
<rect fill="white" x="37.48" y="66.8717" width="56" height="38"/>
<path fill-rule="evenodd" clip-rule="evenodd" d="M86.3042 103.788C85.722 103.857 85.1296 103.892 84.529 103.892H43.2912C41.6084 103.892 39.9903 103.615 38.48 103.104L40.2701 76.143L51.6995 73.5864L54.632 67.8717H73.1297L75.6863 72.9097L92.8304 82.3841L86.3042 103.788Z"/>
</mask>
<path fill-rule="evenodd" clip-rule="evenodd" d="M86.3042 103.788C85.722 103.857 85.1296 103.892 84.529 103.892H43.2912C41.6084 103.892 39.9903 103.615 38.48 103.104L40.2701 76.143L51.6995 73.5864L54.632 67.8717H73.1297L75.6863 72.9097L92.8304 82.3841L86.3042 103.788Z" fill="#FCF5EB"/>
<path d="M86.3042 103.788L86.3627 104.285L86.6871 104.246L86.7824 103.934L86.3042 103.788ZM38.48 103.104L37.9811 103.071L37.9557 103.454L38.3198 103.577L38.48 103.104ZM40.2701 76.143L40.1609 75.6551L39.796 75.7367L39.7712 76.1099L40.2701 76.143ZM51.6995 73.5864L51.8086 74.0744L52.0373 74.0232L52.1443 73.8147L51.6995 73.5864ZM54.632 67.8717V67.3717H54.3266L54.1872 67.6434L54.632 67.8717ZM73.1297 67.8717L73.5756 67.6455L73.4367 67.3717H73.1297V67.8717ZM75.6863 72.9097L75.2404 73.136L75.3099 73.273L75.4444 73.3473L75.6863 72.9097ZM92.8304 82.3841L93.3087 82.5299L93.4268 82.1424L93.0723 81.9465L92.8304 82.3841ZM86.2456 103.291C85.6828 103.358 85.11 103.392 84.529 103.392V104.392C85.1492 104.392 85.7611 104.355 86.3627 104.285L86.2456 103.291ZM84.529 103.392H43.2912V104.392H84.529V103.392ZM43.2912 103.392C41.6636 103.392 40.0996 103.124 38.6403 102.63L38.3198 103.577C39.881 104.106 41.5532 104.392 43.2912 104.392V103.392ZM39.7712 76.1099L37.9811 103.071L38.9789 103.137L40.769 76.1761L39.7712 76.1099ZM51.5904 73.0985L40.1609 75.6551L40.3792 76.631L51.8086 74.0744L51.5904 73.0985ZM54.1872 67.6434L51.2547 73.3582L52.1443 73.8147L55.0769 68.1L54.1872 67.6434ZM73.1297 67.3717H54.632V68.3717H73.1297V67.3717ZM76.1321 72.6834L73.5756 67.6455L72.6838 68.098L75.2404 73.136L76.1321 72.6834ZM93.0723 81.9465L75.9281 72.4721L75.4444 73.3473L92.5886 82.8217L93.0723 81.9465ZM86.7824 103.934L93.3087 82.5299L92.3521 82.2383L85.8259 103.642L86.7824 103.934Z" fill="#383838" mask="url(#path-19-outside-2)"/>
<path d="M56.5044 75.4661C57.5571 74.4134 58.685 73.2855 59.7377 72.2328C60.9408 75.1653 62.2191 78.0979 63.4222 81.1056C67.6331 78.6242 71.6935 75.8421 75.4532 72.684C71.3176 74.0374 67.1819 75.3157 63.0463 76.6692C61.9935 73.8871 60.9408 71.1049 59.8881 68.3227C59.1362 70.8793 58.0835 73.2855 56.73 75.5413" fill="#383838"/>
<mask id="path-22-outside-3" maskUnits="userSpaceOnUse" x="85.3465" y="81.2339" width="14" height="24" fill="black">
<rect fill="white" x="85.3465" y="81.2339" width="14" height="24"/>
<path fill-rule="evenodd" clip-rule="evenodd" d="M98.6891 93.8883C96.8236 99.1713 92.0827 103.097 86.3465 103.785L92.9175 82.2339C93.5823 82.5109 95.8795 87.3791 98.6891 93.8883Z"/>
</mask>
<path fill-rule="evenodd" clip-rule="evenodd" d="M98.6891 93.8883C96.8236 99.1713 92.0827 103.097 86.3465 103.785L92.9175 82.2339C93.5823 82.5109 95.8795 87.3791 98.6891 93.8883Z" fill="#FCF5EB"/>
<path d="M98.6891 93.8883L99.1606 94.0548L99.2258 93.87L99.1482 93.6901L98.6891 93.8883ZM86.3465 103.785L85.8682 103.639L85.6446 104.373L86.406 104.281L86.3465 103.785ZM92.9175 82.2339L93.1099 81.7724L92.6003 81.5601L92.4393 82.0881L92.9175 82.2339ZM98.2177 93.7218C96.4142 98.829 91.8305 102.623 86.2869 103.288L86.406 104.281C92.335 103.57 97.233 99.5135 99.1606 94.0548L98.2177 93.7218ZM86.8248 103.931L93.3958 82.3798L92.4393 82.0881L85.8682 103.639L86.8248 103.931ZM92.7252 82.6955C92.6818 82.6774 92.6765 82.6625 92.7127 82.6977C92.7431 82.7272 92.7868 82.7763 92.8441 82.8512C92.9586 83.0007 93.1023 83.2197 93.2742 83.5108C93.6169 84.0908 94.0474 84.9148 94.5497 85.9434C95.5531 87.9982 96.8262 90.834 98.2301 94.0864L99.1482 93.6901C97.7424 90.4333 96.4621 87.5805 95.4483 85.5046C94.942 84.4679 94.498 83.6161 94.1352 83.0021C93.9544 82.6961 93.7876 82.4385 93.6382 82.2433C93.5636 82.1459 93.487 82.0556 93.4094 81.9802C93.3376 81.9105 93.2364 81.8251 93.1099 81.7724L92.7252 82.6955Z" fill="#383838" mask="url(#path-22-outside-3)"/>
<path d="M59.8931 68.2471C60.0435 68.3223 58.9908 70.9541 57.7125 74.1874C57.6373 74.413 57.5621 74.5633 57.4869 74.7889C57.4117 75.0145 57.3365 75.2401 57.1109 75.3905C56.8853 75.6161 56.5094 75.5409 56.2838 75.4657C56.0582 75.3905 55.9078 75.2401 55.7574 75.1649C55.1559 74.7889 54.6295 74.413 54.1032 74.037C53.2009 73.3603 52.5993 72.9843 52.5993 72.9091C52.5993 72.8339 53.276 73.2099 54.2536 73.7362C54.7799 74.037 55.3815 74.413 55.983 74.7889C56.2838 75.0145 56.6598 75.2401 56.8102 75.0897C57.0357 74.9393 57.1109 74.413 57.3365 74.037C58.6148 70.8037 59.8179 68.1719 59.8931 68.2471Z" fill="#383838"/>
<path d="M74.629 72.7594C74.629 72.8346 73.5763 73.2858 71.7717 73.8873C70.0422 74.5641 67.5608 75.3912 64.8538 76.2935C64.3275 76.4439 63.8763 76.6695 63.35 76.8199L63.1244 76.8951L63.0492 76.6695C62.0717 74.3385 61.2445 72.3083 60.7182 70.8796C60.1166 69.3757 59.8159 68.4734 59.8911 68.4734C59.9662 68.4734 60.3422 69.3005 61.019 70.7292C61.6957 72.1579 62.5228 74.1881 63.5004 76.5191L63.1996 76.3687C63.6508 76.2183 64.1771 76.0679 64.7035 75.8424C67.4104 74.94 69.8918 74.1129 71.6965 73.5114C73.4259 73.0602 74.5538 72.6842 74.629 72.7594Z" fill="#383838"/>
<path d="M90.9427 83.3613C90.9427 83.5117 88.3861 84.1885 85.3784 85.542C82.3706 86.8955 80.1148 88.3241 80.0396 88.2489C80.0396 88.1737 80.566 87.7978 81.4683 87.1962C82.3706 86.5947 83.7241 85.8427 85.228 85.166C86.7319 84.4893 88.1606 84.0381 89.2885 83.7373C90.266 83.3613 90.9427 83.2862 90.9427 83.3613Z" fill="#383838"/>
<path fill-rule="evenodd" clip-rule="evenodd" d="M57.8892 103.892H57.3936C58.4269 95.0783 59.1483 87.1597 59.4459 81.0305C59.6002 78.4058 59.649 76.0981 59.6884 74.228C59.7067 73.3657 59.7229 72.5965 59.7466 71.9321V69.4507V68.7739C59.897 68.3228 59.897 68.2476 59.897 68.2476V68.4732V69.1499C59.897 69.4089 59.9109 69.7097 59.9268 70.0522C59.9478 70.5054 59.9722 71.0318 59.9722 71.6313V71.6319C59.9722 73.8125 59.9722 76.8952 59.8218 80.8049C59.5821 86.9775 58.9125 94.9651 57.8892 103.892Z" fill="#383838"/>
</svg>
