<svg width="41" height="42" viewBox="0 0 41 42" fill="none" xmlns="http://www.w3.org/2000/svg">
<circle cx="20.2603" cy="21.0562" r="20.1705" fill="white"/>
<g opacity="0.5">
<path d="M29.3736 18.1353C29.0575 17.0969 29.5541 15.6974 28.7867 14.8397C28.0643 14.0271 26.8454 14.1174 25.9877 13.4853C25.1299 12.8984 24.859 11.7247 23.8658 11.2281C22.8275 10.7315 21.744 11.4538 20.7508 11.6344C19.5319 11.8601 18.4484 10.8669 17.2295 11.1378C16.2363 11.3635 15.7397 12.2213 15.1528 12.9887C14.7916 13.4402 14.3853 13.7562 13.8436 13.9368C13.3019 14.1174 12.7601 14.2528 12.2635 14.5688C11.2703 15.1557 11.3155 16.194 11.2703 17.1872C11.2703 17.8193 11.18 18.361 10.8189 18.9027C10.548 19.3993 10.0965 19.8508 9.87082 20.3925C9.37422 21.5212 10.1868 22.3789 10.7737 23.2367C11.0897 23.7333 11.2703 24.1847 11.3155 24.7716C11.3606 25.4037 11.2252 26.126 11.4509 26.758C11.8121 27.7964 12.9407 27.9318 13.8436 28.293C14.9722 28.6993 15.2882 29.7376 16.1009 30.5051C16.9135 31.2725 17.8615 31.0468 18.8096 30.7308C19.4868 30.5051 20.0736 30.3696 20.7508 30.5502C21.3377 30.7308 21.9246 31.0017 22.6018 31.0468C23.595 31.1371 24.2721 30.5954 24.859 29.8279C25.2202 29.3313 25.5362 28.7896 26.078 28.4735C26.6197 28.1575 27.2517 28.0672 27.8386 27.7964C28.2901 27.6158 28.6964 27.3449 28.9221 26.9386C29.2381 26.3969 29.193 25.7648 29.193 25.1779C29.193 24.3653 29.2833 23.7784 29.7799 23.1013C30.141 22.6047 30.5925 22.1081 30.7279 21.5212C31.1342 20.1668 29.7799 19.2639 29.3736 18.1353C29.2833 17.9547 28.6512 18.1353 28.7415 18.3159C29.1027 19.2639 30.0959 19.9862 30.2313 21.0246C30.3216 22.1532 29.193 22.9207 28.8318 23.8687C28.4255 24.8168 28.877 25.9454 28.4707 26.8935C28.0192 27.8415 26.6197 27.8415 25.8071 28.3381C24.9945 28.7896 24.6333 29.6473 24.0013 30.3245C23.0984 31.2725 21.7892 30.2342 20.7057 30.1439C20.2542 30.0988 19.8028 30.1891 19.3513 30.3245C18.7644 30.5051 18.0872 30.8662 17.4552 30.6857C16.5072 30.4148 16.1009 29.1959 15.4688 28.609C14.7916 27.9769 13.8436 27.9318 13.031 27.5255C11.9024 26.9386 12.1281 25.7648 12.0829 24.6813C12.0378 23.5076 11.2252 22.8755 10.7286 21.8823C10.1417 20.7537 10.9543 19.8959 11.5412 18.993C12.1732 18.045 11.9926 17.1421 12.0829 16.0586C12.0378 15.4266 12.2184 14.93 12.8053 14.614C13.2567 14.3882 13.7533 14.2528 14.2499 14.0722C15.1528 13.7562 15.6494 13.1693 16.1912 12.4018C16.5072 11.9955 16.8683 11.4086 17.4101 11.4086C17.997 11.3635 18.629 11.7247 19.2159 11.8601C20.3897 12.1761 21.2926 11.7247 22.4212 11.4538C23.8207 11.1378 24.3173 12.6727 25.1299 13.4853C25.8974 14.2528 27.0711 14.1625 27.9289 14.7945C28.9672 15.562 28.4255 17.1872 28.6964 18.2707C28.7415 18.4964 29.4187 18.3159 29.3736 18.1353Z" fill="#FF5A5F"/>
<path d="M20.3902 28.1119C17.5009 28.0667 14.8825 26.2158 13.8893 23.5522C12.8961 20.8886 13.5732 17.8187 15.6499 15.8775C17.862 13.8008 21.2479 13.5299 23.8212 15.11C26.2139 16.5998 27.5231 19.444 27.0717 22.1978C26.5299 25.4934 23.7309 28.0667 20.3902 28.1119C20.1644 28.1119 19.6678 28.4279 20.1193 28.4279C23.144 28.3827 25.9882 26.6672 27.2071 23.8682C28.4712 20.9338 27.5683 17.4124 25.1304 15.3809C22.7377 13.4397 19.3067 13.2139 16.6431 14.7037C13.8893 16.1935 12.3092 19.3085 12.8509 22.4236C13.483 25.9449 16.598 28.4279 20.1193 28.4279C20.345 28.4279 20.8416 28.1119 20.3902 28.1119Z" fill="#FF5A5F"/>
<path d="M20.2553 15.0654C16.9597 15.0654 14.251 17.7741 14.251 21.0697C14.251 24.3653 16.9597 27.0741 20.2553 27.0741C23.5509 27.0741 26.2596 24.3653 26.2596 21.0697C26.2596 17.7741 23.596 15.0654 20.2553 15.0654ZM24.2732 20.3926L22.332 22.0178L22.964 24.4556C23.0092 24.5911 22.964 24.7717 22.8286 24.8168C22.6931 24.9071 22.5577 24.9071 22.4223 24.8168L20.3004 23.4624L18.1786 24.8168C18.0432 24.9071 17.9077 24.9071 17.7723 24.8168C17.6369 24.7265 17.5917 24.5911 17.6369 24.4556L18.2689 22.0178L16.2825 20.3926C16.1471 20.3023 16.1019 20.1217 16.1471 19.9863C16.1922 19.8508 16.3277 19.7605 16.4631 19.7154L18.9912 19.5348L19.9393 17.1873C19.9844 17.0518 20.1199 16.9615 20.2553 16.9615C20.3907 16.9615 20.5262 17.0518 20.5713 17.1873L21.5194 19.5348L24.0475 19.7154C24.1829 19.7154 24.3184 19.8057 24.3635 19.9863C24.4087 20.1217 24.3635 20.2571 24.2732 20.3926Z" fill="#FF5A5F"/>
</g>
</svg>
