<svg width="41" height="42" viewBox="0 0 41 42" fill="none" xmlns="http://www.w3.org/2000/svg">
<circle cx="20.2603" cy="21.0562" r="20.1705" fill="white"/>
<g opacity="0.5">
<path d="M29.3736 18.1353C29.0575 17.0969 29.5541 15.6974 28.7867 14.8397C28.0643 14.0271 26.8454 14.1174 25.9877 13.4853C25.1299 12.8984 24.859 11.7247 23.8658 11.2281C22.8275 10.7315 21.744 11.4538 20.7508 11.6344C19.5319 11.8601 18.4484 10.8669 17.2295 11.1378C16.2363 11.3635 15.7397 12.2213 15.1528 12.9887C14.7916 13.4402 14.3853 13.7562 13.8436 13.9368C13.3019 14.1174 12.7601 14.2528 12.2635 14.5688C11.2703 15.1557 11.3155 16.194 11.2703 17.1872C11.2703 17.8193 11.18 18.361 10.8189 18.9027C10.548 19.3993 10.0965 19.8508 9.87082 20.3925C9.37422 21.5212 10.1868 22.3789 10.7737 23.2367C11.0897 23.7333 11.2703 24.1847 11.3155 24.7716C11.3606 25.4037 11.2252 26.126 11.4509 26.758C11.8121 27.7964 12.9407 27.9318 13.8436 28.293C14.9722 28.6993 15.2882 29.7376 16.1009 30.5051C16.9135 31.2725 17.8615 31.0468 18.8096 30.7308C19.4868 30.5051 20.0736 30.3696 20.7508 30.5502C21.3377 30.7308 21.9246 31.0017 22.6018 31.0468C23.595 31.1371 24.2721 30.5954 24.859 29.8279C25.2202 29.3313 25.5362 28.7896 26.078 28.4735C26.6197 28.1575 27.2517 28.0672 27.8386 27.7964C28.2901 27.6158 28.6964 27.3449 28.9221 26.9386C29.2381 26.3969 29.193 25.7648 29.193 25.1779C29.193 24.3653 29.2833 23.7784 29.7799 23.1013C30.141 22.6047 30.5925 22.1081 30.7279 21.5212C31.1342 20.1668 29.7799 19.2639 29.3736 18.1353C29.2833 17.9547 28.6512 18.1353 28.7415 18.3159C29.1027 19.2639 30.0959 19.9862 30.2313 21.0246C30.3216 22.1532 29.193 22.9207 28.8318 23.8687C28.4255 24.8168 28.877 25.9454 28.4707 26.8935C28.0192 27.8415 26.6197 27.8415 25.8071 28.3381C24.9945 28.7896 24.6333 29.6473 24.0013 30.3245C23.0984 31.2725 21.7892 30.2342 20.7057 30.1439C20.2542 30.0988 19.8028 30.1891 19.3513 30.3245C18.7644 30.5051 18.0872 30.8662 17.4552 30.6857C16.5072 30.4148 16.1009 29.1959 15.4688 28.609C14.7916 27.9769 13.8436 27.9318 13.031 27.5255C11.9024 26.9386 12.1281 25.7648 12.0829 24.6813C12.0378 23.5076 11.2252 22.8755 10.7286 21.8823C10.1417 20.7537 10.9543 19.8959 11.5412 18.993C12.1732 18.045 11.9926 17.1421 12.0829 16.0586C12.0378 15.4266 12.2184 14.93 12.8053 14.614C13.2567 14.3882 13.7533 14.2528 14.2499 14.0722C15.1528 13.7562 15.6494 13.1693 16.1912 12.4018C16.5072 11.9955 16.8683 11.4086 17.4101 11.4086C17.997 11.3635 18.629 11.7247 19.2159 11.8601C20.3897 12.1761 21.2926 11.7247 22.4212 11.4538C23.8207 11.1378 24.3173 12.6727 25.1299 13.4853C25.8974 14.2528 27.0711 14.1625 27.9289 14.7945C28.9672 15.562 28.4255 17.1872 28.6964 18.2707C28.7415 18.4964 29.4187 18.3159 29.3736 18.1353Z" fill="#383838"/>
<path d="M20.3899 28.1119C17.5006 28.0667 14.8822 26.2158 13.889 23.5522C12.8958 20.8886 13.573 17.8187 15.6497 15.8775C17.8618 13.8008 21.2477 13.5299 23.8209 15.11C26.2136 16.5998 27.5228 19.444 27.0714 22.1978C26.5297 25.4934 23.7306 28.0667 20.3899 28.1119C20.1642 28.1119 19.6676 28.4279 20.119 28.4279C23.1438 28.3827 25.9879 26.6672 27.2068 23.8682C28.4709 20.9338 27.568 17.4124 25.1302 15.3809C22.7375 13.4397 19.3064 13.2139 16.6428 14.7037C13.889 16.1935 12.3089 19.3085 12.8507 22.4236C13.4827 25.9449 16.5977 28.4279 20.119 28.4279C20.3448 28.4279 20.8414 28.1119 20.3899 28.1119Z" fill="#383838"/>
<path d="M20.2551 15.0654C16.9595 15.0654 14.2508 17.7741 14.2508 21.0697C14.2508 24.3653 16.9595 27.0741 20.2551 27.0741C23.5507 27.0741 26.2594 24.3653 26.2594 21.0697C26.2594 17.7741 23.5959 15.0654 20.2551 15.0654ZM24.273 20.3926L22.3318 22.0178L22.9638 24.4556C23.009 24.5911 22.9638 24.7717 22.8284 24.8168C22.693 24.9071 22.5575 24.9071 22.4221 24.8168L20.3003 23.4624L18.1784 24.8168C18.043 24.9071 17.9076 24.9071 17.7721 24.8168C17.6367 24.7265 17.5916 24.5911 17.6367 24.4556L18.2687 22.0178L16.2823 20.3926C16.1469 20.3023 16.1018 20.1217 16.1469 19.9863C16.1921 19.8508 16.3275 19.7605 16.4629 19.7154L18.9911 19.5348L19.9391 17.1873C19.9843 17.0518 20.1197 16.9615 20.2551 16.9615C20.3906 16.9615 20.526 17.0518 20.5711 17.1873L21.5192 19.5348L24.0473 19.7154C24.1828 19.7154 24.3182 19.8057 24.3633 19.9863C24.4085 20.1217 24.3633 20.2571 24.273 20.3926Z" fill="#383838"/>
</g>
</svg>
