<svg width="31" height="31" viewBox="0 0 31 31" fill="none" xmlns="http://www.w3.org/2000/svg">
<path d="M15.4258 0.602783C7.1423 0.602783 0.425781 7.3193 0.425781 15.6028C0.425781 23.8863 7.1423 30.6028 15.4258 30.6028C23.7093 30.6028 30.4258 23.8863 30.4258 15.6028C30.4258 7.3193 23.7093 0.602783 15.4258 0.602783ZM21.9046 10.7043L14.8532 20.4811C14.7547 20.6187 14.6248 20.7308 14.4742 20.8081C14.3237 20.8854 14.1569 20.9257 13.9877 20.9257C13.8185 20.9257 13.6517 20.8854 13.5012 20.8081C13.3507 20.7308 13.2208 20.6187 13.1222 20.4811L8.94699 14.6954C8.81975 14.518 8.94699 14.2702 9.16462 14.2702H10.7349C11.0765 14.2702 11.4012 14.4343 11.6021 14.7155L13.986 18.0235L19.2494 10.7244C19.4503 10.4465 19.7718 10.2791 20.1166 10.2791H21.6869C21.9046 10.2791 22.0318 10.5269 21.9046 10.7043Z" fill="#8CE071"/>
</svg>
