<svg width="30" height="29" viewBox="0 0 30 29" fill="none" xmlns="http://www.w3.org/2000/svg">
<path d="M27.8788 10.6802C27.434 9.21867 28.133 7.2488 27.0527 6.04146C26.036 4.89766 24.3203 5.02475 23.113 4.13513C21.9057 3.30906 21.5244 1.65691 20.1264 0.957924C18.6649 0.258938 17.1399 1.27565 15.7419 1.52982C14.0262 1.84754 12.5011 0.449571 10.7854 0.830836C9.38746 1.14856 8.68847 2.3559 7.8624 3.43615C7.35405 4.07159 6.78215 4.5164 6.01962 4.77058C5.25709 5.02475 4.49456 5.21538 3.79557 5.66019C2.3976 6.48627 2.46114 7.94778 2.3976 9.34576C2.3976 10.2354 2.27051 10.9979 1.76216 11.7604C1.38089 12.4594 0.745451 13.0949 0.42773 13.8574C-0.271256 15.446 0.87254 16.6533 1.69861 17.8607C2.14342 18.5597 2.3976 19.1951 2.46114 20.0212C2.52469 20.9108 2.33406 21.9275 2.65178 22.8171C3.16013 24.2786 4.74873 24.4693 6.01962 24.9776C7.60822 25.5495 8.05303 27.011 9.19683 28.0913C10.3406 29.1715 11.675 28.8538 13.0095 28.409C13.9626 28.0913 14.7887 27.9007 15.7419 28.1548C16.568 28.409 17.394 28.7903 18.3472 28.8538C19.7452 28.9809 20.6983 28.2184 21.5244 27.1381C22.0328 26.4391 22.4776 25.6766 23.2401 25.2318C24.0026 24.787 24.8922 24.6599 25.7183 24.2786C26.3538 24.0245 26.9257 23.6432 27.2434 23.0713C27.6882 22.3088 27.6246 21.4191 27.6246 20.5931C27.6246 19.4493 27.7517 18.6232 28.4507 17.67C28.9591 16.9711 29.5945 16.2721 29.7851 15.446C30.357 13.5397 28.4507 12.2688 27.8788 10.6802C27.7517 10.426 26.8621 10.6802 26.9892 10.9344C27.4975 12.2688 28.8955 13.2855 29.0862 14.747C29.2132 16.3356 27.6246 17.4159 27.1163 18.7503C26.5444 20.0847 27.1798 21.6733 26.6079 23.0078C25.9725 24.3422 24.0026 24.3422 22.8588 25.0412C21.715 25.6766 21.2067 26.8839 20.3171 27.8371C19.0462 29.1715 17.2034 27.71 15.6783 27.5829C15.0429 27.5194 14.4074 27.6465 13.772 27.8371C12.9459 28.0913 11.9928 28.5996 11.1032 28.3455C9.76872 27.9642 9.19683 26.2485 8.30721 25.4224C7.35405 24.5328 6.01962 24.4693 4.87582 23.8974C3.28722 23.0713 3.60494 21.4191 3.5414 19.8941C3.47785 18.2419 2.33406 17.3523 1.63507 15.9544C0.808995 14.3657 1.95279 13.1584 2.77886 11.8875C3.66848 10.5531 3.41431 9.28221 3.5414 7.75715C3.47785 6.86753 3.73203 6.16855 4.5581 5.72374C5.19354 5.40602 5.89253 5.21538 6.59152 4.96121C7.8624 4.5164 8.56139 3.69032 9.32392 2.61007C9.76872 2.03818 10.2771 1.2121 11.0396 1.2121C11.8657 1.14856 12.7553 1.65691 13.5814 1.84754C15.2335 2.29235 16.5044 1.65691 18.093 1.27565C20.0629 0.830836 20.7619 2.99134 21.9057 4.13513C22.9859 5.21538 24.6381 5.0883 25.8454 5.97791C27.3069 7.05817 26.5444 9.34576 26.9257 10.8708C26.9892 11.1885 27.9424 10.9344 27.8788 10.6802Z" fill="#FF5A5F"/>
<path d="M15.2336 24.7235C11.1668 24.6599 7.48125 22.0546 6.08327 18.3055C4.6853 14.5564 5.63847 10.2354 8.5615 7.50301C11.6752 4.57998 16.441 4.19871 20.063 6.42276C23.4308 8.51971 25.2736 12.523 24.6382 16.3992C23.8756 21.0379 19.9359 24.6599 15.2336 24.7235C14.9159 24.7235 14.2169 25.1683 14.8524 25.1683C19.1098 25.1047 23.1131 22.6901 24.8288 18.7503C26.608 14.62 25.3372 9.66351 21.9058 6.80402C18.5379 4.07162 13.7086 3.7539 9.95947 5.85086C6.08327 7.94782 3.85923 12.3324 4.62176 16.7169C5.51138 21.6734 9.89593 25.1683 14.8524 25.1683C15.1701 25.1683 15.8691 24.7235 15.2336 24.7235Z" fill="#FF5A5F"/>
<path d="M15.044 6.35913C10.4053 6.35913 6.59265 10.1718 6.59265 14.8105C6.59265 19.4492 10.4053 23.2619 15.044 23.2619C19.6828 23.2619 23.4954 19.4492 23.4954 14.8105C23.4954 10.1718 19.7463 6.35913 15.044 6.35913ZM20.6995 13.8573L17.9671 16.1449L18.8567 19.5763C18.9202 19.767 18.8567 20.0211 18.666 20.0847C18.4754 20.2118 18.2848 20.2118 18.0941 20.0847L15.1076 18.1783L12.121 20.0847C11.9304 20.2118 11.7397 20.2118 11.5491 20.0847C11.3585 19.9576 11.2949 19.767 11.3585 19.5763L12.2481 16.1449L9.45214 13.8573C9.26151 13.7303 9.19796 13.4761 9.26151 13.2854C9.32505 13.0948 9.51568 12.9677 9.70632 12.9042L13.2648 12.65L14.5992 9.34571C14.6628 9.15507 14.8534 9.02799 15.044 9.02799C15.2347 9.02799 15.4253 9.15507 15.4888 9.34571L16.8233 12.65L20.3817 12.9042C20.5724 12.9042 20.763 13.0313 20.8265 13.2854C20.8901 13.4761 20.8265 13.6667 20.6995 13.8573Z" fill="#FF5A5F"/>
</svg>
