<svg width="30" height="29" viewBox="0 0 30 29" fill="none" xmlns="http://www.w3.org/2000/svg">
<g opacity="0.5">
<path d="M27.8515 10.6802C27.4067 9.21867 28.1056 7.2488 27.0254 6.04146C26.0087 4.89766 24.293 5.02475 23.0857 4.13513C21.8783 3.30906 21.4971 1.65691 20.0991 0.957924C18.6376 0.258938 17.1125 1.27565 15.7145 1.52982C13.9988 1.84754 12.4738 0.449571 10.7581 0.830836C9.36012 1.14856 8.66113 2.3559 7.83506 3.43615C7.3267 4.07159 6.7548 4.5164 5.99227 4.77058C5.22974 5.02475 4.46721 5.21538 3.76823 5.66019C2.37026 6.48627 2.4338 7.94778 2.37026 9.34576C2.37026 10.2354 2.24317 10.9979 1.73481 11.7604C1.35355 12.4594 0.718108 13.0949 0.400387 13.8574C-0.298599 15.446 0.845196 16.6533 1.67127 17.8607C2.11608 18.5597 2.37026 19.1951 2.4338 20.0212C2.49734 20.9108 2.30671 21.9275 2.62443 22.8171C3.13279 24.2786 4.72139 24.4693 5.99227 24.9776C7.58088 25.5495 8.02569 27.011 9.16948 28.0913C10.3133 29.1715 11.6477 28.8538 12.9821 28.409C13.9353 28.0913 14.7614 27.9007 15.7145 28.1548C16.5406 28.409 17.3667 28.7903 18.3198 28.8538C19.7178 28.9809 20.671 28.2184 21.4971 27.1381C22.0054 26.4391 22.4502 25.6766 23.2127 25.2318C23.9753 24.787 24.8649 24.6599 25.691 24.2786C26.3264 24.0245 26.8983 23.6432 27.216 23.0713C27.6608 22.3088 27.5973 21.4191 27.5973 20.5931C27.5973 19.4493 27.7244 18.6232 28.4234 17.67C28.9317 16.9711 29.5672 16.2721 29.7578 15.446C30.3297 13.5397 28.4234 12.2688 27.8515 10.6802C27.7244 10.426 26.8348 10.6802 26.9619 10.9344C27.4702 12.2688 28.8682 13.2855 29.0588 14.747C29.1859 16.3356 27.5973 17.4159 27.0889 18.7503C26.517 20.0847 27.1525 21.6733 26.5806 23.0078C25.9451 24.3422 23.9753 24.3422 22.8315 25.0412C21.6877 25.6766 21.1793 26.8839 20.2897 27.8371C19.0188 29.1715 17.1761 27.71 15.651 27.5829C15.0155 27.5194 14.3801 27.6465 13.7447 27.8371C12.9186 28.0913 11.9654 28.5996 11.0758 28.3455C9.74138 27.9642 9.16948 26.2485 8.27986 25.4224C7.3267 24.5328 5.99227 24.4693 4.84848 23.8974C3.25987 23.0713 3.5776 21.4191 3.51405 19.8941C3.45051 18.2419 2.30671 17.3523 1.60773 15.9544C0.781652 14.3657 1.92545 13.1584 2.75152 11.8875C3.64114 10.5531 3.38696 9.28221 3.51405 7.75715C3.45051 6.86753 3.70468 6.16855 4.53076 5.72374C5.1662 5.40602 5.86519 5.21538 6.56417 4.96121C7.83506 4.5164 8.53404 3.69032 9.29657 2.61007C9.74138 2.03818 10.2497 1.2121 11.0123 1.2121C11.8383 1.14856 12.728 1.65691 13.554 1.84754C15.2062 2.29235 16.4771 1.65691 18.0657 1.27565C20.0355 0.830836 20.7345 2.99134 21.8783 4.13513C22.9586 5.21538 24.6107 5.0883 25.8181 5.97791C27.2796 7.05817 26.517 9.34576 26.8983 10.8708C26.9619 11.1885 27.915 10.9344 27.8515 10.6802Z" fill="#383838"/>
<path d="M15.2063 24.7235C11.1395 24.6599 7.4539 22.0546 6.05593 18.3055C4.65796 14.5564 5.61112 10.2354 8.53415 7.50301C11.6478 4.57998 16.4136 4.19871 20.0357 6.42276C23.4035 8.51971 25.2463 12.523 24.6108 16.3992C23.8483 21.0379 19.9086 24.6599 15.2063 24.7235C14.8886 24.7235 14.1896 25.1683 14.825 25.1683C19.0825 25.1047 23.0858 22.6901 24.8015 18.7503C26.5807 14.62 25.3098 9.66351 21.8784 6.80402C18.5106 4.07162 13.6812 3.7539 9.93213 5.85086C6.05593 7.94782 3.83188 12.3324 4.59441 16.7169C5.48403 21.6734 9.86858 25.1683 14.825 25.1683C15.1427 25.1683 15.8417 24.7235 15.2063 24.7235Z" fill="#383838"/>
<path d="M15.0167 6.35913C10.378 6.35913 6.56531 10.1718 6.56531 14.8105C6.56531 19.4492 10.378 23.2619 15.0167 23.2619C19.6554 23.2619 23.4681 19.4492 23.4681 14.8105C23.4681 10.1718 19.719 6.35913 15.0167 6.35913ZM20.6721 13.8573L17.9397 16.1449L18.8293 19.5763C18.8929 19.767 18.8293 20.0211 18.6387 20.0847C18.4481 20.2118 18.2574 20.2118 18.0668 20.0847L15.0802 18.1783L12.0937 20.0847C11.903 20.2118 11.7124 20.2118 11.5218 20.0847C11.3311 19.9576 11.2676 19.767 11.3311 19.5763L12.2207 16.1449L9.4248 13.8573C9.23416 13.7303 9.17062 13.4761 9.23416 13.2854C9.29771 13.0948 9.48834 12.9677 9.67897 12.9042L13.2374 12.65L14.5719 9.34571C14.6354 9.15507 14.8261 9.02799 15.0167 9.02799C15.2073 9.02799 15.3979 9.15507 15.4615 9.34571L16.7959 12.65L20.3544 12.9042C20.545 12.9042 20.7357 13.0313 20.7992 13.2854C20.8627 13.4761 20.7992 13.6667 20.6721 13.8573Z" fill="#383838"/>
</g>
</svg>
