<svg width="21" height="16" viewBox="0 0 21 16" fill="none" xmlns="http://www.w3.org/2000/svg">
<path opacity="0.5" d="M20.3007 7.36205C18.0788 2.68158 14.7203 0.326111 10.2179 0.326111C5.71322 0.326111 2.35697 2.68158 0.135096 7.36439C0.0459761 7.5531 -0.000244141 7.75921 -0.000244141 7.96791C-0.000244141 8.1766 0.0459761 8.38271 0.135096 8.57142C2.35697 13.2519 5.71556 15.6074 10.2179 15.6074C14.7226 15.6074 18.0788 13.2519 20.3007 8.56908C20.4812 8.18939 20.4812 7.74877 20.3007 7.36205ZM10.2179 13.9199C6.43744 13.9199 3.66947 12.0027 1.71713 7.96674C3.66947 3.9308 6.43744 2.01361 10.2179 2.01361C13.9984 2.01361 16.7663 3.9308 18.7187 7.96674C16.7687 12.0027 14.0007 13.9199 10.2179 13.9199ZM10.1242 3.84174C7.84603 3.84174 5.99916 5.68861 5.99916 7.96674C5.99916 10.2449 7.84603 12.0917 10.1242 12.0917C12.4023 12.0917 14.2492 10.2449 14.2492 7.96674C14.2492 5.68861 12.4023 3.84174 10.1242 3.84174ZM10.1242 10.5917C8.67338 10.5917 7.49916 9.41752 7.49916 7.96674C7.49916 6.51595 8.67338 5.34174 10.1242 5.34174C11.5749 5.34174 12.7492 6.51595 12.7492 7.96674C12.7492 9.41752 11.5749 10.5917 10.1242 10.5917Z" fill="#383838"/>
</svg>
