<svg width="31" height="31" viewBox="0 0 31 31" fill="none" xmlns="http://www.w3.org/2000/svg">
<path d="M15.7773 0.590088C7.49386 0.590088 0.777344 7.30661 0.777344 15.5901C0.777344 23.8736 7.49386 30.5901 15.7773 30.5901C24.0608 30.5901 30.7773 23.8736 30.7773 15.5901C30.7773 7.30661 24.0608 0.590088 15.7773 0.590088ZM14.7059 8.35794C14.7059 8.21062 14.8265 8.09009 14.9738 8.09009H16.5809C16.7282 8.09009 16.8488 8.21062 16.8488 8.35794V17.4651C16.8488 17.6124 16.7282 17.7329 16.5809 17.7329H14.9738C14.8265 17.7329 14.7059 17.6124 14.7059 17.4651V8.35794ZM15.7773 23.0901C15.3568 23.0815 14.9563 22.9084 14.662 22.6079C14.3676 22.3075 14.2027 21.9036 14.2027 21.4829C14.2027 21.0623 14.3676 20.6584 14.662 20.3579C14.9563 20.0575 15.3568 19.8844 15.7773 19.8758C16.1979 19.8844 16.5983 20.0575 16.8927 20.3579C17.1871 20.6584 17.352 21.0623 17.352 21.4829C17.352 21.9036 17.1871 22.3075 16.8927 22.6079C16.5983 22.9084 16.1979 23.0815 15.7773 23.0901Z" fill="#FFB400"/>
</svg>
