<svg width="31" height="31" viewBox="0 0 31 31" fill="none" xmlns="http://www.w3.org/2000/svg">
<path d="M15.5078 0.596436C7.22433 0.596436 0.507812 7.31295 0.507812 15.5964C0.507812 23.8799 7.22433 30.5964 15.5078 30.5964C23.7913 30.5964 30.5078 23.8799 30.5078 15.5964C30.5078 7.31295 23.7913 0.596436 15.5078 0.596436ZM21.0458 21.2951L18.8359 21.2851L15.5078 17.3174L12.183 21.2817L9.96987 21.2917C9.82254 21.2917 9.70201 21.1746 9.70201 21.0239C9.70201 20.9603 9.72545 20.9 9.76562 20.8498L14.1217 15.6601L9.76562 10.4737C9.72517 10.4246 9.70272 10.3632 9.70201 10.2996C9.70201 10.1522 9.82254 10.0317 9.96987 10.0317L12.183 10.0417L15.5078 14.0094L18.8326 10.0451L21.0424 10.0351C21.1897 10.0351 21.3103 10.1522 21.3103 10.3029C21.3103 10.3665 21.2868 10.4268 21.2467 10.477L16.8973 15.6634L21.25 20.8531C21.2902 20.9034 21.3136 20.9636 21.3136 21.0272C21.3136 21.1746 21.1931 21.2951 21.0458 21.2951Z" fill="#FF5A5F"/>
</svg>
