<svg width="33" height="33" viewBox="0 0 33 33" fill="none" xmlns="http://www.w3.org/2000/svg">
<g clip-path="url(#clip0)">
<path d="M29.5835 5.32357H22.775V2.08953C22.775 1.24487 22.0878 0.557617 21.2431 0.557617H11.0303C10.1856 0.557617 9.49842 1.24487 9.49842 2.08953V5.32357H2.68991C1.28205 5.32357 0.136719 6.4689 0.136719 7.87677V15.5569C0.136719 15.7694 0.268327 15.9597 0.467136 16.0347C0.616106 16.0909 0.765417 16.1461 0.914863 16.2007V30.0044C0.914863 31.4123 2.06019 32.5576 3.46805 32.5576H29C30.4078 32.5576 31.5532 31.4123 31.5532 30.0044V16.1277C31.6374 16.0965 31.7223 16.0665 31.8063 16.0347C32.0051 15.9597 32.1367 15.7695 32.1367 15.5569V7.87677C32.1367 6.4689 30.9914 5.32357 29.5835 5.32357ZM10.5197 2.08953C10.5197 1.80793 10.7487 1.57889 11.0303 1.57889H21.2431C21.5247 1.57889 21.7537 1.80793 21.7537 2.08953V5.32357H20.7325V3.11081C20.7325 2.82873 20.5038 2.60017 20.2218 2.60017H12.0516C11.7696 2.60017 11.541 2.82873 11.541 3.11081V5.32357H10.5197V2.08953ZM12.5623 5.32357V3.62145H19.7112V5.32357H12.5623ZM1.93614 30.0044V27.1372C4.25103 27.3763 6.09628 29.2214 6.33532 31.5363H3.46805C2.62332 31.5363 1.93614 30.8491 1.93614 30.0044ZM29 31.5363H26.1327C26.3717 29.2214 28.217 27.3762 30.5319 27.1372V30.0044C30.5319 30.8491 29.8447 31.5363 29 31.5363ZM30.5319 26.1117C27.6535 26.3572 25.3527 28.6579 25.1072 31.5363H7.36082C7.11531 28.658 4.81451 26.3572 1.93614 26.1117V16.5589C5.72582 17.8379 9.66727 18.5965 13.6808 18.8176V21.7792C13.6808 22.0613 13.9095 22.2898 14.1915 22.2898H18.2766C18.5586 22.2898 18.7872 22.0613 18.7872 21.7792V18.8047C20.5808 18.6977 22.382 18.4816 24.1486 18.1587C24.4261 18.108 24.6098 17.842 24.5591 17.5645C24.5084 17.2871 24.2422 17.1036 23.9649 17.154C22.2587 17.4659 20.5196 17.6759 18.7871 17.7818V15.6516C18.7871 15.3695 18.5585 15.141 18.2765 15.141H14.1914C13.9094 15.141 13.6808 15.3695 13.6808 15.6516V17.7946C9.5422 17.5613 5.4829 16.7436 1.59408 15.3599C1.58761 15.3577 1.58128 15.3552 1.57468 15.3531C1.43551 15.3035 1.29655 15.2533 1.15786 15.2022V7.87677C1.158 7.0321 1.84518 6.34485 2.68991 6.34485H29.5835C30.4283 6.34485 31.1154 7.0321 31.1154 7.87677V15.2022C29.4329 15.8209 27.6942 16.3393 25.9419 16.7448C25.6671 16.8084 25.4959 17.0826 25.5594 17.3573C25.6229 17.6321 25.8973 17.8033 26.1721 17.7397C27.6428 17.3994 29.1038 16.9806 30.5319 16.492V26.1117ZM14.7021 20.2472H17.7659V21.2685H14.7021V20.2472ZM17.7659 19.2259H14.7021V16.1621H17.7659V19.2259Z" fill="black"/>
<path d="M5.78836 9.4412C6.07038 9.4412 6.299 9.21258 6.299 8.93056C6.299 8.64854 6.07038 8.41992 5.78836 8.41992C5.50635 8.41992 5.27773 8.64854 5.27773 8.93056C5.27773 9.21258 5.50635 9.4412 5.78836 9.4412Z" fill="black"/>
<path d="M3.74585 11.4839C4.02787 11.4839 4.25649 11.2553 4.25649 10.9733C4.25649 10.6913 4.02787 10.4626 3.74585 10.4626C3.46383 10.4626 3.23521 10.6913 3.23521 10.9733C3.23521 11.2553 3.46383 11.4839 3.74585 11.4839Z" fill="black"/>
</g>
<defs>
<clipPath id="clip0">
<rect width="32" height="32" fill="white" transform="translate(0.136719 0.557617)"/>
</clipPath>
</defs>
</svg>
