<svg width="1280" height="721" viewBox="0 0 1280 721" fill="none" xmlns="http://www.w3.org/2000/svg">
<g opacity="0.3">
<mask id="mask0" mask-type="alpha" maskUnits="userSpaceOnUse" x="0" y="0" width="1280" height="721">
<rect y="0.310547" width="1280" height="720" fill="#FCF5EB"/>
</mask>
<g mask="url(#mask0)">
<path fill-rule="evenodd" clip-rule="evenodd" d="M168.205 560.351C122.637 531.879 68.7883 515.424 11.0964 515.424C-119.452 515.424 -230.321 599.68 -270.098 716.78H-266.927C-227.271 601.366 -117.774 518.424 11.0964 518.424C68.8768 518.424 122.763 535.098 168.205 563.896V560.351ZM-285.807 812.328C-285.807 806.082 -285.614 799.881 -285.234 793.731H-282.228C-282.612 799.881 -282.807 806.081 -282.807 812.328C-282.807 974.646 -151.222 1106.23 11.0964 1106.23C95.8791 1106.23 172.277 1070.33 225.919 1012.91V1013.04H229.881C175.609 1072.17 97.6808 1109.23 11.0964 1109.23C-152.879 1109.23 -285.807 976.303 -285.807 812.328ZM277.067 944.427C296.866 904.641 308 859.785 308 812.328C308 735.872 279.101 666.166 231.631 613.537H227.574C275.65 665.863 305 735.668 305 812.328C305 859.837 293.727 904.713 273.711 944.427H277.067Z" fill="#00D1C1"/>
<path fill-rule="evenodd" clip-rule="evenodd" d="M-26.7382 589.761C-133.39 607.759 -214.628 700.556 -214.628 812.328C-214.628 936.991 -113.568 1038.05 11.0959 1038.05C28.7423 1038.05 45.9158 1036.03 62.3966 1032.2V1029.11C45.9268 1033 28.7513 1035.05 11.0959 1035.05C-111.911 1035.05 -211.628 935.334 -211.628 812.328C-211.628 702.217 -131.725 610.77 -26.7382 592.804V589.761ZM34.8228 590.853C146.674 602.697 233.82 697.336 233.82 812.328C233.82 837.219 229.736 861.157 222.203 883.508H225.367C232.797 861.13 236.82 837.199 236.82 812.328C236.82 695.677 148.334 599.694 34.8228 587.836V590.853ZM106.644 1013.57C129.601 1002.65 150.394 987.922 168.204 970.197V974.402C150.294 991.767 129.513 1006.19 106.644 1016.89V1013.57ZM201.614 927.755C205.512 921.334 209.095 914.7 212.341 907.875H215.659C212.468 914.695 208.947 921.328 205.115 927.755H201.614Z" fill="#00D1C1"/>
<path fill-rule="evenodd" clip-rule="evenodd" d="M11.0961 966.437C81.0633 966.437 140.14 919.81 158.949 855.933H162.075C143.175 921.488 82.7349 969.437 11.0961 969.437C-75.6727 969.437 -146.013 899.097 -146.013 812.328C-146.013 797.198 -143.874 782.567 -139.882 768.722H-136.757C-140.828 782.548 -143.013 797.183 -143.013 812.328C-143.013 897.44 -74.0158 966.437 11.0961 966.437ZM-120.552 732.17C-93.4921 687.824 -44.6552 658.219 11.0961 658.219C73.5755 658.219 127.371 695.4 151.563 748.843H154.85C130.461 693.698 75.2723 655.219 11.0961 655.219C-46.392 655.219 -96.6684 686.096 -124.054 732.17H-120.552Z" fill="#00D1C1"/>
<path fill-rule="evenodd" clip-rule="evenodd" d="M11.0963 904.875C62.209 904.875 103.644 863.44 103.644 812.328C103.644 799.839 101.17 787.928 96.6864 777.058H99.9239C104.26 787.97 106.644 799.871 106.644 812.328C106.644 865.097 63.8659 907.875 11.0963 907.875C-25.9643 907.875 -58.0967 886.776 -73.9435 855.933H-70.5554C-54.9675 885.061 -24.2496 904.875 11.0963 904.875ZM-81.4494 812.969C-81.4508 812.755 -81.4515 812.542 -81.4515 812.328C-81.4515 761.215 -40.0165 719.78 11.0963 719.78C29.7125 719.78 47.045 725.276 61.5593 734.735H66.8652C51.1716 723.436 31.9112 716.78 11.0963 716.78C-41.6733 716.78 -84.4515 759.558 -84.4515 812.328C-84.4515 812.542 -84.4508 812.755 -84.4494 812.969H-81.4494Z" fill="#00D1C1"/>
<path fill-rule="evenodd" clip-rule="evenodd" d="M895.783 172.863C833.537 239.59 744.832 281.311 646.381 281.311C458.052 281.311 305.381 128.64 305.381 -59.6895C305.381 -66.9265 305.607 -74.1108 306.051 -81.2359H303.045C302.605 -74.1103 302.381 -66.926 302.381 -59.6895C302.381 130.297 456.395 284.311 646.381 284.311C746.7 284.311 836.989 241.369 899.87 172.863H895.783ZM951.186 93.3645H954.542C977.481 47.2673 990.381 -4.70456 990.381 -59.6895C990.381 -148.273 956.898 -229.036 901.898 -290.013H897.844C953.448 -229.338 987.381 -148.477 987.381 -59.6895C987.381 -4.65271 974.343 47.3387 951.186 93.3645ZM646.381 -400.689C496.803 -400.689 369.718 -304.382 323.753 -170.394H320.582C366.669 -306.068 495.125 -403.689 646.381 -403.689C713.224 -403.689 775.615 -384.625 828.411 -351.636V-348.092C775.74 -381.406 713.313 -400.689 646.381 -400.689Z" fill="#00D1C1"/>
<path fill-rule="evenodd" clip-rule="evenodd" d="M602.546 -317.561C478.977 -296.708 384.852 -189.191 384.852 -59.6895C384.852 84.749 501.943 201.84 646.381 201.84C666.827 201.84 686.725 199.493 705.82 195.056V191.974C686.736 196.464 666.836 198.84 646.381 198.84C503.6 198.84 387.852 83.0922 387.852 -59.6895C387.852 -187.529 480.642 -293.697 602.546 -314.518V-317.561ZM673.872 -316.774C803.729 -303.049 904.911 -193.185 904.911 -59.6895C904.911 -30.8529 900.189 -3.11896 891.478 22.7815H894.642C903.25 -3.14526 907.911 -30.8731 907.911 -59.6895C907.911 -194.844 805.389 -306.053 673.872 -319.791V-316.774ZM757.086 174.005C783.67 161.389 807.759 144.371 828.412 123.892V128.094C807.66 148.214 783.583 164.924 757.086 177.322V174.005ZM867.677 74.0471C872.183 66.6069 876.324 58.9211 880.076 51.0147H883.393C879.697 58.9154 875.617 66.6009 871.177 74.0471H867.677Z" fill="#00D1C1"/>
<path fill-rule="evenodd" clip-rule="evenodd" d="M646.381 119.341C727.712 119.341 796.376 65.1081 818.184 -9.16678H821.309C799.411 66.7869 729.384 122.341 646.381 122.341C545.849 122.341 464.351 40.843 464.351 -59.6895C464.351 -77.2195 466.829 -94.1708 471.454 -110.212H474.579C469.875 -94.1895 467.351 -77.2342 467.351 -59.6895C467.351 39.1862 547.506 119.341 646.381 119.341ZM493.293 -152.562C524.698 -204.217 581.51 -238.72 646.381 -238.72C719.041 -238.72 781.591 -195.435 809.652 -133.245H812.938C784.681 -197.137 720.737 -241.72 646.381 -241.72C579.774 -241.72 521.522 -205.945 489.793 -152.562H493.293Z" fill="#00D1C1"/>
<path fill-rule="evenodd" clip-rule="evenodd" d="M646.381 48.0146C705.865 48.0146 754.085 -0.206116 754.085 -59.6895C754.085 -74.1539 751.234 -87.9523 746.063 -100.553H749.299C754.323 -87.9103 757.085 -74.1224 757.085 -59.6895C757.085 1.45073 707.521 51.0146 646.381 51.0146C603.442 51.0146 566.212 26.5678 547.852 -9.16678H551.238C569.341 24.8532 605.156 48.0146 646.381 48.0146ZM538.68 -58.9465C538.678 -59.1939 538.677 -59.4416 538.677 -59.6895C538.677 -119.173 586.898 -167.394 646.381 -167.394C668.307 -167.394 688.702 -160.842 705.716 -149.59H710.996C692.813 -162.682 670.498 -170.394 646.381 -170.394C585.241 -170.394 535.677 -120.83 535.677 -59.6895C535.677 -59.4416 535.678 -59.1939 535.68 -58.9465H538.68Z" fill="#00D1C1"/>
</g>
</g>
</svg>
