<svg width="172" height="163" viewBox="0 0 172 163" fill="none" xmlns="http://www.w3.org/2000/svg">
<path d="M153.543 14.325C153.543 14.325 162.017 16.1938 171.78 24.7345L160.057 46.1517C156.728 42.9338 152.574 40.7021 148.055 39.7041L153.543 14.325Z" fill="#FF5A5F"/>
<path d="M155.652 27.9116C156.679 24.0804 157.519 20.1932 158.508 16.362C156.904 15.5646 155.245 14.8839 153.543 14.325L148.055 39.7041C151.116 37.0503 151.937 38.0595 152.479 37.8352C153.393 34.4713 154.775 31.2008 155.652 27.9116Z" fill="#E42244"/>
<path d="M107.719 2.66382C107.719 2.66382 140.833 -0.644063 159.238 8.88713L152.481 37.7797C152.481 37.7797 136.241 29.0522 109.287 32.7899L107.719 2.66382Z" fill="#FF5A5F"/>
<path d="M110.332 0.0844727H107.682V113.711H110.332V0.0844727Z" fill="#383838"/>
<path d="M112.365 110.292H105.663V115.618H112.365V110.292Z" fill="#383838"/>
<path d="M114.978 114.459H103.051V117.131H114.978V114.459Z" fill="#383838"/>
<path d="M60.2864 50.3573V69.2328H65.0089V55.9452C65.0137 55.3055 65.2684 54.6932 65.7184 54.2391C66.1684 53.7851 66.7781 53.5254 67.4169 53.5156H87.7445C88.3881 53.5156 89.0053 53.7716 89.4604 54.2272C89.9155 54.6829 90.1711 55.3008 90.1711 55.9452V69.2328H94.8937V50.3573C94.8937 49.7112 94.6387 49.0913 94.1841 48.6327C93.7296 48.1741 93.1124 47.914 92.4671 47.9091H62.7316C62.0831 47.9091 61.4611 48.167 61.0026 48.6261C60.544 49.0852 60.2864 49.708 60.2864 50.3573Z" fill="#383838"/>
<path d="M8.5066 63.7842H146.693C150.77 63.7842 154.076 67.0927 154.076 71.1763V154.191C154.076 158.275 150.77 161.583 146.693 161.583H8.5066C4.43053 161.583 1.12437 158.275 1.12437 154.191V71.1763C1.12437 67.0927 4.43053 63.7842 8.5066 63.7842Z" fill="#007A87" stroke="#383838" stroke-width="1.81125"/>
<path d="M8.55647 63.7091V63.7092H8.5626H146.693C148.651 63.7092 150.529 64.4877 151.913 65.8739C153.298 67.2601 154.076 69.1404 154.076 71.1013V90.6309C154.076 93.3243 153.545 95.9912 152.514 98.4788C151.483 100.966 149.972 103.226 148.067 105.128C146.162 107.03 143.902 108.536 141.415 109.562C138.928 110.588 136.263 111.112 133.573 111.105H133.571H21.573C16.1501 111.105 10.949 108.948 7.11403 105.109C3.27904 101.269 1.12437 96.0613 1.12437 90.6309V71.1013V71.1013C1.12435 70.1261 1.317 69.1607 1.69119 68.2605C2.06539 67.3603 2.61372 66.5432 3.30457 65.8561C3.99541 65.1691 4.81512 64.6257 5.71645 64.2573C6.61779 63.8888 7.58298 63.7026 8.55647 63.7091Z" fill="#00D1C1" stroke="#383838" stroke-width="1.81125"/>
<path d="M82.5205 107.525H72.6833V118.72H82.5205V107.525Z" fill="#383838"/>
<path d="M79.177 112.889H76.0037V115.655H79.177V112.889Z" fill="#8CE071"/>
<path d="M37.2335 13.5588H32.0442C32.0442 13.5588 31.2976 20.6231 29.9536 21.4641C29.9536 21.4641 28.2923 29.7992 34.6388 29.7992C42.3294 29.7992 39.3241 21.4641 39.3241 21.4641C37.9801 20.6418 37.2335 13.5588 37.2335 13.5588Z" fill="#FFBE9E"/>
<path d="M37.2335 13.5588H32.0442C32.0442 13.5588 31.2976 20.6231 29.9536 21.4641C29.9536 21.4641 28.2923 29.7992 34.6388 29.7992C42.3294 29.7992 39.3241 21.4641 39.3241 21.4641C37.9801 20.6418 37.2335 13.5588 37.2335 13.5588Z" fill="#E38D74"/>
<path d="M41.3764 15.0355C40.6484 14.2132 39.7898 15.4654 39.7898 15.4654C39.7898 15.4654 40.9844 10.7932 39.7898 8.75615C38.5951 6.71909 34.7685 7.78434 34.7685 7.78434C34.7685 7.78434 30.9233 6.7004 29.7473 8.75615C28.5713 10.8119 29.7473 15.4654 29.7473 15.4654C29.7473 15.4654 28.8886 14.1198 28.2167 15.0355C27.5447 15.9513 29.4113 17.951 29.8406 18.1939C29.8406 18.1939 32.6032 23.3707 34.8245 23.3707C37.0458 23.3707 39.8084 18.1939 39.8084 18.1939C40.1818 17.8575 42.0857 15.7644 41.3764 15.0355Z" fill="#FFBE9E"/>
<path d="M33.8168 9.54099C33.8168 9.54099 30.9048 10.0456 30.5875 11.6154C30.4976 12.3906 30.5482 13.1756 30.7368 13.9328C30.8901 14.7845 30.9774 15.6467 30.9981 16.5118C30.9399 16.54 30.8761 16.5546 30.8115 16.5546C30.7468 16.5546 30.683 16.54 30.6248 16.5118C30.2412 16.161 29.9083 15.7585 29.6355 15.3158C29.0755 14.5122 28.2915 14.643 28.0675 15.1476C28.0675 15.1476 27.4142 7.48524 30.6248 7.2236C33.8354 6.96196 33.8168 9.54099 33.8168 9.54099Z" fill="#383838"/>
<path d="M35.6848 9.54147C35.6848 9.54147 38.5781 10.0461 38.9141 11.6159C39.0071 12.392 38.95 13.1788 38.7461 13.9333C38.5885 14.784 38.5073 15.6471 38.5034 16.5123C38.562 16.5392 38.6256 16.5531 38.6901 16.5531C38.7545 16.5531 38.8182 16.5392 38.8767 16.5123C39.2603 16.1615 39.5933 15.759 39.866 15.3163C40.4074 14.5126 41.21 14.6435 41.434 15.1481C41.434 15.1481 42.0873 7.48573 38.8767 7.22409C35.6661 6.96245 35.6848 9.54147 35.6848 9.54147Z" fill="#383838"/>
<path d="M40.4794 8.25147C40.3631 7.68752 40.1122 7.16012 39.7481 6.71428C39.3841 6.26845 38.9177 5.91741 38.3888 5.69113C36.4305 4.9003 34.2683 4.7691 32.2289 5.31736C31.523 5.41509 30.8555 5.69841 30.2945 6.13845C29.7336 6.5785 29.2991 7.15954 29.0354 7.82241C28.7717 8.48527 28.6882 9.20627 28.7934 9.91195C28.8986 10.6176 29.1888 11.2828 29.6343 11.8397C30.1249 12.3229 30.7094 12.6999 31.3516 12.9475C31.9938 13.195 32.68 13.3078 33.3675 13.2787C39.0048 13.2787 41.2821 9.95214 40.4794 8.25147Z" fill="#383838"/>
<path d="M39.4149 21.4647C39.1349 28.5664 34.7297 27.8189 34.7297 27.8189C34.7297 27.8189 30.3057 28.5664 30.0444 21.4647C26.3878 22.4536 22.8651 23.8844 19.5539 25.7257C20.4903 30.0262 21.0091 34.4073 21.1032 38.8078L25.1352 54.4501L34.7297 54.9174L44.3055 54.4501L48.3374 38.8078C48.4322 34.4063 48.9574 30.0247 49.9054 25.7257C46.5942 23.8844 43.0715 22.4536 39.4149 21.4647Z" fill="#FFB400"/>
<g style="mix-blend-mode:multiply" opacity="0.32">
<path d="M47.5567 29.8182C43.1515 32.1543 41.0422 37.4618 36.7863 40.1717C32.5303 42.8815 29.3197 37.3871 27.1358 34.5651C25.3374 32.088 22.8978 30.1494 20.0799 28.9585C20.6408 32.2255 20.9528 35.5304 21.0132 38.8448L25.0451 54.4872L34.6396 54.9544L44.2155 54.4872L48.2474 38.8448C48.3232 35.5879 48.6289 32.3404 49.162 29.1267C48.6207 29.2949 48.0607 29.5565 47.5567 29.8182Z" fill="#FFB400"/>
</g>
<path d="M52.4828 60.7477C52.4828 55.2719 45.6883 51.665 45.6883 51.665H22.7847C22.7847 51.665 15.9901 55.2719 15.9901 60.7477C16.0616 62.1736 16.2426 63.5919 16.5315 64.99H24.1287C23.8113 65.5507 23.5313 66.074 23.3073 66.5038C23.2501 66.6343 23.1814 66.7594 23.102 66.8776H28.7019C29.1126 66.8776 28.9819 67.0645 28.8512 66.4477C28.7206 65.831 28.1419 65.0835 28.6832 64.1677C29.5866 63.3614 30.7407 62.8926 31.9498 62.8408H32.4912C33.6858 62.8408 34.8805 62.8408 36.0564 62.8408C36.5122 62.8576 36.9639 62.933 37.4004 63.0651C37.7737 63.0651 38.9311 63.0651 39.4164 63.6818C39.6683 64.0718 39.8043 64.5256 39.8084 64.99C39.7943 65.6178 39.7256 66.2431 39.603 66.8589H46.5096C46.0363 66.259 45.5939 65.6352 45.1843 64.99H51.9415C52.2304 63.5919 52.4113 62.1736 52.4828 60.7477Z" fill="#FF5A5F"/>
<path d="M52.4828 60.7477C52.4828 55.2719 45.6883 51.665 45.6883 51.665H22.7847C22.7847 51.665 15.9901 55.2719 15.9901 60.7477C16.0616 62.1736 16.2426 63.5919 16.5315 64.99H24.1287C23.8113 65.5507 23.5313 66.074 23.3073 66.5038C23.2501 66.6343 23.1814 66.7594 23.102 66.8776H28.7019C29.1126 66.8776 28.9819 67.0645 28.8512 66.4477C28.7206 65.831 28.1419 65.0835 28.6832 64.1677C29.5866 63.3614 30.7407 62.8926 31.9498 62.8408H32.4912C33.6858 62.8408 34.8805 62.8408 36.0564 62.8408C36.5122 62.8576 36.9639 62.933 37.4004 63.0651C37.7737 63.0651 38.9311 63.0651 39.4164 63.6818C39.6683 64.0718 39.8043 64.5256 39.8084 64.99C39.7943 65.6178 39.7256 66.2431 39.603 66.8589H46.5096C46.0363 66.259 45.5939 65.6352 45.1843 64.99H51.9415C52.2304 63.5919 52.4113 62.1736 52.4828 60.7477Z" fill="#BD1337"/>
<path d="M19.4622 25.7254C19.4622 25.7254 10.7451 44.5823 11.417 47.1052C11.5664 47.7219 22.1875 54.1321 27.1714 53.2164L29.2061 52.8426C29.2061 52.8426 21.7582 25.5946 19.4622 25.7254Z" fill="#FFB400"/>
<path d="M49.7959 25.7253C49.7959 25.7253 58.513 44.5821 57.8784 47.1051C57.729 47.7218 47.1079 54.132 42.124 53.2163L40.0894 52.8425C40.0894 52.8425 47.4999 25.5945 49.7959 25.7253Z" fill="#FFB400"/>
<g style="mix-blend-mode:multiply" opacity="0.32">
<path d="M22.8595 32.3225C22.8731 33.2442 22.7917 34.1648 22.6168 35.0697C21.8515 38.4898 20.6382 42.0406 21.9075 45.498C23.0175 48.1936 24.3343 50.7991 25.8461 53.2911C26.3053 53.3392 26.7682 53.3392 27.2274 53.2911L29.262 52.9174C29.262 52.9174 25.7714 40.3399 22.8595 32.3225Z" fill="#FFB400"/>
</g>
<g style="mix-blend-mode:multiply" opacity="0.32">
<path d="M45.0186 53.1228C45.6975 51.5358 46.0285 49.8216 45.9893 48.0956C45.8773 44.6195 45.8586 41.1247 45.9893 37.6487C45.9893 36.1349 45.9893 34.6772 46.1386 33.2568C43.32 41.2743 40.1654 52.8425 40.1654 52.8425L42.2 53.2163C43.1382 53.3419 44.0908 53.3103 45.0186 53.1228Z" fill="#FFB400"/>
</g>
<path d="M25.9417 93.3966C23.7418 95.951 21.6793 98.621 19.7632 101.395C19.1099 102.797 20.6965 104.554 22.8431 103.843C24.9897 103.133 26.3524 101.638 26.3524 100.704C26.3524 99.7694 27.5284 99.2835 28.0324 99.2087C28.5363 99.134 31.411 95.8634 31.131 94.9664C30.7159 94.2091 30.1193 93.5669 29.395 93.0975L25.9417 93.3966Z" fill="#383838"/>
<path d="M42.4795 93.3966C44.6726 95.9519 46.7288 98.6219 48.6394 101.395C49.2927 102.797 47.7061 104.554 45.5595 103.843C43.4129 103.133 42.1435 101.638 42.1062 100.704C42.0689 99.7694 40.9302 99.2835 40.4262 99.2087C39.9223 99.134 37.0476 95.8634 37.3276 94.9664C37.7427 94.2091 38.3393 93.5669 39.0636 93.0975L42.4795 93.3966Z" fill="#383838"/>
<path d="M27.8616 60.4676C27.2083 58.8977 27.0777 55.5712 22.6351 55.5712C14.1046 55.5712 16.1019 62.4299 16.2325 63.4578C17.5205 73.6617 23.699 94.0323 23.699 94.0323H32.2669C32.2669 94.0323 29.1496 69.083 28.6643 65.2332C28.5512 63.6224 28.2824 62.0264 27.8616 60.4676Z" fill="#FF5A5F"/>
<path d="M40.5569 60.4672C41.2102 58.8974 41.3409 55.5708 45.7835 55.5708C54.3326 55.5708 52.3167 62.4295 52.186 63.4574C50.898 73.6614 44.7195 94.032 44.7195 94.032H36.1516C36.1516 94.032 39.2502 69.0827 39.7356 65.2328C39.8733 63.6238 40.148 62.0294 40.5569 60.4672Z" fill="#FF5A5F"/>
<path d="M47.2022 53.0668H22.0774V54.5619H47.2022V53.0668Z" fill="#383838"/>
<path d="M50.897 35.5931H18.3802C18.1527 35.5952 17.9285 35.6487 17.7245 35.7496C17.5204 35.8505 17.3418 35.9962 17.2018 36.1758C17.0619 36.3555 16.9642 36.5644 16.9162 36.7871C16.8681 37.0098 16.8709 37.2405 16.9243 37.462C17.2229 39.4243 21.3295 53.1418 22.1508 53.1418H47.1264C47.8544 53.1418 52.0543 39.4243 52.3529 37.462C52.4063 37.2405 52.4091 37.0098 52.361 36.7871C52.313 36.5644 52.2153 36.3555 52.0754 36.1758C51.9354 35.9962 51.7567 35.8505 51.5527 35.7496C51.3487 35.6487 51.1245 35.5952 50.897 35.5931Z" fill="#383838"/>
<path d="M35.9845 45.1053C35.9845 45.3715 35.9057 45.6316 35.758 45.8529C35.6103 46.0742 35.4004 46.2467 35.1549 46.3485C34.9093 46.4503 34.6391 46.477 34.3784 46.4251C34.1176 46.3731 33.8782 46.245 33.6902 46.0568C33.5023 45.8686 33.3743 45.6289 33.3224 45.3679C33.2705 45.1068 33.2972 44.8363 33.3989 44.5904C33.5006 44.3445 33.6729 44.1344 33.8939 43.9865C34.1149 43.8387 34.3747 43.7598 34.6405 43.7598C34.997 43.7598 35.3388 43.9015 35.5909 44.1539C35.8429 44.4062 35.9845 44.7485 35.9845 45.1053Z" fill="#D0D1DE"/>
<path d="M68.1642 137.67L69.6762 142.324H74.5668L70.6095 145.202L72.1215 149.836L68.1642 146.977L64.2256 149.836L65.719 145.202L61.7804 142.324H66.6523L68.1642 137.67Z" fill="#383838"/>
<path d="M85.5986 137.67L87.1106 142.324H92.0012L88.0439 145.202L89.5559 149.836L85.5986 146.977L81.66 149.836L83.172 145.202L79.2147 142.324H84.1053L85.5986 137.67Z" fill="#383838"/>
<path d="M103.052 137.671L104.564 142.324H109.436L105.479 145.202L106.991 149.837L103.052 146.978L99.0949 149.837L100.607 145.202L96.6496 142.324H101.54L103.052 137.671Z" fill="#383838"/>
<path d="M120.485 137.671L121.997 142.324H126.869L122.93 145.202L124.442 149.837L120.485 146.978L116.527 149.837L118.039 145.202L114.101 142.324H118.973L120.485 137.671Z" fill="#383838"/>
<path d="M137.92 137.67L139.432 142.324H144.304L140.366 145.202L141.877 149.836L137.92 146.977L133.982 149.836L135.475 145.202L131.536 142.324H136.408L137.92 137.67Z" fill="#383838"/>
</svg>
