<svg width="631" height="395" viewBox="0 0 631 395" fill="none" xmlns="http://www.w3.org/2000/svg">
<path d="M363.7 315.926H253.7C253.7 315.926 258.26 386.006 236.48 386.006H380.93C359.15 386.006 363.7 315.926 363.7 315.926Z" fill="#FFDEE1"/>
<path opacity="0.55" d="M252.44 358.056L363.36 335.586C363.16 324.466 363.71 315.926 363.71 315.926H253.7C253.7 315.926 255.16 338.526 252.44 358.056Z" fill="#FF796D"/>
<path d="M511.05 47.3257H106.36C96.1869 47.3257 87.9399 55.5726 87.9399 65.7457V318.636C87.9399 328.809 96.1869 337.056 106.36 337.056H511.05C521.223 337.056 529.47 328.809 529.47 318.636V65.7457C529.47 55.5726 521.223 47.3257 511.05 47.3257Z" fill="#FFDEE1"/>
<path d="M502.32 57.5957H115.08C106.934 57.5957 100.33 64.1995 100.33 72.3457V312.046C100.33 320.192 106.934 326.796 115.08 326.796H502.32C510.466 326.796 517.07 320.192 517.07 312.046V72.3457C517.07 64.1995 510.466 57.5957 502.32 57.5957Z" fill="white"/>
<path d="M502.85 325.846H127C123.37 325.846 119.74 325.846 116.11 325.846C113.327 325.897 110.59 325.123 108.246 323.621C105.902 322.119 104.056 319.956 102.94 317.406C102.034 314.98 101.642 312.391 101.79 309.806V87.5257C101.79 82.5257 101.79 77.5257 101.79 72.5257C101.79 65.2357 106.95 58.7057 114.56 58.5257C115.24 58.5257 115.93 58.5257 116.56 58.5257H501.37C504.375 58.4896 507.313 59.4166 509.753 61.1712C512.193 62.9257 514.007 65.4154 514.93 68.2757C516.32 72.6457 515.61 78.1257 515.61 82.6257V307.266C515.61 308.786 515.61 310.316 515.61 311.836C515.61 319.376 510.23 325.706 502.48 325.836C500.92 325.836 500.17 327.746 502.15 327.706C510.92 327.536 518.4 320.706 518.53 311.786C518.53 310.446 518.53 309.106 518.53 307.786V82.3457C518.53 77.8457 519.2 72.4357 517.99 68.0357C517.013 64.7299 514.987 61.8316 512.218 59.7786C509.449 57.7257 506.087 56.6295 502.64 56.6557C501.64 56.6557 500.56 56.6557 499.52 56.6557H117.38C116.38 56.6557 115.38 56.6557 114.38 56.6557C110.269 56.8799 106.392 58.6411 103.519 61.5901C100.646 64.5391 98.9868 68.4603 98.87 72.5757C98.81 77.1457 98.87 81.7257 98.87 86.2957V310.046C98.738 312.44 99.0049 314.839 99.66 317.146C100.765 320.266 102.818 322.964 105.53 324.863C108.242 326.761 111.479 327.765 114.79 327.736C118.08 327.736 121.38 327.736 124.67 327.736H501.78C502.38 327.736 503.44 327.556 503.68 326.896C503.92 326.236 503.49 325.846 502.85 325.846Z" fill="#FF5A5F"/>
<path d="M100.21 92.6257H500.03C505.43 92.6257 510.84 92.7557 516.24 92.6257H516.95C518.62 92.6257 519.16 90.4657 517.19 90.4657H117.37C111.97 90.4657 106.56 90.3357 101.16 90.4657H100.45C98.7799 90.4657 98.2399 92.6257 100.21 92.6257Z" fill="#FF5A5F"/>
<path d="M467.02 80.9757H179.92C178.984 80.9757 178.057 80.7912 177.193 80.4328C176.328 80.0743 175.543 79.549 174.882 78.8868C174.22 78.2246 173.696 77.4385 173.339 76.5735C172.982 75.7085 172.799 74.7816 172.8 73.8457C172.8 72.9107 172.984 71.9848 173.342 71.121C173.7 70.2572 174.224 69.4723 174.885 68.8111C175.546 68.15 176.331 67.6255 177.195 67.2677C178.059 66.9099 178.985 66.7257 179.92 66.7257H467.02C467.955 66.7257 468.881 66.9099 469.745 67.2677C470.608 67.6255 471.393 68.15 472.055 68.8111C472.716 69.4723 473.24 70.2572 473.598 71.121C473.956 71.9848 474.14 72.9107 474.14 73.8457C474.14 75.735 473.39 77.547 472.055 78.8839C470.72 80.2207 468.909 80.9731 467.02 80.9757Z" fill="#FFEEF0"/>
<path d="M120.06 74.4057C120.069 75.089 119.881 75.7604 119.517 76.3389C119.153 76.9173 118.63 77.3782 118.01 77.6657C117.425 77.813 116.808 77.7565 116.26 77.5057C115.597 77.2446 115.023 76.7964 114.61 76.2157C114.201 75.6375 113.962 74.9559 113.921 74.2487C113.881 73.5414 114.04 72.837 114.38 72.2157C114.699 71.6171 115.195 71.1316 115.8 70.8257C116.32 70.6353 116.89 70.6353 117.41 70.8257C118.177 71.0627 118.848 71.5391 119.325 72.1851C119.802 72.8311 120.059 73.6128 120.06 74.4157C120.06 74.5957 121.51 74.4157 121.51 74.0257C121.494 73.184 121.208 72.3696 120.695 71.7019C120.182 71.0343 119.469 70.5485 118.66 70.3157C117.736 70.0842 116.768 70.101 115.853 70.3645C114.938 70.6279 114.109 71.1286 113.45 71.8157C112.881 72.4529 112.539 73.2598 112.476 74.1113C112.412 74.9629 112.632 75.8115 113.1 76.5257C113.617 77.2414 114.341 77.7807 115.175 78.0705C116.008 78.3603 116.911 78.3866 117.76 78.1457C118.764 77.9953 119.685 77.5034 120.368 76.7528C121.051 76.0023 121.454 75.0391 121.51 74.0257C121.51 73.8357 120.06 74.0157 120.06 74.4057Z" fill="#277EF1"/>
<path d="M137.79 74.4057C137.803 75.0691 137.62 75.7215 137.264 76.2817C136.908 76.8418 136.396 77.2849 135.79 77.5557C135.152 77.7029 134.485 77.6548 133.875 77.4176C133.265 77.1804 132.741 76.7651 132.37 76.2257C131.954 75.6504 131.711 74.9681 131.67 74.2593C131.63 73.5505 131.793 72.8449 132.14 72.2257C132.41 71.6907 132.854 71.2636 133.4 71.0146C133.945 70.7656 134.559 70.7096 135.14 70.8557C135.902 71.0825 136.57 71.55 137.044 72.1881C137.518 72.8262 137.773 73.6007 137.77 74.3957C137.77 74.7257 139.23 74.4857 139.22 74.0057C139.204 73.1565 138.918 72.3344 138.404 71.6584C137.89 70.9824 137.174 70.4876 136.36 70.2457C135.437 69.9912 134.461 69.9976 133.541 70.2642C132.622 70.5308 131.794 71.047 131.15 71.7557C130.593 72.4076 130.261 73.221 130.201 74.0762C130.142 74.9314 130.359 75.7831 130.82 76.5057C131.334 77.2355 132.058 77.7906 132.897 78.0963C133.735 78.402 134.647 78.4436 135.51 78.2157C136.518 78.0466 137.437 77.5358 138.112 76.7692C138.788 76.0025 139.179 75.0267 139.22 74.0057C139.25 73.6857 137.8 73.9157 137.79 74.4057Z" fill="#277EF1"/>
<path d="M155.53 74.4057C155.542 75.0868 155.352 75.7563 154.986 76.3307C154.62 76.9051 154.092 77.359 153.47 77.6357C152.828 77.7605 152.163 77.6922 151.56 77.4394C150.956 77.1867 150.441 76.7609 150.08 76.2157C149.668 75.6384 149.428 74.9566 149.388 74.2489C149.347 73.5411 149.507 72.8363 149.85 72.2157C150.17 71.6197 150.671 71.1402 151.28 70.8457C151.797 70.661 152.363 70.661 152.88 70.8457C153.647 71.0794 154.319 71.5536 154.796 72.1982C155.273 72.8428 155.53 73.6237 155.53 74.4257C155.53 74.6557 156.98 74.4257 156.98 74.0357C156.958 73.1917 156.669 72.3763 156.156 71.7063C155.642 71.0363 154.929 70.546 154.12 70.3057C153.196 70.0647 152.224 70.0779 151.307 70.3436C150.39 70.6094 149.562 71.118 148.91 71.8157C148.348 72.4587 148.011 73.2672 147.95 74.1188C147.889 74.9704 148.106 75.8188 148.57 76.5357C149.087 77.2542 149.812 77.7973 150.646 78.0923C151.481 78.3872 152.386 78.4198 153.24 78.1857C154.245 78.0286 155.165 77.5303 155.847 76.7745C156.528 76.0188 156.928 75.0517 156.98 74.0357C156.98 73.7857 155.53 73.9857 155.53 74.4057Z" fill="#277EF1"/>
<path d="M425.62 188.406H193.83C190.843 188.473 187.899 187.682 185.347 186.127C182.795 184.572 180.743 182.318 179.432 179.633C178.122 176.947 177.609 173.942 177.955 170.974C178.3 168.006 179.488 165.199 181.38 162.886C182.692 161.257 184.359 159.95 186.253 159.065C188.147 158.179 190.219 157.738 192.31 157.776H424.37C428.087 157.911 431.634 159.362 434.381 161.869C437.128 164.376 438.896 167.777 439.37 171.466C440.42 179.816 434.32 188.306 425.6 188.406C425.09 188.406 423.95 188.626 423.67 189.126C423.39 189.626 423.93 189.696 424.38 189.696C432.87 189.596 441.04 183.766 442.23 175.056C442.777 170.911 441.721 166.713 439.277 163.321C436.833 159.929 433.185 157.598 429.08 156.806C425.81 156.186 422.21 156.496 418.9 156.496H193.48C188.918 156.43 184.477 157.966 180.93 160.836C177.721 163.522 175.658 167.332 175.163 171.488C174.669 175.644 175.78 179.832 178.27 183.196C179.904 185.278 182.001 186.95 184.396 188.078C186.79 189.207 189.414 189.761 192.06 189.696H424.4C425.26 189.736 427.54 188.406 425.62 188.406Z" fill="#00D1C1"/>
<path d="M425.01 157.176H398.24V189.086H425.01C429.253 189.086 433.323 187.4 436.324 184.399C439.324 181.399 441.01 177.329 441.01 173.086C440.986 168.858 439.29 164.811 436.292 161.83C433.294 158.849 429.238 157.176 425.01 157.176Z" fill="#00D1C1"/>
<path d="M429.7 180.836L424.42 175.546C425.66 173.899 426.249 171.853 426.075 169.798C425.902 167.744 424.977 165.826 423.477 164.411C421.978 162.996 420.01 162.183 417.949 162.128C415.889 162.073 413.88 162.78 412.307 164.112C410.734 165.445 409.708 167.311 409.425 169.353C409.141 171.395 409.621 173.47 410.771 175.18C411.921 176.891 413.661 178.118 415.659 178.627C417.657 179.135 419.772 178.889 421.6 177.936L427.1 183.436C427.268 183.618 427.471 183.764 427.697 183.866C427.923 183.968 428.167 184.023 428.415 184.028C428.663 184.033 428.91 183.988 429.14 183.896C429.37 183.803 429.579 183.665 429.754 183.49C429.929 183.314 430.067 183.105 430.16 182.875C430.252 182.645 430.297 182.399 430.292 182.151C430.287 181.903 430.232 181.659 430.13 181.433C430.029 181.207 429.882 181.004 429.7 180.836ZM423.7 170.586C423.7 171.774 423.347 172.937 422.685 173.924C422.024 174.912 421.084 175.681 419.984 176.134C418.885 176.586 417.676 176.702 416.511 176.466C415.346 176.231 414.277 175.654 413.44 174.81C412.602 173.966 412.035 172.892 411.809 171.725C411.583 170.558 411.709 169.35 412.171 168.255C412.633 167.159 413.41 166.226 414.403 165.572C415.396 164.919 416.561 164.576 417.75 164.586C419.333 164.599 420.846 165.237 421.96 166.361C423.075 167.484 423.7 169.003 423.7 170.586Z" fill="white"/>
<path opacity="0.75" d="M259.35 180.006H192.78C190.958 180.006 189.21 179.282 187.922 177.993C186.634 176.705 185.91 174.958 185.91 173.136C185.909 172.233 186.085 171.339 186.43 170.505C186.775 169.671 187.281 168.913 187.919 168.275C188.557 167.637 189.315 167.131 190.149 166.786C190.983 166.441 191.877 166.264 192.78 166.266H259.35C261.172 166.266 262.919 166.989 264.208 168.278C265.496 169.566 266.22 171.314 266.22 173.136C266.217 174.957 265.493 176.703 264.205 177.991C262.917 179.278 261.171 180.003 259.35 180.006Z" fill="#E0EBFC"/>
<path d="M400.58 384.006H216.82V394.236H400.58V384.006Z" fill="#FFDEE1"/>
<path opacity="0.75" d="M277.48 208.956H232.42C228.184 208.956 224.75 212.39 224.75 216.626V216.636C224.75 220.872 228.184 224.306 232.42 224.306H277.48C281.716 224.306 285.15 220.872 285.15 216.636V216.626C285.15 212.39 281.716 208.956 277.48 208.956Z" fill="#E0EBFC"/>
<path d="M232.39 219.186H276.28C276.79 219.186 277.94 218.956 278.21 218.466C278.48 217.976 277.95 217.916 277.51 217.916H233.62C233.11 217.916 231.97 218.136 231.69 218.626C231.41 219.116 231.95 219.186 232.39 219.186Z" fill="#00D1C1"/>
<path opacity="0.75" d="M384.98 208.956H305C300.764 208.956 297.33 212.39 297.33 216.626V216.636C297.33 220.872 300.764 224.306 305 224.306H384.98C389.216 224.306 392.65 220.872 392.65 216.636V216.626C392.65 212.39 389.216 208.956 384.98 208.956Z" fill="#E0EBFC"/>
<path d="M313.45 219.226H375.31C375.84 219.226 376.96 219.006 377.24 218.496C377.52 217.986 376.98 217.876 376.52 217.876H314.7C314.17 217.876 313.06 218.096 312.77 218.606C312.48 219.116 313.03 219.226 313.49 219.226H313.45Z" fill="#00D1C1"/>
<path d="M435.44 104.406H452.3" stroke="#277EF1" stroke-width="1.5" stroke-miterlimit="10"/>
<path d="M460.47 104.406H477.33" stroke="#277EF1" stroke-width="1.5" stroke-miterlimit="10"/>
<path opacity="0.75" d="M485.67 99.8357H483.4V102.106H485.67V99.8357Z" fill="#E0EBFC"/>
<path opacity="0.75" d="M488.83 99.8357H486.56V102.106H488.83V99.8357Z" fill="#E0EBFC"/>
<path opacity="0.75" d="M492 99.8357H489.73V102.106H492V99.8357Z" fill="#E0EBFC"/>
<path opacity="0.75" d="M485.67 103.266H483.4V105.536H485.67V103.266Z" fill="#E0EBFC"/>
<path opacity="0.75" d="M488.83 103.266H486.56V105.536H488.83V103.266Z" fill="#E0EBFC"/>
<path opacity="0.75" d="M492 103.266H489.73V105.536H492V103.266Z" fill="#E0EBFC"/>
<path opacity="0.75" d="M485.67 106.706H483.4V108.976H485.67V106.706Z" fill="#E0EBFC"/>
<path opacity="0.75" d="M488.83 106.706H486.56V108.976H488.83V106.706Z" fill="#E0EBFC"/>
<path opacity="0.75" d="M492 106.706H489.73V108.976H492V106.706Z" fill="#E0EBFC"/>
<path opacity="0.75" d="M501.37 110.156C504.546 110.156 507.12 107.581 507.12 104.406C507.12 101.23 504.546 98.6556 501.37 98.6556C498.194 98.6556 495.62 101.23 495.62 104.406C495.62 107.581 498.194 110.156 501.37 110.156Z" fill="#E0EBFC"/>
<g style="mix-blend-mode:multiply" opacity="0.65">
<path d="M203.39 117.616H87.9299V161.106H203.39C204.005 161.103 204.613 160.979 205.179 160.742C205.746 160.504 206.261 160.157 206.693 159.721C207.126 159.284 207.469 158.767 207.701 158.198C207.934 157.629 208.053 157.02 208.05 156.406V122.316C208.053 121.075 207.564 119.884 206.69 119.003C205.817 118.123 204.63 117.624 203.39 117.616Z" fill="#FFDEE1"/>
</g>
<path d="M505.56 68.2257C506.388 68.2257 507.06 67.5541 507.06 66.7257C507.06 65.8973 506.388 65.2257 505.56 65.2257C504.732 65.2257 504.06 65.8973 504.06 66.7257C504.06 67.5541 504.732 68.2257 505.56 68.2257Z" fill="#277EF1"/>
<path d="M505.56 75.3457C506.388 75.3457 507.06 74.6741 507.06 73.8457C507.06 73.0173 506.388 72.3457 505.56 72.3457C504.732 72.3457 504.06 73.0173 504.06 73.8457C504.06 74.6741 504.732 75.3457 505.56 75.3457Z" fill="#277EF1"/>
<path d="M505.56 82.4657C506.388 82.4657 507.06 81.7941 507.06 80.9657C507.06 80.1373 506.388 79.4657 505.56 79.4657C504.732 79.4657 504.06 80.1373 504.06 80.9657C504.06 81.7941 504.732 82.4657 505.56 82.4657Z" fill="#277EF1"/>
<path d="M376.5 383.786H294.06C290.26 383.786 286.44 383.696 282.64 383.786H282.47C281.9 383.786 280.84 383.996 280.55 384.556C280.26 385.116 280.79 385.326 281.31 385.326H363.7C367.51 385.326 371.32 385.416 375.13 385.326H375.3C375.86 385.326 376.93 385.126 377.22 384.556C377.51 383.986 376.97 383.786 376.46 383.786H376.5Z" fill="#FF928D"/>
<path d="M272.29 384.016H241.59C240.868 384.001 240.157 384.192 239.54 384.566C239.15 384.856 239.07 385.096 239.69 385.096H270.39C271.095 385.104 271.788 384.913 272.39 384.546C272.78 384.266 272.87 384.016 272.25 384.016H272.29Z" fill="#FF928D"/>
<g style="mix-blend-mode:multiply" opacity="0.65">
<path d="M495.89 243.776H298.26C294.311 243.776 291.11 246.977 291.11 250.926V302.756C291.11 306.704 294.311 309.906 298.26 309.906H495.89C499.839 309.906 503.04 306.704 503.04 302.756V250.926C503.04 246.977 499.839 243.776 495.89 243.776Z" fill="#FFDEE1"/>
</g>
<path d="M486.99 237.836H289.36C285.411 237.836 282.21 241.037 282.21 244.986V296.816C282.21 300.765 285.411 303.966 289.36 303.966H486.99C490.939 303.966 494.14 300.765 494.14 296.816V244.986C494.14 241.037 490.939 237.836 486.99 237.836Z" fill="white"/>
<path d="M487.54 303.096H289.96C288.421 303.049 286.948 302.456 285.807 301.423C284.665 300.389 283.929 298.983 283.73 297.456C283.641 296.549 283.618 295.636 283.66 294.726V272.106C283.66 263.106 283.53 254.006 283.66 244.966C283.72 241.526 285.93 238.706 289.43 238.706H476.5C479.8 238.706 483.1 238.646 486.4 238.706C488.023 238.765 489.566 239.429 490.726 240.567C491.886 241.704 492.579 243.234 492.67 244.856C492.67 245.626 492.67 246.406 492.67 247.186V293.926C492.67 294.926 492.67 295.856 492.67 296.826C492.67 299.826 490.8 303.026 487.53 303.096C486.93 303.096 485.92 303.276 485.62 303.906C485.32 304.536 485.85 304.846 486.43 304.836C490.75 304.736 495.11 301.946 495.55 297.346C495.63 296.476 495.55 295.596 495.55 294.726V247.636C495.55 246.716 495.55 245.786 495.55 244.856C495.552 243.094 494.962 241.382 493.874 239.996C492.785 238.61 491.262 237.631 489.55 237.216C488.214 236.976 486.855 236.895 485.5 236.976H290.5C285.87 236.976 281.04 239.726 280.79 244.806C280.65 247.506 280.79 250.236 280.79 252.926V288.276C280.79 291.166 280.79 294.066 280.79 296.966C280.84 301.756 284.73 304.826 289.32 304.836H486.44C487.04 304.836 488.06 304.646 488.35 304.026C488.64 303.406 488.11 303.096 487.54 303.096Z" fill="#FF5A5F"/>
<path d="M480.09 268.076H356.09C355.589 268.076 355.092 267.977 354.63 267.785C354.167 267.593 353.746 267.311 353.392 266.956C353.038 266.601 352.758 266.18 352.567 265.717C352.376 265.253 352.279 264.757 352.28 264.256C352.28 263.245 352.681 262.276 353.396 261.562C354.11 260.847 355.079 260.446 356.09 260.446H480.09C481.1 260.446 482.07 260.847 482.784 261.562C483.499 262.276 483.9 263.245 483.9 264.256C483.901 264.757 483.804 265.253 483.613 265.717C483.422 266.18 483.142 266.601 482.788 266.956C482.434 267.311 482.013 267.593 481.55 267.785C481.087 267.977 480.591 268.076 480.09 268.076Z" fill="#FFEEF0"/>
<path d="M480.09 281.406H356.09C355.589 281.406 355.092 281.307 354.63 281.115C354.167 280.923 353.746 280.641 353.392 280.286C353.038 279.931 352.758 279.51 352.567 279.047C352.376 278.583 352.279 278.087 352.28 277.586C352.28 276.575 352.681 275.606 353.396 274.892C354.11 274.177 355.079 273.776 356.09 273.776H480.09C481.1 273.776 482.07 274.177 482.784 274.892C483.499 275.606 483.9 276.575 483.9 277.586C483.901 278.087 483.804 278.583 483.613 279.047C483.422 279.51 483.142 279.931 482.788 280.286C482.434 280.641 482.013 280.923 481.55 281.115C481.087 281.307 480.591 281.406 480.09 281.406Z" fill="#FFEEF0"/>
<path d="M480.09 254.786H356.09C355.589 254.786 355.092 254.687 354.63 254.495C354.167 254.303 353.746 254.021 353.392 253.666C353.038 253.311 352.758 252.89 352.567 252.427C352.376 251.963 352.279 251.467 352.28 250.966C352.28 249.955 352.681 248.986 353.396 248.272C354.11 247.557 355.079 247.156 356.09 247.156H480.09C481.1 247.156 482.07 247.557 482.784 248.272C483.499 248.986 483.9 249.955 483.9 250.966C483.901 251.467 483.804 251.963 483.613 252.427C483.422 252.89 483.142 253.311 482.788 253.666C482.434 254.021 482.013 254.303 481.55 254.495C481.087 254.687 480.591 254.786 480.09 254.786Z" fill="#FFEEF0"/>
<path d="M383.51 287.026H356.05C353.946 287.026 352.24 288.731 352.24 290.836V290.846C352.24 292.95 353.946 294.656 356.05 294.656H383.51C385.614 294.656 387.32 292.95 387.32 290.846V290.836C387.32 288.731 385.614 287.026 383.51 287.026Z" fill="#FFEEF0"/>
<path opacity="0.35" d="M332.34 247.156H295.58C292.614 247.156 290.21 249.56 290.21 252.526V289.286C290.21 292.251 292.614 294.656 295.58 294.656H332.34C335.306 294.656 337.71 292.251 337.71 289.286V252.526C337.71 249.56 335.306 247.156 332.34 247.156Z" fill="#FF796D"/>
<path d="M308.68 256.656L295.57 281.916H321.78L308.68 256.656Z" fill="white"/>
<path d="M322.67 264.956L319.52 271.036L325.17 281.916H331.47L322.67 264.956Z" fill="white"/>
<path d="M329.7 260.236C329.7 260.778 329.539 261.308 329.238 261.759C328.936 262.21 328.507 262.561 328.006 262.768C327.505 262.975 326.954 263.029 326.422 262.922C325.89 262.816 325.402 262.554 325.019 262.17C324.636 261.785 324.376 261.296 324.271 260.764C324.167 260.232 324.222 259.681 324.431 259.18C324.64 258.68 324.993 258.252 325.445 257.953C325.897 257.653 326.428 257.494 326.97 257.496C327.329 257.496 327.685 257.567 328.017 257.704C328.349 257.842 328.65 258.044 328.904 258.299C329.158 258.553 329.358 258.855 329.495 259.188C329.632 259.52 329.701 259.876 329.7 260.236Z" fill="white"/>
<g style="mix-blend-mode:multiply" opacity="0.65">
<path d="M485.87 49.4457H344.83C341.041 49.4457 337.97 52.517 337.97 56.3057V106.096C337.97 109.884 341.041 112.956 344.83 112.956H485.87C489.659 112.956 492.73 109.884 492.73 106.096V56.3057C492.73 52.517 489.659 49.4457 485.87 49.4457Z" fill="#FFDEE1"/>
</g>
<path d="M475.32 42.7457H334.28C330.491 42.7457 327.42 45.8171 327.42 49.6057V99.3957C327.42 103.184 330.491 106.256 334.28 106.256H475.32C479.109 106.256 482.18 103.184 482.18 99.3957V49.6057C482.18 45.8171 479.109 42.7457 475.32 42.7457Z" fill="white"/>
<path d="M476.25 105.636H345.99C342.54 105.636 339.08 105.636 335.63 105.636C334.747 105.65 333.871 105.489 333.051 105.161C332.232 104.834 331.486 104.346 330.856 103.727C330.227 103.108 329.728 102.37 329.386 101.556C329.045 100.742 328.87 99.8683 328.87 98.9857C328.87 97.2057 328.87 95.4157 328.87 93.6257V67.0757C328.87 61.1357 328.76 55.1857 328.87 49.2457C328.93 46.3757 330.87 43.3557 333.87 43.3557H472.7C473.733 43.2917 474.77 43.3488 475.79 43.5257C477.208 43.9171 478.458 44.765 479.345 45.9382C480.233 47.1114 480.709 48.5445 480.7 50.0157C480.7 50.5657 480.7 51.1257 480.7 51.6757V98.1857C480.7 98.7057 480.7 99.1857 480.7 99.7557C480.7 102.456 478.87 105.566 475.91 105.636C475.4 105.636 474.25 105.856 473.97 106.346C473.69 106.836 474.23 106.866 474.66 106.856C477.87 106.776 481.26 105.256 482.8 102.326C483.383 101.107 483.657 99.7648 483.6 98.4157V51.7657C483.6 48.9057 483.6 46.1757 481.27 44.0357C478.49 41.4957 474.06 42.1257 470.58 42.1257H335.7C332.16 42.1257 328.38 43.4457 326.7 46.8157C325.7 48.8157 325.97 51.3657 325.97 53.5657V79.5657C325.97 86.2157 325.97 92.8757 325.97 99.5657C325.978 100.537 326.178 101.497 326.559 102.39C326.94 103.284 327.494 104.093 328.19 104.77C328.885 105.448 329.708 105.982 330.611 106.34C331.514 106.697 332.479 106.873 333.45 106.856H474.38C475.105 106.9 475.825 106.707 476.43 106.306C476.79 106.006 476.9 105.636 476.25 105.636Z" fill="#FF5A5F"/>
<path d="M467.7 71.7757H397.33C396.359 71.7757 395.428 71.3901 394.742 70.7037C394.056 70.0173 393.67 69.0864 393.67 68.1157C393.67 67.145 394.056 66.2141 394.742 65.5277C395.428 64.8413 396.359 64.4557 397.33 64.4557H467.7C468.671 64.4557 469.602 64.8413 470.288 65.5277C470.974 66.2141 471.36 67.145 471.36 68.1157C471.36 69.0864 470.974 70.0173 470.288 70.7037C469.602 71.3901 468.671 71.7757 467.7 71.7757Z" fill="#FFEEF0"/>
<path d="M467.7 84.5357H397.33C396.359 84.5357 395.428 84.1501 394.742 83.4637C394.056 82.7773 393.67 81.8464 393.67 80.8757C393.67 79.905 394.056 78.9741 394.742 78.2877C395.428 77.6013 396.359 77.2157 397.33 77.2157H467.7C468.671 77.2157 469.602 77.6013 470.288 78.2877C470.974 78.9741 471.36 79.905 471.36 80.8757C471.36 81.8464 470.974 82.7773 470.288 83.4637C469.602 84.1501 468.671 84.5357 467.7 84.5357Z" fill="#FFEEF0"/>
<path d="M467.7 59.0157H397.33C396.373 59.008 395.457 58.6258 394.779 57.951C394.1 57.2762 393.713 56.3625 393.7 55.4057C393.699 54.9242 393.792 54.4472 393.976 54.002C394.159 53.5568 394.428 53.1522 394.768 52.8112C395.108 52.4703 395.512 52.1998 395.957 52.0153C396.402 51.8307 396.878 51.7357 397.36 51.7357H467.7C468.181 51.737 468.656 51.833 469.1 52.0181C469.543 52.2033 469.946 52.474 470.285 52.8148C470.624 53.1556 470.892 53.5598 471.075 54.0043C471.258 54.4489 471.351 54.9251 471.35 55.4057C471.337 56.366 470.947 57.2826 470.264 57.958C469.581 58.6333 468.66 59.0132 467.7 59.0157Z" fill="#FFEEF0"/>
<path d="M423.7 97.3057H397.33C396.359 97.3057 395.428 96.9201 394.742 96.2337C394.056 95.5473 393.67 94.6164 393.67 93.6457C393.669 93.1642 393.762 92.6872 393.946 92.242C394.129 91.7968 394.398 91.3922 394.738 91.0512C395.078 90.7103 395.482 90.4398 395.927 90.2553C396.372 90.0707 396.848 89.9757 397.33 89.9757H423.7C424.181 89.9757 424.658 90.0707 425.103 90.2553C425.548 90.4398 425.951 90.7103 426.291 91.0512C426.631 91.3922 426.901 91.7968 427.084 92.242C427.268 92.6872 427.361 93.1642 427.36 93.6457C427.36 94.1264 427.265 94.6023 427.081 95.0463C426.897 95.4904 426.628 95.8939 426.288 96.2337C425.948 96.5736 425.545 96.8432 425.101 97.0271C424.657 97.211 424.181 97.3057 423.7 97.3057Z" fill="#FFEEF0"/>
<path d="M381.33 73.1657C381.219 71.4705 380.917 69.7933 380.43 68.1657C379.932 66.5405 379.244 64.9797 378.38 63.5157L374.2 65.5157C373.398 64.2216 372.426 63.041 371.31 62.0057L374.05 58.2757C371.491 56.0194 368.44 54.3928 365.14 53.5257L363.58 57.8857C362.094 57.5329 360.566 57.3848 359.04 57.4457L358.35 52.8757C354.95 53.0756 351.644 54.0725 348.7 55.7857L350.7 59.9657C349.403 60.7675 348.222 61.7433 347.19 62.8657L343.46 60.1157C341.208 62.6766 339.585 65.7275 338.72 69.0257L343.07 70.5957C342.722 72.0794 342.574 73.6029 342.63 75.1257L338.06 75.8257C338.16 77.5222 338.462 79.2007 338.96 80.8257C339.446 82.4473 340.117 84.0075 340.96 85.4757L345.14 83.4757C345.944 84.774 346.92 85.958 348.04 86.9957L345.3 90.7157C347.855 92.9779 350.908 94.6054 354.21 95.4657L355.77 91.1057C357.253 91.4566 358.777 91.6079 360.3 91.5557L361 96.1157C364.418 95.927 367.742 94.9296 370.7 93.2057L368.7 89.0257C369.998 88.2216 371.182 87.2461 372.22 86.1257L375.94 88.8757C378.198 86.318 379.825 83.2663 380.69 79.9657L376.31 78.4057C376.666 76.9234 376.818 75.3992 376.76 73.8757L381.33 73.1657ZM362.7 84.4957C360.72 85.0917 358.608 85.0869 356.631 84.482C354.654 83.8771 352.9 82.6993 351.593 81.0976C350.285 79.4959 349.482 77.5423 349.285 75.484C349.089 73.4258 349.507 71.3554 350.487 69.5349C351.467 67.7144 352.966 66.2256 354.792 65.257C356.619 64.2883 358.692 63.8833 360.749 64.0932C362.806 64.3032 364.754 65.1186 366.348 66.4363C367.941 67.754 369.108 69.5147 369.7 71.4957C370.49 74.1479 370.197 77.0051 368.885 79.4416C367.573 81.8782 365.349 83.6956 362.7 84.4957Z" fill="#FFEEF0"/>
<path d="M200.99 107.826H64.5999C62.0263 107.826 59.9399 109.912 59.9399 112.486V146.326C59.9399 148.899 62.0263 150.986 64.5999 150.986H200.99C203.564 150.986 205.65 148.899 205.65 146.326V112.486C205.65 109.912 203.564 107.826 200.99 107.826Z" fill="white"/>
<path d="M201.52 150.066H66.4399C65.4896 150.171 64.5278 150.054 63.6299 149.726C60.9499 148.406 61.3999 145.356 61.3999 142.906V131.996C61.3999 125.516 61.3199 118.996 61.3999 112.556C61.3999 110.556 62.4799 108.786 64.4999 108.756C65.4999 108.756 66.5599 108.756 67.5899 108.756H192.14C194.83 108.756 197.52 108.756 200.21 108.756C202.71 108.756 204.21 110.756 204.21 113.136C204.21 115.776 204.21 118.416 204.21 121.046V143.946C204.21 146.326 204.49 149.946 201.21 150.076C199.68 150.136 198.88 151.976 200.88 151.906C203.8 151.796 206.79 149.766 207.13 146.696C207.165 146.069 207.165 145.442 207.13 144.816V113.306C207.194 112.397 207.106 111.485 206.87 110.606C206.466 109.516 205.738 108.577 204.782 107.915C203.827 107.253 202.692 106.901 201.53 106.906C200.89 106.906 200.25 106.906 199.62 106.906H65.5099C62.3399 106.906 58.8999 108.626 58.5099 112.126C58.4049 114.074 58.4049 116.027 58.5099 117.976V141.976C58.5099 143.906 58.1199 146.536 58.8199 148.386C59.8199 150.876 62.1899 151.926 64.6899 151.926H200.45C201.07 151.926 202.06 151.736 202.35 151.086C202.64 150.436 202.12 150.066 201.52 150.066Z" fill="#FF5A5F"/>
<path d="M196.48 127.566H108.13C107.47 127.563 106.838 127.3 106.372 126.834C105.906 126.367 105.643 125.735 105.64 125.076C105.64 124.415 105.902 123.782 106.369 123.315C106.836 122.848 107.469 122.586 108.13 122.586H196.48C196.807 122.584 197.132 122.648 197.434 122.773C197.737 122.897 198.012 123.081 198.244 123.312C198.475 123.544 198.658 123.819 198.783 124.121C198.908 124.424 198.971 124.748 198.97 125.076C198.97 125.403 198.906 125.726 198.78 126.029C198.655 126.331 198.472 126.605 198.241 126.836C198.009 127.068 197.735 127.251 197.433 127.376C197.131 127.501 196.807 127.566 196.48 127.566Z" fill="#FFEEF0"/>
<path d="M196.48 136.236H108.13C107.469 136.236 106.836 135.973 106.369 135.506C105.902 135.039 105.64 134.406 105.64 133.746C105.643 133.086 105.906 132.454 106.372 131.988C106.838 131.522 107.47 131.258 108.13 131.256H196.48C197.14 131.256 197.774 131.518 198.241 131.985C198.708 132.452 198.97 133.085 198.97 133.746C198.971 134.073 198.908 134.397 198.783 134.7C198.658 135.003 198.475 135.278 198.244 135.509C198.012 135.741 197.737 135.924 197.434 136.049C197.132 136.174 196.807 136.237 196.48 136.236Z" fill="#FFEEF0"/>
<path d="M196.48 118.886H108.13C107.803 118.886 107.479 118.821 107.177 118.696C106.875 118.571 106.6 118.388 106.369 118.156C106.138 117.925 105.955 117.651 105.829 117.349C105.704 117.046 105.64 116.723 105.64 116.396C105.643 115.736 105.906 115.104 106.372 114.638C106.838 114.171 107.47 113.908 108.13 113.906H196.48C197.14 113.906 197.774 114.168 198.241 114.635C198.708 115.102 198.97 115.735 198.97 116.396C198.971 116.723 198.908 117.047 198.783 117.35C198.658 117.653 198.475 117.928 198.244 118.159C198.012 118.391 197.737 118.574 197.434 118.699C197.132 118.823 196.807 118.887 196.48 118.886Z" fill="#FFEEF0"/>
<path d="M166.59 144.906H108.13C107.469 144.906 106.836 144.643 106.369 144.176C105.902 143.709 105.64 143.076 105.64 142.416C105.643 141.757 105.906 141.126 106.373 140.661C106.839 140.197 107.471 139.936 108.13 139.936H166.59C167.248 139.936 167.878 140.197 168.344 140.662C168.809 141.127 169.07 141.758 169.07 142.416C169.071 142.742 169.008 143.066 168.884 143.368C168.76 143.67 168.577 143.944 168.347 144.176C168.117 144.407 167.843 144.591 167.541 144.716C167.24 144.841 166.916 144.906 166.59 144.906Z" fill="#FFEEF0"/>
<path opacity="0.55" d="M94.5099 115.556H73.0699C71.3413 115.556 69.9399 116.957 69.9399 118.686V140.126C69.9399 141.854 71.3413 143.256 73.0699 143.256H94.5099C96.2386 143.256 97.6399 141.854 97.6399 140.126V118.686C97.6399 116.957 96.2386 115.556 94.5099 115.556Z" fill="#FF796D"/>
<path d="M81.1152 124.74V134.093C81.1161 134.272 81.1662 134.446 81.26 134.598C81.3538 134.75 81.4876 134.873 81.6468 134.954C81.8059 135.034 81.9843 135.069 82.1621 135.055C82.34 135.041 82.5105 134.978 82.6548 134.873L89.0506 130.193C89.1726 130.103 89.2718 129.986 89.3401 129.85C89.4084 129.715 89.444 129.565 89.444 129.413C89.444 129.262 89.4084 129.112 89.3401 128.977C89.2718 128.841 89.1726 128.724 89.0506 128.634L82.6548 123.988C82.5123 123.884 82.3443 123.821 82.1687 123.806C81.9932 123.791 81.8168 123.823 81.6585 123.901C81.5003 123.978 81.3661 124.097 81.2703 124.245C81.1746 124.393 81.121 124.564 81.1152 124.74Z" fill="white"/>
<path d="M76.2 348.496C72.03 328.686 68.72 308.396 71.43 288.206C74.1351 268.784 81.5394 250.317 93 234.406C94 232.936 95.14 231.476 96.25 230.046C100.792 224.17 105.915 218.766 111.54 213.916C115.72 210.336 122.84 213.856 120.82 218.506C103.33 258.936 96.61 302.646 101.49 345.346" fill="#B5DAE5"/>
<path d="M84.97 330.406C84.79 311.826 92.84 293.516 105.89 280.226C115.503 270.619 127.294 263.476 140.26 259.406C144.67 257.986 148.2 263.066 145.1 266.406C136.591 275.343 128.743 284.889 121.62 294.966C111.84 309.076 103.96 324.656 99.99 341.346" fill="#B5DAE5"/>
<path d="M66.54 349.256C59.95 300.926 47.4 266.706 24.32 229.406C23.7687 228.586 23.5057 227.607 23.5723 226.622C23.6388 225.637 24.0312 224.701 24.6876 223.964C25.344 223.226 26.2271 222.727 27.198 222.547C28.1688 222.366 29.1721 222.514 30.05 222.966C39.4024 228.031 47.5406 235.07 53.9 243.596C63.31 255.916 80.9 278.156 86.3 331.206" fill="#B5DAE5"/>
<path d="M44.9799 336.306C44.9799 325.176 34.7699 292.426 6.97993 277.686C2.73993 275.436 4.56993 268.856 9.33993 269.116C24.8499 269.956 37.5799 276.876 47.7099 286.666C62.0299 300.506 71.0499 322.876 73.3399 343.356" fill="#B5DAE5"/>
<path d="M142.61 263.246C131.431 269.098 121.53 277.121 113.488 286.844C105.445 296.568 99.4218 307.797 95.77 319.876C93.6232 327.097 92.3574 334.551 92 342.076C92 342.876 94.14 342.426 94.17 341.776C94.9155 325.559 99.9021 309.821 108.632 296.134C117.362 282.447 129.529 271.29 143.92 263.776C144.3 263.576 144.48 263.296 144.14 263.016C143.8 262.736 142.92 263.076 142.61 263.236V263.246Z" fill="white"/>
<path d="M109.26 224.336C100.904 236.288 94.1968 249.312 89.3199 263.056C84.6176 276.383 81.7938 290.3 80.9299 304.406C80.4546 312.424 80.6453 320.469 81.4999 328.456C81.5599 328.986 83.7499 328.546 83.6699 327.866C80.6699 299.636 86.2099 270.946 98.6699 245.506C102.309 238.108 106.504 230.998 111.22 224.236C111.69 223.566 109.56 223.836 109.22 224.326L109.26 224.336Z" fill="white"/>
<path d="M35.3899 233.236C53.5699 252.646 63.8899 277.936 69.9999 303.486C71.8399 311.196 73.3299 318.986 74.5999 326.806C74.6999 327.446 76.8899 326.946 76.7699 326.226C72.4199 299.396 65.3199 272.456 50.5199 249.346C46.6849 243.307 42.2995 237.636 37.4199 232.406C36.9499 231.906 34.8999 232.686 35.4199 233.216L35.3899 233.236Z" fill="white"/>
<path d="M12.5799 275.566C33.0399 283.466 48.7099 301.456 56.4499 321.676C58.875 328.012 60.553 334.61 61.4499 341.336C61.5599 342.156 63.7399 341.646 63.6199 340.756C60.6199 317.996 48.4099 296.416 29.7099 282.876C24.9543 279.403 19.7718 276.556 14.2899 274.406C14.0375 274.311 13.766 274.277 13.4981 274.309C13.2302 274.34 12.9736 274.435 12.7499 274.586C12.4899 274.776 12.0599 275.326 12.5799 275.526V275.566Z" fill="white"/>
<path d="M31.1599 326.306V337.406C31.1599 381.616 52.6799 394.196 52.6799 394.196H100.06C100.06 394.196 121.58 381.616 121.58 337.406V326.306H31.1599Z" fill="#FF5A5F"/>
<path d="M71.29 220.776C71.292 221.781 70.9957 222.764 70.4387 223.601C69.8817 224.437 69.089 225.09 68.161 225.476C67.2329 225.862 66.2112 225.964 65.2251 225.769C64.239 225.574 63.3329 225.091 62.6214 224.381C61.91 223.671 61.4252 222.766 61.2284 221.78C61.0315 220.795 61.1315 219.773 61.5157 218.844C61.8999 217.915 62.551 217.121 63.3867 216.563C64.2223 216.004 65.2048 215.706 66.21 215.706C66.8766 215.704 67.537 215.835 68.1533 216.089C68.7695 216.343 69.3296 216.716 69.8015 217.187C70.2733 217.658 70.6477 218.217 70.9031 218.833C71.1585 219.449 71.29 220.109 71.29 220.776Z" fill="#FFEEF0"/>
<path d="M603.64 123.626C603.642 124.937 603.255 126.22 602.527 127.312C601.8 128.404 600.765 129.255 599.554 129.758C598.343 130.262 597.009 130.394 595.723 130.14C594.436 129.885 593.254 129.254 592.325 128.327C591.397 127.401 590.765 126.219 590.508 124.933C590.251 123.646 590.382 122.313 590.884 121.101C591.385 119.889 592.235 118.853 593.325 118.124C594.416 117.395 595.698 117.006 597.01 117.006C598.767 117.006 600.451 117.703 601.694 118.944C602.938 120.185 603.637 121.869 603.64 123.626Z" fill="#FFEEF0"/>
<path d="M261.51 5.40569C261.51 6.41041 261.212 7.39258 260.654 8.22798C260.096 9.06338 259.302 9.7145 258.374 10.099C257.446 10.4835 256.424 10.5841 255.439 10.3881C254.454 10.1921 253.548 9.70824 252.838 8.99779C252.127 8.28734 251.644 7.38217 251.448 6.39674C251.252 5.41132 251.352 4.3899 251.737 3.46165C252.121 2.53341 252.772 1.74002 253.608 1.18182C254.443 0.623622 255.425 0.325684 256.43 0.325684C257.777 0.325684 259.069 0.860899 260.022 1.81358C260.975 2.76627 261.51 4.05839 261.51 5.40569Z" fill="#FFEEF0"/>
<path d="M64.2699 217.776C64.2852 218.339 64.1206 218.892 63.7999 219.356C63.8899 219.226 63.7999 219.356 63.7999 219.406L63.6699 219.556L63.5499 219.676C63.3799 219.866 63.7099 219.576 63.4999 219.726L63.1499 219.966C63.4499 219.786 62.8099 220.106 63.0099 220.026C63.2099 219.946 62.9299 220.026 62.9099 220.026L62.6999 220.076C62.5399 220.076 62.9799 220.076 62.6999 220.076H62.4799C62.3199 220.076 62.7199 220.076 62.4799 220.076H62.2599H62.2099L61.9599 220.016L61.7299 219.926C61.7299 219.926 61.5799 219.856 61.7299 219.926L61.3699 219.716C61.1516 219.568 60.959 219.386 60.7999 219.176C60.4679 218.755 60.2679 218.246 60.2252 217.712C60.1825 217.178 60.299 216.643 60.5599 216.176C60.5929 216.114 60.6297 216.053 60.6699 215.996C60.7499 215.866 60.5399 216.146 60.6699 215.996C60.758 215.888 60.8514 215.784 60.9499 215.686C61.1199 215.506 60.8499 215.746 60.9499 215.686L61.1199 215.556L61.2599 215.466C61.3599 215.406 61.3499 215.406 61.2599 215.466L61.4099 215.396C61.4558 215.364 61.5064 215.341 61.5599 215.326L61.4399 215.376L61.5999 215.316H61.7699C62.0299 215.256 61.5999 215.316 61.7699 215.316H61.9899C62.2599 215.316 61.8499 215.316 61.9899 215.316H62.2099C62.2699 215.316 62.4699 215.316 62.2999 215.316C62.4631 215.355 62.6234 215.405 62.7799 215.466C63.0299 215.556 62.7099 215.416 62.8399 215.466L63.0999 215.606C63.3277 215.74 63.5279 215.917 63.6899 216.126C64.0797 216.593 64.3015 217.177 64.3199 217.786C64.3199 218.306 64.8599 218.486 65.3199 218.436C65.7799 218.386 66.5299 218.116 66.5299 217.596C66.5266 216.803 66.2763 216.032 65.8139 215.388C65.3514 214.745 64.6999 214.261 63.9499 214.006C63.0758 213.725 62.1395 213.703 61.2528 213.94C60.3662 214.178 59.5667 214.666 58.9499 215.346C58.4225 215.948 58.0989 216.702 58.0253 217.499C57.9516 218.297 58.1317 219.097 58.5399 219.786C59.0219 220.493 59.7079 221.036 60.5065 221.343C61.3051 221.651 62.1783 221.707 63.0099 221.506C63.9515 221.344 64.8115 220.871 65.4517 220.162C66.0919 219.453 66.4752 218.549 66.5399 217.596C66.5399 217.076 65.9899 216.906 65.5399 216.956C65.0899 217.006 64.2799 217.256 64.2699 217.776Z" fill="#FF5A5F"/>
<path d="M228.7 19.0456C228.692 19.448 228.598 19.8441 228.426 20.2077C228.254 20.5714 228.006 20.8945 227.7 21.1556L227.56 21.2556C227.37 21.4156 227.71 21.1856 227.49 21.2556L227.34 21.3356C227.65 21.1656 227.12 21.4356 227.34 21.3356C227.56 21.2356 227.27 21.3356 227.24 21.3356C227.45 21.3356 227.35 21.3356 227.24 21.3356C227.13 21.3356 227.48 21.3356 227.24 21.3356H227.09C226.85 21.3251 226.613 21.2744 226.39 21.1856C225.867 20.984 225.412 20.637 225.08 20.1856C224.748 19.7188 224.556 19.1665 224.527 18.594C224.499 18.0216 224.635 17.4531 224.92 16.9556C225.045 16.7358 225.204 16.5367 225.39 16.3656C225.459 16.2939 225.536 16.2302 225.62 16.1756C225.75 16.0656 225.67 16.1756 225.62 16.1756C225.57 16.1756 225.99 15.9956 225.74 16.0956C225.74 16.0956 225.87 16.0256 225.9 16.0356H225.77L225.94 15.9856C225.89 15.9856 225.7 16.0656 225.89 15.9856C226.08 15.9056 225.78 15.9856 225.89 15.9856C226.106 15.9718 226.322 15.9955 226.53 16.0556C227.173 16.2404 227.737 16.6352 228.13 17.177C228.523 17.7188 228.724 18.3766 228.7 19.0456C228.7 19.5356 230.88 19.1756 230.87 18.4656C230.849 17.7359 230.598 17.0315 230.153 16.4531C229.707 15.8748 229.09 15.4521 228.39 15.2456C227.472 15.0005 226.505 15.0087 225.591 15.2693C224.677 15.5299 223.851 16.0331 223.2 16.7256C222.716 17.2834 222.424 17.9817 222.366 18.7179C222.308 19.4541 222.489 20.1894 222.88 20.8156C223.371 21.4835 224.056 21.9844 224.841 22.2509C225.626 22.5174 226.474 22.5365 227.27 22.3056C228.22 22.1769 229.097 21.7248 229.752 21.0254C230.408 20.326 230.803 19.422 230.87 18.4656C230.85 17.9856 228.7 18.3256 228.7 19.0456Z" fill="#FF5A5F"/>
<path d="M45.5699 105.616C45.5798 105.759 45.5798 105.903 45.5699 106.046C45.5699 106.136 45.5699 106.216 45.5699 106.306C45.5699 106.396 45.5699 106.466 45.5699 106.306C45.5287 106.439 45.4786 106.569 45.4199 106.696C45.3893 106.772 45.3525 106.845 45.3099 106.916C45.2199 107.096 45.3899 106.836 45.3099 106.996C45.2299 107.156 45.1399 107.216 45.0499 107.316C44.9599 107.416 45.0499 107.316 45.0499 107.316L44.8599 107.476L44.7299 107.576C44.5199 107.746 44.9299 107.476 44.7299 107.576L44.5799 107.646C44.5799 107.646 44.2399 107.786 44.4099 107.726H44.3099L44.0999 107.776C43.9399 107.776 44.3799 107.776 44.0999 107.776H43.6999C43.6399 107.776 43.4399 107.776 43.6999 107.776H43.4899H43.2699C43.0099 107.726 43.4399 107.836 43.1899 107.776C42.7235 107.637 42.3114 107.358 42.0099 106.976C41.6815 106.583 41.4855 106.096 41.4499 105.586C41.4333 105.328 41.4502 105.069 41.4999 104.816C41.4999 104.816 41.5699 104.546 41.4999 104.706L41.5599 104.546C41.6197 104.388 41.6898 104.234 41.7699 104.086C41.8899 103.856 41.6999 104.176 41.7699 104.086L41.8999 103.916L42.0299 103.766C42.0299 103.716 42.1999 103.596 42.0299 103.766L42.3499 103.506C42.4999 103.386 42.3499 103.506 42.3499 103.506L42.6399 103.356C42.6904 103.326 42.7441 103.303 42.7999 103.286C42.5199 103.286 42.7499 103.286 42.7999 103.286H42.9699C43.2399 103.216 42.7999 103.286 42.9699 103.286H43.1899C43.1899 103.286 43.4799 103.286 43.3099 103.286C43.1399 103.286 43.4299 103.286 43.4399 103.286H43.6899C43.9599 103.286 43.5199 103.216 43.7699 103.286L44.0099 103.366L44.1999 103.456C44.2599 103.456 44.1999 103.456 44.1999 103.456L44.3499 103.546C44.4899 103.636 44.6099 103.736 44.7399 103.836L44.9099 104.016C45.0179 104.144 45.1149 104.281 45.1999 104.426L45.3199 104.646C45.2599 104.516 45.3199 104.736 45.3199 104.756C45.3816 104.914 45.4285 105.078 45.4599 105.246C45.4786 105.375 45.4786 105.506 45.4599 105.636C45.4719 105.753 45.5079 105.866 45.5655 105.969C45.6232 106.072 45.7013 106.161 45.795 106.233C45.8888 106.304 45.9962 106.355 46.1105 106.383C46.2249 106.411 46.3438 106.415 46.4599 106.396C46.8999 106.346 47.6599 106.046 47.6499 105.486C47.6491 104.679 47.3988 103.892 46.9333 103.233C46.4678 102.575 45.8099 102.076 45.0499 101.806C44.1774 101.51 43.2367 101.479 42.3467 101.718C41.4568 101.956 40.6575 102.453 40.0499 103.146C39.5221 103.767 39.2009 104.536 39.131 105.348C39.0611 106.16 39.246 106.974 39.6599 107.676C40.1792 108.422 40.917 108.989 41.7718 109.299C42.6266 109.609 43.5565 109.647 44.4335 109.407C45.3105 109.167 46.0916 108.661 46.6694 107.959C47.2471 107.256 47.5932 106.393 47.6599 105.486C47.6599 104.946 47.1299 104.686 46.6599 104.726C46.1899 104.766 45.5799 105.056 45.5699 105.616Z" fill="#FF5A5F"/>
<path d="M552.95 141.066C552.952 141.635 552.793 142.194 552.49 142.676C552.371 142.88 552.211 143.057 552.02 143.196C552.02 143.196 551.81 143.356 551.93 143.276C552.05 143.196 551.81 143.346 551.82 143.346C551.83 143.346 551.57 143.476 551.72 143.406C551.87 143.336 551.56 143.476 551.54 143.476C551.74 143.476 551.66 143.476 551.54 143.476C551.42 143.476 551.28 143.606 551.54 143.476H551.37C551.09 143.476 551.57 143.476 551.29 143.476H551.11C550.84 143.476 551.27 143.476 551.01 143.476H550.84H550.67C550.158 143.298 549.71 142.975 549.38 142.546C549.038 142.101 548.833 141.565 548.793 141.005C548.752 140.445 548.876 139.886 549.15 139.396C549.263 139.191 549.409 139.005 549.58 138.846L549.7 138.736L549.8 138.656L549.91 138.586C550 138.536 550.12 138.486 549.91 138.586C549.982 138.542 550.059 138.509 550.14 138.486C549.93 138.486 550.01 138.486 550.14 138.486H550.22C550.35 138.486 550.33 138.486 550.22 138.486H550.39C550.67 138.486 550.19 138.486 550.47 138.486H550.64C550.91 138.486 550.49 138.486 550.75 138.486L551 138.536C551.26 138.596 550.94 138.536 551.09 138.536L551.36 138.646L551.72 138.846C551.969 139.015 552.189 139.225 552.37 139.466C552.771 139.995 552.986 140.642 552.98 141.306C552.98 141.476 553.29 141.566 553.4 141.596C553.67 141.639 553.947 141.622 554.21 141.546C554.61 141.426 555.16 141.206 555.15 140.716C555.125 139.969 554.866 139.248 554.408 138.658C553.95 138.067 553.317 137.636 552.6 137.426C551.698 137.167 550.741 137.168 549.839 137.428C548.937 137.688 548.126 138.197 547.5 138.896C547.005 139.47 546.707 140.187 546.65 140.943C546.592 141.699 546.778 142.453 547.18 143.096C547.673 143.782 548.366 144.3 549.164 144.579C549.962 144.858 550.826 144.885 551.64 144.656C552.564 144.511 553.413 144.059 554.05 143.374C554.686 142.688 555.074 141.808 555.15 140.876C555.15 140.406 554.58 140.366 554.22 140.416C553.931 140.456 553.653 140.551 553.4 140.696C553.22 140.706 552.95 140.886 552.95 141.066Z" fill="#FF5A5F"/>
<path d="M572.59 251.056C572.593 251.346 572.556 251.636 572.48 251.916C572.48 251.766 572.48 252.026 572.48 252.026L572.41 252.186C572.377 252.261 572.341 252.334 572.3 252.406C572.3 252.406 572.15 252.636 572.3 252.486C572.221 252.599 572.134 252.706 572.04 252.806L571.93 252.926C572.09 252.766 571.93 252.926 571.87 252.976C571.81 253.026 571.45 253.236 571.69 253.106L571.55 253.186C571.55 253.186 571.21 253.326 571.38 253.266C571.55 253.206 571.29 253.266 571.28 253.266L571.07 253.316C570.91 253.316 571.35 253.316 571.07 253.316H570.85C570.79 253.316 570.6 253.316 570.85 253.316H570.63H570.42C570.63 253.316 570.37 253.316 570.34 253.316C570.206 253.278 570.075 253.228 569.95 253.166C570.12 253.246 569.88 253.166 569.86 253.116L569.72 253.026C569.496 252.89 569.302 252.709 569.15 252.496C569.001 252.315 568.88 252.112 568.79 251.896C568.676 251.618 568.605 251.325 568.58 251.026C568.546 250.519 568.665 250.014 568.92 249.576C568.92 249.576 569.05 249.356 568.98 249.456C568.91 249.556 569.07 249.346 569.06 249.356C569.148 249.248 569.241 249.144 569.34 249.046C569.2 249.196 569.34 249.046 569.34 249.046L569.5 248.926L569.64 248.836C569.41 248.986 569.71 248.836 569.77 248.776L569.92 248.706L569.8 248.756L569.96 248.706H570.12C570.39 248.636 569.95 248.706 570.12 248.706H570.34C570.34 248.706 570.63 248.706 570.47 248.706C570.31 248.706 570.59 248.706 570.59 248.706H570.85C570.63 248.706 570.9 248.706 570.93 248.706L571.17 248.786C571.17 248.786 571.4 248.896 571.29 248.836L571.48 248.946C571.704 249.078 571.9 249.251 572.06 249.456C572.165 249.582 572.262 249.716 572.35 249.856C572.419 249.965 572.472 250.082 572.51 250.206C572.573 250.364 572.62 250.528 572.65 250.696C572.662 250.829 572.662 250.963 572.65 251.096C572.65 251.616 573.18 251.846 573.65 251.796C574.12 251.746 574.86 251.466 574.85 250.926C574.85 250.126 574.601 249.347 574.139 248.695C573.677 248.043 573.024 247.551 572.27 247.286C571.396 246.996 570.456 246.97 569.567 247.21C568.678 247.45 567.88 247.946 567.27 248.636C566.739 249.245 566.415 250.006 566.343 250.811C566.271 251.615 566.456 252.422 566.87 253.116C567.395 253.851 568.134 254.408 568.986 254.711C569.837 255.014 570.761 255.048 571.633 254.809C572.505 254.571 573.283 254.07 573.862 253.376C574.44 252.681 574.792 251.826 574.87 250.926C574.87 250.396 574.34 250.176 573.87 250.226C573.4 250.276 572.6 250.516 572.59 251.056Z" fill="#FF796D"/>
<path d="M48.32 76.6756C58.8576 76.6756 67.4 68.1332 67.4 57.5956C67.4 47.058 58.8576 38.5156 48.32 38.5156C37.7824 38.5156 29.24 47.058 29.24 57.5956C29.24 68.1332 37.7824 76.6756 48.32 76.6756Z" fill="#FFEEF0"/>
<path d="M55.1606 62.947L51.4893 59.2756C52.3367 58.1408 52.7365 56.7336 52.6124 55.3227C52.4883 53.9119 51.8489 52.5961 50.8163 51.6267C49.7837 50.6573 48.4303 50.1021 47.0144 50.0672C45.5986 50.0322 44.2194 50.5199 43.1402 51.4372C42.0611 52.3545 41.3576 53.6371 41.164 55.0401C40.9704 56.4431 41.3003 57.8683 42.0907 59.0435C42.8811 60.2188 44.0766 61.0618 45.449 61.4116C46.8215 61.7614 48.2747 61.5935 49.5312 60.94L53.3494 64.7582C53.4683 64.8784 53.6099 64.9736 53.766 65.0385C53.9221 65.1033 54.0895 65.1364 54.2585 65.1358C54.4265 65.1363 54.5928 65.1031 54.7478 65.0382C54.9027 64.9733 55.0431 64.8781 55.1606 64.7582C55.2805 64.6398 55.3757 64.4988 55.4407 64.3433C55.5056 64.1879 55.5391 64.0211 55.5391 63.8526C55.5391 63.6841 55.5056 63.5173 55.4407 63.3618C55.3757 63.2064 55.2805 63.0654 55.1606 62.947ZM51.0137 55.828C51.0137 56.6468 50.7709 57.4472 50.316 58.128C49.8611 58.8088 49.2145 59.3394 48.4581 59.6528C47.7016 59.9661 46.8692 60.0481 46.0661 59.8884C45.2631 59.7286 44.5254 59.3343 43.9464 58.7553C43.3674 58.1764 42.9731 57.4387 42.8134 56.6356C42.6537 55.8326 42.7357 55.0002 43.049 54.2437C43.3623 53.4872 43.893 52.8407 44.5738 52.3858C45.2546 51.9308 46.055 51.688 46.8738 51.688C47.9712 51.6899 49.0231 52.1267 49.7991 52.9026C50.5751 53.6786 51.0119 54.7306 51.0137 55.828Z" fill="white"/>
<path d="M458.7 17.8357L457.18 23.9457L456.81 25.4057C456.702 25.6927 456.668 26.0021 456.71 26.3057C456.97 27.4457 458.46 27.6157 459.39 27.3657C459.64 27.2957 459.88 27.2057 460.13 27.1257L466.71 25.1257C467.351 25.0148 467.922 24.6554 468.3 24.1257C468.429 23.8708 468.468 23.5795 468.41 23.2996C468.351 23.0198 468.2 22.7681 467.98 22.5857L465.83 20.4257L462.92 17.4057C462.677 17.126 462.398 16.8805 462.09 16.6757C461.792 16.5247 461.467 16.4349 461.134 16.4116C460.8 16.3883 460.466 16.432 460.15 16.5402C459.834 16.6483 459.543 16.8186 459.294 17.0412C459.045 17.2637 458.843 17.5338 458.7 17.8357C458.54 18.3257 459.37 18.4257 459.7 18.3957C459.958 18.3897 460.209 18.3115 460.424 18.1701C460.64 18.0287 460.812 17.8297 460.92 17.5957C460.86 17.7957 460.41 17.6957 460.36 17.7957C460.31 17.8957 460.49 17.7957 460.57 17.8957C460.609 17.9298 460.646 17.9666 460.68 18.0057L461.39 18.7157L463.88 21.2157L465.88 23.2157L466.08 23.4257C466.144 23.5457 466.2 23.6692 466.25 23.7957C466.25 23.7957 466.69 23.6557 466.54 23.6957L466.22 23.7957L460.09 25.6957C459.774 25.7712 459.463 25.8681 459.16 25.9857H459.04C459.04 25.8157 459.41 26.1457 459.04 25.9057C458.966 25.8562 458.909 25.7862 458.875 25.7044C458.842 25.6225 458.833 25.5326 458.85 25.4457C458.961 24.8399 459.111 24.242 459.3 23.6557L460.82 17.5057C461.09 16.7057 458.88 17.0057 458.7 17.8357Z" fill="#FF5A5F"/>
<path d="M189.82 358.276L183.7 359.796C182.821 359.922 181.966 360.174 181.16 360.546C180.952 360.662 180.772 360.823 180.634 361.018C180.497 361.213 180.405 361.437 180.366 361.672C180.326 361.907 180.34 362.148 180.407 362.378C180.473 362.607 180.591 362.818 180.75 362.996C180.89 363.146 181.05 363.286 181.19 363.436L186.14 368.366C186.424 368.682 186.797 368.906 187.21 369.006C187.73 369.118 188.273 369.043 188.743 368.794C189.213 368.545 189.58 368.138 189.78 367.646C190.07 366.816 190.3 365.966 190.56 365.126L191.84 360.996C191.92 360.716 192.03 360.426 192.1 360.136C192.161 359.864 192.151 359.58 192.071 359.314C191.99 359.047 191.842 358.805 191.641 358.612C191.44 358.419 191.193 358.281 190.923 358.211C190.653 358.142 190.369 358.143 190.1 358.216C189.7 358.286 188.95 358.476 188.87 358.976C188.79 359.476 189.5 359.536 189.82 359.476C189.54 359.526 189.66 359.406 189.82 359.646C189.916 359.791 189.968 359.961 189.97 360.136C189.962 360.259 189.935 360.381 189.89 360.496C189.81 360.786 189.71 361.076 189.62 361.376L188.62 364.696L187.73 367.556C187.73 367.656 187.66 367.756 187.64 367.856C187.62 367.956 187.64 367.906 187.64 367.926V367.986C187.56 368.286 187.84 368.206 188.49 367.756C188.386 367.624 188.269 367.503 188.14 367.396L183.53 362.806L182.9 362.186C182.822 362.109 182.752 362.025 182.69 361.936C182.62 361.807 182.582 361.662 182.58 361.516C182.58 361.266 182.8 361.126 182.45 361.296C182.1 361.466 182.62 361.296 182.75 361.296L184 360.986L190.18 359.446C190.53 359.356 191.23 359.036 191.12 358.576C191.01 358.116 190.12 358.196 189.82 358.276Z" fill="#FF5A5F"/>
<path d="M0.0899497 202.326L2.79995 208.076L3.39995 209.366C3.50186 209.665 3.67321 209.936 3.89995 210.156C4.41454 210.442 5.00753 210.554 5.59109 210.477C6.17464 210.399 6.71774 210.136 7.13995 209.726C7.35484 209.498 7.54275 209.246 7.69995 208.976L11.5899 203.156C11.8144 202.884 11.9689 202.561 12.0399 202.216C12.1399 201.336 11.3099 200.996 10.5799 200.916L7.74995 200.616L3.54995 200.176C3.24995 200.176 2.94995 200.096 2.64995 200.086C1.64995 200.086 -0.43005 200.926 0.0899497 202.326C0.38995 203.096 2.53995 202.466 2.26995 201.736C2.22003 201.604 2.22003 201.458 2.26995 201.326C2.33995 200.946 2.50995 201.716 1.95995 201.326C1.95995 201.326 2.06995 201.326 2.10995 201.326C2.43995 201.376 2.78995 201.396 3.10995 201.426L6.54995 201.786L9.54995 202.096C9.63655 202.091 9.72335 202.091 9.80995 202.096C9.57995 201.996 9.80995 202.206 9.80995 202.286C9.88995 202.536 9.70995 202.736 9.57995 202.926L6.03995 208.406C5.85995 208.686 5.63995 208.956 5.47995 209.256C5.47995 209.256 5.39995 209.336 5.39995 209.376C5.39995 209.416 5.78995 209.256 5.72995 209.296C5.87995 209.196 5.84995 209.406 5.72995 209.186C5.45995 208.646 5.21995 208.096 4.95995 207.546L2.25995 201.786C1.90995 200.976 -0.22005 201.656 0.0899497 202.326Z" fill="#FF5A5F"/>
<path d="M596.18 220.506L601.56 217.286C602.29 216.942 602.965 216.491 603.56 215.946C603.7 215.765 603.8 215.556 603.853 215.333C603.906 215.11 603.91 214.878 603.865 214.653C603.821 214.429 603.729 214.216 603.595 214.03C603.461 213.844 603.289 213.689 603.09 213.576C602.91 213.456 602.7 213.366 602.5 213.256L596.31 209.976C595.834 209.692 595.281 209.566 594.73 209.616C594.281 209.641 593.856 209.825 593.53 210.135C593.205 210.444 592.999 210.859 592.95 211.306C592.95 212.256 592.95 213.196 592.95 214.136V218.386C592.95 218.696 592.95 219.016 592.95 219.326C593.05 220.786 594.77 221.216 595.95 220.646C596.3 220.466 596.81 220.046 596.49 219.646C596.17 219.246 595.41 219.346 595.02 219.536C594.87 219.616 595.58 219.366 595.5 219.486C595.455 219.458 595.415 219.425 595.38 219.386C595.269 219.242 595.194 219.074 595.16 218.896C595.16 219.016 595.16 218.846 595.16 218.806C595.16 218.476 595.16 218.136 595.16 217.806V211.046C595.16 210.466 594.78 211.396 594.38 211.046C594.529 211.149 594.69 211.232 594.86 211.296L600.62 214.356C600.85 214.486 601.1 214.596 601.33 214.736C601.454 214.794 601.559 214.888 601.63 215.006C601.696 215.111 601.734 215.231 601.74 215.356C601.74 215.456 601.64 215.606 601.74 215.476C601.6 215.589 601.445 215.684 601.28 215.756L600.15 216.436L594.73 219.676C594.37 219.896 594.16 220.426 594.59 220.676C594.845 220.795 595.128 220.841 595.409 220.812C595.689 220.782 595.955 220.676 596.18 220.506Z" fill="#FF796D"/>
<path d="M219.6 282.846C231.507 282.846 241.16 273.193 241.16 261.286C241.16 249.378 231.507 239.726 219.6 239.726C207.693 239.726 198.04 249.378 198.04 261.286C198.04 273.193 207.693 282.846 219.6 282.846Z" fill="#FFEEF0"/>
<path d="M223.75 254.156H207.91C206.872 254.156 206.03 254.997 206.03 256.036V267.506C206.03 268.544 206.872 269.386 207.91 269.386H223.75C224.788 269.386 225.63 268.544 225.63 267.506V256.036C225.63 254.997 224.788 254.156 223.75 254.156Z" fill="white"/>
<path d="M233.41 267.936L227.73 265.236V258.316L233.41 255.616C233.494 255.575 233.587 255.556 233.681 255.561C233.774 255.567 233.865 255.596 233.944 255.646C234.023 255.696 234.088 255.765 234.133 255.848C234.178 255.93 234.201 256.022 234.2 256.116V267.406C234.206 267.502 234.187 267.598 234.145 267.684C234.102 267.771 234.038 267.844 233.958 267.898C233.878 267.952 233.785 267.984 233.689 267.99C233.593 267.997 233.497 267.978 233.41 267.936Z" fill="white"/>
<path d="M596.217 95.8855C598.928 84.291 591.726 72.6941 580.132 69.9831C568.537 67.2722 556.94 74.4738 554.229 86.0683C551.518 97.6629 558.72 109.26 570.314 111.971C581.909 114.682 593.506 107.48 596.217 95.8855Z" fill="#FFEEF0"/>
<path d="M567.638 90.4434L573.302 96.6593L582.791 85.6418" stroke="white" stroke-width="3.5" stroke-linecap="round" stroke-linejoin="round"/>
<path opacity="0.3" d="M454.92 199.896C453.904 200.55 452.799 201.055 451.64 201.396C440.9 204.776 424.34 195.396 413.37 178.856C402.4 162.316 400.12 143.436 407.37 134.856C408.137 133.921 409.033 133.1 410.03 132.416C420.39 125.526 439.42 135.166 451.58 153.416C463.74 171.666 465.29 193.006 454.92 199.896Z" fill="white"/>
<path d="M479.9 223.716C477.5 220.246 475.7 220.906 474.31 220.456C472.92 220.006 470.09 222.136 469.56 224.226C469.03 226.316 468.56 226.346 468.82 227.916C469.08 229.486 473.35 229.326 475.35 229.226C477.35 229.126 483.52 230.356 483.52 230.356L489.39 223.776L479.9 223.716Z" fill="#FFBE9E"/>
<path d="M482.49 222.756C480.76 219.646 479.34 220.886 477.19 221.686C475.413 222.437 473.695 223.319 472.05 224.326C472.05 224.326 471.57 226.256 473 226.746C474.43 227.236 478.44 225.496 479.22 227.996C480 230.496 489.39 223.776 489.39 223.776L482.49 222.756Z" fill="#FFBE9E"/>
<path d="M544.79 180.886C538.5 180.136 534.41 183.786 531.04 199.766C529.385 207.5 526.574 214.94 522.7 221.836L484.01 222.496L481.52 230.236C481.52 230.236 519.98 237.576 528.18 236.476C539.5 234.946 545.4 215.586 550.97 200.476C554.89 189.826 553.37 181.906 544.79 180.886Z" fill="#FF5A5F"/>
<path d="M500.88 164.546C502.32 167.946 503.33 171.186 504.68 173.286C506.03 175.386 505.11 179.536 504.59 181.406C504.07 183.276 508.15 182.876 508.15 182.876C510.236 184.654 512.087 186.69 513.66 188.936C515 190.756 518.46 188.446 520.83 187.666C523.2 186.886 524.19 184.066 526.99 180.136C529.79 176.206 530.53 169.706 530.53 169.706L526.95 156.336L511.34 155.026L500.88 164.546Z" fill="#FFBE9E"/>
<path d="M501.83 166.896C497.24 167.896 489.7 158.646 500.6 155.096C505.6 153.486 515.98 145.806 521.09 148.096C526.2 150.386 526.75 154.306 526.75 154.306C526.75 154.306 529.67 153.306 532.6 159.236C535.53 165.166 531.6 177.606 532.17 180.966L525.08 175.236C525.08 175.236 528.43 171.066 526.86 167.516C525.29 163.966 519.78 163.996 520.11 167.706C520.44 171.416 518.43 172.136 518.43 172.136C518.43 172.136 515.21 169.086 515.87 166.706C517.09 162.266 509.66 157.946 508.08 160.776C506.5 163.606 505.88 166.056 501.83 166.896Z" fill="#007A87"/>
<path d="M539.29 178.406C538.846 178.468 538.394 178.468 537.95 178.406C536.12 177.946 524.68 174.226 524.68 174.226L522.51 187.146C522.51 187.146 538 198.406 543.51 201.146C541.81 193.656 540.35 186.096 539.29 178.406Z" fill="#F4A587"/>
<path d="M536.77 176.726L531.12 197.746L536.2 201.136L542.23 177.696L536.77 176.726Z" fill="#FF5A5F"/>
<path d="M542.23 177.696L550.97 177.546C559.33 177.406 575.71 184.146 585.18 191.406C600.35 203.056 616.31 233.996 616.31 233.996C611.66 238.078 606.297 241.268 600.49 243.406C594.113 245.644 587.505 247.16 580.79 247.926C580.79 247.926 565.27 224.106 553 221.406C545.397 219.585 538.505 215.548 533.2 209.806L542.23 177.696Z" fill="#FFAA91"/>
<path d="M616.31 233.996C620.64 245.256 619.73 259.486 616.31 269.676C613.55 277.876 608.1 295.186 605.1 312.046C603.34 321.906 613.32 349.986 624.19 373.236L612.38 379.656C612.38 379.656 580.44 331.916 580.44 317.786C580.44 303.656 580.81 247.876 580.81 247.876L616.31 233.996Z" fill="#FF5A5F"/>
<path d="M624.17 373.236L630.59 385.406L615.59 394.086H609.05L617.05 383.836L613.97 378.056L624.17 373.236Z" fill="#383838"/>
<path d="M615.24 235.616C619.57 246.876 618.13 260.946 615.24 271.306C612.35 281.666 585.48 311.596 583.95 319.846C580.8 336.786 568.34 377.506 568.34 377.506H554.84C554.84 377.506 562.04 331.916 562.04 317.786C562.04 303.656 579.7 249.496 579.7 249.496L615.24 235.616Z" fill="#FFAA91"/>
<path d="M568.33 377.496L566.73 392.876L546.34 393.196L555.22 386.496L558.05 377.496H568.33Z" fill="#383838"/>
<path d="M465.36 214.036L460.49 218.086L448.39 203.376L453.25 199.326L465.36 214.036Z" fill="#007A87"/>
<path d="M494.33 249.496L489.7 253.406C489.49 253.582 489.248 253.714 488.987 253.796C488.726 253.878 488.451 253.907 488.179 253.882C487.906 253.857 487.641 253.778 487.4 253.65C487.158 253.522 486.944 253.347 486.77 253.136L457.4 217.406C457.224 217.195 457.091 216.952 457.009 216.69C456.927 216.428 456.898 216.153 456.923 215.879C456.948 215.606 457.027 215.341 457.155 215.098C457.283 214.855 457.458 214.64 457.67 214.466L462.34 210.576C462.55 210.399 462.793 210.266 463.055 210.185C463.317 210.103 463.593 210.073 463.866 210.099C464.139 210.124 464.405 210.203 464.648 210.331C464.89 210.459 465.105 210.634 465.28 210.846L494.59 246.516C494.772 246.727 494.909 246.972 494.995 247.238C495.08 247.503 495.112 247.783 495.088 248.06C495.063 248.338 494.984 248.608 494.854 248.855C494.724 249.101 494.546 249.319 494.33 249.496Z" fill="#FF5A5F"/>
<path d="M454.34 151.616C440.28 130.466 418.29 120.366 405.21 129.056C392.13 137.746 392.94 161.936 407 183.056C421.06 204.176 443.05 214.316 456.13 205.626C469.21 196.936 468.4 172.776 454.34 151.616ZM454.92 199.896C453.904 200.55 452.799 201.055 451.64 201.396C440.9 204.776 424.34 195.396 413.37 178.856C402.4 162.316 400.12 143.436 407.37 134.856C408.137 133.921 409.033 133.1 410.03 132.416C420.39 125.526 439.42 135.166 451.58 153.416C463.74 171.666 465.29 193.006 454.92 199.896Z" fill="#FF5A5F"/>
<path d="M451.61 153.406C439.45 135.116 420.42 125.476 410.06 132.406C409.063 133.09 408.167 133.911 407.4 134.846C418.15 131.466 434.7 140.846 445.68 157.396C456.66 173.946 458.92 192.806 451.68 201.396C452.839 201.055 453.944 200.55 454.96 199.896C465.29 193.006 463.77 171.726 451.61 153.406Z" fill="#007A87"/>
<path d="M407 183.086C392.94 161.936 392.14 137.746 405.21 129.086L398.7 133.406C385.63 142.096 386.42 166.286 400.48 187.406C414.54 208.526 436.54 218.666 449.61 209.976L456.16 205.626C443.05 214.346 421.06 204.246 407 183.086Z" fill="#007A87"/>
<path d="M489.91 234.126C489.91 234.126 479.38 232.126 477.01 232.656C474.64 233.186 468.15 237.316 468.15 237.316L469.15 237.886L471.47 237.736L469.7 238.996L471.07 240.166L472.74 239.686L474.95 239.596L472.03 240.876L473.44 241.736L476.7 241.346L474.58 242.346L475.44 243.446L483.15 240.746L488 238.746L493.66 239.866L489.91 234.126Z" fill="#FFBE9E"/>
<path d="M543.7 182.496C537.7 180.496 533.29 185.136 533.51 201.496C533.625 210.241 533.02 218.98 531.7 227.626L489.95 234.126L489.03 242.206C489.03 242.206 530.7 242.406 538.89 243.406C547.08 244.406 548.97 218.876 550.26 207.576C551.55 196.276 551.94 185.226 543.7 182.496Z" fill="#FFAA91"/>
<path d="M501.47 166.996C502.07 168.937 502.899 170.8 503.94 172.546C504.897 174.267 505.249 176.26 504.94 178.206C504.825 179.07 504.604 179.916 504.28 180.726C504.158 180.94 504.099 181.185 504.111 181.431C504.124 181.677 504.207 181.915 504.35 182.116C505.15 183.116 506.98 183.176 508.12 183.006C508.41 183.006 508.76 182.666 508.25 182.736C507.25 182.886 504.55 182.616 504.86 181.026C504.98 180.426 505.31 179.856 505.46 179.256C505.656 178.376 505.756 177.477 505.76 176.576C505.811 174.96 505.372 173.367 504.5 172.006C503.545 170.366 502.783 168.621 502.23 166.806C502.23 166.636 501.46 166.806 501.51 166.996H501.47Z" fill="#383838"/>
<path d="M511.18 185.796C512.046 185.592 512.83 185.132 513.43 184.476C513.805 184.049 514.081 183.544 514.238 182.997C514.396 182.451 514.43 181.877 514.34 181.316C514.34 181.076 513.58 181.246 513.62 181.516C513.7 182.019 513.671 182.533 513.537 183.025C513.402 183.516 513.165 183.973 512.84 184.366C512.544 184.713 512.18 184.996 511.77 185.196L511.5 185.306H511.4L511.11 185.386C511.01 185.386 510.76 185.516 510.8 185.666C510.84 185.816 511.11 185.766 511.21 185.746L511.18 185.796Z" fill="#383838"/>
<path d="M507.32 173.096C507.473 172.469 507.823 171.908 508.32 171.496C508.754 171.23 509.26 171.106 509.767 171.142C510.274 171.178 510.758 171.372 511.15 171.696C511.26 171.776 511.5 171.696 511.61 171.696C511.72 171.696 511.93 171.566 511.83 171.496C511.387 171.187 510.877 170.986 510.342 170.91C509.808 170.834 509.262 170.884 508.75 171.058C508.239 171.231 507.775 171.522 507.396 171.907C507.017 172.292 506.734 172.761 506.57 173.276C506.57 173.416 507.24 173.276 507.29 173.136L507.32 173.096Z" fill="#383838"/>
<path d="M505.42 168.626C505.42 168.626 505.42 168.546 505.49 168.506C505.487 168.482 505.487 168.459 505.49 168.436C505.49 168.376 505.43 168.496 505.49 168.436L505.59 168.336C505.59 168.286 505.51 168.396 505.59 168.336C505.67 168.276 505.71 168.266 505.59 168.336C505.71 168.286 505.44 168.396 505.59 168.336C505.74 168.276 505.41 168.386 505.59 168.336H505.65H505.58C505.58 168.336 505.71 168.336 505.74 168.336C505.77 168.336 505.74 168.336 505.74 168.336C505.74 168.336 505.99 168.336 506.12 168.336C506.379 168.316 506.64 168.316 506.9 168.336C507.34 168.336 507.78 168.446 508.23 168.486C508.582 168.493 508.929 168.4 509.23 168.216C509.3 168.216 509.43 168.096 509.4 168.006C509.37 167.916 509.21 167.906 509.15 167.906C508.67 167.906 508.08 167.756 507.55 167.736C506.845 167.69 506.137 167.751 505.45 167.916C504.986 168.013 504.554 168.223 504.19 168.526C504.082 168.646 503.991 168.781 503.92 168.926C503.78 169.146 504.44 169.066 504.49 169.056C504.811 169.034 505.114 168.895 505.34 168.666L505.42 168.626Z" fill="#383838"/>
<path d="M508.54 174.336C509.098 174.336 509.55 173.883 509.55 173.326C509.55 172.768 509.098 172.316 508.54 172.316C507.982 172.316 507.53 172.768 507.53 173.326C507.53 173.883 507.982 174.336 508.54 174.336Z" fill="#383838"/>
</svg>
