<svg width="39" height="33" viewBox="0 0 39 33" fill="none" xmlns="http://www.w3.org/2000/svg">
<g clip-path="url(#clip0)">
<path d="M37.2305 8.33691H4.05469C3.33855 8.33691 2.75586 8.8276 2.75586 9.43066V10.2119H1.82812C1.11199 10.2119 0.529297 10.7026 0.529297 11.3057V23.9932C0.529297 24.5962 1.11199 25.0869 1.82812 25.0869H35.0039C35.72 25.0869 36.3027 24.5962 36.3027 23.9932V23.2119H37.2305C37.9466 23.2119 38.5293 22.7212 38.5293 22.1182V9.43066C38.5293 8.8276 37.9466 8.33691 37.2305 8.33691ZM37.416 22.1182C37.416 22.2043 37.3328 22.2744 37.2305 22.2744H35.7461C35.4386 22.2744 35.1895 22.4843 35.1895 22.7432V23.9932C35.1895 24.0793 35.1063 24.1494 35.0039 24.1494H1.82812C1.72585 24.1494 1.64258 24.0793 1.64258 23.9932V11.3057C1.64258 11.2195 1.72585 11.1494 1.82812 11.1494H11.5879C11.8953 11.1494 12.1445 10.9395 12.1445 10.6807C12.1445 10.4218 11.8953 10.2119 11.5879 10.2119H3.86914V9.43066C3.86914 9.34454 3.95241 9.27441 4.05469 9.27441H37.2305C37.3328 9.27441 37.416 9.34454 37.416 9.43066V22.1182Z" fill="black"/>
<path d="M35.0044 10.2119H14.1861C13.8786 10.2119 13.6294 10.4218 13.6294 10.6807C13.6294 10.9395 13.8786 11.1494 14.1861 11.1494H35.0044C35.1068 11.1494 35.19 11.2195 35.19 11.3057V20.5557C35.19 20.8145 35.4391 21.0244 35.7466 21.0244C36.0541 21.0244 36.3032 20.8145 36.3032 20.5557V11.3057C36.3032 10.7026 35.7206 10.2119 35.0044 10.2119Z" fill="black"/>
<path d="M22.0156 17.7119H3.68359C3.172 17.7119 2.75586 18.0624 2.75586 18.4932V19.7432C2.75586 20.174 3.172 20.5244 3.68359 20.5244H22.0156C22.5272 20.5244 22.9434 20.174 22.9434 19.7432V18.4932C22.9434 18.0624 22.5272 17.7119 22.0156 17.7119ZM21.8301 19.5869H3.86914V18.6494H21.8301V19.5869Z" fill="black"/>
<path d="M33.5195 19.5869H24.6133C24.3058 19.5869 24.0566 19.7968 24.0566 20.0557C24.0566 20.3145 24.3058 20.5244 24.6133 20.5244H33.5195C33.827 20.5244 34.0762 20.3145 34.0762 20.0557C34.0762 19.7968 33.827 19.5869 33.5195 19.5869Z" fill="black"/>
<path d="M22.0156 13.9619H3.68359C3.172 13.9619 2.75586 14.3124 2.75586 14.7432V15.9932C2.75586 16.424 3.172 16.7744 3.68359 16.7744H22.0156C22.5272 16.7744 22.9434 16.424 22.9434 15.9932V14.7432C22.9434 14.3124 22.5272 13.9619 22.0156 13.9619ZM21.8301 15.8369H3.86914V14.8994H21.8301V15.8369Z" fill="black"/>
<path d="M33.1484 13.9619H24.9844C24.4728 13.9619 24.0566 14.3124 24.0566 14.7432V15.9932C24.0566 16.424 24.4728 16.7744 24.9844 16.7744H33.1484C33.66 16.7744 34.0762 16.424 34.0762 15.9932V14.7432C34.0762 14.3124 33.66 13.9619 33.1484 13.9619ZM32.9629 15.8369H25.1699V14.8994H32.9629V15.8369Z" fill="black"/>
<path d="M3.3125 13.0244H11.5508C11.8582 13.0244 12.1074 12.8145 12.1074 12.5557C12.1074 12.2968 11.8582 12.0869 11.5508 12.0869H3.3125C3.00509 12.0869 2.75586 12.2968 2.75586 12.5557C2.75586 12.8145 3.00509 13.0244 3.3125 13.0244Z" fill="black"/>
<path d="M12.8458 21.6771L11.9962 22.3926L11.2049 21.7263C10.8432 21.4216 10.2546 21.4216 9.89289 21.7263L9.10165 22.3926L8.3104 21.7263C7.94866 21.4216 7.3601 21.4216 6.99836 21.7263L6.20711 22.3926L5.41587 21.7263C5.05413 21.4216 4.46557 21.4216 4.10383 21.7263L3.2112 22.478C2.99381 22.661 2.99381 22.9578 3.2112 23.1408C3.42859 23.3239 3.78105 23.3239 3.99836 23.1408L4.75985 22.4996L5.5511 23.1659C5.72633 23.3135 5.9593 23.3947 6.20711 23.3947C6.45493 23.3947 6.6879 23.3135 6.86313 23.1659L7.65438 22.4996L8.44563 23.1659C8.80737 23.4705 9.39592 23.4705 9.75767 23.1659L10.5489 22.4996L11.3402 23.1659C11.7019 23.4705 12.2905 23.4705 12.6522 23.1659L13.6329 22.34C13.8503 22.157 13.8503 21.8601 13.6329 21.6771C13.4156 21.4941 13.0631 21.4941 12.8458 21.6771Z" fill="black"/>
<path d="M33.5195 21.4932C33.212 21.4932 32.9629 21.703 32.9629 21.9619V22.7119C32.9629 22.9708 33.212 23.1807 33.5195 23.1807C33.827 23.1807 34.0762 22.9708 34.0762 22.7119V21.9619C34.0762 21.703 33.827 21.4932 33.5195 21.4932Z" fill="black"/>
<path d="M31.293 21.4932C30.9855 21.4932 30.7363 21.703 30.7363 21.9619V22.7119C30.7363 22.9708 30.9855 23.1807 31.293 23.1807C31.6005 23.1807 31.8496 22.9708 31.8496 22.7119V21.9619C31.8496 21.703 31.6005 21.4932 31.293 21.4932Z" fill="black"/>
<path d="M29.0664 21.4932C28.7589 21.4932 28.5098 21.703 28.5098 21.9619V22.7119C28.5098 22.9708 28.7589 23.1807 29.0664 23.1807C29.3739 23.1807 29.623 22.9708 29.623 22.7119V21.9619C29.623 21.703 29.3739 21.4932 29.0664 21.4932Z" fill="black"/>
<path d="M26.8398 21.4932C26.5324 21.4932 26.2832 21.703 26.2832 21.9619V22.7119C26.2832 22.9708 26.5324 23.1807 26.8398 23.1807C27.1473 23.1807 27.3965 22.9708 27.3965 22.7119V21.9619C27.3965 21.703 27.1473 21.4932 26.8398 21.4932Z" fill="black"/>
<path d="M24.6133 21.4932C24.3058 21.4932 24.0566 21.703 24.0566 21.9619V22.7119C24.0566 22.9708 24.3058 23.1807 24.6133 23.1807C24.9208 23.1807 25.1699 22.9708 25.1699 22.7119V21.9619C25.1699 21.703 24.9208 21.4932 24.6133 21.4932Z" fill="black"/>
</g>
<defs>
<clipPath id="clip0">
<rect width="38" height="32" fill="white" transform="translate(0.529297 0.711914)"/>
</clipPath>
</defs>
</svg>
