<svg width="33" height="33" viewBox="0 0 33 33" fill="none" xmlns="http://www.w3.org/2000/svg">
<g clip-path="url(#clip0)">
<path d="M27.422 14.5557H24.165C23.9061 14.5557 23.6963 14.7655 23.6963 15.0244C23.6963 15.2833 23.9061 15.4932 24.165 15.4932H26.952C26.9049 17.0949 25.5872 18.3835 23.9743 18.3835C22.3614 18.3835 21.0437 17.0949 20.9966 15.4932H21.9868C22.2457 15.4932 22.4555 15.2833 22.4555 15.0244C22.4555 14.7655 22.2457 14.5557 21.9868 14.5557H20.5266C20.2677 14.5557 20.0579 14.7655 20.0579 15.0244V15.4045C20.0579 17.4053 21.5664 19.0594 23.5055 19.2919V24.8121C22.2902 25.023 21.3478 26.0381 21.2483 27.2877H20.5266C20.2677 27.2877 20.0579 27.4976 20.0579 27.7565C20.0579 28.0154 20.2677 28.2252 20.5266 28.2252H21.7075H26.2411H27.422C27.681 28.2252 27.8908 28.0154 27.8908 27.7565C27.8908 27.4976 27.681 27.2877 27.422 27.2877H26.7004C26.6009 26.0381 25.6585 25.0229 24.4431 24.8121V19.2919C26.3823 19.0594 27.8908 17.4053 27.8908 15.4045V15.0244C27.8907 14.7655 27.6809 14.5557 27.422 14.5557ZM25.759 27.2878H22.1895C22.2977 26.3992 23.0569 25.7086 23.9743 25.7086C24.8917 25.7086 25.6508 26.3992 25.759 27.2878Z" fill="black"/>
<path d="M29.4381 28.8453V27.3765C29.4381 25.3207 28.3014 23.4585 26.4714 22.5167C26.2452 22.4004 26.099 22.1529 26.099 21.8864V20.8947C26.099 20.6282 26.2452 20.3807 26.4714 20.2643C28.3013 19.3225 29.4381 17.4604 29.4381 15.4046V13.936C30.3596 13.8404 31.0805 13.0594 31.0805 12.113C31.0805 11.1023 30.2583 10.28 29.2476 10.28H25.9861V5.25535C25.9861 4.17291 25.1051 3.29223 24.0223 3.29223H21.8054V1.87729C21.8054 1.11841 21.1881 0.500977 20.4291 0.500977C19.6702 0.500977 19.0528 1.11841 19.0528 1.87729V3.29223H14.9409V1.87729C14.9409 1.11841 14.3234 0.500977 13.5645 0.500977C12.8056 0.500977 12.1882 1.11841 12.1882 1.87729V3.29223H8.07626V1.87729C8.07626 1.11841 7.45882 0.500977 6.69988 0.500977C5.94095 0.500977 5.32357 1.11841 5.32357 1.87729V3.29223H3.1067C2.02388 3.29223 1.14295 4.17285 1.14295 5.25535V11.8697C1.14295 12.1286 1.35276 12.3385 1.6117 12.3385C1.87063 12.3385 2.08045 12.1286 2.08045 11.8697V8.29591H25.0486V10.28H18.7009C17.6902 10.28 16.868 11.1023 16.868 12.113C16.868 13.0593 17.5889 13.8404 18.5104 13.936V15.4046C18.5104 15.422 18.5111 15.4393 18.5113 15.4567H14.4783V11.2397C14.4783 10.9809 14.2684 10.771 14.0095 10.771C13.7506 10.771 13.5408 10.9809 13.5408 11.2397V15.4567H8.68157V11.2397C8.68157 10.9809 8.47176 10.771 8.21282 10.771C7.95388 10.771 7.74407 10.9809 7.74407 11.2397V15.4567H4.25107C3.99213 15.4567 3.78232 15.6665 3.78232 15.9254C3.78232 16.1843 3.99213 16.3942 4.25107 16.3942H7.74407V21.2535H4.25107C3.99213 21.2535 3.78232 21.4634 3.78232 21.7223C3.78232 21.9812 3.99213 22.191 4.25107 22.191H7.74407V26.4084C7.74407 26.6673 7.95388 26.8772 8.21282 26.8772C8.47176 26.8772 8.68157 26.6673 8.68157 26.4084V22.191H13.5408V26.4084C13.5408 26.6672 13.7506 26.8771 14.0095 26.8771C14.2684 26.8771 14.4783 26.6672 14.4783 26.4084V22.191H19.3373V24.4818C18.8059 25.3325 18.5104 26.3292 18.5104 27.3765V28.8453C18.1019 28.8872 17.7231 29.0635 17.4253 29.3524H6.71557V26.6809C6.71557 25.598 5.83463 24.7172 4.75188 24.7172H2.08038V14.0479C2.08038 13.789 1.87057 13.5791 1.61163 13.5791C1.3527 13.5791 1.14288 13.789 1.14288 14.0479V25.1859C1.14288 25.1912 1.14351 25.1964 1.14363 25.2017C1.14382 25.2069 1.14407 25.2122 1.14438 25.2174C1.1457 25.2374 1.14788 25.2572 1.15176 25.2767C1.15182 25.2769 1.15182 25.2772 1.15188 25.2774C1.15582 25.2973 1.16151 25.3166 1.16795 25.3357C1.16957 25.3406 1.17132 25.3454 1.17313 25.3502C1.17995 25.3684 1.18751 25.3861 1.19651 25.4033C1.19695 25.4042 1.19732 25.4052 1.19782 25.406C1.20738 25.4239 1.21845 25.441 1.23026 25.4576C1.23326 25.4618 1.23626 25.4659 1.23945 25.47C1.25201 25.4865 1.26532 25.5025 1.28013 25.5173L5.91532 30.1525C5.92638 30.1635 5.93795 30.174 5.94995 30.1838C5.95601 30.1888 5.96251 30.1931 5.96882 30.1978C5.97495 30.2023 5.98082 30.2071 5.98713 30.2113C5.99451 30.2162 6.00226 30.2204 6.00995 30.2249C6.01551 30.2282 6.02095 30.2318 6.0267 30.2349C6.03426 30.2389 6.04207 30.2422 6.04982 30.2458C6.05595 30.2487 6.06195 30.2518 6.0682 30.2544C6.07538 30.2574 6.08276 30.2597 6.09001 30.2622C6.09713 30.2648 6.10413 30.2676 6.11138 30.2698C6.11832 30.2719 6.12538 30.2733 6.13238 30.275C6.14013 30.277 6.14782 30.2793 6.15576 30.2809C6.1632 30.2824 6.17076 30.2831 6.17832 30.2842C6.18588 30.2854 6.19345 30.2868 6.20107 30.2875C6.21376 30.2888 6.22651 30.2892 6.23932 30.2894C6.24182 30.2895 6.24432 30.2898 6.24682 30.2898H16.9092C16.8829 30.4137 16.8679 30.5402 16.8679 30.6678C16.8679 31.6786 17.6902 32.5009 18.701 32.5009H25.6304C25.8894 32.5009 26.0992 32.291 26.0992 32.0322C26.0992 31.7733 25.8894 31.5634 25.6304 31.5634H18.7011C18.2073 31.5634 17.8054 31.1616 17.8054 30.6678C17.8054 30.4635 17.8722 30.2717 18.0001 30.1109C18.0211 30.0843 18.0438 30.0587 18.0676 30.0349C18.2366 29.8659 18.4616 29.7729 18.7011 29.7729H29.2473C29.7411 29.7729 30.1429 30.1744 30.1429 30.6679C30.1429 30.9074 30.0499 31.1324 29.8809 31.3014C29.7119 31.4704 29.4869 31.5635 29.2473 31.5635H27.8086C27.5496 31.5635 27.3398 31.7734 27.3398 32.0322C27.3398 32.2911 27.5496 32.501 27.8086 32.501H29.2473C29.7373 32.501 30.1977 32.3104 30.5438 31.9643C30.8899 31.6182 31.0804 31.1578 31.0804 30.6679C31.0804 29.7218 30.3596 28.941 29.4381 28.8453ZM20.4291 1.43848C20.6711 1.43848 20.8679 1.63535 20.8679 1.87729V4.8866C20.8679 5.1286 20.6711 5.32541 20.4291 5.32541C20.1871 5.32541 19.9903 5.1286 19.9903 4.8866V3.76341C19.9903 3.7626 19.9904 3.76179 19.9904 3.76098C19.9904 3.76016 19.9903 3.75935 19.9903 3.75854V1.87729C19.9903 1.63535 20.1871 1.43848 20.4291 1.43848ZM13.1257 1.87729C13.1257 1.63529 13.3225 1.43848 13.5645 1.43848C13.8065 1.43848 14.0033 1.63535 14.0033 1.87729V4.8866C14.0033 5.1286 13.8065 5.32541 13.5645 5.32541C13.3225 5.32541 13.1257 5.1286 13.1257 4.8866V1.87729ZM6.26107 1.87729C6.26107 1.63529 6.45788 1.43848 6.69988 1.43848C6.94188 1.43848 7.1387 1.63535 7.1387 1.87729V3.75735C7.1387 3.7586 7.13851 3.75979 7.13851 3.76098C7.13851 3.76216 7.1387 3.76335 7.1387 3.7646V4.8866C7.1387 5.1286 6.94188 5.32541 6.69988 5.32541C6.45788 5.32541 6.26107 5.1286 6.26107 4.8866V1.87729ZM25.0483 7.35841H2.0807V5.25566C2.0807 5.25479 2.08057 5.25398 2.08057 5.2531C2.08182 4.6886 2.54157 4.22973 3.1067 4.22973H5.32357V4.8866C5.32357 5.64554 5.94101 6.26291 6.69988 6.26291C7.45876 6.26291 8.07619 5.64554 8.07619 4.8866V4.22973H12.1881V4.8866C12.1881 5.64554 12.8056 6.26291 13.5644 6.26291C14.3233 6.26291 14.9408 5.64554 14.9408 4.8866V4.22973H19.0527V4.8866C19.0527 5.64554 19.6701 6.26291 20.429 6.26291C21.1879 6.26291 21.8054 5.64554 21.8054 4.8866V4.22973H24.0224C24.5873 4.22973 25.0469 4.68829 25.0484 5.25248C25.0484 5.25354 25.0483 5.2546 25.0483 5.25566V7.35841H25.0483ZM26.0424 19.4307C25.4991 19.7103 25.1615 20.2713 25.1615 20.8947V21.8863C25.1615 22.5097 25.499 23.0707 26.0424 23.3503C27.5587 24.1307 28.5006 25.6734 28.5006 27.3764V28.8353H19.4479V27.3764C19.4479 26.4842 19.7068 25.6362 20.1711 24.9185C20.1895 24.8957 20.2059 24.8711 20.2198 24.845C20.638 24.2255 21.2116 23.7077 21.9061 23.3503C22.4495 23.0707 22.7871 22.5097 22.7871 21.8863V21.7282C22.7871 21.7262 22.7874 21.7242 22.7874 21.7222C22.7874 21.7201 22.7871 21.7182 22.7871 21.7161V20.8946C22.7871 20.2712 22.4496 19.7102 21.9061 19.4306C21.2118 19.0733 20.6384 18.5558 20.2203 17.9365C20.206 17.9095 20.1891 17.884 20.1699 17.8605C19.7896 17.2718 19.5471 16.5956 19.4726 15.8792C19.4724 15.8782 19.4724 15.8771 19.4723 15.8761C19.4562 15.7206 19.4479 15.5632 19.4479 15.4044V13.9457H28.5007V15.4044C28.5006 17.1076 27.5586 18.6503 26.0424 19.4307ZM20.2748 19.4267C20.6308 19.7529 21.0333 20.0359 21.4771 20.2642C21.7033 20.3807 21.8494 20.6281 21.8494 20.8947V21.2535H20.2748V19.4267ZM17.8055 12.1129C17.8055 11.6192 18.2072 11.2175 18.7009 11.2175H29.2476C29.7413 11.2175 30.143 11.6192 30.143 12.1129C30.143 12.6066 29.7413 13.0083 29.2476 13.0083H18.7009C18.2071 13.0083 17.8055 12.6066 17.8055 12.1129ZM8.68157 21.2535V16.3941H13.5408V21.2535H8.68157ZM14.4783 21.2535V16.3941H18.6001C18.7246 17.0766 18.9764 17.7215 19.3373 18.2992V21.2535H14.4783ZM21.7819 22.191C21.718 22.3303 21.6123 22.4472 21.4771 22.5167C21.0334 22.7451 20.6308 23.028 20.2749 23.3543V22.191H21.7819ZM2.74326 25.6546H4.75188C5.31776 25.6546 5.77807 26.115 5.77807 26.6808V28.6894L2.74326 25.6546Z" fill="black"/>
</g>
<defs>
<clipPath id="clip0">
<rect width="32" height="32" fill="white" transform="translate(0.111328 0.500977)"/>
</clipPath>
</defs>
</svg>
