<svg width="80" height="80" viewBox="0 0 80 80" fill="none" xmlns="http://www.w3.org/2000/svg">
<path fill-rule="evenodd" clip-rule="evenodd" d="M55.41 67.9737C51.149 67.8159 47.0569 66.2605 43.7307 63.6135C40.515 61.0545 38.2066 57.4972 37.2471 53.5197C36.3365 49.745 38.2088 46.1016 38.5741 42.2373C39.086 36.8219 35.6046 29.8519 39.8136 26.3667C43.9367 22.9525 50.2458 26.8335 55.41 28.2961C59.2179 29.3745 62.1177 31.9044 65.6485 33.6833C70.1292 35.9407 77.6009 35.2788 78.8534 40.1073C80.1343 45.0449 72.657 47.896 70.5405 52.5422C68.7989 56.3655 70.6893 61.4953 67.7406 64.5027C64.6868 67.6173 59.7866 68.1358 55.41 67.9737Z" fill="#00D1C2"/>
<path d="M17.8196 32.1213V4.9574H70.0001V46.251H30.9743" stroke="#383838" stroke-width="2" stroke-miterlimit="10" stroke-linecap="round" stroke-linejoin="round"/>
<path d="M32.7282 41.8696H65.5054V9.44812H22.314V32.1213" stroke="#383838" stroke-width="2" stroke-miterlimit="10" stroke-linecap="round" stroke-linejoin="round"/>
<path d="M32.7282 37.817V20.4014H27.7952V32.1213" stroke="#383838" stroke-width="2" stroke-miterlimit="10" stroke-linecap="round" stroke-linejoin="round"/>
<path d="M36.8938 35.736V37.598H41.8268V35.736V13.6105H36.8938V35.736Z" stroke="#383838" stroke-width="2" stroke-miterlimit="10" stroke-linecap="round" stroke-linejoin="round"/>
<path d="M45.9927 35.736V37.598H50.9257V35.736V23.797H45.9927V35.736Z" stroke="#383838" stroke-width="2" stroke-miterlimit="10" stroke-linecap="round" stroke-linejoin="round"/>
<path d="M55.0913 17.8822V35.736V37.598H60.0244V35.736V17.8822H55.0913Z" stroke="#383838" stroke-width="2" stroke-miterlimit="10" stroke-linecap="round" stroke-linejoin="round"/>
<path d="M20.8889 63.2285L20.7793 63.3381L20.8889 63.2285Z" stroke="#383838" stroke-width="2" stroke-miterlimit="10" stroke-linecap="round" stroke-linejoin="round"/>
<path d="M22.4235 61.0377L27.5758 57.6423V55.123C27.1373 55.3421 26.8084 55.6707 26.4796 55.9993C24.2871 57.9709 22.0946 57.6423 22.0946 57.6423C20.7792 57.6423 18.806 56.3279 18.0386 55.6707C17.8194 55.5612 17.6001 55.3421 17.3809 55.2326V57.6423L22.4235 61.0377Z" stroke="#383838" stroke-width="2" stroke-miterlimit="10" stroke-linecap="round" stroke-linejoin="round"/>
<path d="M22.5333 61.0378L20.8889 63.2285L22.5333 61.0378Z" stroke="#383838" stroke-width="2" stroke-miterlimit="10" stroke-linecap="round" stroke-linejoin="round"/>
<path d="M17.0519 38.9122H20.231C20.5599 38.9122 20.7791 38.9122 21.108 38.8027C21.6561 38.5836 22.6427 38.2551 23.3004 38.036C23.9582 37.8169 24.6159 37.8169 25.164 38.036L28.4527 39.2408C30.6452 40.1171 30.9741 42.1982 30.9741 42.1982V48.1129C30.9741 48.1129 31.3029 46.1413 32.2895 44.4984C32.5088 44.0602 32.6184 43.6221 32.6184 43.184V38.036C32.6184 38.036 32.2895 35.5168 29.8778 34.9691C29.8778 34.9691 30.8644 32.7785 28.2335 32.3403H18.5867C15.0787 32.3403 12.2285 35.1882 12.2285 38.6932V42.4173C12.2285 43.184 12.4478 44.0602 12.9959 44.7174C13.4344 45.2651 13.7632 46.0318 13.8729 47.1271V42.0887C14.6402 39.2408 17.0519 38.9122 17.0519 38.9122Z" stroke="#383838" stroke-width="2" stroke-miterlimit="10" stroke-linecap="round" stroke-linejoin="round"/>
<path d="M22.0948 57.5327C22.0948 57.5327 24.2872 57.8613 26.4797 55.8897C26.8086 55.5611 27.2471 55.342 27.5759 55.0134C27.5759 55.0134 27.6856 55.0134 27.6856 54.9039C28.6722 54.2467 30.5358 52.3847 30.9742 47.8939V41.9791C30.9742 41.9791 30.755 39.898 28.4529 39.0217L25.1642 37.8169C24.5065 37.5978 23.8487 37.5978 23.3006 37.8169C22.6429 38.036 21.6563 38.3645 21.1082 38.5836C20.7793 38.6931 20.5601 38.6931 20.2312 38.6931H17.0521C17.0521 38.6931 14.5308 39.0217 13.9827 41.76V46.7985V48.0034C13.9827 48.0034 14.0923 52.8228 17.2714 55.0134C17.2714 55.0134 17.2714 55.0134 17.381 55.0134C17.6002 55.123 17.8195 55.342 18.0387 55.4516C18.8061 56.2183 20.7793 57.6422 22.0948 57.5327Z" stroke="#383838" stroke-width="2" stroke-miterlimit="10" stroke-linecap="round" stroke-linejoin="round"/>
<path d="M20.8889 63.2284L20.7793 63.3379L22.5333 61.0378L20.8889 63.2284Z" stroke="#383838" stroke-width="2" stroke-miterlimit="10" stroke-linecap="round" stroke-linejoin="round"/>
<path d="M22.5332 61.0377L24.1775 63.3379L26.2604 66.0762L30.3164 58.628L27.5759 57.6422L22.5332 61.0377Z" stroke="#383838" stroke-width="2" stroke-miterlimit="10" stroke-linecap="round" stroke-linejoin="round"/>
<path d="M20.7793 63.3379L20.8889 63.2283L22.5332 61.0377H22.4236L17.381 57.6422L14.6404 58.628L18.8061 66.0762L20.7793 63.3379Z" stroke="#383838" stroke-width="2" stroke-miterlimit="10" stroke-linecap="round" stroke-linejoin="round"/>
<path d="M30.3164 58.6281L39.1959 61.8045C40.621 62.3521 41.7172 63.557 41.9365 65.0904L42.8135 70.6766C43.0327 71.8814 42.1557 72.8672 40.9499 72.8672H3.89729C2.69144 72.8672 1.81445 71.7719 2.0337 70.6766L2.91068 65.0904C3.12993 63.557 4.22616 62.3521 5.65126 61.8045L14.5307 58.6281" stroke="#383838" stroke-width="2" stroke-miterlimit="10" stroke-linecap="round" stroke-linejoin="round"/>
</svg>
