<svg width="80" height="80" viewBox="0 0 80 80" fill="none" xmlns="http://www.w3.org/2000/svg">
<path fill-rule="evenodd" clip-rule="evenodd" d="M6.45094 56.5701C5.33576 52.5378 2.11773 48.3869 4.13413 44.7212C6.1489 41.0585 11.3423 41.4427 15.3759 40.3452C19.2627 39.2877 23.0842 37.1321 26.8588 38.5383C31.0585 40.1027 35.1655 43.4899 35.7465 47.9337C36.2994 52.1624 31.3053 54.6706 29.4715 58.5209C27.4099 62.8498 28.8013 69.2418 24.5461 71.4514C20.1646 73.7267 14.4664 71.4289 10.6533 68.2929C7.32025 65.5519 7.60124 60.7293 6.45094 56.5701Z" fill="#00D1C2"/>
<path fill-rule="evenodd" clip-rule="evenodd" d="M64.7758 19.0073C68.8213 19.1517 71.7792 22.4354 73.0905 26.3569C74.4831 30.5217 74.5856 35.4619 71.1734 38.1399C67.5384 40.9928 62.4602 40.3655 58.7567 37.6066C55.0608 34.8534 53.0263 30.1348 54.464 25.6924C55.8788 21.3206 60.2808 18.847 64.7758 19.0073Z" fill="#00D1C2"/>
<path d="M53.5383 53.9725C62.474 45.0442 62.474 30.5687 53.5383 21.6405C44.6026 12.7123 30.115 12.7123 21.1794 21.6406C12.2438 30.5689 12.2438 45.0444 21.1795 53.9726C30.1151 62.9008 44.6027 62.9008 53.5383 53.9725Z" stroke="#383838" stroke-width="2" stroke-miterlimit="10"/>
<path d="M22.3767 35.9736C22.3767 28.7148 28.2661 22.8304 35.531 22.8304" stroke="#383838" stroke-width="2" stroke-miterlimit="10"/>
<path d="M56.7961 61.1954L50.8396 55.2438" stroke="#383838" stroke-width="2" stroke-miterlimit="10"/>
<path d="M54.8105 51.2761L60.767 57.2277" stroke="#383838" stroke-width="2" stroke-miterlimit="10"/>
<path d="M74.6147 68.9755L68.861 74.7239C68.3473 75.2372 67.5144 75.2371 67.0008 74.7239L55.5364 63.2689C55.0227 62.7556 55.0227 61.9234 55.5364 61.4101L61.2902 55.6617C61.8039 55.1485 62.6367 55.1485 63.1504 55.6618L74.6148 67.1167C75.1285 67.63 75.1285 68.4622 74.6147 68.9755Z" stroke="#383838" stroke-width="2" stroke-miterlimit="10"/>
</svg>
