<svg width="80" height="80" viewBox="0 0 80 80" fill="none" xmlns="http://www.w3.org/2000/svg">
<path fill-rule="evenodd" clip-rule="evenodd" d="M39.8577 57.9878C46.9372 57.7472 52.1136 52.2743 54.4083 45.7386C56.8455 38.7972 57.0247 30.5634 51.0535 26.1001C44.6922 21.3453 35.8053 22.3908 29.3242 26.989C22.8564 31.5776 19.2961 39.4421 21.812 46.846C24.2879 54.1324 31.9914 58.255 39.8577 57.9878Z" fill="#00D1C2"/>
<path d="M40.0001 53.3807C47.7944 53.3807 54.113 47.0674 54.113 39.2795C54.113 31.4916 47.7944 25.1783 40.0001 25.1783C32.2058 25.1783 25.8872 31.4916 25.8872 39.2795C25.8872 47.0674 32.2058 53.3807 40.0001 53.3807Z" stroke="#383838" stroke-width="2" stroke-miterlimit="10" stroke-linecap="round" stroke-linejoin="round"/>
<path d="M40.0001 69.0612C56.4617 69.0612 69.8065 55.7275 69.8065 39.2795C69.8065 22.8315 56.4617 9.49774 40.0001 9.49774C23.5384 9.49774 10.1936 22.8315 10.1936 39.2795C10.1936 55.7275 23.5384 69.0612 40.0001 69.0612Z" stroke="#383838" stroke-width="2" stroke-miterlimit="10" stroke-linecap="round" stroke-linejoin="round"/>
<path d="M75 39.2795H63.2581" stroke="#383838" stroke-width="2" stroke-miterlimit="10" stroke-linecap="round" stroke-linejoin="round"/>
<path d="M16.7419 39.2795H5" stroke="#383838" stroke-width="2" stroke-miterlimit="10" stroke-linecap="round" stroke-linejoin="round"/>
<path d="M40 4.30853V16.0407" stroke="#383838" stroke-width="2" stroke-miterlimit="10" stroke-linecap="round" stroke-linejoin="round"/>
<path d="M40 62.5182V74.2504" stroke="#383838" stroke-width="2" stroke-miterlimit="10" stroke-linecap="round" stroke-linejoin="round"/>
</svg>
