<svg width="80" height="80" viewBox="0 0 80 80" fill="none" xmlns="http://www.w3.org/2000/svg">
<path fill-rule="evenodd" clip-rule="evenodd" d="M63.1945 18.2798C67.1505 18.4946 71.3442 18.4459 74.5041 20.9153C77.6371 23.3636 79.5107 27.3425 79.9532 31.3763C80.3519 35.011 78.1109 38.1784 76.7691 41.5633C75.5503 44.6376 74.6974 47.8103 72.4834 50.219C69.8918 53.0383 66.8447 55.3875 63.1945 56.3309C58.7474 57.4803 52.9119 59.5475 49.7811 56.0867C46.4893 52.4481 50.8818 46.3587 49.7847 41.5079C48.8463 37.359 43.7739 34.8148 44.0078 30.5609C44.2534 26.0953 47.3082 21.993 50.9872 19.6381C54.5539 17.3551 59.005 18.0522 63.1945 18.2798Z" fill="#00D1C2"/>
<path d="M31.5517 27.6049L22.0515 22.1952" stroke="black" stroke-width="2" stroke-miterlimit="10"/>
<path d="M40.8271 44.3011L49.1601 53.1546C50.3578 54.4211 52.2997 54.4211 53.4974 53.1546V53.1546C54.6951 51.8881 54.6951 49.8346 53.4974 48.5681" stroke="black" stroke-width="2" stroke-miterlimit="10" stroke-linecap="round" stroke-linejoin="round"/>
<path d="M40.8271 44.3011L46.9913 50.8614C48.1891 52.1279 48.1891 54.1814 46.9913 55.4479L46.9913 55.4479C45.7936 56.7145 43.8517 56.7145 42.654 55.4479L36.4897 48.8877" stroke="black" stroke-width="2" stroke-miterlimit="10" stroke-linecap="round" stroke-linejoin="round"/>
<path d="M36.4897 48.8876L40.4853 53.1546C41.683 54.4212 41.683 56.4747 40.4853 57.7412L40.4852 57.7412C39.2875 59.0078 37.3456 59.0078 36.1479 57.7412L32.1523 53.4742" stroke="black" stroke-width="2" stroke-miterlimit="10" stroke-linecap="round" stroke-linejoin="round"/>
<path d="M32.1524 53.4742L33.9792 55.4479C35.177 56.7145 35.177 58.7679 33.9792 60.0345L33.9792 60.0345C32.7815 61.301 30.8396 61.301 29.6419 60.0345L26.3889 56.5946L17.7143 47.4216L10.1238 34.8085" stroke="black" stroke-width="2" stroke-miterlimit="10" stroke-linecap="round" stroke-linejoin="round"/>
<path d="M5.7865 37.1017L1.44915 32.5152C0.850284 31.8819 0.850284 30.8552 1.44915 30.2219L17.7142 13.0223C18.3131 12.389 19.284 12.389 19.8829 13.0223L24.2203 17.6089C24.8191 18.2421 24.8191 19.2689 24.2203 19.9021L7.95518 37.1017C7.35632 37.735 6.38537 37.735 5.7865 37.1017Z" stroke="black" stroke-width="2" stroke-miterlimit="10"/>
<path d="M55.4417 21.4789L61.3215 19.39C62.1333 19.1016 63.0377 19.5371 63.3416 20.3627L70.9001 41.4462C71.204 42.2718 70.7922 43.1749 69.9803 43.4633L64.1005 45.5521C63.2887 45.8405 62.3843 45.405 62.0804 44.5795L54.5219 23.4959C54.218 22.6703 54.6299 21.7673 55.4417 21.4789Z" stroke="black" stroke-width="2" stroke-miterlimit="10"/>
<path d="M38.5147 32.7244L53.0815 48.1281L61.6676 43.4015L55.6475 27.2559L39.5361 25.3958C38.8587 25.3175 38.1788 25.4128 37.5476 25.6774C35.1474 26.6835 28.9718 29.2669 27.7718 29.7166C27.7718 29.7166 22.0166 34.1028 28.4248 35.6791C29.2935 35.8928 30.2173 35.7725 31.0278 35.3867C32.8588 34.5151 37.1176 32.7244 38.5147 32.7244Z" stroke="black" stroke-width="2" stroke-miterlimit="10"/>
<path d="M17.1151 46.0051L13.1346 49.1152C11.7504 50.1873 9.78093 49.9036 8.73562 48.4816L8.73562 48.4816C7.69032 47.0595 7.96504 45.0376 9.34924 43.9655L13.3297 40.8555" stroke="black" stroke-width="2" stroke-miterlimit="10"/>
<path d="M19.8457 52.1254L14.4138 56.2061C13.0296 57.2782 11.0601 56.9946 10.0148 55.5725L10.0148 55.5725C8.96951 54.1505 8.21208 52.9009 10.6284 51.0564L15.6411 47.174" stroke="black" stroke-width="2" stroke-miterlimit="10"/>
<path d="M23.4327 57.2751L19.4523 60.3852C18.0681 61.4573 16.0986 61.1736 15.0533 59.7516L15.0532 59.7516C14.0079 58.3295 14.2827 56.3076 15.6669 55.2355L21.0987 51.1548" stroke="black" stroke-width="2" stroke-miterlimit="10"/>
<path d="M29.7245 60.4834L25.744 63.5934C24.3598 64.6656 22.3903 64.3819 21.345 62.9599L21.345 62.9598C20.2997 61.5378 20.5744 59.5159 21.9586 58.4438L25.9391 55.3337" stroke="black" stroke-width="2" stroke-miterlimit="10"/>
</svg>
