<svg width="80" height="80" viewBox="0 0 80 80" fill="none" xmlns="http://www.w3.org/2000/svg">
<path fill-rule="evenodd" clip-rule="evenodd" d="M22.8315 10.1747C27.5733 9.75487 32.6065 9.91882 36.5503 12.6345C40.5588 15.3947 42.5651 20.1605 44.116 24.8307C45.6843 29.5534 46.6942 34.5458 45.4257 39.3612C44.1141 44.3402 41.3029 49.0402 37.0172 51.7785C32.8705 54.4279 27.7163 54.1061 22.8315 53.7971C18.2378 53.5065 13.6771 52.6973 9.87024 50.061C5.97616 47.3643 2.9809 43.4964 1.42007 38.9695C-0.167462 34.3652 -0.636703 29.2291 1.12255 24.6901C2.82742 20.2914 6.86159 17.5137 10.7415 14.9194C14.4429 12.4445 18.4214 10.5651 22.8315 10.1747Z" fill="#00D1C2"/>
<path d="M55.3914 26.0817C67.8779 26.0817 78.0001 22.289 78.0001 17.6104C78.0001 12.9319 67.8779 9.13916 55.3914 9.13916C42.905 9.13916 32.7827 12.9319 32.7827 17.6104C32.7827 22.289 42.905 26.0817 55.3914 26.0817Z" stroke="black" stroke-width="2" stroke-miterlimit="10"/>
<path d="M78.0001 17.6104V24.6697C78.0001 29.3483 67.8779 33.141 55.3914 33.141C42.905 33.141 32.7827 29.3483 32.7827 24.6697V17.6104" stroke="black" stroke-width="2" stroke-miterlimit="10"/>
<path d="M78.0001 24.6697V31.7291C78.0001 36.4076 67.8779 40.2003 55.3914 40.2003C42.905 40.2003 32.7827 36.4076 32.7827 31.7291V24.6697" stroke="black" stroke-width="2" stroke-miterlimit="10"/>
<path d="M78.0001 31.7292V38.7886C78.0001 43.4671 67.8779 47.2598 55.3914 47.2598C42.905 47.2598 32.7827 43.4671 32.7827 38.7886V31.7292" stroke="black" stroke-width="2" stroke-miterlimit="10"/>
<path d="M33.0477 47.149C32.8732 46.7249 32.7827 46.2904 32.7827 45.8479V38.7886" stroke="black" stroke-width="2" stroke-miterlimit="10"/>
<path d="M78 38.7886V45.8479C78 50.5264 67.8778 54.3191 55.3914 54.3191C48.6086 54.3191 42.5234 53.1999 38.3794 51.4276" stroke="black" stroke-width="2" stroke-miterlimit="10"/>
<path d="M78.0001 45.8477V52.907C78.0001 57.5856 67.8778 61.3783 55.3914 61.3783C50.0444 61.3783 45.131 60.6828 41.2603 59.5201" stroke="black" stroke-width="2" stroke-miterlimit="10"/>
<path d="M27.1304 74.0852C34.9345 74.0852 41.2609 67.764 41.2609 59.9664C41.2609 52.1688 34.9345 45.8477 27.1304 45.8477C19.3264 45.8477 13 52.1688 13 59.9664C13 67.764 19.3264 74.0852 27.1304 74.0852Z" stroke="black" stroke-width="2" stroke-miterlimit="10"/>
<path d="M31.3696 62.3694C31.3696 62.9283 31.2704 63.4319 31.0721 63.8804C30.8737 64.3288 30.5924 64.7155 30.2281 65.0404C29.8639 65.3653 29.4249 65.6253 28.911 65.8203C28.3972 66.0152 27.8281 66.1387 27.2037 66.1907L26.9988 68.2768C26.9923 68.3288 26.9776 68.3743 26.9549 68.4133C26.9321 68.4523 26.8898 68.4848 26.828 68.5108C26.7663 68.5368 26.6817 68.5579 26.5744 68.5741C26.4671 68.5904 26.3321 68.5985 26.1695 68.5985C25.9614 68.5985 25.7939 68.5888 25.667 68.5693C25.5402 68.5498 25.441 68.5221 25.3695 68.4864C25.2979 68.4507 25.2508 68.4035 25.228 68.3451C25.2052 68.2866 25.2004 68.2216 25.2134 68.1501L25.4183 66.1712C25.1386 66.1322 24.8751 66.0818 24.628 66.0201C24.3808 65.9584 24.1564 65.8901 23.9548 65.8154C23.7532 65.7406 23.5792 65.6643 23.4328 65.5863C23.2865 65.5083 23.1759 65.432 23.1011 65.3572C23.0263 65.2825 22.9727 65.172 22.9401 65.0258C22.9076 64.8796 22.8914 64.6635 22.8914 64.3775C22.8914 64.1566 22.8979 63.9746 22.9109 63.8316C22.9239 63.6886 22.9466 63.5782 22.9792 63.5002C23.0117 63.4222 23.0523 63.3686 23.1011 63.3393C23.1499 63.3101 23.2068 63.2955 23.2719 63.2955C23.3564 63.2955 23.48 63.3442 23.6426 63.4417C23.8052 63.5392 24.0133 63.6464 24.267 63.7634C24.5207 63.8804 24.828 63.9876 25.189 64.0851C25.55 64.1825 25.9744 64.2313 26.4622 64.2313C27.2232 64.2313 27.789 64.0899 28.1598 63.8072C28.5305 63.5245 28.7159 63.1492 28.7159 62.6813C28.7159 62.3694 28.6362 62.1127 28.4769 61.9112C28.3175 61.7097 28.1045 61.5327 27.8378 61.3799C27.5712 61.2272 27.2703 61.0907 26.9354 60.9705C26.6004 60.8503 26.2573 60.7219 25.9061 60.5854C25.5548 60.449 25.2117 60.2898 24.8768 60.1078C24.5418 59.9258 24.241 59.7016 23.9743 59.4352C23.7076 59.1687 23.4946 58.8454 23.3353 58.4652C23.1759 58.085 23.0962 57.6252 23.0962 57.0858C23.0962 56.5984 23.1775 56.1549 23.3401 55.7552C23.5028 55.3555 23.7369 55.0062 24.0426 54.7072C24.3483 54.4083 24.7239 54.1662 25.1695 53.981C25.615 53.7958 26.1207 53.6707 26.6866 53.6057L26.8817 51.6463C26.8882 51.5943 26.9028 51.5504 26.9256 51.5147C26.9484 51.479 26.9907 51.4465 27.0524 51.4172C27.1142 51.388 27.1972 51.3668 27.3012 51.3538C27.4053 51.3409 27.5419 51.3344 27.711 51.3344C27.9126 51.3344 28.0801 51.3441 28.2134 51.3636C28.3468 51.3831 28.4492 51.4107 28.5208 51.4465C28.5923 51.4822 28.6379 51.5293 28.6574 51.5878C28.6769 51.6463 28.6866 51.7113 28.6866 51.7828L28.4915 53.6252C28.6736 53.6512 28.8655 53.6869 29.0671 53.7324C29.2688 53.7779 29.4574 53.8315 29.633 53.8933C29.8086 53.955 29.968 54.02 30.1111 54.0882C30.2542 54.1565 30.3533 54.2182 30.4086 54.2734C30.4639 54.3287 30.5062 54.3839 30.5355 54.4392C30.5647 54.4944 30.5875 54.5626 30.6038 54.6439C30.62 54.7251 30.6314 54.8226 30.6379 54.9363C30.6444 55.0501 30.6477 55.1817 30.6477 55.3311C30.6477 55.5326 30.6428 55.6983 30.633 55.8283C30.6233 55.9583 30.6054 56.0574 30.5794 56.1256C30.5533 56.1939 30.5241 56.2393 30.4916 56.2621C30.459 56.2848 30.42 56.2962 30.3745 56.2962C30.2899 56.2962 30.1663 56.254 30.0037 56.1695C29.8411 56.085 29.6411 55.994 29.4037 55.8965C29.1663 55.7991 28.8931 55.7081 28.5842 55.6236C28.2752 55.5391 27.9354 55.4969 27.5647 55.4969C27.2264 55.4969 26.937 55.5294 26.6963 55.5943C26.4557 55.6593 26.2606 55.7503 26.111 55.8673C25.9614 55.9843 25.8508 56.124 25.7792 56.2865C25.7077 56.4489 25.6719 56.6277 25.6719 56.8226C25.6719 57.1281 25.7532 57.3848 25.9158 57.5927C26.0784 57.8007 26.2947 57.9794 26.5646 58.1289C26.8346 58.2784 27.1402 58.4148 27.4817 58.5383C27.8232 58.6618 28.1712 58.7918 28.5257 58.9282C28.8801 59.0647 29.2281 59.2223 29.5696 59.401C29.9111 59.5798 30.2151 59.8007 30.4818 60.0639C30.7485 60.3271 30.9631 60.6456 31.1257 61.0192C31.2883 61.3929 31.3696 61.843 31.3696 62.3694Z" fill="black"/>
</svg>
