<svg width="199" height="231" viewBox="0 0 199 231" fill="none" xmlns="http://www.w3.org/2000/svg">
<path fill-rule="evenodd" clip-rule="evenodd" d="M43.3501 230.006H0.683594L4.66091 209.664C4.66091 209.664 10.7509 183.714 12.4109 169.714C15.6009 142.914 30.8509 134.144 30.8509 134.144L44.2709 215.434L43.3501 230.006Z" fill="#FF5A5F"/>
<path fill-rule="evenodd" clip-rule="evenodd" d="M150.251 230.006H35.8188L23.5622 206.335L30.8522 134.155C28.9422 133.595 66.3422 118.155 66.3422 118.155L111.252 115.925L146.482 122.095C148.249 122.75 149.947 123.578 151.552 124.565C163.037 131.427 171.543 142.334 175.402 155.145L198.316 230.006H155.619L146.552 201.615L150.251 230.006Z" fill="#FF5A5F"/>
<path fill-rule="evenodd" clip-rule="evenodd" d="M38.8063 230.006H38.3334C37.8365 224.616 37.2575 219.434 36.6688 214.544C35.6288 205.904 34.5288 198.134 33.5688 191.624C32.9497 187.426 32.3888 183.751 31.921 180.687C31.6634 178.999 31.4341 177.497 31.2388 176.194L30.6088 171.994C30.5488 171.534 30.4988 171.174 30.4588 170.904C30.4448 170.791 30.4415 170.678 30.4488 170.564L30.5288 170.934C30.5418 171.004 30.556 171.08 30.5715 171.162C30.6157 171.397 30.6695 171.683 30.7288 172.024C30.8107 172.506 30.911 173.075 31.0277 173.737C31.1534 174.45 31.298 175.271 31.4588 176.204C32.0688 179.834 32.9488 185.094 33.9488 191.604C34.9488 198.114 36.1288 205.884 37.1288 214.524C37.6955 219.42 38.291 224.605 38.8063 230.006Z" fill="#383838"/>
<path d="M138.539 174.484C138.477 174.338 138.44 174.183 138.429 174.024C138.369 173.654 138.289 173.214 138.199 172.684C138.199 172.384 138.109 172.064 138.059 171.684C138.009 171.304 137.999 170.944 137.969 170.524C137.885 169.58 137.855 168.632 137.879 167.684C137.879 167.154 137.879 166.604 137.879 166.034C137.879 165.464 137.979 164.864 138.039 164.244C138.165 162.931 138.365 161.625 138.639 160.334C139.286 157.375 140.244 154.492 141.499 151.734C142.811 149.004 144.403 146.417 146.249 144.014C147.068 142.969 147.943 141.967 148.869 141.014C149.299 140.574 149.699 140.134 150.129 139.744L151.379 138.654C152.089 138.03 152.833 137.446 153.609 136.904C153.949 136.654 154.259 136.414 154.609 136.224L155.439 135.714L156.609 135.024C156.742 134.941 156.882 134.871 157.029 134.814C157.029 134.814 156.919 134.934 156.659 135.114L155.559 135.884L154.749 136.424C154.459 136.634 154.159 136.884 153.839 137.134C153.084 137.696 152.36 138.297 151.669 138.934L150.459 140.034C150.039 140.424 149.649 140.874 149.229 141.314C148.324 142.266 147.472 143.268 146.679 144.314C142.988 149.067 140.409 154.585 139.129 160.464C138.847 161.739 138.634 163.027 138.489 164.324C138.419 164.934 138.329 165.514 138.299 166.084C138.269 166.654 138.249 167.194 138.229 167.724C138.149 168.724 138.229 169.724 138.229 170.534C138.229 170.954 138.229 171.334 138.229 171.694C138.229 172.054 138.299 172.364 138.339 172.694C138.389 173.224 138.429 173.694 138.459 174.034C138.504 174.18 138.531 174.332 138.539 174.484Z" fill="#383838"/>
<path fill-rule="evenodd" clip-rule="evenodd" d="M156.143 230.006H155.638C154.644 226.861 153.562 223.476 152.409 219.954C149.719 211.734 147.249 204.294 145.249 199.004C144.58 197.245 143.889 195.74 143.319 194.499C143.037 193.886 142.785 193.337 142.579 192.854C142.269 192.124 142.029 191.554 141.879 191.164C141.798 190.966 141.731 190.762 141.679 190.554C141.8 190.733 141.9 190.924 141.979 191.124L142.759 192.774C142.926 193.125 143.116 193.512 143.323 193.935C143.961 195.236 144.767 196.88 145.589 198.864C147.689 204.154 150.219 211.564 152.899 219.794C154.065 223.374 155.153 226.814 156.143 230.006Z" fill="#383838"/>
<g opacity="0.3">
<path fill-rule="evenodd" clip-rule="evenodd" d="M150.211 230.006H144.905C142.175 216.209 140.848 202.029 141.147 188.902C141.463 190.327 146.51 201.614 146.51 201.614L150.211 230.006ZM141.15 188.754C141.149 188.804 141.148 188.853 141.147 188.902C141.125 188.806 141.125 188.754 141.15 188.754Z" fill="#BF4447"/>
</g>
<path d="M32.2203 194.404C32.2203 194.544 26.9803 193.514 20.5903 192.104C14.2003 190.694 9.0303 189.444 9.0703 189.304C9.1103 189.164 14.3003 190.184 20.7003 191.594C27.1003 193.004 32.2503 194.264 32.2203 194.404Z" fill="#FAFAFA"/>
<path d="M32.2198 188.545C31.1144 188.518 30.0134 188.394 28.9297 188.175C26.9297 187.865 24.1298 187.365 21.0598 186.785L13.2298 185.255C12.1377 185.081 11.0586 184.834 9.99976 184.515C11.1052 184.541 12.2061 184.665 13.2898 184.885C15.2898 185.195 18.0998 185.695 21.1598 186.275L28.9897 187.815C30.0821 187.983 31.1613 188.227 32.2198 188.545Z" fill="#FAFAFA"/>
<path d="M138.729 189.335C138.729 189.475 116.219 189.425 88.4495 189.215C60.6795 189.005 38.1794 188.715 38.1794 188.575C38.1794 188.435 60.6894 188.485 88.4594 188.695C116.229 188.905 138.729 189.155 138.729 189.335Z" fill="#FAFAFA"/>
<path d="M140.389 194.405C140.389 194.545 117.229 194.665 88.6595 194.665C60.0895 194.665 36.9294 194.545 36.9294 194.405C36.9294 194.265 60.0895 194.145 88.6595 194.145C117.229 194.145 140.389 194.255 140.389 194.405Z" fill="#FAFAFA"/>
<path d="M182.549 182.524C182.549 182.524 182.549 182.524 182.669 182.524C182.789 182.524 182.579 182.524 182.519 182.584H182.429V182.484H182.869L182.559 182.594C180.719 183.274 172.979 185.894 163.849 189.374L150.389 194.544L146.309 196.104C145.817 196.319 145.309 196.493 144.789 196.624C145.246 196.346 145.728 196.112 146.229 195.924C147.179 195.504 148.549 194.924 150.229 194.204C153.639 192.784 158.369 190.874 163.639 188.884C172.789 185.404 180.639 182.944 182.509 182.484V182.594H182.389V182.494H182.479C182.539 182.494 182.589 182.494 182.629 182.574L182.549 182.524Z" fill="#FAFAFA"/>
<path d="M181.731 176.065C181.731 176.205 173.001 179.275 162.121 182.925C151.241 186.575 142.391 189.435 142.351 189.305C142.311 189.175 151.081 186.095 161.961 182.435C172.841 178.775 181.681 175.925 181.731 176.065Z" fill="#FAFAFA"/>
<path d="M114.841 116.675C114.897 116.941 114.927 117.213 114.931 117.485C114.998 118.256 115.018 119.031 114.991 119.805C114.884 122.675 114.285 125.507 113.221 128.175C111.635 132.153 109.085 135.676 105.801 138.425C101.696 141.716 96.6721 143.655 91.4202 143.976C86.1683 144.296 80.946 142.983 76.4711 140.215C72.8743 137.89 69.9148 134.703 67.8611 130.945C66.4785 128.427 65.5382 125.691 65.0811 122.855C64.9589 122.087 64.8854 121.312 64.8611 120.535C64.8324 120.266 64.8324 119.994 64.8611 119.725C64.9246 119.99 64.9614 120.262 64.9711 120.535C64.9711 121.065 65.1211 121.835 65.2911 122.825C65.8228 125.611 66.8021 128.292 68.1911 130.765C70.263 134.415 73.1944 137.504 76.7311 139.765C81.1308 142.455 86.2506 143.729 91.3981 143.414C96.5455 143.099 101.472 141.211 105.511 138.005C108.222 135.757 110.444 132.978 112.042 129.84C113.64 126.701 114.578 123.269 114.801 119.755C114.801 118.755 114.861 117.975 114.801 117.445C114.793 117.187 114.806 116.93 114.841 116.675Z" fill="#FAFAFA"/>
<path d="M87.069 140.335C81.3796 139.882 76.0735 137.288 72.2209 133.078C68.3682 128.867 66.2555 123.352 66.309 117.645C66.309 112.025 66.409 107.525 66.409 107.525C66.409 107.525 48.309 104.715 48.089 86.6146C47.869 68.5146 50.999 26.9446 50.999 26.9446C61.29 22.5203 72.5758 20.9245 83.6901 22.3221C94.8043 23.7197 105.344 28.0601 114.219 34.8946L116.899 36.9545L111.379 119.335C111.182 122.317 110.394 125.23 109.061 127.906C107.729 130.581 105.878 132.965 103.616 134.919C101.354 136.872 98.7265 138.357 95.8859 139.287C93.0453 140.217 90.0483 140.573 87.069 140.335Z" fill="#FFBE9E"/>
<path d="M66.3796 107.244C74.7367 107.402 82.9518 105.069 89.9796 100.544C89.9796 100.544 84.4096 113.544 66.3396 111.934L66.3796 107.244Z" fill="#E38D74"/>
<path d="M114.672 55.6845C114.982 55.5545 127.112 52.0045 126.672 64.3845C126.232 76.7645 113.932 73.8045 113.922 73.4545C113.912 73.1045 114.672 55.6845 114.672 55.6845Z" fill="#FFBE9E"/>
<path d="M117.89 68.8847C117.95 68.8847 118.1 69.0447 118.46 69.2247C118.967 69.4561 119.543 69.4847 120.07 69.3047C121.39 68.8647 122.56 66.8247 122.69 64.5947C122.758 63.537 122.587 62.4776 122.19 61.4947C122.086 61.1043 121.888 60.745 121.615 60.4473C121.342 60.1496 121 59.9223 120.62 59.7847C120.375 59.712 120.112 59.7271 119.876 59.8275C119.641 59.9279 119.448 60.1072 119.33 60.3347C119.15 60.6747 119.22 60.9247 119.16 60.9447C119.1 60.9647 118.9 60.7347 119.01 60.2247C119.091 59.9217 119.271 59.6543 119.52 59.4647C119.873 59.2202 120.306 59.1201 120.73 59.1847C121.237 59.2997 121.706 59.5445 122.09 59.8951C122.474 60.2458 122.76 60.6901 122.92 61.1847C123.412 62.2723 123.628 63.4639 123.55 64.6547C123.4 67.1547 122.04 69.4447 120.24 69.9047C119.899 69.9969 119.542 70.0097 119.195 69.9421C118.848 69.8745 118.522 69.7283 118.24 69.5147C117.9 69.1847 117.85 68.9047 117.89 68.8847Z" fill="#383838"/>
<path d="M57.5703 55.9444C57.562 56.6185 57.818 57.269 58.2833 57.7568C58.7487 58.2446 59.3865 58.5309 60.0603 58.5544C60.3896 58.5816 60.721 58.5425 61.0349 58.4393C61.3488 58.3361 61.6388 58.171 61.8878 57.9538C62.1368 57.7365 62.3396 57.4715 62.4843 57.1744C62.629 56.8774 62.7127 56.5543 62.7303 56.2244C62.736 55.551 62.4792 54.9018 62.0143 54.4146C61.5495 53.9274 60.9131 53.6403 60.2402 53.6144C59.9109 53.5871 59.5795 53.6263 59.2656 53.7294C58.9517 53.8326 58.6617 53.9977 58.4127 54.2149C58.1637 54.4322 57.9609 54.6972 57.8162 54.9943C57.6715 55.2913 57.5879 55.6144 57.5703 55.9444Z" fill="#383838"/>
<path d="M54.4284 52.3846C54.7484 52.7246 56.6984 51.2746 59.4884 51.2846C62.2784 51.2946 64.3084 52.6846 64.6084 52.3446C64.7584 52.1946 64.4284 51.5846 63.5384 50.9346C62.3343 50.102 60.9023 49.6619 59.4384 49.6746C58.0011 49.6736 56.6005 50.1288 55.4384 50.9746C54.5584 51.6246 54.2684 52.2346 54.4284 52.3846Z" fill="#383838"/>
<path d="M84.2811 56.5547C84.2754 57.2281 84.5322 57.8772 84.997 58.3645C85.4619 58.8517 86.0982 59.1387 86.7711 59.1647C87.1001 59.1905 87.431 59.1504 87.7443 59.0467C88.0577 58.9431 88.3471 58.7779 88.5958 58.5609C88.8445 58.3439 89.0473 58.0794 89.1925 57.783C89.3376 57.4866 89.4222 57.1642 89.4411 56.8347C89.4494 56.1606 89.1934 55.51 88.728 55.0222C88.2627 54.5344 87.6249 54.2482 86.9511 54.2247C86.6218 54.1975 86.2904 54.2366 85.9765 54.3398C85.6626 54.4429 85.3725 54.608 85.1236 54.8253C84.8746 55.0426 84.6717 55.3075 84.527 55.6046C84.3823 55.9017 84.2987 56.2247 84.2811 56.5547Z" fill="#383838"/>
<path d="M81.7721 52.9046C82.0921 53.2446 84.0521 51.7946 86.8321 51.8046C89.6121 51.8146 91.6521 53.2046 91.9521 52.8646C92.1021 52.7146 91.7821 52.1045 90.8921 51.4545C89.6874 50.6231 88.2558 50.1831 86.7921 50.1946C85.3544 50.1915 83.9532 50.6469 82.7921 51.4946C81.9021 52.1446 81.6121 52.7546 81.7721 52.9046Z" fill="#383838"/>
<path d="M71.6684 73.5347C71.6684 73.3747 69.9584 73.0847 67.1584 72.7247C66.4484 72.6447 65.7684 72.5047 65.6484 72.0247C65.5927 71.2891 65.76 70.5538 66.1284 69.9147C66.7984 68.1947 67.4884 66.3947 68.2284 64.5047C71.1484 56.8047 73.2284 50.5047 72.9484 50.3647C72.6684 50.2247 70.0184 56.3646 67.0984 64.0946L65.0984 69.5347C64.6522 70.3926 64.5213 71.38 64.7284 72.3247C64.8356 72.5687 64.9964 72.7853 65.199 72.9585C65.4016 73.1316 65.6407 73.2568 65.8984 73.3247C66.2893 73.4332 66.6927 73.4904 67.0984 73.4947C69.9084 73.6847 71.6584 73.6947 71.6684 73.5347Z" fill="#383838"/>
<path d="M81.0498 42.0043C81.3298 42.7643 84.0998 42.4044 87.3698 42.7944C90.6398 43.1844 93.2698 44.0844 93.6998 43.4044C93.8998 43.0744 93.4398 42.4043 92.3698 41.6343C90.9485 40.7383 89.342 40.1773 87.6719 39.9936C86.0018 39.81 84.3118 40.0086 82.7298 40.5743C81.5398 41.0543 80.9298 41.6443 81.0498 42.0043Z" fill="#383838"/>
<path d="M55.4487 44.3345C55.9387 44.9745 57.8487 44.3345 60.1587 44.2845C62.4687 44.2345 64.4087 44.7045 64.8587 44.0445C65.0587 43.7245 64.7487 43.0445 63.8587 42.4945C62.7182 41.7686 61.3786 41.4188 60.0287 41.4945C58.674 41.5175 57.36 41.9613 56.2687 42.7645C55.4987 43.3345 55.2287 44.0345 55.4487 44.3345Z" fill="#383838"/>
<path d="M42.1813 15.4944C42.0501 14.3669 42.2081 13.2245 42.6402 12.1749C43.0723 11.1253 43.7643 10.2028 44.6513 9.49439C45.5619 8.82746 46.6806 8.50737 47.8061 8.59169C48.9317 8.67602 49.9902 9.15922 50.7913 9.95438C50.6206 9.19819 50.6108 8.41458 50.7625 7.65436C50.9142 6.89414 51.2241 6.17432 51.672 5.5416C52.1199 4.90888 52.6958 4.3774 53.3624 3.98165C54.029 3.58589 54.7713 3.3347 55.5413 3.24439C58.5413 3.06439 61.0113 5.29439 63.8713 6.07439C66.7313 6.85439 69.6413 6.17439 72.3213 5.07439C75.0013 3.97439 77.5013 2.50438 80.2113 1.51438C85.9431 -0.575824 92.2682 -0.31987 97.8124 2.22661C103.357 4.77309 107.672 9.4044 109.821 15.1144C113.821 13.8744 118.281 15.8844 120.721 19.2344C123.161 22.5844 123.791 26.9944 123.301 31.1144C122.923 33.9235 122.228 36.681 121.231 39.3344C121.231 39.5644 121.231 39.7944 121.231 40.0344C121.041 49.9844 119.921 61.6744 115.671 61.7344C108.271 61.8544 110.031 47.9044 110.031 47.9044C100.951 44.3944 104.331 30.7844 102.031 28.7244C99.7313 26.6644 95.0313 21.8644 76.0313 31.5844C68.6513 35.3544 58.8313 35.2344 53.4713 34.0244L52.9913 33.9244H52.8813C52.8331 33.9001 52.7829 33.88 52.7313 33.8644C51.0081 33.4287 49.3622 32.7306 47.8513 31.7944C46.0778 30.7661 44.6771 29.2007 43.8513 27.3244C43.4501 26.3841 43.331 25.3475 43.5085 24.3407C43.6861 23.334 44.1526 22.4007 44.8513 21.6544C43.3725 19.9098 42.4434 17.7663 42.1813 15.4944Z" fill="#383838"/>
<path d="M69.3116 82.0946C69.6996 83.2192 70.245 84.2831 70.9316 85.2547C71.2794 85.7411 71.7269 86.1479 72.2441 86.4479C72.7614 86.7479 73.3367 86.9343 73.9316 86.9947C74.5669 86.9969 75.1924 86.8385 75.7501 86.5343C76.3078 86.2302 76.7796 85.79 77.1216 85.2547C77.7972 84.1703 78.109 82.8985 78.0116 81.6246C77.9616 80.4846 77.4316 79.1246 76.3016 78.9846C75.8226 78.9677 75.3474 79.0745 74.9216 79.2947L68.9216 81.7147" fill="#E38D74"/>
<path d="M71.6997 87.0047C72.7749 87.0812 73.8548 86.9488 74.8797 86.6147C75.9246 86.2054 76.7825 85.4259 77.2897 84.4247C77.5752 83.8165 77.7299 83.155 77.7437 82.4832C77.7575 81.8114 77.63 81.1442 77.3696 80.5247C77.2324 80.2053 77.0579 79.9032 76.8497 79.6247C76.6097 79.3847 76.6496 79.3947 76.3996 79.4247C76.1496 79.4547 75.7596 79.6847 75.3996 79.8047L74.3996 80.2047C73.1196 80.7247 71.9596 81.2047 70.9896 81.5347C68.9896 82.2647 67.7896 82.6547 67.7396 82.5347C67.6896 82.4147 68.8097 81.7747 70.6897 80.8647C71.6297 80.4147 72.7597 79.8647 74.0097 79.3247L75.0097 78.8847C75.365 78.7161 75.7288 78.5659 76.0997 78.4347C76.3889 78.3408 76.7004 78.3408 76.9896 78.4347C77.2492 78.5508 77.476 78.7295 77.6496 78.9547C78.2916 79.7884 78.6785 80.79 78.7637 81.8387C78.8489 82.8875 78.6287 83.9384 78.1297 84.8647C77.4933 86.0463 76.4145 86.9273 75.1297 87.3147C74.2948 87.5826 73.4027 87.6172 72.5497 87.4147C71.9497 87.2647 71.6697 87.0647 71.6997 87.0047Z" fill="#383838"/>
<path d="M102.68 26.9848C102.755 26.2567 102.755 25.5228 102.68 24.7948C102.364 22.8211 101.362 21.0222 99.8502 19.7148C97.5845 17.7963 94.6628 16.8319 91.7002 17.0248C88.3502 17.0248 84.7902 18.1448 81.1102 19.3848C79.3113 20.0059 77.4823 20.5366 75.6302 20.9748C73.8912 21.3568 72.12 21.5744 70.3402 21.6248C67.3234 21.7009 64.3134 21.3027 61.4202 20.4448C59.4788 19.8665 57.6074 19.075 55.8402 18.0848C55.3581 17.8204 54.8907 17.53 54.4402 17.2148C54.2758 17.1173 54.1216 17.0034 53.9802 16.8748C53.9802 16.8748 54.6702 17.2548 55.9802 17.8748C57.7675 18.783 59.6399 19.5132 61.5702 20.0548C66.1334 21.3389 70.9441 21.4695 75.5702 20.4348C77.3402 20.0348 79.1502 19.4348 81.0002 18.8548C84.6702 17.6148 88.3002 16.5048 91.7502 16.4948C94.8198 16.3461 97.8263 17.4009 100.13 19.4348C101.67 20.8217 102.657 22.718 102.91 24.7748C102.999 25.5194 102.92 26.2743 102.68 26.9848Z" fill="#007A87"/>
<path d="M116.759 57.5744C116.759 57.5744 116.659 57.4543 116.519 57.1943C116.309 56.8228 116.122 56.4387 115.958 56.0444C115.323 54.5979 114.837 53.09 114.509 51.5444C114.023 49.2448 113.868 46.8877 114.049 44.5444C114.388 41.7069 114.926 38.8967 115.659 36.1344C116.374 33.4072 116.374 30.5415 115.659 27.8143C115.313 26.6509 114.72 25.5761 113.919 24.6644C113.208 23.8859 112.315 23.298 111.319 22.9543C109.872 22.4196 108.274 22.4625 106.859 23.0744C106.36 23.3557 105.894 23.691 105.469 24.0744C105.791 23.5823 106.235 23.1826 106.759 22.9144C107.48 22.5559 108.266 22.3464 109.07 22.2983C109.874 22.2502 110.68 22.3645 111.439 22.6344C112.51 22.9711 113.478 23.5771 114.249 24.3943C115.107 25.3453 115.748 26.4713 116.129 27.6943C116.88 30.505 116.88 33.4637 116.129 36.2744C115.401 39.0158 114.854 41.8017 114.488 44.6143C114.29 46.9158 114.404 49.2336 114.829 51.5043C115.121 53.0349 115.546 54.5371 116.099 55.9944C116.539 57.0043 116.799 57.5544 116.759 57.5744Z" fill="#007A87"/>
<path d="M104.421 25.5246C104.398 25.2817 104.398 25.0374 104.421 24.7946C104.421 24.2646 104.421 23.5845 104.491 22.7245C104.613 20.1898 104.333 17.6516 103.661 15.2045C103.16 13.5379 102.338 11.9855 101.241 10.6346C100.004 9.0809 98.3054 7.96034 96.3905 7.43456C94.2463 6.9385 92.0081 7.0283 89.9105 7.69455C87.6412 8.41312 85.4658 9.40011 83.4305 10.6346C81.3673 11.8779 79.2224 12.9805 77.0105 13.9346C74.8982 14.7601 72.6578 15.2102 70.3905 15.2645C68.342 15.3139 66.2972 15.0647 64.3205 14.5246C62.6137 14.0451 60.9666 13.3741 59.4105 12.5246C57.1639 11.2481 55.1844 9.55046 53.5805 7.52455C53.1445 6.98172 52.75 6.40675 52.4005 5.80455C52.2684 5.60002 52.1515 5.38612 52.0505 5.16455C52.2189 5.34046 52.3665 5.53506 52.4905 5.74455C52.8742 6.31879 53.2916 6.86975 53.7405 7.39455C55.3837 9.32754 57.3663 10.9441 59.5905 12.1646C61.1319 12.9829 62.7583 13.6301 64.4405 14.0945C66.3738 14.6075 68.3713 14.8365 70.3705 14.7746C72.5774 14.7103 74.7563 14.2636 76.8105 13.4545C79.0006 12.4991 81.1253 11.4 83.1705 10.1646C85.2406 8.90037 87.4569 7.89296 89.7705 7.16455C91.9546 6.47906 94.2832 6.39614 96.5105 6.92455C98.5206 7.48661 100.298 8.67827 101.581 10.3246C102.699 11.7278 103.528 13.3388 104.021 15.0645C104.67 17.5524 104.9 20.1311 104.701 22.6945C104.651 23.6045 104.581 24.3046 104.521 24.7746C104.516 25.0276 104.483 25.2792 104.421 25.5246Z" fill="#007A87"/>
</svg>