<svg width="33" height="32" viewBox="0 0 33 32" fill="none" xmlns="http://www.w3.org/2000/svg">
<g clip-path="url(#clip0)">
<path d="M17.8048 26.8672C21.2077 26.744 24.4085 25.3495 26.8178 22.9403C29.3557 20.4023 30.7535 17.0278 30.7535 13.4386C30.7535 9.84935 29.3557 6.47491 26.8178 3.93691C24.4086 1.52772 21.2077 0.133157 17.8048 0.0100318C14.42 -0.113468 11.1442 1.02978 8.58138 3.22653C8.28532 3.48034 8.10695 3.84953 8.09201 4.23953C8.07701 4.62997 8.22682 5.01228 8.50301 5.28853C9.01882 5.80441 9.85926 5.83491 10.4163 5.35816C12.2709 3.77084 14.5476 2.93684 16.8473 2.83922V3.76309C14.1146 3.89328 11.5869 5.15803 9.83707 7.28235H7.78488C6.8372 7.28235 6.06613 8.05341 6.06613 9.00109V9.18859H3.28488C2.50951 9.18859 1.87863 9.81947 1.87863 10.5948V11.9698C1.87863 12.8673 2.38594 13.6482 3.12863 14.0418V15.7094C3.12863 15.9683 3.33844 16.1782 3.59738 16.1782C3.85632 16.1782 4.06613 15.9683 4.06613 15.7094V14.3078C4.11782 14.3113 4.16982 14.3137 4.22238 14.3137H5.00363V15.4074C5.00363 15.8382 5.35407 16.1887 5.78488 16.1887H7.34738C7.7782 16.1887 8.12863 15.8382 8.12863 15.4074V14.3137H10.7536V15.4074C10.7536 15.8382 11.1041 16.1887 11.5349 16.1887H13.0974C13.5282 16.1887 13.8786 15.8382 13.8786 15.4074V14.3137H14.6599C14.7124 14.3137 14.7644 14.3113 14.8161 14.3078V18.1886C14.8161 18.4471 14.6059 18.6573 14.3474 18.6573H4.53488C4.27638 18.6573 4.06613 18.4471 4.06613 18.1886V17.8969C4.06613 17.638 3.85632 17.4282 3.59738 17.4282C3.33844 17.4282 3.12863 17.638 3.12863 17.8969V18.1886C3.12863 18.964 3.75951 19.5948 4.53488 19.5948H9.83638C9.83801 19.5968 9.83932 19.599 9.84095 19.601C11.5898 21.7202 14.1225 22.9837 16.8473 23.1142V24.038C14.5476 23.9403 12.2709 23.1064 10.4163 21.5192C9.8592 21.0425 9.01888 21.073 8.50301 21.5888C8.22682 21.8651 8.07701 22.2474 8.09201 22.6378C8.10695 23.0278 8.28532 23.397 8.58138 23.6508C10.9018 25.6397 13.8063 26.7633 16.8473 26.8674V27.5635H16.4723C15.8693 27.5635 15.3786 28.0542 15.3786 28.6572V29.1885H13.7848C13.0094 29.1885 12.3786 29.8193 12.3786 30.5947C12.3786 31.3701 13.0094 32.001 13.7848 32.001H17.8161C18.075 32.001 18.2848 31.7912 18.2848 31.5322C18.2848 31.2733 18.075 31.0635 17.8161 31.0635H13.7848C13.5263 31.0635 13.3161 30.8532 13.3161 30.5947C13.3161 30.3362 13.5263 30.126 13.7848 30.126H20.8473C21.1058 30.126 21.3161 30.3362 21.3161 30.5947C21.3161 30.8532 21.1058 31.0635 20.8473 31.0635H20.0036C19.7446 31.0635 19.5348 31.2733 19.5348 31.5322C19.5348 31.7912 19.7446 32.001 20.0036 32.001H20.8473C21.6227 32.001 22.2536 31.3701 22.2536 30.5947C22.2536 29.8193 21.6227 29.1885 20.8473 29.1885H19.2536V28.6572C19.2536 28.0542 18.7629 27.5635 18.1598 27.5635H17.7848V26.8677C17.7915 26.8675 17.7981 26.8674 17.8048 26.8672ZM18.3161 28.6572V29.1885H16.3161V28.6572C16.3161 28.571 16.3861 28.501 16.4723 28.501H18.1598C18.246 28.501 18.3161 28.571 18.3161 28.6572ZM27.0035 13.4386C27.0035 8.2541 22.9096 4.00809 17.7848 3.76266V2.84003C20.3588 2.95459 22.8936 3.99016 24.829 5.92566C28.9716 10.0683 28.9716 16.809 24.829 20.9515C22.8936 22.8869 20.3588 23.9225 17.7848 24.037V23.1145C22.9096 22.8691 27.0035 18.623 27.0035 13.4386ZM21.4098 10.5011H20.0941C20.0367 10.5011 19.9841 10.4698 19.9568 10.4194L18.7606 8.21666C18.7236 8.14878 18.7466 8.09072 18.7636 8.06222C18.7806 8.03372 18.8206 7.98585 18.8978 7.98585H20.7693C21.0761 7.98585 21.3706 7.85585 21.5773 7.62935L22.6211 6.48535C24.4557 7.88847 25.7209 9.99966 26.0049 12.4073H24.5347C23.9316 12.4073 23.4409 12.898 23.4409 13.501V14.4248C23.4409 14.4799 23.4114 14.5315 23.3639 14.5594L21.8553 15.4469C21.5226 15.6425 21.3159 16.0037 21.3159 16.3897V18.5322C21.3159 18.6184 21.2459 18.6885 21.1597 18.6885H20.7909C20.7453 18.6885 20.702 18.6686 20.6723 18.6339L18.6661 16.2933C18.6419 16.265 18.6285 16.229 18.6285 16.1917V13.501C18.6285 13.4148 18.6986 13.3447 18.7848 13.3447H21.4098C22.0128 13.3447 22.5035 12.854 22.5035 12.251V11.5947C22.5035 10.9918 22.0129 10.5011 21.4098 10.5011ZM7.00363 9.00109C7.00363 8.57028 7.35407 8.21984 7.78488 8.21984H11.0974C11.5282 8.21984 11.8786 8.57028 11.8786 9.00109V9.18859H7.00363V9.00109ZM7.19113 15.2511H5.94113V14.3136H7.19113V15.2511ZM12.9411 15.2511H11.6911V14.3136H12.9411V15.2511ZM4.22238 13.3761C3.44701 13.3761 2.81613 12.7452 2.81613 11.9698V10.5948C2.81613 10.3363 3.02638 10.1261 3.28488 10.1261H15.5973C15.8558 10.1261 16.0661 10.3363 16.0661 10.5948V11.9698C16.0661 12.7452 15.4352 13.3761 14.6598 13.3761H4.22238ZM14.3473 19.5948C15.1227 19.5948 15.7536 18.9639 15.7536 18.1885V14.0418C16.4963 13.6482 17.0036 12.8673 17.0036 11.9698V10.5948C17.0036 9.81947 16.3727 9.18859 15.5973 9.18859H12.8161V9.00109C12.8161 8.05372 12.0455 7.28285 11.0982 7.28241C12.7363 5.62441 14.9561 4.68866 17.316 4.68866C18.9703 4.68866 20.5187 5.15022 21.8395 5.95116L20.8847 6.9976C20.8552 7.02991 20.8131 7.04841 20.7693 7.04841H18.8978C18.5084 7.04841 18.1569 7.24822 17.9578 7.58303C17.7587 7.91772 17.7508 8.32191 17.9367 8.66416L19.1329 10.8668C19.3243 11.2195 19.6926 11.4386 20.0941 11.4386H21.4098C21.4959 11.4386 21.566 11.5087 21.566 11.5948V12.2511C21.566 12.3373 21.4959 12.4073 21.4098 12.4073H18.7848C18.1817 12.4073 17.691 12.898 17.691 13.5011V16.1918C17.691 16.4527 17.7845 16.7055 17.9543 16.9036L19.9604 19.2441C20.1684 19.4869 20.4712 19.6261 20.7909 19.6261H21.1597C21.7628 19.6261 22.2534 19.1354 22.2534 18.5323V16.3898C22.2534 16.3347 22.2829 16.2832 22.3305 16.2552L23.8391 15.3677C24.1718 15.1721 24.3784 14.8109 24.3784 14.4249V13.5012C24.3784 13.415 24.4485 13.3449 24.5347 13.3449H26.0648C26.0651 13.3762 26.0659 13.4073 26.0659 13.4387C26.0659 18.2634 22.1408 22.1886 17.316 22.1886C14.9619 22.1886 12.7374 21.2518 11.0985 19.5948H14.3473V19.5948ZM17.3061 25.0004C17.3094 25.0005 17.3127 25.0009 17.3161 25.0009C17.3197 25.0009 17.3233 25.0005 17.3268 25.0003C17.4646 25.0002 17.6024 24.9983 17.7407 24.9933C20.6673 24.8864 23.4201 23.6865 25.492 21.6145C30.0001 17.1063 30.0001 9.77091 25.492 5.26272C23.4201 3.19078 20.6673 1.99084 17.7407 1.88397C14.8303 1.77697 12.012 2.75847 9.8067 4.64591C9.61613 4.80903 9.34057 4.80035 9.16595 4.6256C8.97445 4.38891 8.98295 4.15978 9.19145 3.93834C14.1138 -0.280718 21.565 0.00990677 26.1548 4.59984C31.0286 9.47353 31.0286 17.4037 26.1548 22.2773C21.5649 26.8672 14.1138 27.1579 9.19157 22.9389C8.98426 22.7612 8.97326 22.4443 9.16595 22.2517C9.37651 22.0759 9.59013 22.0692 9.80676 22.2313C11.902 24.0246 14.5517 24.9992 17.3061 25.0004Z" fill="black"/>
</g>
<defs>
<clipPath id="clip0">
<rect width="32" height="32" fill="black" transform="translate(0.316406 0.000976562)"/>
</clipPath>
</defs>
</svg>
