<svg width="120" height="42" viewBox="0 0 120 42" fill="none" xmlns="http://www.w3.org/2000/svg">
<path d="M1.83492 17.714C-0.489068 22.2087 -0.540145 28.0059 2.29461 32.2453C4.03121 34.8502 6.76381 36.9188 9.72626 37.9914C11.8204 38.7575 14.0167 39.2172 16.213 39.6003C22.572 40.724 29.0588 41.1581 35.4944 41.439C43.3602 41.771 51.2771 41.7966 59.1429 41.5923C67.0342 41.388 74.9256 40.9538 82.7914 40.1877C89.0738 39.5748 95.4073 38.7831 101.588 37.3018C104.244 36.6634 106.874 35.8462 109.326 34.5692C113.029 32.6283 116.374 29.6148 118.213 25.8351C119.056 24.0985 119.49 22.2087 119.413 20.2678C119.311 18.2247 118.571 16.3094 117.421 14.6494C115.072 11.2272 111.164 8.97987 107.487 7.19218C100.285 3.71897 92.2916 1.98237 84.4003 1.06299C75.5896 0.0414575 66.7022 0.0414559 57.866 0.654375C49.6937 1.21622 41.547 2.36544 33.528 4.10205C30.208 4.81712 26.9391 5.65988 23.6957 6.68142C21.0908 7.49864 18.5114 8.41802 16.0342 9.59278C12.2035 11.4315 8.44934 13.9854 5.92105 17.4586C4.00567 20.089 2.85645 23.409 3.90352 26.6268C5.23151 30.6619 9.18995 33.2157 12.8419 34.9012C15.8554 36.2803 19.0477 37.2252 22.2656 37.9914C26.5815 38.9874 30.9741 39.6258 35.3667 40.0344C41.1894 40.5963 47.0377 40.7495 52.886 40.8006C58.7598 40.8517 64.6081 40.8772 70.4819 40.9027C78.6542 40.9283 86.8264 40.9028 94.9987 40.7495C99.2891 40.6729 103.605 40.5708 107.896 40.3664C109.607 40.2898 111.318 40.2132 113.003 40.0344C113.131 40.0089 113.284 40.0089 113.412 39.9834C113.948 39.9068 114.97 39.6514 115.097 39.0129C115.225 38.3745 114.178 38.3745 113.846 38.4511C113.182 38.5532 112.492 38.5788 111.828 38.6298C111.726 38.6298 111.624 38.6298 111.547 38.6554C112.211 38.6043 111.701 38.6554 111.547 38.6554C111.318 38.6809 111.062 38.6809 110.832 38.7065C110.245 38.732 109.632 38.7831 109.045 38.8086C107.334 38.8852 105.623 38.9618 103.912 39.0129C97.9611 39.1917 92.0107 39.2683 86.0858 39.2938C75.8449 39.3704 65.6296 39.3194 55.3887 39.2428C45.2756 39.1661 35.0603 38.8597 25.1514 36.6889C21.908 35.9739 18.9456 35.1566 15.881 33.8031C13.6081 32.8071 11.7693 31.7856 9.98164 30.2022C9.2921 29.5893 8.65365 28.8997 8.11734 28.1591C7.98965 27.9804 7.8875 27.8271 7.75981 27.6484C7.63211 27.4696 7.81088 27.725 7.68319 27.5462C7.63211 27.4441 7.5555 27.3164 7.50442 27.2142C7.32565 26.8822 7.17242 26.5247 7.04473 26.1671C6.78935 25.4776 6.61058 24.737 6.5595 23.9709C6.53397 23.7921 6.53397 23.6133 6.53397 23.4345C6.53397 23.3835 6.53397 23.3579 6.53397 23.3069C6.53397 23.2047 6.53397 23.5112 6.53397 23.3324C6.53397 23.2302 6.53397 23.1281 6.5595 23.0259C6.58504 22.6684 6.63612 22.2853 6.71274 21.9278C6.86597 21.1616 7.12135 20.4466 7.42781 19.7315C7.45335 19.6549 7.50442 19.5783 7.52996 19.5016C7.5555 19.4506 7.73427 19.1186 7.58104 19.374C7.68319 19.1952 7.75981 19.0164 7.86196 18.8377C8.06627 18.4546 8.32165 18.097 8.55149 17.7395C8.80688 17.382 9.06226 17.05 9.34318 16.718C9.49641 16.5392 9.6241 16.386 9.77733 16.2072C9.85395 16.1306 9.93056 16.0284 10.0072 15.9518C10.0327 15.9263 10.0838 15.8752 10.1093 15.8497C10.3136 15.6198 9.98164 15.9774 10.1349 15.8241C10.8244 15.1346 11.5395 14.4961 12.2801 13.8832C12.6632 13.5768 13.0718 13.2703 13.4804 12.9894C13.5315 12.9383 13.5825 12.9128 13.6592 12.8617C13.3272 13.0915 13.557 12.9383 13.6081 12.8872C13.7102 12.8106 13.8124 12.7595 13.889 12.6829C14.1188 12.5297 14.3742 12.3765 14.6041 12.2232C15.0638 11.9423 15.4979 11.6614 15.9831 11.406C16.213 11.2783 16.4173 11.1506 16.6471 11.0485C16.7493 10.9974 16.8514 10.9463 16.9536 10.8952C17.0047 10.8697 17.0813 10.8442 17.1324 10.7931C17.4644 10.6143 16.877 10.8952 17.1068 10.7931C18.1794 10.2823 19.2776 9.82263 20.3757 9.38848C20.9886 9.15863 21.6016 8.92879 22.2145 8.69894C22.3677 8.64787 22.4954 8.59679 22.6486 8.54571C22.7253 8.52018 22.8274 8.49464 22.904 8.44356C22.4699 8.59679 22.7763 8.49464 22.8785 8.44356C23.236 8.31587 23.5936 8.21372 23.9511 8.08602C27.0668 7.09003 30.2591 6.2728 33.4513 5.55773C33.8855 5.45558 34.3196 5.37896 34.7538 5.27681C34.9836 5.22573 35.239 5.17466 35.4689 5.12358C35.5455 5.09804 35.6221 5.09804 35.6987 5.0725C35.7753 5.04697 35.8519 5.04697 35.9286 5.02143C35.7243 5.0725 35.7243 5.0725 35.903 5.02143C36.8224 4.84266 37.7162 4.66389 38.6356 4.51066C40.5765 4.15313 42.5174 3.84667 44.4584 3.56574C48.57 2.97836 52.7072 2.51867 56.87 2.21221C57.1509 2.18668 57.4318 2.16114 57.7127 2.16114C57.5084 2.18668 58.0958 2.1356 58.198 2.1356C58.7598 2.11006 59.3472 2.05898 59.909 2.03345C60.9561 1.98237 62.0032 1.93129 63.0758 1.90575C65.2465 1.82914 67.3918 1.8036 69.5625 1.82914C77.888 1.90575 86.0603 2.62082 94.1814 4.66389C97.7568 5.55773 101.307 6.75803 104.703 8.34141C108.253 10.0269 111.982 12.1466 114.382 15.3389C115.583 16.9223 116.323 18.8121 116.476 20.8041C116.604 22.6173 116.144 24.4561 115.353 26.1161C114.561 27.8016 113.361 29.3339 112.033 30.5853C110.551 31.9899 108.917 33.1136 107.232 33.9563C107.002 34.0585 106.414 34.3394 106.031 34.4926C105.776 34.5948 105.52 34.6969 105.265 34.7736C105.163 34.7991 105.061 34.8502 104.959 34.8757C104.908 34.9012 104.831 34.9268 104.78 34.9268C104.524 35.0289 105.188 34.7991 104.908 34.8757C104.678 34.9523 104.422 35.0289 104.192 35.1056C103.094 35.4375 101.996 35.744 100.872 35.9994C100.234 36.1526 99.5956 36.2803 98.9316 36.4335C98.8549 36.4591 98.7783 36.4591 98.7017 36.4846C98.4974 36.5357 99.1103 36.408 98.8039 36.4591C98.6251 36.4846 98.4463 36.5357 98.2676 36.5612C97.9356 36.6378 97.6036 36.6889 97.2716 36.74C95.7904 37.0209 94.3347 37.2508 92.8534 37.4551C89.5079 37.9403 86.1369 38.3234 82.7658 38.6554C80.9271 38.8341 79.0883 38.9874 77.2495 39.1151C76.7899 39.1406 76.3302 39.1917 75.8705 39.2172C75.6662 39.2428 75.4363 39.2428 75.232 39.2683C75.1043 39.2683 74.9766 39.2938 74.8489 39.2938C74.6702 39.2938 74.6702 39.2938 74.8489 39.2938C74.7723 39.2938 74.6702 39.2938 74.5936 39.3194C73.6486 39.3704 72.7037 39.4471 71.7588 39.4981C63.8419 39.9578 55.9251 40.1621 47.9826 40.1111C44.203 40.0855 40.4233 40.0089 36.6436 39.8301C34.8815 39.7535 33.1193 39.6514 31.3572 39.5492C30.54 39.4981 29.7228 39.4471 28.9055 39.3704C28.7012 39.3449 28.4969 39.3449 28.2926 39.3194C28.1905 39.3194 28.1138 39.2938 28.0117 39.2938C27.6541 39.2683 28.2671 39.3194 27.9095 39.2938C27.4754 39.2683 27.0668 39.2172 26.6326 39.1661C23.7979 38.9108 20.9886 38.5532 18.1794 38.068C17.0302 37.8637 15.881 37.6338 14.7318 37.3529C14.5019 37.3018 14.2465 37.2252 14.0167 37.1742C13.889 37.1486 13.7613 37.0975 13.6336 37.072C13.5825 37.072 13.557 37.0465 13.5059 37.0465C13.3272 36.9954 13.7613 37.1231 13.4548 37.0209C13.0207 36.8932 12.5865 36.7655 12.1779 36.6123C9.34318 35.5908 6.81489 33.6243 5.1549 31.1216C3.34168 28.4145 2.88199 25.0435 3.41829 21.8767C3.59706 20.8296 3.87798 19.7826 4.26106 18.7866C4.36321 18.4801 4.4909 18.1737 4.64413 17.8672C4.69521 17.7395 4.92505 17.3054 4.69521 17.714C5.20598 16.5392 2.26907 16.8967 1.83492 17.714Z" fill="#8CE071"/>
</svg>
