<svg width="417" height="604" viewBox="0 0 417 604" fill="none" xmlns="http://www.w3.org/2000/svg">
<path d="M107 99.8V461H195.2V99.8H107ZM264.2 99.8V191.6L374 99.8H264.2ZM195.2 342.8L269 461H374L264.2 285.8L195.2 342.8Z" fill="#00D1C2"/>
<g filter="url(#filter0_d_2575_1293)">
<rect x="33" y="201" width="347" height="172" rx="5" fill="white"/>
<rect x="33.5" y="201.5" width="346" height="171" rx="4.5" stroke="#C4C4C4"/>
</g>
<path fill-rule="evenodd" clip-rule="evenodd" d="M23.0769 371.018C23.3072 371.625 23.0325 372.292 22.4634 372.507C17.7564 374.283 12.9758 375.817 8.21324 377.344C7.60706 377.539 7.00117 377.733 6.39576 377.928C5.81656 378.114 5.18204 377.765 4.97851 377.148C4.77498 376.531 5.07952 375.88 5.65871 375.694C6.26568 375.499 6.87206 375.304 7.4778 375.11C12.2462 373.58 16.9747 372.064 21.6295 370.306C22.1986 370.092 22.8466 370.41 23.0769 371.018Z" fill="#00D1C2"/>
<path fill-rule="evenodd" clip-rule="evenodd" d="M6.28549 393.931C5.90166 393.342 5.9788 392.565 6.45779 392.196C7.3617 391.498 8.2656 390.803 9.16877 390.108C14.4472 386.046 19.7009 382.003 24.7898 377.715C25.2541 377.323 25.9559 377.472 26.3574 378.047C26.7588 378.621 26.7078 379.404 26.2435 379.796C21.1196 384.113 15.8282 388.185 10.5511 392.246C9.6493 392.94 8.74787 393.633 7.84777 394.328C7.36878 394.697 6.66932 394.52 6.28549 393.931Z" fill="#00D1C2"/>
<path fill-rule="evenodd" clip-rule="evenodd" d="M23.8758 402.448C23.3429 402.092 23.1283 401.349 23.3965 400.788L32.1437 382.494C32.4119 381.933 33.0613 381.767 33.5943 382.123C34.1272 382.479 34.3418 383.222 34.0736 383.783L25.3264 402.077C25.0582 402.638 24.4088 402.804 23.8758 402.448Z" fill="#00D1C2"/>
<path fill-rule="evenodd" clip-rule="evenodd" d="M393.445 205.985C393.197 205.385 393.452 204.71 394.015 204.479C398.667 202.565 403.401 200.891 408.116 199.224C408.716 199.012 409.316 198.8 409.916 198.588C410.489 198.384 411.134 198.715 411.355 199.325C411.577 199.936 411.292 200.596 410.718 200.799C410.117 201.012 409.517 201.224 408.917 201.436C404.196 203.105 399.514 204.761 394.913 206.654C394.35 206.885 393.693 206.586 393.445 205.985Z" fill="#00D1C2"/>
<path fill-rule="evenodd" clip-rule="evenodd" d="M409.555 182.588C409.956 183.166 409.902 183.944 409.434 184.328C408.551 185.052 407.668 185.773 406.786 186.495C401.629 190.71 396.496 194.905 391.536 199.342C391.083 199.746 390.377 199.618 389.959 199.056C389.541 198.493 389.569 197.709 390.022 197.304C395.016 192.838 400.186 188.612 405.341 184.398C406.222 183.678 407.103 182.958 407.982 182.237C408.45 181.854 409.154 182.011 409.555 182.588Z" fill="#00D1C2"/>
<path fill-rule="evenodd" clip-rule="evenodd" d="M391.722 174.592C392.265 174.932 392.502 175.669 392.25 176.237L384.045 194.781C383.793 195.349 383.149 195.534 382.606 195.194C382.062 194.854 381.826 194.118 382.078 193.549L390.283 175.006C390.535 174.437 391.179 174.252 391.722 174.592Z" fill="#00D1C2"/>
<path d="M275.696 242V229.238H272.312L268.568 238.454L264.734 229.238H261.458V242H263.834V233.126L267.506 242H269.576L273.248 233.054V242H275.696ZM282.36 240.092C281.19 240.092 280.11 239.228 280.11 237.572C280.11 235.898 281.19 235.052 282.36 235.052C283.53 235.052 284.61 235.898 284.61 237.572C284.61 239.246 283.53 240.092 282.36 240.092ZM282.36 232.874C279.714 232.874 277.716 234.836 277.716 237.572C277.716 240.29 279.714 242.27 282.36 242.27C285.006 242.27 287.004 240.29 287.004 237.572C287.004 234.836 285.006 232.874 282.36 232.874ZM291.287 242V233.144H288.893V242H291.287ZM288.605 230.246C288.605 231.038 289.271 231.704 290.081 231.704C290.909 231.704 291.557 231.038 291.557 230.246C291.557 229.418 290.909 228.752 290.081 228.752C289.271 228.752 288.605 229.418 288.605 230.246ZM296.244 236.906C296.244 235.88 296.856 235.07 297.9 235.07C299.052 235.07 299.538 235.844 299.538 236.834V242H301.932V236.42C301.932 234.476 300.924 232.91 298.728 232.91C297.774 232.91 296.712 233.324 296.172 234.242V233.144H293.85V242H296.244V236.906ZM312.948 233.144H309.816L306.756 236.438V228.968H304.362V242H306.756V239.66L307.746 238.616L310.086 242H313.02L309.402 236.87L312.948 233.144Z" fill="black"/>
<path fill-rule="evenodd" clip-rule="evenodd" d="M260.635 247.402C261.219 247.641 261.913 247.872 262.676 248.089C265.775 248.97 269.908 249.599 271.98 249.653C286.893 250.044 301.756 248.509 316.638 245.824C311.084 245.824 305.53 245.832 299.976 245.864C287.804 246.284 274.11 246.816 263.986 247.208C262.876 247.251 261.808 247.293 260.79 247.332C260.738 247.355 260.687 247.379 260.635 247.402ZM331.295 242.527L331.294 242.528C331.301 242.52 331.303 242.52 331.295 242.527ZM258.923 248.427C258.919 248.436 258.916 248.44 258.916 248.44C258.916 248.44 258.918 248.435 258.923 248.427Z" fill="#00D1C2"/>
<path d="M223.844 273.638H222.752V272.182C221.847 272.089 221.133 271.776 220.61 271.244C220.087 270.703 219.784 270.091 219.7 269.41L221.03 268.99C221.077 269.475 221.245 269.9 221.534 270.264C221.823 270.628 222.229 270.857 222.752 270.95V268.024L222.402 267.954C221.674 267.805 221.105 267.511 220.694 267.072C220.283 266.633 220.078 266.078 220.078 265.406C220.078 264.734 220.325 264.146 220.82 263.642C221.324 263.138 221.968 262.839 222.752 262.746V261.276H223.844V262.76C224.619 262.863 225.211 263.133 225.622 263.572C226.042 264.001 226.322 264.491 226.462 265.042L225.202 265.504C225.155 265.196 225.015 264.897 224.782 264.608C224.549 264.319 224.236 264.118 223.844 264.006V266.876L224.054 266.918C224.819 267.067 225.426 267.38 225.874 267.856C226.322 268.332 226.546 268.887 226.546 269.522C226.546 270.185 226.308 270.768 225.832 271.272C225.356 271.776 224.693 272.079 223.844 272.182V273.638ZM225.174 269.592C225.174 269.284 225.062 269.009 224.838 268.766C224.614 268.523 224.283 268.351 223.844 268.248V270.95C224.283 270.866 224.614 270.703 224.838 270.46C225.062 270.217 225.174 269.928 225.174 269.592ZM221.464 265.35C221.464 266.031 221.893 266.456 222.752 266.624V263.964C222.351 264.039 222.033 264.202 221.8 264.454C221.576 264.706 221.464 265.005 221.464 265.35ZM233.881 262.928V264.244C233.648 264.431 233.419 264.631 233.195 264.846C232.971 265.061 232.673 265.406 232.299 265.882C231.935 266.358 231.613 266.862 231.333 267.394C231.053 267.926 230.787 268.603 230.535 269.424C230.293 270.236 230.129 271.095 230.045 272H228.631C228.687 271.281 228.799 270.586 228.967 269.914C229.135 269.233 229.331 268.64 229.555 268.136C229.779 267.632 230.017 267.161 230.269 266.722C230.531 266.274 230.783 265.901 231.025 265.602C231.277 265.294 231.501 265.033 231.697 264.818C231.903 264.603 232.066 264.445 232.187 264.342L232.369 264.188H227.259V262.928H233.881ZM237.107 267.786L236.435 266.652L239.109 264.188H234.769V262.928H240.929V264.16L238.339 266.554C239.076 266.554 239.725 266.797 240.285 267.282C240.854 267.767 241.139 268.444 241.139 269.312C241.139 270.115 240.845 270.801 240.257 271.37C239.669 271.939 238.866 272.224 237.849 272.224C236.85 272.224 236.048 271.949 235.441 271.398C234.844 270.838 234.522 270.161 234.475 269.368L235.819 269.06C235.847 269.648 236.048 270.124 236.421 270.488C236.804 270.843 237.275 271.02 237.835 271.02C238.432 271.02 238.899 270.861 239.235 270.544C239.58 270.217 239.753 269.816 239.753 269.34C239.753 268.789 239.571 268.369 239.207 268.08C238.843 267.791 238.409 267.646 237.905 267.646C237.634 267.646 237.368 267.693 237.107 267.786ZM247.617 272H246.315V265.266H247.575V266.162C247.781 265.807 248.07 265.537 248.443 265.35C248.817 265.163 249.209 265.07 249.619 265.07C250.058 265.07 250.459 265.177 250.823 265.392C251.187 265.607 251.458 265.924 251.635 266.344C252.102 265.495 252.853 265.07 253.889 265.07C254.533 265.07 255.079 265.289 255.527 265.728C255.985 266.167 256.213 266.801 256.213 267.632V272H254.911V267.772C254.911 267.305 254.79 266.932 254.547 266.652C254.314 266.372 253.959 266.232 253.483 266.232C253.026 266.232 252.653 266.395 252.363 266.722C252.074 267.039 251.929 267.441 251.929 267.926V272H250.613V267.772C250.613 267.305 250.492 266.932 250.249 266.652C250.016 266.372 249.661 266.232 249.185 266.232C248.719 266.232 248.341 266.391 248.051 266.708C247.762 267.025 247.617 267.436 247.617 267.94V272ZM263.107 274.072H261.959V261.01H263.107V274.072ZM271.755 272H270.411V265.602H268.213V264.636C268.829 264.627 269.347 264.468 269.767 264.16C270.187 263.843 270.449 263.432 270.551 262.928H271.755V272ZM275.723 264.524C275.191 265.084 274.925 266.064 274.925 267.464C274.925 268.864 275.191 269.844 275.723 270.404C276.097 270.796 276.577 270.992 277.165 270.992C277.753 270.992 278.234 270.796 278.607 270.404C279.139 269.844 279.405 268.864 279.405 267.464C279.405 266.064 279.139 265.084 278.607 264.524C278.234 264.132 277.753 263.936 277.165 263.936C276.577 263.936 276.097 264.132 275.723 264.524ZM274.379 270.754C273.838 269.951 273.567 268.855 273.567 267.464C273.567 266.073 273.838 264.977 274.379 264.174C275.023 263.203 275.952 262.718 277.165 262.718C278.379 262.718 279.307 263.203 279.951 264.174C280.493 264.977 280.763 266.073 280.763 267.464C280.763 268.855 280.493 269.951 279.951 270.754C279.307 271.725 278.379 272.21 277.165 272.21C275.952 272.21 275.023 271.725 274.379 270.754ZM284.254 264.524C283.722 265.084 283.456 266.064 283.456 267.464C283.456 268.864 283.722 269.844 284.254 270.404C284.628 270.796 285.108 270.992 285.696 270.992C286.284 270.992 286.765 270.796 287.138 270.404C287.67 269.844 287.936 268.864 287.936 267.464C287.936 266.064 287.67 265.084 287.138 264.524C286.765 264.132 286.284 263.936 285.696 263.936C285.108 263.936 284.628 264.132 284.254 264.524ZM282.91 270.754C282.369 269.951 282.098 268.855 282.098 267.464C282.098 266.073 282.369 264.977 282.91 264.174C283.554 263.203 284.483 262.718 285.696 262.718C286.91 262.718 287.838 263.203 288.482 264.174C289.024 264.977 289.294 266.073 289.294 267.464C289.294 268.855 289.024 269.951 288.482 270.754C287.838 271.725 286.91 272.21 285.696 272.21C284.483 272.21 283.554 271.725 282.91 270.754ZM295.472 267.94H299.154C299.135 267.436 298.967 267.025 298.65 266.708C298.333 266.381 297.885 266.218 297.306 266.218C296.783 266.218 296.354 266.391 296.018 266.736C295.682 267.072 295.5 267.473 295.472 267.94ZM299.35 269.69L300.484 270.082C300.288 270.707 299.924 271.221 299.392 271.622C298.86 272.014 298.216 272.21 297.46 272.21C296.517 272.21 295.715 271.888 295.052 271.244C294.399 270.591 294.072 269.713 294.072 268.612C294.072 267.585 294.389 266.736 295.024 266.064C295.659 265.392 296.415 265.056 297.292 265.056C298.309 265.056 299.103 265.378 299.672 266.022C300.241 266.657 300.526 267.511 300.526 268.584C300.526 268.752 300.517 268.892 300.498 269.004H295.43C295.439 269.601 295.635 270.091 296.018 270.474C296.41 270.857 296.891 271.048 297.46 271.048C298.421 271.048 299.051 270.595 299.35 269.69ZM303.508 272H302.206V265.266H303.466V266.162C303.671 265.807 303.961 265.537 304.334 265.35C304.707 265.163 305.099 265.07 305.51 265.07C305.949 265.07 306.35 265.177 306.714 265.392C307.078 265.607 307.349 265.924 307.526 266.344C307.993 265.495 308.744 265.07 309.78 265.07C310.424 265.07 310.97 265.289 311.418 265.728C311.875 266.167 312.104 266.801 312.104 267.632V272H310.802V267.772C310.802 267.305 310.681 266.932 310.438 266.652C310.205 266.372 309.85 266.232 309.374 266.232C308.917 266.232 308.543 266.395 308.254 266.722C307.965 267.039 307.82 267.441 307.82 267.926V272H306.504V267.772C306.504 267.305 306.383 266.932 306.14 266.652C305.907 266.372 305.552 266.232 305.076 266.232C304.609 266.232 304.231 266.391 303.942 266.708C303.653 267.025 303.508 267.436 303.508 267.94V272ZM315.512 274.66H314.21V265.266H315.484V266.316C315.68 265.961 315.974 265.672 316.366 265.448C316.758 265.224 317.215 265.112 317.738 265.112C318.709 265.112 319.465 265.443 320.006 266.106C320.557 266.769 320.832 267.609 320.832 268.626C320.832 269.653 320.547 270.502 319.978 271.174C319.418 271.846 318.657 272.182 317.696 272.182C317.201 272.182 316.763 272.079 316.38 271.874C315.997 271.669 315.708 271.407 315.512 271.09V274.66ZM319.488 268.626C319.488 267.945 319.306 267.385 318.942 266.946C318.587 266.498 318.107 266.274 317.5 266.274C316.903 266.274 316.417 266.498 316.044 266.946C315.68 267.385 315.498 267.945 315.498 268.626C315.498 269.326 315.68 269.9 316.044 270.348C316.417 270.787 316.903 271.006 317.5 271.006C318.097 271.006 318.578 270.787 318.942 270.348C319.306 269.9 319.488 269.326 319.488 268.626ZM323.825 272H322.509V261.864H323.825V272ZM327.449 270.404C327.86 270.824 328.359 271.034 328.947 271.034C329.535 271.034 330.03 270.824 330.431 270.404C330.842 269.975 331.047 269.382 331.047 268.626C331.047 267.879 330.842 267.296 330.431 266.876C330.03 266.447 329.535 266.232 328.947 266.232C328.359 266.232 327.86 266.447 327.449 266.876C327.048 267.296 326.847 267.879 326.847 268.626C326.847 269.382 327.048 269.975 327.449 270.404ZM326.469 266.078C327.123 265.397 327.949 265.056 328.947 265.056C329.946 265.056 330.767 265.397 331.411 266.078C332.065 266.75 332.391 267.599 332.391 268.626C332.391 269.662 332.069 270.521 331.425 271.202C330.781 271.874 329.955 272.21 328.947 272.21C327.939 272.21 327.113 271.874 326.469 271.202C325.825 270.521 325.503 269.662 325.503 268.626C325.503 267.599 325.825 266.75 326.469 266.078ZM335.482 274.814H334.04L335.72 271.258L332.822 265.266H334.334L336.434 269.914L338.45 265.266H339.864L335.482 274.814ZM341.71 267.94H345.392C345.374 267.436 345.206 267.025 344.888 266.708C344.571 266.381 344.123 266.218 343.544 266.218C343.022 266.218 342.592 266.391 342.256 266.736C341.92 267.072 341.738 267.473 341.71 267.94ZM345.588 269.69L346.722 270.082C346.526 270.707 346.162 271.221 345.63 271.622C345.098 272.014 344.454 272.21 343.698 272.21C342.756 272.21 341.953 271.888 341.29 271.244C340.637 270.591 340.31 269.713 340.31 268.612C340.31 267.585 340.628 266.736 341.262 266.064C341.897 265.392 342.653 265.056 343.53 265.056C344.548 265.056 345.341 265.378 345.91 266.022C346.48 266.657 346.764 267.511 346.764 268.584C346.764 268.752 346.755 268.892 346.736 269.004H341.668C341.678 269.601 341.874 270.091 342.256 270.474C342.648 270.857 343.129 271.048 343.698 271.048C344.66 271.048 345.29 270.595 345.588 269.69ZM349.298 267.94H352.98C352.962 267.436 352.794 267.025 352.476 266.708C352.159 266.381 351.711 266.218 351.132 266.218C350.61 266.218 350.18 266.391 349.844 266.736C349.508 267.072 349.326 267.473 349.298 267.94ZM353.176 269.69L354.31 270.082C354.114 270.707 353.75 271.221 353.218 271.622C352.686 272.014 352.042 272.21 351.286 272.21C350.344 272.21 349.541 271.888 348.878 271.244C348.225 270.591 347.898 269.713 347.898 268.612C347.898 267.585 348.216 266.736 348.85 266.064C349.485 265.392 350.241 265.056 351.118 265.056C352.136 265.056 352.929 265.378 353.498 266.022C354.068 266.657 354.352 267.511 354.352 268.584C354.352 268.752 354.343 268.892 354.324 269.004H349.256C349.266 269.601 349.462 270.091 349.844 270.474C350.236 270.857 350.717 271.048 351.286 271.048C352.248 271.048 352.878 270.595 353.176 269.69ZM355.402 270.25L356.592 269.83C356.639 270.194 356.797 270.497 357.068 270.74C357.339 270.973 357.703 271.09 358.16 271.09C358.515 271.09 358.795 271.006 359 270.838C359.205 270.661 359.308 270.446 359.308 270.194C359.308 269.746 359.019 269.457 358.44 269.326L357.292 269.074C356.769 268.962 356.359 268.738 356.06 268.402C355.761 268.066 355.612 267.66 355.612 267.184C355.612 266.605 355.845 266.106 356.312 265.686C356.788 265.266 357.353 265.056 358.006 265.056C358.435 265.056 358.818 265.121 359.154 265.252C359.49 265.373 359.751 265.537 359.938 265.742C360.125 265.947 360.265 266.139 360.358 266.316C360.451 266.493 360.521 266.675 360.568 266.862L359.406 267.296C359.387 267.184 359.355 267.077 359.308 266.974C359.261 266.862 359.187 266.741 359.084 266.61C358.991 266.479 358.851 266.377 358.664 266.302C358.477 266.218 358.258 266.176 358.006 266.176C357.679 266.176 357.409 266.265 357.194 266.442C356.989 266.619 356.886 266.829 356.886 267.072C356.886 267.501 357.143 267.772 357.656 267.884L358.748 268.122C359.345 268.253 359.803 268.495 360.12 268.85C360.447 269.195 360.61 269.62 360.61 270.124C360.61 270.656 360.391 271.137 359.952 271.566C359.523 271.995 358.921 272.21 358.146 272.21C357.315 272.21 356.667 272.005 356.2 271.594C355.733 271.174 355.467 270.726 355.402 270.25Z" fill="#747474"/>
<path d="M57.558 307.21C56.2047 307.21 55.0427 306.743 54.072 305.81C53.1107 304.877 52.63 303.617 52.63 302.03C52.63 300.966 52.8727 300.033 53.358 299.23C53.8433 298.427 54.4547 297.835 55.192 297.452C55.9293 297.06 56.718 296.864 57.558 296.864C58.678 296.864 59.6207 297.149 60.386 297.718C61.1607 298.278 61.674 299.043 61.926 300.014L60.652 300.462C60.4653 299.715 60.106 299.141 59.574 298.74C59.042 298.329 58.37 298.124 57.558 298.124C56.5873 298.124 55.7567 298.469 55.066 299.16C54.3753 299.841 54.03 300.798 54.03 302.03C54.03 303.262 54.3753 304.223 55.066 304.914C55.7567 305.605 56.5873 305.95 57.558 305.95C58.37 305.95 59.0467 305.735 59.588 305.306C60.1293 304.867 60.5073 304.289 60.722 303.57L61.94 304.018C61.6693 304.979 61.1467 305.754 60.372 306.342C59.6067 306.921 58.6687 307.21 57.558 307.21ZM64.7326 305.404C65.1432 305.824 65.6426 306.034 66.2306 306.034C66.8186 306.034 67.3132 305.824 67.7146 305.404C68.1252 304.975 68.3306 304.382 68.3306 303.626C68.3306 302.879 68.1252 302.296 67.7146 301.876C67.3132 301.447 66.8186 301.232 66.2306 301.232C65.6426 301.232 65.1432 301.447 64.7326 301.876C64.3312 302.296 64.1306 302.879 64.1306 303.626C64.1306 304.382 64.3312 304.975 64.7326 305.404ZM63.7526 301.078C64.4059 300.397 65.2319 300.056 66.2306 300.056C67.2292 300.056 68.0506 300.397 68.6946 301.078C69.3479 301.75 69.6746 302.599 69.6746 303.626C69.6746 304.662 69.3526 305.521 68.7086 306.202C68.0646 306.874 67.2386 307.21 66.2306 307.21C65.2226 307.21 64.3966 306.874 63.7526 306.202C63.1086 305.521 62.7866 304.662 62.7866 303.626C62.7866 302.599 63.1086 301.75 63.7526 301.078ZM72.6743 303.108V307H71.3583V300.266H72.6463V301.232C73.0943 300.457 73.7849 300.07 74.7183 300.07C75.4929 300.07 76.0856 300.317 76.4963 300.812C76.9163 301.307 77.1263 301.946 77.1263 302.73V307H75.8103V302.954C75.8103 301.825 75.2876 301.26 74.2423 301.26C73.7476 301.26 73.3603 301.437 73.0803 301.792C72.8096 302.137 72.6743 302.576 72.6743 303.108ZM80.9836 298.138V300.266H82.4396V301.456H80.9836V304.956C80.9836 305.273 81.0536 305.507 81.1936 305.656C81.3429 305.805 81.5856 305.88 81.9216 305.88C82.1176 305.88 82.2903 305.861 82.4396 305.824V306.944C82.2156 307.028 81.9169 307.07 81.5436 307.07C80.9649 307.07 80.5076 306.902 80.1716 306.566C79.8356 306.23 79.6676 305.759 79.6676 305.152V301.456H78.3796V300.266H78.7436C79.0889 300.266 79.3456 300.173 79.5136 299.986C79.6909 299.79 79.7796 299.538 79.7796 299.23V298.138H80.9836ZM83.7762 305.194C83.7762 304.615 83.9628 304.153 84.3362 303.808C84.7095 303.453 85.2042 303.234 85.8202 303.15L87.6402 302.884C87.9855 302.837 88.1582 302.669 88.1582 302.38C88.1582 302.025 88.0368 301.736 87.7942 301.512C87.5515 301.288 87.1875 301.176 86.7022 301.176C86.2542 301.176 85.8995 301.302 85.6382 301.554C85.3768 301.797 85.2228 302.123 85.1762 302.534L83.9162 302.24C83.9815 301.596 84.2755 301.073 84.7982 300.672C85.3208 300.261 85.9462 300.056 86.6742 300.056C87.6262 300.056 88.3308 300.289 88.7882 300.756C89.2455 301.213 89.4742 301.801 89.4742 302.52V305.894C89.4742 306.295 89.5022 306.664 89.5582 307H88.2702C88.2235 306.72 88.2002 306.417 88.2002 306.09C88.0135 306.389 87.7382 306.65 87.3742 306.874C87.0195 307.098 86.5715 307.21 86.0302 307.21C85.3675 307.21 84.8262 307.014 84.4062 306.622C83.9862 306.221 83.7762 305.745 83.7762 305.194ZM86.2122 306.104C86.8002 306.104 87.2715 305.945 87.6262 305.628C87.9808 305.311 88.1582 304.807 88.1582 304.116V303.808L86.1002 304.116C85.8015 304.163 85.5635 304.27 85.3862 304.438C85.2088 304.606 85.1202 304.835 85.1202 305.124C85.1202 305.385 85.2182 305.614 85.4142 305.81C85.6195 306.006 85.8855 306.104 86.2122 306.104ZM94.3523 301.274C93.783 301.274 93.2976 301.479 92.8963 301.89C92.5043 302.301 92.3083 302.879 92.3083 303.626C92.3083 304.363 92.5043 304.942 92.8963 305.362C93.2976 305.782 93.7876 305.992 94.3663 305.992C94.9263 305.992 95.351 305.852 95.6403 305.572C95.939 305.292 96.1396 304.97 96.2423 304.606L97.4043 305.11C97.2176 305.67 96.863 306.16 96.3403 306.58C95.827 307 95.169 307.21 94.3663 307.21C93.3863 307.21 92.5743 306.869 91.9303 306.188C91.2863 305.507 90.9643 304.653 90.9643 303.626C90.9643 302.581 91.2863 301.727 91.9303 301.064C92.5743 300.392 93.3816 300.056 94.3523 300.056C95.1736 300.056 95.8363 300.266 96.3403 300.686C96.8536 301.106 97.1896 301.61 97.3483 302.198L96.1583 302.702C96.0556 302.31 95.8596 301.974 95.5703 301.694C95.281 301.414 94.875 301.274 94.3523 301.274ZM100.712 298.138V300.266H102.168V301.456H100.712V304.956C100.712 305.273 100.782 305.507 100.922 305.656C101.071 305.805 101.314 305.88 101.65 305.88C101.846 305.88 102.019 305.861 102.168 305.824V306.944C101.944 307.028 101.645 307.07 101.272 307.07C100.693 307.07 100.236 306.902 99.9001 306.566C99.5641 306.23 99.3961 305.759 99.3961 305.152V301.456H98.1081V300.266H98.4721C98.8175 300.266 99.0741 300.173 99.2421 299.986C99.4195 299.79 99.5081 299.538 99.5081 299.23V298.138H100.712ZM115.727 307H114.299L108.937 298.908V307H107.565V297.074H109.399L114.355 304.69V297.074H115.727V307ZM117.614 305.194C117.614 304.615 117.801 304.153 118.174 303.808C118.547 303.453 119.042 303.234 119.658 303.15L121.478 302.884C121.823 302.837 121.996 302.669 121.996 302.38C121.996 302.025 121.875 301.736 121.632 301.512C121.389 301.288 121.025 301.176 120.54 301.176C120.092 301.176 119.737 301.302 119.476 301.554C119.215 301.797 119.061 302.123 119.014 302.534L117.754 302.24C117.819 301.596 118.113 301.073 118.636 300.672C119.159 300.261 119.784 300.056 120.512 300.056C121.464 300.056 122.169 300.289 122.626 300.756C123.083 301.213 123.312 301.801 123.312 302.52V305.894C123.312 306.295 123.34 306.664 123.396 307H122.108C122.061 306.72 122.038 306.417 122.038 306.09C121.851 306.389 121.576 306.65 121.212 306.874C120.857 307.098 120.409 307.21 119.868 307.21C119.205 307.21 118.664 307.014 118.244 306.622C117.824 306.221 117.614 305.745 117.614 305.194ZM120.05 306.104C120.638 306.104 121.109 305.945 121.464 305.628C121.819 305.311 121.996 304.807 121.996 304.116V303.808L119.938 304.116C119.639 304.163 119.401 304.27 119.224 304.438C119.047 304.606 118.958 304.835 118.958 305.124C118.958 305.385 119.056 305.614 119.252 305.81C119.457 306.006 119.723 306.104 120.05 306.104ZM126.664 307H125.362V300.266H126.622V301.162C126.828 300.807 127.117 300.537 127.49 300.35C127.864 300.163 128.256 300.07 128.666 300.07C129.105 300.07 129.506 300.177 129.87 300.392C130.234 300.607 130.505 300.924 130.682 301.344C131.149 300.495 131.9 300.07 132.936 300.07C133.58 300.07 134.126 300.289 134.574 300.728C135.032 301.167 135.26 301.801 135.26 302.632V307H133.958V302.772C133.958 302.305 133.837 301.932 133.594 301.652C133.361 301.372 133.006 301.232 132.53 301.232C132.073 301.232 131.7 301.395 131.41 301.722C131.121 302.039 130.976 302.441 130.976 302.926V307H129.66V302.772C129.66 302.305 129.539 301.932 129.296 301.652C129.063 301.372 128.708 301.232 128.232 301.232C127.766 301.232 127.388 301.391 127.098 301.708C126.809 302.025 126.664 302.436 126.664 302.94V307ZM138.22 302.94H141.902C141.883 302.436 141.715 302.025 141.398 301.708C141.081 301.381 140.633 301.218 140.054 301.218C139.531 301.218 139.102 301.391 138.766 301.736C138.43 302.072 138.248 302.473 138.22 302.94ZM142.098 304.69L143.232 305.082C143.036 305.707 142.672 306.221 142.14 306.622C141.608 307.014 140.964 307.21 140.208 307.21C139.265 307.21 138.463 306.888 137.8 306.244C137.147 305.591 136.82 304.713 136.82 303.612C136.82 302.585 137.137 301.736 137.772 301.064C138.407 300.392 139.163 300.056 140.04 300.056C141.057 300.056 141.851 300.378 142.42 301.022C142.989 301.657 143.274 302.511 143.274 303.584C143.274 303.752 143.265 303.892 143.246 304.004H138.178C138.187 304.601 138.383 305.091 138.766 305.474C139.158 305.857 139.639 306.048 140.208 306.048C141.169 306.048 141.799 305.595 142.098 304.69ZM145.178 306.79C144.991 306.603 144.898 306.375 144.898 306.104C144.898 305.833 144.991 305.605 145.178 305.418C145.365 305.222 145.593 305.124 145.864 305.124C146.135 305.124 146.363 305.222 146.55 305.418C146.746 305.605 146.844 305.833 146.844 306.104C146.844 306.375 146.746 306.603 146.55 306.79C146.363 306.977 146.135 307.07 145.864 307.07C145.593 307.07 145.365 306.977 145.178 306.79ZM145.164 301.862C144.977 301.675 144.884 301.447 144.884 301.176C144.884 300.905 144.977 300.677 145.164 300.49C145.351 300.294 145.579 300.196 145.85 300.196C146.121 300.196 146.349 300.294 146.536 300.49C146.732 300.677 146.83 300.905 146.83 301.176C146.83 301.447 146.732 301.675 146.536 301.862C146.349 302.049 146.121 302.142 145.85 302.142C145.579 302.142 145.351 302.049 145.164 301.862ZM198.043 298.348H194.725V307H193.353V298.348H190.035V297.074H198.043V298.348ZM200.328 307H199.026V300.266H200.328V307ZM198.998 298.39C198.821 298.203 198.732 297.979 198.732 297.718C198.732 297.457 198.821 297.233 198.998 297.046C199.185 296.859 199.409 296.766 199.67 296.766C199.932 296.766 200.156 296.859 200.342 297.046C200.529 297.223 200.622 297.447 200.622 297.718C200.622 297.979 200.529 298.203 200.342 298.39C200.156 298.567 199.932 298.656 199.67 298.656C199.409 298.656 199.185 298.567 198.998 298.39ZM204.331 298.138V300.266H205.787V301.456H204.331V304.956C204.331 305.273 204.401 305.507 204.541 305.656C204.691 305.805 204.933 305.88 205.269 305.88C205.465 305.88 205.638 305.861 205.787 305.824V306.944C205.563 307.028 205.265 307.07 204.891 307.07C204.313 307.07 203.855 306.902 203.519 306.566C203.183 306.23 203.015 305.759 203.015 305.152V301.456H201.727V300.266H202.091C202.437 300.266 202.693 300.173 202.861 299.986C203.039 299.79 203.127 299.538 203.127 299.23V298.138H204.331ZM208.86 307H207.544V296.864H208.86V307ZM211.953 302.94H215.635C215.616 302.436 215.448 302.025 215.131 301.708C214.813 301.381 214.365 301.218 213.787 301.218C213.264 301.218 212.835 301.391 212.499 301.736C212.163 302.072 211.981 302.473 211.953 302.94ZM215.831 304.69L216.965 305.082C216.769 305.707 216.405 306.221 215.873 306.622C215.341 307.014 214.697 307.21 213.941 307.21C212.998 307.21 212.195 306.888 211.533 306.244C210.879 305.591 210.553 304.713 210.553 303.612C210.553 302.585 210.87 301.736 211.505 301.064C212.139 300.392 212.895 300.056 213.773 300.056C214.79 300.056 215.583 300.378 216.153 301.022C216.722 301.657 217.007 302.511 217.007 303.584C217.007 303.752 216.997 303.892 216.979 304.004H211.911C211.92 304.601 212.116 305.091 212.499 305.474C212.891 305.857 213.371 306.048 213.941 306.048C214.902 306.048 215.532 305.595 215.831 304.69ZM218.91 306.79C218.724 306.603 218.63 306.375 218.63 306.104C218.63 305.833 218.724 305.605 218.91 305.418C219.097 305.222 219.326 305.124 219.596 305.124C219.867 305.124 220.096 305.222 220.282 305.418C220.478 305.605 220.576 305.833 220.576 306.104C220.576 306.375 220.478 306.603 220.282 306.79C220.096 306.977 219.867 307.07 219.596 307.07C219.326 307.07 219.097 306.977 218.91 306.79ZM218.896 301.862C218.71 301.675 218.616 301.447 218.616 301.176C218.616 300.905 218.71 300.677 218.896 300.49C219.083 300.294 219.312 300.196 219.582 300.196C219.853 300.196 220.082 300.294 220.268 300.49C220.464 300.677 220.562 300.905 220.562 301.176C220.562 301.447 220.464 301.675 220.268 301.862C220.082 302.049 219.853 302.142 219.582 302.142C219.312 302.142 219.083 302.049 218.896 301.862ZM274.421 307H268.387V297.074H274.421V298.348H269.759V301.4H273.987V302.688H269.759V305.726H274.421V307ZM277.479 307H276.177V300.266H277.437V301.162C277.642 300.807 277.931 300.537 278.305 300.35C278.678 300.163 279.07 300.07 279.481 300.07C279.919 300.07 280.321 300.177 280.685 300.392C281.049 300.607 281.319 300.924 281.497 301.344C281.963 300.495 282.715 300.07 283.751 300.07C284.395 300.07 284.941 300.289 285.389 300.728C285.846 301.167 286.075 301.801 286.075 302.632V307H284.773V302.772C284.773 302.305 284.651 301.932 284.409 301.652C284.175 301.372 283.821 301.232 283.345 301.232C282.887 301.232 282.514 301.395 282.225 301.722C281.935 302.039 281.791 302.441 281.791 302.926V307H280.475V302.772C280.475 302.305 280.353 301.932 280.111 301.652C279.877 301.372 279.523 301.232 279.047 301.232C278.58 301.232 278.202 301.391 277.913 301.708C277.623 302.025 277.479 302.436 277.479 302.94V307ZM287.761 305.194C287.761 304.615 287.947 304.153 288.321 303.808C288.694 303.453 289.189 303.234 289.805 303.15L291.625 302.884C291.97 302.837 292.143 302.669 292.143 302.38C292.143 302.025 292.021 301.736 291.779 301.512C291.536 301.288 291.172 301.176 290.687 301.176C290.239 301.176 289.884 301.302 289.623 301.554C289.361 301.797 289.207 302.123 289.161 302.534L287.901 302.24C287.966 301.596 288.26 301.073 288.783 300.672C289.305 300.261 289.931 300.056 290.659 300.056C291.611 300.056 292.315 300.289 292.773 300.756C293.23 301.213 293.459 301.801 293.459 302.52V305.894C293.459 306.295 293.487 306.664 293.543 307H292.255C292.208 306.72 292.185 306.417 292.185 306.09C291.998 306.389 291.723 306.65 291.359 306.874C291.004 307.098 290.556 307.21 290.015 307.21C289.352 307.21 288.811 307.014 288.391 306.622C287.971 306.221 287.761 305.745 287.761 305.194ZM290.197 306.104C290.785 306.104 291.256 305.945 291.611 305.628C291.965 305.311 292.143 304.807 292.143 304.116V303.808L290.085 304.116C289.786 304.163 289.548 304.27 289.371 304.438C289.193 304.606 289.105 304.835 289.105 305.124C289.105 305.385 289.203 305.614 289.399 305.81C289.604 306.006 289.87 306.104 290.197 306.104ZM296.811 307H295.509V300.266H296.811V307ZM295.481 298.39C295.303 298.203 295.215 297.979 295.215 297.718C295.215 297.457 295.303 297.233 295.481 297.046C295.667 296.859 295.891 296.766 296.153 296.766C296.414 296.766 296.638 296.859 296.825 297.046C297.011 297.223 297.105 297.447 297.105 297.718C297.105 297.979 297.011 298.203 296.825 298.39C296.638 298.567 296.414 298.656 296.153 298.656C295.891 298.656 295.667 298.567 295.481 298.39ZM300.366 307H299.05V296.864H300.366V307ZM302.828 306.79C302.642 306.603 302.548 306.375 302.548 306.104C302.548 305.833 302.642 305.605 302.828 305.418C303.015 305.222 303.244 305.124 303.514 305.124C303.785 305.124 304.014 305.222 304.2 305.418C304.396 305.605 304.494 305.833 304.494 306.104C304.494 306.375 304.396 306.603 304.2 306.79C304.014 306.977 303.785 307.07 303.514 307.07C303.244 307.07 303.015 306.977 302.828 306.79ZM302.814 301.862C302.628 301.675 302.534 301.447 302.534 301.176C302.534 300.905 302.628 300.677 302.814 300.49C303.001 300.294 303.23 300.196 303.5 300.196C303.771 300.196 304 300.294 304.186 300.49C304.382 300.677 304.48 300.905 304.48 301.176C304.48 301.447 304.382 301.675 304.186 301.862C304 302.049 303.771 302.142 303.5 302.142C303.23 302.142 303.001 302.049 302.814 301.862Z" fill="#CCCCCC"/>
<path d="M360.509 307H355.105V305.852L358.801 301.456H355.161V300.266H360.439V301.414L356.743 305.81H360.509V307Z" fill="white"/>
<path d="M52 309.73H354.545V310.85H52V309.73Z" fill="#CCCCCC"/>
<path d="M354.545 309.73H361.069V310.85H354.545V309.73Z" fill="white"/>
<path d="M59.322 337H53.26V327.074H54.632V335.712H59.322V337ZM64.9545 336.188C64.7772 336.524 64.5065 336.781 64.1425 336.958C63.7785 337.126 63.3865 337.21 62.9665 337.21C62.2012 337.21 61.5898 336.958 61.1325 336.454C60.6752 335.941 60.4465 335.292 60.4465 334.508V330.266H61.7625V334.312C61.7625 334.816 61.8838 335.231 62.1265 335.558C62.3785 335.885 62.7658 336.048 63.2885 336.048C63.8112 336.048 64.2078 335.894 64.4785 335.586C64.7492 335.269 64.8845 334.849 64.8845 334.326V330.266H66.2005V335.754C66.2005 336.193 66.2238 336.608 66.2705 337H65.0105C64.9732 336.795 64.9545 336.524 64.9545 336.188ZM71.2058 331.274C70.6365 331.274 70.1511 331.479 69.7498 331.89C69.3578 332.301 69.1618 332.879 69.1618 333.626C69.1618 334.363 69.3578 334.942 69.7498 335.362C70.1511 335.782 70.6411 335.992 71.2198 335.992C71.7798 335.992 72.2045 335.852 72.4938 335.572C72.7925 335.292 72.9931 334.97 73.0958 334.606L74.2578 335.11C74.0711 335.67 73.7165 336.16 73.1938 336.58C72.6805 337 72.0225 337.21 71.2198 337.21C70.2398 337.21 69.4278 336.869 68.7838 336.188C68.1398 335.507 67.8178 334.653 67.8178 333.626C67.8178 332.581 68.1398 331.727 68.7838 331.064C69.4278 330.392 70.2351 330.056 71.2058 330.056C72.0271 330.056 72.6898 330.266 73.1938 330.686C73.7071 331.106 74.0431 331.61 74.2018 332.198L73.0118 332.702C72.9091 332.31 72.7131 331.974 72.4238 331.694C72.1345 331.414 71.7285 331.274 71.2058 331.274ZM77.1036 337H75.8016V330.266H77.1036V337ZM75.7736 328.39C75.5963 328.203 75.5076 327.979 75.5076 327.718C75.5076 327.457 75.5963 327.233 75.7736 327.046C75.9603 326.859 76.1843 326.766 76.4456 326.766C76.707 326.766 76.931 326.859 77.1176 327.046C77.3043 327.223 77.3976 327.447 77.3976 327.718C77.3976 327.979 77.3043 328.203 77.1176 328.39C76.931 328.567 76.707 328.656 76.4456 328.656C76.1843 328.656 75.9603 328.567 75.7736 328.39ZM80.6587 333.108V337H79.3427V330.266H80.6307V331.232C81.0787 330.457 81.7693 330.07 82.7027 330.07C83.4773 330.07 84.07 330.317 84.4807 330.812C84.9007 331.307 85.1107 331.946 85.1107 332.73V337H83.7947V332.954C83.7947 331.825 83.272 331.26 82.2267 331.26C81.732 331.26 81.3447 331.437 81.0647 331.792C80.794 332.137 80.6587 332.576 80.6587 333.108ZM87.988 333.612C87.988 334.321 88.1607 334.9 88.506 335.348C88.8607 335.796 89.346 336.02 89.962 336.02C90.55 336.02 91.0213 335.791 91.376 335.334C91.7307 334.877 91.908 334.293 91.908 333.584C91.908 332.884 91.7353 332.319 91.39 331.89C91.0447 331.461 90.5733 331.246 89.976 331.246C89.3787 331.246 88.898 331.465 88.534 331.904C88.17 332.343 87.988 332.912 87.988 333.612ZM91.922 336.09V335.978C91.7447 336.323 91.474 336.613 91.11 336.846C90.7553 337.07 90.3307 337.182 89.836 337.182C88.8747 337.182 88.1 336.846 87.512 336.174C86.9333 335.493 86.644 334.639 86.644 333.612C86.644 332.632 86.9427 331.801 87.54 331.12C88.1373 330.429 88.9027 330.084 89.836 330.084C90.3867 330.084 90.8347 330.196 91.18 330.42C91.5253 330.635 91.7633 330.901 91.894 331.218V326.864H93.196V335.754C93.196 336.211 93.2193 336.627 93.266 337H91.992C91.9453 336.739 91.922 336.435 91.922 336.09ZM95.0145 335.194C95.0145 334.615 95.2011 334.153 95.5745 333.808C95.9478 333.453 96.4425 333.234 97.0585 333.15L98.8785 332.884C99.2238 332.837 99.3965 332.669 99.3965 332.38C99.3965 332.025 99.2751 331.736 99.0325 331.512C98.7898 331.288 98.4258 331.176 97.9405 331.176C97.4925 331.176 97.1378 331.302 96.8765 331.554C96.6151 331.797 96.4611 332.123 96.4145 332.534L95.1545 332.24C95.2198 331.596 95.5138 331.073 96.0365 330.672C96.5591 330.261 97.1845 330.056 97.9125 330.056C98.8645 330.056 99.5691 330.289 100.026 330.756C100.484 331.213 100.712 331.801 100.712 332.52V335.894C100.712 336.295 100.74 336.664 100.796 337H99.5085C99.4618 336.72 99.4385 336.417 99.4385 336.09C99.2518 336.389 98.9765 336.65 98.6125 336.874C98.2578 337.098 97.8098 337.21 97.2685 337.21C96.6058 337.21 96.0645 337.014 95.6445 336.622C95.2245 336.221 95.0145 335.745 95.0145 335.194ZM97.4505 336.104C98.0385 336.104 98.5098 335.945 98.8645 335.628C99.2191 335.311 99.3965 334.807 99.3965 334.116V333.808L97.3385 334.116C97.0398 334.163 96.8018 334.27 96.6245 334.438C96.4471 334.606 96.3585 334.835 96.3585 335.124C96.3585 335.385 96.4565 335.614 96.6525 335.81C96.8578 336.006 97.1238 336.104 97.4505 336.104ZM110.701 337.21C109.347 337.21 108.185 336.743 107.215 335.81C106.253 334.877 105.773 333.617 105.773 332.03C105.773 330.966 106.015 330.033 106.501 329.23C106.986 328.427 107.597 327.835 108.335 327.452C109.072 327.06 109.861 326.864 110.701 326.864C111.821 326.864 112.763 327.149 113.529 327.718C114.303 328.278 114.817 329.043 115.069 330.014L113.795 330.462C113.608 329.715 113.249 329.141 112.717 328.74C112.185 328.329 111.513 328.124 110.701 328.124C109.73 328.124 108.899 328.469 108.209 329.16C107.518 329.841 107.173 330.798 107.173 332.03C107.173 333.262 107.518 334.223 108.209 334.914C108.899 335.605 109.73 335.95 110.701 335.95C111.513 335.95 112.189 335.735 112.731 335.306C113.272 334.867 113.65 334.289 113.865 333.57L115.083 334.018C114.812 334.979 114.289 335.754 113.515 336.342C112.749 336.921 111.811 337.21 110.701 337.21ZM120.296 330.196V331.596C120.1 331.568 119.908 331.554 119.722 331.554C118.49 331.554 117.874 332.245 117.874 333.626V337H116.558V330.266H117.846V331.442C118.256 330.583 118.928 330.154 119.862 330.154C120.011 330.154 120.156 330.168 120.296 330.196ZM121.278 335.194C121.278 334.615 121.465 334.153 121.838 333.808C122.211 333.453 122.706 333.234 123.322 333.15L125.142 332.884C125.487 332.837 125.66 332.669 125.66 332.38C125.66 332.025 125.539 331.736 125.296 331.512C125.053 331.288 124.689 331.176 124.204 331.176C123.756 331.176 123.401 331.302 123.14 331.554C122.879 331.797 122.725 332.123 122.678 332.534L121.418 332.24C121.483 331.596 121.777 331.073 122.3 330.672C122.823 330.261 123.448 330.056 124.176 330.056C125.128 330.056 125.833 330.289 126.29 330.756C126.747 331.213 126.976 331.801 126.976 332.52V335.894C126.976 336.295 127.004 336.664 127.06 337H125.772C125.725 336.72 125.702 336.417 125.702 336.09C125.515 336.389 125.24 336.65 124.876 336.874C124.521 337.098 124.073 337.21 123.532 337.21C122.869 337.21 122.328 337.014 121.908 336.622C121.488 336.221 121.278 335.745 121.278 335.194ZM123.714 336.104C124.302 336.104 124.773 335.945 125.128 335.628C125.483 335.311 125.66 334.807 125.66 334.116V333.808L123.602 334.116C123.303 334.163 123.065 334.27 122.888 334.438C122.711 334.606 122.622 334.835 122.622 335.124C122.622 335.385 122.72 335.614 122.916 335.81C123.121 336.006 123.387 336.104 123.714 336.104ZM130.328 337H129.026V330.266H130.286V331.162C130.492 330.807 130.781 330.537 131.154 330.35C131.528 330.163 131.92 330.07 132.33 330.07C132.769 330.07 133.17 330.177 133.534 330.392C133.898 330.607 134.169 330.924 134.346 331.344C134.813 330.495 135.564 330.07 136.6 330.07C137.244 330.07 137.79 330.289 138.238 330.728C138.696 331.167 138.924 331.801 138.924 332.632V337H137.622V332.772C137.622 332.305 137.501 331.932 137.258 331.652C137.025 331.372 136.67 331.232 136.194 331.232C135.737 331.232 135.364 331.395 135.074 331.722C134.785 332.039 134.64 332.441 134.64 332.926V337H133.324V332.772C133.324 332.305 133.203 331.932 132.96 331.652C132.727 331.372 132.372 331.232 131.896 331.232C131.43 331.232 131.052 331.391 130.762 331.708C130.473 332.025 130.328 332.436 130.328 332.94V337ZM140.4 335.25L141.59 334.83C141.637 335.194 141.795 335.497 142.066 335.74C142.337 335.973 142.701 336.09 143.158 336.09C143.513 336.09 143.793 336.006 143.998 335.838C144.203 335.661 144.306 335.446 144.306 335.194C144.306 334.746 144.017 334.457 143.438 334.326L142.29 334.074C141.767 333.962 141.357 333.738 141.058 333.402C140.759 333.066 140.61 332.66 140.61 332.184C140.61 331.605 140.843 331.106 141.31 330.686C141.786 330.266 142.351 330.056 143.004 330.056C143.433 330.056 143.816 330.121 144.152 330.252C144.488 330.373 144.749 330.537 144.936 330.742C145.123 330.947 145.263 331.139 145.356 331.316C145.449 331.493 145.519 331.675 145.566 331.862L144.404 332.296C144.385 332.184 144.353 332.077 144.306 331.974C144.259 331.862 144.185 331.741 144.082 331.61C143.989 331.479 143.849 331.377 143.662 331.302C143.475 331.218 143.256 331.176 143.004 331.176C142.677 331.176 142.407 331.265 142.192 331.442C141.987 331.619 141.884 331.829 141.884 332.072C141.884 332.501 142.141 332.772 142.654 332.884L143.746 333.122C144.343 333.253 144.801 333.495 145.118 333.85C145.445 334.195 145.608 334.62 145.608 335.124C145.608 335.656 145.389 336.137 144.95 336.566C144.521 336.995 143.919 337.21 143.144 337.21C142.313 337.21 141.665 337.005 141.198 336.594C140.731 336.174 140.465 335.726 140.4 335.25ZM148.146 332.94H151.828C151.809 332.436 151.641 332.025 151.324 331.708C151.007 331.381 150.559 331.218 149.98 331.218C149.457 331.218 149.028 331.391 148.692 331.736C148.356 332.072 148.174 332.473 148.146 332.94ZM152.024 334.69L153.158 335.082C152.962 335.707 152.598 336.221 152.066 336.622C151.534 337.014 150.89 337.21 150.134 337.21C149.191 337.21 148.389 336.888 147.726 336.244C147.073 335.591 146.746 334.713 146.746 333.612C146.746 332.585 147.063 331.736 147.698 331.064C148.333 330.392 149.089 330.056 149.966 330.056C150.983 330.056 151.777 330.378 152.346 331.022C152.915 331.657 153.2 332.511 153.2 333.584C153.2 333.752 153.191 333.892 153.172 334.004H148.104C148.113 334.601 148.309 335.091 148.692 335.474C149.084 335.857 149.565 336.048 150.134 336.048C151.095 336.048 151.725 335.595 152.024 334.69ZM156.423 339.814H154.981L156.661 336.258L153.763 330.266H155.275L157.375 334.914L159.391 330.266H160.805L156.423 339.814ZM191.583 337H190.211V327.074H196.245V328.348H191.583V331.54H195.811V332.828H191.583V337ZM198.676 335.404C199.087 335.824 199.586 336.034 200.174 336.034C200.762 336.034 201.257 335.824 201.658 335.404C202.069 334.975 202.274 334.382 202.274 333.626C202.274 332.879 202.069 332.296 201.658 331.876C201.257 331.447 200.762 331.232 200.174 331.232C199.586 331.232 199.087 331.447 198.676 331.876C198.275 332.296 198.074 332.879 198.074 333.626C198.074 334.382 198.275 334.975 198.676 335.404ZM197.696 331.078C198.349 330.397 199.175 330.056 200.174 330.056C201.173 330.056 201.994 330.397 202.638 331.078C203.291 331.75 203.618 332.599 203.618 333.626C203.618 334.662 203.296 335.521 202.652 336.202C202.008 336.874 201.182 337.21 200.174 337.21C199.166 337.21 198.34 336.874 197.696 336.202C197.052 335.521 196.73 334.662 196.73 333.626C196.73 332.599 197.052 331.75 197.696 331.078ZM209.671 336.188C209.494 336.524 209.223 336.781 208.859 336.958C208.495 337.126 208.103 337.21 207.683 337.21C206.918 337.21 206.307 336.958 205.849 336.454C205.392 335.941 205.163 335.292 205.163 334.508V330.266H206.479V334.312C206.479 334.816 206.601 335.231 206.843 335.558C207.095 335.885 207.483 336.048 208.005 336.048C208.528 336.048 208.925 335.894 209.195 335.586C209.466 335.269 209.601 334.849 209.601 334.326V330.266H210.917V335.754C210.917 336.193 210.941 336.608 210.987 337H209.727C209.69 336.795 209.671 336.524 209.671 336.188ZM214.479 333.108V337H213.163V330.266H214.451V331.232C214.899 330.457 215.59 330.07 216.523 330.07C217.298 330.07 217.89 330.317 218.301 330.812C218.721 331.307 218.931 331.946 218.931 332.73V337H217.615V332.954C217.615 331.825 217.092 331.26 216.047 331.26C215.552 331.26 215.165 331.437 214.885 331.792C214.614 332.137 214.479 332.576 214.479 333.108ZM221.808 333.612C221.808 334.321 221.981 334.9 222.326 335.348C222.681 335.796 223.166 336.02 223.782 336.02C224.37 336.02 224.842 335.791 225.196 335.334C225.551 334.877 225.728 334.293 225.728 333.584C225.728 332.884 225.556 332.319 225.21 331.89C224.865 331.461 224.394 331.246 223.796 331.246C223.199 331.246 222.718 331.465 222.354 331.904C221.99 332.343 221.808 332.912 221.808 333.612ZM225.742 336.09V335.978C225.565 336.323 225.294 336.613 224.93 336.846C224.576 337.07 224.151 337.182 223.656 337.182C222.695 337.182 221.92 336.846 221.332 336.174C220.754 335.493 220.464 334.639 220.464 333.612C220.464 332.632 220.763 331.801 221.36 331.12C221.958 330.429 222.723 330.084 223.656 330.084C224.207 330.084 224.655 330.196 225 330.42C225.346 330.635 225.584 330.901 225.714 331.218V326.864H227.016V335.754C227.016 336.211 227.04 336.627 227.086 337H225.812C225.766 336.739 225.742 336.435 225.742 336.09ZM230.109 332.94H233.791C233.772 332.436 233.604 332.025 233.287 331.708C232.969 331.381 232.521 331.218 231.943 331.218C231.42 331.218 230.991 331.391 230.655 331.736C230.319 332.072 230.137 332.473 230.109 332.94ZM233.987 334.69L235.121 335.082C234.925 335.707 234.561 336.221 234.029 336.622C233.497 337.014 232.853 337.21 232.097 337.21C231.154 337.21 230.351 336.888 229.689 336.244C229.035 335.591 228.709 334.713 228.709 333.612C228.709 332.585 229.026 331.736 229.661 331.064C230.295 330.392 231.051 330.056 231.929 330.056C232.946 330.056 233.739 330.378 234.309 331.022C234.878 331.657 235.163 332.511 235.163 333.584C235.163 333.752 235.153 333.892 235.135 334.004H230.067C230.076 334.601 230.272 335.091 230.655 335.474C231.047 335.857 231.527 336.048 232.097 336.048C233.058 336.048 233.688 335.595 233.987 334.69ZM240.581 330.196V331.596C240.385 331.568 240.193 331.554 240.007 331.554C238.775 331.554 238.159 332.245 238.159 333.626V337H236.843V330.266H238.131V331.442C238.541 330.583 239.213 330.154 240.147 330.154C240.296 330.154 240.441 330.168 240.581 330.196ZM271.299 337H269.983V326.864H271.299V337ZM276.366 331.274C275.797 331.274 275.311 331.479 274.91 331.89C274.518 332.301 274.322 332.879 274.322 333.626C274.322 334.363 274.518 334.942 274.91 335.362C275.311 335.782 275.801 335.992 276.38 335.992C276.94 335.992 277.365 335.852 277.654 335.572C277.953 335.292 278.153 334.97 278.256 334.606L279.418 335.11C279.231 335.67 278.877 336.16 278.354 336.58C277.841 337 277.183 337.21 276.38 337.21C275.4 337.21 274.588 336.869 273.944 336.188C273.3 335.507 272.978 334.653 272.978 333.626C272.978 332.581 273.3 331.727 273.944 331.064C274.588 330.392 275.395 330.056 276.366 330.056C277.187 330.056 277.85 330.266 278.354 330.686C278.867 331.106 279.203 331.61 279.362 332.198L278.172 332.702C278.069 332.31 277.873 331.974 277.584 331.694C277.295 331.414 276.889 331.274 276.366 331.274ZM288.187 335.082C287.842 335.082 287.543 335.007 287.291 334.858C287.039 334.709 286.876 334.485 286.801 334.186C286.372 334.802 285.817 335.11 285.135 335.11C284.501 335.11 283.983 334.891 283.581 334.452C283.189 334.013 282.993 333.435 282.993 332.716C282.993 331.792 283.269 331.017 283.819 330.392C284.37 329.767 285.028 329.454 285.793 329.454C286.12 329.454 286.423 329.533 286.703 329.692C286.993 329.851 287.189 330.079 287.291 330.378L287.417 329.636H288.523L287.767 333.15C287.739 333.29 287.725 333.421 287.725 333.542C287.725 333.925 287.903 334.116 288.257 334.116C288.649 334.116 288.999 333.85 289.307 333.318C289.615 332.777 289.769 332.156 289.769 331.456C289.769 330.42 289.405 329.566 288.677 328.894C287.959 328.222 287.016 327.886 285.849 327.886C284.608 327.886 283.581 328.301 282.769 329.132C281.957 329.953 281.551 331.027 281.551 332.352C281.551 333.603 281.948 334.629 282.741 335.432C283.544 336.235 284.631 336.636 286.003 336.636C287.095 336.636 288.052 336.309 288.873 335.656L289.447 336.412C289.046 336.785 288.523 337.084 287.879 337.308C287.245 337.541 286.619 337.658 286.003 337.658C284.361 337.658 283.017 337.168 281.971 336.188C280.926 335.199 280.403 333.915 280.403 332.338C280.403 330.742 280.931 329.431 281.985 328.404C283.04 327.377 284.323 326.864 285.835 326.864C287.263 326.864 288.453 327.303 289.405 328.18C290.367 329.048 290.847 330.135 290.847 331.442C290.847 332.478 290.586 333.346 290.063 334.046C289.55 334.737 288.925 335.082 288.187 335.082ZM286.983 331.82C286.983 331.4 286.881 331.078 286.675 330.854C286.47 330.621 286.181 330.504 285.807 330.504C285.322 330.504 284.921 330.714 284.603 331.134C284.295 331.545 284.141 332.021 284.141 332.562C284.141 333.579 284.538 334.088 285.331 334.088C285.807 334.088 286.195 333.878 286.493 333.458C286.801 333.029 286.965 332.483 286.983 331.82ZM293.762 337H292.46V330.266H293.72V331.162C293.925 330.807 294.215 330.537 294.588 330.35C294.961 330.163 295.353 330.07 295.764 330.07C296.203 330.07 296.604 330.177 296.968 330.392C297.332 330.607 297.603 330.924 297.78 331.344C298.247 330.495 298.998 330.07 300.034 330.07C300.678 330.07 301.224 330.289 301.672 330.728C302.129 331.167 302.358 331.801 302.358 332.632V337H301.056V332.772C301.056 332.305 300.935 331.932 300.692 331.652C300.459 331.372 300.104 331.232 299.628 331.232C299.171 331.232 298.797 331.395 298.508 331.722C298.219 332.039 298.074 332.441 298.074 332.926V337H296.758V332.772C296.758 332.305 296.637 331.932 296.394 331.652C296.161 331.372 295.806 331.232 295.33 331.232C294.863 331.232 294.485 331.391 294.196 331.708C293.907 332.025 293.762 332.436 293.762 332.94V337ZM305.85 335.404C306.26 335.824 306.76 336.034 307.348 336.034C307.936 336.034 308.43 335.824 308.832 335.404C309.242 334.975 309.448 334.382 309.448 333.626C309.448 332.879 309.242 332.296 308.832 331.876C308.43 331.447 307.936 331.232 307.348 331.232C306.76 331.232 306.26 331.447 305.85 331.876C305.448 332.296 305.248 332.879 305.248 333.626C305.248 334.382 305.448 334.975 305.85 335.404ZM304.87 331.078C305.523 330.397 306.349 330.056 307.348 330.056C308.346 330.056 309.168 330.397 309.812 331.078C310.465 331.75 310.792 332.599 310.792 333.626C310.792 334.662 310.47 335.521 309.826 336.202C309.182 336.874 308.356 337.21 307.348 337.21C306.34 337.21 305.514 336.874 304.87 336.202C304.226 335.521 303.904 334.662 303.904 333.626C303.904 332.599 304.226 331.75 304.87 331.078ZM313.777 337H312.475V330.266H313.777V337ZM312.447 328.39C312.27 328.203 312.181 327.979 312.181 327.718C312.181 327.457 312.27 327.233 312.447 327.046C312.634 326.859 312.858 326.766 313.119 326.766C313.381 326.766 313.605 326.859 313.791 327.046C313.978 327.223 314.071 327.447 314.071 327.718C314.071 327.979 313.978 328.203 313.791 328.39C313.605 328.567 313.381 328.656 313.119 328.656C312.858 328.656 312.634 328.567 312.447 328.39ZM317.332 333.108V337H316.016V330.266H317.304V331.232C317.752 330.457 318.443 330.07 319.376 330.07C320.151 330.07 320.744 330.317 321.154 330.812C321.574 331.307 321.784 331.946 321.784 332.73V337H320.468V332.954C320.468 331.825 319.946 331.26 318.9 331.26C318.406 331.26 318.018 331.437 317.738 331.792C317.468 332.137 317.332 332.576 317.332 333.108ZM329.912 330.266L327.042 333.108L329.968 337H328.316L326.118 334.032L325.18 334.97V337H323.878V326.864H325.18V333.248L328.092 330.266H329.912ZM331.373 336.79C331.187 336.603 331.093 336.375 331.093 336.104C331.093 335.833 331.187 335.605 331.373 335.418C331.56 335.222 331.789 335.124 332.059 335.124C332.33 335.124 332.559 335.222 332.745 335.418C332.941 335.605 333.039 335.833 333.039 336.104C333.039 336.375 332.941 336.603 332.745 336.79C332.559 336.977 332.33 337.07 332.059 337.07C331.789 337.07 331.56 336.977 331.373 336.79ZM337.766 331.274C337.197 331.274 336.712 331.479 336.31 331.89C335.918 332.301 335.722 332.879 335.722 333.626C335.722 334.363 335.918 334.942 336.31 335.362C336.712 335.782 337.202 335.992 337.78 335.992C338.34 335.992 338.765 335.852 339.054 335.572C339.353 335.292 339.554 334.97 339.656 334.606L340.818 335.11C340.632 335.67 340.277 336.16 339.754 336.58C339.241 337 338.583 337.21 337.78 337.21C336.8 337.21 335.988 336.869 335.344 336.188C334.7 335.507 334.378 334.653 334.378 333.626C334.378 332.581 334.7 331.727 335.344 331.064C335.988 330.392 336.796 330.056 337.766 330.056C338.588 330.056 339.25 330.266 339.754 330.686C340.268 331.106 340.604 331.61 340.762 332.198L339.572 332.702C339.47 332.31 339.274 331.974 338.984 331.694C338.695 331.414 338.289 331.274 337.766 331.274ZM343.68 335.404C344.09 335.824 344.59 336.034 345.178 336.034C345.766 336.034 346.26 335.824 346.662 335.404C347.072 334.975 347.278 334.382 347.278 333.626C347.278 332.879 347.072 332.296 346.662 331.876C346.26 331.447 345.766 331.232 345.178 331.232C344.59 331.232 344.09 331.447 343.68 331.876C343.278 332.296 343.078 332.879 343.078 333.626C343.078 334.382 343.278 334.975 343.68 335.404ZM342.7 331.078C343.353 330.397 344.179 330.056 345.178 330.056C346.176 330.056 346.998 330.397 347.642 331.078C348.295 331.75 348.622 332.599 348.622 333.626C348.622 334.662 348.3 335.521 347.656 336.202C347.012 336.874 346.186 337.21 345.178 337.21C344.17 337.21 343.344 336.874 342.7 336.202C342.056 335.521 341.734 334.662 341.734 333.626C341.734 332.599 342.056 331.75 342.7 331.078ZM351.608 337H350.306V330.266H351.566V331.162C351.771 330.807 352.06 330.537 352.434 330.35C352.807 330.163 353.199 330.07 353.61 330.07C354.048 330.07 354.45 330.177 354.814 330.392C355.178 330.607 355.448 330.924 355.626 331.344C356.092 330.495 356.844 330.07 357.88 330.07C358.524 330.07 359.07 330.289 359.518 330.728C359.975 331.167 360.204 331.801 360.204 332.632V337H358.902V332.772C358.902 332.305 358.78 331.932 358.538 331.652C358.304 331.372 357.95 331.232 357.474 331.232C357.016 331.232 356.643 331.395 356.354 331.722C356.064 332.039 355.92 332.441 355.92 332.926V337H354.604V332.772C354.604 332.305 354.482 331.932 354.24 331.652C354.006 331.372 353.652 331.232 353.176 331.232C352.709 331.232 352.331 331.391 352.042 331.708C351.752 332.025 351.608 332.436 351.608 332.94V337Z" fill="#383838"/>
<path opacity="0.3" d="M289.402 391.5L292 387L294.598 391.5H289.402Z" fill="#FF5C60" stroke="white"/>
<path opacity="0.3" d="M274.402 391.5L277 387L279.598 391.5H274.402Z" fill="#FF5C60" stroke="white"/>
<path opacity="0.3" d="M301.402 391.5L304 387L306.598 391.5H301.402Z" fill="#FF5C60" stroke="white"/>
<path opacity="0.3" d="M289.402 404.5L292 400L294.598 404.5H289.402Z" fill="#FF5C60" stroke="white"/>
<path opacity="0.3" d="M288.402 417.5L291 413L293.598 417.5H288.402Z" fill="#FF5C60" stroke="white"/>
<path opacity="0.3" d="M302.402 404.5L305 400L307.598 404.5H302.402Z" fill="#FF5C60" stroke="white"/>
<path opacity="0.3" d="M302.402 417.5L305 413L307.598 417.5H302.402Z" fill="#FF5C60" stroke="white"/>
<path opacity="0.3" d="M315.402 404.5L318 400L320.598 404.5H315.402Z" fill="#FF5C60" stroke="white"/>
<path d="M56 234H65.973V260.88L73.7568 254.8L86 274H73.7568L65.973 260.88V274H56V234Z" fill="#00D1C2"/>
<path d="M73.7568 244.08V234H86L73.7568 244.08Z" fill="#00D1C2"/>
<g filter="url(#filter1_d_2575_1293)">
<path d="M100.493 241.245C100.799 240.492 101.532 240 102.345 240H169.026C170.446 240 171.414 241.439 170.878 242.755L161.507 265.755C161.201 266.508 160.468 267 159.655 267H92.9744C91.554 267 90.5863 265.561 91.1222 264.245L100.493 241.245Z" fill="#00D1C2"/>
</g>
<path d="M105.46 253.404V250.764H106.96C107.872 250.764 108.424 251.28 108.424 252.096C108.424 252.9 107.872 253.404 106.96 253.404H105.46ZM107.176 254.676C108.808 254.676 109.888 253.584 109.888 252.084C109.888 250.596 108.808 249.492 107.176 249.492H104.02V258H105.46V254.676H107.176ZM115.511 258H117.143L115.223 254.496C116.411 254.208 117.143 253.284 117.143 252.072C117.143 250.632 116.123 249.492 114.479 249.492H111.215V258H112.667V254.64H113.723L115.511 258ZM112.667 253.368V250.764H114.215C115.103 250.764 115.679 251.28 115.679 252.072C115.679 252.852 115.103 253.368 114.215 253.368H112.667ZM123.936 258V256.656H120.12V254.4H123.576V253.092H120.12V250.836H123.936V249.492H118.68V258H123.936ZM135.025 258V249.492H133.069L130.345 255.984L127.585 249.492H125.665V258H127.069V251.76L129.697 258H130.945L133.597 251.736V258H135.025ZM138.531 258V249.492H137.067V258H138.531ZM143.643 258.18C145.431 258.18 146.823 257.088 146.823 255.036V249.492H145.383V254.952C145.383 256.152 144.735 256.812 143.643 256.812C142.563 256.812 141.903 256.152 141.903 254.952V249.492H140.475V255.036C140.475 257.088 141.867 258.18 143.643 258.18ZM158.122 258V249.492H156.166L153.442 255.984L150.682 249.492H148.762V258H150.166V251.76L152.794 258H154.042L156.694 251.736V258H158.122Z" fill="white"/>
<defs>
<filter id="filter0_d_2575_1293" x="33" y="201" width="356" height="183" filterUnits="userSpaceOnUse" color-interpolation-filters="sRGB">
<feFlood flood-opacity="0" result="BackgroundImageFix"/>
<feColorMatrix in="SourceAlpha" type="matrix" values="0 0 0 0 0 0 0 0 0 0 0 0 0 0 0 0 0 0 127 0" result="hardAlpha"/>
<feOffset dx="5" dy="7"/>
<feGaussianBlur stdDeviation="2"/>
<feComposite in2="hardAlpha" operator="out"/>
<feColorMatrix type="matrix" values="0 0 0 0 0 0 0 0 0 0 0 0 0 0 0 0 0 0 0.25 0"/>
<feBlend mode="normal" in2="BackgroundImageFix" result="effect1_dropShadow_2575_1293"/>
<feBlend mode="normal" in="SourceGraphic" in2="effect1_dropShadow_2575_1293" result="shape"/>
</filter>
<filter id="filter1_d_2575_1293" x="86.9727" y="240" width="88.0547" height="35" filterUnits="userSpaceOnUse" color-interpolation-filters="sRGB">
<feFlood flood-opacity="0" result="BackgroundImageFix"/>
<feColorMatrix in="SourceAlpha" type="matrix" values="0 0 0 0 0 0 0 0 0 0 0 0 0 0 0 0 0 0 127 0" result="hardAlpha"/>
<feOffset dy="4"/>
<feGaussianBlur stdDeviation="2"/>
<feComposite in2="hardAlpha" operator="out"/>
<feColorMatrix type="matrix" values="0 0 0 0 0 0 0 0 0 0 0 0 0 0 0 0 0 0 0.25 0"/>
<feBlend mode="normal" in2="BackgroundImageFix" result="effect1_dropShadow_2575_1293"/>
<feBlend mode="normal" in="SourceGraphic" in2="effect1_dropShadow_2575_1293" result="shape"/>
</filter>
</defs>
</svg>
