<svg width="391" height="462" viewBox="0 0 391 462" fill="none" xmlns="http://www.w3.org/2000/svg">
<path d="M108.753 249.416L100.878 247C96.8431 247.954 92.7082 249.042 89.5154 251.661C86.3227 254.28 84.2405 258.764 85.7612 262.596C87.0615 265.745 90.6283 268.082 90.6614 271.538C90.6427 274.643 87.7486 276.86 85.2697 278.658C82.6741 280.473 79.9485 283.024 80.5309 286.159C80.7896 287.911 82.1989 289.373 83.8549 290.083C85.5109 290.793 87.431 290.868 89.1999 290.726C97.9102 289.916 105.641 283.286 108.975 275.157C112.308 267.028 111.763 257.682 108.753 249.416Z" fill="#00D1C1"/>
<g opacity="0.7">
<g opacity="0.7">
<path opacity="0.7" d="M108.753 249.416L100.878 247C96.8431 247.954 92.7082 249.042 89.5154 251.661C86.3227 254.28 84.2405 258.764 85.7612 262.596C87.0615 265.745 90.6283 268.082 90.6614 271.538C90.6427 274.643 87.7486 276.86 85.2697 278.658C82.6741 280.473 79.9485 283.024 80.5309 286.159C80.7896 287.911 82.1989 289.373 83.8549 290.083C85.5109 290.793 87.431 290.868 89.1999 290.726C97.9102 289.916 105.641 283.286 108.975 275.157C112.308 267.028 111.763 257.682 108.753 249.416Z" fill="white"/>
</g>
</g>
<path d="M88.0221 246.395L115.183 260.639C115.183 260.639 120.515 251.499 116.766 242.269L103.111 235.456C103.094 235.339 95.3313 235.292 88.0221 246.395Z" fill="#383838"/>
<path d="M96.4902 233.45L120.067 245.24L183.376 126.949C183.376 126.949 187.265 116.113 177.31 104.458C177.31 104.458 160.738 105.355 153.333 117.426C146.045 129.48 96.4902 233.45 96.4902 233.45Z" fill="#E0E0E0"/>
<path d="M96.4913 233.45C96.4913 233.45 96.5736 233.199 96.8549 232.68C97.1362 232.162 97.4003 231.526 97.8462 230.506C98.7552 228.582 100.028 225.888 101.647 222.308C105.019 215.247 109.928 204.857 116.044 192.141C122.16 179.424 129.567 164.131 137.916 147.148C142.15 138.647 146.448 129.779 151.295 120.591C151.958 119.42 152.637 118.365 153.183 117.21C153.979 116.138 154.641 114.966 155.571 113.994C157.315 112.066 159.443 110.32 161.74 108.906C164.037 107.493 166.62 106.396 169.254 105.649C171.871 104.785 174.539 104.272 177.359 103.974L177.476 103.957L177.61 104.057C180.38 107.466 182.887 111.51 183.944 116.246C184.713 119.832 184.78 123.521 183.728 126.898C156.871 176.923 133.572 220.337 120.285 245.09L120.185 245.224L120.051 245.124C112.571 241.337 106.631 238.277 102.631 236.242C100.69 235.216 99.1505 234.489 98.1128 233.927C97.594 233.645 97.2092 233.463 96.9584 233.381C96.6081 233.433 96.4913 233.45 96.4913 233.45C96.4913 233.45 96.6253 233.55 96.8761 233.632C97.1269 233.714 97.5289 234.013 98.0305 234.177C99.0682 234.74 100.607 235.467 102.666 236.476C106.665 238.51 112.571 241.337 120.168 245.107L119.935 245.141C133.205 220.272 156.387 176.875 183.226 126.733C184.179 123.49 184.111 119.801 183.378 116.449C182.355 111.947 179.965 107.885 177.212 104.593L177.462 104.675C172.039 105.118 166.689 106.863 162.177 109.438C159.863 110.735 157.851 112.464 156.107 114.392C155.177 115.365 154.498 116.419 153.818 117.474C153.156 118.646 152.477 119.701 151.931 120.855C147.066 129.927 142.668 138.929 138.552 147.412C130.202 164.395 122.779 179.572 116.662 192.288C110.546 205.004 105.503 215.295 102.131 222.355C100.378 225.836 99.1228 228.647 98.1965 230.454C97.7334 231.357 97.3698 232.127 97.188 232.512C96.6903 233.182 96.4913 233.45 96.4913 233.45Z" fill="#383838"/>
<path d="M97.3017 231.66L84.7246 233.756L94.1771 216.968L105.418 214.711L97.3017 231.66Z" fill="#007A87"/>
<path d="M177.411 104.325C177.411 104.325 177.295 104.342 177.078 104.493C176.862 104.644 176.512 104.696 176.196 104.982C175.43 105.453 174.383 106.442 173.02 107.718C170.412 110.251 167.058 114.206 163.06 119.45L163.159 119.316C163.094 119.684 162.995 119.818 162.913 120.069L162.648 120.704C162.467 121.089 162.302 121.591 162.12 121.976C161.774 122.862 161.41 123.632 161.064 124.518C160.254 126.308 159.445 128.098 158.653 130.005C156.934 133.719 155.034 137.818 153.151 142.034C149.151 150.5 144.705 159.986 140.061 169.741C135.498 179.244 130.984 188.264 127.066 196.479C123.032 204.711 119.344 212.057 116.319 218.232C113.293 224.406 110.813 229.426 109.06 232.906C108.233 234.58 107.471 235.885 107.025 236.906C106.844 237.291 106.662 237.675 106.463 237.943C106.38 238.194 106.281 238.328 106.281 238.328C106.281 238.328 106.264 238.211 106.463 237.943C106.545 237.693 106.727 237.308 106.909 236.923C107.372 236.019 107.999 234.614 108.826 232.941C110.579 229.46 112.925 224.341 115.951 218.166C121.985 205.701 130.318 188.601 139.559 169.576C144.303 159.688 148.766 150.318 152.766 141.852C156.766 133.386 160.285 125.707 163.06 119.45L162.926 119.351C166.941 114.224 170.412 110.251 173.02 107.718C174.383 106.442 175.447 105.569 176.213 105.098C176.646 104.796 176.996 104.744 177.212 104.593C177.312 104.459 177.411 104.325 177.411 104.325Z" fill="#383838"/>
<path d="M147.444 156.716C147.426 156.599 147.643 156.448 148.144 156.613C148.395 156.695 148.564 157.028 148.598 157.262C148.65 157.612 148.351 158.014 148.001 158.066C147.534 158.135 147.266 157.936 146.998 157.737C146.829 157.404 146.894 157.036 146.994 156.902C147.176 156.517 147.543 156.582 147.444 156.716C147.56 156.699 147.344 156.85 147.379 157.084C147.396 157.201 147.413 157.317 147.43 157.434C147.564 157.534 147.698 157.633 147.798 157.499C147.915 157.482 148.014 157.348 147.997 157.231C147.98 157.114 147.963 156.998 147.945 156.881C147.694 156.799 147.461 156.833 147.444 156.716Z" fill="#383838"/>
<path d="M138.843 173.619C138.826 173.502 139.042 173.351 139.544 173.515C139.795 173.598 139.963 173.931 139.998 174.164C140.05 174.515 139.751 174.917 139.401 174.968C138.934 175.037 138.666 174.838 138.397 174.639C138.229 174.306 138.294 173.939 138.393 173.805C138.575 173.42 138.943 173.485 138.843 173.619C138.96 173.602 138.744 173.753 138.778 173.986C138.796 174.103 138.813 174.22 138.83 174.337C138.964 174.436 139.098 174.536 139.198 174.402C139.314 174.385 139.414 174.251 139.397 174.134C139.379 174.017 139.362 173.9 139.345 173.783C139.094 173.701 138.861 173.736 138.843 173.619Z" fill="#383838"/>
<path d="M129.039 193.682C129.022 193.565 129.238 193.414 129.74 193.579C129.991 193.661 130.159 193.994 130.194 194.227C130.246 194.578 129.947 194.98 129.597 195.032C129.13 195.101 128.862 194.902 128.594 194.703C128.425 194.369 128.49 194.002 128.59 193.868C128.888 193.466 129.256 193.531 129.039 193.682C129.156 193.665 128.94 193.816 128.974 194.05C128.992 194.166 129.009 194.283 129.026 194.4C129.16 194.499 129.294 194.599 129.394 194.465C129.51 194.448 129.61 194.314 129.593 194.197C129.576 194.08 129.558 193.963 129.541 193.847C129.29 193.764 129.173 193.782 129.039 193.682Z" fill="#383838"/>
<path d="M119.286 214.095C119.269 213.979 119.485 213.827 119.987 213.992C120.238 214.074 120.406 214.407 120.441 214.641C120.492 214.991 120.194 215.393 119.844 215.445C119.376 215.514 119.108 215.315 118.84 215.116C118.672 214.783 118.737 214.415 118.836 214.281C119.135 213.879 119.503 213.944 119.286 214.095C119.403 214.078 119.187 214.229 119.221 214.463C119.238 214.58 119.256 214.697 119.273 214.813C119.407 214.913 119.541 215.012 119.641 214.878C119.757 214.861 119.857 214.727 119.84 214.61C119.822 214.494 119.805 214.377 119.788 214.26C119.537 214.178 119.42 214.195 119.286 214.095Z" fill="#383838"/>
<path d="M110.313 233.319C110.295 233.202 110.512 233.051 111.013 233.215C111.264 233.297 111.433 233.63 111.467 233.864C111.519 234.214 111.22 234.616 110.87 234.668C110.403 234.737 110.135 234.538 109.867 234.339C109.698 234.006 109.763 233.638 109.863 233.504C110.161 233.102 110.412 233.185 110.313 233.319C110.429 233.301 110.213 233.453 110.248 233.686C110.265 233.803 110.282 233.92 110.299 234.036C110.433 234.136 110.567 234.235 110.667 234.101C110.784 234.084 110.883 233.95 110.866 233.833C110.849 233.717 110.831 233.6 110.814 233.483C110.563 233.401 110.33 233.435 110.313 233.319Z" fill="#383838"/>
<path d="M155.477 140.018C155.46 139.901 155.676 139.75 156.178 139.915C156.429 139.997 156.597 140.33 156.632 140.564C156.684 140.914 156.385 141.316 156.035 141.368C155.568 141.437 155.3 141.238 155.032 141.039C154.863 140.706 154.928 140.338 155.028 140.204C155.326 139.802 155.694 139.867 155.477 140.018C155.594 140.001 155.378 140.152 155.412 140.386C155.43 140.503 155.447 140.619 155.464 140.736C155.598 140.836 155.732 140.935 155.832 140.801C155.948 140.784 156.048 140.65 156.031 140.533C156.014 140.416 155.996 140.3 155.979 140.183C155.728 140.101 155.611 140.118 155.477 140.018Z" fill="#383838"/>
<path d="M164.156 122.032C164.139 121.915 164.355 121.764 164.857 121.928C165.108 122.01 165.276 122.344 165.311 122.577C165.363 122.927 165.064 123.329 164.714 123.381C164.247 123.45 163.978 123.251 163.71 123.052C163.542 122.719 163.607 122.351 163.706 122.217C163.888 121.833 164.256 121.898 164.156 122.032C164.273 122.014 164.057 122.166 164.091 122.399C164.109 122.516 164.126 122.633 164.143 122.75C164.277 122.849 164.411 122.949 164.511 122.815C164.627 122.797 164.727 122.663 164.71 122.547C164.692 122.43 164.675 122.313 164.658 122.196C164.407 122.114 164.174 122.148 164.156 122.032Z" fill="#383838"/>
<path d="M80.6303 268.249C78.8191 266.488 75.5149 266.737 74.022 268.748L74.1215 268.614C72.8755 269.872 72.7533 272.276 73.8122 273.79C75.1909 275.854 78.499 276.439 80.4112 274.844C82.3407 273.366 82.4416 270.01 80.6303 268.249Z" fill="#00D1C1"/>
<g opacity="0.7">
<g opacity="0.7">
<path opacity="0.7" d="M80.6303 268.249C78.8191 266.488 75.5149 266.737 74.022 268.748L74.1215 268.614C72.8755 269.872 72.7533 272.276 73.8122 273.79C75.1909 275.854 78.499 276.439 80.4112 274.844C82.3407 273.366 82.4416 270.01 80.6303 268.249Z" fill="white"/>
</g>
</g>
<path d="M182.071 129.408C181.971 129.542 180.713 128.296 178.236 126.872C175.875 125.431 172.377 123.561 168.412 121.76C164.447 119.96 160.802 118.708 158.078 118.037C157.343 117.907 156.724 117.759 156.223 117.595C155.739 117.547 155.254 117.499 154.77 117.451C153.935 117.455 153.568 117.39 153.568 117.39C153.568 117.39 154.035 117.321 154.852 117.201C155.336 117.248 155.821 117.296 156.305 117.344C156.906 117.375 157.525 117.522 158.26 117.652C161.101 118.306 164.863 119.54 168.828 121.341C172.793 123.142 176.29 125.012 178.668 126.57C179.857 127.349 180.795 128.045 181.349 128.56C181.785 129.092 182.071 129.408 182.071 129.408Z" fill="#383838"/>
<path d="M179.51 335.856L143.636 346.644L156.92 391.337C161.102 389.764 162.8 364.098 162.8 364.098L186.026 358.162L179.51 335.856Z" fill="#007A87"/>
<path d="M160.68 349.735C160.209 348.969 159.089 348.657 158.207 349.146C157.441 349.617 157.012 350.754 157.501 351.636C157.972 352.402 159.342 352.796 160.108 352.325C160.856 351.737 161.134 350.384 160.563 349.752" fill="white"/>
<path d="M143.755 346.627L147.44 345.725L158.83 388.908C158.83 388.908 158.556 391.096 157.038 391.32L143.755 346.627Z" fill="white"/>
<path d="M163.256 364.747C163.023 364.782 162.634 363.765 161.545 362.852C160.572 361.922 159.469 361.727 159.435 361.493C159.4 361.26 160.819 361.17 162.059 362.299C163.417 363.411 163.507 364.829 163.256 364.747Z" fill="#383838"/>
<path d="M162.729 370.074C162.513 370.225 161.908 369.36 160.771 368.931C159.616 368.386 158.565 368.541 158.531 368.307C158.379 368.091 159.612 367.551 161.017 368.179C162.522 368.672 162.963 370.039 162.729 370.074Z" fill="#383838"/>
<path d="M157.875 374.372C157.723 374.156 158.822 373.516 160.176 373.794C161.512 373.954 162.368 374.902 162.151 375.053C162.052 375.187 161.148 374.724 160.063 374.646C158.943 374.334 158.026 374.588 157.875 374.372Z" fill="#383838"/>
<path d="M168.453 362.787C168.202 362.704 168.28 361.619 167.758 360.503C167.334 359.253 166.612 358.405 166.829 358.254C166.928 358.12 167.983 358.799 168.558 360.265C168.998 361.632 168.704 362.869 168.453 362.787Z" fill="#383838"/>
<path d="M173.45 360.26C173.334 360.277 172.979 359.494 172.755 357.976C172.652 357.275 172.648 356.441 172.743 355.472C172.791 354.987 172.955 354.486 173.003 354.002C173.086 353.751 173.168 353.5 173.35 353.115C173.549 352.847 174.098 352.527 174.483 352.709C174.868 352.891 175.153 353.207 175.321 353.54C175.49 353.873 175.408 354.124 175.442 354.357C175.528 354.941 175.481 355.425 175.433 355.91C175.337 356.879 174.991 357.765 174.727 358.401C174.082 359.689 173.334 360.277 173.334 360.277C173.199 360.177 173.814 359.49 174.225 358.236C174.489 357.6 174.736 356.848 174.715 355.897C174.763 355.412 174.811 354.928 174.742 354.461C174.673 353.994 174.604 353.527 174.353 353.444C174.236 353.462 174.236 353.462 174.136 353.596C174.037 353.73 173.955 353.98 173.872 354.231C173.708 354.733 173.66 355.217 173.595 355.585C173.482 356.437 173.369 357.288 173.356 358.006C173.312 359.325 173.55 360.126 173.45 360.26Z" fill="#383838"/>
<path d="M173.049 359.96C173.031 359.843 173.663 359.273 175.013 358.715C175.696 358.495 176.613 358.24 177.582 358.336C178.066 358.384 178.55 358.432 179.151 358.462C179.653 358.627 180.388 358.757 180.742 359.54C180.928 359.99 180.63 360.392 180.431 360.66C180.232 360.928 179.881 360.979 179.665 361.131C179.215 361.316 178.648 361.52 178.181 361.588C177.247 361.726 176.278 361.631 175.643 361.367C174.255 360.856 173.65 359.991 173.767 359.973C173.866 359.839 174.553 360.454 175.807 360.865C176.426 361.013 177.278 361.125 178.095 361.005C178.562 360.936 179.012 360.75 179.345 360.581C179.795 360.396 180.111 360.11 180.076 359.877C180.042 359.643 179.523 359.362 179.155 359.297C178.654 359.132 178.169 359.084 177.819 359.136C176.984 359.14 176.15 359.144 175.466 359.364C173.832 359.606 173.066 360.077 173.049 359.96Z" fill="#383838"/>
<path d="M80.0455 398.396L56.0266 427.24L91.7093 457.169C94.3965 453.551 81.6702 431.208 81.6702 431.208L97.7615 413.32L80.0455 398.396Z" fill="#007A87"/>
<path d="M71.9701 420.47C71.0837 420.123 69.9332 420.412 69.5868 421.299C69.1065 422.086 69.5297 423.336 70.4161 423.682C71.3025 424.028 72.6866 423.705 72.9162 422.836C73.2625 421.949 72.7052 420.6 71.8533 420.487" fill="white"/>
<path d="M56.0261 427.239L58.6005 424.472L91.8788 454.279C91.8788 454.279 92.8899 456.278 91.7261 457.285L56.0261 427.239Z" fill="white"/>
<path d="M82.4406 431.571C82.3411 431.705 81.3034 431.143 80.0839 430.965C78.7477 430.804 77.7312 431.193 77.5799 430.977C77.4286 430.76 78.6269 429.987 80.214 430.23C81.7838 430.356 82.6569 431.42 82.4406 431.571Z" fill="#383838"/>
<path d="M84.935 436.335C84.8527 436.586 83.8495 436.257 82.565 436.447C81.3973 436.619 80.5493 437.341 80.398 437.125C80.264 437.025 80.9262 435.853 82.4443 435.629C83.9451 435.288 85.0172 436.084 84.935 436.335Z" fill="#383838"/>
<path d="M83.2251 442.553C83.0911 442.453 83.537 441.433 84.7525 440.776C85.9853 440.236 87.1052 440.548 87.1225 440.664C87.157 440.898 86.0888 440.936 85.0896 441.442C84.0903 441.948 83.4759 442.635 83.2251 442.553Z" fill="#383838"/>
<path d="M85.6055 427.168C85.3892 427.32 84.7668 426.338 83.7119 425.658C82.6397 424.862 81.6365 424.533 81.7188 424.282C81.6843 424.049 83.0033 424.092 84.2095 424.988C85.5325 425.867 85.8218 427.017 85.6055 427.168Z" fill="#383838"/>
<path d="M88.3377 422.226C88.2382 422.36 87.4513 421.879 86.5609 420.698C86.1244 420.166 85.5365 419.418 85.165 418.518C84.9792 418.068 84.7935 417.618 84.6077 417.169C84.5732 416.935 84.4047 416.602 84.4697 416.234C84.418 415.884 84.6993 415.365 85.1664 415.296C85.6163 415.11 86.0011 415.292 86.2691 415.491C86.5372 415.69 86.6884 415.907 86.8397 416.123C87.1422 416.556 87.4448 416.988 87.6305 417.438C88.0021 418.338 88.2396 419.138 88.3603 419.955C88.5673 421.357 88.2382 422.36 88.2209 422.243C88.1041 422.26 88.0829 421.309 87.8932 420.024C87.7897 419.324 87.4354 418.541 87.0812 417.758C86.8954 417.308 86.6101 416.992 86.3076 416.56C86.005 416.127 85.7197 415.811 85.5034 415.962C85.3867 415.98 85.3867 415.98 85.4212 416.213C85.4384 416.33 85.4729 416.563 85.5247 416.914C85.7104 417.364 85.7794 417.831 85.9652 418.281C86.3195 419.064 86.7905 419.829 87.1103 420.379C87.8666 421.46 88.4372 422.092 88.3377 422.226Z" fill="#383838"/>
<path d="M87.9889 422.28C87.8721 422.298 88.0844 421.312 88.9802 420.106C89.3783 419.569 89.9927 418.882 90.8751 418.394C91.3077 418.091 91.7576 417.906 92.2074 417.72C92.6573 417.534 93.3407 417.314 94.1275 417.794C94.5296 418.093 94.5986 418.56 94.4168 418.945C94.3518 419.312 94.1355 419.463 94.0532 419.714C93.7719 420.233 93.4733 420.635 93.0407 420.938C92.3095 421.642 91.4098 422.014 90.7092 422.117C89.2084 422.458 88.322 422.112 88.4215 421.978C88.4042 421.861 89.3729 421.957 90.6229 421.533C91.3063 421.313 91.9725 420.976 92.5869 420.289C92.9027 420.003 93.2013 419.601 93.3831 419.217C93.6817 418.815 93.7294 418.33 93.5954 418.231C93.4614 418.131 92.8603 418.101 92.5272 418.269C92.0774 418.455 91.6275 418.641 91.2944 418.809C90.5288 419.28 89.8971 419.851 89.4818 420.27C88.3525 421.511 87.9889 422.28 87.9889 422.28Z" fill="#383838"/>
<path d="M176.04 223.49C175.157 223.978 166.857 226.755 161.643 243.156C156.411 259.441 158.942 268.494 158.942 268.494L129.902 326.358L65.2645 407.378L92.4191 427.232L160.351 347.515C160.351 347.515 195.789 304.694 199.386 299.152C206.396 288.451 228.554 243.774 228.554 243.774L176.04 223.49Z" fill="#383838"/>
<path d="M198.318 281.413L218.815 315.972L165.884 338.108L173.704 364.397C173.704 364.397 257.808 340.043 261.858 335.149C265.891 330.139 268.375 325.953 267.854 321.616C267.333 317.278 227.262 235.018 227.262 235.018L199.87 263.644L198.318 281.413Z" fill="#383838"/>
<path d="M225.027 246.565C225.027 246.565 225.061 246.799 224.88 247.183C224.715 247.685 224.551 248.187 224.403 248.805C224.026 250.292 223.251 252.316 222.312 254.841C220.433 259.892 217.376 266.667 213.572 274.03C209.884 281.376 206.192 287.888 203.409 292.475C202.085 294.818 200.925 296.66 200.163 297.966C199.765 298.502 199.484 299.021 199.185 299.423C198.986 299.691 198.787 299.959 198.787 299.959C198.787 299.959 198.87 299.708 199.069 299.44C199.25 299.055 199.532 298.536 199.913 297.884C200.657 296.461 201.7 294.637 203.025 292.293C205.673 287.606 209.248 281.112 213.053 273.749C216.741 266.403 219.931 259.727 221.927 254.659C222.867 252.134 223.641 250.111 224.152 248.723C224.416 248.087 224.564 247.469 224.746 247.084C224.945 246.816 225.027 246.565 225.027 246.565Z" fill="#007A87"/>
<path d="M237.283 320.643C237.183 320.777 236.444 319.812 234.953 318.6C234.265 317.986 233.228 317.423 232.19 316.861C231.036 316.315 229.764 315.787 228.411 315.51C227.057 315.232 225.604 315.089 224.402 315.028C223.217 315.084 222.032 315.139 221.115 315.394C219.264 315.787 218.148 316.31 218.131 316.193C218.131 316.193 218.347 316.042 218.897 315.722C219.329 315.419 220.129 315.182 221.046 314.927C221.963 314.672 223.131 314.5 224.433 314.427C225.734 314.354 227.187 314.497 228.558 314.891C230.046 315.268 231.317 315.796 232.471 316.342C233.643 317.004 234.564 317.584 235.269 318.315C235.956 318.93 236.527 319.561 236.829 319.994C237.132 320.426 237.283 320.643 237.283 320.643Z" fill="#007A87"/>
<path d="M235.161 310.337C235.178 310.454 231.779 311.672 227.445 313.028C223.111 314.384 219.56 315.386 219.525 315.152C219.508 315.035 222.908 313.817 227.242 312.461C231.459 311.122 235.027 310.237 235.161 310.337Z" fill="#007A87"/>
<path d="M198.905 299.941C198.905 299.941 198.806 300.075 198.723 300.326C198.524 300.594 198.325 300.862 197.927 301.398C197.23 302.336 196.218 303.56 195.041 305.285C192.553 308.635 188.719 313.378 184.106 319.309C174.747 331.073 161.601 347.094 146.76 364.559C131.919 382.025 118.354 397.631 108.459 408.996C103.561 414.612 99.5929 419.255 96.8367 422.406C95.5084 423.915 94.3791 425.155 93.6824 426.094C93.3838 426.496 93.068 426.781 92.8689 427.049C92.6699 427.317 92.5531 427.334 92.5531 427.334C92.5531 427.334 92.6526 427.2 92.8517 426.932C93.0507 426.664 93.3666 426.379 93.6652 425.977C94.3791 425.155 95.3744 423.815 96.8195 422.289C99.5584 419.021 103.526 414.378 108.307 408.78C118.069 397.315 131.616 381.592 146.475 364.244C161.316 346.778 174.479 330.874 183.955 319.093C188.702 313.261 192.419 308.536 195.024 305.168C196.335 303.543 197.347 302.319 198.044 301.381C198.343 300.979 198.658 300.694 198.857 300.426C198.806 300.075 198.905 299.941 198.905 299.941Z" fill="#007A87"/>
<path d="M304.638 27.7819L309.275 16.3581C309.275 16.3581 310.875 5.3828 311.572 4.44465C312.251 3.38973 313.268 3.00094 313.921 3.3818C314.69 3.74541 324.429 5.05141 325.064 5.31549C325.834 5.6791 325.979 11.5045 325.979 11.5045L326.052 12.8063C326.052 12.8063 329.499 11.1039 331.073 12.0646C331.86 12.545 331.089 15.4033 329.008 16.6652C327.044 17.9098 324.383 20.0926 321.363 23.8797C320.666 24.8179 319.667 25.3234 318.633 25.5954C318.05 25.6817 317.582 25.7506 317.682 25.6166C318.296 24.9293 313.051 34.6532 313.051 34.6532L304.638 27.7819Z" fill="#FFBE9E"/>
<path d="M331.223 12.279C331.123 12.4131 330.57 11.8982 329.419 12.1874C328.369 12.3427 326.919 13.034 325.354 13.7425C323.805 14.5679 322.222 15.1597 321.054 15.3321C319.886 15.5046 319.134 15.2578 319.117 15.141C319.1 15.0242 319.835 15.1543 320.985 14.865C322.136 14.5758 323.485 14.0185 325.034 13.1932C326.582 12.3678 328.165 11.776 329.35 11.7203C329.934 11.6341 330.436 11.7987 330.804 11.8637C331.072 12.0627 331.206 12.1623 331.223 12.279Z" fill="#E38D74"/>
<path d="M317.903 8.521C318.019 8.50375 318.188 8.83682 318.94 9.08366C319.693 9.3305 320.726 9.0585 321.708 8.43618L322.141 8.13363L322.11 8.73475C322.015 9.70343 322.036 10.6549 322.442 11.7881C322.459 11.9049 322.459 11.9049 322.476 12.0217L322.528 12.372L322.178 12.4237C321.594 12.51 320.976 12.3627 320.608 12.2976C320.124 12.2498 319.756 12.1848 319.54 12.3361C319.324 12.4874 319.142 12.8722 319.194 13.2225C319.245 13.5728 319.397 13.7891 319.565 14.1222C319.984 14.5375 320.386 14.8361 320.771 15.0179C321.156 15.1997 321.29 15.2992 321.29 15.2992C321.29 15.2992 321.057 15.3337 320.672 15.1519C320.304 15.0869 319.785 14.8056 319.232 14.2907C318.964 14.0916 318.778 13.6418 318.709 13.1747C318.64 12.7076 318.805 12.206 319.22 11.7867C319.653 11.4842 320.254 11.5147 320.738 11.5625C321.223 11.6103 321.724 11.7748 322.074 11.7231L321.893 12.1079C321.875 11.9911 321.875 11.9911 321.858 11.8744C321.569 10.7239 321.53 9.65565 321.626 8.68696L322.028 8.98555C321.479 9.30533 320.929 9.62512 320.345 9.71136C319.762 9.7976 319.277 9.74981 318.892 9.56801C317.971 8.98809 317.903 8.521 317.903 8.521Z" fill="#E38D74"/>
<path d="M317.632 14.7642C317.498 14.6647 318.125 13.2595 318.351 11.5556C318.464 10.7037 318.46 9.86908 318.274 9.41923C318.071 8.85261 317.686 8.6708 317.803 8.65355C317.786 8.53678 318.287 8.70133 318.724 9.23346C319.161 9.76558 319.199 10.8338 319.086 11.6857C318.644 13.5408 317.766 14.8638 317.632 14.7642Z" fill="#E38D74"/>
<path d="M219.837 46.6304C222.848 44.3959 226.127 42.3604 229.747 41.8257C233.467 41.157 237.527 41.9891 240.078 44.7148C242.057 46.8088 243.206 49.7414 245.701 51.2821C249.099 53.2859 253.498 51.5623 257.455 51.6938C258.29 51.6898 259.159 51.9194 259.513 52.7023C259.85 53.3685 259.487 54.1381 259.206 54.657C258.214 56.8318 257.206 58.8899 256.214 61.0648C257.87 61.7748 259.907 61.8319 261.555 60.8726C261.342 65.0804 259.675 69.1448 256.919 72.2963C257.684 71.8253 258.705 72.2712 259.059 73.0541C259.413 73.837 259.318 74.8057 259.071 75.5581C257.676 80.6562 254.041 85.1307 249.262 87.5072C244.482 89.8837 238.773 90.0109 233.805 87.881" fill="#383838"/>
<path d="M221.972 45.7189C217.752 43.0012 211.645 43.6645 208.123 47.287C205.631 49.8029 204.462 53.1972 203.025 56.3926C201.588 59.5879 199.549 62.7526 196.266 63.9535C193.65 64.8172 190.475 64.3315 188.027 65.5283C185.246 66.8937 184.077 70.2881 184.158 73.2592C184.256 76.347 185.504 79.1457 186.753 81.9443C185.308 83.4702 183.175 84.3818 181.022 84.342C182.033 86.3404 183.727 88.1186 185.768 89.0104C187.057 89.6553 188.544 90.0322 189.534 91.0792C190.524 92.1262 190.964 93.493 191.288 94.877C192.039 98.3458 195.77 100.181 199.019 98.7467C200.468 98.0554 201.8 97.3813 203.63 96.0371C203.63 96.0371 202.323 98.4973 205.254 100.57C207.322 100.026 209 98.4656 209.775 96.442" fill="#383838"/>
<path d="M246.195 66.7214C245.758 55.689 236.953 46.9666 225.916 46.5682L224.831 46.4899C213.046 46.6793 206.667 56.8092 207.224 68.6591L207.365 122.93L234.363 123.953L234.747 106.356C234.747 106.356 246.126 105.034 246.723 93.7293C246.864 88.2197 246.51 76.9364 246.195 66.7214Z" fill="#FFBE9E"/>
<path d="M241.424 74.8251C241.428 75.6598 240.696 76.3644 239.745 76.3856C238.91 76.3895 238.089 75.6756 238.085 74.841C238.081 74.0063 238.812 73.3017 239.764 73.2805C240.715 73.2593 241.42 73.9905 241.424 74.8251Z" fill="#383838"/>
<path d="M243.531 72.1286C243.314 72.2798 242.108 71.3841 240.422 71.2752C238.735 71.1664 237.437 72.074 237.152 71.7582C237.018 71.6586 237.317 71.2566 237.866 70.9368C238.415 70.617 239.432 70.2282 240.5 70.1898C241.586 70.2681 242.472 70.6144 243.025 71.1293C243.462 71.6615 243.648 72.1113 243.531 72.1286Z" fill="#383838"/>
<path d="M226.088 76.0163C225.871 76.1675 224.665 75.2718 222.979 75.1629C221.292 75.0541 219.994 75.9617 219.709 75.6459C219.575 75.5463 219.874 75.1443 220.423 74.8245C220.972 74.5047 221.989 74.1159 223.057 74.0775C224.142 74.1558 225.029 74.5022 225.582 75.017C226.019 75.5492 226.187 75.8822 226.088 76.0163Z" fill="#383838"/>
<path d="M232.174 84.9026C232.157 84.7858 233.208 84.6306 234.977 84.4886C235.444 84.4196 235.794 84.3679 235.877 84.1171C235.942 83.7495 235.873 83.2825 235.687 82.8326C235.281 81.6994 234.875 80.5661 234.469 79.4329C232.793 74.5496 231.722 70.5315 231.839 70.5142C232.072 70.4797 233.476 74.3293 235.152 79.2126C235.575 80.4626 235.981 81.5959 236.253 82.6296C236.439 83.0794 236.659 83.7628 236.395 84.3984C236.214 84.7833 235.881 84.9518 235.647 84.9863C235.297 85.038 235.063 85.0725 234.946 85.0897C233.277 85.0977 232.192 85.0193 232.174 84.9026Z" fill="#383838"/>
<path d="M227.07 85.8927C227.304 85.8582 227.229 87.7783 228.872 89.2062C230.398 90.6513 232.4 90.4748 232.435 90.7084C232.452 90.8252 232.002 91.0109 231.168 91.0149C230.333 91.0188 229.096 90.7242 228.124 89.794C227.168 88.9805 226.762 87.8473 226.758 87.0126C226.672 86.4287 226.953 85.9099 227.07 85.8927Z" fill="#383838"/>
<path d="M226.715 67.3305C226.55 67.8321 224.864 67.7232 222.779 68.1504C220.794 68.4437 219.111 69.1695 218.826 68.8536C218.675 68.6373 218.973 68.2353 219.605 67.6647C220.254 67.2109 221.253 66.7053 222.404 66.4161C223.571 66.2436 224.774 66.3047 225.526 66.5515C226.395 66.7811 226.814 67.1965 226.715 67.3305Z" fill="#383838"/>
<path d="M243.616 65.4318C243.201 65.8511 241.813 65.3402 240.01 65.2486C238.206 65.157 236.688 65.3812 236.386 64.9486C236.234 64.7323 236.533 64.3302 237.199 63.9932C237.865 63.6562 238.899 63.3842 240.101 63.4452C241.303 63.5063 242.324 63.9522 242.977 64.3331C243.647 64.8307 243.833 65.2805 243.616 65.4318Z" fill="#383838"/>
<path d="M208.583 77.0496C208.449 76.9501 200.925 74.4817 200.861 82.1277C200.814 89.8905 208.569 88.2678 208.552 88.151C208.634 87.9003 208.583 77.0496 208.583 77.0496Z" fill="#FFBE9E"/>
<path d="M206.934 85.286C206.934 85.286 206.834 85.42 206.601 85.4545C206.384 85.6058 206.034 85.6575 205.649 85.4757C204.88 85.1121 204.106 83.9138 204.133 82.478C204.146 81.7602 204.293 81.1418 204.557 80.5062C204.839 79.9874 205.137 79.5853 205.604 79.5163C206.071 79.4473 206.339 79.6464 206.374 79.8799C206.525 80.0962 206.426 80.2302 206.426 80.2302C206.426 80.2302 206.642 80.079 206.473 79.7459C206.456 79.6291 206.305 79.4128 206.171 79.3133C206.02 79.097 205.652 79.0319 205.419 79.0664C204.835 79.1527 204.303 79.5892 204.038 80.2249C203.774 80.8605 203.528 81.6129 203.514 82.3307C203.505 83.8833 204.313 85.3151 205.45 85.7438C205.952 85.9083 206.402 85.7226 206.735 85.554C206.951 85.4028 206.934 85.286 206.934 85.286Z" fill="#E38D74"/>
<path d="M216.618 53.9066C218.936 53.4449 221.258 53.8178 223.234 55.0772L224.54 55.8389L244.67 58.8317C249.467 56.572 246.424 52.1292 242.26 50.5965C237.344 48.8169 231.784 45.1039 226.491 44.8118C221.198 44.5197 212.08 47.4176 208.285 53.2283C206.047 56.6611 205.527 59.6017 205.527 59.6017C204.829 63.7617 204.769 72.2423 205.606 76.2949C206.033 78.3796 207.965 80.958 207.965 80.958C209.769 81.0496 210.396 79.6444 210.254 77.8755L210.188 70.9646C210.188 70.9646 216.396 66.9454 213.787 58.9782C213.787 58.9782 213.805 59.095 213.787 58.9782C212.625 56.7635 214.032 54.1693 216.618 53.9066Z" fill="#383838"/>
<path d="M213.407 56.4104C213.879 53.9542 217.962 52.5159 220.336 53.2391C222.727 54.0792 224.456 56.0909 226.268 57.8518C228.079 59.6128 230.241 61.322 232.844 61.1761C235.448 61.0302 238.026 59.0982 240.534 59.921C241.671 60.3496 242.51 61.1803 243.53 61.6262C245.186 62.3362 247.055 62.0602 248.72 61.2176C250.269 60.3923 251.631 59.1171 252.877 57.8592C247.869 57.8829 243.317 55.3337 238.898 52.884C234.596 50.4171 230.043 47.8678 225.1 47.524C220.157 47.1802 214.577 49.7942 213.265 54.6416" fill="#383838"/>
<path d="M191.537 90.902C191.537 90.902 191.788 90.9843 192.272 91.0321C192.756 91.0799 193.457 90.9764 194.205 90.3886C194.954 89.8007 195.4 88.7803 195.327 87.4785C195.254 86.1768 194.58 84.8445 193.672 83.5467C192.765 82.2489 191.589 80.752 190.829 78.8358C190.086 77.0365 189.741 74.701 190.866 72.6256C191.429 71.588 192.259 70.7493 193.375 70.2265C194.491 69.7037 195.642 69.4145 196.81 69.242C199.145 68.8971 201.783 68.9847 203.898 67.9564C205.014 67.4336 205.845 66.5949 206.408 65.5573C206.97 64.5196 207.148 63.3001 207.209 62.0979C207.349 59.8102 206.77 57.5092 206.793 55.2388C206.871 54.1533 206.949 53.0678 207.261 51.9479C207.59 50.9447 208.287 50.0066 209.035 49.4187C210.632 48.1091 212.617 47.8158 214.321 48.0415C216.025 48.2671 217.43 48.8948 218.602 49.557C219.773 50.2192 220.612 51.0499 221.299 51.6643C221.987 52.2787 222.54 52.7936 222.825 53.1094C223.11 53.4252 223.379 53.6243 223.262 53.6415C223.262 53.6415 222.994 53.4425 222.708 53.1266C222.289 52.7113 221.753 52.3132 221.066 51.6988C220.378 51.0844 219.44 50.3877 218.385 49.7082C217.214 49.0461 215.925 48.4011 214.238 48.2923C212.669 48.1662 210.8 48.4421 209.303 49.6178C207.807 50.7934 207.282 52.8993 207.243 55.053C207.203 57.2067 207.781 59.5076 207.659 61.9121C207.598 63.1143 207.42 64.3338 206.892 65.6051C206.347 66.7595 205.299 67.7494 204.067 68.2894C201.601 69.3695 199.08 69.2646 196.744 69.6096C195.577 69.7821 194.426 70.0713 193.427 70.5769C192.428 71.0824 191.58 71.8043 191.117 72.7079C190.208 74.632 190.401 76.7512 191.028 78.5678C191.771 80.3672 192.812 81.7645 193.737 83.1791C194.662 84.5937 195.353 86.0427 195.426 87.3445C195.517 88.763 194.971 89.9175 194.106 90.5226C193.357 91.1104 192.54 91.2311 192.038 91.0666C191.688 91.1183 191.537 90.902 191.537 90.902Z" fill="#007A87"/>
<path d="M252.824 53.4541C252.824 53.4541 252.725 53.5881 252.509 53.7393C252.292 53.8906 252.093 54.1587 251.661 54.4612C250.895 54.9323 249.563 55.6063 247.776 55.6315C246.008 55.7734 243.802 55.3832 241.926 53.9899C240.988 53.2932 240.132 52.3457 239.492 51.2469C238.853 50.1482 238.33 49.0322 237.474 48.0847C235.862 46.0557 233.371 45.3497 231.135 45.5607C228.899 45.7716 227.32 47.198 226.325 48.5383C225.464 49.978 225.069 51.3487 225.091 52.3002C224.995 53.2689 225.181 53.7187 225.064 53.736C225.064 53.736 225.047 53.6192 224.896 53.4029C224.861 53.1693 224.809 52.819 224.74 52.3519C224.719 51.4005 224.979 49.9302 225.823 48.3737C226.685 46.934 228.48 45.3562 230.815 45.0113C233.151 44.6663 235.91 45.5714 237.656 47.6999C238.529 48.7642 239.069 49.9969 239.691 50.9789C240.331 52.0777 241.053 52.9256 241.874 53.6395C243.616 54.9334 245.705 55.3408 247.374 55.3329C249.044 55.325 250.393 54.7677 251.159 54.2966C252.392 53.7566 252.708 53.4713 252.824 53.4541Z" fill="#007A87"/>
<path d="M196.7 60.4303C196.7 60.4303 196.8 60.2963 196.882 60.0455C196.964 59.7947 196.895 59.3276 196.709 58.8778C196.407 58.4452 195.854 57.9303 195.17 58.1506C194.47 58.2541 193.738 58.9586 193.643 59.9273C193.547 60.896 194.053 61.8952 195.09 62.4579C196.011 63.0378 197.313 62.9649 198.563 62.5416C199.813 62.1183 200.877 61.2452 201.674 60.173C202.453 58.9841 202.829 57.4966 202.973 56.0435C203.216 54.4565 203.476 52.9862 204.104 51.581C204.731 50.1757 205.627 48.9695 206.557 47.9969C208.534 46.0344 210.9 45.0883 213.002 44.7778C215.104 44.4674 216.691 44.7102 217.811 45.0221C218.313 45.1867 218.814 45.3512 219.065 45.4335C219.316 45.5158 219.45 45.6153 219.45 45.6153C219.45 45.6153 218.832 45.468 217.712 45.1561C216.609 44.961 214.905 44.7354 212.937 45.1454C210.952 45.4386 208.72 46.4842 206.86 48.4295C205.929 49.4021 205.133 50.4743 204.488 51.7628C203.843 53.0512 203.583 54.5215 203.34 56.1086C203.08 57.5788 202.837 59.1659 201.842 60.5061C200.964 61.8291 199.783 62.7194 198.416 63.16C197.049 63.6005 195.613 63.5739 194.442 62.9117C193.27 62.2495 192.613 61.034 192.808 59.9313C193.003 58.8286 193.851 58.1067 194.785 57.9688C195.252 57.8998 195.62 57.9648 196.022 58.2634C196.29 58.4624 196.575 58.7783 196.727 58.9946C197.046 59.5439 196.999 60.0283 196.8 60.2963C196.817 60.4131 196.7 60.4303 196.7 60.4303Z" fill="#383838"/>
<path d="M219.837 46.6304C222.848 44.3959 226.127 42.3604 229.747 41.8257C233.467 41.157 237.527 41.9891 240.078 44.7148C242.057 46.8088 243.206 49.7414 245.701 51.2821C249.099 53.2859 253.498 51.5623 257.455 51.6938C258.29 51.6898 259.159 51.9194 259.513 52.7023C259.85 53.3685 259.487 54.1381 259.206 54.657C258.214 56.8318 257.206 58.8899 256.214 61.0648C257.87 61.7748 259.907 61.8319 261.555 60.8726C261.342 65.0804 259.675 69.1448 256.919 72.2963C257.684 71.8253 258.705 72.2712 259.059 73.0541C259.413 73.837 259.318 74.8057 259.071 75.5581C257.676 80.6562 254.041 85.1307 249.262 87.5072C244.482 89.8837 238.773 90.0109 233.805 87.881" fill="#383838"/>
<path d="M221.972 45.7189C217.752 43.0012 211.645 43.6645 208.123 47.287C205.631 49.8029 204.462 53.1972 203.025 56.3926C201.588 59.5879 199.549 62.7526 196.266 63.9535C193.65 64.8172 190.475 64.3315 188.027 65.5283C185.246 66.8937 184.077 70.2881 184.158 73.2592C184.256 76.347 185.504 79.1457 186.753 81.9443C185.308 83.4702 183.175 84.3818 181.022 84.342C182.033 86.3404 183.727 88.1186 185.768 89.0104C187.057 89.6553 188.544 90.0322 189.534 91.0792C190.524 92.1262 190.964 93.493 191.288 94.877C192.039 98.3458 195.77 100.181 199.019 98.7467C200.468 98.0554 201.8 97.3813 203.63 96.0371C203.63 96.0371 202.323 98.4973 205.254 100.57C207.322 100.026 209 98.4656 209.775 96.442" fill="#383838"/>
<path d="M246.195 66.7214C245.758 55.689 236.953 46.9666 225.916 46.5682L224.831 46.4899C213.046 46.6793 206.667 56.8092 207.224 68.6591L207.365 122.93L234.363 123.953L234.747 106.356C234.747 106.356 246.126 105.034 246.723 93.7293C246.864 88.2197 246.51 76.9364 246.195 66.7214Z" fill="#FFBE9E"/>
<path d="M234.728 106.24C234.728 106.24 227.467 106.358 220.048 101.369C220.048 101.369 223.175 109.617 234.541 109.012L234.728 106.24Z" fill="#E38D74"/>
<path d="M241.424 74.8251C241.428 75.6598 240.696 76.3644 239.745 76.3856C238.91 76.3895 238.089 75.6756 238.085 74.841C238.081 74.0063 238.812 73.3017 239.764 73.2805C240.715 73.2593 241.42 73.9905 241.424 74.8251Z" fill="#383838"/>
<path d="M243.531 72.1286C243.314 72.2798 242.108 71.3841 240.422 71.2752C238.735 71.1664 237.437 72.074 237.152 71.7582C237.018 71.6586 237.317 71.2566 237.866 70.9368C238.415 70.617 239.432 70.2282 240.5 70.1898C241.586 70.2681 242.472 70.6144 243.025 71.1293C243.462 71.6615 243.648 72.1113 243.531 72.1286Z" fill="#383838"/>
<path d="M226.088 76.0163C225.871 76.1675 224.665 75.2718 222.979 75.1629C221.292 75.0541 219.994 75.9617 219.709 75.6459C219.575 75.5463 219.874 75.1443 220.423 74.8245C220.972 74.5047 221.989 74.1159 223.057 74.0775C224.142 74.1558 225.029 74.5022 225.582 75.017C226.019 75.5492 226.187 75.8822 226.088 76.0163Z" fill="#383838"/>
<path d="M232.174 84.9026C232.157 84.7858 233.208 84.6306 234.977 84.4886C235.444 84.4196 235.794 84.3679 235.877 84.1171C235.942 83.7495 235.873 83.2825 235.687 82.8326C235.281 81.6994 234.875 80.5661 234.469 79.4329C232.793 74.5496 231.722 70.5315 231.839 70.5142C232.072 70.4797 233.476 74.3293 235.152 79.2126C235.575 80.4626 235.981 81.5959 236.253 82.6296C236.439 83.0794 236.659 83.7628 236.395 84.3984C236.214 84.7833 235.881 84.9518 235.647 84.9863C235.297 85.038 235.063 85.0725 234.946 85.0897C233.277 85.0977 232.192 85.0193 232.174 84.9026Z" fill="#383838"/>
<path d="M227.07 85.8927C227.304 85.8582 227.229 87.7783 228.872 89.2062C230.398 90.6513 232.4 90.4748 232.435 90.7084C232.452 90.8252 232.002 91.0109 231.168 91.0149C230.333 91.0188 229.096 90.7242 228.124 89.794C227.168 88.9805 226.762 87.8473 226.758 87.0126C226.672 86.4287 226.953 85.9099 227.07 85.8927Z" fill="#383838"/>
<path d="M226.715 67.3305C226.55 67.8321 224.864 67.7232 222.779 68.1504C220.794 68.4437 219.111 69.1695 218.826 68.8536C218.675 68.6373 218.973 68.2353 219.605 67.6647C220.254 67.2109 221.253 66.7053 222.404 66.4161C223.571 66.2436 224.774 66.3047 225.526 66.5515C226.395 66.7811 226.814 67.1965 226.715 67.3305Z" fill="#383838"/>
<path d="M243.616 65.4318C243.201 65.8511 241.813 65.3402 240.01 65.2486C238.206 65.157 236.688 65.3812 236.386 64.9486C236.234 64.7323 236.533 64.3302 237.199 63.9932C237.865 63.6562 238.899 63.3842 240.101 63.4452C241.303 63.5063 242.324 63.9522 242.977 64.3331C243.647 64.8307 243.833 65.2805 243.616 65.4318Z" fill="#383838"/>
<path d="M208.583 77.0496C208.449 76.9501 200.925 74.4817 200.861 82.1277C200.814 89.8905 208.569 88.2678 208.552 88.151C208.634 87.9003 208.583 77.0496 208.583 77.0496Z" fill="#FFBE9E"/>
<path d="M206.934 85.286C206.934 85.286 206.834 85.42 206.601 85.4545C206.384 85.6058 206.034 85.6575 205.649 85.4757C204.88 85.1121 204.106 83.9138 204.133 82.478C204.146 81.7602 204.293 81.1418 204.557 80.5062C204.839 79.9874 205.137 79.5853 205.604 79.5163C206.071 79.4473 206.339 79.6464 206.374 79.8799C206.525 80.0962 206.426 80.2302 206.426 80.2302C206.426 80.2302 206.642 80.079 206.473 79.7459C206.456 79.6291 206.305 79.4128 206.171 79.3133C206.02 79.097 205.652 79.0319 205.419 79.0664C204.835 79.1527 204.303 79.5892 204.038 80.2249C203.774 80.8605 203.528 81.6129 203.514 82.3307C203.505 83.8833 204.313 85.3151 205.45 85.7438C205.952 85.9083 206.402 85.7226 206.735 85.554C206.951 85.4028 206.934 85.286 206.934 85.286Z" fill="#E38D74"/>
<path d="M216.618 53.9066C218.936 53.4449 221.258 53.8178 223.234 55.0772L224.54 55.8389L244.67 58.8317C249.467 56.572 246.424 52.1292 242.26 50.5965C237.344 48.8169 231.784 45.1039 226.491 44.8118C221.198 44.5197 212.08 47.4176 208.285 53.2283C206.047 56.6611 205.527 59.6017 205.527 59.6017C204.829 63.7617 204.769 72.2423 205.606 76.2949C206.033 78.3796 207.965 80.958 207.965 80.958C209.769 81.0496 210.396 79.6444 210.254 77.8755L210.188 70.9646C210.188 70.9646 216.396 66.9454 213.787 58.9782C213.787 58.9782 213.805 59.095 213.787 58.9782C212.625 56.7635 214.032 54.1693 216.618 53.9066Z" fill="#383838"/>
<path d="M213.407 56.4104C213.879 53.9542 217.962 52.5159 220.336 53.2391C222.727 54.0792 224.456 56.0909 226.268 57.8518C228.079 59.6128 230.241 61.322 232.844 61.1761C235.448 61.0302 238.026 59.0982 240.534 59.921C241.671 60.3496 242.51 61.1803 243.53 61.6262C245.186 62.3362 247.055 62.0602 248.72 61.2176C250.269 60.3923 251.631 59.1171 252.877 57.8592C247.869 57.8829 243.317 55.3337 238.898 52.884C234.596 50.4171 230.043 47.8678 225.1 47.524C220.157 47.1802 214.577 49.7942 213.265 54.6416" fill="#383838"/>
<path d="M191.537 90.902C191.537 90.902 191.788 90.9843 192.272 91.0321C192.756 91.0799 193.457 90.9764 194.205 90.3886C194.954 89.8007 195.4 88.7803 195.327 87.4785C195.254 86.1768 194.58 84.8445 193.672 83.5467C192.765 82.2489 191.589 80.752 190.829 78.8358C190.086 77.0365 189.741 74.701 190.866 72.6256C191.429 71.588 192.259 70.7493 193.375 70.2265C194.491 69.7037 195.642 69.4145 196.81 69.242C199.145 68.8971 201.783 68.9847 203.898 67.9564C205.014 67.4336 205.845 66.5949 206.408 65.5573C206.97 64.5196 207.148 63.3001 207.209 62.0979C207.349 59.8102 206.77 57.5092 206.793 55.2388C206.871 54.1533 206.949 53.0678 207.261 51.9479C207.59 50.9447 208.287 50.0066 209.035 49.4187C210.632 48.1091 212.617 47.8158 214.321 48.0415C216.025 48.2671 217.43 48.8948 218.602 49.557C219.773 50.2192 220.612 51.0499 221.299 51.6643C221.987 52.2787 222.54 52.7936 222.825 53.1094C223.11 53.4252 223.379 53.6243 223.262 53.6415C223.262 53.6415 222.994 53.4425 222.708 53.1266C222.289 52.7113 221.753 52.3132 221.066 51.6988C220.378 51.0844 219.44 50.3877 218.385 49.7082C217.214 49.0461 215.925 48.4011 214.238 48.2923C212.669 48.1662 210.8 48.4421 209.303 49.6178C207.807 50.7934 207.282 52.8993 207.243 55.053C207.203 57.2067 207.781 59.5076 207.659 61.9121C207.598 63.1143 207.42 64.3338 206.892 65.6051C206.347 66.7595 205.299 67.7494 204.067 68.2894C201.601 69.3695 199.08 69.2646 196.744 69.6096C195.577 69.7821 194.426 70.0713 193.427 70.5769C192.428 71.0824 191.58 71.8043 191.117 72.7079C190.208 74.632 190.401 76.7512 191.028 78.5678C191.771 80.3672 192.812 81.7645 193.737 83.1791C194.662 84.5937 195.353 86.0427 195.426 87.3445C195.517 88.763 194.971 89.9175 194.106 90.5226C193.357 91.1104 192.54 91.2311 192.038 91.0666C191.688 91.1183 191.537 90.902 191.537 90.902Z" fill="#007A87"/>
<path d="M252.824 53.4541C252.824 53.4541 252.725 53.5881 252.509 53.7393C252.292 53.8906 252.093 54.1587 251.661 54.4612C250.895 54.9323 249.563 55.6063 247.776 55.6315C246.008 55.7734 243.802 55.3832 241.926 53.9899C240.988 53.2932 240.132 52.3457 239.492 51.2469C238.853 50.1482 238.33 49.0322 237.474 48.0847C235.862 46.0557 233.371 45.3497 231.135 45.5607C228.899 45.7716 227.32 47.198 226.325 48.5383C225.464 49.978 225.069 51.3487 225.091 52.3002C224.995 53.2689 225.181 53.7187 225.064 53.736C225.064 53.736 225.047 53.6192 224.896 53.4029C224.861 53.1693 224.809 52.819 224.74 52.3519C224.719 51.4005 224.979 49.9302 225.823 48.3737C226.685 46.934 228.48 45.3562 230.815 45.0113C233.151 44.6663 235.91 45.5714 237.656 47.6999C238.529 48.7642 239.069 49.9969 239.691 50.9789C240.331 52.0777 241.053 52.9256 241.874 53.6395C243.616 54.9334 245.705 55.3408 247.374 55.3329C249.044 55.325 250.393 54.7677 251.159 54.2966C252.392 53.7566 252.708 53.4713 252.824 53.4541Z" fill="#007A87"/>
<path d="M196.7 60.4303C196.7 60.4303 196.8 60.2963 196.882 60.0455C196.964 59.7947 196.895 59.3276 196.709 58.8778C196.407 58.4452 195.854 57.9303 195.17 58.1506C194.47 58.2541 193.738 58.9586 193.643 59.9273C193.547 60.896 194.053 61.8952 195.09 62.4579C196.011 63.0378 197.313 62.9649 198.563 62.5416C199.813 62.1183 200.877 61.2452 201.674 60.173C202.453 58.9841 202.829 57.4966 202.973 56.0435C203.216 54.4565 203.476 52.9862 204.104 51.581C204.731 50.1757 205.627 48.9695 206.557 47.9969C208.534 46.0344 210.9 45.0883 213.002 44.7778C215.104 44.4674 216.691 44.7102 217.811 45.0221C218.313 45.1867 218.814 45.3512 219.065 45.4335C219.316 45.5158 219.45 45.6153 219.45 45.6153C219.45 45.6153 218.832 45.468 217.712 45.1561C216.609 44.961 214.905 44.7354 212.937 45.1454C210.952 45.4386 208.72 46.4842 206.86 48.4295C205.929 49.4021 205.133 50.4743 204.488 51.7628C203.843 53.0512 203.583 54.5215 203.34 56.1086C203.08 57.5788 202.837 59.1659 201.842 60.5061C200.964 61.8291 199.783 62.7194 198.416 63.16C197.049 63.6005 195.613 63.5739 194.442 62.9117C193.27 62.2495 192.613 61.034 192.808 59.9313C193.003 58.8286 193.851 58.1067 194.785 57.9688C195.252 57.8998 195.62 57.9648 196.022 58.2634C196.29 58.4624 196.575 58.7783 196.727 58.9946C197.046 59.5439 196.999 60.0283 196.8 60.2963C196.817 60.4131 196.7 60.4303 196.7 60.4303Z" fill="#383838"/>
<path d="M234.728 106.24C234.728 106.24 227.467 106.358 220.048 101.369C220.048 101.369 223.175 109.617 234.541 109.012L234.728 106.24Z" fill="#E38D74"/>
<path d="M137.907 286.04C137.907 286.04 137.83 273.403 127.45 274.22C117.054 274.92 116.28 284.222 116.28 284.222L111.834 283.208C111.834 283.208 114.193 270.093 128.689 271.293C143.301 272.475 142.136 287.205 142.136 287.205L137.907 286.04Z" fill="#00D1C1"/>
<g opacity="0.3">
<path opacity="0.3" d="M137.907 286.04C137.907 286.04 137.83 273.403 127.45 274.22C117.054 274.92 116.28 284.222 116.28 284.222L111.834 283.208C111.834 283.208 114.193 270.093 128.689 271.293C143.301 272.475 142.136 287.205 142.136 287.205L137.907 286.04Z" fill="#383838"/>
</g>
<path d="M89.6191 279.809L84.1743 339.08L162.695 344.784L167.158 286.135L89.6191 279.809Z" fill="#00D1C1"/>
<path d="M167.156 286.134C167.156 286.134 167.173 286.25 166.957 286.402C166.857 286.536 166.658 286.804 166.459 287.072C165.944 287.625 165.347 288.429 164.434 289.519C162.708 291.564 160.185 294.681 156.897 298.269C153.609 301.857 149.706 306.132 144.432 310.013C141.837 311.829 138.874 313.579 135.491 314.914C132.225 316.231 128.523 317.017 124.817 316.967C120.994 316.935 117.383 315.918 114.171 314.364C110.958 312.81 108.161 310.836 105.796 308.561C101.084 304.126 97.9382 298.982 95.7648 294.769C93.5741 290.439 92.0707 286.724 91.1074 284.241C90.6841 282.991 90.2954 281.974 89.9583 281.308C89.7898 280.975 89.7553 280.742 89.7208 280.508C89.6863 280.274 89.6863 280.274 89.6863 280.274C89.6863 280.274 89.7036 280.391 89.8376 280.491C89.8721 280.724 90.0233 280.941 90.1919 281.274C90.5289 281.94 90.9177 282.956 91.4577 284.189C92.5378 286.655 94.0412 290.37 96.2319 294.7C98.5394 299.013 101.534 303.94 106.246 308.375C108.594 310.534 111.391 312.507 114.469 313.962C117.548 315.416 121.158 316.434 124.865 316.483C128.571 316.532 132.156 315.764 135.305 314.464C138.588 313.263 141.435 311.53 144.147 309.697C149.321 305.95 153.341 301.658 156.646 298.186C159.934 294.598 162.474 291.598 164.318 289.536C165.248 288.563 165.845 287.759 166.36 287.206C166.559 286.938 166.775 286.787 166.875 286.653C167.039 286.151 167.156 286.134 167.156 286.134Z" fill="#383838"/>
<path d="M151.839 344C151.705 343.901 154.734 331.282 158.633 315.672C162.532 300.062 165.928 287.509 166.045 287.491C166.179 287.591 163.15 300.209 159.251 315.819C155.352 331.43 152.09 344.082 151.839 344Z" fill="#383838"/>
<path d="M166.74 286.554C166.74 286.554 166.775 286.788 166.71 287.155C166.662 287.64 166.614 288.124 166.601 288.842C166.457 290.295 166.184 292.483 165.846 295.039C165.186 300.267 164.119 307.584 162.905 315.519C161.69 323.454 160.606 330.655 159.713 335.917C159.374 338.473 159.083 340.544 158.841 342.131C158.711 342.867 158.663 343.351 158.615 343.835C158.55 344.203 158.468 344.454 158.468 344.454C158.468 344.454 158.433 344.22 158.498 343.853C158.546 343.368 158.594 342.884 158.607 342.166C158.75 340.713 159.024 338.525 159.362 335.969C160.022 330.741 161.089 323.424 162.303 315.489C163.518 307.553 164.602 300.353 165.495 295.091C165.834 292.535 166.124 290.463 166.367 288.876C166.497 288.141 166.545 287.657 166.593 287.173C166.658 286.805 166.74 286.554 166.74 286.554Z" fill="#383838"/>
<path d="M124.019 314.59L121.66 314.504L121.501 318.869L123.86 318.955L124.019 314.59Z" fill="#383838"/>
<path d="M167.158 286.135C167.158 286.135 166.924 286.17 166.323 286.139C165.722 286.109 165.004 286.096 164.035 286C161.981 285.826 159.209 285.639 155.719 285.438C148.605 284.938 139.07 284.199 128.449 283.381C117.81 282.446 108.158 281.724 101.144 281.09C97.7532 280.755 94.8472 280.469 92.9098 280.278C91.9411 280.182 91.206 280.052 90.6049 280.021C90.1205 279.974 89.8697 279.891 89.8697 279.891C89.8697 279.891 90.1033 279.857 90.7044 279.887C91.3055 279.918 92.0234 279.931 92.9921 280.027C95.0462 280.201 97.8183 280.388 101.308 280.588C108.422 281.089 117.958 281.828 128.695 282.629C139.334 283.563 148.986 284.285 156 284.92C159.391 285.254 162.297 285.541 164.234 285.732C165.203 285.828 165.938 285.958 166.539 285.988C166.907 286.053 167.158 286.135 167.158 286.135Z" fill="#383838"/>
<path d="M125.788 250.839C125.788 250.839 119.862 264.84 119.588 267.028C119.315 269.216 116.861 272.801 119.386 273.74C119.386 273.74 118.81 275.496 121.669 276.267C121.669 276.267 121.516 279.272 125.188 279.088C125.188 279.088 127.587 281.597 129.702 280.569C129.702 280.569 132.815 282.257 134.157 280.03C135.615 277.786 137.117 274.224 137.117 274.224L139.045 275.967C139.045 275.967 140.352 273.507 139.939 270.705C139.525 267.902 136.118 264.229 137.154 260.735C138.024 257.743 138.422 257.207 138.422 257.207L125.788 250.839Z" fill="#FFBE9E"/>
<g opacity="0.3">
<g opacity="0.3">
<path opacity="0.3" d="M150.119 304.881C147.063 311.656 141.797 317.206 135.758 321.559C131.449 324.701 126.068 327.047 120.823 326.27C116.178 325.525 112.257 322.405 109.136 319.047C102.644 312.251 98.0287 303.625 95.9482 294.387C95.9482 294.387 108.091 316.816 123.262 316.126C138.451 315.553 150.119 304.881 150.119 304.881Z" fill="#383838"/>
</g>
</g>
<path d="M121.814 243.311L127.829 254.951L135.608 237.336L129.827 225.661L121.814 243.311Z" fill="#007A87"/>
<path d="M304.171 24.6249L307.482 18.7665L318.259 27.9135L315.41 36.0903L304.171 24.6249Z" fill="#FAFAFA"/>
<path d="M304.173 24.6256C304.173 24.6256 304.575 24.9242 305.128 25.439C305.816 26.0534 306.538 26.9014 307.51 27.8316C309.59 29.7916 312.408 32.7163 315.628 35.9396L315.161 36.0086C315.82 34.0023 316.577 31.8619 317.335 29.7215C317.599 29.0859 317.747 28.4675 318.011 27.8319L318.062 28.1822C313.839 24.6298 310.134 21.3587 307.268 18.9184L307.618 18.8666C306.558 20.5744 305.796 21.8801 305.117 22.935C304.554 23.9727 304.29 24.6083 304.173 24.6256C304.173 24.6256 304.454 24.1067 304.9 23.0863C305.463 22.0486 306.207 20.6262 307.25 18.8016L307.333 18.5508L307.484 18.7671C310.333 21.0907 314.137 24.2278 318.378 27.8969L318.512 27.9965L318.43 28.2473C318.166 28.8829 318.019 29.5012 317.754 30.1368C317.014 32.394 316.239 34.4176 315.581 36.424L315.416 36.9256L315.131 36.6097C311.876 33.1529 309.057 30.2282 307.078 28.1342C306.222 27.1867 305.383 26.356 304.813 25.7243C304.441 24.8246 304.173 24.6256 304.173 24.6256Z" fill="#383838"/>
<path d="M121.252 248.405C121.252 248.405 118.714 255.462 118.615 255.596L136.957 261.835L138.304 257.222L121.252 248.405Z" fill="#FAFAFA"/>
<path d="M121.255 248.407C121.255 248.407 121.64 248.588 122.526 248.935C123.43 249.398 124.584 249.943 126.124 250.671C129.202 252.125 133.47 254.358 138.507 256.955L138.758 257.038L138.675 257.288C138.298 258.776 137.805 260.281 137.328 261.902L137.263 262.27L137.012 262.188C136.511 262.023 136.126 261.841 135.624 261.677C128.97 259.438 123.05 257.329 118.769 255.814L118.519 255.731L118.601 255.481C119.376 253.457 120.069 251.684 120.597 250.413C120.891 249.176 121.255 248.407 121.255 248.407C121.255 248.407 121.125 249.142 120.714 250.396C120.45 251.031 120.203 251.784 119.973 252.653C119.809 253.154 119.627 253.539 119.462 254.041C119.38 254.292 119.298 254.542 119.215 254.793L119.034 255.178L118.951 255.429L118.969 255.546L118.869 255.68L118.817 255.329C123.198 256.711 129.234 258.802 135.772 261.058C136.273 261.223 136.775 261.387 137.16 261.569L136.71 261.755C137.186 260.133 137.563 258.646 138.057 257.141L138.225 257.474C133.439 254.959 129.172 252.726 126.193 251.138C124.77 250.393 123.598 249.731 122.678 249.151C121.791 248.805 121.272 248.523 121.255 248.407Z" fill="#383838"/>
<path d="M219.439 232.947C235.303 230.484 253.465 233.887 266.414 243.191C269.778 234.461 266.495 225.161 262.399 216.817C258.32 208.59 252.178 201.741 245.953 195.143C244.393 193.465 242.715 191.803 240.692 191.028C236.679 189.712 232.167 192.287 229.329 195.69C224.946 200.752 222.59 207.424 221.653 214.006C220.733 220.704 221.016 227.464 221.398 234.089" fill="#007A87"/>
<path d="M234.288 115.371C234.288 115.371 233.608 109.147 236.527 108.716C239.213 108.319 241.669 108.792 241.669 108.792L303.13 23.2291L317.798 36.0971L289.969 85.1917L253.962 134.659C253.962 134.659 251.26 142.217 251.094 145.941C250.928 149.664 254.9 184.635 256.216 191.123C257.532 197.61 267.247 222.187 268.924 234.349C270.601 246.511 266.33 243.443 266.33 243.443L248.492 209.923L240.209 195.038L237.256 192.014L237.978 182.362C237.978 182.362 241.986 154.564 241.093 149.327C240.317 144.072 240.64 138.178 240.036 134.091C239.45 130.12 234.627 123.315 234.627 123.315L234.288 115.371Z" fill="#383838"/>
<path d="M206.212 105.438L205.353 110.934L204.588 111.405L200.507 127.4L216.358 241.994L226.196 243.166C226.196 243.166 233.636 231.328 235.451 223.423C237.249 215.402 240.027 192.201 240.027 192.201L241.005 141.465L240.345 128.914C240.161 125.242 238.242 121.946 235.094 120.025L234.837 115.051L232.674 116.564L206.212 105.438Z" fill="#FAFAFA"/>
<path d="M205.588 110.898C205.588 110.898 205.502 110.314 205.614 109.462C205.693 108.377 205.853 107.04 205.98 105.47L206.062 105.22L206.313 105.302C209.357 106.523 213.672 108.272 218.255 110.22C224.495 112.878 229.847 115.19 232.792 116.545L232.675 116.562C234.09 115.637 234.972 115.149 234.972 115.149C234.972 115.149 234.224 115.737 232.826 116.778L232.71 116.796L232.593 116.813C229.683 115.691 224.213 113.397 217.991 110.856C213.291 108.925 209.192 107.024 206.131 105.687L206.464 105.518C206.221 107.105 206.06 108.442 205.982 109.527C205.752 110.396 205.705 110.881 205.588 110.898Z" fill="#383838"/>
<path d="M231.884 125.748C231.884 125.748 232.104 126.432 232.51 127.565C232.933 128.815 233.309 130.55 233.87 132.734C234.992 137.102 236.257 143.239 237.041 150.164C237.942 157.07 238.155 163.363 238.227 167.887C238.204 170.157 238.229 171.943 238.185 173.262C238.142 174.581 238.111 175.182 237.994 175.2C237.877 175.217 237.891 174.499 237.935 173.18C237.862 171.878 237.836 170.092 237.859 167.822C237.671 163.315 237.34 157.04 236.457 150.25C235.573 143.46 234.426 137.305 233.403 132.803C232.958 130.601 232.449 128.767 232.159 127.617C231.987 126.449 231.884 125.748 231.884 125.748Z" fill="#383838"/>
<path d="M238.648 175.579C238.648 175.579 242.204 154.411 242.307 155.112C242.411 155.813 245.732 204.96 245.732 204.96L237.362 189.491L238.648 175.579Z" fill="#383838"/>
<path d="M233.647 211.996C233.647 211.996 233.695 211.511 233.907 210.525C234.102 209.423 234.397 208.186 234.64 206.599C235.225 203.291 236.088 198.629 236.881 193.5C237.675 188.372 238.187 183.762 238.638 180.354C238.765 178.784 238.925 177.448 239.12 176.345C239.216 175.377 239.264 174.892 239.38 174.875C239.38 174.875 239.449 175.342 239.354 176.311C239.375 177.262 239.214 178.599 239.106 180.285C238.888 183.658 238.276 188.402 237.599 193.514C236.805 198.642 235.926 203.187 235.107 206.53C234.747 208.134 234.353 209.505 234.141 210.491C233.829 211.611 233.664 212.112 233.647 211.996Z" fill="#007A87"/>
<path d="M245.334 148.939C245.334 148.939 245.502 149.272 245.74 150.072C245.96 150.756 246.133 151.923 246.206 153.225C246.485 155.928 246.22 159.786 244.886 163.682C243.717 167.076 242.379 170.137 241.539 172.529C240.699 174.92 240.257 176.775 240.11 177.393L239.993 177.41C240.076 177.16 240.058 177.043 240.076 177.16C240.076 177.16 240.093 177.276 240.127 177.51L240.011 177.527C240.024 176.809 240.349 174.971 241.172 172.463C241.995 169.956 243.332 166.894 244.385 163.517C245.718 159.621 246.001 155.88 245.855 153.277C245.692 150.557 245.217 148.956 245.334 148.939Z" fill="#007A87"/>
<path d="M234.931 117.304C234.931 117.304 235.432 117.469 236.336 117.932C237.24 118.395 238.429 119.174 239.786 120.286C241.144 121.398 242.886 122.692 244.347 124.505C245.086 125.47 245.825 126.434 246.149 127.818C246.455 129.086 246.645 130.37 246.618 131.806C246.638 135.979 246.105 139.638 245.502 142.829C244.999 145.886 244.41 148.36 244.016 149.731L243.882 149.631C244.816 149.493 245.3 149.541 245.3 149.541C245.3 149.541 244.85 149.727 243.916 149.865L243.799 149.882L243.782 149.765C244.06 148.412 244.532 145.955 244.918 142.915C245.421 139.858 245.938 136.083 245.935 132.026C245.979 130.707 245.789 129.423 245.5 128.272C245.211 127.122 244.472 126.157 243.849 125.175C242.388 123.362 240.879 122.034 239.522 120.922C238.165 119.81 236.976 119.031 236.171 118.434C235.467 117.703 234.948 117.421 234.931 117.304Z" fill="#007A87"/>
<path d="M250.831 125.574C250.715 125.592 250.559 124.541 250.184 122.806C249.808 121.072 249.329 118.637 248.249 116.172C247.169 113.706 245.457 111.811 244.117 110.816C242.76 109.704 241.64 109.392 241.64 109.392C241.64 109.392 241.873 109.357 242.375 109.522C242.877 109.686 243.512 109.951 244.299 110.431C245.873 111.392 247.584 113.287 248.682 115.869C249.779 118.451 250.258 120.886 250.517 122.638C250.892 124.372 250.948 125.557 250.831 125.574Z" fill="#007A87"/>
<path d="M246.01 179.385C246.027 179.502 244.596 180.31 242.628 180.72C240.66 181.13 238.973 181.021 238.956 180.904C238.939 180.787 240.573 180.546 242.541 180.136C244.393 179.743 245.993 179.268 246.01 179.385Z" fill="#007A87"/>
<path d="M243.265 188.263C243.165 188.397 242.042 187.25 240.849 185.637C239.673 184.14 238.748 182.725 238.865 182.708C238.964 182.574 240.088 183.721 241.281 185.334C242.574 186.814 243.481 188.112 243.265 188.263Z" fill="#007A87"/>
<path d="M184.269 120.848C184.269 120.848 184.77 121.013 185.458 121.627C186.245 122.107 187.334 123.02 188.458 124.167C190.84 126.56 193.563 130.453 194.771 135.405C195.98 140.358 195.368 145.101 194.415 148.345C193.939 149.966 193.394 151.121 192.93 152.024C192.45 152.811 192.169 153.33 192.151 153.213C192.017 153.114 193.078 151.406 193.914 148.18C194.767 145.071 195.279 140.461 194.071 135.509C192.879 130.673 190.273 126.763 188.008 124.353C186.011 122.142 184.286 120.965 184.269 120.848Z" fill="#007A87"/>
<path d="M151.134 244.707C154.833 250.365 204.546 267.842 204.546 267.842C204.546 267.842 214.182 257.947 225.577 238.962C236.972 219.977 238.648 175.581 238.648 175.581C238.648 175.581 225.991 143.205 218.532 129.869C211.074 116.533 204.537 111.055 204.537 111.055L177.296 122.118L177.183 182.75L179.423 201.153C179.423 201.153 177.291 202.064 177.429 202.998C177.567 203.933 177.757 205.217 177.757 205.217L151.134 244.707Z" fill="#383838"/>
<path d="M119.58 247.577C119.58 247.577 150.572 175.463 153.905 167.335C157.65 157.952 174.771 121.178 178.213 121.863C181.655 122.547 194.107 129.299 192.102 146.42C190.096 163.54 186.118 172.958 186.118 172.958L172.421 192.521L138.976 257.718L120.868 248.222L119.58 247.577Z" fill="#383838"/>
<path d="M237.608 181.463C237.608 181.463 237.642 181.697 237.443 181.965C237.378 182.332 237.213 182.834 236.949 183.469C236.538 184.723 235.863 186.613 234.871 188.788C233.88 190.963 232.473 193.557 230.046 195.705C227.753 197.953 224.271 199.422 220.668 200.073C213.446 201.259 206.734 201.058 201.908 200.696C199.486 200.458 197.648 200.132 196.295 199.855C195.676 199.708 195.192 199.66 194.807 199.478C194.439 199.413 194.305 199.314 194.305 199.314C194.305 199.314 195.023 199.327 196.377 199.604C197.713 199.765 199.668 200.073 201.955 200.212C206.665 200.59 213.359 200.676 220.582 199.489C224.185 198.838 227.451 197.52 229.627 195.29C231.937 193.159 233.361 190.681 234.486 188.606C235.478 186.431 236.17 184.658 236.699 183.387C237.344 182.099 237.608 181.463 237.608 181.463Z" fill="#007A87"/>
<path d="M238.404 177.17C238.404 177.17 238.153 177.088 237.751 176.789C237.233 176.508 236.696 176.11 235.892 175.513C234.301 174.435 232.04 172.86 229.342 170.753C226.645 168.645 223.61 165.872 220.705 162.363C217.801 158.855 215.576 154.291 213.549 149.46C211.523 144.628 209.648 140.013 207.959 135.847C206.27 131.682 204.633 127.867 203.782 124.532C202.932 121.198 203.218 118.291 203.894 116.402C204.24 115.516 204.621 114.863 204.92 114.461C205.002 114.21 205.218 114.059 205.335 114.041C205.435 113.907 205.435 113.907 205.435 113.907C205.551 113.89 204.721 114.729 204.162 116.601C203.586 118.357 203.299 121.263 204.249 124.463C205.1 127.798 206.837 131.479 208.526 135.644C210.215 139.81 212.207 144.408 214.116 149.257C216.142 154.088 218.35 158.535 221.138 162.061C223.926 165.587 226.961 168.36 229.542 170.485C232.122 172.609 234.401 174.301 236.009 175.495C236.679 175.993 237.349 176.491 237.751 176.789C238.253 176.954 238.387 177.053 238.404 177.17Z" fill="#007A87"/>
<path d="M224.201 240.955C224.201 240.955 224.002 241.223 223.721 241.741C223.323 242.278 222.825 242.948 222.111 243.769C220.718 245.645 218.71 248.209 216.304 251.309C213.799 254.542 210.895 258.312 207.559 262.385C206.763 263.457 205.967 264.529 204.92 265.519C204.388 265.955 203.739 266.409 202.921 266.53C202.104 266.651 201.369 266.521 200.733 266.257C197.875 265.486 195.017 264.715 192.141 263.827C180.388 260.193 170.084 255.868 162.872 252.28C159.275 250.544 156.413 248.938 154.355 247.93C153.434 247.35 152.664 246.986 152.128 246.588C151.609 246.307 151.341 246.108 151.341 246.108C151.341 246.108 151.592 246.19 152.111 246.472C152.63 246.753 153.399 247.116 154.437 247.679C156.495 248.688 159.34 250.177 162.937 251.912C170.249 255.367 180.419 259.592 192.172 263.226C195.047 264.113 198.022 264.867 200.764 265.655C201.499 265.786 202.117 265.933 202.818 265.829C203.402 265.743 204.068 265.406 204.483 264.987C205.431 264.131 206.21 262.942 207.14 261.969C210.459 257.78 213.38 254.127 215.885 250.893C218.408 247.776 220.433 245.329 221.826 243.453C222.54 242.632 223.038 241.962 223.436 241.426C223.985 241.106 224.201 240.955 224.201 240.955Z" fill="#007A87"/>
<path d="M235.875 178.615C235.875 178.615 236.156 178.096 236.891 178.226C237.259 178.291 237.777 178.573 237.864 179.157C237.95 179.74 237.569 180.393 236.886 180.614C236.202 180.834 235.567 180.57 235.264 180.137C234.962 179.705 234.992 179.103 235.291 178.701C235.589 178.299 235.957 178.364 236.19 178.33C236.441 178.412 236.458 178.529 236.458 178.529C236.476 178.646 235.974 178.481 235.693 179C235.611 179.251 235.545 179.618 235.814 179.817C235.965 180.034 236.466 180.198 236.817 180.146C237.167 180.095 237.466 179.693 237.431 179.459C237.379 179.109 237.111 178.91 236.861 178.827C236.324 178.429 235.892 178.732 235.875 178.615Z" fill="#007A87"/>
<path d="M197.342 219.865C197.342 219.865 196.974 219.8 196.455 219.519C195.819 219.255 195.05 218.891 194.012 218.328C191.954 217.32 189.325 215.68 186.494 213.473C183.796 211.366 181.431 209.09 179.871 207.411C179.149 206.563 178.561 205.815 178.142 205.399C177.705 204.867 177.554 204.651 177.537 204.534C177.654 204.517 178.51 205.464 180.187 207.126C181.73 208.688 184.077 210.847 186.775 212.954C189.473 215.061 192.101 216.702 194.06 217.844C196.17 219.203 197.458 219.848 197.342 219.865Z" fill="#007A87"/>
<path d="M203.163 215.664C203.163 215.664 202.795 215.599 202.16 215.335C201.524 215.071 200.521 214.742 199.367 214.196C197.075 213.222 193.979 211.651 190.581 209.647C187.317 207.743 184.403 205.787 182.375 204.177C181.303 203.381 180.499 202.784 179.963 202.386C179.426 201.988 179.141 201.672 179.141 201.672C179.241 201.538 180.464 202.55 182.574 203.909C184.684 205.268 187.598 207.224 190.862 209.128C194.126 211.033 197.239 212.721 199.548 213.812C201.857 214.902 203.28 215.647 203.163 215.664Z" fill="#007A87"/>
<path d="M187.49 166.908C187.607 166.891 186.763 168.448 185.421 170.674C183.997 173.152 182.192 176.282 180.206 179.797C178.219 183.312 176.315 186.576 174.857 188.82C173.515 191.047 172.537 192.504 172.403 192.404C172.403 192.404 172.585 192.02 172.966 191.367C173.446 190.58 173.909 189.676 174.472 188.639C175.896 186.161 177.7 183.031 179.57 179.533C181.557 176.018 183.461 172.754 184.92 170.51C185.582 169.338 186.162 168.417 186.677 167.864C187.191 167.31 187.373 166.926 187.49 166.908Z" fill="#007A87"/>
<path d="M179.779 121.154C179.779 121.154 195.563 122.999 194.915 141.232C194.284 159.581 177.57 186.988 177.57 186.988L175.65 186.913L169.426 198.094C169.426 198.094 176.077 199.498 180.753 196.421C185.313 193.361 195.044 171.997 198.857 155.803C203.389 136.4 199.864 128.688 196.89 124.712C190.238 116.03 185.359 118.54 185.359 118.54L179.779 121.154Z" fill="#007A87"/>
<path d="M232.26 116.982L229.179 121.971L231.3 125.834L234.107 126.255L235.402 121.291L232.26 116.982Z" fill="#00D1C1"/>
<path d="M234.549 124.4C234.315 124.435 234.108 123.034 233.067 121.636C232.142 120.222 230.953 119.443 231.052 119.309C231.152 119.175 232.557 119.802 233.616 121.317C234.675 122.831 234.665 124.383 234.549 124.4Z" fill="#383838"/>
<path d="M231.75 125.649C231.75 125.649 233.223 129.966 232.681 131.955C230.646 139.176 224.009 133.832 217.91 128.887C211.81 123.941 202.396 110.297 193.475 108.87C184.437 107.46 174.927 108.507 169.185 115.679L168.221 123.697L175.894 122.325C175.894 122.325 185.257 111.396 195.69 118.208C206.122 125.019 219.759 142.216 227.068 141.614C234.377 141.011 236.429 137.129 236.257 132.739C236.086 128.35 234.566 124.517 234.566 124.517L231.75 125.649Z" fill="#00D1C1"/>
<g opacity="0.3">
<g opacity="0.3">
<path opacity="0.3" d="M215.847 127.043C218.522 131.421 223.014 135.172 227.93 136.952C228.933 137.281 229.936 137.61 230.97 137.338C232.121 137.049 232.951 136.21 233.514 135.172C234.077 134.135 234.272 133.032 234.216 131.847C234.243 130.411 234.152 128.993 233.946 127.591C233.859 127.008 233.773 126.424 233.337 125.892C232.917 125.476 232.199 125.463 231.767 125.766C232.242 127.366 232.717 128.966 232.608 130.653C232.499 132.339 231.789 133.995 230.374 134.92C230.374 134.92 228.276 136.065 224.325 133.547C220.373 131.028 215.847 127.043 215.847 127.043Z" fill="#383838"/>
</g>
</g>
<path d="M234.53 124.286C234.664 124.386 234.317 125.272 233.318 125.777C232.769 126.097 232.284 126.049 231.917 125.984C231.549 125.919 231.398 125.703 231.398 125.703C231.498 125.569 232.233 125.699 233.115 125.211C233.898 124.857 234.396 124.186 234.53 124.286Z" fill="#383838"/>
<path d="M235.986 134.929C235.869 134.946 235.432 134.414 234.961 133.648C234.49 132.882 234.153 132.216 234.253 132.082C234.352 131.948 234.906 132.463 235.394 133.345C235.865 134.111 236.102 134.911 235.986 134.929Z" fill="white"/>
<path d="M235.702 128.168C235.603 128.302 235.235 128.237 234.868 128.172C234.5 128.107 234.132 128.042 234.115 127.926C234.098 127.809 234.414 127.523 235.015 127.554C235.517 127.719 235.802 128.034 235.702 128.168Z" fill="white"/>
<path d="M232.731 120.972C232.865 121.072 232.501 121.841 232.038 122.745C231.458 123.666 230.961 124.336 230.827 124.236C230.693 124.137 231.056 123.367 231.519 122.464C231.982 121.56 232.597 120.873 232.731 120.972Z" fill="white"/>
<path d="M230.087 141.047C229.971 141.064 229.85 140.247 229.946 139.278C230.041 138.31 230.288 137.557 230.405 137.54C230.521 137.523 230.642 138.34 230.547 139.309C230.451 140.278 230.204 141.03 230.087 141.047Z" fill="white"/>
<path d="M221.767 139.652C221.633 139.552 222.079 138.532 222.841 137.226C223.619 136.037 224.316 135.099 224.45 135.199C224.584 135.298 224.138 136.319 223.377 137.624C222.598 138.813 221.901 139.751 221.767 139.652Z" fill="white"/>
<path d="M219.812 132.067C219.946 132.167 219.249 133.105 218.336 134.194C217.423 135.284 216.592 136.122 216.441 135.906C216.307 135.807 217.004 134.868 217.917 133.779C218.847 132.806 219.678 131.968 219.812 132.067Z" fill="white"/>
<path d="M215.694 126.827C215.828 126.927 215.434 128.298 214.356 129.889C213.396 131.462 212.232 132.47 212.098 132.37C211.964 132.27 212.86 131.064 213.838 129.607C214.798 128.034 215.443 126.745 215.694 126.827Z" fill="white"/>
<path d="M210.045 121.697C210.179 121.796 209.401 122.985 208.288 124.343C207.176 125.7 206.246 126.673 206.112 126.573C205.978 126.474 206.757 125.285 207.869 123.927C208.981 122.57 209.911 121.597 210.045 121.697Z" fill="white"/>
<path d="M206.136 117.024C206.27 117.124 205.141 118.364 203.947 119.973C202.752 121.581 201.757 122.921 201.623 122.822C201.489 122.722 202.216 121.183 203.411 119.575C204.722 117.949 206.119 116.907 206.136 117.024Z" fill="white"/>
<path d="M201.307 112.607C201.441 112.707 200.195 113.965 199.018 115.69C197.841 117.415 196.997 118.971 196.863 118.872C196.728 118.772 197.205 117.151 198.499 115.408C199.775 113.549 201.173 112.508 201.307 112.607Z" fill="white"/>
<path d="M194.077 108.9C194.211 108.999 193.717 110.504 193.059 112.51C192.401 114.517 192.041 116.121 191.79 116.039C191.674 116.056 191.765 114.253 192.423 112.246C193.099 110.357 193.826 108.817 194.077 108.9Z" fill="white"/>
<path d="M186.343 108.25C186.477 108.35 186.135 110.071 186.078 112.108C185.921 114.279 186.18 116.03 186.063 116.048C185.946 116.065 185.454 114.348 185.476 112.077C185.516 109.924 186.226 108.268 186.343 108.25Z" fill="white"/>
<path d="M180.865 118.011C180.748 118.028 179.655 116.281 178.825 113.897C177.996 111.514 177.703 109.529 177.82 109.512C177.936 109.494 178.58 111.428 179.392 113.694C180.238 116.194 181.098 117.976 180.865 118.011Z" fill="white"/>
<path d="M176.006 121.472C175.907 121.606 174.099 120.68 172.271 118.802C170.442 116.925 169.565 115.026 169.682 115.008C169.782 114.874 170.992 116.605 172.686 118.383C174.381 120.161 176.106 121.338 176.006 121.472Z" fill="white"/>
<path d="M232.619 118.6C232.619 118.6 232.399 117.916 232.226 116.749L232.477 116.831C231.849 118.236 230.858 120.411 228.95 122.841C228.435 123.394 228.071 124.164 227.172 124.535C226.722 124.721 226.138 124.807 225.753 124.625C225.252 124.461 224.966 124.145 224.582 123.963C223.142 123.102 221.551 122.024 219.86 121.081C213.28 116.922 207.919 112.941 205.507 111.149L205.623 111.132C204.473 111.421 203.889 111.508 203.889 111.508C203.889 111.508 204.456 111.305 205.589 110.899C208.101 112.556 213.561 116.403 220.142 120.562C221.733 121.639 223.306 122.6 224.88 123.561C225.667 124.041 226.337 124.539 227.003 124.202C227.669 123.865 228.05 123.212 228.565 122.659C230.491 120.346 231.616 118.271 232.244 116.865L232.425 116.48L232.494 116.948C232.632 117.882 232.736 118.582 232.619 118.6Z" fill="#383838"/>
</svg>
