<svg width="184" height="137" viewBox="0 0 184 137" fill="none" xmlns="http://www.w3.org/2000/svg">
<path d="M27.7684 110.236V103.632H156V110.236H27.7684Z" fill="#FCF5EB" stroke="#2C2C2C" stroke-width="0.998121"/>
<path d="M23.0458 0.96781H160.948C165.049 0.96781 168.374 4.29255 168.374 8.39383V95.6077C168.374 99.709 165.049 103.034 160.948 103.034H23.0458C18.9445 103.034 15.6198 99.709 15.6198 95.6077V8.39383C15.6198 4.29255 18.9445 0.96781 23.0458 0.96781Z" fill="#FCF5EB" stroke="#383838" stroke-width="0.998121"/>
<path d="M29.6861 7.79648H154.308C158.167 7.79648 161.295 10.9246 161.295 14.7833V88.1521C161.295 92.0108 158.167 95.1389 154.308 95.1389H29.6861C25.8274 95.1389 22.6993 92.0108 22.6993 88.1521V14.7833C22.6993 10.9246 25.8274 7.79648 29.6861 7.79648Z" fill="white" stroke="#383838" stroke-width="0.998121"/>
<path d="M0.633887 133.887V131.552L183.366 131.567V133.887C183.366 134.47 183.048 135.038 182.455 135.479C181.863 135.919 181.021 136.206 180.071 136.206H3.92855C2.97605 136.206 2.13457 135.919 1.54276 135.479C0.950915 135.039 0.633887 134.47 0.633887 133.887Z" fill="#FCF5EB" stroke="#2C2C2C" stroke-width="0.998121"/>
<path d="M16.616 109.973C16.6814 109.912 16.7389 109.859 16.7873 109.814H91.9965H167.206C167.249 109.853 167.299 109.9 167.355 109.952C167.444 110.034 167.549 110.131 167.666 110.24C168.02 110.57 168.516 111.036 169.116 111.612C170.316 112.764 171.928 114.356 173.645 116.185C177.091 119.856 180.909 124.429 182.683 128.29C183.441 129.939 183.494 131.043 183.176 131.698C182.879 132.309 182.152 132.724 180.792 132.724H3.20069C1.84129 132.724 1.1139 132.309 0.817107 131.698C0.498969 131.043 0.552104 129.939 1.30963 128.291C3.08411 124.429 6.90242 119.856 10.3496 116.185C12.0664 114.356 13.6789 112.764 14.8785 111.612C15.4781 111.036 15.9743 110.57 16.3286 110.24C16.4353 110.141 16.5321 110.051 16.616 109.973Z" fill="#FCF5EB" stroke="#383838" stroke-width="0.998121"/>
<path d="M174.316 129.193H13.6408L24.7754 112.71H163.182L174.316 129.193Z" fill="#FFAA91"/>
<path d="M172.363 126.299L172.014 125.783H161.293L159.297 121.784H169.313L168.964 121.269H159.039L157.04 117.27H166.263L165.917 116.754H156.786L154.764 112.706H153.834L155.822 116.754H144.35L142.741 112.706H141.816L143.394 116.754H131.91L130.712 112.706H129.786L130.951 116.754H119.475L118.685 112.706H117.76L118.519 116.754H107.035L106.656 112.706H105.73L106.075 116.754H95.1834V112.706H94.1629V116.754H82.869L83.2142 112.706H82.2885L81.9091 116.754H70.4331L71.1919 112.706H70.2662L69.4771 116.754H57.9973L59.162 112.706H58.2325L57.0337 116.754H45.5577L47.1359 112.706H46.2102L44.6017 116.754H33.1219L35.1098 112.706H34.1841L32.1659 116.754H22.0405L21.6914 117.27H31.9079L29.9086 121.269H18.9903L18.6413 121.784H29.6431L27.6438 125.783H15.9401L15.5911 126.299H27.3972L25.9556 129.194H27.0102L28.4329 126.299H40.8042L39.6661 129.194H40.7207L41.8588 126.299H54.2112L53.3538 129.194H54.4123L55.2431 126.299H67.6182L67.0567 129.194H68.0962L68.6349 126.299H81.01L80.7407 129.194H81.7953L82.0419 126.299H94.1477V129.194H95.1682V126.299H106.876L107.122 129.194H108.177L107.93 126.299H120.298L120.837 129.194H121.895L121.33 126.299H133.705L134.539 129.194H135.594L134.737 126.299H147.112L148.25 129.194H149.282L148.144 126.299H160.519L161.938 129.194H162.996L161.551 126.299H172.363ZM45.3567 117.27H56.8858L55.7021 121.269H43.8164L45.3567 117.27ZM32.8677 117.27H44.3968L42.8073 121.269H30.9178L32.8677 117.27ZM41.0091 125.783H28.6833L30.6484 121.784H42.6024L41.0091 125.783ZM54.3629 125.783H42.0409L43.5964 121.784H55.5504L54.3629 125.783ZM67.7168 125.783H55.3948L56.533 121.784H68.487L67.7168 125.783ZM68.597 121.269H56.7151L57.8532 117.27H69.3785L68.597 121.269ZM81.0745 125.783H68.7487L69.5075 121.784H81.4577L81.0745 125.783ZM81.4918 121.269H69.5909L70.3497 117.27H81.875L81.4918 121.269ZM94.1629 125.783H82.1026L82.4403 121.784H94.1629V125.783ZM94.1629 121.269H82.4858L82.8272 117.27H94.1629V121.269ZM95.1834 117.27H106.121L106.462 121.269H95.1834V117.27ZM95.1834 125.783V121.784H106.508L106.845 125.783H95.1834ZM156.08 117.27L158.045 121.269H146.144L144.551 117.27H156.08ZM143.591 117.27L145.15 121.269H133.246L132.062 117.27H143.591ZM107.084 117.27H118.613L119.372 121.269H107.456L107.084 117.27ZM107.877 125.783L107.498 121.784H119.448L120.207 125.783H107.877ZM119.573 117.27H131.102L132.24 121.269H120.351L119.573 117.27ZM121.231 125.783L120.45 121.784H132.4L133.538 125.783H121.231ZM134.585 125.783L133.401 121.784H145.352L146.911 125.783H134.585ZM147.939 125.783L146.349 121.784H158.299L160.284 125.783H147.939Z" fill="#FF5A5F"/>
<path d="M91.9966 133.223H84.1929C84.1823 133.617 84.3173 134.002 84.5722 134.304C84.7323 134.451 84.9432 134.529 85.1603 134.524H98.8177C99.0348 134.529 99.2456 134.451 99.4057 134.304C99.6606 134.002 99.7956 133.617 99.7851 133.223H91.9966Z" fill="#212121"/>
<path opacity="0.3" d="M147.055 87.6031H36.938V20.4011H147.055V87.6031ZM38.9942 85.5507H144.998V22.4573H38.9942V85.5507Z" fill="#00D1C1"/>
<path d="M131.037 37.3133H120.798V81.1459H131.037V37.3133Z" fill="#FF5A5F"/>
<path d="M112.065 60.99H101.826V81.146H112.065V60.99Z" fill="#FFAA91"/>
<path d="M93.089 56.1112H82.8497V81.1421H93.089V56.1112Z" fill="#00D1C1"/>
<path d="M74.1129 41.938H63.8736V81.1461H74.1129V41.938Z" fill="#FFAA91"/>
<path d="M55.1406 50.542H44.9014V81.1421H55.1406V50.542Z" fill="#FFAA91"/>
<path d="M107.505 52.8675L99.2654 51.2324L88.624 49.1193C88.4752 49.0814 88.3245 49.051 88.1726 49.0283C87.9336 49.0055 88.2485 49.0093 88.2257 49.0814C88.2257 49.0321 87.7705 48.6489 87.7325 48.611L84.8834 45.8719L75.7292 37.1464C73.6844 35.1964 71.6889 33.1743 69.5909 31.2813C69.5562 31.2516 69.5233 31.22 69.4923 31.1864C69.2571 30.9626 68.7336 31.1333 68.5401 31.3154L62.2387 36.8808L52.2043 45.7467L49.9281 47.765L50.8765 47.636L50.1974 46.8773L50.1254 47.1808L56.6468 41.4219L67.0757 32.2107L69.4582 30.1052L68.5059 30.2342L73.525 35.0295L82.8158 43.9068L86.3516 47.287L87.3683 48.2582C87.5093 48.4313 87.6868 48.5712 87.8881 48.6679C88.1187 48.7299 88.3531 48.7768 88.5899 48.8083L90.4526 49.1876L96.3481 50.3561C99.6334 51.0086 102.915 51.7029 106.212 52.3137L106.398 52.3516C106.552 52.3796 106.71 52.3678 106.858 52.3173C107.006 52.2669 107.139 52.1794 107.244 52.0633L109.106 49.4418L113.583 43.1404L119.027 35.4733L123.712 28.8761L125.26 26.7022C125.524 26.3707 125.77 26.0249 125.996 25.6666L126.026 25.621L125.006 25.8259L125.84 26.4177V26.1939L123.944 28.8495L119.361 35.2988L113.826 43.0646L109.023 49.825L107.445 52.0443C107.172 52.3836 106.918 52.7383 106.686 53.1065L106.652 53.1559C106.5 53.3683 106.781 53.467 106.948 53.4745C107.083 53.4826 107.219 53.4597 107.344 53.4078C107.47 53.3559 107.582 53.2763 107.672 53.1748L109.569 50.5192L114.152 44.0699L119.691 36.2776L124.494 29.5172L126.068 27.2979C126.341 26.9585 126.594 26.6038 126.827 26.2356C126.827 26.2356 126.85 26.2053 126.861 26.1863C126.872 26.1673 126.929 26.0156 126.861 25.9625L126.011 25.3858C125.843 25.2986 125.65 25.2714 125.465 25.3086C125.279 25.3459 125.112 25.4454 124.991 25.5907L123.128 28.2122L118.651 34.4908L113.204 42.1655L108.522 48.7589L106.974 50.9365C106.71 51.2681 106.465 51.6138 106.238 51.9722L106.208 52.0178L107.054 51.7294L98.6395 50.045L88.7454 48.0799L88.5557 48.0419C88.5785 47.9509 88.8251 48.2506 88.624 48.0419C88.423 47.8333 88.1309 47.5715 87.8918 47.3401L84.7658 44.3544L75.5736 35.5682C73.5895 33.6713 71.6547 31.7024 69.6099 29.8776L69.5189 29.7903C69.2836 29.5665 68.7601 29.7334 68.5666 29.9155L62.049 35.6744L51.6201 44.8855L49.2376 46.9911C49.1542 47.0669 49.0783 47.1883 49.1693 47.2908L49.8484 48.0495C50.0609 48.2923 50.6072 48.095 50.8006 47.9243L57.0944 42.3627L67.1288 33.5006L69.405 31.4823L68.4528 31.6075L73.6426 36.5659L82.9448 45.4546L86.2606 48.6224C86.5944 48.941 86.9965 49.5101 87.4669 49.6201C90.593 50.3295 93.7645 50.8683 96.9095 51.4942C100.153 52.1391 103.393 52.822 106.644 53.4252L106.819 53.4632C106.956 53.4868 107.096 53.4803 107.231 53.4443C107.365 53.4083 107.49 53.3435 107.596 53.2545C107.771 53.099 107.744 52.9169 107.505 52.8675Z" fill="#007A87"/>
<path d="M52.3297 47.4579C52.3297 47.9148 52.1942 48.3615 51.9404 48.7415C51.6865 49.1214 51.3257 49.4175 50.9035 49.5924C50.4813 49.7673 50.0168 49.813 49.5686 49.7239C49.1205 49.6347 48.7088 49.4147 48.3857 49.0916C48.0626 48.7685 47.8425 48.3568 47.7534 47.9086C47.6642 47.4605 47.71 46.9959 47.8849 46.5738C48.0597 46.1516 48.3558 45.7908 48.7358 45.5369C49.1157 45.283 49.5624 45.1475 50.0194 45.1475C50.6321 45.1475 51.2198 45.3909 51.653 45.8242C52.0863 46.2575 52.3297 46.8451 52.3297 47.4579Z" fill="#E94762"/>
<path d="M68.866 33.0074C70.142 33.0074 71.1764 31.9731 71.1764 30.6971C71.1764 29.4211 70.142 28.3867 68.866 28.3867C67.59 28.3867 66.5556 29.4211 66.5556 30.6971C66.5556 31.9731 67.59 33.0074 68.866 33.0074Z" fill="#FF5A5F"/>
<path d="M90.2818 48.8085C90.2818 49.2662 90.1461 49.7137 89.8918 50.0942C89.6375 50.4748 89.2761 50.7714 88.8532 50.9466C88.4303 51.1217 87.965 51.1675 87.5161 51.0782C87.0672 50.989 86.6549 50.7686 86.3312 50.4449C86.0076 50.1213 85.7872 49.7089 85.6979 49.26C85.6086 48.8111 85.6544 48.3458 85.8296 47.923C86.0047 47.5001 86.3014 47.1387 86.6819 46.8844C87.0625 46.6301 87.5099 46.4944 87.9676 46.4944C88.2715 46.4944 88.5724 46.5542 88.8532 46.6705C89.134 46.7868 89.3891 46.9573 89.604 47.1722C89.8189 47.3871 89.9893 47.6422 90.1056 47.923C90.2219 48.2037 90.2818 48.5046 90.2818 48.8085Z" fill="#FF5A5F"/>
<path d="M109.254 52.0824C109.254 52.5393 109.119 52.986 108.865 53.366C108.611 53.7459 108.25 54.042 107.828 54.2169C107.406 54.3918 106.941 54.4375 106.493 54.3484C106.045 54.2592 105.633 54.0392 105.31 53.7161C104.987 53.3929 104.767 52.9813 104.678 52.5331C104.589 52.0849 104.634 51.6204 104.809 51.1982C104.984 50.7761 105.28 50.4152 105.66 50.1614C106.04 49.9075 106.487 49.772 106.944 49.772C107.557 49.772 108.144 50.0154 108.578 50.4487C109.011 50.882 109.254 51.4696 109.254 52.0824Z" fill="#FF5A5F"/>
<path d="M128.23 26.3306C128.231 26.7886 128.096 27.2366 127.842 27.6177C127.588 27.9989 127.226 28.2961 126.803 28.4717C126.38 28.6473 125.915 28.6935 125.465 28.6043C125.016 28.5151 124.603 28.2946 124.28 27.9708C123.956 27.6469 123.735 27.2342 123.646 26.7849C123.557 26.3357 123.603 25.8701 123.779 25.4471C123.954 25.024 124.252 24.6627 124.633 24.4087C125.014 24.1547 125.462 24.0195 125.92 24.0202C126.533 24.0202 127.12 24.2637 127.553 24.6969C127.987 25.1302 128.23 25.7179 128.23 26.3306Z" fill="#FF5A5F"/>
<path d="M68.5475 43.4895C69.3063 43.2581 70.0005 43.0267 70.524 42.4652C70.7387 42.1876 71.0087 41.9577 71.3169 41.7899C71.6666 41.5963 71.9947 41.3661 72.2957 41.1032C72.5806 40.8177 72.9392 40.6168 73.3314 40.5228C73.8246 40.4773 73.5628 41.0539 73.3314 41.4143C73.1 41.7747 71.7342 42.34 71.7949 42.8256C71.8556 43.3112 73.4566 42.56 73.7715 42.4045C74.5302 42.0251 74.5682 41.4181 75.012 40.8111C75.27 40.4545 75.4976 40.3711 75.6569 40.8529C75.7746 41.2322 75.528 41.5813 75.3459 41.881C74.9708 42.5209 74.4429 43.058 73.8094 43.444C74.4192 43.1166 74.9581 42.6717 75.3952 42.1351C75.6456 41.8316 76.4878 40.3597 76.9961 40.7125C78.0204 41.4181 75.2055 44.0206 74.534 44.2217C75.1597 43.9164 75.7282 43.5057 76.2146 43.0077C76.5219 42.7308 77.2162 42.0555 77.3527 42.7801C77.5273 43.8537 75.4331 44.6352 74.5606 45.1474C75.1956 44.9676 75.8022 44.6994 76.3626 44.3507C77.1479 43.9713 77.1631 44.6693 76.4347 45.2081C76.0711 45.4521 75.6908 45.6701 75.2965 45.8606C73.6994 46.6193 72.7168 46.6459 71.0248 46.4638C70.414 46.3993 69.2342 46.919 68.8738 46.5283C68.153 45.7771 68.521 44.3545 68.5475 43.4895Z" fill="#FFBE9E"/>
<path d="M68.9874 43.2694L70.2318 47.3894C70.2318 47.3894 55.7056 51.1262 52.1623 51.6763C48.6189 52.2264 40.8646 43.3301 40.8646 43.3301C40.8646 43.3301 38.209 36.9036 40.1969 36.9908C41.7144 37.0553 52.8451 45.5457 53.4749 45.8757C54.1047 46.2058 68.9874 43.2694 68.9874 43.2694Z" fill="#FF5A5F"/>
<path d="M30.9365 116.61C30.9365 116.61 30.8303 119.387 31.3159 120.692C31.8015 121.997 35.14 123.996 35.14 123.996C35.14 123.996 32.105 124.584 30.9403 123.681C29.7756 122.778 27.01 118.07 27.1921 117.456C27.3742 116.841 28.2088 114.952 28.2088 114.952L30.9365 116.61Z" fill="#FFBE9E"/>
<path d="M49.014 114.917C49.014 114.917 48.9077 117.698 49.3933 119.003C49.8789 120.308 53.2174 122.304 53.2174 122.304C53.2174 122.304 50.1824 122.892 49.0178 121.993C47.8531 121.094 45.0875 116.378 45.2696 115.763C45.4517 115.149 46.2863 113.26 46.2863 113.26L49.014 114.917Z" fill="#FFBE9E"/>
<path d="M27.8826 116.61C27.8826 116.61 25.3371 117.46 25.9858 119.686C26.3875 121.352 26.5661 123.065 26.5169 124.778H27.2756C27.2756 124.778 27.435 121.595 27.913 121.701C28.391 121.807 29.4001 124.781 30.4662 124.781H36.4602C36.4602 124.781 37.0976 124.144 36.4602 123.772C35.8229 123.401 31.7636 123.56 31.3008 122.661C30.8379 121.762 27.8826 116.61 27.8826 116.61Z" fill="#007A87"/>
<path d="M46.0927 114.834C46.0927 114.834 43.5471 115.684 44.1959 117.911C44.5976 119.577 44.7762 121.289 44.727 123.002H45.4857C45.4857 123.002 45.6451 119.823 46.1193 119.925C46.5935 120.028 47.6595 123.002 48.718 123.002H54.7121C54.7121 123.002 55.3494 122.369 54.7121 121.997C54.0747 121.625 50.0154 121.784 49.5526 120.881C49.0898 119.978 46.0927 114.834 46.0927 114.834Z" fill="#007A87"/>
<path d="M44.4041 59.4688C44.4041 59.4688 37.2719 61.9764 32.1048 59.4688C32.1048 59.4688 28.9712 62.0978 28.478 67.4621C28.3404 69.4734 28.4103 71.4934 28.6867 73.4903C29.0471 76.476 29.9159 84.2987 29.3734 89.1243C28.5767 96.192 26.3839 116.693 26.3839 116.693L31.3157 117.452C31.3157 117.452 35.8303 92.7055 36.3652 89.6516C36.9001 86.5976 38.6187 74.1884 38.6187 74.1884C38.6187 74.1884 41.6802 83.7865 42.4693 88.43C42.5907 89.1432 44.7721 115.419 44.7721 115.419L49.537 115.388C49.537 115.388 49.2714 86.2031 49.2714 87.7396C49.2563 88.3617 47.9664 68.0615 44.4041 59.4688Z" fill="#00D1C1"/>
<path d="M41.9193 78.0466C40.8495 74.7991 40.1931 73.1716 37.9966 70.2581C38.2204 71.5897 38.4253 72.9137 38.577 74.2642V74.1921C38.577 74.1921 41.1947 82.4055 42.2114 87.3146C42.1279 82.0186 42.716 80.4328 41.9193 78.0466Z" fill="#007A87"/>
<path d="M39.3552 30.3176C38.8621 30.2151 36.4986 25.2302 35.4894 24.2476C35.0038 27.662 32.9438 35.7312 32.9438 35.7312C35.4439 38.4096 40.4251 36.7707 40.4251 36.7707C39.6056 35.0142 39.2149 31.4822 39.3552 30.3176Z" fill="#F4A587"/>
<path d="M38.3643 18.4509C38.3643 18.4509 43.2127 19.5435 44.1422 20.9586C45.0716 22.3736 45.0678 26.0497 45.58 27.0285C45.8911 27.6166 46.1718 28.0908 46.3387 28.4398C46.5057 28.7888 46.1301 28.9178 45.709 29.0658C45.6028 29.1052 45.5068 29.1679 45.428 29.2493C45.3492 29.3308 45.2897 29.4288 45.2537 29.5362C44.9692 30.4277 44.1687 32.6964 43.3569 33.0112C42.3591 33.3906 37.4197 33.254 35.9364 28.9519C34.453 24.6499 35.2611 17.5291 38.3643 18.4509Z" fill="#FFBE9E"/>
<path d="M33.6869 34.0622C35.8555 35.0324 38.0785 35.876 40.3448 36.5888C40.3448 36.5888 44.2562 44.3166 44.5179 46.4714C44.7797 48.6263 46.7942 63.3269 46.7942 63.3269C46.7942 63.3269 39.0474 68.2588 27.8256 64.3474C27.8256 64.3474 30.5191 52.769 29.9045 48.1976C29.2899 43.6261 29.8173 37.45 33.6869 34.0622Z" fill="#FF5A5F"/>
<path d="M32.3256 65.4933C32.1966 60.5615 33.3233 56.1076 33.422 51.1834C33.5054 47.2076 31.8666 44.9427 29.8673 42.5034C29.6467 44.3945 29.6581 46.3056 29.9014 48.1939C30.516 52.7654 27.8224 64.3438 27.8224 64.3438C29.2875 64.8562 30.7942 65.2408 32.3256 65.4933Z" fill="#EF4747"/>
<path d="M27.8218 47.6742C30.5495 45.3979 29.4379 43.1217 32.1846 40.9707L32.784 40.5078C32.9243 39.3204 30.0677 39.935 30.853 38.74C31.9569 37.0669 36.5891 34.5327 36.4904 32.9014C36.4221 31.7936 36.3956 32.4727 36.6042 31.3839C36.8395 30.1244 37.363 29.8664 36.3842 28.9597C35.6937 28.3148 35.1095 27.6168 35.6596 26.6418C36.1073 25.8489 36.8243 25.6137 37.4464 26.361C37.6058 26.5545 38.4252 28.1972 38.6339 27.2753C38.6908 27.0136 38.3456 26.5166 38.3152 26.2283C38.2777 26.041 38.2879 25.8472 38.3449 25.6649C38.4019 25.4826 38.5039 25.3175 38.6415 25.185C39.1309 24.6652 39.8517 24.3883 40.3562 23.8686C40.9898 23.2123 41.0694 22.3511 41.9837 21.9717C42.4521 21.7984 42.9632 21.7772 43.4443 21.911C43.6568 21.9717 44.5824 22.5901 44.7266 22.5294C46.2934 21.9148 45.5916 19.4944 44.5179 18.7357C42.6211 17.4192 40.1779 16.4594 37.8562 16.4898C35.0185 16.5467 32.4236 18.7433 30.7733 20.8715C29.5783 22.4156 29.6617 24.0507 28.7968 25.7085C28.0153 27.226 26.3157 27.9848 25.299 29.3391C24.3429 30.6176 24.3353 32.283 24.7109 33.7891C25.003 34.9652 25.3293 36.035 25.1358 37.2414C24.8968 38.7589 23.6942 39.8477 23.2845 41.2969C22.8099 42.6255 22.7859 44.0733 23.2162 45.4169C23.9332 48.1218 25.538 48.8578 27.8218 47.6742Z" fill="#007A87"/>
<path d="M23.611 72.1512C23.6027 72.8718 23.7832 73.582 24.1346 74.2112C24.3464 74.4708 24.5015 74.7719 24.5898 75.0952C24.6934 75.4633 24.8359 75.8194 25.0147 76.1574C25.2209 76.4815 25.3289 76.8583 25.3258 77.2424C25.2613 77.709 24.7833 77.341 24.4988 77.0489C24.2142 76.7568 23.9904 75.3645 23.5238 75.3114C23.0571 75.2583 23.4062 76.9162 23.482 77.2424C23.6603 78.0012 24.2408 78.1984 24.696 78.7409C24.9692 79.0596 24.9957 79.291 24.5139 79.3328C24.1346 79.3631 23.8652 79.052 23.63 78.8206C23.1079 78.335 22.7164 77.7257 22.4919 77.0489C22.6622 77.6874 22.9575 78.2857 23.3606 78.8092C23.5883 79.1089 24.7757 80.2091 24.3356 80.6074C23.4555 81.4041 21.6497 78.2212 21.6079 77.5725C21.756 78.2192 22.0126 78.8362 22.3667 79.3972C22.5526 79.7425 23.0306 80.5354 22.3325 80.486C21.2969 80.414 21.0275 78.3009 20.7392 77.3752C20.7694 78.0055 20.8869 78.6285 21.0882 79.2265C21.2817 80.0384 20.6178 79.898 20.2726 79.1013C20.1288 78.707 20.0097 78.3041 19.9159 77.8949C19.5366 76.2447 19.7528 75.3304 20.2953 73.7939C20.4888 73.2438 20.265 72.0298 20.705 71.7832C21.5738 71.2901 22.8106 71.935 23.611 72.1512Z" fill="#FFBE9E"/>
<path d="M24.195 72.2004L19.7222 72.4394C19.7222 72.4394 19.669 59.2221 20.8603 54.7341C22.0515 50.2461 30.5153 38.1555 32.4463 37.2374C34.7643 36.1335 41.6574 39.0812 36.6194 43.0039C31.5813 46.9266 26.7785 56.2819 26.5812 56.6613C26.3839 57.0407 24.195 72.2004 24.195 72.2004Z" fill="#FF5A5F"/>
<path d="M45.5269 29.2934C45.7583 29.0544 46.5588 28.8761 46.4602 28.4208C46.3701 28.1711 46.2531 27.9319 46.1112 27.7076C45.9708 27.4231 45.8228 27.1423 45.6749 26.8616C45.4081 26.2326 45.2689 25.5569 45.2652 24.8737C45.1823 24.0742 45.048 23.281 44.863 22.4988C44.863 22.4457 44.5747 22.4988 44.5899 22.5747C44.7627 23.325 44.8894 24.0851 44.9692 24.8509C45.0413 25.5338 45.0262 26.2356 45.3486 26.8654C45.6066 27.3775 45.8835 27.8783 46.1301 28.3829C46.3767 28.8874 45.5573 29.0316 45.2765 29.3199C45.2234 29.3768 45.4776 29.3427 45.5231 29.2972L45.5269 29.2934Z" fill="#383838"/>
<path d="M44.5371 25.6703C44.178 25.4705 43.7744 25.3641 43.3635 25.3607C42.9525 25.3574 42.5473 25.4574 42.185 25.6514C42.0219 25.7386 42.185 25.8752 42.3064 25.8031C42.6173 25.6359 42.9655 25.5502 43.3185 25.5542C43.6714 25.5582 44.0176 25.6517 44.3247 25.8259C44.356 25.8416 44.3911 25.8482 44.426 25.8449C44.4609 25.8415 44.4942 25.8283 44.5219 25.8069C44.5637 25.7765 44.5978 25.7045 44.5219 25.6703H44.5371Z" fill="#383838"/>
<path d="M44.3435 23.9746C44.0104 23.8631 43.6554 23.8339 43.3085 23.8894C42.9617 23.9449 42.6335 24.0835 42.3518 24.2933C42.257 24.3615 42.2949 24.4526 42.3973 24.4678C42.5323 24.4842 42.6683 24.4474 42.7767 24.3653C42.7995 24.3653 42.8033 24.3464 42.7767 24.3653C42.7891 24.3543 42.8032 24.3453 42.8184 24.3388L42.9019 24.2857C42.9019 24.2857 42.9967 24.2401 42.9588 24.2553L43.0347 24.225L43.0992 24.1984L43.2168 24.1681H43.2813H43.3534H43.5203C43.4823 24.1681 43.5658 24.1681 43.5734 24.1681H43.6493C43.7312 24.1802 43.8114 24.2018 43.8883 24.2326C43.9521 24.2487 44.0185 24.252 44.0837 24.2422C44.1488 24.2324 44.2113 24.2098 44.2676 24.1757C44.3283 24.1415 44.4459 24.0239 44.3208 23.9784L44.3435 23.9746Z" fill="#383838"/>
<path d="M43.8315 26.5658C44.0682 26.5658 44.2601 26.3738 44.2601 26.1371C44.2601 25.9003 44.0682 25.7084 43.8315 25.7084C43.5947 25.7084 43.4028 25.9003 43.4028 26.1371C43.4028 26.3738 43.5947 26.5658 43.8315 26.5658Z" fill="#383838"/>
<path d="M42.8522 29.7221C43.0904 30.0043 43.3848 30.2338 43.7166 30.3958C44.0485 30.5578 44.4104 30.6488 44.7794 30.663C44.8481 30.6683 44.9166 30.6496 44.9729 30.6099C45.0109 30.5795 45.0109 30.5378 44.9539 30.5378C44.5996 30.521 44.2525 30.4312 43.9346 30.2738C43.6166 30.1165 43.3347 29.8951 43.1064 29.6235C43.0571 29.5666 42.7953 29.6614 42.8522 29.7221Z" fill="#383838"/>
</svg>
