<svg width="236" height="236" viewBox="0 0 236 236" fill="none" xmlns="http://www.w3.org/2000/svg">
<mask id="mask0" mask-type="alpha" maskUnits="userSpaceOnUse" x="0" y="0" width="236" height="236">
<rect width="235" height="235" transform="matrix(-1 0 0 1 235.998 0.302246)" fill="#C4C4C4"/>
</mask>
<g mask="url(#mask0)">
<path fill-rule="evenodd" clip-rule="evenodd" d="M66.7825 255.487H188.982L190.762 209.24C190.762 209.24 194.568 151.11 163.134 139.313L146.284 135.064L104.719 132.606C103.373 133.051 54.5237 151.426 47.8058 158.599L66.7825 255.487Z" fill="#007A87"/>
<path d="M169.468 142.639C169.468 142.639 188.076 148.845 194.093 166.085C200.766 185.126 211.635 255.203 211.635 255.203H187.275L169.468 142.639Z" fill="#007A87"/>
<path d="M47.8305 158.599C47.8305 158.599 37.8203 171.724 32.9932 187.673C28.1661 203.623 25.3633 255.52 25.3633 255.52H75.9888L78.0723 208.472C78.0723 208.472 83.1219 140.615 47.8305 158.599Z" fill="#007A87"/>
<path d="M198.588 182.69C198.198 182.184 197.728 181.745 197.198 181.389C196.435 180.872 195.575 180.516 194.671 180.342C193.767 180.168 192.836 180.18 191.937 180.377C189.512 180.733 187.154 182.601 184.051 183.825C182.432 184.545 180.635 184.766 178.89 184.459C177.066 184.069 175.476 182.757 173.807 181.478C172.952 180.789 172.019 180.203 171.027 179.732C170.489 179.478 169.906 179.334 169.312 179.309C168.718 179.284 168.125 179.379 167.568 179.587C166.438 180.082 165.496 180.924 164.876 181.989C164.186 182.99 163.63 184.08 162.907 185.059C162.243 186.098 161.248 186.882 160.082 187.284C158.869 187.635 157.581 187.635 156.367 187.284C155.092 186.932 153.871 186.404 152.741 185.715C151.629 185.037 150.517 184.214 149.282 183.491C148.08 182.697 146.779 182.065 145.412 181.611C143.964 181.153 142.41 181.153 140.963 181.611C139.538 182.139 138.231 182.94 137.114 183.969C136.002 184.937 134.89 186.005 133.722 186.928C132.593 187.906 131.228 188.573 129.762 188.863C128.266 189.13 126.725 188.972 125.314 188.407C122.422 187.295 119.864 185.36 117.016 183.791C115.613 182.95 114.085 182.338 112.489 181.978C110.876 181.662 109.207 181.793 107.662 182.357C104.637 183.547 102.39 185.838 99.6986 187.117C99.0395 187.44 98.3454 187.686 97.6299 187.851C96.92 187.993 96.1946 188.042 95.4721 187.996C94.0291 187.851 92.6238 187.448 91.3235 186.805C88.6875 185.615 86.3073 183.947 83.5378 183.046C82.1899 182.57 80.7434 182.444 79.3335 182.679C77.9699 182.967 76.7072 183.612 75.6742 184.548C73.6388 186.249 72.0261 188.418 69.7015 189.141C68.5615 189.474 67.3551 189.509 66.198 189.241C65.0645 188.983 63.9497 188.649 62.8613 188.24C60.7146 187.484 58.4679 186.705 56.2879 187.206C55.2513 187.444 54.2843 187.92 53.4628 188.596C52.6509 189.219 51.9391 189.909 51.2384 190.531C50.5611 191.152 49.8147 191.694 49.0139 192.144C48.265 192.541 47.4515 192.801 46.6114 192.912C45.0802 193.113 43.5233 192.957 42.0624 192.456C40.8309 192.034 39.666 191.439 38.6033 190.687C37.1357 189.629 35.7659 188.442 34.5103 187.139L33.5093 186.138C33.4048 186.016 33.2852 185.908 33.1533 185.816C33.1533 185.816 33.2534 185.949 33.4648 186.183L34.4213 187.228C35.6574 188.568 37.0166 189.79 38.481 190.876C39.5508 191.653 40.7271 192.271 41.9734 192.711C43.4723 193.248 45.0757 193.427 46.6559 193.234C47.5381 193.125 48.3934 192.857 49.1807 192.445C49.979 191.981 50.7248 191.433 51.4052 190.81C52.84 189.586 54.2637 188.018 56.3102 187.606C58.3567 187.195 60.4922 187.895 62.6388 188.663C63.7493 189.082 64.8862 189.428 66.0423 189.697C67.2764 189.981 68.5623 189.947 69.7794 189.597C71.0234 189.174 72.1615 188.487 73.1161 187.584C74.0949 186.716 74.9847 185.771 75.9968 184.937C76.9595 184.055 78.1436 183.452 79.4225 183.191C80.7449 182.98 82.0991 183.106 83.3598 183.558C85.9736 184.425 88.3538 186.083 91.0454 187.306C92.3993 187.982 93.8658 188.404 95.372 188.552C96.1462 188.604 96.9238 188.555 97.6855 188.407C98.4541 188.233 99.2004 187.972 99.91 187.629C102.713 186.283 104.96 184.003 107.84 182.902C109.281 182.372 110.839 182.249 112.345 182.546C113.879 182.9 115.35 183.489 116.705 184.292C119.508 185.827 122.066 187.818 125.08 188.952C126.587 189.539 128.225 189.704 129.818 189.43C131.373 189.118 132.821 188.409 134.022 187.373C136.436 185.493 138.371 183.046 141.096 182.145C142.432 181.722 143.865 181.722 145.2 182.145C146.52 182.584 147.776 183.193 148.938 183.958C150.128 184.681 151.229 185.504 152.43 186.183C153.6 186.887 154.861 187.425 156.178 187.784C157.486 188.162 158.874 188.162 160.182 187.784C161.436 187.354 162.511 186.521 163.241 185.415C163.986 184.392 164.542 183.291 165.198 182.312C165.776 181.336 166.637 180.56 167.668 180.088C168.172 179.897 168.71 179.81 169.25 179.833C169.789 179.856 170.317 179.988 170.804 180.221C171.77 180.669 172.678 181.233 173.507 181.9C175.175 183.146 176.844 184.492 178.757 184.915C180.574 185.221 182.44 184.977 184.118 184.214C187.265 182.968 189.579 181.066 191.903 180.688C192.78 180.487 193.687 180.461 194.573 180.614C195.459 180.767 196.306 181.095 197.064 181.578C197.598 181.911 198.108 182.283 198.588 182.69Z" fill="#FAFAFA"/>
<path d="M204.479 212.766C204.316 212.751 204.152 212.751 203.989 212.766L202.543 212.91C200.731 213.269 198.862 213.219 197.071 212.766C195.892 212.51 194.568 212.276 193.123 212.021C191.677 211.765 190.131 211.42 188.418 211.22C186.557 210.951 184.66 211.088 182.857 211.62C180.966 212.176 179.131 213.144 177.106 213.845C174.995 214.562 172.716 214.628 170.566 214.034C168.342 213.489 166.117 212.454 163.659 211.62C161.204 210.571 158.486 210.303 155.874 210.853C153.182 211.609 151.013 213.6 148.321 214.256C147.652 214.42 146.96 214.469 146.275 214.401C145.573 214.314 144.883 214.15 144.217 213.911C142.86 213.444 141.548 212.799 140.113 212.254C138.648 211.646 137.012 211.591 135.509 212.098C134.095 212.769 132.784 213.638 131.616 214.679C131.02 215.145 130.37 215.537 129.68 215.847C128.978 216.144 128.218 216.284 127.456 216.258C125.9 216.116 124.388 215.666 123.007 214.935C121.554 214.191 120.035 213.584 118.469 213.122C117.644 212.918 116.79 212.858 115.944 212.944C115.095 213.058 114.273 213.325 113.52 213.733C112.109 214.584 110.75 215.516 109.449 216.525C108.806 216.977 108.111 217.35 107.38 217.637C107.022 217.781 106.649 217.886 106.268 217.949L105.7 218.049H105.122C103.564 218.016 102.026 217.696 100.584 217.103C99.116 216.57 97.6701 215.936 96.1352 215.491C94.6342 214.955 93.016 214.836 91.4527 215.146C89.9455 215.568 88.5809 216.39 87.5042 217.526C86.4934 218.581 85.408 219.563 84.2565 220.462C83.1178 221.272 81.7354 221.664 80.3414 221.575C78.9718 221.434 77.6423 221.03 76.4263 220.385C75.1917 219.784 74.0239 219.083 72.8338 218.427C70.4981 217.126 67.9288 215.936 65.2706 216.203C62.8149 216.655 60.5168 217.731 58.5971 219.328C56.8566 220.738 54.9957 221.992 53.0359 223.076C51.2085 223.961 49.2319 224.497 47.2078 224.656C45.3957 224.756 43.5783 224.617 41.8023 224.244C38.9536 223.585 36.2916 222.288 34.0166 220.451C32.6008 219.268 31.3775 217.873 30.3907 216.314C30.0793 215.769 29.868 215.324 29.7122 215.046C29.64 214.896 29.5582 214.751 29.4675 214.612C29.5166 214.769 29.5799 214.922 29.6566 215.068C29.8012 215.357 29.9903 215.813 30.2906 216.369C31.2399 217.975 32.4503 219.411 33.872 220.618C36.1507 222.512 38.8331 223.859 41.7133 224.555C43.5151 224.96 45.3636 225.117 47.2078 225.023C49.2843 224.879 51.3148 224.343 53.1916 223.443C55.1882 222.368 57.0831 221.113 58.8529 219.695C60.7156 218.157 62.9397 217.12 65.315 216.681C67.8064 216.403 70.2645 217.537 72.5891 218.839C73.7569 219.495 74.9359 220.207 76.2039 220.818C77.4779 221.498 78.8716 221.925 80.308 222.075C81.8196 222.168 83.3179 221.745 84.5568 220.874C85.7434 219.967 86.8589 218.97 87.8935 217.893C88.9035 216.829 90.1838 216.061 91.5973 215.669C93.066 215.385 94.5841 215.504 95.9906 216.013C97.4588 216.447 98.8935 217.126 100.384 217.615C101.888 218.238 103.495 218.574 105.122 218.605H105.756L106.368 218.494C106.785 218.43 107.192 218.314 107.58 218.149C108.366 217.842 109.113 217.443 109.805 216.959C111.092 215.967 112.432 215.046 113.82 214.201C114.51 213.824 115.265 213.579 116.044 213.478C116.822 213.402 117.608 213.454 118.369 213.633C119.903 214.091 121.392 214.686 122.818 215.413C124.263 216.171 125.842 216.64 127.467 216.792C128.298 216.804 129.122 216.649 129.892 216.336C130.621 216.004 131.308 215.586 131.938 215.09C133.071 214.091 134.332 213.246 135.686 212.577C137.072 212.116 138.577 212.171 139.924 212.732C141.303 213.211 142.627 213.9 144.028 214.378C144.747 214.636 145.494 214.808 146.253 214.89C146.998 214.961 147.749 214.908 148.477 214.734C151.358 214 153.505 212.009 156.052 211.298C158.58 210.757 161.213 211.009 163.593 212.021C165.871 212.938 168.195 213.74 170.555 214.423C172.786 215.025 175.147 214.94 177.329 214.178C179.398 213.478 181.21 212.499 183.057 211.954C184.79 211.433 186.614 211.289 188.407 211.531C190.097 211.709 191.666 212.043 193.111 212.287C194.557 212.532 195.881 212.732 197.06 212.977C197.649 213.088 198.172 213.222 198.75 213.3C199.253 213.361 199.761 213.361 200.263 213.3C201.186 213.199 201.965 213.088 202.599 212.999L204.022 212.799C204.175 212.802 204.328 212.791 204.479 212.766Z" fill="#FAFAFA"/>
<path d="M183.682 151.648C183.682 151.648 183.348 152.049 182.569 152.649C181.441 153.495 180.131 154.066 178.743 154.318C176.538 154.696 174.288 154.741 172.07 154.451C170.769 154.351 169.367 154.218 167.866 154.24C166.271 154.23 164.687 154.513 163.194 155.074C161.613 155.786 160.075 156.592 158.59 157.488C157.796 157.928 156.966 158.3 156.109 158.6C155.217 158.868 154.293 159.017 153.362 159.045C151.375 159.037 149.395 158.813 147.456 158.378C145.353 157.898 143.19 157.733 141.038 157.888C138.795 158.288 136.665 159.172 134.799 160.48C132.93 161.812 130.812 162.754 128.57 163.249C127.412 163.376 126.241 163.297 125.111 163.016C123.966 162.686 122.85 162.261 121.774 161.748C119.567 160.568 117.259 159.585 114.878 158.811C113.626 158.487 112.323 158.412 111.041 158.589C109.791 158.822 108.591 159.27 107.493 159.912C105.324 161.136 103.478 162.715 101.354 163.694C99.2627 164.634 96.9368 164.921 94.6802 164.517C92.4918 164.137 90.338 163.579 88.2403 162.849C86.2092 162.164 84.121 161.661 82.0007 161.347C79.9774 161.112 77.9283 161.24 75.9501 161.725C72.4842 162.732 69.0944 163.985 65.8064 165.474C63.1037 166.667 60.1374 167.139 57.1977 166.842C54.9731 166.656 52.7939 166.108 50.7467 165.218C48.9923 164.467 47.4326 163.326 46.1866 161.881C46.4657 162.284 46.7863 162.657 47.1431 162.993C48.1613 163.998 49.3518 164.812 50.6577 165.396C52.7178 166.324 54.9155 166.91 57.1644 167.131C58.5689 167.286 59.9863 167.286 61.3909 167.131C62.9618 166.919 64.4962 166.492 65.951 165.863C69.2301 164.405 72.6087 163.182 76.0613 162.204C77.9859 161.736 79.979 161.619 81.9451 161.859C84.0303 162.19 86.084 162.696 88.0846 163.371C90.2049 164.113 92.3806 164.686 94.5912 165.084C96.9565 165.499 99.3919 165.201 101.587 164.228C103.812 163.205 105.658 161.603 107.771 160.424C108.803 159.817 109.932 159.392 111.108 159.167C112.312 159.002 113.537 159.078 114.712 159.39C117.059 160.153 119.333 161.125 121.507 162.293C122.627 162.818 123.787 163.249 124.978 163.583C126.177 163.882 127.42 163.961 128.648 163.816C130.968 163.314 133.16 162.341 135.088 160.958C136.887 159.69 138.94 158.829 141.105 158.433C145.387 157.966 149.414 159.734 153.34 159.545C154.314 159.509 155.28 159.341 156.209 159.045C157.09 158.751 157.942 158.379 158.756 157.933C160.221 157.037 161.736 156.228 163.294 155.508C166.342 154.296 169.423 154.674 172.003 154.829C174.245 155.096 176.514 155.017 178.732 154.596C180.142 154.315 181.462 153.697 182.581 152.794C183.004 152.47 183.375 152.084 183.682 151.648Z" fill="#FAFAFA"/>
<path d="M148.622 135.009C148.591 135.279 148.591 135.551 148.622 135.821C148.622 136.399 148.622 137.155 148.622 138.112C148.693 140.913 148.409 143.713 147.776 146.443C147.312 148.307 146.497 150.066 145.374 151.626C144.049 153.381 142.351 154.821 140.402 155.841C138.244 156.993 135.928 157.821 133.529 158.299C130.974 158.867 128.359 159.121 125.743 159.055C120.646 159.007 115.654 157.598 111.284 154.974C107.75 152.786 104.882 149.674 102.987 145.976C101.72 143.477 100.985 140.742 100.829 137.945C100.751 135.965 100.962 134.875 100.884 134.864C100.818 135.124 100.77 135.388 100.74 135.654C100.637 136.417 100.588 137.186 100.595 137.956C100.668 140.803 101.359 143.6 102.62 146.153C104.503 149.962 107.406 153.173 111.006 155.43C115.444 158.127 120.527 159.579 125.721 159.634C128.39 159.7 131.057 159.438 133.662 158.855C136.11 158.356 138.472 157.498 140.669 156.308C142.686 155.23 144.431 153.709 145.774 151.859C146.916 150.244 147.736 148.424 148.188 146.498C148.79 143.731 149.018 140.895 148.866 138.068C148.866 137.066 148.777 136.288 148.733 135.765C148.723 135.51 148.686 135.256 148.622 135.009Z" fill="#383838"/>
<path d="M126.59 157.198C132.374 156.736 137.751 154.039 141.578 149.678C145.405 145.317 147.382 139.636 147.089 133.841C146.677 125.388 146.232 117.769 146.232 117.769C146.232 117.769 164.362 114.944 164.584 96.8365C164.807 78.7292 161.659 37.1092 161.659 37.1092C151.36 32.685 140.066 31.0906 128.945 32.4906C117.823 33.8906 107.277 38.2342 98.3951 45.0729L95.7146 47.1305L102.577 136.655C102.801 139.582 103.6 142.436 104.928 145.054C106.257 147.672 108.089 150.002 110.32 151.91C112.551 153.819 115.136 155.268 117.928 156.175C120.72 157.083 123.664 157.43 126.59 157.198Z" fill="#FFBE9E"/>
<path d="M146.27 117.558C137.911 117.727 129.691 115.404 122.657 110.884C122.657 110.884 128.218 123.92 146.314 122.285L146.27 117.558Z" fill="#E38D74"/>
<path d="M154.342 64.6499C154.351 65.3248 154.095 65.9765 153.629 66.4651C153.163 66.9537 152.525 67.2404 151.85 67.2636C151.521 67.2893 151.189 67.2489 150.876 67.1448C150.562 67.0407 150.273 66.875 150.024 66.6574C149.775 66.4399 149.573 66.1748 149.428 65.8778C149.283 65.5808 149.199 65.2578 149.181 64.9279C149.177 64.2546 149.435 63.6061 149.899 63.1187C150.364 62.6313 150.999 62.3429 151.672 62.3142C152.002 62.2885 152.333 62.3288 152.646 62.4329C152.96 62.537 153.25 62.7027 153.498 62.9203C153.747 63.1379 153.95 63.403 154.094 63.7C154.239 63.997 154.323 64.3199 154.342 64.6499Z" fill="#383838"/>
<path d="M158.235 62.6127C157.912 62.9464 156.01 61.5005 153.174 61.5005C150.338 61.5005 148.347 62.9019 148.047 62.6127C147.902 62.457 148.225 61.8453 149.159 61.2002C150.365 60.3676 151.798 59.925 153.263 59.9322C154.709 59.9303 156.118 60.3858 157.29 61.2335C158.101 61.8453 158.391 62.457 158.235 62.6127Z" fill="#383838"/>
<path d="M128.096 65.306C128.102 65.9802 127.845 66.6302 127.38 67.1182C126.915 67.6062 126.278 67.8938 125.604 67.9198C125.274 67.947 124.943 67.9077 124.628 67.8042C124.314 67.7007 124.024 67.5351 123.775 67.3172C123.526 67.0994 123.323 66.8337 123.179 66.5359C123.035 66.2382 122.952 65.9145 122.935 65.5841C122.929 64.9099 123.185 64.2599 123.65 63.7718C124.116 63.2838 124.753 62.9963 125.426 62.9703C125.756 62.9431 126.088 62.9824 126.402 63.0859C126.716 63.1894 127.007 63.355 127.256 63.5728C127.505 63.7907 127.707 64.0564 127.852 64.3542C127.996 64.6519 128.079 64.9756 128.096 65.306Z" fill="#383838"/>
<path d="M130.876 63.1355C130.553 63.4692 128.584 62.0232 125.804 62.0232C123.023 62.0232 120.988 63.4247 120.676 63.1355C120.532 62.9909 120.854 62.3791 121.789 61.7341C122.992 60.8962 124.426 60.4531 125.893 60.4661C127.342 60.4611 128.756 60.9168 129.93 61.7674C130.742 62.368 131.031 62.9798 130.876 63.1355Z" fill="#383838"/>
<path d="M140.972 83.7793C140.972 83.6236 142.696 83.3233 145.499 82.9673C146.211 82.8895 146.878 82.7449 147 82.2666C147.059 81.53 146.892 80.7931 146.522 80.1534L144.42 74.7368C141.506 67.0289 139.393 60.7003 139.704 60.578C140.015 60.4556 142.629 66.6174 145.554 74.3252C146.251 76.2235 146.922 78.0401 147.567 79.7752C148.01 80.6351 148.139 81.6219 147.935 82.5669C147.833 82.8176 147.674 83.0414 147.472 83.2208C147.269 83.4002 147.028 83.5305 146.767 83.6013C146.372 83.7102 145.964 83.7663 145.554 83.7682C142.729 83.9239 140.983 83.935 140.972 83.7793Z" fill="#383838"/>
<path d="M132.775 85.7036C133.231 85.7036 133.242 88.6955 135.822 90.8422C138.403 92.9888 141.628 92.6551 141.65 93.0666C141.65 93.2557 140.939 93.6561 139.571 93.6895C137.802 93.7162 136.08 93.1174 134.71 91.9989C133.391 90.9235 132.544 89.3746 132.352 87.6834C132.274 86.4154 132.575 85.6814 132.775 85.7036Z" fill="#383838"/>
<path d="M131.588 52.2243C131.321 52.9807 128.54 52.6136 125.27 53.014C122 53.4144 119.364 54.2931 118.931 53.6146C118.742 53.2921 119.198 52.5803 120.265 51.8462C121.676 50.931 123.286 50.3666 124.959 50.2001C126.631 50.0019 128.327 50.2 129.908 50.7784C131.11 51.2678 131.71 51.8573 131.588 52.2243Z" fill="#383838"/>
<path d="M157.209 54.5492C156.72 55.1832 154.807 54.5492 152.493 54.5492C150.18 54.5492 148.234 54.9718 147.789 54.3045C147.589 53.9819 147.9 53.348 148.756 52.7585C149.9 52.0356 151.233 51.6715 152.585 51.7132C153.937 51.7548 155.245 52.2002 156.342 52.992C157.154 53.5926 157.432 54.2489 157.209 54.5492Z" fill="#383838"/>
<path d="M145.84 91.4144C145.447 91.4736 144.657 90.6067 143.518 89.8289C142.379 89.0511 141.319 88.5459 141.261 88.1608C141.24 87.9797 141.546 87.8607 142.109 87.9407C142.846 88.07 143.591 88.3898 144.246 88.859C144.902 89.3282 145.439 89.9253 145.788 90.5734C146.043 91.0583 146.022 91.3833 145.84 91.4144Z" fill="#383838"/>
<path d="M135.192 84.0268C135.28 84.4152 136.374 84.8367 137.511 85.6167C138.649 86.3966 139.504 87.2017 139.884 87.1166C140.06 87.0704 140.06 86.742 139.782 86.2456C139.394 85.6055 138.826 85.0276 138.151 84.5865C137.477 84.1454 136.726 83.8612 135.995 83.7706C135.451 83.7085 135.155 83.846 135.192 84.0268Z" fill="#383838"/>
<path d="M133.992 82.8199C134.184 83.169 135.352 83.2718 136.661 83.707C137.969 84.1421 139.014 84.6796 139.355 84.4928C139.512 84.3996 139.421 84.0841 139.016 83.684C138.467 83.1759 137.762 82.7775 136.991 82.54C136.221 82.3026 135.42 82.2371 134.693 82.3518C134.153 82.4426 133.907 82.6563 133.992 82.8199Z" fill="#383838"/>
<path d="M132.086 81.0347C132.307 81.3661 133.479 81.3685 134.82 81.6899C136.162 82.0114 137.248 82.4574 137.572 82.242C137.721 82.1358 137.603 81.8291 137.165 81.4652C136.574 81.0061 135.838 80.6695 135.05 80.499C134.262 80.3284 133.459 80.3317 132.744 80.5083C132.213 80.645 131.987 80.879 132.086 81.0347Z" fill="#383838"/>
<path d="M148.266 91.5941C147.872 91.6533 147.083 90.7864 145.944 90.0086C144.805 89.2308 143.745 88.7255 143.686 88.3405C143.665 88.1594 143.972 88.0404 144.535 88.1204C145.272 88.2497 146.017 88.5695 146.672 89.0387C147.328 89.5079 147.865 90.105 148.214 90.7531C148.469 91.2379 148.448 91.563 148.266 91.5941Z" fill="#383838"/>
<path d="M150.782 91.7738C150.388 91.833 149.599 90.9661 148.46 90.1883C147.32 89.4105 146.26 88.9052 146.202 88.5202C146.181 88.3391 146.487 88.2201 147.051 88.3001C147.788 88.4294 148.532 88.7492 149.188 89.2184C149.843 89.6876 150.38 90.2847 150.73 90.9327C150.985 91.4176 150.964 91.7426 150.782 91.7738Z" fill="#383838"/>
<path d="M146.026 118.953C145.91 118.572 146.655 117.666 147.261 116.427C147.868 115.188 148.215 114.066 148.588 113.954C148.764 113.907 148.926 114.193 148.928 114.762C148.906 115.51 148.696 116.292 148.326 117.009C147.955 117.725 147.442 118.342 146.85 118.781C146.407 119.103 146.082 119.128 146.026 118.953Z" fill="#383838"/>
<path d="M143.716 119.459C143.646 118.986 144.567 117.72 145.386 116.046C146.205 114.372 146.732 112.884 147.146 112.687C147.34 112.603 147.473 112.947 147.396 113.678C147.269 114.641 146.937 115.674 146.442 116.645C145.947 117.615 145.313 118.479 144.621 119.123C144.103 119.598 143.752 119.676 143.716 119.459Z" fill="#383838"/>
<path d="M142.048 120.356C141.906 119.811 142.644 118.005 143.217 115.741C143.791 113.476 144.099 111.527 144.486 111.162C144.669 111 144.854 111.371 144.886 112.271C144.902 113.466 144.722 114.809 144.369 116.128C144.017 117.447 143.508 118.681 142.908 119.671C142.458 120.402 142.117 120.606 142.048 120.356Z" fill="#383838"/>
<path d="M141.35 120.31C141.715 119.879 141.839 117.929 142.309 115.636C142.78 113.343 143.353 111.45 143.164 110.952C143.07 110.726 142.741 110.98 142.32 111.778C141.785 112.849 141.362 114.139 141.104 115.483C140.846 116.826 140.766 118.161 140.875 119.316C140.961 120.173 141.179 120.505 141.35 120.31Z" fill="#383838"/>
<path d="M139.367 120.089C139.717 119.729 139.785 118.054 140.187 116.094C140.59 114.134 141.105 112.522 140.903 112.088C140.803 111.89 140.484 112.1 140.088 112.775C139.587 113.681 139.202 114.779 138.985 115.928C138.767 117.077 138.726 118.224 138.866 119.22C138.976 119.96 139.203 120.252 139.367 120.089Z" fill="#383838"/>
<path d="M137.194 119.864C137.537 119.542 137.573 118.017 137.939 116.238C138.304 114.459 138.788 112.999 138.579 112.599C138.475 112.418 138.161 112.603 137.779 113.21C137.296 114.027 136.933 115.021 136.737 116.064C136.541 117.108 136.521 118.152 136.679 119.063C136.802 119.739 137.033 120.009 137.194 119.864Z" fill="#383838"/>
<path d="M135.113 119.415C135.437 119.184 135.401 118.012 135.679 116.661C135.956 115.31 136.366 114.209 136.14 113.892C136.029 113.748 135.727 113.875 135.377 114.324C134.938 114.93 134.625 115.677 134.481 116.471C134.336 117.264 134.366 118.066 134.565 118.775C134.719 119.301 134.961 119.519 135.113 119.415Z" fill="#383838"/>
<path d="M133.148 118.664C133.472 118.433 133.436 117.261 133.714 115.91C133.991 114.559 134.401 113.458 134.175 113.141C134.065 112.997 133.762 113.124 133.412 113.573C132.973 114.179 132.661 114.927 132.516 115.72C132.371 116.513 132.401 117.315 132.601 118.024C132.755 118.55 132.996 118.768 133.148 118.664Z" fill="#383838"/>
<path d="M131.07 118.003C131.394 117.772 131.358 116.6 131.636 115.249C131.913 113.898 132.323 112.797 132.097 112.48C131.986 112.335 131.684 112.463 131.334 112.912C130.895 113.518 130.582 114.265 130.438 115.059C130.293 115.852 130.323 116.654 130.522 117.363C130.676 117.888 130.918 118.107 131.07 118.003Z" fill="#383838"/>
<path d="M128.99 117.137C129.314 116.905 129.278 115.733 129.556 114.382C129.833 113.031 130.243 111.931 130.018 111.613C129.907 111.469 129.604 111.596 129.254 112.046C128.815 112.651 128.503 113.399 128.358 114.192C128.213 114.985 128.243 115.788 128.443 116.496C128.597 117.022 128.838 117.241 128.99 117.137Z" fill="#383838"/>
<path d="M148.197 118.61C148.082 118.229 148.827 117.323 149.433 116.084C150.039 114.845 150.387 113.724 150.76 113.611C150.936 113.564 151.098 113.85 151.1 114.419C151.078 115.167 150.868 115.95 150.498 116.666C150.127 117.382 149.613 117.999 149.022 118.438C148.579 118.76 148.254 118.785 148.197 118.61Z" fill="#383838"/>
<path d="M150.51 117.816C150.395 117.434 151.139 116.529 151.746 115.29C152.352 114.051 152.7 112.929 153.073 112.816C153.249 112.77 153.41 113.055 153.412 113.625C153.39 114.373 153.18 115.155 152.81 115.871C152.44 116.588 151.926 117.205 151.335 117.643C150.892 117.965 150.567 117.991 150.51 117.816Z" fill="#383838"/>
<path d="M152.877 116.314C152.762 115.932 153.507 115.027 154.113 113.788C154.719 112.549 155.067 111.427 155.44 111.314C155.616 111.268 155.778 111.554 155.779 112.123C155.757 112.871 155.548 113.653 155.177 114.369C154.807 115.086 154.293 115.703 153.702 116.141C153.259 116.463 152.934 116.489 152.877 116.314Z" fill="#383838"/>
<path d="M154.994 115.043C154.879 114.661 155.624 113.756 156.23 112.517C156.836 111.278 157.184 110.156 157.557 110.043C157.733 109.997 157.895 110.283 157.897 110.852C157.874 111.6 157.665 112.382 157.294 113.098C156.924 113.815 156.41 114.432 155.819 114.87C155.376 115.192 155.051 115.218 154.994 115.043Z" fill="#383838"/>
<path d="M157.555 113.462C157.358 113.116 157.883 112.068 158.198 110.725C158.514 109.382 158.603 108.211 158.942 108.018C159.103 107.933 159.324 108.176 159.453 108.731C159.597 109.465 159.567 110.274 159.365 111.055C159.163 111.836 158.8 112.552 158.321 113.111C157.96 113.523 157.65 113.62 157.555 113.462Z" fill="#383838"/>
<path d="M97.9424 65.9052C97.642 65.7717 85.4964 62.2237 85.8968 74.6141C86.2972 87.0044 98.643 84.0459 98.6542 83.6899C98.6653 83.334 97.9424 65.9052 97.9424 65.9052Z" fill="#FFBE9E"/>
<path d="M94.7116 79.1185C94.656 79.1185 94.5003 79.2743 94.1444 79.4522C93.6395 79.6931 93.0599 79.725 92.5316 79.5412C91.208 79.1074 90.0402 77.0609 89.9067 74.8364C89.8394 73.773 90.0143 72.7081 90.4183 71.7221C90.521 71.3308 90.7174 70.9703 90.9907 70.6718C91.2639 70.3734 91.6058 70.146 91.9866 70.0093C92.2328 69.9394 92.4956 69.9565 92.7306 70.0579C92.9657 70.1592 93.1586 70.3384 93.2768 70.5654C93.4548 70.9102 93.388 71.1549 93.4548 71.1772C93.5215 71.1994 93.7106 70.9547 93.5994 70.4542C93.5127 70.1486 93.3293 69.8793 93.0766 69.6868C92.7269 69.443 92.2966 69.3434 91.8754 69.4087C91.3646 69.5249 90.892 69.7698 90.5027 70.1203C90.1133 70.4707 89.8201 70.9149 89.6509 71.4107C89.1593 72.4983 88.9417 73.6898 89.0169 74.8809C89.1726 77.3723 90.5296 79.6747 92.3536 80.1307C92.6901 80.2162 93.0414 80.2256 93.3819 80.1583C93.7225 80.0909 94.0437 79.9485 94.3223 79.7414C94.7005 79.4189 94.7561 79.1408 94.7116 79.1185Z" fill="#E38D74"/>
<path d="M168.599 21.4712C167.276 18.8633 165.374 16.5927 163.038 14.8332C160.703 13.0737 157.995 11.8721 155.124 11.3203C152.252 10.7685 149.292 10.8812 146.471 11.6498C143.65 12.4183 141.041 13.8223 138.846 15.7543C137.471 13.0119 135.444 10.6489 132.943 8.87239C130.441 7.0959 127.542 5.96023 124.5 5.56498C121.458 5.16972 118.365 5.52694 115.493 6.60532C112.62 7.68371 110.057 9.4503 108.026 11.7502C104.556 15.6875 102.754 21.0374 98.6833 24.3519C95.1687 27.2103 90.3861 28.1669 86.8491 31.0253C84.8868 32.6 83.3968 34.6852 82.5428 37.0518C81.6889 39.4184 81.5041 41.9747 82.0088 44.4395C82.5134 46.9043 83.6881 49.1823 85.4035 51.0228C87.1189 52.8633 89.3086 54.1951 91.7318 54.8717C87.839 61.8789 91.4872 71.9224 98.9614 74.8142L100.763 74.069C104.132 70.2261 106.283 65.4687 106.942 60.401C107.602 55.3333 106.74 50.1839 104.467 45.6068C104.686 45.6179 104.905 45.6179 105.123 45.6068C108.242 47.3402 111.891 47.8596 115.369 47.065C118.847 46.2704 121.908 44.218 123.965 41.3024C126.475 43.0528 129.433 44.0506 132.49 44.1786C135.548 44.3067 138.579 43.5597 141.227 42.0254C141.999 41.4491 142.887 41.0469 143.829 40.8464C144.981 40.8614 146.105 41.1965 147.077 41.814C149.756 43.2667 152.809 43.8827 155.841 43.5825C157.245 43.4125 158.584 42.8926 159.734 42.0705C160.885 41.2485 161.81 40.1506 162.426 38.8777C162.496 38.8831 162.567 38.8831 162.637 38.8777C164.372 38.4826 165.965 37.6194 167.244 36.382C168.522 35.1447 169.437 33.5805 169.889 31.8595C170.764 28.3567 170.304 24.6536 168.599 21.4712Z" fill="#383838"/>
<path fill-rule="evenodd" clip-rule="evenodd" d="M189.505 253.063L188.985 252.982C189.367 246.974 189.622 241.18 189.817 235.705C190.16 226.032 190.289 217.305 190.354 209.986C190.396 205.266 190.412 201.132 190.425 197.684C190.432 195.786 190.439 194.096 190.448 192.63L190.479 187.907C190.492 187.391 190.499 186.987 190.502 186.683C190.506 186.557 190.522 186.431 190.549 186.308L190.573 186.728C190.576 186.807 190.578 186.893 190.581 186.986C190.589 187.252 190.599 187.575 190.606 187.96C190.613 188.503 190.625 189.146 190.639 189.894C190.655 190.699 190.672 191.626 190.688 192.679C190.734 196.773 190.796 202.704 190.775 210.03C190.754 217.355 190.713 226.096 190.326 235.763C190.106 241.24 189.868 247.04 189.505 253.063Z" fill="#383838"/>
<path fill-rule="evenodd" clip-rule="evenodd" d="M65.878 252.421H66.404C66.9566 246.426 67.6007 240.663 68.2554 235.224C69.4121 225.614 70.6356 216.972 71.7033 209.731C72.392 205.062 73.0158 200.975 73.5362 197.566C73.8226 195.69 74.0777 194.019 74.2949 192.569L74.9956 187.898C75.0623 187.386 75.1179 186.986 75.1624 186.686C75.178 186.56 75.1817 186.434 75.1735 186.308L75.0846 186.719C75.0702 186.797 75.0543 186.881 75.0371 186.973C74.9879 187.234 74.928 187.552 74.8621 187.931C74.7711 188.467 74.6594 189.1 74.5297 189.836C74.3899 190.63 74.229 191.542 74.0502 192.581C73.3717 196.618 72.3929 202.468 71.2807 209.709C70.1684 216.95 68.856 225.592 67.7438 235.202C67.1135 240.647 66.4511 246.414 65.878 252.421Z" fill="#383838"/>
</g>
</svg>