<svg width="110" height="8" viewBox="0 0 110 8" fill="none" xmlns="http://www.w3.org/2000/svg">
<path d="M108.168 4.54842C99.5497 3.98661 90.9909 2.93526 82.3895 2.31103C77.0774 1.92663 71.7653 1.65394 66.4192 1.58495C60.5291 1.49624 54.6348 1.58495 48.749 1.6178C38.6645 1.68022 28.5799 1.75579 18.5039 1.99563C15.1042 2.07776 11.6704 2.17304 8.25793 2.35045C7.10625 2.41288 5.95459 2.48187 4.81142 2.58044L4.14422 2.64286L3.85099 2.67243H3.71075C3.46427 2.69871 3.94449 2.63957 3.75325 2.67243C3.44302 2.71514 3.13279 2.75128 2.82681 2.81042L2.4741 2.88598C2.20637 2.94183 2.72482 2.84327 2.4231 2.90569C2.3976 2.90569 2.3636 2.94183 2.3381 2.94183C2.31261 2.94183 2.47409 2.84656 2.43159 2.8827C2.3891 2.91884 2.49959 2.7907 2.46984 2.69871C2.49959 2.79399 2.40185 2.58372 2.40185 2.58372C2.47834 2.68228 2.25311 2.4523 2.28711 2.47859C2.4231 2.59029 1.97263 2.30774 2.20212 2.41945C2.01513 2.32746 1.88338 2.30117 2.11287 2.37017C1.6879 2.24532 1.86214 2.30774 2.07037 2.35045L2.3551 2.40302C2.4146 2.40302 2.4741 2.40302 2.53359 2.43259C2.31686 2.38331 2.20636 2.38988 2.44434 2.43259L3.34103 2.53115C4.13147 2.60343 4.92617 2.65272 5.72086 2.69543C7.93494 2.81699 10.1575 2.87613 12.3759 2.92541L13.2811 2.94512H13.519H14.08L16.1453 3.00097L20.446 3.05025C26.4593 3.11925 32.4726 3.14882 38.486 3.23424C42.9651 3.29666 47.4953 3.29666 51.9575 3.65806C53.0836 3.74677 54.6943 3.79605 55.557 4.44985C56.6916 5.30736 54.6433 5.58662 53.9336 5.66218C52.0042 5.86917 50.0409 5.94473 48.0988 6.07615C44.2769 6.33241 40.4607 6.64015 36.6501 6.99936C33.9728 7.25343 31.2969 7.52941 28.6224 7.82729C28.3151 7.85285 28.0046 7.81598 27.7213 7.72033C27.4381 7.62468 27.1921 7.47357 27.0076 7.28191C26.6973 6.86466 27.2753 6.68067 27.7045 6.62482C35.4134 5.7706 43.1394 5.14965 50.8951 4.62727C51.6302 4.57799 52.3612 4.51885 53.0921 4.45314C53.3301 4.43014 52.7989 4.49585 53.0199 4.45314L53.1771 4.43343L53.4746 4.38086C53.6404 4.35458 53.7253 4.29872 53.4746 4.39729C53.6149 4.34472 53.6106 4.28558 53.4449 4.43671C53.5554 4.33815 53.3811 4.58784 53.4109 4.50571C53.392 4.58355 53.4101 4.66406 53.4619 4.7324C53.4151 4.66998 53.6786 4.92624 53.5681 4.84082C53.5681 4.84082 53.8656 5.01495 53.7211 4.93939C53.9803 5.0708 54.0058 5.04781 53.8061 4.98538C53.9378 5.02809 54.1758 5.0708 53.8911 5.01495L53.5894 4.9591C53.2111 4.8901 53.9463 5.00181 53.5341 4.9591L53.1091 4.90982C51.456 4.7324 49.7774 4.67326 48.1073 4.61413C46.9768 4.57142 45.8422 4.54185 44.7075 4.51556L43.7896 4.49585H43.5686H43.0246L41.0145 4.45971C35.065 4.36772 29.1154 4.33486 23.1658 4.27244C17.858 4.21659 12.5416 4.17716 7.2465 3.9439C5.70387 3.90524 4.16558 3.79553 2.63983 3.61535C2.05493 3.55389 1.48326 3.43235 0.939957 3.25395C0.45549 3.07325 -0.334953 2.61986 0.153763 2.15661C0.45974 1.85764 1.08444 1.76236 1.53916 1.68679C2.38135 1.55176 3.2326 1.45304 4.08897 1.3911C6.82578 1.16112 9.58807 1.06256 12.3419 0.970567C21.5127 0.642022 30.7218 0.559886 39.9266 0.481036C45.7317 0.435039 51.5396 0.40109 57.3503 0.379187C63.1554 0.352903 68.9477 0.402185 74.7401 0.70116C83.9491 1.13155 93.069 2.12376 102.231 2.92869C104.11 3.09296 105.988 3.25724 107.875 3.36894C108.355 3.39851 109.15 3.62849 109.256 4.05889C109.362 4.48928 108.559 4.5747 108.168 4.54842Z" fill="white"/>
</svg>
