<svg width="1280" height="1042" viewBox="0 0 1280 1042" fill="none" xmlns="http://www.w3.org/2000/svg">
<g opacity="0.3">
<mask id="mask0" mask-type="alpha" maskUnits="userSpaceOnUse" x="0" y="0" width="1280" height="1042">
<rect y="0.862305" width="1280" height="1040.63" fill="#00D1C1"/>
</mask>
<g mask="url(#mask0)">
<path fill-rule="evenodd" clip-rule="evenodd" d="M1568.43 1095.5C1506.92 1161.43 1419.26 1202.65 1321.98 1202.65C1135.87 1202.65 985 1051.77 985 865.66C985 858.508 985.222 851.407 985.661 844.365H982.656C982.22 851.408 982 858.508 982 865.66C982 1053.43 1134.22 1205.65 1321.98 1205.65C1421.13 1205.65 1510.37 1163.2 1572.51 1095.5H1568.43ZM1623.19 1016.93H1626.55C1649.22 971.369 1661.97 920.003 1661.97 865.66C1661.97 778.111 1628.88 698.29 1574.52 638.024H1570.46C1625.43 697.988 1658.97 777.907 1658.97 865.66C1658.97 920.055 1646.08 971.44 1623.19 1016.93ZM1321.98 528.675C1174.17 528.675 1048.59 623.843 1003.16 756.248H999.988C1045.54 622.157 1172.49 525.675 1321.98 525.675C1388.05 525.675 1449.71 544.517 1501.89 577.121V580.665C1449.84 547.736 1388.14 528.675 1321.98 528.675Z" fill="white"/>
<path fill-rule="evenodd" clip-rule="evenodd" d="M1278.66 610.798C1156.53 631.408 1063.51 737.671 1063.51 865.66C1063.51 1008.41 1179.23 1124.14 1321.98 1124.14C1342.19 1124.14 1361.86 1121.82 1380.73 1117.43V1114.35C1361.87 1118.79 1342.2 1121.14 1321.98 1121.14C1180.89 1121.14 1066.51 1006.76 1066.51 865.66C1066.51 739.332 1158.2 634.419 1278.66 613.842V610.798ZM1349.15 611.611C1477.48 625.176 1577.46 733.742 1577.46 865.66C1577.46 894.16 1572.79 921.571 1564.18 947.169H1567.35C1575.85 921.544 1580.46 894.14 1580.46 865.66C1580.46 732.083 1479.14 622.172 1349.15 608.594V611.611ZM1431.4 1096.59C1457.67 1084.12 1481.48 1067.29 1501.89 1047.05V1051.25C1481.38 1071.14 1457.58 1087.65 1431.4 1099.91V1096.59ZM1540.66 997.836C1545.11 990.482 1549.2 982.886 1552.91 975.072H1556.23C1552.58 982.881 1548.54 990.476 1544.16 997.836H1540.66Z" fill="white"/>
<path fill-rule="evenodd" clip-rule="evenodd" d="M1321.98 1042.57C1402.35 1042.57 1470.19 988.982 1491.74 915.593H1494.87C1473.23 990.66 1404.02 1045.57 1321.98 1045.57C1222.63 1045.57 1142.08 965.019 1142.08 865.66C1142.08 848.335 1144.53 831.581 1149.1 815.727H1152.22C1147.57 831.563 1145.08 848.32 1145.08 865.66C1145.08 963.363 1224.28 1042.57 1321.98 1042.57ZM1170.72 773.871C1201.76 722.839 1257.89 688.755 1321.98 688.755C1393.78 688.755 1455.58 731.519 1483.31 792.964H1486.6C1458.67 729.817 1395.47 685.755 1321.98 685.755C1256.15 685.755 1198.58 721.112 1167.22 773.871H1170.72Z" fill="white"/>
<path fill-rule="evenodd" clip-rule="evenodd" d="M1321.98 972.072C1380.75 972.072 1428.4 924.43 1428.4 865.66C1428.4 851.364 1425.58 837.727 1420.46 825.273H1423.7C1428.67 837.769 1431.4 851.396 1431.4 865.66C1431.4 926.087 1382.41 975.072 1321.98 975.072C1279.55 975.072 1242.75 950.911 1224.6 915.593H1227.99C1245.88 949.196 1281.26 972.072 1321.98 972.072ZM1215.57 866.394C1215.57 866.15 1215.57 865.905 1215.57 865.66C1215.57 806.89 1263.21 759.248 1321.98 759.248C1343.63 759.248 1363.76 765.71 1380.56 776.809H1385.85C1367.87 763.87 1345.82 756.248 1321.98 756.248C1261.56 756.248 1212.57 805.234 1212.57 865.66C1212.57 865.905 1212.57 866.15 1212.57 866.394H1215.57Z" fill="white"/>
<path fill-rule="evenodd" clip-rule="evenodd" d="M387.438 -402.868C320.126 -448.31 239.665 -476.041 152.519 -479.122C-44.6771 -486.094 -216.648 -364.744 -282.986 -189.987L-279.818 -189.874C-213.66 -362.952 -43.1061 -483.037 152.413 -476.124C239.647 -473.04 320.137 -445.089 387.313 -399.327L387.438 -402.868ZM-311.818 -46.498C-311.485 -55.9324 -310.862 -65.2884 -309.959 -74.558L-306.955 -74.4518C-307.862 -65.1829 -308.486 -55.8269 -308.82 -46.392C-317.519 199.641 -125.121 406.142 120.912 414.841C249.833 419.4 367.9 368.742 452.341 284.084L456.422 284.228C371.285 370.641 251.594 422.464 120.806 417.839C-126.883 409.082 -320.575 201.191 -311.818 -46.498ZM531.363 183.104C563.395 124.063 582.609 56.9007 585.143 -14.7846C589.227 -130.273 549.297 -237.11 480.402 -319.143L476.354 -319.286C545.861 -237.532 586.236 -130.582 582.145 -14.8907C579.609 56.8463 560.256 124.023 528.011 182.985L531.363 183.104Z" fill="white"/>
<path fill-rule="evenodd" clip-rule="evenodd" d="M91.4008 -368.855C-70.6605 -347.364 -198.329 -211.53 -204.298 -42.6966C-210.956 145.611 -63.6999 303.662 124.608 310.32C151.264 311.263 177.314 309.121 202.414 304.215L202.522 301.136C177.432 306.094 151.379 308.265 124.714 307.322C-61.9381 300.723 -207.9 144.061 -201.3 -42.5906C-195.39 -209.764 -69.1029 -344.297 91.2932 -365.814L91.4008 -368.855ZM184.386 -365.46C353.557 -341.558 480.798 -193.238 474.627 -18.6923C473.298 18.8966 465.883 54.8352 453.363 88.2099L456.524 88.3217C468.942 54.9172 476.296 18.9824 477.625 -18.5863C483.855 -194.79 355.322 -344.501 184.493 -368.475L184.386 -365.46ZM270.184 280.145C305.395 264.989 337.577 244.007 365.473 218.373L365.325 222.566C337.343 247.84 305.184 268.517 270.067 283.459L270.184 280.145ZM420.073 153.952C426.27 144.458 432.005 134.628 437.244 124.494L440.558 124.612C435.374 134.741 429.701 144.573 423.57 154.076L420.073 153.952Z" fill="white"/>
<path fill-rule="evenodd" clip-rule="evenodd" d="M128.378 203.678C234.92 207.445 327.368 139.518 359.268 43.1789L362.391 43.2893C330.341 141.303 236.484 210.502 128.272 206.676C-2.79455 202.042 -105.288 92.0346 -100.654 -39.032C-99.8463 -61.8864 -95.8343 -83.8719 -89.0654 -104.572L-85.9427 -104.462C-92.79 -83.783 -96.8477 -61.795 -97.6562 -38.926C-102.232 90.4848 -1.03273 199.102 128.378 203.678ZM-59.7083 -158.816C-16.2655 -225.235 59.8448 -267.969 144.947 -264.96C240.192 -261.593 320.155 -201.869 353.914 -118.976L357.198 -118.86C323.302 -203.46 241.993 -264.531 145.053 -267.958C58.216 -271.029 -19.3771 -227.074 -63.2045 -158.939L-59.7083 -158.816Z" fill="white"/>
<path fill-rule="evenodd" clip-rule="evenodd" d="M131.666 110.688C209.72 113.448 275.233 52.4098 277.992 -25.6443C278.659 -44.492 275.605 -62.6085 269.491 -79.2867L272.723 -79.1724C278.691 -62.4578 281.656 -44.3549 280.991 -25.5383C278.172 54.1716 211.27 116.505 131.56 113.686C75.5792 111.707 28.1691 78.119 5.87935 30.6847L9.26027 30.8043C31.3549 76.5164 77.3979 108.769 131.666 110.688ZM-4.69729 -34.6693C-4.68805 -34.992 -4.67772 -35.3149 -4.66629 -35.6381C-1.90659 -113.692 63.6059 -174.73 141.66 -171.971C170.922 -170.936 197.792 -161.082 219.806 -145.054L225.047 -144.868C201.945 -162.775 173.207 -173.857 141.766 -174.969C62.0561 -177.787 -4.84617 -115.454 -7.66442 -35.7441C-7.67585 -35.4209 -7.6862 -35.098 -7.69549 -34.7753L-4.69729 -34.6693Z" fill="white"/>
</g>
</g>
</svg>
