<svg width="120" height="41" viewBox="0 0 120 41" fill="none" xmlns="http://www.w3.org/2000/svg">
<path d="M0 0H9.97297V26.88L17.7568 20.8L30 40H17.7568L9.97297 26.88V40H0V0Z" fill="#00D1C2"/>
<path d="M17.7568 10.08V0H30L17.7568 10.08Z" fill="#00D1C2"/>
<g filter="url(#filter0_d_2568_1261)">
<path d="M44.4926 7.24541C44.7994 6.49234 45.5316 6 46.3448 6H113.026C114.446 6 115.414 7.43919 114.878 8.75459L105.507 31.7546C105.201 32.5077 104.468 33 103.655 33H36.9744C35.554 33 34.5863 31.5608 35.1222 30.2454L44.4926 7.24541Z" fill="#00D1C2"/>
</g>
<path d="M49.46 19.404V16.764H50.96C51.872 16.764 52.424 17.28 52.424 18.096C52.424 18.9 51.872 19.404 50.96 19.404H49.46ZM51.176 20.676C52.808 20.676 53.888 19.584 53.888 18.084C53.888 16.596 52.808 15.492 51.176 15.492H48.02V24H49.46V20.676H51.176ZM59.5113 24H61.1433L59.2233 20.496C60.4113 20.208 61.1433 19.284 61.1433 18.072C61.1433 16.632 60.1233 15.492 58.4793 15.492H55.2153V24H56.6673V20.64H57.7233L59.5113 24ZM56.6673 19.368V16.764H58.2153C59.1033 16.764 59.6793 17.28 59.6793 18.072C59.6793 18.852 59.1033 19.368 58.2153 19.368H56.6673ZM67.9362 24V22.656H64.1202V20.4H67.5762V19.092H64.1202V16.836H67.9362V15.492H62.6802V24H67.9362ZM79.0245 24V15.492H77.0685L74.3445 21.984L71.5845 15.492H69.6645V24H71.0685V17.76L73.6965 24H74.9445L77.5965 17.736V24H79.0245ZM82.5309 24V15.492H81.0669V24H82.5309ZM87.6428 24.18C89.4308 24.18 90.8228 23.088 90.8228 21.036V15.492H89.3828V20.952C89.3828 22.152 88.7348 22.812 87.6428 22.812C86.5628 22.812 85.9028 22.152 85.9028 20.952V15.492H84.4748V21.036C84.4748 23.088 85.8668 24.18 87.6428 24.18ZM102.122 24V15.492H100.166L97.4422 21.984L94.6822 15.492H92.7622V24H94.1662V17.76L96.7942 24H98.0422L100.694 17.736V24H102.122Z" fill="white"/>
<defs>
<filter id="filter0_d_2568_1261" x="30.9727" y="6" width="88.0547" height="35" filterUnits="userSpaceOnUse" color-interpolation-filters="sRGB">
<feFlood flood-opacity="0" result="BackgroundImageFix"/>
<feColorMatrix in="SourceAlpha" type="matrix" values="0 0 0 0 0 0 0 0 0 0 0 0 0 0 0 0 0 0 127 0" result="hardAlpha"/>
<feOffset dy="4"/>
<feGaussianBlur stdDeviation="2"/>
<feComposite in2="hardAlpha" operator="out"/>
<feColorMatrix type="matrix" values="0 0 0 0 0 0 0 0 0 0 0 0 0 0 0 0 0 0 0.25 0"/>
<feBlend mode="normal" in2="BackgroundImageFix" result="effect1_dropShadow_2568_1261"/>
<feBlend mode="normal" in="SourceGraphic" in2="effect1_dropShadow_2568_1261" result="shape"/>
</filter>
</defs>
</svg>
