<svg width="183" height="231" viewBox="0 0 183 231" fill="none" xmlns="http://www.w3.org/2000/svg">
<path fill-rule="evenodd" clip-rule="evenodd" d="M45.0163 230.006L52.2609 123.961L73.2615 119.356L114.597 118.859L122.955 120.527L135.329 230.006H45.0163Z" fill="#FCF5EB"/>
<path fill-rule="evenodd" clip-rule="evenodd" d="M0.984619 230.006C1.21648 227.976 1.45555 225.874 1.70037 223.722C3.7662 205.563 6.24115 183.808 8.24741 170.78C10.6252 155.706 16.9156 146.346 23.3302 139.026C32.4245 128.66 48.2523 124.666 60.8941 121.477C62.0036 121.197 63.0887 120.923 64.1425 120.652L60.8508 182.5L62.613 230.006H0.984619Z" fill="#007A87"/>
<path fill-rule="evenodd" clip-rule="evenodd" d="M114.319 230.006L116.16 197.876L119.709 119.507C138.341 120.27 159.546 135.664 165.907 147.659C170.343 155.981 174.061 165.652 175.223 175.012C177.018 189.319 179.817 211.855 182.016 230.006H114.319Z" fill="#007A87"/>
<path d="M137.409 189.216C137.285 189.216 137.506 198.199 137.915 209.267C138.323 220.335 138.749 229.31 138.873 229.302C138.997 229.294 138.784 220.327 138.376 209.252C137.968 198.176 137.542 189.209 137.409 189.216Z" fill="#383838"/>
<path d="M44.8807 229.178C44.8788 228.696 44.1243 224.301 44.0377 223.827C43.9223 222.94 43.7005 221.573 43.39 219.941C42.7778 216.676 41.6954 212.213 40.5508 207.289C39.5388 203.095 38.7656 198.848 38.2352 194.566C38.1287 193.741 38.0844 192.996 38.0223 192.339C37.9602 191.683 37.9247 191.124 37.9069 190.654C37.9112 190.172 37.8696 189.69 37.7827 189.216C37.7254 189.696 37.7076 190.18 37.7295 190.662C37.7295 191.124 37.7295 191.701 37.7295 192.357C37.7295 193.014 37.7827 193.768 37.8803 194.593C38.3117 198.906 39.0409 203.183 40.0629 207.396C41.2163 212.328 42.3431 216.765 43.0351 220.012C43.3811 221.627 43.6561 222.949 43.8247 223.853C43.9016 224.332 44.8827 229.66 44.8807 229.178Z" fill="#383838"/>
<path d="M126 38.8186C124.096 29.7728 116.393 30.8667 111.046 26.124C103.043 19.0499 96.365 14.4662 91.7964 20.7676C83.5419 10.1098 69.8796 -3.41281 59.4533 0.783693C49.027 4.98019 40.5562 21.4198 42.4597 37.7662C43.5759 47.3982 47.9108 56.031 47.6512 65.7429C47.4782 72.404 45.1853 78.4256 43.325 84.4739C41.4647 90.5222 40.0976 97.5563 41.7242 103.738C43.2384 109.48 47.1763 121.574 49.2096 126.903C50.8709 131.273 43.4447 148.463 44.509 153.246C53.8018 164.147 59.8085 164.06 76.1145 149.75C86.5504 161.047 103.65 140.267 109.353 123.695C115.055 107.122 116.889 88.0976 117.546 69.4065" fill="#5E282A"/>
<path d="M117.244 34.44L114.786 132.833C113.899 144.11 103.51 152.352 91.4436 151.305C79.262 150.258 69.955 140.17 70.6559 128.761C71.3923 116.792 71.9424 104.167 71.9424 104.167C71.9424 104.167 56.6911 100.618 54.7924 80.2828C53.8253 69.8668 55.511 52.7789 57.2766 39.2399C57.6228 36.5406 58.5115 33.9393 59.8892 31.5924C61.2669 29.2456 63.1051 27.2017 65.2933 25.5837C67.4815 23.9658 69.9744 22.8073 72.622 22.1779C75.2695 21.5485 78.0171 21.4612 80.6993 21.9213" fill="#FFCEBE"/>
<path d="M63.4838 53.7821C63.4318 54.4536 63.6453 55.1186 64.0782 55.6345C64.5112 56.1504 65.1291 56.476 65.7994 56.5413C66.1258 56.59 66.4585 56.5726 66.778 56.4903C67.0975 56.408 67.3973 56.2625 67.6595 56.0623C67.9218 55.8621 68.1412 55.6113 68.3048 55.3248C68.4684 55.0383 68.5728 54.7219 68.6119 54.3943C68.6617 53.7223 68.4477 53.0574 68.0154 52.5406C67.5831 52.0238 66.9665 51.6958 66.2963 51.6261C65.9695 51.5788 65.6365 51.5974 65.3169 51.6807C64.9974 51.764 64.6978 51.9105 64.4357 52.1114C64.1736 52.3123 63.9544 52.5636 63.7909 52.8505C63.6274 53.1374 63.523 53.4542 63.4838 53.7821Z" fill="#383838"/>
<path d="M59.2371 51.1559C59.5387 51.5108 61.5882 50.1888 64.3653 50.3752C67.1423 50.5615 69.0853 52.0786 69.4047 51.7592C69.5644 51.6173 69.2805 50.9962 68.4376 50.2864C67.2879 49.3745 65.8837 48.8414 64.4185 48.7604C62.9769 48.6655 61.5421 49.0288 60.3195 49.7985C59.4234 50.4106 59.0951 50.9873 59.2371 51.1559Z" fill="#383838"/>
<path d="M90.0971 56.5682C90.0427 57.2412 90.255 57.9085 90.6882 58.4264C91.1214 58.9442 91.7407 59.271 92.4127 59.3363C92.7395 59.3837 93.0725 59.3651 93.3921 59.2818C93.7116 59.1984 94.0112 59.052 94.2733 58.8511C94.5354 58.6502 94.7546 58.3989 94.9181 58.1119C95.0816 57.825 95.186 57.5083 95.2252 57.1804C95.275 56.5085 95.061 55.8436 94.6287 55.3268C94.1964 54.81 93.5797 54.4819 92.9096 54.4123C92.5827 54.3649 92.2498 54.3835 91.9302 54.4668C91.6107 54.5502 91.311 54.6966 91.049 54.8975C90.7869 55.0984 90.5676 55.3497 90.4042 55.6367C90.2407 55.9236 90.1363 56.2403 90.0971 56.5682Z" fill="#383838"/>
<path d="M86.5028 53.4357C86.8044 53.7906 88.8539 52.4686 91.6309 52.6549C94.4079 52.8413 96.3509 54.3584 96.6703 54.039C96.83 53.8971 96.5461 53.276 95.6944 52.5662C94.5471 51.656 93.1463 51.123 91.6841 51.0402C90.2425 50.9453 88.8078 51.3086 87.5852 52.0782C86.6447 52.6816 86.3608 53.2671 86.5028 53.4357Z" fill="#383838"/>
<path d="M75.1094 73.3716C75.1094 73.2207 73.4326 72.8126 70.6733 72.2714C69.9724 72.1561 69.307 71.9698 69.2183 71.4729C69.2059 70.7374 69.4196 70.0159 69.8305 69.4057C70.6023 67.7288 72.9746 66.3384 73.8263 64.5019C77.2333 56.996 78.197 50.4546 77.8953 50.3215C77.5937 50.1884 76.142 56.5169 72.7262 63.9873C71.9099 65.8327 69.5643 67.2409 68.819 68.9532C68.3122 69.7778 68.1171 70.7565 68.269 71.7125C68.3556 71.969 68.4997 72.2023 68.6904 72.3946C68.8811 72.5868 69.1133 72.7328 69.3691 72.8215C69.7526 72.9554 70.1526 73.036 70.558 73.061C73.335 73.4071 75.1094 73.5313 75.1094 73.3716Z" fill="#383838"/>
<path d="M71.9343 104.132C81.4008 104.888 90.8915 103.003 99.3495 98.6841C99.3495 98.6841 91.7282 112.232 71.7125 109.047L71.9343 104.132Z" fill="#EF918B"/>
<path d="M86.4844 42.5054C86.7151 43.2773 89.5098 43.0999 92.7393 43.7032C95.9688 44.3065 98.5506 45.3623 99.0297 44.7146C99.2426 44.4041 98.8256 43.6588 97.8142 42.8603C96.463 41.8603 94.8941 41.1945 93.2361 40.9173C91.5798 40.6121 89.8749 40.7002 88.2588 41.1746C87.0345 41.5827 86.3957 42.1417 86.4844 42.5054Z" fill="#383838"/>
<path d="M60.7818 43.1797C61.2255 43.8451 63.1862 43.3128 65.4841 43.4281C67.782 43.5435 69.7073 44.129 70.1953 43.4991C70.4171 43.1886 70.1953 42.5409 69.308 41.8844C68.2108 41.0953 66.9037 40.6504 65.553 40.6062C64.2022 40.562 62.8688 40.9204 61.7223 41.6359C60.9149 42.2304 60.5867 42.8603 60.7818 43.1797Z" fill="#383838"/>
<path d="M79.4055 78.5973C77.2318 78.5973 76.1494 79.2361 74.304 80.3718C73.7481 80.6646 73.2912 81.1153 72.9909 81.6671C72.8489 82.0636 72.7999 82.4873 72.8476 82.9057C72.8953 83.3242 73.0384 83.726 73.2659 84.0804C73.7196 84.8861 74.394 85.5455 75.2097 85.9809C76.0255 86.4163 76.9487 86.6096 77.8706 86.538C78.7895 86.4415 79.6553 86.0604 80.3472 85.448C81.0391 84.8357 81.5225 84.0225 81.73 83.1222C81.9018 82.2144 81.7667 81.2752 81.3458 80.4527C80.9249 79.6303 80.2423 78.9713 79.4055 78.5796" fill="#FF5A5F"/>
<path d="M72.0292 83.2375C72.0292 83.4504 72.7212 83.7698 73.9367 83.6988C75.4736 83.5562 76.9591 83.0711 78.2841 82.2793C79.6205 81.5355 80.8037 80.545 81.7709 79.3603C82.4895 78.4731 82.7113 77.6923 82.525 77.5858C82.1612 77.3463 80.3336 79.2627 77.459 80.842C76.2701 81.5281 75.0195 82.1014 73.7238 82.5543C72.7301 82.8914 72.0558 83.0068 72.0292 83.2375Z" fill="#383838"/>
<path d="M85.7381 65.9191C85.3314 65.9191 85.0017 65.5894 85.0017 65.1827C85.0017 64.776 85.3314 64.4463 85.7381 64.4463C86.1448 64.4463 86.4745 64.776 86.4745 65.1827C86.4745 65.5894 86.1448 65.9191 85.7381 65.9191Z" fill="#FF5A5F"/>
<path d="M64.1501 61.5714C64.1501 61.717 64.1933 61.8594 64.2743 61.9805C64.3552 62.1016 64.4702 62.196 64.6047 62.2517C64.7393 62.3074 64.8874 62.322 65.0302 62.2936C65.1731 62.2652 65.3043 62.1951 65.4072 62.0921C65.5102 61.9891 65.5804 61.8579 65.6088 61.715C65.6372 61.5722 65.6226 61.4241 65.5669 61.2896C65.5111 61.155 65.4168 61.04 65.2957 60.9591C65.1746 60.8781 65.0322 60.835 64.8865 60.835C64.6912 60.835 64.5039 60.9125 64.3658 61.0506C64.2277 61.1887 64.1501 61.3761 64.1501 61.5714Z" fill="#FF5A5F"/>
<path d="M60.0782 63.4883C60.0668 63.5924 60.0775 63.6977 60.1095 63.7974C60.1415 63.8971 60.1942 63.989 60.2641 64.0669C60.334 64.1449 60.4196 64.2073 60.5152 64.25C60.6108 64.2927 60.7143 64.3148 60.819 64.3148C60.9238 64.3148 61.0273 64.2927 61.1229 64.25C61.2186 64.2073 61.3041 64.1449 61.374 64.0669C61.4439 63.989 61.4966 63.8971 61.5286 63.7974C61.5606 63.6977 61.5713 63.5924 61.5599 63.4883C61.5399 63.3058 61.4532 63.1371 61.3165 63.0145C61.1798 62.892 61.0026 62.8242 60.819 62.8242C60.6354 62.8242 60.4583 62.892 60.3216 63.0145C60.1849 63.1371 60.0982 63.3058 60.0782 63.4883Z" fill="#FF5A5F"/>
<path d="M58.8494 60.4092C58.8494 60.5549 58.8925 60.6973 58.9735 60.8184C59.0544 60.9395 59.1694 61.0338 59.3039 61.0896C59.4385 61.1453 59.5866 61.1599 59.7294 61.1315C59.8723 61.1031 60.0035 61.0329 60.1064 60.93C60.2094 60.827 60.2796 60.6958 60.308 60.5529C60.3364 60.4101 60.3218 60.262 60.2661 60.1274C60.2103 59.9929 60.116 59.8779 59.9949 59.797C59.8738 59.716 59.7314 59.6729 59.5857 59.6729C59.3904 59.6729 59.2032 59.7504 59.065 59.8885C58.9269 60.0266 58.8494 60.2139 58.8494 60.4092Z" fill="#FF5A5F"/>
<path d="M88.3707 68.439C88.369 68.5868 88.4112 68.7318 88.492 68.8555C88.5728 68.9792 88.6886 69.0761 88.8246 69.1339C88.9606 69.1916 89.1107 69.2077 89.2559 69.1799C89.401 69.1522 89.5346 69.0819 89.6398 68.978C89.7449 68.8742 89.8167 68.7414 89.8462 68.5966C89.8757 68.4518 89.8615 68.3015 89.8053 68.1648C89.7492 68.0281 89.6537 67.9112 89.531 67.8289C89.4082 67.7466 89.2638 67.7026 89.116 67.7026C88.9199 67.7026 88.7316 67.7799 88.5921 67.9178C88.4526 68.0556 88.3731 68.2429 88.3707 68.439Z" fill="#FF5A5F"/>
<path d="M91.1423 65.4932C91.1423 65.6389 91.1855 65.7812 91.2664 65.9023C91.3473 66.0234 91.4623 66.1178 91.5969 66.1736C91.7315 66.2293 91.8795 66.2439 92.0224 66.2155C92.1652 66.1871 92.2964 66.1169 92.3994 66.0139C92.5024 65.911 92.5725 65.7797 92.601 65.6369C92.6294 65.4941 92.6148 65.346 92.5591 65.2114C92.5033 65.0769 92.4089 64.9619 92.2878 64.8809C92.1667 64.8 92.0244 64.7568 91.8787 64.7568C91.6834 64.7568 91.4961 64.8344 91.358 64.9725C91.2199 65.1106 91.1423 65.2979 91.1423 65.4932Z" fill="#FF5A5F"/>
<path d="M89.9343 20.783C91.4413 42.3233 101.568 61.7178 114.634 68.2502C110.422 77.8581 113.074 96.144 112.969 111.402C112.863 125.587 112.871 129.64 118.68 136.876C123.48 138.7 131.448 119.784 137.587 119.784C141.188 113.967 136.801 99.1003 136.538 91.0182C136.41 87.2275 135.475 83.6037 135.347 79.8249C135.197 75.6289 136.048 71.4806 136.515 67.3919C138.595 49.0941 132.627 29.4134 122.523 19.8413C112.419 10.2692 98.9988 10.9129 89 20.6996" fill="#5E282A"/>
<path d="M134.625 61.4742C134.81 61.3001 134.979 61.1101 135.131 60.9064C135.544 60.3125 135.844 59.6479 136.018 58.9457C136.559 57.1091 136.302 54.2079 134.847 51.1381C134.056 49.4574 132.968 47.9335 131.635 46.6399C130.175 45.1046 128.557 43.7277 126.809 42.532C124.874 41.199 122.762 40.142 120.536 39.3913C118.238 38.6016 115.798 37.9894 113.314 37.3684C110.83 36.7473 108.399 36.1352 106.127 35.3367C103.938 34.582 101.811 33.6565 99.766 32.5685C96.3074 30.727 93.0916 28.462 90.1928 25.8256C88.2389 24.0393 86.4347 22.0956 84.7985 20.0143C84.213 19.2779 83.7871 18.6835 83.4943 18.2399C83.356 18.0306 83.1985 17.8346 83.0241 17.6543C83.1393 17.876 83.2697 18.0894 83.4145 18.2931C83.6895 18.7101 84.0888 19.3223 84.6566 20.0675C86.2477 22.2059 88.0294 24.1955 89.9799 26.0119C92.8814 28.7047 96.1131 31.0181 99.5974 32.8968C101.658 34.0012 103.803 34.9416 106.012 35.7093C108.31 36.5167 110.75 37.1377 113.234 37.7676C115.718 38.3976 118.149 38.992 120.429 39.7639C122.63 40.4958 124.719 41.5257 126.64 42.8248C128.368 44.0031 129.973 45.3526 131.431 46.8528C132.729 48.1358 133.787 49.6413 134.554 51.2978C136.018 54.2877 136.328 57.118 135.84 58.919C135.614 59.845 135.201 60.7146 134.625 61.4742Z" fill="#5E282A"/>
<path d="M83.0408 17.6982C83.168 17.8762 83.3074 18.0451 83.4578 18.204C83.7417 18.5322 84.1764 18.9936 84.7354 19.588C86.3447 21.2441 88.0544 22.7997 89.8546 24.2459C92.517 26.4346 95.4813 28.2275 98.6559 29.5693C100.562 30.2736 102.528 30.8052 104.529 31.1574C106.597 31.5744 108.752 31.8938 110.953 32.231C115.098 32.7265 119.192 33.5844 123.188 34.795C126.429 35.8532 129.44 37.5182 132.06 39.7014C133.821 41.1779 135.274 42.9867 136.336 45.0247C136.613 45.5846 136.859 46.1592 137.073 46.7459C137.135 46.9561 137.222 47.1585 137.33 47.3492C137.289 47.1356 137.232 46.9251 137.161 46.7193C136.984 46.112 136.762 45.5189 136.496 44.9449C135.481 42.8458 134.043 40.9792 132.273 39.4618C129.651 37.2123 126.617 35.4946 123.338 34.4046C119.327 33.1515 115.212 32.2607 111.042 31.743C108.832 31.4147 106.685 31.0864 104.636 30.6872C102.657 30.3446 100.712 29.828 98.8245 29.1434C95.6808 27.8371 92.7361 26.0959 90.0765 23.9709C88.2612 22.5595 86.5227 21.052 84.8685 19.4549L83.5287 18.1419C83.3814 17.9779 83.218 17.8293 83.0408 17.6982Z" fill="#FFA6A8"/>
<path d="M60.512 0.149145C60.512 0.24674 62.242 0.308845 64.9481 1.03637C65.6818 1.22736 66.4045 1.45839 67.1129 1.7284C67.8848 1.9857 68.6656 2.3672 69.5084 2.73984C73.0967 4.47264 76.2546 6.98199 78.7533 10.086C79.3033 10.8224 79.8534 11.4967 80.2793 12.1976C80.7037 12.8224 81.0918 13.4712 81.4416 14.1407C82.7458 16.5894 83.216 18.2751 83.287 18.2396C83.228 17.8397 83.1269 17.4471 82.9853 17.0685C82.8576 16.6082 82.6975 16.1576 82.5062 15.7199C82.2812 15.1135 82.0205 14.521 81.7255 13.9455C81.3944 13.253 81.018 12.5832 80.5987 11.9403C80.1817 11.2306 79.6405 10.5297 79.0904 9.77552C77.8211 8.20227 76.3908 6.76604 74.8229 5.49023C73.2283 4.25184 71.5063 3.18706 69.6859 2.31397C68.889 1.93939 68.0714 1.61059 67.2371 1.32915C65.9171 0.866078 64.5567 0.52746 63.1736 0.31772C62.7052 0.226903 62.2308 0.170559 61.7541 0.149145C61.3415 0.100676 60.9246 0.100676 60.512 0.149145Z" fill="#FFA6A8"/>
<path d="M46.2243 76.752C46.2243 76.752 46.2243 76.6899 46.0913 76.5745L45.6743 76.0866C45.3016 75.6518 44.7427 75.0219 44.1127 74.1435C43.3196 73.1085 42.7187 71.9395 42.3383 70.6922C42.122 69.9163 42.0587 69.1057 42.152 68.3056C42.2777 67.4124 42.5792 66.553 43.0392 65.777C43.9974 64.1179 45.5678 62.6718 47.0051 60.8796C50.2371 56.8354 52.3128 51.991 53.0116 46.8614C53.2971 43.9872 53.3683 41.0958 53.2245 38.211C53.0817 35.3517 53.3476 32.4867 54.0142 29.7026C54.7233 27.2744 55.9503 25.0288 57.6106 23.1204C59.2709 21.212 61.325 19.6861 63.6316 18.6478C65.5442 17.7904 67.6055 17.3143 69.7002 17.2459C73.5988 17.0886 77.4405 18.2205 80.6308 20.4666L81.1632 20.8392C81.2785 20.919 81.3406 20.9634 81.3495 20.9545C80.52 20.1898 79.592 19.5394 78.5902 19.0204C75.8665 17.5586 72.8081 16.8338 69.718 16.9177C67.5784 16.9703 65.4693 17.4373 63.5074 18.2929C61.1342 19.341 59.0185 20.8947 57.3083 22.8456C55.598 24.7964 54.3345 27.0972 53.606 29.5872C52.9273 32.4117 52.6555 35.3186 52.7987 38.2199C52.9416 41.0838 52.8734 43.9543 52.5946 46.8082C51.9198 51.8641 49.8903 56.6433 46.7212 60.64C45.3194 62.4145 43.7401 63.8872 42.7642 65.6173C42.2914 66.4354 41.9896 67.3409 41.8769 68.279C41.7884 69.1171 41.8668 69.9645 42.1076 70.7721C42.5159 72.0415 43.1567 73.2238 43.9974 74.2589C44.5049 74.9224 45.05 75.5563 45.6299 76.1575L46.0913 76.6189C46.13 76.6685 46.1747 76.7132 46.2243 76.752Z" fill="#FFA6A8"/>
<path d="M115.591 105.782C115.748 105.704 115.894 105.606 116.026 105.489C116.301 105.285 116.691 104.975 117.206 104.602C118.64 103.453 119.986 102.199 121.234 100.849C123.159 98.8573 124.476 96.3582 125.031 93.6447C125.215 92.0428 125.286 90.43 125.244 88.8182C125.214 87.1295 125.696 85.4713 126.628 84.0627C127.672 82.7096 128.833 81.4509 130.097 80.3008C131.269 79.1656 132.236 77.8358 132.954 76.3705C133.589 75.0445 134.054 73.6433 134.338 72.2005C134.605 70.9499 134.727 69.6728 134.702 68.3943C134.702 67.2143 134.427 66.1851 134.32 65.2802C134.216 64.5067 134.198 63.7241 134.267 62.9468C134.418 61.6692 134.666 60.986 134.622 60.9683C134.54 61.1238 134.475 61.2873 134.427 61.4562C134.279 61.9353 134.166 62.4246 134.09 62.9201C133.994 63.7128 133.994 64.5141 134.09 65.3068C134.169 66.194 134.382 67.2587 134.409 68.4032C134.396 71.0956 133.79 73.7521 132.634 76.1841C131.928 77.6014 130.983 78.886 129.84 79.9814C128.543 81.1428 127.356 82.4198 126.291 83.7965C125.775 84.5377 125.394 85.3635 125.164 86.2364C124.961 87.0764 124.85 87.9363 124.836 88.8004C124.88 90.3939 124.817 91.9885 124.649 93.5737C124.135 96.2313 122.883 98.6907 121.038 100.671C119.82 102.031 118.513 103.309 117.126 104.495L115.919 105.418C115.798 105.528 115.688 105.65 115.591 105.782Z" fill="#FFA6A8"/>
<path d="M133.568 62.6097C133.644 62.5876 133.715 62.5547 133.781 62.5121L134.402 62.1839C135.179 61.7391 135.918 61.2317 136.612 60.6667C139.189 58.5615 141.156 55.8043 142.308 52.6817C143.644 48.9803 143.762 44.9487 142.645 41.1754C141.527 37.4021 139.233 34.0848 136.097 31.7077C133.587 29.8583 130.765 28.4759 127.766 27.6265C124.767 26.7798 121.691 26.2359 118.583 26.0029C115.602 25.719 112.728 25.5859 109.995 25.3996C107.408 25.2369 104.832 24.9407 102.276 24.5124C100.056 24.1308 97.8786 23.5366 95.7727 22.7379C92.7157 21.6101 89.9291 19.8541 87.5925 17.5832C86.9773 16.9446 86.4053 16.2659 85.8802 15.5514L85.472 14.9925C85.4299 14.9242 85.3792 14.8616 85.3212 14.8062C85.9052 15.8641 86.6272 16.8397 87.4683 17.7074C89.7872 20.0581 92.5909 21.8748 95.684 23.0307C97.8045 23.8551 100 24.4702 102.241 24.8673C104.808 25.2995 107.396 25.5957 109.995 25.7545C115.451 26.1892 121.529 26.2336 127.606 28.0346C130.551 28.8708 133.323 30.2225 135.795 32.0271C138.869 34.3482 141.127 37.5851 142.243 41.2715C143.359 44.9579 143.276 48.9035 142.006 52.5397C140.893 55.6119 138.997 58.34 136.505 60.4538C135.829 61.0321 135.111 61.5599 134.358 62.033L133.772 62.3968C133.695 62.4582 133.626 62.5298 133.568 62.6097V62.6097Z" fill="#5E282A"/>
<path d="M34.6993 49.5229C34.8011 49.6444 34.927 49.7433 35.0691 49.8136C35.2111 49.8839 35.3662 49.9238 35.5245 49.931C35.9851 49.9401 36.4379 49.8104 36.8239 49.5588C37.2099 49.3072 37.5115 48.9454 37.6893 48.5204C37.826 48.2118 37.8861 47.8748 37.8644 47.5381C37.8428 47.2013 37.7401 46.8747 37.5651 46.5862C37.1554 45.9042 36.5315 45.3769 35.7906 45.0868C34.8864 44.7598 33.9136 44.6697 32.9647 44.825C32.0158 44.9803 31.1225 45.3759 30.3697 45.974C29.4624 46.6289 28.7632 47.5315 28.3557 48.5736C27.925 49.7062 27.8385 50.9409 28.1073 52.1225C28.3793 53.4033 29.0728 54.556 30.0769 55.3963C31.1402 56.2775 32.4392 56.8267 33.8121 56.9756C35.2768 57.0818 36.7466 56.858 38.1132 56.3205C39.4799 55.7831 40.7085 54.9458 41.7084 53.8703C42.8102 52.7803 43.6716 51.4717 44.237 50.0286C44.8144 48.5287 44.9679 46.8988 44.6806 45.3175C44.3737 43.7713 43.8915 42.2651 43.2433 40.8281C42.6488 39.4086 42.0988 38.0068 41.6374 36.605C40.715 33.9119 40.1193 31.1179 39.863 28.2828C39.625 25.7249 39.7806 23.1457 40.3243 20.6349C40.8085 18.4362 41.6636 16.336 42.8529 14.4244C44.5662 11.6438 47.0253 9.39988 49.9507 7.94766C50.7503 7.585 51.5781 7.28827 52.426 7.06043L53.1003 6.89186C53.1778 6.87637 53.2526 6.84946 53.3221 6.81201H53.0915L52.4083 6.93622C51.5372 7.1343 50.6873 7.41659 49.8708 7.77908C46.8799 9.19976 44.3584 11.4473 42.6045 14.2558C41.3702 16.1594 40.47 18.2598 39.9428 20.4664C39.3716 23.015 39.198 25.6367 39.4282 28.2384C39.678 31.1092 40.2738 33.9393 41.2027 36.6671C41.664 38.0866 42.223 39.5062 42.8174 40.9169C43.4467 42.3394 43.9168 43.8271 44.2192 45.353C44.4841 46.8429 44.3369 48.3768 43.7934 49.7891C43.2573 51.1774 42.4316 52.4356 41.3712 53.4799C40.422 54.5096 39.2546 55.3141 37.9544 55.8345C36.6541 56.3549 35.254 56.578 33.8565 56.4876C32.5548 56.3548 31.3208 55.8427 30.3076 55.0148C29.3635 54.2375 28.7075 53.1659 28.4444 51.9717C28.1844 50.8577 28.2553 49.6921 28.6485 48.618C29.0309 47.6328 29.6827 46.775 30.5294 46.1426C31.2368 45.5682 32.0797 45.1849 32.9776 45.0296C33.8755 44.8742 34.7983 44.952 35.6575 45.2554C36.3527 45.5119 36.9427 45.9927 37.3344 46.6217C37.5034 46.8821 37.6063 47.1799 37.6341 47.4891C37.662 47.7984 37.6139 48.1097 37.4941 48.3962C37.333 48.7967 37.058 49.1412 36.7033 49.3872C36.3485 49.6332 35.9294 49.7698 35.4978 49.7802C35.2135 49.7671 34.9378 49.6783 34.6993 49.5229Z" fill="#513216"/>
</svg>