<svg width="58" height="9" viewBox="0 0 58 9" fill="none" xmlns="http://www.w3.org/2000/svg">
<path d="M56.7011 5.14852C52.1834 4.5867 47.6969 3.53536 43.1881 2.91113C40.4035 2.52673 37.6189 2.25404 34.8165 2.18504C31.729 2.09634 28.6392 2.18504 25.5539 2.2179C20.2677 2.28032 14.9814 2.35589 9.69966 2.59572C7.91753 2.67786 6.11759 2.77314 4.32878 2.95055C3.72508 3.01298 3.12138 3.08197 2.52214 3.18053L2.1724 3.24296L2.01869 3.27253H1.94518C1.81597 3.29881 2.0677 3.23967 1.96745 3.27253C1.80484 3.31524 1.64222 3.35138 1.48182 3.41051L1.29693 3.48608C1.15659 3.54193 1.42836 3.44337 1.2702 3.50579C1.25683 3.50579 1.23901 3.54193 1.22564 3.54193C1.21228 3.54193 1.29693 3.44665 1.27465 3.48279C1.25238 3.51893 1.3103 3.3908 1.2947 3.29881C1.3103 3.39409 1.25906 3.18382 1.25906 3.18382C1.29916 3.28238 1.18109 3.0524 1.19891 3.07868C1.2702 3.19039 1.03407 2.90784 1.15436 3.01955C1.05634 2.92755 0.987286 2.90127 1.10758 2.97026C0.884811 2.84542 0.976143 2.90784 1.0853 2.95055L1.23455 3.00312C1.26574 3.00312 1.29693 3.00312 1.32812 3.03269C1.21451 2.98341 1.15659 2.98998 1.28133 3.03269L1.75137 3.13125C2.16571 3.20353 2.58229 3.25281 2.99886 3.29552C4.15947 3.41709 5.32454 3.47622 6.48737 3.5255L6.96187 3.54522H7.08662H7.38067L8.46331 3.60107L10.7177 3.65035C13.8698 3.71935 17.022 3.74892 20.1741 3.83434C22.5221 3.89676 24.8968 3.89676 27.2358 4.25816C27.8261 4.34687 28.6704 4.39615 29.1226 5.04995C29.7174 5.90745 28.6437 6.18672 28.2717 6.26228C27.2603 6.46926 26.2311 6.54483 25.2131 6.67625C23.2097 6.93251 21.2092 7.24025 19.2118 7.59946C17.8083 7.85353 16.4057 8.12951 15.0037 8.42739C14.8426 8.45294 14.6798 8.41608 14.5314 8.32043C14.3829 8.22478 14.2539 8.07366 14.1572 7.88201C13.9946 7.46475 14.2976 7.28077 14.5225 7.22492C18.5635 6.3707 22.6134 5.74975 26.6789 5.22737C27.0643 5.17808 27.4474 5.11895 27.8306 5.05324C27.9553 5.03024 27.6769 5.09595 27.7927 5.05324L27.8751 5.03352L28.0311 4.98096C28.118 4.95467 28.1625 4.89882 28.0311 4.99738C28.1046 4.94482 28.1024 4.88568 28.0155 5.03681C28.0734 4.93825 27.9821 5.18794 27.9977 5.1058C27.9878 5.18365 27.9972 5.26416 28.0244 5.3325C27.9999 5.27008 28.138 5.52634 28.0801 5.44092C28.0801 5.44092 28.236 5.61505 28.1603 5.53948C28.2962 5.6709 28.3095 5.6479 28.2048 5.58548C28.2739 5.62819 28.3986 5.6709 28.2494 5.61505L28.0912 5.5592C27.893 5.4902 28.2783 5.60191 28.0623 5.5592L27.8395 5.50991C26.9729 5.3325 26.093 5.27336 25.2175 5.21422C24.625 5.17151 24.0302 5.14194 23.4354 5.11566L22.9542 5.09595H22.8384H22.5533L21.4996 5.05981C18.3809 4.96782 15.2621 4.93496 12.1434 4.87254C9.36106 4.81668 6.57426 4.77726 3.79859 4.54399C2.98995 4.50533 2.1836 4.39562 1.38381 4.21545C1.07721 4.15399 0.777542 4.03245 0.492744 3.85405C0.238792 3.67335 -0.175556 3.21996 0.0806274 2.75671C0.241016 2.45773 0.568481 2.36246 0.806843 2.28689C1.24831 2.15186 1.69453 2.05314 2.14344 1.9912C3.57805 1.76122 5.02603 1.66266 6.46955 1.57066C11.2768 1.24212 16.1042 1.15998 20.9293 1.08113C23.9723 1.03514 27.0167 1.00119 30.0627 0.979284C33.1057 0.953001 36.142 1.00228 39.1783 1.30126C44.0056 1.73165 48.7862 2.72386 53.589 3.52879C54.5736 3.69306 55.5583 3.85733 56.5474 3.96904C56.7991 3.99861 57.2156 4.22859 57.2713 4.65898C57.327 5.08938 56.906 5.1748 56.7011 5.14852Z" fill="white"/>
</svg>
