<svg width="185" height="163" viewBox="0 0 185 163" fill="none" xmlns="http://www.w3.org/2000/svg">
<path d="M28.3255 136.034V116.816H155.918V136.034H28.3255Z" fill="#00D1C1" stroke="#383838" stroke-width="1.81"/>
<path d="M23.0694 26.6079H161.173C165.051 26.6079 168.194 29.7514 168.194 33.6291V120.977C168.194 124.854 165.051 127.998 161.173 127.998H23.0694C19.1917 127.998 16.0482 124.854 16.0482 120.977V33.6291C16.0482 29.7514 19.1917 26.6079 23.0694 26.6079Z" fill="#00D1C1" stroke="#383838" stroke-width="1.81"/>
<path d="M156.001 32.5369H28.2291C24.9154 32.5369 22.2291 35.2232 22.2291 38.5369V114.997C22.2291 118.311 24.9154 120.997 28.2291 120.997H156.001C159.315 120.997 162.001 118.311 162.001 114.997V38.5369C162.001 35.2232 159.315 32.5369 156.001 32.5369Z" fill="#FEFEFE"/>
<path d="M1.04819 159.277V157.361H183.21V159.277C183.21 159.679 182.974 160.14 182.429 160.538C181.89 160.932 181.13 161.193 180.321 161.193H3.93746C3.07164 161.193 2.31646 160.928 1.79819 160.542C1.27861 160.156 1.04819 159.697 1.04819 159.277Z" fill="#00D1C1" stroke="#383838" stroke-width="1.81"/>
<path d="M92.119 135.589L92.1195 135.589L167.285 135.549C167.328 135.59 167.377 135.635 167.43 135.685C167.49 135.741 167.555 135.802 167.625 135.867C167.979 136.197 168.473 136.661 169.071 137.234C170.267 138.381 171.876 139.965 173.588 141.785C177.037 145.452 180.816 149.987 182.556 153.812L182.561 153.821L182.565 153.83C183.347 155.451 183.33 156.399 183.095 156.875C182.894 157.282 182.347 157.677 181.036 157.677H3.2219C1.91405 157.677 1.38228 157.284 1.18439 156.879C0.948048 156.395 0.934899 155.44 1.67976 153.816C3.43058 150.038 7.2113 145.512 10.6626 141.842C13.5795 138.741 16.1406 136.371 16.9866 135.589L92.119 135.589Z" fill="#00D1C1" stroke="#383838" stroke-width="1.81"/>
<path d="M174.559 154.589H13.6705L24.815 138.081H163.415L174.559 154.589Z" fill="#FF5A5F"/>
<path d="M172.594 151.689L172.256 151.172H161.509L159.523 147.199H169.455L169.098 146.683H159.165L157.179 142.71H166.416L166.058 142.193H157.079L155.093 138.22H154.179L156.166 142.193H144.544L142.935 138.22H142.002L143.591 142.193H132.089L130.897 138.22H129.963L131.135 142.193H119.633L118.859 138.22H117.925L118.68 142.193H107.198L106.82 138.22H105.887L106.224 142.193H95.3182V138.22H94.3051V142.193H82.9819L83.3395 138.22H82.4058L82.0284 142.193H70.5264L71.3011 138.22H70.3674L69.5728 142.193H58.0907L59.2429 138.22H58.3291L57.1173 142.193H45.6352L47.2045 138.22H46.2907L44.6618 142.193H33.1796L35.1662 138.22H34.2325L32.246 142.193H21.9955L21.6578 142.71H31.9281L29.9416 146.683H19.0157L18.678 147.199H29.7032L27.7167 151.172H16.0359L15.6783 151.689H27.5975L25.9686 154.589H27.0413L28.4517 151.689H40.8675L39.7153 154.589H40.7682L41.8608 151.689H54.2567L53.4025 154.589H54.4554L55.2897 151.689H67.6856L67.1095 154.589H68.1624L68.7186 151.689H81.0947L80.8364 154.589H81.8893L82.1277 151.689H94.3051V154.589H95.3182V151.689H107.039L107.297 154.589H108.35L108.072 151.689H120.468L121.004 154.589H122.057L121.501 151.689H133.897L134.731 154.589H135.784L134.93 151.689H147.326L148.438 154.589H149.511L148.359 151.689H160.735L162.165 154.589H163.218L161.768 151.689H172.594ZM45.4564 142.65H56.9981L55.8062 146.623H43.8473L45.4564 142.65ZM32.9413 142.65H44.483L42.8938 146.623H30.9746L32.9413 142.65ZM41.086 151.172H28.7298L30.7164 147.199H42.6355L41.086 151.172ZM54.4752 151.172H42.0992L43.6685 147.199H55.5877L54.4752 151.172ZM67.8446 151.172H55.4685L56.6405 147.199H68.5597L67.8446 151.172ZM68.7186 146.663H56.7995L57.9516 142.69H69.4735L68.7186 146.663ZM81.2139 151.172H68.8577L69.5927 147.199H81.5119L81.2139 151.172ZM81.5913 146.663H69.6722L70.427 142.69H81.9886L81.5913 146.663ZM94.2852 151.172H82.227L82.5647 147.199H94.3051L94.2852 151.172ZM94.2852 146.663H82.6044L82.9422 142.69H94.3051L94.2852 146.663ZM95.2984 142.69H106.244L106.602 146.663H95.3182L95.2984 142.69ZM95.2984 151.212V147.239H106.641L106.979 151.212H95.2984ZM156.285 142.69L158.271 146.663H146.352L144.763 142.69H156.285ZM143.77 142.69L145.339 146.663H133.42L132.228 142.69H143.77ZM107.218 142.69H118.759L119.514 146.663H107.595L107.218 142.69ZM108.012 151.212L107.635 147.239H119.554L120.289 151.212H108.012ZM119.733 142.69H131.255L132.407 146.663H120.488L119.733 142.69ZM121.322 151.172L120.547 147.199H132.466L133.618 151.172H121.322ZM134.691 151.172L133.499 147.199H145.418L146.968 151.172H134.691ZM148.061 151.172L146.471 147.199H158.39L160.377 151.172H148.061Z" fill="#007A87"/>
<path d="M92.1187 158.622H84.3117C84.3014 159.023 84.4433 159.413 84.709 159.714C84.8661 159.858 85.0722 159.936 85.2851 159.933H98.9524C99.1714 159.937 99.3841 159.859 99.5484 159.714C99.814 159.413 99.956 159.023 99.9457 158.622H92.1187Z" fill="#007A87"/>
<path d="M156.001 32.5369H28.2291C24.9154 32.5369 22.2291 35.2232 22.2291 38.5369V114.997C22.2291 118.311 24.9154 120.997 28.2291 120.997H156.001C159.315 120.997 162.001 118.311 162.001 114.997V38.5369C162.001 35.2232 159.315 32.5369 156.001 32.5369Z" fill="#FCF5EB"/>
<path d="M94.7175 77.6508L82.1031 83.2727L66.1512 67.3209L22.2291 100.774V114.997C22.2291 118.311 24.9154 120.997 28.2291 120.997H156.001C159.315 120.997 162.001 118.311 162.001 114.997V17.0618L103.617 87.7225L94.7175 77.6508Z" fill="#FFB400"/>
<path d="M54.2769 93.9998H49.8073V97.3768H54.2769V93.9998Z" fill="#FEFEFE"/>
<path d="M60.5543 93.9998H56.0846V97.3768H60.5543V93.9998Z" fill="#FEFEFE"/>
<path d="M66.8512 93.9998H62.3815V97.3768H66.8512V93.9998Z" fill="#FF5A5F"/>
<path d="M73.148 93.9998H68.6783V97.3768H73.148V93.9998Z" fill="#FEFEFE"/>
<path d="M79.4254 93.9998H74.9557V97.3768H79.4254V93.9998Z" fill="#FEFEFE"/>
<path d="M85.7222 93.9998H81.2526V97.3768H85.7222V93.9998Z" fill="#FF5A5F"/>
<path d="M54.2769 99.761H49.8073V103.138H54.2769V99.761Z" fill="#FEFEFE"/>
<path d="M60.5543 99.761H56.0846V103.138H60.5543V99.761Z" fill="#FEFEFE"/>
<path d="M66.8512 99.761H62.3815V103.138H66.8512V99.761Z" fill="#FEFEFE"/>
<path d="M73.148 99.761H68.6783V103.138H73.148V99.761Z" fill="#FEFEFE"/>
<path d="M79.4254 99.761H74.9557V103.138H79.4254V99.761Z" fill="#FF5A5F"/>
<path d="M85.7222 99.761H81.2526V103.138H85.7222V99.761Z" fill="#FEFEFE"/>
<path d="M54.2769 105.542H49.8073V108.919H54.2769V105.542Z" fill="#FEFEFE"/>
<path d="M60.5543 105.542H56.0846V108.919H60.5543V105.542Z" fill="#FF5A5F"/>
<path d="M66.8512 105.542H62.3815V108.919H66.8512V105.542Z" fill="#FEFEFE"/>
<path d="M73.148 105.542H68.6783V108.919H73.148V105.542Z" fill="#FEFEFE"/>
<path d="M79.4254 105.542H74.9557V108.919H79.4254V105.542Z" fill="#FEFEFE"/>
<path d="M85.7222 105.542H81.2526V108.919H85.7222V105.542Z" fill="#FEFEFE"/>
<path d="M54.2769 111.323H49.8073V114.7H54.2769V111.323Z" fill="#FEFEFE"/>
<path d="M60.5543 111.323H56.0846V114.7H60.5543V111.323Z" fill="#FEFEFE"/>
<path d="M66.8512 111.323H62.3815V114.7H66.8512V111.323Z" fill="#FF5A5F"/>
<path d="M73.148 111.323H68.6783V114.7H73.148V111.323Z" fill="#FEFEFE"/>
<path d="M96.2326 84.4247L95.7757 83.9877L95.2195 84.2261L94.8619 83.352L95.9744 82.8752L96.8485 83.7493L96.2326 84.4247Z" fill="white"/>
<path d="M86.0594 88.0604L85.7018 87.1863L87.2314 86.5507L87.589 87.4247L86.0594 88.0604ZM89.1186 86.789L88.761 85.8951L90.2907 85.2594L90.6482 86.1335L89.1186 86.789ZM92.1779 85.4978L91.8203 84.6237L93.33 83.988L93.6876 84.8621L92.1779 85.4978Z" fill="white"/>
<path d="M83.4164 89.1729L82.5026 88.3783L83.0985 87.6433L83.5753 88.0803L84.1712 87.842L84.5288 88.716L83.4164 89.1729Z" fill="white"/>
<path d="M81.1526 87.1861L79.8018 86.014L80.3779 85.279L81.7287 86.4709L81.1526 87.1861ZM78.4311 84.8221L77.0802 83.6501L77.6762 82.9349L79.027 84.107L78.4311 84.8221ZM75.7294 82.4582L74.3786 81.2861L74.9745 80.571L76.3254 81.743L75.7294 82.4582ZM73.0277 80.0942L71.657 78.9221L72.253 78.207L73.6038 79.379L73.0277 80.0942ZM70.3261 77.7302L68.9752 76.5582L69.5712 75.843L70.922 77.0151L70.3261 77.7302Z" fill="white"/>
<path d="M67.6086 75.3665L67.1716 74.989L66.7147 75.3267L66.1783 74.5321L67.2312 73.7971L68.2046 74.6513L67.6086 75.3665Z" fill="white"/>
<path d="M25.3908 104.35L24.8346 103.535L26.4635 102.403L27.0198 103.197L25.3908 104.35ZM28.6289 102.065L28.0925 101.27L29.7016 100.118L30.2578 100.933L28.6289 102.065ZM31.9265 99.8005L31.3901 98.986L32.9992 97.8537L33.5356 98.6483L31.9265 99.8005ZM35.1447 97.516L34.6083 96.7213L36.2174 95.6089L36.7538 96.4035L35.1447 97.516ZM38.3628 95.2712L37.8265 94.4766L39.4356 93.3442L39.9719 94.1389L38.3628 95.2712ZM41.5612 93.0264L41.0248 92.2318L42.614 91.0995L43.1702 91.8941L41.5612 93.0264ZM44.7595 90.7816L44.2231 89.987L45.8123 88.8746L46.3487 89.6692L44.7595 90.7816ZM47.8187 88.5567L47.2824 87.7621L48.8716 86.6497L49.4079 87.4443L47.8187 88.5567ZM50.9773 86.3318L50.4409 85.5372L52.0302 84.4247L52.5665 85.2193L50.9773 86.3318ZM54.1359 84.1069L53.5995 83.3123L55.1689 82.2197L55.7052 82.9944L54.1359 84.1069ZM57.3342 81.9217L56.7978 81.1271L58.3672 80.0345L58.9035 80.8093L57.3342 81.9217ZM60.4729 79.7167L59.9365 78.9419L61.5059 77.8295L62.0423 78.6241L60.4729 79.7167ZM63.5917 77.5315L63.0554 76.7369L64.6247 75.6443L65.1611 76.4389L63.5917 77.5315Z" fill="white"/>
<path d="M107.08 90.5834L106.405 89.8682L107.597 88.4777L108.272 89.1133L107.08 90.5834ZM109.405 87.8817L108.709 87.246L109.901 85.8554L110.596 86.4911L109.405 87.8817ZM111.788 85.1006L111.093 84.4649L112.285 83.0743L112.98 83.71L111.788 85.1006ZM114.152 82.3194L113.477 81.6837L114.669 80.313L115.344 80.9487L114.152 82.3194ZM116.536 79.5582L115.841 78.9423L117.033 77.5518L117.708 78.1875L116.536 79.5582ZM118.88 76.8167L118.205 76.1811L119.397 74.8104L120.072 75.446L118.88 76.8167ZM121.324 73.976L120.648 73.3403L121.82 71.9895L122.496 72.6053L121.324 73.976ZM123.668 71.2545L122.992 70.6188L124.164 69.2481L124.84 69.8838L123.668 71.2545ZM126.012 68.5329L125.297 68.0164L126.469 66.6656L127.144 67.2814L126.012 68.5329ZM128.336 65.8114L127.661 65.1757L128.813 63.8249L129.488 64.4605L128.336 65.8114ZM130.641 63.1097L129.985 62.474L131.137 61.143L131.813 61.7589L130.641 63.1097ZM132.965 60.408L132.289 59.7922L133.442 58.4414L134.117 59.0771L132.965 60.408ZM135.229 57.7461L134.554 57.1303L135.706 55.7794L136.382 56.4151L135.229 57.7461ZM137.514 55.0841L136.858 54.4485L137.991 53.1175L138.666 53.7333L137.514 55.0841ZM139.818 52.4023L139.202 51.7865L140.335 50.4555L141.01 51.0912L139.818 52.4023ZM142.083 49.7602L141.427 49.1246L142.56 47.8134L143.235 48.4293L142.083 49.7602ZM144.367 47.0983L143.692 46.4825L144.824 45.1714L145.5 45.7872L144.367 47.0983ZM146.632 44.4761L145.957 43.8404L147.089 42.5293L147.764 43.1451L146.632 44.4761ZM148.877 41.834L148.221 41.2182L149.354 39.9071L150.009 40.5229L148.877 41.834ZM151.122 39.2118L150.446 38.596L151.579 37.2849L152.234 37.9205L151.122 39.2118ZM153.366 36.6094L152.691 35.9936L153.803 34.6825L154.479 35.2983L153.366 36.6094ZM155.591 34.0071L155.095 33.3913L156.207 32.1L156.863 32.7158L155.591 34.0071ZM157.578 31.5438L157.081 30.928L158.214 29.6169L158.869 30.2327L157.578 31.5438ZM159.564 29.0805L159.068 28.4647L160.18 27.1536L160.836 27.7694L159.564 29.0805Z" fill="white"/>
<path d="M104.973 93.0465L103.96 92.0533L104.575 91.3779L104.893 91.6758L105.191 91.3381L105.887 91.9937L104.973 93.0465Z" fill="white"/>
<path d="M102.412 90.524L100.863 88.9944L101.499 88.319L103.028 89.8486L102.412 90.524ZM99.3134 87.4647L97.7838 85.8954L98.3996 85.22L99.9491 86.7297L99.3134 87.4647Z" fill="white"/>
<path d="M158.286 6.73169L103.796 75.7834L94.9956 65.1555L82.0832 71.274L65.6943 53.7925L22.2291 89.113V93.3641L65.5354 58.0834L81.6859 75.3066L94.5189 69.2278L103.836 80.4914L160.372 8.897C159.637 8.21495 158.94 7.49204 158.286 6.73169Z" fill="#FF5A5F"/>
<path d="M166.734 0.474365L153.881 4.82486L162.384 13.3272L166.734 0.474365Z" fill="#FF5A5F"/>
<path d="M39.0605 43.8004C41.9608 44.019 44.6228 45.2506 44.6228 48.1708H39.875C39.875 47.0782 38.7029 46.8398 38.0076 46.8398C37.3123 46.8398 36.1204 46.8398 36.1204 47.7536C36.1204 49.7402 45.0399 47.6146 45.0797 53.2365C45.0797 56.6135 42.4575 57.8849 39.2194 58.1432L39.4578 61.7388H36.4184L36.5773 58.0836C33.5578 57.7856 30.7568 56.3752 30.7369 53.3556H35.5841V53.455C35.5841 54.8058 37.1137 55.0442 37.8686 55.0442C38.6235 55.0442 40.0339 55.0442 40.0339 54.0112C40.0339 52.0247 31.1144 53.892 31.0746 48.4489C31.0746 45.2903 33.4783 44.0786 36.4979 43.8004L36.2992 40.2048H39.2393L39.0605 43.8004Z" fill="#FF5A5F"/>
<path d="M112.903 141.12C112.903 141.12 113.101 145.094 112.525 145.65C111.949 146.206 104.162 147.08 103.447 146.425C102.732 145.769 103.01 144.438 104.659 143.921C106.308 143.405 107.321 143.703 108.413 143.147C109.506 142.591 109.069 140.823 109.069 140.823L112.903 141.12Z" fill="#110239"/>
<path d="M138.446 141.12C138.446 141.12 138.247 145.094 138.823 145.65C139.399 146.206 147.187 147.08 147.922 146.425C148.657 145.769 148.339 144.438 146.71 143.921C145.081 143.405 144.028 143.703 142.935 143.147C141.843 142.591 142.28 140.823 142.28 140.823L138.446 141.12Z" fill="#110239"/>
<path d="M138.884 118.355C136.917 111.537 134.543 104.843 131.772 98.3105L129.587 97.6351C129.786 96.7213 129.925 95.9465 130.064 95.2512C128.733 95.6088 127.342 95.7677 125.912 96.2246L125.276 96.4233L124.641 96.2246C123.21 95.7677 121.8 95.6088 120.489 95.2512C120.628 95.9465 120.767 96.7213 120.966 97.6351L118.78 98.3105C116.01 104.843 113.635 111.537 111.669 118.355C110.497 124.314 108.53 141.875 108.53 141.875L113.536 142.531C113.536 142.531 118.582 118.911 119.337 117.679C120.628 115.335 121.979 113.269 123.19 111.422C123.422 111.069 123.737 110.78 124.108 110.579C124.479 110.379 124.894 110.274 125.316 110.274C125.738 110.274 126.153 110.379 126.524 110.579C126.895 110.78 127.21 111.069 127.442 111.422C128.653 113.269 130.004 115.395 131.295 117.679C132.011 118.99 137.037 142.61 137.037 142.61L142.062 141.954C142.062 141.954 140.056 124.294 138.884 118.355Z" fill="#FF5A5F"/>
<path d="M140.25 45.2703C139.952 43.2837 139.654 42.9063 138.979 42.509C138.647 42.3601 138.349 42.1436 138.105 41.8733C137.839 41.5554 137.532 41.2747 137.191 41.039C136.845 40.8098 136.565 40.4949 136.376 40.1252C136.218 39.6285 136.853 39.7676 137.27 39.9265C137.688 40.0854 138.562 41.3171 139.038 41.1582C139.515 40.9992 138.403 39.5292 138.184 39.1716C137.628 38.4962 136.992 38.5955 136.198 38.2777C135.403 37.9598 135.661 37.9002 136.198 37.6221C136.373 37.5444 136.562 37.5042 136.754 37.5042C136.946 37.5042 137.135 37.5444 137.31 37.6221C138.063 37.8446 138.746 38.2548 139.297 38.814C138.829 38.2712 138.254 37.8315 137.608 37.5228C137.251 37.3242 135.622 36.8275 135.82 36.2316C136.297 35.0396 139.555 37.2844 139.913 37.9002C139.458 37.3441 138.914 36.8675 138.303 36.4898C137.966 36.2514 137.111 35.6952 137.827 35.4171C138.86 34.9999 140.131 36.9268 140.846 37.6817C140.511 37.0909 140.104 36.5438 139.634 36.0528C139.058 35.3575 139.773 35.1787 140.489 35.7945C140.787 36.0528 141.283 36.6686 141.402 36.7878C142.311 37.9793 142.794 39.4413 142.773 40.9396C142.773 41.5753 142.773 42.5885 143.071 44.4161C143.17 45.6278 141.184 45.0915 140.25 45.2703Z" fill="#E38D74"/>
<path d="M91.5224 73.7177C89.5358 72.9827 89.357 72.208 89.1187 71.4531C89.0279 71.1031 88.873 70.7731 88.6618 70.4797C88.4175 70.146 88.211 69.7862 88.0459 69.407C87.9061 69.015 87.6581 68.6707 87.3308 68.4137C86.8937 68.1555 86.8739 68.811 86.9335 69.2481C86.9931 69.6851 88.0261 70.8174 87.7678 71.2346C87.5096 71.6518 86.3177 70.2612 86.0991 69.9831C85.5628 69.3275 85.7813 68.7117 85.6224 67.9965C85.6224 67.5396 85.3641 67.3609 85.0065 67.7582C84.9069 67.9198 84.8413 68.1001 84.814 68.288C84.7867 68.4759 84.7981 68.6674 84.8476 68.8507C84.9121 69.594 85.1577 70.3101 85.5628 70.9366C85.1274 70.3428 84.8166 69.6671 84.649 68.9501C84.5496 68.5528 84.4106 66.8046 83.7749 66.9636C82.5035 67.1821 84.0133 70.9366 84.5496 71.3339C84.1001 70.7724 83.7445 70.1418 83.4968 69.4666C83.3379 69.0693 82.9803 68.1356 82.5631 68.7514C81.9274 69.6851 83.5365 71.3339 84.1325 72.208C83.6229 71.752 83.1754 71.2311 82.8015 70.6585C82.2453 69.9433 81.9076 70.6585 82.3645 71.4332C82.5975 71.821 82.8564 72.1926 83.1392 72.5457C84.101 73.6969 85.4245 74.4881 86.8937 74.7905C88.0066 75.0786 89.0854 75.4848 90.1119 76.0022C91.0456 76.479 91.1052 74.5322 91.5224 73.7177Z" fill="#E38D74"/>
<path d="M127.737 70.0031C126.657 70.2035 125.554 70.2569 124.459 70.162C124.062 70.0917 123.675 69.9715 123.307 69.8044C123.518 71.7977 123.203 73.8114 122.393 75.6448C122.393 75.6448 122.731 77.1745 125.532 77.2142C128.333 77.2539 128.671 75.6448 128.671 75.6448C127.979 73.8474 127.661 71.9276 127.737 70.0031Z" fill="#E38D74"/>
<path d="M138.481 77.611C136.539 75.8923 134.196 74.69 131.668 74.1147C127.718 73.507 123.698 73.507 119.748 74.1147C117.723 74.2257 115.772 74.9152 114.127 76.1012C113.173 77.313 116.014 84.0473 116.491 90.4042C116.888 95.6089 117.583 99.6217 117.583 99.6217C119.152 102.482 131.489 102.562 132.979 99.6217C132.979 99.6217 133.257 95.1719 134.111 90.3247C135.223 84.1069 139.455 78.8426 138.481 77.611Z" fill="#E5E6ED"/>
<path d="M118.817 88.974C119.164 86.9026 119.164 84.7878 118.817 82.7165C117.923 80.5114 115.916 79.6771 114.069 78.7434C115.082 82.6058 115.859 86.5266 116.393 90.4838C116.791 95.6885 117.486 99.7013 117.486 99.7013C117.951 100.323 118.607 100.776 119.353 100.993C117.625 97.5757 118.658 92.2518 118.817 88.974Z" fill="#ABADC4"/>
<path d="M131.513 62.2949C131.513 62.2949 125.713 58.8979 124.839 59.7322C123.965 60.5666 122.594 63.4073 121.919 63.8443C121.243 64.2814 120.23 64.6986 120.309 65.1952C120.389 65.6918 120.746 65.7514 120.707 66.2679C120.667 66.7844 119.515 69.2477 120.151 69.9827C120.786 70.7177 124.998 72.307 127.521 70.6383C130.043 68.9696 134.354 63.8245 131.513 62.2949Z" fill="#E38D74"/>
<path d="M132.787 63.5462H127.9C127.26 65.1015 126.234 66.4686 124.921 67.5193C124.921 67.5193 124.921 68.2344 125.556 68.0954C125.797 68.0617 126.028 67.9769 126.234 67.8467C126.439 67.7165 126.615 67.5439 126.748 67.3405C127.086 66.7842 128.139 65.3539 128.854 66.6253C129.569 67.8967 128.039 68.294 127.404 68.2741C127.404 68.2741 125.179 70.9758 126.907 71.4724C128.838 70.8626 130.536 69.6774 131.774 68.0755C134.694 65.0162 134.098 63.3078 132.787 63.5462Z" fill="#110239"/>
<path d="M123.563 57.8455C123.563 57.8455 121.199 59.2758 123.94 62.1761C126.682 65.0764 133.138 63.5269 133.138 63.5269C133.138 63.5269 133.813 61.6596 131.489 59.6731C130.856 58.95 130.033 58.4182 129.113 58.1374C128.194 57.8566 127.214 57.8381 126.285 58.0838C123.682 59.3751 123.563 57.8455 123.563 57.8455Z" fill="#110239"/>
<path d="M90.8289 72.7839L88.8424 76.0816C92.4081 79.4383 96.2342 82.5072 100.285 85.2593C103.861 87.6233 116.177 83.8489 117.965 83.2728C120.667 82.4782 122.693 76.757 118.183 74.6513C115.561 73.3998 104.973 81.4452 102.291 80.0745C99.073 78.3661 90.8289 72.7839 90.8289 72.7839Z" fill="#E5E6ED"/>
<path d="M139.357 44.3964L143.469 43.7209C143.469 43.7209 146.191 55.6401 146.032 59.8714C145.873 64.1027 139.059 79.7367 137.51 80.9087C135.642 82.3788 130.477 78.1475 134.232 73.5983C137.986 69.0492 140.39 59.6926 140.509 59.2953C140.629 58.898 139.357 44.3964 139.357 44.3964Z" fill="#E5E6ED"/>
<path d="M87.4901 37.6223H54.3151V40.6021H87.4901V37.6223Z" fill="#FFDEDF"/>
<path d="M87.4901 42.3503H54.3151V45.3301H87.4901V42.3503Z" fill="#FFDEDF"/>
<path d="M79.4248 47.0583H54.3151V50.0381H79.4248V47.0583Z" fill="#FFDEDF"/>
</svg>
