<svg width="220" height="208" viewBox="0 0 220 208" fill="none" xmlns="http://www.w3.org/2000/svg">
<path d="M71.8439 0.120117C71.8611 0.291733 75.7282 3.0033 79.3376 5.38876C82.9642 7.75708 86.7282 9.83365 89.9939 11.2752C91.4548 11.9102 92.6064 12.4422 92.5892 12.4766C92.4689 12.5967 86.5564 10.194 84.4767 9.19867C83.2564 8.61517 80.2829 7.01913 77.8767 5.68053C75.4876 4.3419 73.4939 3.27788 73.4595 3.31221C73.3907 3.38084 90.8189 13.2832 93.8095 14.8964C94.4111 15.2224 94.8751 15.5142 94.8408 15.5485C94.7892 15.5828 90.7158 13.8838 85.7657 11.7558C80.8158 9.62772 76.7251 7.92871 76.6908 7.96303C76.6564 8.01451 76.8454 8.15181 77.1204 8.28909C80.1626 9.86798 99.2064 20.0792 99.1032 20.0792C98.9657 20.0792 93.2423 18.363 81.8298 14.9135C79.9907 14.3643 78.4439 13.9353 78.4095 13.9696C78.3236 14.0554 77.6017 13.7465 91.0595 19.4957L102.3 24.2838L91.4892 24.3696C85.5595 24.4211 80.9361 24.5069 81.2111 24.5756C81.5033 24.6442 86.3673 25.2106 92.0392 25.8284C97.7111 26.4462 102.541 27.0125 102.781 27.064C103.16 27.1498 103.177 27.1842 102.867 27.2356C98.9657 28.0422 86.5392 30.7538 86.4704 30.8053C86.3501 30.9426 87.0033 30.9082 95.5798 30.462C100.049 30.2218 103.795 30.0502 103.916 30.0673C104.036 30.1016 101.372 31.3716 98.0033 32.899L91.8673 35.6792L90.7501 35.4218C88.8767 34.9927 85.4048 34.9241 83.3595 35.2673C78.9251 36.0053 75.0751 38.0647 71.9126 41.4112C70.2626 43.1445 69.1626 44.7749 66.9283 48.7736C63.8173 54.334 62.8892 55.3294 60.8611 55.3122C59.7783 55.295 58.8329 54.969 58.0595 54.3168C57.3376 53.7162 57.2689 53.8878 57.8876 54.7802C59.2283 56.7195 61.3079 58.0581 62.9923 58.0238C64.1095 58.0238 64.7798 57.6977 65.7251 56.7366C66.6533 55.7756 67.1689 54.7802 68.4064 51.6739C69.5236 48.8594 70.6407 46.5254 71.5689 45.0495C72.3939 43.7795 72.5142 43.8482 71.7751 45.1868C70.8814 46.7828 69.4548 50.4383 68.1486 54.4884C67.5126 56.4792 66.8079 58.4528 66.5845 58.899C65.3298 61.3875 63.4392 62.1597 60.8267 61.2502C60.2595 61.0442 59.7439 60.9241 59.7095 60.9756C59.572 61.0957 61.0158 62.2112 61.8751 62.6403C62.9236 63.1723 64.6423 63.2924 65.7595 62.9148C67.6673 62.2799 68.4579 61.0442 69.8673 56.5479C72.0157 49.7003 72.8408 47.6581 74.3532 45.4614C75.1095 44.3802 76.3298 42.9386 75.9345 43.5908C73.4939 47.6752 72.5829 50.2152 71.4142 56.0673C70.572 60.2376 70.0564 62.1426 69.3345 63.6356C68.2861 65.8152 66.6704 67.0508 64.2642 67.497C63.7142 67.6 63.2501 67.7545 63.2501 67.8059C63.2501 68.0119 64.9173 68.1663 65.6908 68.0462C67.0142 67.8403 68.4408 67.0165 69.5579 65.8667C71.2767 64.0818 71.7579 62.829 72.7892 57.5776C73.1501 55.7927 73.6657 53.6304 73.9408 52.7723C74.6454 50.6271 75.9517 48.0356 77.1376 46.4224C78.0829 45.1181 80.4892 42.7327 80.8501 42.7327C80.9361 42.7327 80.5407 43.2132 79.9736 43.8139C76.2439 47.6752 74.4736 53.064 73.4767 63.5842C73.4079 64.2363 73.2189 65.4719 73.0298 66.3129L72.7032 67.8403L69.6439 70.9465C65.6564 74.9967 63.7142 77.5023 61.7892 80.9861C58.7642 86.5465 57.0283 93.6858 56.6329 102.284C56.5814 103.468 56.4954 105.081 56.4439 105.888C56.3923 106.797 56.4095 107.278 56.5126 107.175C56.5986 107.072 57.2517 104.463 57.9392 101.374L59.2111 95.7281L59.3486 101.546C59.4173 104.738 59.4517 108.908 59.4345 110.813C59.3829 114.057 59.4517 114.898 59.6923 113.576C59.7439 113.267 60.0017 112.049 60.2423 110.865C60.4829 109.681 61.0329 106.712 61.4454 104.257C62.4939 98.2165 63.4564 93.3597 63.5939 93.4455C63.6626 93.4799 63.7658 94.3208 63.8173 95.2819C63.9204 97.1525 64.2298 99.0403 65.2095 103.743C65.8282 106.78 66.2408 109.526 66.447 112.152C66.5501 113.508 66.5845 113.611 66.7048 113.01C66.9454 111.603 67.2032 107.312 67.4611 100.224C67.6158 96.2086 67.8048 92.1241 67.8907 91.1287C67.9767 90.1333 68.0626 89.0522 68.0626 88.7261C68.0626 88.297 68.1142 88.1941 68.2173 88.3828C68.3033 88.5201 69.3001 92.3472 70.4517 96.8779C71.5861 101.409 72.6173 105.459 72.7204 105.888C72.9439 106.712 73.3048 107.312 73.1501 106.574C73.0642 106.128 72.7892 103.794 72.6173 102.026C72.5658 101.46 72.3251 98.0621 72.1017 94.4753C71.8611 90.8885 71.5861 87.3188 71.4829 86.5465C71.3798 85.7571 71.3282 85.0363 71.3626 84.9162C71.4829 84.5558 73.0986 88.8805 74.5079 93.3597C76.0892 98.4224 76.6392 100.053 77.3095 101.855C77.9626 103.588 78.7361 105.253 78.8392 105.15C78.8736 105.098 78.7876 104.652 78.6501 104.154C78.2204 102.661 77.5845 99.1947 76.8282 94.2693C75.6251 86.2548 74.8001 81.6383 74.4908 81.1578C74.4392 81.072 74.4392 81.0033 74.4908 81.0033C74.7486 81.0033 76.1751 84.9505 77.3439 88.8977C77.8251 90.5452 78.6158 93.2053 79.097 94.8013C80.0767 98.1135 81.297 101.391 81.8814 102.284C82.0876 102.61 82.6032 103.777 83.0157 104.858C83.4111 105.939 83.8236 106.9 83.9095 107.003C84.0298 107.123 84.047 107.055 83.9782 106.832C83.6173 105.596 82.4314 100.276 80.7814 92.5017C79.7329 87.5419 78.6845 82.6852 78.4439 81.7069C78.2204 80.7287 78.0486 79.8878 78.1001 79.8535C78.1861 79.7505 79.2173 82.9941 82.3798 93.5314C84.0642 99.0746 85.4392 103.022 85.5595 102.661C85.5767 102.576 85.422 101.46 85.1814 100.207C84.9408 98.9373 84.3048 95.196 83.7892 91.901C83.2564 88.5888 82.6376 84.7789 82.397 83.4231C82.1736 82.0673 82.0189 80.9003 82.0704 80.866C82.122 80.8145 82.1564 80.8489 82.1564 80.9347C82.1564 81.3294 85.9033 97.3927 86.5564 99.7954C87.072 101.683 87.1236 101.838 87.2267 101.735C87.2611 101.7 87.1579 100.774 86.9689 99.6924C86.3501 96.1743 84.7345 83.5261 84.9923 84.4357C85.0439 84.5729 85.5079 87.5419 86.0236 91.0429C88.6704 108.805 89.0658 108.96 87.1236 91.472C86.6595 87.1815 86.1611 82.5822 86.0407 81.2607C85.8173 78.8924 85.8001 78.103 86.0236 79.3901C86.0923 79.7677 86.797 83.3373 87.5876 87.3531C88.3783 91.369 89.2204 95.7452 89.4439 97.101C89.6673 98.4568 89.9079 99.6238 89.9767 99.6753C90.097 99.7954 90.0111 96.2944 89.7017 88.6403C89.6157 86.3749 89.5642 84.0581 89.5642 83.4918C89.5986 82.5479 89.5986 82.5993 89.7361 84.0066C90.0111 86.7182 90.9048 96.9465 91.1111 99.6581C91.2314 101.1 91.3689 102.284 91.4376 102.284C91.4892 102.284 91.6782 100.104 91.8329 97.4271C92.3486 88.9663 92.8298 81.7756 92.8642 81.6383C92.9157 81.4495 93.6892 93.8918 93.672 94.8528C93.672 95.2647 93.7579 95.5908 93.8439 95.5908C93.947 95.5908 94.0157 95.4192 94.0157 95.196C94.0157 94.9901 94.2564 91.9353 94.5314 88.4172C94.8236 84.8819 95.047 81.6898 95.0642 81.2951C95.0642 80.7459 95.0986 80.6601 95.2189 80.9175C95.2876 81.1063 95.597 85.2422 95.9064 90.099C96.2158 94.9558 96.5251 99.435 96.5939 100.053L96.697 101.168L96.8345 100.224C96.9032 99.7096 97.2126 96.0026 97.5392 91.9868L98.1236 84.6931L98.0204 91.1287C97.9689 94.664 97.9689 97.53 98.0204 97.4786C98.1064 97.4099 99.1204 91.6436 101.252 79.2871C101.87 75.5974 101.888 75.4601 100.891 85.4139C100.22 92.0555 100.134 93.3254 100.272 93.171C100.306 93.1366 100.959 89.7043 101.733 85.5512C102.506 81.398 103.211 77.8456 103.297 77.6568C103.4 77.3994 103.417 77.468 103.366 77.9142C103.245 78.9096 102.266 92.965 102.283 93.5657C102.3 94.0977 102.3 94.1149 102.438 93.703C102.506 93.4627 102.661 92.9135 102.781 92.4673C102.97 91.7637 103.108 91.5921 103.984 91.0601C104.535 90.7168 105.016 90.4423 105.05 90.4423C105.102 90.4423 105.067 90.9571 104.981 91.5749C104.741 93.3769 104.913 93.4284 105.256 91.6607L105.583 90.0647L106.752 89.3096C107.989 88.503 108.195 88.4172 108.058 88.7947C108.006 88.9149 106.133 91.6607 103.899 94.9043C101.664 98.1307 99.8595 100.791 99.8939 100.842C99.9282 100.877 101.389 99.2462 103.142 97.2383C104.878 95.2132 106.339 93.6 106.374 93.6343C106.408 93.6687 106.356 93.7888 106.253 93.9089C105.944 94.2865 103.984 98.8343 103.297 100.739C102.627 102.593 102.145 104.481 101.664 107.175C101.509 108.016 100.77 111.174 100.031 114.16C98.5876 119.892 97.7626 123.582 97.8829 123.702C97.9689 123.787 98.0892 123.513 100.031 118.502C100.908 116.236 101.681 114.331 101.75 114.246C101.939 114.04 100.392 121.213 100.169 121.625C99.6876 122.449 96.2673 126.121 91.6095 130.841C84.6829 137.826 81.4861 140.692 72.9611 147.522C63.6454 154.97 59.8298 157.819 46.1486 167.584C28.5486 180.129 19.422 187.681 8.67982 198.578C5.03607 202.285 -0.0686176 207.828 0.0688823 207.949C0.0860698 207.983 2.42357 207.76 5.25951 207.485C8.07826 207.193 13.7845 206.61 17.9439 206.198C22.0861 205.786 25.5236 205.409 25.5579 205.357C25.6095 205.306 25.4033 204.962 25.0939 204.602C24.6642 204.053 24.5267 203.71 24.4579 202.886C24.1829 199.831 26.9673 195.592 33.3954 189.362C38.7579 184.145 44.6017 179.271 58.4376 168.442C70.0564 159.347 73.3736 156.601 78.2032 152.018C85.0611 145.531 94.2736 136.127 97.5907 132.265C98.1751 131.579 98.2954 131.716 97.9861 132.797C97.9001 133.089 97.8829 133.347 97.9517 133.347C98.0376 133.347 98.1923 132.866 98.3126 132.265C98.5189 131.373 98.7251 130.995 99.6017 129.914C100.186 129.211 101.114 128.026 101.664 127.288C102.197 126.568 102.661 125.967 102.678 125.967C102.678 125.967 102.695 129.005 102.695 132.694C102.695 138.701 102.884 143.472 103.28 147.419L103.4 148.706L103.52 146.733C103.572 145.651 103.709 142.717 103.813 140.211C104.019 135.389 104.535 128.61 104.724 128.421C104.792 128.37 104.861 129.966 104.861 131.991C104.878 136.11 105.05 139.164 105.222 138.495C105.291 138.255 105.428 136.985 105.531 135.663C105.892 131.253 107.216 119.754 107.388 119.583C107.474 119.497 107.577 119.909 107.645 120.681C108.041 125.212 108.35 127.958 108.505 128.112C108.608 128.215 108.625 128.026 108.556 127.597C108.505 127.22 108.367 125.023 108.264 122.706L108.058 118.502L109.072 116.957L110.069 115.43L110.378 116.528L110.67 117.644L110.584 116.185L110.481 114.726L111.375 113.182C115.191 106.609 117.614 99.7096 118.766 92.2099C119.35 88.4858 119.367 88.4515 119.419 90.9571C119.47 93.068 119.178 95.9683 118.834 96.8436C118.783 96.998 118.8 97.1353 118.886 97.1353C119.23 97.1353 120.158 94.7842 120.742 92.4158L121.12 90.8713L121.653 92.5875C122.427 95.0244 123.08 97.8561 124.18 103.571C125.331 109.509 125.967 112.409 126.775 115.413C127.549 118.261 127.978 120.372 128.133 122.071C128.202 122.809 128.305 123.358 128.356 123.307C128.408 123.255 128.528 122.706 128.649 122.071L128.838 120.904L128.975 122.277C129.095 123.616 128.889 127.546 128.545 130.669C128.408 131.991 128.425 132.557 128.614 132.3C128.786 132.077 130.677 127.889 131.106 126.808C132.55 123.221 132.997 119.96 132.688 115.618C132.584 114.091 132.447 112.77 132.395 112.667C132.361 112.581 132.481 112.684 132.67 112.924C133.238 113.611 134.509 116.168 134.991 117.592C136.417 121.831 136.434 124.628 135.094 133.175C134.716 135.578 134.355 138.375 134.286 139.387C134.063 143.266 135.197 147.076 137.431 149.873C138.531 151.246 138.703 150.92 137.844 149.118C136.675 146.647 136.4 145.377 136.4 142.013C136.383 139.147 136.4 139.01 137.38 133.947C137.93 131.116 138.463 128.009 138.583 127.031C138.686 126.07 138.824 125.366 138.892 125.486C139.03 125.744 138.789 132.025 138.531 134.908C138.359 136.899 138.291 140.675 138.445 140.537C138.549 140.417 139.683 133.81 140.078 130.858C141.041 123.959 140.559 118.038 138.703 113.37C137.672 110.762 134.974 105.751 132.499 101.803C131.949 100.945 131.519 100.224 131.553 100.224C131.57 100.224 133.633 102.541 136.125 105.373C138.617 108.205 140.68 110.487 140.731 110.453C140.766 110.401 140.181 109.578 139.425 108.599C137.517 106.128 135.592 103.382 132.378 98.5597C130.866 96.2944 129.37 94.1492 129.078 93.8059C128.769 93.4627 128.58 93.1881 128.649 93.1881C129.009 93.1881 131.897 95.7109 134.114 97.9762C135.524 99.4007 136.692 100.568 136.744 100.568C136.847 100.568 136.108 99.2462 134.716 96.9465C134.183 96.037 133.684 95.1789 133.616 95.0244C133.513 94.7327 136.589 90.734 136.83 90.8713C137.156 91.0772 137.328 92.7934 137.294 95.505C137.242 98.8687 137.483 103.931 137.672 103.708C137.741 103.64 138.514 101.992 139.391 100.053C140.25 98.1135 141.006 96.5003 141.041 96.466C141.075 96.4145 141.092 99.5208 141.075 103.365C141.041 107.209 141.075 110.35 141.144 110.35C141.195 110.35 141.316 110.144 141.419 109.869C142.467 106.969 143.602 103.76 144.083 102.37L144.684 100.653L144.77 101.769C144.839 102.387 144.959 104.927 145.063 107.432C145.406 116.477 145.458 117.403 145.595 117.266C145.664 117.197 146.283 115.516 146.936 113.542C147.606 111.568 148.174 109.921 148.208 109.904C148.242 109.869 148.638 113.319 149.102 117.558C149.566 121.814 149.995 125.281 150.047 125.281C150.099 125.281 150.838 123.204 151.68 120.647C152.522 118.107 153.227 116.048 153.261 116.082C153.295 116.116 151.938 129.897 151.68 132.059C151.611 132.574 151.628 132.849 151.731 132.746C151.886 132.557 154.069 126.911 155.203 123.753C155.994 121.556 156.802 118.467 157.111 116.477C157.506 113.919 157.094 110.539 156.131 108.325C155.908 107.844 155.788 107.432 155.856 107.432C155.925 107.432 156.63 107.999 157.438 108.685C160.359 111.208 162.68 114.657 164.399 119.017C164.983 120.527 165.069 120.613 164.914 119.531C164.33 115.395 162.456 110.642 160.377 107.982C159.363 106.694 159.38 106.626 160.497 107.501C161.82 108.514 163.969 110.47 165.017 111.62C165.464 112.1 165.859 112.461 165.911 112.409C166.049 112.289 163.831 109.011 162.474 107.312C161.253 105.768 158.761 103.176 157.008 101.597C155.856 100.585 155.839 100.551 156.492 100.825C156.87 100.98 157.541 101.254 157.988 101.443C158.452 101.615 160.222 102.455 161.941 103.314C163.677 104.154 165.155 104.858 165.258 104.858C165.344 104.858 161.133 101.992 155.891 98.5083C150.649 95.0244 146.403 92.1584 146.455 92.1584C146.524 92.1584 149.463 93.4799 152.986 95.0931C156.527 96.7063 159.534 98.0621 159.672 98.1135C160.377 98.3881 158.864 97.2898 151.594 92.3129C147.297 89.3782 143.928 87.0099 144.117 87.0614C144.306 87.1129 146.438 87.9195 148.844 88.8634C151.25 89.8073 153.261 90.5452 153.313 90.4937C153.364 90.4594 153.278 90.3564 153.141 90.2706C153.003 90.1848 151.731 89.2753 150.305 88.2456L147.727 86.3749L147.744 84.6073C147.761 83.4059 147.83 82.8053 147.984 82.7195C148.139 82.6165 148.139 82.565 148.002 82.5307C147.847 82.4792 147.864 81.3465 148.053 77.8627C148.208 75.3399 148.328 72.9201 148.328 72.4739C148.328 72.0449 148.363 71.7188 148.414 71.7703C148.466 71.8218 148.809 74.4819 149.188 77.6739C149.566 80.866 149.944 83.7663 150.013 84.0924C150.15 84.6931 150.374 78.738 150.408 73.1261C150.425 71.0838 150.459 70.6376 150.58 71.2211C150.752 72.0964 152.625 86.6495 152.625 87.0786C152.625 87.233 152.694 87.3531 152.763 87.3531C152.831 87.3531 153.278 84.47 153.725 80.9518C154.189 77.4508 154.602 74.3617 154.67 74.0871C154.722 73.8297 154.756 77.3135 154.739 81.8099C154.705 86.9927 154.756 89.8931 154.859 89.67C154.945 89.4812 155.753 85.3795 156.664 80.5743C157.558 75.7518 158.366 71.5815 158.452 71.3069C158.572 70.9294 158.606 71.3241 158.624 72.7657C158.675 77.5023 158.881 83.2343 159.019 83.2343C159.088 83.2343 159.156 83.097 159.156 82.9254C159.156 82.5479 161.081 70.6891 161.133 70.7406C161.167 70.7749 161.597 74.705 162.095 79.4931C162.611 84.2984 163.058 88.2112 163.109 88.2112C163.161 88.2112 163.419 84.9162 163.694 80.866C164.399 70.0885 164.295 70.363 164.931 77.571C165.241 81.0205 165.499 84.0924 165.499 84.3842C165.533 85.4825 165.859 84.9333 165.877 83.7835C165.894 81.6383 166.667 71.4785 166.77 71.9076C166.822 72.1479 167.338 76.0092 167.922 80.4885C168.489 84.9677 169.005 88.6574 169.039 88.6918C169.142 88.8119 169.28 85.8601 169.486 79.2013C169.589 75.5116 169.709 72.4739 169.744 72.4396C169.778 72.4053 169.813 72.5254 169.813 72.7142C169.813 72.8858 170.088 75.666 170.414 78.8753C170.741 82.0673 171.016 84.8304 171.016 84.9848C171.016 85.1564 171.102 85.2937 171.188 85.2937C171.291 85.2937 171.359 85.0191 171.359 84.6931C171.359 84.0753 172.528 71.9419 172.614 71.6673C172.649 71.5815 172.838 72.8172 173.044 74.4132C174.195 83.097 174.522 85.1908 174.642 84.6931C174.711 84.4013 175.003 81.398 175.313 78C175.622 74.602 175.914 71.7017 175.966 71.5644C176 71.4271 176.447 74.9624 176.928 79.4073C177.409 83.8693 177.839 87.5248 177.908 87.5248C177.959 87.5248 178.131 84.2297 178.303 80.1795C178.767 69.1274 178.647 69.4535 179.85 76.1465C180.4 79.2357 180.916 81.8442 181.002 81.93C181.088 82.033 181.156 80.1967 181.156 77.6396C181.156 75.1683 181.208 72.3366 181.277 71.3241L181.38 69.4878L182.824 72.1993C186.02 78.1716 187.206 80.334 187.275 80.2654C187.309 80.231 186.57 77.5881 185.642 74.3789C184.697 71.1868 183.941 68.5439 183.975 68.5267C183.992 68.5096 186.605 71.4442 189.75 75.0654C192.913 78.6865 195.542 81.6211 195.577 81.5868C195.611 81.5525 193.566 78.3947 191.022 74.5505C188.478 70.7063 186.381 67.497 186.347 67.4284C186.313 67.3426 190.369 69.7281 195.37 72.697C205.253 78.6007 205.047 78.4805 205.047 78.3604C205.047 78.3089 201.764 75.6832 197.742 72.4911C193.72 69.3162 190.438 66.6904 190.438 66.6561C190.438 66.6046 190.695 66.7076 191.005 66.862C192.741 67.7716 210.272 76.0092 210.324 75.9578C210.358 75.9234 207.127 73.8812 203.122 71.4271C199.117 68.9729 195.697 66.8449 195.508 66.6904C195.319 66.5531 196.711 67.1538 198.602 68.0291C200.492 68.9043 205.15 71.0838 208.966 72.8515C212.764 74.6191 215.927 76.0436 215.961 75.9921C215.995 75.9578 212.059 73.538 207.195 70.6376C202.331 67.7373 198.344 65.3347 198.344 65.3003C198.344 65.266 203.139 67.6 209.017 70.4832C214.878 73.3663 219.725 75.6832 219.759 75.6317C219.863 75.5287 216.872 73.3835 213.984 71.4785C202.194 63.7215 190.042 58.899 179.059 57.6119L177.289 57.4059L176.842 55.8614C176.43 54.4541 174.367 47.6066 173.113 43.3676C172.838 42.4581 172.631 41.703 172.649 41.703C172.683 41.703 173.955 43.831 175.502 46.4568C177.049 49.0653 178.32 51.1247 178.355 51.0389C178.389 50.936 177.564 48.3274 176.516 45.2383C175.467 42.132 174.642 39.5749 174.659 39.5578C174.694 39.5406 176.688 41.1195 179.094 43.0931C181.5 45.0667 183.545 46.6799 183.614 46.6799C183.752 46.6799 183.494 46.3195 179.145 40.6389C177.788 38.8541 176.688 37.3782 176.688 37.3439C176.688 37.3096 180.022 38.7855 184.095 40.6218C188.186 42.4409 191.555 43.9168 191.589 43.8653C191.658 43.7967 191.245 43.5221 183.408 38.4422C180.727 36.6917 178.63 35.2502 178.767 35.2158C178.905 35.1987 183.563 35.4904 189.131 35.868C194.717 36.2455 199.306 36.5201 199.341 36.4686C199.444 36.3828 199.977 36.503 190.609 34.495C186.209 33.5511 182.48 32.7789 182.291 32.7789C182.102 32.7789 181.999 32.7446 182.05 32.6931C182.153 32.5901 199.134 31.9208 201.73 31.9208C205.202 31.9208 203.088 31.6119 195.456 30.994C191.039 30.6508 187.275 30.3419 187.086 30.3076C186.055 30.1703 188.1 30.033 196.625 29.7069C205.855 29.3294 208.725 29.1749 208.605 29.0719C208.519 28.9861 191.417 27.802 190.317 27.802C189.836 27.802 189.389 27.7333 189.338 27.6647C189.286 27.5789 192.208 27.4587 195.817 27.4073C207.006 27.2013 212.094 27.064 212.094 26.9439C212.094 26.8924 211.183 26.7036 210.083 26.532C198.842 24.8158 189.475 24.8158 180.194 26.532C169.967 28.4198 160.428 32.5386 151.68 38.837C151.027 39.3175 150.116 40.004 149.669 40.3815L148.861 41.0337L145.595 38.837C143.808 37.6356 142.364 36.6231 142.381 36.6059C142.433 36.5544 148.895 37.4469 150.219 37.6871C151.456 37.8931 150.425 37.464 146.472 36.1082C142.536 34.7525 142.433 34.701 143.172 34.598C143.877 34.5122 153.158 33.9802 154.172 33.9802C154.499 33.963 154.533 33.9287 154.344 33.8257C154.206 33.7571 151.405 33.4997 148.122 33.2766C144.822 33.0535 142.141 32.8304 142.141 32.7789C142.141 32.7274 143.138 32.1954 144.341 31.5947C149.205 29.1749 156.252 25.5366 156.2 25.468C156.166 25.4337 153.175 26.4634 149.549 27.7333C145.922 29.0033 142.949 30.033 142.914 29.9987C142.897 29.9644 146.077 27.5102 149.995 24.5412C156.836 19.3412 158.314 18.1571 156.836 19.0495C155.994 19.5643 145.681 26.0686 145.028 26.4977C144.753 26.6693 144.547 26.7723 144.547 26.7379C144.547 26.6865 148.294 23.5459 152.883 19.736C157.455 15.9261 161.167 12.7683 161.133 12.734C161.081 12.6825 150.528 20.0449 146.953 22.6191C145.114 23.9577 147.916 21.6581 155.427 15.7201C160.033 12.0647 163.797 9.04422 163.797 8.99274C163.797 8.73531 161.374 9.59338 159.758 10.4172C157.438 11.5842 155.839 12.8198 151.336 16.8185C147.624 20.1307 146.042 21.435 142.759 23.8891C139.184 26.5835 136.555 29.1921 135.18 31.4059C133.736 33.7399 132.928 35.5591 130.419 42.029C129.199 45.1868 128.116 47.9155 128.013 48.1214C127.789 48.5505 127.016 49.4944 127.016 49.3399C127.016 49.2884 127.549 47.6066 128.202 45.5987C128.855 43.5908 130.264 39.3003 131.313 36.0396C132.361 32.7789 133.495 29.2779 133.839 28.2653C134.166 27.2356 134.406 26.3775 134.355 26.3261C134.32 26.2746 133.444 28.3168 132.43 30.8396C130.711 35.13 129.817 37.2238 130.024 36.503C130.402 35.0957 134.87 18.8264 135.18 17.7109C135.386 16.9386 135.506 16.3036 135.455 16.3036C135.403 16.3036 134.166 18.9637 132.722 22.1901C131.261 25.4165 129.834 28.5914 129.525 29.2607L128.958 30.462L128.838 26.0858C128.769 23.6832 128.614 17.0416 128.459 11.3439C128.322 5.62903 128.184 0.943878 128.15 0.909561C128.064 0.823761 127.909 3.53531 127.531 12.0132C127.342 16.1148 126.947 24.4554 126.672 30.5479C126.397 36.6403 126.156 42.0462 126.139 42.5611C126.122 43.3848 126.105 43.4363 125.967 42.9901C125.899 42.6983 125.039 36.6746 124.077 29.604C123.131 22.5162 122.306 16.6983 122.272 16.664C122.238 16.6297 122.203 16.87 122.203 17.2132C122.203 17.7795 123.149 37.6528 123.578 46.2337C123.802 50.5927 123.784 51.262 123.475 49.4257C122.874 45.7016 122.083 42.4924 121 39.4205C120.742 38.6482 120.072 36.0396 119.539 33.637C119.006 31.2343 118.525 29.2264 118.491 29.1921C118.336 29.0376 118.456 29.8785 118.903 32.5558C119.178 34.1003 119.367 35.3531 119.35 35.3531C119.316 35.3531 118.938 34.6323 118.491 33.7571C115.122 27.1155 109.88 21.2805 102.678 16.1835C99.9282 14.2442 97.1267 12.631 92.7267 10.503C88.5501 8.47787 85.6798 7.0363 76.7939 2.5056C74.0611 1.11551 71.8439 0.034317 71.8439 0.120117ZM105.016 32.9333C104.878 33.0191 102.919 34.0488 100.667 35.2502L96.5595 37.4297L94.9439 36.7776C94.0673 36.4172 93.3282 36.0911 93.3282 36.0396C93.3282 35.9538 104.689 32.8304 105.102 32.796C105.205 32.796 105.153 32.8475 105.016 32.9333ZM103.039 37.4983C101.441 38.3907 100.014 39.1287 99.9111 39.1287C99.7907 39.1287 99.447 38.9743 99.1376 38.7855C98.7595 38.5624 98.6564 38.4251 98.8454 38.3736C98.9829 38.3221 100.564 37.7386 102.352 37.0865C104.156 36.4343 105.703 35.8851 105.789 35.8851C105.892 35.868 104.655 36.6059 103.039 37.4983ZM145.149 39.695C146.661 40.3987 148.053 41.0165 148.242 41.0851C148.569 41.2053 148.535 41.2568 147.984 41.703C147.658 41.9776 147.349 42.2178 147.297 42.2178C147.245 42.2178 146.231 41.4799 145.063 40.5874C143.877 39.6779 142.759 38.837 142.57 38.6997C141.934 38.2535 142.399 38.4422 145.149 39.695ZM107.422 39.0257C107.422 39.1287 103.366 41.3597 103.194 41.3597C103.005 41.3426 102.18 40.6904 102.283 40.6218C102.386 40.5531 107.147 38.9914 107.302 38.9743C107.37 38.9571 107.422 38.9914 107.422 39.0257ZM144.925 41.9776C145.767 42.4409 146.42 42.8871 146.386 42.9729C146.352 43.0587 146.18 43.2304 145.991 43.3676C145.664 43.5736 145.492 43.4706 143.928 42.1149C141.436 39.9525 141.333 39.9525 144.925 41.9776ZM107.25 42.4752C105.755 43.2647 105.445 43.3676 105.291 43.0931C105.205 42.9558 108.109 41.7373 108.539 41.7201C108.642 41.7201 108.058 42.0634 107.25 42.4752ZM143.052 43.3848C143.98 43.8997 144.702 44.3974 144.667 44.5003C144.65 44.5861 144.461 44.7749 144.272 44.8951C143.98 45.0838 143.791 44.9637 142.484 43.728C141.677 42.9729 141.109 42.3723 141.195 42.4066C141.299 42.4409 142.124 42.8871 143.052 43.3848ZM174.745 52.6693L177.031 57.3544L175.364 57.2343C174.436 57.1657 173.628 57.0627 173.577 57.0112C173.508 56.9426 173.336 56.3419 173.181 55.6898C173.044 55.0205 172.339 52.103 171.617 49.2026C170.913 46.2851 170.328 43.8653 170.345 43.7967C170.363 43.6766 170.93 44.8092 174.745 52.6693ZM110 44.1743C110 44.363 107.749 45.4271 107.663 45.2726C107.525 45.0495 107.525 45.0495 108.797 44.5518C110.12 44.0541 110 44.0884 110 44.1743ZM83.8751 45.5129C80.1626 49.9063 78.2204 55.2779 77.8939 62.0739L77.7736 64.5967L76.4845 65.0944C75.7798 65.3518 75.0236 65.7465 74.8173 65.9353C74.4736 66.2614 74.422 66.2614 74.422 66.004C74.422 65.2145 75.6767 57.5261 76.0376 56.0845C77.3954 50.7472 80.2486 46.6627 83.9611 44.7406C84.4423 44.5003 84.8376 44.2944 84.872 44.2772C84.9064 44.2772 84.4423 44.8436 83.8751 45.5129ZM141.934 45.2039C142.519 45.5643 143 45.9247 143 46.0106C143 46.4396 142.553 46.2337 141.608 45.3756C140.422 44.2772 140.439 44.2772 141.934 45.2039ZM140.491 46.6455C141.591 47.332 141.66 47.4178 141.384 47.6752C141.127 47.9327 141.024 47.8812 139.941 46.7828C138.703 45.5129 138.72 45.5129 140.491 46.6455ZM170.397 51.3822C171.961 54.4026 173.25 56.9254 173.25 57.0112C173.25 57.0799 172.545 57.1485 171.703 57.1485C170.397 57.1485 170.122 57.097 170.036 56.8568C169.813 56.2561 167.286 45.633 167.406 45.7703C167.475 45.8389 168.816 48.3789 170.397 51.3822ZM86.3501 46.903C85.0095 48.3102 84.1157 49.7003 83.3251 51.5195C82.1048 54.334 81.6407 56.9254 81.6407 60.8211V63.4812L80.9189 63.67C80.2314 63.8416 78.7533 64.3049 78.2376 64.4937C77.997 64.5795 78.0314 63.7901 78.4782 60.066C79.3376 53.064 81.7439 48.8422 86.3329 46.3195C86.8142 46.0449 87.2611 45.8218 87.2954 45.8218C87.3298 45.8218 86.9001 46.3023 86.3501 46.903ZM110.447 46.4396C109.759 46.8515 109.381 46.9888 109.261 46.8686C109.141 46.7485 109.209 46.6455 109.502 46.5254C109.725 46.4396 110.189 46.2508 110.516 46.1135C111.53 45.6673 111.513 45.7875 110.447 46.4396ZM139.889 48.3789C140.13 48.5677 140.25 48.7736 140.181 48.8937C140.009 49.1683 139.958 49.134 138.875 47.9841L137.93 46.9545L138.703 47.5036C139.133 47.8125 139.666 48.2073 139.889 48.3789ZM167.131 52.3089C168.317 54.7973 169.297 56.8911 169.297 56.9769C169.297 57.0799 168.953 57.1485 168.558 57.1485H167.802L166.805 53.9221C166.255 52.1544 165.584 50.0607 165.309 49.2713C164.484 46.8 164.536 46.8858 167.131 52.3089ZM112.578 48.2931C112.578 48.3617 111.238 49.2541 111.117 49.2541C111.066 49.2541 111.031 49.1683 111.031 49.0825C111.031 48.9795 111.358 48.7393 111.77 48.5677C112.561 48.2073 112.578 48.1901 112.578 48.2931ZM164.124 52.6693C165.361 55.0719 166.375 57.1142 166.375 57.1828C166.375 57.2515 165.894 57.3201 165.309 57.3201H164.227L163.075 53.064C162.439 50.73 161.872 48.6706 161.803 48.4818C161.511 47.6752 162.009 48.5677 164.124 52.6693ZM88.172 50.6099C87.0204 54.1967 86.1095 59.0363 86.1095 61.6105V62.6231L85.4736 62.7432C85.1126 62.7947 84.2876 62.9492 83.6517 63.0865C82.9986 63.2238 82.4314 63.3267 82.397 63.3267C82.2767 63.3267 82.4658 62.0396 82.8611 60.066C83.5142 56.8224 84.9408 53.2871 86.4017 51.262C87.2783 50.0264 88.5329 48.5677 88.6876 48.5677C88.7564 48.5677 88.5329 49.4772 88.172 50.6099ZM137.809 49.6488C138.772 50.3868 138.841 50.4726 138.445 50.7987C138.119 51.0733 138.033 51.0046 137.156 49.7518C136.349 48.602 136.4 48.602 137.809 49.6488ZM161.614 53.5446C163.299 57.2 163.384 57.4059 163.041 57.5432C162.852 57.6119 162.508 57.6634 162.284 57.629C161.889 57.5776 161.803 57.3201 160.772 53.5617C159.775 49.9406 159.552 48.9967 159.775 49.5116C159.809 49.5974 160.652 51.4165 161.614 53.5446ZM113.609 50.1637C113.609 50.3525 112.527 50.9703 112.372 50.8673C112.252 50.7987 112.406 50.6271 112.767 50.4383C113.317 50.1465 113.609 50.0436 113.609 50.1637ZM137.07 52.3261C136.933 52.4634 136.795 52.5492 136.761 52.4977C136.314 51.8799 135.438 50.4383 135.438 50.3353C135.438 50.2667 135.867 50.6271 136.383 51.1419C137.208 51.9657 137.294 52.103 137.07 52.3261ZM160.188 57.9208C160.188 58.0066 157.936 58.4013 157.867 58.3327C157.833 58.2812 157.524 56.6337 157.197 54.6601C156.853 52.6693 156.544 50.8673 156.492 50.6271C156.458 50.3868 157.266 51.9314 158.297 54.0422C159.345 56.1531 160.188 57.9036 160.188 57.9208ZM155.547 55.2264C156.217 57.0627 156.75 58.5729 156.716 58.6073C156.595 58.7102 155.306 59.0191 155.238 58.9505C155.169 58.8819 154.189 52.4462 154.172 52.0172C154.172 51.5881 154.292 51.8627 155.547 55.2264ZM89.3579 57.8007L88.9798 62.2627L88.4814 62.3313C88.0345 62.4 87.9829 62.3657 88.0689 62.0568C88.1032 61.8508 88.4814 59.7914 88.8767 57.4574C89.2892 55.1234 89.6501 53.2528 89.6845 53.2871C89.7189 53.3214 89.5814 55.3465 89.3579 57.8007ZM102.094 57.4574C101.699 60.3921 101.819 60.1518 100.289 61.3875C99.3439 62.1769 99.6189 62.2455 100.702 61.4904L101.63 60.8898L101.544 61.6792C101.492 62.1254 101.406 62.5201 101.372 62.5545C101.252 62.6917 97.4532 62.0739 97.4532 61.9195C97.4532 61.4389 99.997 55.3465 100.152 55.4838C100.186 55.5181 99.8939 56.4277 99.4986 57.4746C99.1204 58.5386 98.8454 59.4482 98.897 59.4997C98.9657 59.5683 99.5157 58.47 99.5157 58.2297C99.5157 58.1954 99.7907 57.7148 100.134 57.1828C100.977 55.8614 102.317 54.2997 102.403 54.5571C102.438 54.6601 102.3 55.9644 102.094 57.4574ZM94.1017 58.0238C93.9642 59.7571 93.8439 61.3531 93.8439 61.5591C93.8439 61.8851 93.7236 61.9366 92.8642 61.9881C92.3142 62.0224 91.8501 62.0396 91.8158 62.0224C91.6782 61.9366 92.3657 59.0535 92.7611 57.9208C93.2423 56.5822 94.1704 54.6772 94.2736 54.7802C94.3251 54.8145 94.2392 56.2733 94.1017 58.0238ZM133.324 56.5135C133.375 56.5993 133.341 56.7195 133.272 56.7881C133.186 56.8568 132.774 56.5307 132.344 56.0502L131.57 55.1921L132.395 55.7756C132.859 56.1016 133.272 56.4277 133.324 56.5135ZM149.084 60.8211C148.827 60.8898 148.586 60.8898 148.5 60.8211C148.397 60.701 146.988 56.5993 146.661 55.4323C146.609 55.295 147.245 56.4106 148.053 57.9208L149.514 60.6667L149.084 60.8211ZM90.8532 57.6977C90.6642 61.6277 90.5954 62.1254 90.2001 62.1254C89.9595 62.1254 89.8907 62.0396 89.9595 61.8165C89.9939 61.662 90.2173 60.1518 90.4236 58.47C90.647 56.8053 90.8532 55.4323 90.8876 55.4323C90.9392 55.4323 90.922 56.462 90.8532 57.6977ZM152.711 59.3967C152.78 59.6198 152.745 59.7228 152.556 59.7228C152.402 59.7228 152.247 59.5511 152.195 59.328C152.161 59.1221 152.006 58.4185 151.852 57.7835C151.714 57.1313 151.594 56.5135 151.611 56.4106C151.611 56.2389 152.281 58.0409 152.711 59.3967ZM96.0095 57.7835C95.7861 58.3327 95.4767 59.3624 95.3048 60.066C95.1329 60.7696 94.9439 61.5076 94.8579 61.6964C94.7204 62.0396 94.7204 62.0396 94.7204 61.6964C94.6861 60.9756 96.0611 56.8053 96.3189 56.8053C96.3704 56.8053 96.2158 57.2515 96.0095 57.7835ZM132.327 57.9551C132.361 57.9894 132.344 58.0581 132.292 58.1267C132.155 58.264 131.313 57.5089 131.313 57.2686C131.313 57.1657 131.519 57.2686 131.794 57.5089C132.052 57.732 132.292 57.9379 132.327 57.9551ZM146.988 61.5762C146.833 61.6964 146.627 61.765 146.541 61.7307C146.403 61.6792 145.063 57.4746 145.08 57.1485C145.08 57.097 145.578 58.0238 146.18 59.2079C147.16 61.1472 147.245 61.3703 146.988 61.5762ZM108.041 60.169C107.989 60.3234 107.886 60.6152 107.834 60.8383C107.749 61.1644 107.25 61.6105 107.25 61.3531C107.25 61.0785 107.834 59.8944 107.972 59.8944C108.075 59.8944 108.092 60.0145 108.041 60.169ZM141.952 61.5247C142.536 62.3313 143 63.0521 143 63.138C143 63.2752 142.295 63.5498 142.209 63.4469C142.141 63.3782 140.594 60.0317 140.594 59.9459C140.594 59.7228 141.006 60.2205 141.952 61.5247ZM106.459 60.7868C106.236 61.5591 105.875 62.3485 105.789 62.2627C105.738 62.2112 105.858 61.7822 106.064 61.3017C106.442 60.3921 106.683 60.1003 106.459 60.7868ZM129.611 60.6667C129.886 60.8211 130.075 61.0099 130.024 61.0957C129.972 61.1987 129.697 61.0957 129.405 60.8898C128.666 60.3406 128.752 60.2376 129.611 60.6667ZM107.542 61.9023C107.491 61.9881 107.302 62.5888 107.095 63.2752C106.734 64.4766 106.717 64.5109 106.322 64.3393L105.91 64.1505L106.339 63.1723C106.752 62.2627 107.147 61.7822 107.474 61.7822C107.542 61.7822 107.577 61.8337 107.542 61.9023ZM140.267 63.0178C140.628 63.6356 140.852 64.1676 140.766 64.2535C140.474 64.5624 140.147 64.202 139.838 63.2238C139.666 62.6574 139.477 62.0911 139.425 61.9538C139.27 61.4904 139.597 61.9195 140.267 63.0178ZM105.617 63.0865C105.48 63.4297 105.359 63.7386 105.359 63.7729C105.359 63.8073 105.291 63.8416 105.205 63.8416C105.119 63.8416 105.17 63.5327 105.308 63.1551C105.463 62.7776 105.652 62.4686 105.738 62.4686C105.806 62.4686 105.755 62.7432 105.617 63.0865ZM137.706 65.6779C137.552 65.798 137.38 65.901 137.311 65.901C137.122 65.901 136.847 64.4594 137.019 64.3908C137.088 64.3564 137.036 64.1676 136.899 63.9617C136.761 63.7558 136.641 63.4812 136.641 63.3267C136.641 63.1894 136.95 63.6013 137.311 64.2706C137.895 65.3347 137.947 65.4891 137.706 65.6779ZM113.97 63.8931C113.884 64.1333 113.713 64.3736 113.592 64.4422C113.386 64.5795 113.386 64.5624 113.764 63.7901C114.056 63.2238 114.194 63.2924 113.97 63.8931ZM111.289 64.8713C110.963 65.8667 110.258 66.3987 109.656 66.0726C109.33 65.901 109.33 65.8667 109.88 65.0429C110.241 64.5109 110.602 64.1505 110.945 64.0475C111.238 63.9617 111.495 63.9274 111.53 63.9445C111.547 63.9617 111.444 64.3908 111.289 64.8713ZM127.549 64.3049C127.772 64.5795 127.755 64.5967 127.497 64.3736C127.325 64.2535 127.188 64.1162 127.188 64.0818C127.188 63.9445 127.325 64.0304 127.549 64.3049ZM109.175 65.0429C108.883 65.5749 108.711 65.6607 108.556 65.4205C108.436 65.2145 108.952 64.528 109.227 64.528C109.416 64.528 109.416 64.631 109.175 65.0429ZM113.438 65.6092C113.438 65.798 112.853 67.3769 112.75 67.497C112.681 67.5828 112.458 67.5657 112.252 67.4627C111.908 67.2739 111.908 67.2396 112.166 66.7076C112.544 65.9868 112.922 65.5578 113.214 65.5578C113.334 65.5578 113.438 65.5749 113.438 65.6092ZM134.922 67.0337C134.922 67.171 134.853 67.2396 134.75 67.1881C134.664 67.1366 134.578 66.965 134.578 66.8277C134.578 66.6904 134.664 66.6218 134.75 66.6733C134.853 66.7247 134.922 66.8964 134.922 67.0337ZM132.859 68.3036C132.859 68.3895 132.774 68.4753 132.67 68.4753C132.584 68.4753 132.55 68.3895 132.602 68.3036C132.653 68.2007 132.739 68.132 132.791 68.132C132.825 68.132 132.859 68.2007 132.859 68.3036ZM145.217 78.2574C145.785 80.3683 146.231 82.1188 146.214 82.136C146.18 82.1703 144.324 81.8442 144.255 81.7927C144.22 81.7584 143.722 76.1809 143.722 75.6832C143.722 75.5459 143.636 74.6535 143.533 73.7096C143.224 70.7921 143.155 70.6033 145.217 78.2574ZM142.553 77.0561C142.88 78.8066 143.206 80.5228 143.275 80.9003L143.395 81.5696L142.553 81.4495C142.089 81.3809 141.66 81.2607 141.591 81.2092C141.522 81.1406 141.522 79.3215 141.574 77.1419C141.642 74.9281 141.745 73.3492 141.814 73.538C141.883 73.7267 142.227 75.3056 142.553 77.0561ZM139.597 78.4805C139.786 79.6819 139.906 80.7287 139.855 80.763C139.803 80.8145 139.322 80.763 138.789 80.6601L137.827 80.4541L137.913 79.8363C137.964 79.4759 138.084 78.3947 138.188 77.3994C138.291 76.404 138.411 75.4086 138.463 75.1683C138.634 74.396 139.202 76.0951 139.597 78.4805ZM136.228 80.1109C136.16 80.1624 134.75 79.8706 134.664 79.7677C134.613 79.7162 135.077 77.9142 135.627 76.0264C135.85 75.2541 135.85 75.2541 136.056 77.6568C136.177 78.9782 136.245 80.0766 136.228 80.1109ZM106.219 82.2904L105.342 88.7604L104.294 89.9446C103.709 90.5967 103.211 91.1116 103.194 91.0772C103.16 91.0429 104.002 87.5419 105.067 83.2687C106.133 79.0125 107.009 75.5802 107.044 75.666C107.061 75.7347 106.7 78.7208 106.219 82.2904ZM110.928 78C110.997 79.0297 111.083 80.1109 111.134 80.4026C111.203 80.866 111.152 80.9518 110.516 81.2951C110.086 81.5182 109.828 81.5868 109.828 81.4667C109.811 80.7459 110.619 75.5802 110.705 75.8205C110.756 75.9749 110.859 76.9531 110.928 78ZM133.444 77.7769L133.324 79.5617L132.447 79.3901C131.966 79.3043 131.536 79.2013 131.502 79.1842C131.467 79.1498 131.897 78.3947 132.447 77.5023C132.997 76.6099 133.478 75.9063 133.513 75.9234C133.53 75.9578 133.513 76.7815 133.444 77.7769ZM108.367 80.1109L108.247 82.7195L107.749 83.0112C107.13 83.3716 107.095 83.6291 107.697 83.4059C107.938 83.303 108.161 83.2343 108.213 83.2343C108.247 83.2343 108.281 83.7663 108.281 84.4185V85.5855L107.233 86.7353C106.649 87.3703 106.15 87.8508 106.116 87.8165C106.081 87.7993 106.494 85.6885 107.009 83.1485C107.525 80.5914 108.041 78.0515 108.161 77.4852C108.453 76.0092 108.522 76.8673 108.367 80.1109ZM115.397 78.5663C115.156 78.6865 114.933 78.7723 114.899 78.738C114.864 78.7036 114.795 78.2231 114.727 77.6568L114.606 76.6271L115.225 77.4852L115.844 78.3261L115.397 78.5663ZM113.524 79.3043C113.592 79.4759 113.455 79.6475 113.18 79.7677C112.939 79.8878 112.716 79.9736 112.699 79.9736C112.681 79.9736 112.699 79.3043 112.733 78.4805L112.802 76.9703L113.128 78C113.3 78.5663 113.489 79.1498 113.524 79.3043ZM130.934 78.8924C130.9 79.0125 130.797 79.0469 130.694 78.9782C130.591 78.9096 130.556 78.4977 130.608 78L130.677 77.1419L130.831 77.9142C130.9 78.3432 130.952 78.7894 130.934 78.8924ZM127.961 78.2574C128.013 78.3432 127.978 78.429 127.892 78.429C127.789 78.429 127.703 78.3432 127.703 78.2574C127.703 78.1545 127.738 78.0858 127.772 78.0858C127.824 78.0858 127.909 78.1545 127.961 78.2574ZM126.981 82.4964C127.016 82.3248 127.067 82.2046 127.119 82.2046C127.411 82.2046 129.233 84.6931 129.061 84.8475C129.027 84.8819 128.236 84.2812 127.325 83.5261C125.899 82.3419 125.641 82.0502 125.641 81.6211C125.641 81.1234 125.641 81.1234 126.294 81.9472C126.741 82.5307 126.947 82.6852 126.981 82.4964ZM143.086 82.033C143.395 82.033 143.516 82.1703 143.653 82.7366C143.791 83.2858 143.791 83.4059 143.602 83.3373C143.275 83.2172 141.625 82.0158 141.625 81.9129C141.625 81.8614 141.866 81.8614 142.158 81.93C142.45 81.9815 142.88 82.033 143.086 82.033ZM146.008 82.4621C146.283 82.5135 146.438 82.8739 146.799 84.264C147.056 85.2079 147.228 85.9802 147.194 85.9802C147.142 85.9802 145.183 84.5901 144.444 84.0238C144.427 84.0066 144.375 83.5947 144.306 83.097L144.186 82.2046L144.925 82.2904C145.338 82.3591 145.819 82.4277 146.008 82.4621ZM110.413 83.303C109.949 83.8178 109.519 84.2297 109.467 84.2469C109.416 84.264 109.416 83.938 109.467 83.5432C109.553 82.9254 109.639 82.8053 110.172 82.6165C111.238 82.239 111.272 82.3591 110.413 83.303ZM129.938 89.2238L131.227 89.6871L131.845 91.3175C132.808 93.8059 132.825 93.9089 132 92.8449C131.588 92.33 130.522 91.1802 129.628 90.305C127.806 88.5545 127.841 88.4515 129.938 89.2238ZM112.32 94.4066C113.403 97.5472 113.249 97.4442 113.902 95.3333C114.228 94.3208 114.52 93.5314 114.572 93.5657C114.692 93.6858 113.042 99.0403 112.114 101.512L111.289 103.743L111.238 98.5941C111.203 95.0073 111.255 93.3083 111.392 92.965C111.513 92.7076 111.616 92.5188 111.65 92.5531C111.684 92.5875 111.994 93.4112 112.32 94.4066ZM110.516 105.133C110.516 105.613 109.674 107.45 109.656 107.003C109.656 106.815 109.502 105.201 109.313 103.399C109.124 101.615 108.969 99.9842 108.986 99.7954C109.003 99.3663 110.516 104.635 110.516 105.133ZM108.161 110.298L107.68 111.122L107.577 109.663C107.508 108.857 107.422 107.192 107.37 105.974L107.267 103.743L107.955 106.609L108.642 109.475L108.161 110.298ZM103.022 118.158C102.764 118.502 102.541 118.742 102.506 118.708C102.472 118.673 102.661 118.055 102.919 117.335L103.383 116.013L103.434 116.785C103.486 117.403 103.4 117.678 103.022 118.158Z" fill="#00D1C1"/>
</svg>
