<svg width="30" height="32" viewBox="0 0 30 32" fill="none" xmlns="http://www.w3.org/2000/svg">
<path d="M16.8048 26.8672C20.2077 26.744 23.4085 25.3495 25.8178 22.9403C28.3557 20.4023 29.7535 17.0278 29.7535 13.4386C29.7535 9.84935 28.3557 6.47491 25.8178 3.93691C23.4086 1.52772 20.2077 0.133157 16.8048 0.0100318C13.42 -0.113468 10.1442 1.02978 7.58138 3.22653C7.28532 3.48034 7.10695 3.84953 7.09201 4.23953C7.07701 4.62997 7.22682 5.01228 7.50301 5.28853C8.01882 5.80441 8.85926 5.83491 9.41632 5.35816C11.2709 3.77084 13.5476 2.93684 15.8473 2.83922V3.76309C13.1146 3.89328 10.5869 5.15803 8.83707 7.28235H6.78488C5.8372 7.28235 5.06613 8.05341 5.06613 9.00109V9.18859H2.28488C1.50951 9.18859 0.878632 9.81947 0.878632 10.5948V11.9698C0.878632 12.8673 1.38594 13.6482 2.12863 14.0418V15.7094C2.12863 15.9683 2.33844 16.1782 2.59738 16.1782C2.85632 16.1782 3.06613 15.9683 3.06613 15.7094V14.3078C3.11782 14.3113 3.16982 14.3137 3.22238 14.3137H4.00363V15.4074C4.00363 15.8382 4.35407 16.1887 4.78488 16.1887H6.34738C6.7782 16.1887 7.12863 15.8382 7.12863 15.4074V14.3137H9.75363V15.4074C9.75363 15.8382 10.1041 16.1887 10.5349 16.1887H12.0974C12.5282 16.1887 12.8786 15.8382 12.8786 15.4074V14.3137H13.6599C13.7124 14.3137 13.7644 14.3113 13.8161 14.3078V18.1886C13.8161 18.4471 13.6059 18.6573 13.3474 18.6573H3.53488C3.27638 18.6573 3.06613 18.4471 3.06613 18.1886V17.8969C3.06613 17.638 2.85632 17.4282 2.59738 17.4282C2.33844 17.4282 2.12863 17.638 2.12863 17.8969V18.1886C2.12863 18.964 2.75951 19.5948 3.53488 19.5948H8.83638C8.83801 19.5968 8.83932 19.599 8.84095 19.601C10.5898 21.7202 13.1225 22.9837 15.8473 23.1142V24.038C13.5476 23.9403 11.2709 23.1064 9.41632 21.5192C8.8592 21.0425 8.01888 21.073 7.50301 21.5888C7.22682 21.8651 7.07701 22.2474 7.09201 22.6378C7.10695 23.0278 7.28532 23.397 7.58138 23.6508C9.90176 25.6397 12.8063 26.7633 15.8473 26.8674V27.5635H15.4723C14.8693 27.5635 14.3786 28.0542 14.3786 28.6572V29.1885H12.7848C12.0094 29.1885 11.3786 29.8193 11.3786 30.5947C11.3786 31.3701 12.0094 32.001 12.7848 32.001H16.8161C17.075 32.001 17.2848 31.7912 17.2848 31.5322C17.2848 31.2733 17.075 31.0635 16.8161 31.0635H12.7848C12.5263 31.0635 12.3161 30.8532 12.3161 30.5947C12.3161 30.3362 12.5263 30.126 12.7848 30.126H19.8473C20.1058 30.126 20.3161 30.3362 20.3161 30.5947C20.3161 30.8532 20.1058 31.0635 19.8473 31.0635H19.0036C18.7446 31.0635 18.5348 31.2733 18.5348 31.5322C18.5348 31.7912 18.7446 32.001 19.0036 32.001H19.8473C20.6227 32.001 21.2536 31.3701 21.2536 30.5947C21.2536 29.8193 20.6227 29.1885 19.8473 29.1885H18.2536V28.6572C18.2536 28.0542 17.7629 27.5635 17.1598 27.5635H16.7848V26.8677C16.7915 26.8675 16.7981 26.8674 16.8048 26.8672ZM17.3161 28.6572V29.1885H15.3161V28.6572C15.3161 28.571 15.3861 28.501 15.4723 28.501H17.1598C17.246 28.501 17.3161 28.571 17.3161 28.6572ZM26.0035 13.4386C26.0035 8.2541 21.9096 4.00809 16.7848 3.76266V2.84003C19.3588 2.95459 21.8936 3.99016 23.829 5.92566C27.9716 10.0683 27.9716 16.809 23.829 20.9515C21.8936 22.8869 19.3588 23.9225 16.7848 24.037V23.1145C21.9096 22.8691 26.0035 18.623 26.0035 13.4386ZM20.4098 10.5011H19.0941C19.0367 10.5011 18.9841 10.4698 18.9568 10.4194L17.7606 8.21666C17.7236 8.14878 17.7466 8.09072 17.7636 8.06222C17.7806 8.03372 17.8206 7.98585 17.8978 7.98585H19.7693C20.0761 7.98585 20.3706 7.85585 20.5773 7.62935L21.6211 6.48535C23.4557 7.88847 24.7209 9.99966 25.0049 12.4073H23.5347C22.9316 12.4073 22.4409 12.898 22.4409 13.501V14.4248C22.4409 14.4799 22.4114 14.5315 22.3639 14.5594L20.8553 15.4469C20.5226 15.6425 20.3159 16.0037 20.3159 16.3897V18.5322C20.3159 18.6184 20.2459 18.6885 20.1597 18.6885H19.7909C19.7453 18.6885 19.702 18.6686 19.6723 18.6339L17.6661 16.2933C17.6419 16.265 17.6285 16.229 17.6285 16.1917V13.501C17.6285 13.4148 17.6986 13.3447 17.7848 13.3447H20.4098C21.0128 13.3447 21.5035 12.854 21.5035 12.251V11.5947C21.5035 10.9918 21.0129 10.5011 20.4098 10.5011ZM6.00363 9.00109C6.00363 8.57028 6.35407 8.21984 6.78488 8.21984H10.0974C10.5282 8.21984 10.8786 8.57028 10.8786 9.00109V9.18859H6.00363V9.00109ZM6.19113 15.2511H4.94113V14.3136H6.19113V15.2511ZM11.9411 15.2511H10.6911V14.3136H11.9411V15.2511ZM3.22238 13.3761C2.44701 13.3761 1.81613 12.7452 1.81613 11.9698V10.5948C1.81613 10.3363 2.02638 10.1261 2.28488 10.1261H14.5973C14.8558 10.1261 15.0661 10.3363 15.0661 10.5948V11.9698C15.0661 12.7452 14.4352 13.3761 13.6598 13.3761H3.22238ZM13.3473 19.5948C14.1227 19.5948 14.7536 18.9639 14.7536 18.1885V14.0418C15.4963 13.6482 16.0036 12.8673 16.0036 11.9698V10.5948C16.0036 9.81947 15.3727 9.18859 14.5973 9.18859H11.8161V9.00109C11.8161 8.05372 11.0455 7.28285 10.0982 7.28241C11.7363 5.62441 13.9561 4.68866 16.316 4.68866C17.9703 4.68866 19.5187 5.15022 20.8395 5.95116L19.8847 6.9976C19.8552 7.02991 19.8131 7.04841 19.7693 7.04841H17.8978C17.5084 7.04841 17.1569 7.24822 16.9578 7.58303C16.7587 7.91772 16.7508 8.32191 16.9367 8.66416L18.1329 10.8668C18.3243 11.2195 18.6926 11.4386 19.0941 11.4386H20.4098C20.4959 11.4386 20.566 11.5087 20.566 11.5948V12.2511C20.566 12.3373 20.4959 12.4073 20.4098 12.4073H17.7848C17.1817 12.4073 16.691 12.898 16.691 13.5011V16.1918C16.691 16.4527 16.7845 16.7055 16.9543 16.9036L18.9604 19.2441C19.1684 19.4869 19.4712 19.6261 19.7909 19.6261H20.1597C20.7628 19.6261 21.2534 19.1354 21.2534 18.5323V16.3898C21.2534 16.3347 21.2829 16.2832 21.3305 16.2552L22.8391 15.3677C23.1718 15.1721 23.3784 14.8109 23.3784 14.4249V13.5012C23.3784 13.415 23.4485 13.3449 23.5347 13.3449H25.0648C25.0651 13.3762 25.0659 13.4073 25.0659 13.4387C25.0659 18.2634 21.1408 22.1886 16.316 22.1886C13.9619 22.1886 11.7374 21.2518 10.0985 19.5948H13.3473V19.5948ZM16.3061 25.0004C16.3094 25.0005 16.3127 25.0009 16.3161 25.0009C16.3197 25.0009 16.3233 25.0005 16.3268 25.0003C16.4646 25.0002 16.6024 24.9983 16.7407 24.9933C19.6673 24.8864 22.4201 23.6865 24.492 21.6145C29.0001 17.1063 29.0001 9.77091 24.492 5.26272C22.4201 3.19078 19.6673 1.99084 16.7407 1.88397C13.8303 1.77697 11.012 2.75847 8.8067 4.64591C8.61613 4.80903 8.34057 4.80035 8.16595 4.6256C7.97445 4.38891 7.98295 4.15978 8.19145 3.93834C13.1138 -0.280718 20.565 0.00990677 25.1548 4.59984C30.0286 9.47353 30.0286 17.4037 25.1548 22.2773C20.5649 26.8672 13.1138 27.1579 8.19157 22.9389C7.98426 22.7612 7.97326 22.4443 8.16595 22.2517C8.37651 22.0759 8.59013 22.0692 8.80676 22.2313C10.902 24.0246 13.5517 24.9992 16.3061 25.0004Z" fill="white"/>
</svg>
