<svg width="407" height="411" viewBox="0 0 407 411" fill="none" xmlns="http://www.w3.org/2000/svg">
<path d="M406.498 410.443C406.498 410.593 315.674 410.703 203.663 410.703C91.6524 410.703 0.810547 410.593 0.810547 410.443C0.810547 410.293 91.6156 410.183 203.663 410.183C315.711 410.183 406.498 410.303 406.498 410.443Z" fill="#383838"/>
<path d="M357.2 35.4437H353.2C353.202 35.8974 353.114 36.347 352.94 36.7659C352.766 37.1848 352.509 37.5646 352.186 37.8825C351.862 38.2005 351.478 38.4503 351.056 38.6172C350.634 38.784 350.183 38.8644 349.73 38.8537C349.06 38.8777 348.399 38.6922 347.84 38.3229C347.281 37.9536 346.851 37.4191 346.61 36.7937C346.399 36.273 346.314 35.7097 346.363 35.1501C346.412 34.5904 346.592 34.0503 346.89 33.5737C347.57 32.4537 349.05 31.4437 351.73 31.9137V22.9137H347.8V28.1737C346.187 28.6485 344.774 29.6393 343.779 30.9941C342.784 32.3489 342.26 33.9928 342.29 35.6737C342.29 41.4937 347.51 42.8437 349.75 42.8437C351.46 42.8837 357.28 42.4737 357.2 35.4437Z" fill="#FF5A5F"/>
<path d="M347.77 21.0835H351.759V17.3535H347.77V21.0835Z" fill="#FF5A5F"/>
<path d="M379.009 30.1235C379.023 29.9538 379.023 29.7833 379.009 29.6135C379.009 29.2535 379.009 28.7635 379.009 28.1335C379.009 27.8135 379.01 27.4435 378.96 27.0435C378.91 26.6435 378.849 26.2035 378.779 25.7435C378.709 25.2835 378.639 24.7435 378.559 24.2135L378.14 22.5135C377.397 19.5859 376.181 16.7992 374.539 14.2635C372.156 10.5083 368.944 7.34955 365.149 5.03002C361.354 2.7105 357.078 1.29199 352.65 0.883528C351.32 0.766066 349.983 0.739339 348.65 0.80353C347.98 0.80353 347.29 0.803527 346.65 0.933527L344.589 1.24353C341.763 1.76886 339.028 2.70193 336.469 4.01353C333.799 5.42681 331.344 7.21492 329.18 9.32353C326.964 11.5694 325.111 14.147 323.689 16.9635C322.16 19.8672 321.157 23.0195 320.73 26.2735C320.605 27.098 320.534 27.9298 320.52 28.7635C320.453 29.5984 320.436 30.4366 320.469 31.2735C320.687 36.638 322.364 41.8415 325.319 46.3235V46.0135C323.929 49.4835 322.559 52.8935 321.219 56.2135L320.98 56.8235L321.61 56.6435L332.51 53.6435L332.249 53.5835C335.92 56.3627 340.197 58.2336 344.73 59.0435C346.832 59.4354 348.975 59.5664 351.11 59.4335C352.139 59.4182 353.165 59.3212 354.18 59.1435L355.67 58.9135C356.16 58.8235 356.67 58.6735 357.11 58.5635C363.826 56.8614 369.718 52.8237 373.729 47.1735C375.226 45.092 376.427 42.8138 377.3 40.4035C377.49 39.8735 377.669 39.4035 377.839 38.8835C378.009 38.3635 378.1 37.8835 378.21 37.4335C378.32 36.9835 378.439 36.5235 378.539 36.1035C378.639 35.6835 378.669 35.2735 378.729 34.8835C378.819 34.1135 378.96 33.4335 378.99 32.8835C379.02 32.3335 378.99 31.8035 378.99 31.3835C378.99 30.9635 378.99 30.7035 378.99 30.4735C378.99 30.2435 378.99 30.1635 378.99 30.1635C378.974 30.2663 378.974 30.3708 378.99 30.4735C378.99 30.7035 378.99 31.0035 378.92 31.3835C378.85 31.7635 378.859 32.2935 378.819 32.8735C378.779 33.4535 378.629 34.1335 378.509 34.8735C377.556 40.4081 375.015 45.5467 371.197 49.6651C367.378 53.7835 362.446 56.7046 356.999 58.0735C356.529 58.1835 356.06 58.3235 355.58 58.4135L354.11 58.6335C353.118 58.7991 352.115 58.8893 351.11 58.9035C349.014 59.014 346.913 58.8764 344.849 58.4935C340.423 57.6789 336.248 55.8399 332.659 53.1235L332.539 53.0235H332.39L321.48 56.0235L321.86 56.4535L325.969 46.2635L326.029 46.1035L325.939 45.9535C323.97 42.9743 322.573 39.6544 321.819 36.1635C321.474 34.544 321.267 32.8981 321.2 31.2435C321.166 30.4266 321.183 29.6084 321.249 28.7935C321.256 27.9797 321.323 27.1674 321.45 26.3635C321.833 23.1858 322.778 20.1013 324.24 17.2535C325.629 14.501 327.434 11.9782 329.589 9.77353C331.707 7.70347 334.112 5.94883 336.73 4.56353C339.231 3.26256 341.909 2.33601 344.68 1.81353L346.68 1.50353C347.35 1.40353 348.02 1.41353 348.68 1.36353C349.983 1.30151 351.289 1.3249 352.589 1.43353C356.946 1.81485 361.157 3.18377 364.905 5.43632C368.653 7.68887 371.839 10.7658 374.219 14.4335C375.87 16.925 377.106 19.6671 377.879 22.5535L378.33 24.2335C378.42 24.7635 378.5 25.2335 378.58 25.7335C378.66 26.2335 378.719 26.6335 378.789 27.0335C378.859 27.4335 378.84 27.7935 378.87 28.1135C378.87 28.7335 378.95 29.2235 378.979 29.5835C378.96 29.764 378.971 29.9463 379.009 30.1235Z" fill="#383838"/>
<path d="M80.8014 148.053H138.551C138.551 148.053 138.551 99.5633 188.941 98.7033C215.111 98.2433 228.681 115.393 234.201 128.523C240.601 143.773 238.661 161.153 230.081 175.303C220.291 191.453 199.191 207.683 160.271 200.823L159.901 329.493H217.011V253.213C217.011 253.213 297.101 232.513 297.101 144.213C297.101 59.7633 228.811 41.5233 192.101 40.3433C171.681 39.6933 164.281 38.8133 139.021 42.4033C106.831 47.0033 80.1214 84.3833 80.8014 148.053Z" fill="#BF4447"/>
<path d="M217.701 356.313H159.741V410.443H217.701V356.313Z" fill="#BF4447"/>
<path d="M56.8714 148.053H114.631C114.631 148.053 114.631 99.5633 165.021 98.7033C191.191 98.2433 204.761 115.393 210.271 128.523C216.681 143.773 214.741 161.153 206.161 175.303C196.371 191.453 174.901 206.133 135.981 199.303V329.493H193.091V253.213C193.091 253.213 273.181 232.513 273.181 144.213C273.181 59.7633 197.441 40.1533 165.031 40.1533C140.241 40.1833 55.7814 46.1733 56.8714 148.053Z" fill="#FF5A5F"/>
<path d="M193.782 356.313H135.822V410.443H193.782V356.313Z" fill="#FF5A5F"/>
<path d="M171.542 98.9633C171.255 98.988 170.968 98.988 170.682 98.9633C170.112 98.9633 169.292 98.7733 168.222 98.7633C165.196 98.6147 162.164 98.7419 159.162 99.1433C154.71 99.7069 150.329 100.736 146.092 102.213C143.594 103.086 141.161 104.136 138.812 105.353C136.272 106.622 133.881 108.168 131.682 109.963C129.497 111.774 127.54 113.843 125.852 116.123C124.251 118.232 122.792 120.443 121.482 122.743C119.295 126.661 117.56 130.814 116.312 135.123C115.465 138.032 114.883 141.01 114.572 144.023C114.452 145.083 114.422 145.923 114.392 146.483C114.392 146.772 114.365 147.06 114.312 147.343C114.286 147.057 114.286 146.769 114.312 146.483C114.312 145.913 114.312 145.073 114.402 144.003C114.632 140.958 115.164 137.943 115.992 135.003C117.194 130.644 118.906 126.442 121.092 122.483C122.404 120.158 123.871 117.923 125.482 115.793C127.184 113.475 129.166 111.376 131.382 109.543C133.608 107.724 136.029 106.157 138.602 104.873C140.966 103.633 143.415 102.564 145.932 101.673C150.207 100.201 154.63 99.1957 159.122 98.6733C162.144 98.302 165.195 98.2316 168.232 98.4633C169.057 98.5161 169.878 98.6162 170.692 98.7633C170.979 98.81 171.263 98.8768 171.542 98.9633Z" fill="#383838"/>
<path d="M258.561 88.6733C258.561 88.6733 258.491 88.6033 258.371 88.4533C258.251 88.3033 258.071 88.0433 257.871 87.7533L255.961 85.0533C255.551 84.4733 255.111 83.8033 254.591 83.1133L252.791 80.9233L250.731 78.3933C249.981 77.5133 249.101 76.6633 248.221 75.7333C247.341 74.8033 246.441 73.8133 245.421 72.8633C244.401 71.9133 243.311 70.9433 242.191 69.9433C241.631 69.4433 241.081 68.9433 240.481 68.4133L238.621 66.9433C237.351 65.9433 236.091 64.9433 234.721 63.9433C228.75 59.6709 222.416 55.93 215.791 52.7633L210.521 50.3833L205.291 48.3833C203.581 47.6733 201.841 47.1733 200.161 46.6133C198.481 46.0533 196.841 45.4833 195.161 45.0933L190.381 43.8433C188.831 43.4333 187.291 43.1833 185.821 42.8433C184.351 42.5033 182.931 42.2033 181.541 42.0333L177.541 41.4533C175.011 41.0233 172.691 40.9333 170.671 40.7333C169.671 40.6533 168.671 40.5433 167.841 40.5033L165.461 40.4433L162.161 40.3333H161.301H161.011C161.107 40.3183 161.205 40.3183 161.301 40.3333H162.161H165.461H167.851C168.721 40.3333 169.671 40.4533 170.691 40.5233C172.691 40.6933 175.051 40.7633 177.581 41.1733L181.581 41.7133C182.971 41.8733 184.391 42.2333 185.871 42.5033C187.351 42.7733 188.871 43.0533 190.461 43.5033L195.261 44.7433C196.921 45.1233 198.561 45.7433 200.261 46.2533C201.961 46.7633 203.691 47.2533 205.401 48.0133L210.661 50.0133L215.961 52.4033C222.621 55.5771 228.98 59.3458 234.961 63.6633C236.341 64.6633 237.601 65.7333 238.871 66.7233L240.731 68.0733C241.331 68.5733 241.881 69.0733 242.441 69.6133L245.661 72.6133C246.661 73.6133 247.561 74.6133 248.451 75.5233C249.341 76.4333 250.191 77.3233 250.941 78.2133L252.941 80.7633L254.721 82.9833C255.231 83.6833 255.661 84.3633 256.061 84.9833C256.841 86.1533 257.451 87.0733 257.881 87.7333L258.351 88.4633C258.43 88.5239 258.501 88.5945 258.561 88.6733Z" fill="#383838"/>
<path d="M252.542 212.673C252.423 212.89 252.279 213.091 252.112 213.273L250.732 214.903C250.162 215.633 249.442 216.503 248.552 217.473C247.662 218.443 246.712 219.583 245.552 220.763C244.392 221.943 243.152 223.263 241.742 224.593C240.332 225.923 238.802 227.323 237.172 228.783C230.023 235.023 222.185 240.428 213.812 244.893C211.872 245.893 210.042 246.893 208.272 247.663C206.502 248.433 204.852 249.223 203.332 249.863C201.812 250.503 200.412 251.033 199.192 251.503C197.972 251.973 196.902 252.353 196.022 252.633L194.022 253.283C193.79 253.375 193.548 253.443 193.302 253.483C193.518 253.36 193.746 253.259 193.982 253.183L195.982 252.443C196.852 252.133 197.902 251.733 199.112 251.233C200.322 250.733 201.722 250.233 203.222 249.523C204.722 248.813 206.382 248.143 208.112 247.273C209.842 246.403 211.692 245.483 213.622 244.473C217.432 242.373 221.542 239.913 225.692 237.073C229.842 234.233 233.572 231.243 236.892 228.423C238.522 226.983 240.082 225.633 241.472 224.273C242.862 222.913 244.162 221.683 245.312 220.503C246.462 219.323 247.472 218.233 248.372 217.273C249.272 216.313 250.012 215.473 250.612 214.773L252.012 213.183C252.175 212.999 252.352 212.829 252.542 212.673Z" fill="#383838"/>
<path d="M192.082 324.953C191.932 324.953 191.812 308.893 191.812 289.083C191.812 269.273 191.932 253.203 192.082 253.203C192.232 253.203 192.342 269.263 192.342 289.083C192.342 308.903 192.222 324.953 192.082 324.953Z" fill="#383838"/>
<path d="M194.281 406.773C194.131 406.773 194.021 395.503 194.021 381.603C194.021 367.703 194.131 356.423 194.281 356.423C194.431 356.423 194.541 367.693 194.541 381.603C194.541 395.513 194.421 406.773 194.281 406.773Z" fill="#383838"/>
<path d="M251.131 140.384C250.131 142.384 253.861 144.024 256.011 144.674C258.205 145.212 260.475 145.368 262.721 145.134C265.721 144.974 268.791 144.694 271.381 143.214C273.649 141.808 275.462 139.777 276.601 137.364C277.724 134.958 278.611 132.45 279.251 129.874C279.251 129.874 255.621 131.414 251.131 140.384Z" fill="#007A87"/>
<path d="M317.872 133.983C321.768 136.747 326.436 138.21 331.212 138.163C333.502 138.291 335.759 137.58 337.562 136.163C338.332 135.453 338.912 134.553 339.702 133.873C340.242 133.413 340.872 133.063 341.382 132.573C341.651 132.342 341.859 132.047 341.986 131.715C342.114 131.384 342.157 131.026 342.112 130.673C341.915 129.805 341.428 129.029 340.732 128.473C338.022 126.933 334.782 126.993 331.662 127.063C328.54 127.199 325.455 127.802 322.512 128.853C320.092 129.673 317.562 130.853 316.332 133.053" fill="#007A87"/>
<path d="M271.732 169.873L321.582 170.533C321.684 170.533 321.784 170.509 321.874 170.463C321.965 170.418 322.043 170.351 322.104 170.269C322.164 170.188 322.204 170.093 322.221 169.993C322.238 169.893 322.232 169.791 322.202 169.693L316.352 151.453C316.352 151.453 317.212 142.333 318.402 131.373C320.212 114.723 322.622 93.7935 322.652 93.8535C319.242 84.2935 299.122 82.6735 299.122 82.6735L276.192 84.0335L275.392 82.6835L268.792 85.7535C267.353 86.4232 265.968 87.2056 264.652 88.0935C260.292 91.0035 249.792 97.6935 247.872 105.143C243.442 122.393 250.942 141.643 250.942 141.643L255.762 137.873C256.976 136.938 258.253 136.086 259.582 135.323L269.242 161.213C268.667 161.576 268.181 162.062 267.817 162.636C267.454 163.211 267.223 163.859 267.142 164.533C267.062 166.633 268.142 169.153 271.732 169.873Z" fill="#00D1C1"/>
<g opacity="0.3">
<path opacity="0.3" d="M293.122 139.354C294.702 130.854 293.872 122.114 293.022 113.514C290.262 120.514 290.362 128.514 287.432 135.454C287.073 136.186 286.811 136.963 286.652 137.764C286.576 138.166 286.596 138.58 286.711 138.973C286.825 139.366 287.031 139.726 287.312 140.024C288.112 140.754 289.312 140.354 290.372 140.234C291.321 140.053 292.245 139.757 293.122 139.354Z" fill="black"/>
</g>
<g opacity="0.4">
<path opacity="0.4" d="M274.731 159.034C278.731 160.424 282.991 157.834 287.221 157.374C290.021 157.074 292.821 157.714 295.601 158.164C301.222 159.073 306.941 159.215 312.601 158.584C313.469 158.536 314.319 158.315 315.101 157.934C315.505 157.658 315.835 157.289 316.064 156.856C316.292 156.424 316.411 155.943 316.411 155.454C306.991 154.454 297.581 153.914 288.161 152.944C285.816 152.544 283.415 152.622 281.101 153.174C278.261 154.054 276.101 156.284 274.101 158.494" fill="black"/>
</g>
<path d="M340.672 127.393C336.602 118.223 322.252 92.8634 322.252 92.8634L311.142 106.793L313.732 134.143C313.732 134.143 319.602 127.593 336.012 127.463C337.205 127.511 338.372 127.825 339.427 128.382C340.483 128.939 341.4 129.726 342.112 130.683L340.672 127.393Z" fill="#00D1C1"/>
<path d="M273.962 122.543C273.17 120.599 272.541 118.592 272.082 116.543C271.461 114.548 271.006 112.504 270.722 110.433C271.503 112.381 272.128 114.387 272.592 116.433C273.213 118.43 273.672 120.473 273.962 122.543Z" fill="#383838"/>
<path d="M310.302 104.943C310.664 105.199 310.999 105.491 311.302 105.813C312.186 106.667 313.014 107.575 313.782 108.533C316.368 111.694 318.186 115.412 319.092 119.393C319.563 121.595 319.668 123.858 319.402 126.093C319.152 128.143 318.762 129.943 318.502 131.463C318.242 132.983 318.082 134.223 318.002 135.083C318 135.53 317.953 135.976 317.862 136.413C317.791 135.967 317.771 135.514 317.802 135.063C317.846 133.838 317.96 132.616 318.142 131.403C318.352 129.873 318.702 128.053 318.932 126.043C319.163 123.859 319.045 121.651 318.582 119.503C317.687 115.596 315.95 111.931 313.492 108.763C311.662 106.303 310.222 105.023 310.302 104.943Z" fill="#383838"/>
<path d="M300.122 167.673C299.775 167.828 299.408 167.936 299.032 167.993C298.605 168.106 298.171 168.19 297.732 168.243C297.222 168.313 296.642 168.423 295.992 168.453C294.469 168.593 292.936 168.593 291.412 168.453C289.548 168.262 287.707 167.894 285.912 167.353C284.127 166.78 282.399 166.04 280.752 165.143C279.417 164.398 278.149 163.538 276.962 162.573C276.442 162.173 276.022 161.753 275.642 161.403C275.314 161.108 275.004 160.794 274.712 160.463C274.434 160.206 274.195 159.91 274.002 159.583C274.072 159.513 275.142 160.713 277.192 162.283C278.39 163.195 279.657 164.011 280.982 164.723C282.611 165.579 284.31 166.292 286.062 166.853C287.826 167.385 289.633 167.76 291.462 167.973C292.956 168.134 294.461 168.181 295.962 168.113C298.532 167.973 300.102 167.593 300.122 167.673Z" fill="#383838"/>
<path d="M315.512 161.993C315.748 162.446 315.881 162.944 315.902 163.453C316.062 164.672 315.97 165.911 315.632 167.093C315.289 168.303 314.592 169.382 313.632 170.193C312.902 170.803 312.342 170.993 312.312 170.943C312.282 170.893 312.752 170.563 313.382 169.943C314.191 169.1 314.778 168.069 315.092 166.943C315.892 164.303 315.322 162.003 315.512 161.993Z" fill="#383838"/>
<path d="M312.803 165.514C313.02 166.542 312.933 167.612 312.553 168.592C312.173 169.572 311.516 170.42 310.663 171.034C310.553 170.924 311.483 169.934 312.063 168.404C312.643 166.874 312.653 165.524 312.803 165.514Z" fill="#383838"/>
<path d="M303.881 132.614C303.351 133.509 302.756 134.365 302.101 135.174C301.584 136.077 300.999 136.939 300.351 137.754C300.543 136.698 300.997 135.708 301.671 134.874C302.204 133.945 302.964 133.167 303.881 132.614Z" fill="#383838"/>
<path d="M269.661 108.394C268.899 107.946 268.161 107.459 267.451 106.934C263.895 104.597 259.858 103.09 255.641 102.524C254.758 102.459 253.88 102.342 253.011 102.174C253.897 102.051 254.795 102.051 255.681 102.174C260.013 102.543 264.163 104.089 267.681 106.644C268.419 107.132 269.085 107.721 269.661 108.394Z" fill="#383838"/>
<path d="M322.252 92.5336C320.462 93.9748 318.79 95.5565 317.252 97.2636C315.836 99.0854 314.568 101.018 313.462 103.044C313.581 102.362 313.814 101.706 314.152 101.104C314.876 99.6041 315.783 98.2001 316.852 96.9236C317.924 95.6496 319.154 94.5172 320.512 93.5536C321.029 93.1159 321.618 92.7708 322.252 92.5336Z" fill="#383838"/>
<path d="M301.671 84.2936C301.762 84.4378 301.836 84.5922 301.891 84.7536C302.086 85.2065 302.243 85.6747 302.361 86.1536C302.783 87.9356 302.783 89.7915 302.361 91.5736C301.739 94.2339 300.315 96.6389 298.281 98.4636C295.715 100.638 292.444 101.804 289.081 101.744C285.715 101.755 282.435 100.678 279.731 98.6736C277.576 97.0285 275.828 94.9108 274.621 92.4836C273.808 90.8584 273.235 89.1236 272.921 87.3336C272.829 86.8514 272.769 86.3637 272.741 85.8736C272.713 85.7014 272.713 85.5258 272.741 85.3536C272.741 85.3536 272.851 86.0536 273.131 87.2936C273.52 89.0331 274.135 90.7141 274.961 92.2936C276.181 94.6477 277.914 96.6981 280.031 98.2936C282.637 100.223 285.789 101.274 289.031 101.294C292.273 101.353 295.428 100.246 297.921 98.1736C299.886 96.4158 301.279 94.1102 301.921 91.5536C302.366 89.8279 302.427 88.0256 302.101 86.2736C301.911 84.9536 301.611 84.3136 301.671 84.2936Z" fill="#383838"/>
<g opacity="0.3">
<path opacity="0.3" d="M305.171 134.384C305.171 133.884 305.091 133.294 304.651 133.044C304.511 132.973 304.357 132.937 304.201 132.937C304.045 132.937 303.891 132.973 303.751 133.044C303.471 133.195 303.223 133.399 303.021 133.644C301.845 134.867 300.936 136.321 300.351 137.914L305.251 137.484C305.221 136.474 305.201 135.414 305.171 134.384Z" fill="black"/>
</g>
<g opacity="0.3">
<path opacity="0.3" d="M321.442 124.074C320.95 121.27 319.721 118.647 317.882 116.474C320.002 123.394 319.292 127.304 318.102 132.044L318.362 131.384C319.732 128.614 321.812 126.874 321.442 124.074Z" fill="black"/>
</g>
<path d="M311.651 356.534L308.661 401.384L289.161 401.154L286.091 354.524L311.651 356.534Z" fill="#FFBE9E"/>
<path d="M309.212 395.483V396.783C309.212 396.783 331.212 405.623 331.422 409.783L287.732 409.543L288.412 395.013C294.922 398.063 301.732 398.443 309.212 395.483Z" fill="#00D1C1"/>
<path d="M292.842 399.674C292.428 399.799 292.073 400.071 291.845 400.44C291.616 400.808 291.53 401.247 291.602 401.674C291.709 402.1 291.977 402.469 292.35 402.702C292.723 402.935 293.172 403.015 293.602 402.924C294.047 402.791 294.427 402.497 294.667 402.1C294.907 401.702 294.991 401.23 294.902 400.774C294.744 400.342 294.423 399.989 294.009 399.789C293.595 399.589 293.119 399.559 292.682 399.704" fill="#FCF5EB"/>
<path d="M287.732 409.543L287.892 406.053L329.732 407.573C329.732 407.573 331.672 408.433 331.442 409.793L287.732 409.543Z" fill="#383838"/>
<path d="M309.373 396.904C309.373 397.114 308.293 397.204 307.243 397.904C306.193 398.604 305.623 399.474 305.433 399.394C305.243 399.314 305.563 398.074 306.853 397.274C308.143 396.474 309.423 396.674 309.373 396.904Z" fill="#383838"/>
<path d="M313.942 398.824C313.992 399.034 313.062 399.384 312.332 400.284C311.602 401.184 311.392 402.134 311.172 402.124C310.952 402.114 310.832 400.904 311.762 399.814C312.692 398.724 313.932 398.674 313.942 398.824Z" fill="#383838"/>
<path d="M316.513 404.324C316.313 404.324 316.023 403.324 316.583 402.134C317.143 400.944 318.133 400.514 318.223 400.684C318.313 400.854 317.693 401.484 317.223 402.454C316.753 403.424 316.733 404.304 316.513 404.324Z" fill="#383838"/>
<path d="M308.092 28.5235C309.222 25.7235 307.852 22.3335 305.422 20.5235C302.861 18.8376 299.738 18.2303 296.732 18.8335C293.766 19.4553 290.895 20.4639 288.192 21.8335C286.935 20.5658 285.351 19.6725 283.616 19.2532C281.88 18.834 280.063 18.9053 278.366 19.4592C276.669 20.0131 275.159 21.0278 274.005 22.3901C272.852 23.7523 272.099 25.4084 271.832 27.1735C270.751 26.9013 269.616 26.9287 268.549 27.2527C267.482 27.5767 266.524 28.185 265.777 29.0125C265.029 29.8399 264.522 30.8552 264.308 31.9494C264.094 33.0437 264.182 34.1755 264.562 35.2235L278.082 39.9735L292.842 65.9735C295.024 67.8345 297.808 68.8384 300.675 68.7977C303.542 68.7571 306.296 67.6748 308.424 65.7527C310.552 63.8306 311.908 61.2 312.238 58.3517C312.569 55.5035 311.853 52.6322 310.222 50.2735C311.049 49.538 311.752 48.6735 312.302 47.7135C313.482 47.016 314.511 46.091 315.33 44.9923C316.149 43.8936 316.741 42.6431 317.072 41.3135C318.382 35.5235 313.902 29.2035 308.092 28.5235Z" fill="#383838"/>
<path d="M299.142 82.6735C298.302 78.4435 297.722 75.5435 297.732 75.5735C297.742 75.6035 305.732 72.4735 305.152 61.3435C304.872 55.8035 302.762 47.0735 300.802 39.9935C299.042 33.6135 293.092 26.5835 286.802 28.6135L267.732 37.9135C265.822 38.5335 265.492 40.3335 265.942 42.2835V43.2835L273.352 73.9435L276.482 87.6435C277.149 90.4566 278.846 92.918 281.237 94.543C283.628 96.168 286.541 96.8389 289.402 96.4235C290.965 96.2038 292.466 95.667 293.813 94.8461C295.161 94.0252 296.327 92.9376 297.239 91.65C298.151 90.3624 298.79 88.9019 299.118 87.3583C299.445 85.8147 299.453 84.2205 299.142 82.6735Z" fill="#FFBE9E"/>
<path d="M300.732 47.3934C300.812 47.7483 300.753 48.1204 300.567 48.4329C300.381 48.7455 300.082 48.9748 299.732 49.0734C299.555 49.1228 299.371 49.1359 299.189 49.1119C299.007 49.0879 298.832 49.0274 298.674 48.934C298.516 48.8406 298.379 48.7162 298.27 48.5683C298.162 48.4204 298.084 48.2521 298.042 48.0734C297.962 47.7199 298.022 47.3492 298.208 47.0382C298.394 46.7272 298.693 46.4999 299.042 46.4034C299.218 46.3525 299.403 46.3379 299.585 46.3606C299.766 46.3833 299.942 46.4427 300.1 46.5354C300.258 46.628 300.396 46.7518 300.504 46.8994C300.613 47.0469 300.691 47.215 300.732 47.3934Z" fill="#383838"/>
<path d="M299.862 45.2635C299.722 45.4835 298.512 44.9335 297.032 45.2635C295.552 45.5935 294.612 46.5535 294.412 46.4035C294.212 46.2535 294.412 45.9735 294.822 45.5335C295.372 44.9521 296.088 44.5541 296.872 44.3935C297.646 44.2267 298.453 44.3144 299.172 44.6435C299.732 44.8735 299.922 45.1735 299.862 45.2635Z" fill="#383838"/>
<path d="M286.213 50.6735C286.292 51.027 286.233 51.3978 286.047 51.7087C285.861 52.0197 285.562 52.247 285.213 52.3435C285.04 52.3938 284.859 52.4093 284.68 52.3892C284.501 52.369 284.329 52.3137 284.171 52.2262C284.014 52.1388 283.876 52.0211 283.765 51.8799C283.653 51.7386 283.571 51.5767 283.523 51.4035C283.442 51.0487 283.501 50.6766 283.687 50.364C283.873 50.0514 284.172 49.8221 284.523 49.7235C284.696 49.6734 284.877 49.6583 285.057 49.6791C285.236 49.6999 285.409 49.7561 285.567 49.8445C285.724 49.9329 285.862 50.0518 285.973 50.1941C286.084 50.3364 286.165 50.4994 286.213 50.6735Z" fill="#383838"/>
<path d="M285.483 48.7936C285.353 49.0136 284.133 48.4536 282.653 48.7936C281.173 49.1336 280.233 50.0736 280.033 49.9336C279.833 49.7936 280.033 49.5036 280.443 49.0536C280.995 48.4775 281.71 48.0833 282.493 47.9236C283.265 47.7594 284.07 47.8434 284.793 48.1636C285.323 48.4036 285.553 48.6736 285.483 48.7936Z" fill="#383838"/>
<path d="M293.012 58.1935C293.746 57.789 294.524 57.4735 295.332 57.2535C295.702 57.1335 296.052 56.9835 296.062 56.7135C296.01 56.3158 295.839 55.943 295.572 55.6435L293.842 52.9835C291.422 49.1935 289.582 46.0535 289.732 45.9835C289.882 45.9135 291.972 48.8835 294.392 52.6735L296.082 55.3535C296.414 55.7637 296.595 56.2759 296.592 56.8035C296.563 56.9474 296.501 57.0829 296.413 57.2004C296.325 57.3179 296.212 57.4146 296.082 57.4835C295.887 57.5871 295.678 57.6644 295.462 57.7135C294.671 57.9843 293.847 58.1458 293.012 58.1935Z" fill="#383838"/>
<path d="M297.732 75.5734C292.674 76.7165 287.398 76.4327 282.492 74.7534C282.492 74.7534 287.732 81.5934 298.302 78.3234L297.732 75.5734Z" fill="#E38D74"/>
<path d="M285.733 46.6737C285.633 47.1037 284.103 47.0937 282.363 47.5237C280.623 47.9537 279.243 48.6037 278.963 48.2637C278.843 48.1037 279.043 47.6837 279.573 47.2637C280.277 46.6704 281.114 46.2554 282.013 46.0537C282.904 45.8423 283.832 45.8423 284.723 46.0537C285.433 46.1837 285.803 46.4737 285.733 46.6737Z" fill="#383838"/>
<path d="M299.293 40.5436C299.053 40.9436 297.773 40.8436 296.293 41.1336C294.813 41.4236 293.643 41.9236 293.293 41.6336C293.133 41.4836 293.293 41.1036 293.723 40.6336C294.383 40.0783 295.181 39.712 296.033 39.5736C296.87 39.4049 297.738 39.4671 298.543 39.7536C299.153 40.0336 299.393 40.3436 299.293 40.5436Z" fill="#383838"/>
<path d="M272.442 30.7536C272.664 31.8369 273.121 32.8582 273.781 33.7449C274.442 34.6316 275.289 35.3619 276.264 35.8841C277.239 36.4062 278.316 36.7073 279.42 36.766C280.524 36.8247 281.628 36.6395 282.652 36.2236C284.232 35.5836 285.872 34.3836 287.472 34.9636C289.072 35.5436 289.732 37.8236 291.262 38.6736C293.512 39.9336 296.262 37.7536 298.772 37.9736C300.772 38.1436 302.282 39.6736 303.832 40.9736C305.382 42.2736 307.522 43.2536 309.272 42.3136C308.872 40.6436 308.278 39.0261 307.502 37.4936C306.72 35.9509 305.427 34.7278 303.842 34.0336C302.962 33.6836 302.012 33.5636 301.172 33.1336C299.362 32.2136 298.552 30.1336 297.242 28.5636C296.382 27.5743 295.298 26.8042 294.081 26.3172C292.864 25.8303 291.548 25.6405 290.242 25.7636C288.082 25.9836 286.032 27.0736 283.852 26.9836C282.242 26.9136 280.702 26.1936 279.092 26.2236C275.962 26.2236 273.612 29.0236 271.872 31.6336" fill="#383838"/>
<path d="M282.981 33.0436C281.541 32.9336 278.601 32.6336 277.631 31.6136C276.646 30.5114 275.388 29.6874 273.984 29.2241C272.58 28.7608 271.079 28.6744 269.631 28.9736C268.194 29.4019 266.933 30.2802 266.033 31.4792C265.133 32.6781 264.641 34.1344 264.631 35.6336C262.881 36.0606 261.279 36.9522 259.995 38.2142C258.71 39.4762 257.789 41.0618 257.331 42.8036C256.866 44.6269 256.85 46.536 257.285 48.3668C257.721 50.1975 258.594 51.8951 259.831 53.3136C260.432 54.0648 260.98 54.8567 261.471 55.6836C260.793 56.5248 260.197 57.4289 259.691 58.3836C257.401 63.4436 263.611 65.3836 263.611 65.3836C263.611 68.7836 266.761 68.7636 268.771 68.7536C270.781 68.7436 271.891 74.1136 273.461 73.9036L271.871 57.3336C272.104 57.4241 272.351 57.4716 272.601 57.4736C276.391 57.5436 275.401 50.3636 274.181 48.4736C275.31 47.0679 276.264 45.5299 277.021 43.8936C277.708 41.3921 277.756 38.7585 277.161 36.2336C278.431 36.0736 283.601 33.0836 282.981 33.0436Z" fill="#383838"/>
<path d="M272.372 58.2134C272.243 57.6869 271.983 57.2017 271.615 56.803C271.248 56.4043 270.786 56.1051 270.271 55.9334C269.757 55.7617 269.208 55.7229 268.675 55.8209C268.142 55.9188 267.642 56.1502 267.222 56.4934C266.222 57.3534 265.692 58.7934 266.292 61.2034C267.912 67.6434 274.042 64.6934 274.002 64.5134C273.962 64.3334 273.072 60.8734 272.372 58.2134Z" fill="#FFBE9E"/>
<path d="M271.422 62.5635C271.422 62.5635 271.332 62.6735 271.162 62.8035C270.926 62.9848 270.628 63.0672 270.332 63.0335C269.592 62.9535 268.742 62.0335 268.422 60.8635C268.27 60.3168 268.239 59.7433 268.332 59.1835C268.342 58.966 268.405 58.7542 268.515 58.5662C268.624 58.3781 268.778 58.2194 268.962 58.1035C269.084 58.038 269.224 58.0172 269.359 58.0446C269.494 58.072 269.616 58.1459 269.702 58.2535C269.832 58.4035 269.822 58.5435 269.862 58.5535C269.902 58.5635 269.972 58.4035 269.862 58.1535C269.785 58.0052 269.663 57.8859 269.512 57.8135C269.301 57.7279 269.064 57.7279 268.852 57.8135C268.601 57.9327 268.384 58.1135 268.221 58.3391C268.059 58.5646 267.956 58.8275 267.922 59.1035C267.792 59.7332 267.816 60.385 267.992 61.0035C268.104 61.5842 268.384 62.119 268.799 62.5406C269.214 62.9623 269.743 63.252 270.322 63.3735C270.51 63.3811 270.698 63.3465 270.871 63.272C271.044 63.1976 271.198 63.0854 271.322 62.9435C271.452 62.7235 271.452 62.5735 271.422 62.5635Z" fill="#E38D74"/>
<path d="M306.902 49.2235C306.902 49.2235 307.492 48.7735 308.312 47.7735C309.444 46.3327 310.138 44.5973 310.312 42.7735C310.445 41.5285 310.322 40.2696 309.952 39.0735C309.525 37.7015 308.734 36.4711 307.662 35.5135C306.425 34.4332 304.928 33.695 303.317 33.3723C301.707 33.0495 300.04 33.1534 298.482 33.6735C298.182 33.7735 297.902 33.9235 297.622 34.0435C297.342 34.1635 297.092 34.3435 296.832 34.4935L296.432 34.7135V34.2735C296.424 33.4989 296.136 32.7533 295.622 32.1735C295.096 31.6109 294.45 31.1735 293.732 30.8935C292.374 30.3275 290.87 30.2153 289.442 30.5735C286.682 31.2035 284.342 32.4635 282.132 32.7235C280.399 33.0247 278.616 32.6681 277.132 31.7235C276.741 31.4541 276.402 31.1152 276.132 30.7235C275.972 30.4535 275.892 30.3035 275.912 30.2935C276.275 30.7873 276.718 31.2167 277.222 31.5635C278.682 32.4063 280.397 32.6939 282.052 32.3735C283.204 32.1569 284.33 31.8218 285.412 31.3735C286.683 30.8655 287.986 30.4413 289.312 30.1035C290.052 29.9246 290.812 29.8473 291.572 29.8735C292.375 29.9159 293.163 30.0987 293.902 30.4135C294.667 30.7402 295.35 31.232 295.902 31.8535C296.494 32.5305 296.827 33.3948 296.842 34.2935L296.442 34.0735L297.272 33.5935C297.582 33.4735 297.872 33.3135 298.192 33.2035C299.834 32.6413 301.596 32.5236 303.298 32.8626C305 33.2016 306.581 33.9851 307.882 35.1335C309.007 36.1517 309.83 37.4593 310.262 38.9135C310.711 40.4548 310.772 42.0832 310.438 43.6536C310.105 45.2239 309.389 46.6874 308.352 47.9135C308.023 48.2894 307.651 48.625 307.242 48.9135C307.142 49.0303 307.028 49.1344 306.902 49.2235Z" fill="#007A87"/>
<path d="M305.602 26.6134C304.946 26.2802 304.245 26.0411 303.522 25.9034C302.695 25.7904 301.854 25.8691 301.062 26.1334C300.037 26.447 299.146 27.0948 298.532 27.9734L298.282 28.3234L298.132 27.9234C297.61 26.6942 296.77 25.6264 295.697 24.8301C294.625 24.0338 293.36 23.5379 292.032 23.3934C289.947 23.315 287.892 23.9112 286.172 25.0934C284.707 26.0484 283.149 26.8525 281.522 27.4934C280.4 27.9177 279.192 28.0619 278.002 27.9134C277.685 27.8549 277.374 27.7679 277.072 27.6534C276.872 27.5634 276.762 27.5134 276.772 27.4934C276.782 27.4734 277.222 27.6234 278.032 27.7034C279.183 27.7753 280.334 27.5873 281.402 27.1534C282.983 26.464 284.499 25.634 285.932 24.6734C286.817 24.1239 287.755 23.6649 288.732 23.3034C289.806 22.9118 290.954 22.7649 292.092 22.8734C293.51 23.0283 294.86 23.5648 295.998 24.4259C297.135 25.287 298.018 26.4404 298.552 27.7634H298.162C298.85 26.8237 299.832 26.1408 300.952 25.8234C301.803 25.5766 302.701 25.5321 303.572 25.6934C304.124 25.7982 304.652 26.0015 305.132 26.2934C305.303 26.3772 305.462 26.4849 305.602 26.6134Z" fill="#007A87"/>
<path d="M292.432 61.1534C292.199 60.9581 291.926 60.8144 291.633 60.7317C291.341 60.6489 291.033 60.6291 290.732 60.6734C290.38 60.7486 290.048 60.8969 289.756 61.1088C289.465 61.3207 289.222 61.5914 289.042 61.9034C289.042 61.9034 288.992 61.9534 288.982 61.9834C288.844 62.2118 288.782 62.4775 288.802 62.7434C288.846 63.0331 288.96 63.3076 289.134 63.543C289.308 63.7784 289.538 63.9674 289.802 64.0934C290.225 64.3077 290.703 64.3862 291.172 64.3181C291.641 64.2501 292.078 64.0389 292.422 63.7134C292.749 63.368 292.932 62.9109 292.934 62.4354C292.936 61.9598 292.756 61.5014 292.432 61.1534Z" fill="#FF5A5F"/>
<path d="M292.932 64.2634C292.852 64.2634 292.762 63.9634 292.492 63.5534C292.167 63.0038 291.681 62.5671 291.1 62.3025C290.519 62.0378 289.87 61.9579 289.242 62.0734C288.752 62.1434 288.452 62.2834 288.422 62.2134C288.392 62.1434 288.622 61.9034 289.162 61.7134C289.869 61.486 290.635 61.5287 291.312 61.8334C291.995 62.1376 292.536 62.6924 292.822 63.3834C293.032 63.9034 293.002 64.2534 292.932 64.2634Z" fill="#383838"/>
<path d="M272.522 65.5034C272.522 65.5034 272.812 66.0034 272.432 66.7634C272.217 67.2182 271.839 67.5752 271.372 67.7634C271.081 67.8676 270.77 67.9029 270.463 67.8665C270.155 67.8301 269.861 67.7229 269.602 67.5534C269.339 67.3934 269.116 67.1748 268.952 66.9146C268.787 66.6544 268.684 66.3597 268.652 66.0534C268.622 65.5595 268.767 65.0707 269.062 64.6734C269.582 64.0134 270.162 63.9934 270.162 64.0534C270.162 64.1134 269.722 64.2834 269.372 64.8834C269.17 65.2195 269.085 65.6138 269.132 66.0034C269.17 66.2316 269.256 66.4491 269.385 66.6407C269.515 66.8323 269.684 66.9936 269.882 67.1134C270.077 67.2383 270.297 67.3206 270.526 67.3551C270.755 67.3895 270.989 67.3753 271.212 67.3134C271.581 67.1813 271.9 66.9364 272.122 66.6134C272.512 65.9934 272.442 65.5034 272.522 65.5034Z" fill="#FF5A5F"/>
<path d="M269.151 65.1136C269.201 65.1136 269.151 65.4536 268.681 65.6736C268.45 65.7695 268.197 65.7974 267.95 65.7539C267.704 65.7103 267.476 65.5972 267.291 65.4279C267.107 65.2586 266.976 65.0402 266.912 64.7984C266.848 64.5567 266.855 64.3017 266.931 64.0636C267.029 63.7932 267.216 63.564 267.461 63.4136C267.871 63.1636 268.181 63.2636 268.171 63.3236C268.161 63.3836 267.931 63.4536 267.681 63.7036C267.558 63.8573 267.483 64.0439 267.466 64.2399C267.448 64.436 267.489 64.6329 267.583 64.8059C267.677 64.9789 267.82 65.1203 267.994 65.2124C268.168 65.3045 268.365 65.3432 268.561 65.3236C268.901 65.2536 269.081 65.0736 269.151 65.1136Z" fill="#FF5A5F"/>
<path d="M280.142 153.924C280.142 153.924 304.902 155.364 319.542 155.494C330.872 155.604 335.932 152.594 338.192 145.304C340.092 139.194 336.012 127.464 336.012 127.464C328.342 127.464 323.612 128.564 318.682 130.874L319.992 136.234L280.072 139.674L280.142 153.924Z" fill="#FFBE9E"/>
<path d="M328.311 141.954C327.237 140.557 325.983 139.31 324.581 138.244C323.077 137.323 321.456 136.61 319.761 136.124C320.295 136.047 320.839 136.095 321.351 136.264C322.609 136.561 323.802 137.086 324.871 137.814C325.942 138.543 326.867 139.466 327.601 140.534C328.161 141.354 328.371 141.924 328.311 141.954Z" fill="#E38D74"/>
<path d="M271.082 130.834C271.082 130.834 263.422 132.674 257.792 136.434L263.792 152.694C265.792 158.034 271.902 160.694 276.792 157.894C284.322 153.584 286.982 141.024 286.982 141.024L295.252 105.144L281.542 96.5536L271.132 130.834" fill="#FFBE9E"/>
<path d="M281.492 96.5535L282.052 84.7535L278.982 72.7535C278.812 72.0935 278.732 71.2635 279.272 70.8635C279.54 70.6582 279.87 70.552 280.208 70.5629C280.545 70.5738 280.868 70.7013 281.122 70.9235C281.952 71.7835 285.952 82.2735 285.952 82.2735C285.952 82.2735 292.022 78.6335 293.102 78.4535C294.182 78.2735 295.532 81.5435 295.622 81.7935C295.662 82.5263 295.662 83.2607 295.622 83.9935C295.622 83.9935 299.372 84.1035 299.712 84.6135C299.985 85.6554 300.129 86.7267 300.142 87.8035C300.142 87.8035 301.732 88.3135 301.982 89.5135C302.232 90.7135 302.752 92.6935 301.982 93.1335C301.212 93.5735 299.652 94.4335 299.652 94.4335C299.652 94.4335 299.022 100.554 298.852 101.114C298.682 101.674 295.172 105.114 295.172 105.114L281.492 96.5535Z" fill="#FFBE9E"/>
<path d="M268.732 158.134C268.732 158.134 269.102 158.353 269.882 158.603C271.023 158.961 272.229 159.057 273.412 158.884C275.312 158.612 277.092 157.792 278.532 156.524C280.436 154.797 282.044 152.77 283.292 150.524C284.027 149.203 284.646 147.821 285.142 146.394C285.662 144.822 286.093 143.223 286.432 141.603C287.212 138.233 288.062 134.604 288.962 130.744C290.762 123.034 292.782 114.413 294.962 105.123V105.054H295.012C295.702 104.374 296.392 103.683 297.082 102.963C297.422 102.603 297.762 102.243 298.082 101.873C298.242 101.683 298.412 101.494 298.542 101.304C298.643 101.115 298.701 100.907 298.712 100.694C298.982 98.6935 299.192 96.6235 299.412 94.5335V94.4035L299.532 94.3435L301.442 93.2735C301.582 93.1835 301.802 93.0835 301.892 93.0035C301.988 92.917 302.051 92.8007 302.072 92.6735C302.119 92.3418 302.119 92.0052 302.072 91.6735C301.975 90.9402 301.825 90.2149 301.622 89.5035C301.282 88.8814 300.711 88.4181 300.032 88.2135L299.862 88.1535V87.9835C299.862 87.4035 299.802 86.8035 299.732 86.2135C299.705 85.918 299.662 85.6242 299.602 85.3335C299.579 85.2054 299.539 85.0809 299.482 84.9635C299.482 84.8935 299.482 84.9635 299.422 84.9035C299.368 84.875 299.311 84.8516 299.252 84.8335C298.049 84.5714 296.823 84.434 295.592 84.4235H295.332V84.1635C295.332 83.5435 295.332 82.8535 295.332 82.1635C295.291 81.9281 295.21 81.7016 295.092 81.4935C294.992 81.2535 294.872 81.0235 294.752 80.7835C294.518 80.3203 294.244 79.8786 293.932 79.4635C293.791 79.27 293.618 79.1011 293.422 78.9635C293.35 78.9022 293.261 78.8638 293.166 78.8531C293.072 78.8424 292.977 78.86 292.892 78.9035C292.408 79.0888 291.937 79.306 291.482 79.5535C289.622 80.5535 287.802 81.5535 286.022 82.6335L285.762 82.7935L285.652 82.5135C284.712 80.1435 283.772 77.8035 282.852 75.5135C282.392 74.3635 281.942 73.2135 281.482 72.0835C281.411 71.8303 281.27 71.6023 281.076 71.4254C280.881 71.2486 280.641 71.1301 280.382 71.0835C280.143 71.0042 279.884 71.0085 279.648 71.0957C279.412 71.1829 279.212 71.3479 279.082 71.5635C278.958 71.778 278.905 72.0269 278.932 72.2735C278.932 72.4935 279.072 72.8335 279.132 73.1035C279.292 73.6835 279.442 74.2535 279.592 74.8235C279.892 75.9735 280.182 77.1035 280.482 78.2235C281.069 80.4768 281.646 82.6768 282.212 84.8235V84.8935C282.012 89.0002 281.822 92.9335 281.642 96.6935V96.6735L272.532 126.313L269.962 134.563C269.662 135.493 269.432 136.223 269.272 136.733C269.112 137.243 269.012 137.463 269.012 137.463C269.012 137.463 269.062 137.203 269.202 136.713L269.832 134.524C270.412 132.594 271.242 129.804 272.292 126.244C274.452 119.084 277.522 108.863 281.232 96.5435V96.5935C281.406 92.8468 281.582 88.9135 281.762 84.7935V84.8635C281.192 82.7135 280.602 80.5135 280.012 78.2735L279.112 74.8735C278.962 74.3035 278.812 73.7235 278.652 73.1535C278.566 72.8541 278.496 72.5503 278.442 72.2435C278.405 71.8964 278.479 71.5465 278.652 71.2435C278.837 70.9316 279.123 70.6918 279.462 70.5635C279.798 70.4653 280.153 70.4541 280.494 70.5311C280.835 70.6081 281.151 70.7707 281.412 71.0035C281.663 71.2389 281.849 71.5351 281.952 71.8635L283.322 75.2935C284.252 77.5935 285.182 79.9335 286.132 82.2935L285.762 82.1635C287.552 81.1035 289.352 80.0435 291.252 79.0535C291.732 78.8025 292.227 78.5788 292.732 78.3835C292.89 78.3178 293.062 78.2937 293.232 78.3135C293.403 78.3382 293.567 78.3996 293.712 78.4935C293.953 78.6663 294.166 78.8754 294.342 79.1135C294.677 79.5511 294.968 80.0199 295.212 80.5135C295.342 80.7635 295.462 81.0035 295.572 81.2535C295.715 81.5183 295.809 81.806 295.852 82.1035C295.852 82.8135 295.852 83.4735 295.852 84.1035L295.602 83.8335C296.888 83.8421 298.168 83.9896 299.422 84.2735C299.508 84.3036 299.592 84.3403 299.672 84.3835C299.782 84.4433 299.872 84.5336 299.932 84.6435C300.01 84.8058 300.067 84.9771 300.102 85.1535C300.162 85.4735 300.202 85.7735 300.242 86.0835C300.302 86.6935 300.342 87.2935 300.372 87.8935L300.192 87.6535C300.601 87.7735 300.981 87.9754 301.31 88.247C301.638 88.5187 301.908 88.8543 302.102 89.2335C302.321 89.9934 302.482 90.769 302.582 91.5535C302.652 91.9538 302.652 92.3631 302.582 92.7635C302.539 93.006 302.411 93.2255 302.222 93.3835C302.058 93.4933 301.888 93.5935 301.712 93.6835L299.812 94.6735L299.942 94.4835C299.712 96.5735 299.502 98.6235 299.222 100.653L299.162 101.043C299.139 101.201 299.073 101.35 298.972 101.474C298.825 101.692 298.661 101.9 298.482 102.093C298.142 102.473 297.802 102.843 297.482 103.203C296.792 103.923 296.102 104.613 295.402 105.293L295.472 105.173C293.272 114.453 291.232 123.073 289.402 130.783C288.492 134.633 287.622 138.263 286.822 141.623C286.48 143.255 286.039 144.865 285.502 146.444C284.988 147.885 284.352 149.28 283.602 150.614C282.325 152.889 280.679 154.936 278.732 156.674C277.249 157.95 275.423 158.764 273.482 159.013C272.274 159.176 271.044 159.052 269.892 158.653C269.599 158.546 269.315 158.415 269.042 158.263L268.732 158.134Z" fill="#E38D74"/>
<path d="M295.632 84.0234C295.632 84.0934 295.292 84.1334 294.762 84.1534C294.089 84.1663 293.419 84.2467 292.762 84.3934C292.128 84.5493 291.543 84.8622 291.062 85.3034C290.702 85.6434 290.542 85.9334 290.462 85.9034C290.382 85.8734 290.462 85.5134 290.792 85.0534C291.258 84.4711 291.906 84.0625 292.632 83.8934C293.332 83.7209 294.059 83.687 294.772 83.7934C295.312 83.8634 295.632 83.9534 295.632 84.0234Z" fill="#EB996E"/>
<path d="M292.732 84.1335C292.602 84.0835 292.592 83.7735 292.732 83.4435C292.872 83.1135 293.072 82.8835 293.202 82.9335C293.332 82.9835 293.352 83.2935 293.202 83.6235C293.052 83.9535 292.832 84.1835 292.732 84.1335Z" fill="#EB996E"/>
<path d="M300.313 87.7635C299.342 88.0638 298.328 88.2024 297.313 88.1735C296.993 88.1628 296.675 88.229 296.387 88.3665C296.098 88.5039 295.846 88.7087 295.653 88.9635C295.393 89.3735 295.483 89.7135 295.403 89.7335C295.323 89.7535 295.083 89.4035 295.333 88.8035C295.47 88.4657 295.721 88.1864 296.043 88.0135C296.413 87.8104 296.822 87.6877 297.243 87.6535C298.264 87.4972 299.305 87.5345 300.313 87.7635Z" fill="#EB996E"/>
<path d="M299.652 91.3635C299.792 91.3635 299.872 92.1035 299.832 93.0135C299.792 93.9235 299.642 94.6435 299.502 94.6435C299.362 94.6435 299.272 93.8935 299.312 92.9835C299.352 92.0735 299.502 91.3535 299.652 91.3635Z" fill="#EB996E"/>
<path d="M303.802 118.294L304.692 115.234C304.733 115.094 304.809 114.966 304.914 114.865C305.019 114.763 305.148 114.691 305.289 114.655C305.431 114.618 305.579 114.619 305.72 114.658C305.86 114.696 305.989 114.771 306.092 114.874L307.262 116.064L307.982 113.174C308.024 113.007 308.117 112.857 308.247 112.744C308.378 112.632 308.54 112.562 308.711 112.544C308.882 112.527 309.055 112.563 309.205 112.647C309.356 112.73 309.477 112.859 309.552 113.014L311.182 116.434L303.802 118.294Z" fill="#FCF5EB"/>
<path d="M311.201 117.744C310.082 118.284 308.895 118.668 307.671 118.884C306.488 119.27 305.255 119.486 304.011 119.524C306.313 118.599 308.733 118 311.201 117.744Z" fill="#FCF5EB"/>
<path d="M251.732 100.673C251.732 100.673 251.362 101.053 250.842 101.863C250.144 103.017 249.685 104.299 249.492 105.633C249.207 107.62 249.147 109.633 249.312 111.633C249.422 113.903 249.602 116.383 249.882 118.983C250.356 123.424 251.06 127.836 251.992 132.203C252.342 133.883 252.662 135.203 252.882 136.203C252.982 136.623 253.072 136.973 253.142 137.273C253.212 137.573 253.222 137.653 253.222 137.653C253.222 137.653 253.172 137.533 253.102 137.293C253.032 137.053 252.922 136.633 252.812 136.223C252.562 135.293 252.222 133.953 251.812 132.273C250.84 127.908 250.116 123.491 249.642 119.043C249.362 116.443 249.192 113.953 249.092 111.683C248.941 109.682 249.014 107.669 249.312 105.683C249.527 104.332 250.017 103.038 250.752 101.883C251.023 101.438 251.353 101.031 251.732 100.673Z" fill="#FCF5EB"/>
<path d="M272.782 87.0535L272.552 87.1735L271.892 87.4935C271.322 87.7635 270.492 88.1635 269.502 88.7135C266.921 90.1528 264.415 91.7215 261.992 93.4135C259.132 95.4135 256.602 97.2335 254.752 98.5535L252.562 100.103L251.952 100.514C251.884 100.568 251.81 100.615 251.732 100.654C251.789 100.586 251.857 100.529 251.932 100.484L252.512 100.044L254.662 98.4335C256.492 97.0835 259.012 95.2035 261.872 93.2435C264.299 91.5443 266.824 89.9883 269.432 88.5835C270.432 88.0535 271.272 87.6735 271.862 87.4235L272.532 87.1435C272.732 87.0735 272.732 87.0435 272.782 87.0535Z" fill="#FCF5EB"/>
<path d="M320.471 93.5635C320.408 93.5287 320.351 93.4849 320.301 93.4335L319.851 93.0435C319.294 92.573 318.71 92.1356 318.101 91.7335C316.071 90.4391 313.917 89.3504 311.671 88.4835C309.432 87.5965 307.145 86.8354 304.821 86.2035C303.921 85.9535 303.201 85.7735 302.691 85.6535L302.121 85.5035C302.052 85.4891 301.984 85.4656 301.921 85.4335H302.131L302.711 85.5435C303.221 85.6435 303.951 85.8035 304.851 86.0335C307.197 86.6257 309.502 87.3707 311.751 88.2635C314.01 89.1302 316.167 90.2436 318.181 91.5835C319.02 92.1512 319.788 92.8158 320.471 93.5635Z" fill="#FCF5EB"/>
<path d="M273.061 169.894C272.925 169.87 272.794 169.826 272.671 169.764C272.324 169.611 271.989 169.43 271.671 169.224C271.132 168.901 270.662 168.475 270.288 167.97C269.914 167.466 269.643 166.893 269.491 166.284C269.216 165.054 269.353 163.768 269.881 162.624C270.033 162.268 270.228 161.932 270.461 161.624C270.621 161.414 270.731 161.314 270.741 161.324C270.468 161.75 270.224 162.194 270.011 162.654C269.546 163.777 269.438 165.016 269.701 166.204C269.987 167.376 270.7 168.399 271.701 169.074C272.531 169.674 273.081 169.854 273.061 169.894Z" fill="#FCF5EB"/>
<path d="M269.882 159.064C270.095 159.461 270.253 159.884 270.352 160.324C270.509 160.744 270.603 161.186 270.632 161.634C270.405 161.246 270.243 160.824 270.152 160.384C269.988 159.962 269.897 159.516 269.882 159.064Z" fill="#FCF5EB"/>
<path d="M283.401 383.274L313.901 383.124L313.351 277.674L313.061 170.404L271.731 169.874L264.301 183.874C261.261 189.502 259.323 195.659 258.591 202.014C258.091 206.874 261.731 222.674 262.991 226.674L274.361 262.734L283.401 383.274Z" fill="#383838"/>
<path d="M322.011 170.534L355.531 261.904C357.517 267.791 358.176 274.044 357.462 280.216C356.748 286.388 354.678 292.326 351.401 297.604L312.481 373.604L290.601 346.224L323.161 278.224L294.461 231.674L299.291 170.674L312.811 170.454L322.011 170.534Z" fill="#383838"/>
<path d="M310.282 201.144C310.282 201.144 310.282 201.304 310.282 201.614C310.282 201.924 310.333 202.404 310.373 202.994C310.443 204.224 310.533 205.994 310.653 208.284C310.883 212.914 311.203 219.564 311.653 227.774C312.103 235.984 312.482 245.774 312.982 256.674C313.222 262.114 313.483 267.824 313.743 273.744C313.933 276.744 313.852 279.744 313.882 282.744C313.912 285.744 313.882 288.904 313.882 292.044C313.882 317.174 313.963 339.924 313.993 356.414C313.993 364.634 313.993 371.294 313.993 375.924C313.993 378.214 313.993 379.994 313.993 381.234C313.993 381.814 313.993 382.234 313.993 382.614C313.993 382.994 313.993 383.084 313.993 383.084C313.993 383.084 313.993 382.924 313.993 382.614V381.234C313.993 379.994 313.993 378.234 313.933 375.924C313.933 371.294 313.852 364.644 313.792 356.424C313.722 339.934 313.632 317.184 313.532 292.054C313.532 288.914 313.532 285.814 313.532 282.754C313.532 279.694 313.593 276.674 313.403 273.754C313.153 267.844 312.903 262.134 312.673 256.694C312.213 245.814 311.792 236.024 311.452 227.784C311.112 219.544 310.863 212.924 310.673 208.294C310.593 206.014 310.533 204.234 310.493 202.994C310.493 202.404 310.493 201.994 310.493 201.614C310.493 201.234 310.282 201.144 310.282 201.144Z" fill="#007A87"/>
<path d="M309.511 172.334C309.628 172.655 309.699 172.992 309.721 173.334C309.831 173.974 309.951 174.904 310.091 176.064C310.351 178.374 310.631 181.584 310.791 185.134C310.951 188.684 310.961 191.904 310.911 194.234C310.911 195.394 310.841 196.344 310.791 196.994C310.801 197.331 310.761 197.668 310.671 197.994C310.545 196.745 310.502 195.488 310.541 194.234C310.541 191.904 310.431 188.704 310.271 185.154C310.111 181.604 309.891 178.414 309.721 176.154C309.579 174.885 309.509 173.61 309.511 172.334Z" fill="#007A87"/>
<path d="M302.792 174.393C302.842 174.463 302.272 174.723 302.112 175.533C302.067 175.753 302.08 175.981 302.148 176.194C302.216 176.408 302.338 176.6 302.502 176.753C302.7 176.937 302.947 177.061 303.213 177.109C303.478 177.156 303.753 177.127 304.002 177.023C304.242 176.9 304.442 176.712 304.58 176.48C304.718 176.249 304.788 175.983 304.782 175.713C304.773 175.49 304.707 175.272 304.589 175.081C304.472 174.89 304.308 174.733 304.112 174.623C303.705 174.426 303.252 174.347 302.802 174.393C302.802 174.393 302.902 174.263 303.162 174.183C303.537 174.092 303.932 174.131 304.282 174.293C304.561 174.41 304.803 174.601 304.979 174.847C305.156 175.092 305.261 175.382 305.282 175.683C305.322 176.056 305.244 176.431 305.059 176.757C304.874 177.082 304.592 177.342 304.252 177.499C303.912 177.655 303.531 177.701 303.163 177.631C302.796 177.56 302.46 177.375 302.202 177.103C301.99 176.892 301.839 176.627 301.767 176.336C301.694 176.045 301.703 175.74 301.792 175.453C301.893 175.079 302.119 174.751 302.432 174.523C302.632 174.383 302.782 174.363 302.792 174.393Z" fill="#007A87"/>
<path d="M286.792 172.583C286.939 172.899 287.031 173.237 287.062 173.583C287.223 174.481 287.253 175.397 287.152 176.303C287.008 177.653 286.619 178.965 286.002 180.173C285.257 181.677 284.155 182.975 282.792 183.953C281.428 184.932 279.845 185.56 278.182 185.783C276.851 185.982 275.495 185.931 274.182 185.633C273.294 185.441 272.439 185.121 271.642 184.683C271.341 184.541 271.064 184.352 270.822 184.123C271.928 184.621 273.08 185.006 274.262 185.273C275.684 185.569 277.153 185.567 278.574 185.267C279.995 184.966 281.339 184.375 282.52 183.529C283.701 182.683 284.694 181.602 285.436 180.353C286.179 179.104 286.654 177.715 286.832 176.273C286.95 175.046 286.936 173.809 286.792 172.583Z" fill="#007A87"/>
<path d="M326.032 181.343C325.38 181.419 324.719 181.34 324.102 181.113C322.591 180.638 321.235 179.768 320.172 178.593C319.1 177.424 318.364 175.987 318.042 174.433C317.885 173.8 317.885 173.137 318.042 172.503C318.132 172.503 318.142 173.233 318.442 174.353C318.847 175.801 319.584 177.133 320.595 178.246C321.605 179.359 322.861 180.221 324.262 180.763C325.302 181.173 326.042 181.243 326.032 181.343Z" fill="#007A87"/>
<path d="M337.942 279.844C337.441 280.415 336.841 280.893 336.172 281.254C335.47 281.699 334.705 282.036 333.902 282.254C332.892 282.521 331.827 282.493 330.832 282.174C329.085 281.515 327.589 280.326 326.552 278.774C326.076 278.19 325.682 277.544 325.382 276.854C325.922 277.369 326.411 277.935 326.842 278.544C327.904 279.952 329.338 281.036 330.982 281.674C331.821 281.898 332.698 281.949 333.557 281.823C334.417 281.697 335.242 281.398 335.982 280.944C336.614 280.54 337.268 280.173 337.942 279.844Z" fill="#007A87"/>
<path d="M330.302 285.673C329.12 284.449 328.065 283.109 327.152 281.673C326.101 280.336 325.183 278.9 324.412 277.383C325.602 278.603 326.661 279.944 327.572 281.383C328.632 282.712 329.547 284.15 330.302 285.673Z" fill="#007A87"/>
<path d="M279.062 204.673C278.922 204.723 278.572 204.153 278.262 203.383C277.952 202.613 277.822 201.963 277.952 201.903C278.082 201.843 278.442 202.423 278.742 203.193C279.042 203.963 279.192 204.673 279.062 204.673Z" fill="#FCF5EB"/>
<path d="M298.422 207.453C298.272 207.453 298.162 206.963 298.162 206.353C298.162 205.743 298.272 205.243 298.422 205.243C298.572 205.243 298.682 205.743 298.682 206.353C298.682 206.963 298.562 207.453 298.422 207.453Z" fill="#FCF5EB"/>
<path d="M290.462 217.973C290.322 217.973 290.162 217.373 290.112 216.603C290.062 215.833 290.112 215.213 290.272 215.203C290.432 215.193 290.582 215.803 290.632 216.573C290.682 217.343 290.602 217.963 290.462 217.973Z" fill="#FCF5EB"/>
<path d="M275.921 225.674C275.801 225.764 275.391 225.394 274.851 225.014C274.311 224.634 273.851 224.344 273.851 224.204C273.851 224.064 274.511 224.144 275.121 224.584C275.731 225.024 276.041 225.674 275.921 225.674Z" fill="#FCF5EB"/>
<path d="M301.552 235.483C301.432 235.403 301.552 234.973 301.892 234.483C302.232 233.993 302.542 233.713 302.662 233.793C302.782 233.873 302.662 234.313 302.322 234.793C301.982 235.273 301.672 235.563 301.552 235.483Z" fill="#FCF5EB"/>
<path d="M285.732 238.253C285.592 238.253 285.472 237.423 285.472 236.413C285.472 235.403 285.592 234.563 285.732 234.563C285.872 234.563 285.992 235.393 285.992 236.413C285.992 237.433 285.842 238.253 285.732 238.253Z" fill="#FCF5EB"/>
<path d="M280.552 249.473C280.472 249.583 279.952 249.353 279.392 248.943C278.832 248.533 278.392 248.113 278.522 247.993C278.652 247.873 279.132 248.113 279.692 248.523C280.252 248.933 280.642 249.353 280.552 249.473Z" fill="#FCF5EB"/>
<path d="M296.573 253.374C296.633 253.504 296.313 253.774 295.853 253.984C295.393 254.194 294.973 254.244 294.913 254.114C294.853 253.984 295.183 253.714 295.643 253.504C296.103 253.294 296.523 253.244 296.573 253.374Z" fill="#FCF5EB"/>
<path d="M285.732 271.674C285.612 271.734 285.092 270.964 284.582 269.944C284.072 268.924 283.762 268.044 283.892 267.944C284.022 267.844 284.542 268.654 285.042 269.674C285.542 270.694 285.822 271.564 285.732 271.674Z" fill="#FCF5EB"/>
<path d="M303.401 269.974C303.271 269.904 303.501 269.234 303.901 268.464C304.301 267.694 304.751 267.134 304.901 267.204C305.051 267.274 304.801 267.944 304.391 268.714C303.981 269.484 303.521 270.044 303.401 269.974Z" fill="#FCF5EB"/>
<path d="M295.652 285.464C295.502 285.464 295.522 284.654 295.362 283.714C295.202 282.774 294.962 282.024 295.102 281.954C295.242 281.884 295.722 282.594 295.882 283.634C296.042 284.674 295.792 285.494 295.652 285.464Z" fill="#FCF5EB"/>
<path d="M287.353 294.314C287.253 294.414 286.753 294.034 286.243 293.474C285.733 292.914 285.403 292.384 285.513 292.284C285.623 292.184 286.113 292.564 286.623 293.124C287.133 293.684 287.463 294.214 287.353 294.314Z" fill="#FCF5EB"/>
<path d="M307.492 297.674C307.392 297.574 307.762 297.034 308.322 296.464C308.882 295.894 309.402 295.524 309.512 295.624C309.622 295.724 309.242 296.274 308.692 296.834C308.142 297.394 307.602 297.774 307.492 297.674Z" fill="#FCF5EB"/>
<path d="M295.911 310.924C295.771 310.924 295.771 310.134 295.911 309.214C296.051 308.294 296.271 307.574 296.421 307.594C296.571 307.614 296.561 308.374 296.421 309.294C296.281 310.214 296.051 310.944 295.911 310.924Z" fill="#FCF5EB"/>
<path d="M288.122 317.353C287.992 317.423 287.552 316.903 287.122 316.193C286.692 315.483 286.472 314.853 286.592 314.783C286.712 314.713 287.152 315.223 287.592 315.933C288.032 316.643 288.242 317.273 288.122 317.353Z" fill="#FCF5EB"/>
<path d="M306.892 325.464C306.982 325.584 306.472 326.094 305.752 326.604C305.032 327.114 304.402 327.434 304.312 327.314C304.222 327.194 304.742 326.684 305.452 326.174C306.162 325.664 306.812 325.354 306.892 325.464Z" fill="#FCF5EB"/>
<path d="M291.251 335.994C291.111 335.944 291.251 335.144 291.381 334.144C291.511 333.144 291.431 332.324 291.581 332.304C291.731 332.284 291.991 333.124 291.891 334.194C291.791 335.264 291.381 336.054 291.251 335.994Z" fill="#FCF5EB"/>
<path d="M297.503 351.114C297.383 351.204 296.963 350.864 296.553 350.354C296.143 349.844 295.913 349.354 296.023 349.264C296.133 349.174 296.553 349.514 296.963 350.024C297.373 350.534 297.613 351.024 297.503 351.114Z" fill="#FCF5EB"/>
<path d="M290.673 361.254C290.553 361.334 290.002 360.744 289.442 359.924C288.882 359.104 288.533 358.384 288.643 358.304C288.753 358.224 289.313 358.814 289.873 359.634C290.433 360.454 290.793 361.174 290.673 361.254Z" fill="#FCF5EB"/>
<path d="M309.482 348.523C309.352 348.473 309.362 348.103 309.482 347.703C309.602 347.303 309.872 347.003 310.012 347.053C310.152 347.103 310.132 347.473 310.012 347.883C309.892 348.293 309.622 348.583 309.482 348.523Z" fill="#FCF5EB"/>
<path d="M301.182 372.673C301.052 372.603 301.302 371.893 301.502 371.003C301.702 370.113 301.772 369.363 301.922 369.353C302.072 369.343 302.222 370.153 302.012 371.113C301.802 372.073 301.302 372.753 301.182 372.673Z" fill="#FCF5EB"/>
<path d="M306.582 218.133C306.452 218.193 306.132 217.793 305.872 217.233C305.612 216.673 305.502 216.173 305.632 216.113C305.762 216.053 306.082 216.453 306.342 217.013C306.602 217.573 306.732 218.073 306.582 218.133Z" fill="#FCF5EB"/>
<path d="M292.732 186.993C292.812 187.113 292.112 187.673 291.362 188.473C290.612 189.273 290.102 190.013 289.972 189.943C289.842 189.873 290.182 188.943 290.972 188.123C291.762 187.303 292.632 186.863 292.732 186.993Z" fill="#FCF5EB"/>
<path d="M305.062 186.673C304.912 186.673 304.682 186.103 304.332 185.423C303.982 184.743 303.662 184.183 303.772 184.083C303.882 183.983 304.422 184.423 304.772 185.183C305.122 185.943 305.192 186.593 305.062 186.673Z" fill="#FCF5EB"/>
<path d="M266.561 196.784C266.431 196.724 266.561 196.064 266.871 195.304C267.181 194.544 267.521 193.954 267.661 194.014C267.801 194.074 267.661 194.724 267.351 195.494C267.041 196.264 266.731 196.834 266.561 196.784Z" fill="#FCF5EB"/>
<path d="M267.812 211.883C267.712 211.993 267.142 211.673 266.532 211.163C265.922 210.653 265.532 210.163 265.592 210.043C265.652 209.923 266.262 210.253 266.872 210.763C267.482 211.273 267.902 211.773 267.812 211.883Z" fill="#FCF5EB"/>
<path d="M293.072 175.003C292.942 175.003 292.662 174.683 292.462 174.173C292.262 173.663 292.202 173.173 292.332 173.173C292.462 173.173 292.742 173.493 292.942 174.003C293.142 174.513 293.202 174.953 293.072 175.003Z" fill="#FCF5EB"/>
<path d="M317.263 182.384C317.123 182.384 317.133 181.754 317.263 181.044C317.393 180.334 317.653 179.774 317.793 179.804C317.933 179.834 317.923 180.444 317.793 181.154C317.663 181.864 317.403 182.414 317.263 182.384Z" fill="#FCF5EB"/>
<path d="M322.942 193.813C322.812 193.753 322.992 193.013 323.352 192.143C323.712 191.273 324.102 190.623 324.232 190.673C324.362 190.723 324.232 191.473 323.832 192.343C323.432 193.213 323.082 193.863 322.942 193.813Z" fill="#FCF5EB"/>
<path d="M318.892 203.033C318.762 203.093 318.282 202.403 317.822 201.493C317.362 200.583 317.102 199.773 317.232 199.713C317.362 199.653 317.832 200.343 318.292 201.253C318.752 202.163 319.022 202.963 318.892 203.033Z" fill="#FCF5EB"/>
<path d="M327.551 212.254C327.421 212.204 327.551 211.624 327.771 210.964C327.991 210.304 328.341 209.804 328.481 209.854C328.621 209.904 328.481 210.484 328.261 211.144C328.041 211.804 327.731 212.304 327.551 212.254Z" fill="#FCF5EB"/>
<path d="M319.812 221.283C319.692 221.363 319.382 221.093 319.132 220.693C318.882 220.293 318.762 219.893 318.892 219.813C319.022 219.733 319.312 220.003 319.572 220.413C319.832 220.823 319.932 221.213 319.812 221.283Z" fill="#FCF5EB"/>
<path d="M321.462 239.924C321.362 240.014 320.732 239.524 320.072 238.804C319.412 238.084 318.962 237.434 319.072 237.334C319.182 237.234 319.802 237.734 320.462 238.454C321.122 239.174 321.572 239.824 321.462 239.924Z" fill="#FCF5EB"/>
<path d="M331.612 229.213C331.502 229.303 330.952 228.803 330.392 228.083C329.832 227.363 329.472 226.723 329.582 226.633C329.692 226.543 330.242 227.053 330.802 227.763C331.362 228.473 331.732 229.133 331.612 229.213Z" fill="#FCF5EB"/>
<path d="M337.182 243.984C337.052 243.924 337.282 243.174 337.692 242.314C338.102 241.454 338.532 240.794 338.692 240.854C338.852 240.914 338.602 241.674 338.192 242.534C337.782 243.394 337.312 244.054 337.182 243.984Z" fill="#FCF5EB"/>
<path d="M325.341 256.143C325.211 256.213 324.751 255.663 324.111 255.073C323.471 254.483 322.881 254.073 322.941 253.923C323.001 253.773 323.761 254.043 324.461 254.693C325.161 255.343 325.461 256.073 325.341 256.143Z" fill="#FCF5EB"/>
<path d="M326.082 268.674C326.082 268.814 325.582 268.934 324.972 268.934C324.362 268.934 323.872 268.814 323.872 268.674C323.872 268.534 324.362 268.414 324.972 268.414C325.582 268.414 326.082 268.534 326.082 268.674Z" fill="#FCF5EB"/>
<path d="M338.251 265.173C338.121 265.103 338.381 264.473 338.571 263.693C338.761 262.913 338.841 262.233 338.991 262.223C339.141 262.213 339.301 262.943 339.081 263.813C338.861 264.683 338.361 265.253 338.251 265.173Z" fill="#FCF5EB"/>
<path d="M350.343 269.384C350.213 269.434 349.843 268.724 349.523 267.814C349.203 266.904 349.053 266.124 349.183 266.084C349.313 266.044 349.693 266.734 350.013 267.644C350.333 268.554 350.483 269.334 350.343 269.384Z" fill="#FCF5EB"/>
<path d="M348.412 286.583C348.292 286.513 348.602 285.673 349.102 284.703C349.602 283.733 350.102 283.003 350.252 283.073C350.402 283.143 350.072 283.983 349.562 284.943C349.052 285.903 348.542 286.673 348.412 286.583Z" fill="#FCF5EB"/>
<path d="M337.382 296.673C337.252 296.723 336.842 296.033 336.462 295.123C336.082 294.213 335.892 293.433 336.032 293.373C336.172 293.313 336.572 294.013 336.942 294.923C337.312 295.833 337.512 296.673 337.382 296.673Z" fill="#FCF5EB"/>
<path d="M325.162 300.583C325.162 300.723 324.742 300.844 324.232 300.844C323.722 300.844 323.312 300.723 323.312 300.583C323.312 300.443 323.732 300.323 324.232 300.323C324.732 300.323 325.162 300.443 325.162 300.583Z" fill="#FCF5EB"/>
<path d="M332.161 316.673C332.031 316.673 331.751 316.123 331.541 315.363C331.331 314.603 331.291 313.943 331.431 313.913C331.571 313.883 331.841 314.463 332.051 315.223C332.261 315.983 332.301 316.593 332.161 316.673Z" fill="#FCF5EB"/>
<path d="M323.312 311.274C323.192 311.204 323.312 310.734 323.642 310.224C323.972 309.714 324.302 309.364 324.422 309.434C324.542 309.504 324.422 309.984 324.092 310.494C323.762 311.004 323.442 311.354 323.312 311.274Z" fill="#FCF5EB"/>
<path d="M323.131 328.984C322.991 328.984 322.791 328.314 322.691 327.444C322.591 326.574 322.621 325.864 322.761 325.844C322.901 325.824 323.101 326.514 323.201 327.384C323.301 328.254 323.271 328.964 323.131 328.984Z" fill="#FCF5EB"/>
</svg>
