<svg width="38" height="36" viewBox="0 0 38 36" fill="none" xmlns="http://www.w3.org/2000/svg">
<path d="M33.178 31.3559C32.8922 31.4717 32.5988 31.5798 32.3053 31.6802C32.1431 31.7343 31.9887 31.7884 31.8265 31.8424C31.7493 31.8656 31.4713 31.9505 31.757 31.8656C31.6721 31.8888 31.5871 31.9196 31.5022 31.9428C30.7917 32.159 30.0735 32.3444 29.3553 32.5143C29.309 32.522 29.2626 32.5374 29.224 32.5452C29.2009 32.5529 29.17 32.5606 29.1468 32.5606C29.1391 32.5606 29.3476 32.5143 29.2472 32.5374C29.1468 32.5606 29.0464 32.5838 28.946 32.5992C28.7452 32.6456 28.5445 32.6842 28.3359 32.7228C27.9267 32.8 27.5174 32.8772 27.1081 32.939C26.6833 33.0085 26.2586 33.0703 25.8338 33.1244C25.8107 33.1244 25.7952 33.1321 25.7721 33.1321C25.6485 33.1475 25.9342 33.1089 25.8184 33.1244C25.7643 33.1321 25.718 33.1398 25.664 33.1398C25.5558 33.1552 25.44 33.163 25.3319 33.1784C25.1079 33.2016 24.884 33.2247 24.6523 33.2479C23.7565 33.3329 22.8607 33.3869 21.9649 33.4024C21.849 33.4024 21.7332 33.4101 21.6096 33.4101C21.4629 33.4101 21.7177 33.4101 21.5633 33.4101C21.5015 33.4101 21.432 33.4101 21.3702 33.4101C21.1463 33.4101 20.9223 33.4101 20.6907 33.4101C20.2273 33.4024 19.7639 33.3869 19.3006 33.3638C18.8372 33.3406 18.3739 33.302 17.9105 33.2556C17.6789 33.2325 17.4472 33.2093 17.2155 33.1784C17.0997 33.163 16.9916 33.1475 16.8757 33.1321C16.8217 33.1244 16.7676 33.1166 16.7136 33.1089C16.7058 33.1089 16.5977 33.0935 16.6749 33.1012C16.7444 33.1089 16.6209 33.0935 16.6054 33.0935C15.6942 32.9622 14.7906 32.7846 13.9026 32.5529C13.0299 32.3289 12.165 32.0509 11.331 31.7111C11.0993 31.6185 11.0143 31.5798 10.7827 31.4795C10.5819 31.3868 10.3811 31.2941 10.1803 31.1937C9.78645 31.0007 9.40805 30.7922 9.03737 30.5682C7.54692 29.6801 6.18776 28.514 5.1375 27.1317C3.97912 25.6026 3.20687 23.811 2.77441 21.9421C2.23383 19.6022 2.20294 17.1696 2.45778 14.7911C2.7049 12.4975 3.2532 10.2039 4.31119 8.14973C4.53514 7.71727 4.78226 7.28481 5.05255 6.87552C5.17611 6.68245 5.31511 6.49711 5.4464 6.31177C5.49273 6.24227 5.46184 6.2886 5.50818 6.22682C5.54679 6.18049 5.57768 6.13415 5.61629 6.08782C5.69352 5.99515 5.77074 5.89476 5.84797 5.80208C6.1337 5.46229 6.43488 5.13795 6.75923 4.82905C6.9214 4.6746 7.08357 4.52787 7.24574 4.38886C7.32297 4.32708 7.40019 4.25758 7.47742 4.1958C7.50059 4.18036 7.52376 4.15719 7.54692 4.14174C7.45425 4.21897 7.51603 4.16491 7.5392 4.14947C7.58554 4.11085 7.63187 4.07224 7.68593 4.04135C8.02572 3.78651 8.38095 3.54711 8.74391 3.33088C8.79025 3.29999 8.83658 3.27682 8.88292 3.24593C8.90609 3.23049 8.92925 3.22276 8.9447 3.20732C9.04509 3.15326 8.82114 3.27682 8.92153 3.22276C9.0142 3.16871 9.11459 3.11465 9.20726 3.06831C9.3926 2.97564 9.57794 2.88297 9.76328 2.79803C9.85596 2.75169 9.95635 2.71308 10.049 2.67447C10.0954 2.6513 10.1803 2.62813 9.98724 2.69763C10.0181 2.68991 10.0413 2.67447 10.0722 2.66674C10.1262 2.64358 10.1803 2.62041 10.2344 2.59724C10.4274 2.52002 10.6205 2.45051 10.8213 2.38101C10.9217 2.35012 11.0221 2.31151 11.1147 2.28062C11.1997 2.24973 10.9217 2.3424 11.0375 2.30378C11.0684 2.29606 11.0916 2.28834 11.1224 2.28062C11.1765 2.26517 11.2383 2.24973 11.2923 2.22656C11.4931 2.16478 11.6939 2.11844 11.8947 2.06439C11.9951 2.04122 12.0878 2.01805 12.1882 1.99488C11.9256 2.05666 12.1341 2.00261 12.1959 1.99488C12.2577 1.97944 12.3117 1.97172 12.3735 1.95627C12.582 1.91766 12.7982 1.87905 13.0067 1.84043C13.1071 1.82499 13.2075 1.80954 13.3079 1.7941C13.3543 1.78638 13.4083 1.77865 13.4546 1.77093C13.501 1.76321 13.6245 1.75549 13.4083 1.77865C13.4392 1.77865 13.4701 1.77093 13.501 1.77093C13.7249 1.74776 13.9412 1.7246 14.1651 1.70915C14.3814 1.69371 14.5899 1.67826 14.8061 1.67054C14.9142 1.66282 15.03 1.66282 15.1382 1.65509C15.1922 1.65509 15.2386 1.65509 15.2926 1.65509C15.3158 1.65509 15.3312 1.65509 15.3544 1.65509C15.4548 1.65509 15.2077 1.65509 15.3621 1.65509C15.8023 1.65509 16.2425 1.66282 16.6827 1.68598C17.1228 1.70915 17.563 1.74776 18.0032 1.80182C18.1036 1.81727 18.2117 1.82499 18.3121 1.84043C18.3662 1.84816 18.4125 1.85588 18.4666 1.8636C18.4975 1.87132 18.5283 1.87132 18.5592 1.87905C18.6519 1.89449 18.4666 1.8636 18.567 1.87905C18.7832 1.90994 19.0071 1.94855 19.2234 1.97944C20.0883 2.12617 20.9455 2.31923 21.7872 2.55863C22.6213 2.7903 23.4399 3.06059 24.243 3.36949C24.4361 3.44672 24.6369 3.52394 24.8299 3.60117C24.8763 3.62433 24.9303 3.63978 24.9766 3.66295C24.9921 3.67067 25.0153 3.67839 25.0307 3.68611C24.9535 3.65522 25.0462 3.69384 25.0539 3.69384C25.1543 3.73245 25.2469 3.77879 25.3473 3.8174C25.718 3.97957 26.0887 4.15719 26.4516 4.33481C27.749 4.99122 29.0078 5.75575 30.1198 6.6979C30.4982 7.01452 30.8458 7.36976 31.1624 7.74816C31.2473 7.84855 31.3323 7.95667 31.4095 8.06478C31.4172 8.07251 31.4249 8.08795 31.4327 8.09567C31.4713 8.14973 31.4018 8.04934 31.4404 8.1034C31.4558 8.12656 31.479 8.14973 31.4945 8.18062C31.5331 8.23468 31.5794 8.29646 31.618 8.35052C31.7802 8.58219 31.9346 8.81387 32.0814 9.05327C32.7378 10.119 33.2706 11.2619 33.6954 12.4357C34.1742 13.7408 34.5371 15.0923 34.7842 16.4669C35.0468 17.911 35.1935 19.3783 35.2013 20.8533C35.209 22.336 35.0777 23.7415 34.7688 25.1779C34.4676 26.5679 33.9966 27.9348 33.317 29.1859C33.1471 29.4948 32.9695 29.8037 32.7764 30.0971C32.6837 30.2439 32.5833 30.3906 32.4752 30.5373C32.4212 30.6068 32.3748 30.6763 32.3208 30.7458C32.2821 30.7922 32.3208 30.7381 32.3285 30.7304C32.313 30.7535 32.2976 30.769 32.2821 30.7922C32.2513 30.8308 32.2204 30.8694 32.1895 30.908C31.7493 31.4717 31.2551 31.9891 30.7145 32.4602C30.5832 32.5761 30.4442 32.6919 30.3052 32.8C30.228 32.8618 30.3901 32.7305 30.3206 32.7923C30.3052 32.8 30.2897 32.8155 30.282 32.8232C30.2434 32.8541 30.2048 32.8772 30.1662 32.9081C30.089 32.9699 30.004 33.024 29.9268 33.0857C29.6179 33.302 29.3013 33.5105 28.9769 33.6958C28.9306 33.719 28.7916 33.7885 28.9615 33.7035C28.9229 33.7267 28.8842 33.7499 28.8456 33.7653C28.7607 33.8117 28.668 33.858 28.5831 33.9043C28.4054 33.997 28.2278 34.0819 28.0502 34.1592C27.9575 34.1978 27.8726 34.2364 27.7799 34.275C27.695 34.3136 27.8571 34.2441 27.8571 34.2441C27.834 34.2518 27.8031 34.2673 27.7799 34.275C27.7259 34.2982 27.6718 34.3213 27.6255 34.3368C27.4401 34.414 27.2471 34.4835 27.0617 34.5453C26.9613 34.5839 26.8609 34.6148 26.7528 34.6457C26.5907 34.6997 26.9227 34.5916 26.7605 34.6457C26.7065 34.6611 26.6447 34.6843 26.5907 34.6997C26.3899 34.7615 26.1814 34.8156 25.9729 34.8696C25.8647 34.9005 25.7489 34.9237 25.6408 34.9469C25.4709 34.9855 25.8107 34.9083 25.6408 34.9469C25.579 34.9623 25.5172 34.97 25.4554 34.9855C25.2315 35.0318 25.0153 35.0704 24.7913 35.109C24.6755 35.1245 24.5674 35.1477 24.4515 35.1631C24.3897 35.1708 24.328 35.1785 24.2739 35.1863C24.2507 35.1863 24.2276 35.194 24.2044 35.194C24.0963 35.2094 24.3743 35.1708 24.2044 35.194C23.965 35.2249 23.7256 35.248 23.4939 35.2635C23.2391 35.2867 22.992 35.3021 22.7371 35.3098C22.6136 35.3175 22.4823 35.3175 22.3587 35.3253C22.2969 35.3253 22.2352 35.3253 22.1734 35.333C22.1425 35.333 22.1116 35.333 22.0807 35.333C21.934 35.333 22.1734 35.333 22.0575 35.333C20.9223 35.3407 19.7871 35.2712 18.6596 35.1399C18.5206 35.1245 18.3739 35.109 18.2349 35.0859C18.1654 35.0782 18.0959 35.0704 18.0187 35.055C17.9723 35.0473 17.9337 35.0395 17.8874 35.0395C17.9723 35.055 17.8333 35.0318 17.8333 35.0318C17.509 34.9855 17.1846 34.9314 16.868 34.8774C16.2039 34.7615 15.5475 34.6302 14.891 34.4758C13.7481 34.2132 12.6052 33.9275 11.5086 33.5105C11.0607 33.3406 10.69 33.1784 10.2344 32.9467C9.82507 32.7382 9.42349 32.5143 9.03737 32.2749C7.61643 31.3791 6.35765 30.1821 5.43867 28.8075C4.53514 27.4637 3.92506 25.9424 3.57755 24.3593C3.22231 22.7221 3.14509 21.0309 3.29182 19.3706C3.43854 17.6484 3.84011 15.9186 4.4193 14.266C5.01394 12.5747 5.80936 10.953 6.78239 9.43939C7.02951 9.06099 7.28436 8.68258 7.54692 8.31963C7.60098 8.2424 7.70137 8.11112 7.72454 8.07251C7.76315 8.02617 7.86355 7.88717 7.92533 7.80994C8.06433 7.63232 8.20334 7.46243 8.34234 7.29253C8.92153 6.5975 9.53933 5.94109 10.1957 5.33101C10.5201 5.02983 10.8599 4.72865 11.2074 4.45064C11.246 4.41975 11.2846 4.38886 11.331 4.35025C11.3541 4.33481 11.4931 4.22669 11.385 4.30392C11.4777 4.23441 11.5626 4.16491 11.6553 4.09541C11.8406 3.9564 12.0183 3.82512 12.2113 3.69384C12.5743 3.43899 12.9527 3.1996 13.3311 2.97564C13.416 2.92159 13.5087 2.87525 13.6014 2.82119C13.694 2.76714 13.501 2.87525 13.5705 2.83664C13.5937 2.82119 13.6168 2.81347 13.64 2.79803C13.694 2.76714 13.7481 2.73625 13.8022 2.71308C13.9952 2.60496 14.196 2.50457 14.3968 2.4119C14.5976 2.31151 14.7984 2.21884 14.9992 2.13389C15.0455 2.11072 15.0918 2.09528 15.1382 2.07211C15.254 2.02577 14.9837 2.13389 15.0995 2.08755C15.115 2.07983 15.1382 2.07211 15.1536 2.06439C15.2617 2.01805 15.3621 1.97944 15.4702 1.94083C15.6787 1.85588 15.895 1.77865 16.1112 1.70915C16.2116 1.67826 16.3043 1.64737 16.4047 1.60876C16.1575 1.69371 16.3506 1.6242 16.4047 1.60876C16.4664 1.59331 16.5205 1.57015 16.5823 1.5547C16.7985 1.49292 17.0225 1.43114 17.2464 1.37708C17.3005 1.36164 17.3468 1.35391 17.4009 1.33847C17.4549 1.32302 17.6634 1.28441 17.4009 1.33847C17.5167 1.3153 17.6248 1.29213 17.7406 1.26897C17.9646 1.22263 18.1963 1.18402 18.4202 1.15313C18.5206 1.13768 18.6287 1.12996 18.7369 1.10679C18.5206 1.15313 18.706 1.11452 18.76 1.10679C18.8218 1.09907 18.8836 1.09135 18.9531 1.08363C19.1848 1.06046 19.4087 1.04501 19.6404 1.02957C19.7562 1.02185 19.8643 1.02185 19.9802 1.01412C20.0342 1.01412 20.0883 1.01412 20.1424 1.0064C20.1655 1.0064 20.1964 1.0064 20.2196 1.0064C20.2505 1.0064 20.0883 1.0064 20.2196 1.0064C20.6907 1.0064 21.1617 1.02185 21.6328 1.06046C21.8645 1.08363 22.1039 1.10679 22.3355 1.13768C22.3664 1.14541 22.405 1.14541 22.4359 1.15313C22.5441 1.16857 22.3664 1.14541 22.4359 1.15313C22.4977 1.16085 22.5595 1.16857 22.6213 1.18402C22.7448 1.20719 22.8684 1.22263 22.992 1.2458C23.4862 1.33847 23.9804 1.44659 24.4592 1.58559C26.5598 2.16478 28.5522 3.09148 30.2357 4.5047C31.8651 5.87159 33.1239 7.61688 34.0506 9.52434C34.9541 11.3855 35.5565 13.3933 35.9426 15.4243C36.2979 17.2777 36.4832 19.1543 36.5373 21.0386C36.5759 22.4364 36.5527 23.8264 36.4446 25.2165C36.4137 25.5949 36.3828 25.981 36.3365 26.3594C36.3288 26.4212 36.321 26.483 36.3133 26.5448C36.3133 26.5679 36.3056 26.5911 36.3056 26.6143C36.2979 26.6915 36.3133 26.5525 36.3056 26.6143C36.2979 26.6529 36.2979 26.6838 36.2901 26.7224C36.2592 26.9618 36.6917 26.8923 36.8307 26.8691C37.0083 26.8382 37.1859 26.7919 37.3404 26.7069C37.4176 26.6683 37.603 26.5911 37.6107 26.4907C37.6956 25.9038 37.742 25.3169 37.7883 24.73C37.8887 23.2936 37.9119 21.8495 37.8655 20.4054C37.796 18.4747 37.5952 16.5518 37.2014 14.6598C36.7767 12.6133 36.1357 10.59 35.1781 8.72892C34.1819 6.80601 32.8305 5.053 31.1161 3.71701C29.3553 2.35012 27.2316 1.43886 25.077 0.913731C23.0924 0.427213 21.0382 0.311375 19.0149 0.566218C17.092 0.813338 15.1999 1.40025 13.4701 2.27289C11.802 3.10693 10.2652 4.20352 8.89836 5.48546C7.55465 6.75196 6.38082 8.19607 5.39234 9.75601C4.41158 11.3005 3.61616 12.9531 3.02925 14.683C2.45006 16.3665 2.07938 18.1272 1.94037 19.9034C1.80909 21.5869 1.90948 23.2936 2.29561 24.9385C2.67401 26.537 3.33043 28.0661 4.2803 29.4098C5.28422 30.8308 6.58161 32.0123 8.07978 32.9081C10.0104 34.0588 12.165 34.6534 14.3427 35.1168C16.7676 35.6342 19.2388 35.9431 21.7177 35.8813C23.741 35.8272 25.7721 35.5029 27.6795 34.8233C29.2549 34.2596 30.7376 33.4255 31.9964 32.3135C33.093 31.3482 33.9965 30.1744 34.6839 28.8924C35.3634 27.6182 35.8345 26.2359 36.1357 24.8304C36.4446 23.3631 36.5759 21.8572 36.5604 20.359C36.545 18.8763 36.3983 17.3859 36.1202 15.9263C35.8577 14.544 35.487 13.1771 34.985 11.8565C34.5448 10.6827 34.0043 9.54751 33.3324 8.48952C32.7455 7.57054 32.0582 6.73651 31.2087 6.04921C30.0426 5.10706 28.7452 4.33481 27.3938 3.67839C25.8338 2.92159 24.1889 2.31923 22.5132 1.87905C20.7679 1.42342 18.9685 1.12996 17.1615 1.06046C15.2694 0.990956 13.362 1.16085 11.5317 1.64737C9.7324 2.11844 7.99483 2.89842 6.51983 4.04135C4.99077 5.2229 3.77833 6.73651 2.91341 8.46635C1.87087 10.6287 1.33802 12.9686 1.10634 15.3085C0.866944 17.7102 0.905557 20.1737 1.48475 22.5291C1.9481 24.4134 2.77441 26.1973 3.9714 27.7263C5.06027 29.1318 6.45032 30.2825 7.98711 31.1706C9.5625 32.0818 11.2923 32.7228 13.0531 33.1552C14.8988 33.6109 16.7908 33.858 18.6905 33.9429C20.5748 34.0356 22.4668 33.9738 24.3511 33.7808C26.135 33.6031 27.9112 33.3097 29.6565 32.9004C31.0079 32.5838 32.3594 32.1899 33.649 31.6725C33.7494 31.6339 34.2282 31.4486 34.0429 31.2709C33.873 31.1242 33.3556 31.2864 33.178 31.3559Z" fill="#FF5A5F"/>
</svg>
