<svg width="211" height="229" viewBox="0 0 211 229" fill="none" xmlns="http://www.w3.org/2000/svg">
<path d="M73.9543 46.7613C72.1148 42.7898 70.6705 38.6469 69.6422 34.3926C68.6135 30.1039 68.8783 25.6066 70.4031 21.4682C71.1862 19.4179 72.4564 17.5889 74.1041 16.139C75.7518 14.6891 77.7276 13.6619 79.8609 13.1459C82.5061 12.6265 85.3447 13.0613 87.8812 12.1313C90.8164 11.0442 92.7731 8.35061 95.056 6.21266C98.6674 2.86337 103.264 0.770449 108.162 0.245718C110.718 -0.11503 113.325 0.262144 115.675 1.33282C116.837 1.88123 117.842 2.71477 118.596 3.75592C119.35 4.79707 119.828 6.01199 119.987 7.28767C122.937 6.15364 126.023 5.41052 129.167 5.07725C132.344 4.7565 135.519 5.69794 138.008 7.69835C139.216 8.71979 140.066 10.1006 140.433 11.6392C140.8 13.1777 140.666 14.7934 140.05 16.2502C141.389 15.5905 142.925 15.4501 144.361 15.8561C145.797 16.262 147.033 17.1856 147.828 18.4485C148.57 19.7555 148.918 21.2491 148.83 22.7493C148.742 24.2495 148.222 25.6922 147.333 26.9037C145.123 29.5456 142.044 31.3141 138.649 31.8922C135.701 32.3029 132.271 32.5807 129.457 31.6386" fill="#383838"/>
<path d="M81.1697 131.856L123.446 128.474C123.711 123.534 123.361 104.438 123.361 104.438C123.361 104.438 140.948 101.696 141.165 84.1088C141.383 66.522 138.339 26.1305 138.339 26.1305C128.339 21.8312 117.373 20.2799 106.573 21.6368C95.773 22.9937 85.5313 27.2095 76.9058 33.8488L74.2968 35.8539L81.1697 131.856Z" fill="#FFBE9E"/>
<path d="M123.395 104.184C115.267 104.339 107.277 102.068 100.446 97.6611C100.446 97.6611 105.869 110.32 123.395 108.737V104.184Z" fill="#E38D74"/>
<path d="M76.4675 54.0812C76.1776 53.9484 64.3886 50.4576 64.7752 62.5364C65.1617 74.6152 77.1439 71.7042 77.1559 71.3539C77.168 71.0036 76.4675 54.0812 76.4675 54.0812Z" fill="#FFBE9E"/>
<path d="M73.3396 66.8724C73.3396 66.8724 73.1342 67.0173 72.7839 67.1985C72.2937 67.4241 71.7348 67.4501 71.2258 67.2709C69.9333 66.8482 68.81 64.8552 68.6771 62.7052C68.6118 61.6752 68.7769 60.6436 69.1603 59.6855C69.262 59.3056 69.4549 58.9563 69.7222 58.668C69.9895 58.3796 70.3232 58.1608 70.6943 58.0307C70.9261 57.9724 71.1706 57.993 71.3894 58.0892C71.6081 58.1855 71.7886 58.3519 71.9022 58.5621C72.0713 58.8883 71.9988 59.1298 72.0592 59.154C72.1196 59.1782 72.3129 58.9366 72.2042 58.4534C72.1274 58.1555 71.953 57.8918 71.7089 57.7045C71.3563 57.462 70.9229 57.3666 70.501 57.4388C70.0117 57.5539 69.5598 57.7917 69.1878 58.1298C68.8159 58.4679 68.5362 58.8952 68.3752 59.3714C67.8921 60.4301 67.6804 61.5925 67.7591 62.7535C67.9041 65.1692 69.2207 67.4038 70.9721 67.8507C71.2987 67.9354 71.6403 67.9446 71.9709 67.8776C72.3016 67.8106 72.6127 67.6693 72.8806 67.4642C73.3275 67.1985 73.3879 66.8724 73.3396 66.8724Z" fill="#E38D74"/>
<path d="M132.574 53.3925C132.578 54.0445 132.328 54.6724 131.877 55.1434C131.426 55.6145 130.81 55.8919 130.159 55.9169C129.839 55.9416 129.518 55.9025 129.214 55.8019C128.91 55.7013 128.629 55.5413 128.387 55.3311C128.146 55.1209 127.948 54.8648 127.807 54.5776C127.665 54.2904 127.582 53.9779 127.562 53.6582C127.555 53.0041 127.804 52.3732 128.255 51.8995C128.706 51.4258 129.324 51.1468 129.977 51.1217C130.298 51.0971 130.62 51.1366 130.925 51.2379C131.229 51.3392 131.511 51.5003 131.753 51.7117C131.995 51.9232 132.192 52.1808 132.333 52.4693C132.474 52.7579 132.556 53.0718 132.574 53.3925Z" fill="#383838"/>
<path d="M135.018 50.8682C134.704 51.2064 132.808 49.7932 130.102 49.8052C127.397 49.8173 125.416 51.1581 125.126 50.8319C124.836 50.5058 125.295 50.0951 126.165 49.455C127.337 48.6519 128.729 48.2301 130.151 48.2471C131.549 48.2324 132.917 48.6547 134.064 49.455C134.886 50.1314 135.175 50.7232 135.018 50.8682Z" fill="#383838"/>
<path d="M106.001 53.3925C106.005 54.0445 105.755 54.6724 105.304 55.1434C104.853 55.6145 104.237 55.8919 103.585 55.9169C103.266 55.9416 102.945 55.9025 102.641 55.8019C102.337 55.7013 102.056 55.5413 101.814 55.3311C101.572 55.1209 101.375 54.8648 101.233 54.5776C101.091 54.2904 101.008 53.9779 100.988 53.6582C100.982 53.0041 101.23 52.3732 101.681 51.8995C102.132 51.4258 102.75 51.1468 103.404 51.1217C103.724 51.0971 104.046 51.1366 104.351 51.2379C104.656 51.3392 104.938 51.5003 105.179 51.7117C105.421 51.9232 105.618 52.1808 105.759 52.4693C105.901 52.7579 105.983 53.0718 106.001 53.3925Z" fill="#383838"/>
<path d="M108.442 51.3756C108.128 51.7018 106.232 50.3006 103.526 50.3006C100.821 50.3006 98.8396 51.6655 98.5497 51.3273C98.4048 51.1824 98.7188 50.5905 99.5885 49.9624C100.759 49.1543 102.152 48.732 103.575 48.7545C104.974 48.7341 106.344 49.1569 107.488 49.9624C108.309 50.6388 108.599 51.2307 108.442 51.3756Z" fill="#383838"/>
<path d="M118.249 71.426C119.675 70.9752 121.153 70.7073 122.646 70.6288C123.335 70.5564 123.987 70.4235 124.108 69.9524C124.159 69.2417 123.999 68.5316 123.649 67.9111L121.607 62.6448C118.769 55.168 116.715 49.0078 117.017 48.899C117.319 48.7903 119.868 54.7694 122.694 62.1858C123.379 64.0298 124.031 65.7933 124.651 67.4763C125.088 68.3071 125.216 69.2655 125.014 70.1819C124.914 70.4261 124.759 70.6443 124.563 70.8201C124.366 70.9959 124.132 71.1246 123.878 71.1965C123.485 71.3044 123.078 71.3572 122.67 71.3536C121.206 71.5686 119.72 71.593 118.249 71.426Z" fill="#383838"/>
<path d="M110.303 73.2982C110.738 73.2982 110.75 76.1971 113.262 78.2868C115.775 80.3764 118.891 80.0502 118.915 80.4609C118.915 80.6421 118.215 81.0286 116.898 81.0649C115.178 81.0842 113.507 80.4985 112.175 79.4101C110.898 78.3669 110.075 76.8686 109.88 75.2308C109.771 73.9988 110.098 73.274 110.303 73.2982Z" fill="#383838"/>
<path d="M134.025 46.121C133.541 46.7249 131.681 46.121 129.447 46.121C127.212 46.121 125.304 46.5317 124.869 45.8915C124.676 45.5774 124.978 44.9614 125.811 44.3816C126.924 43.6866 128.218 43.3374 129.53 43.3782C130.841 43.4191 132.111 43.8481 133.179 44.6111C133.976 45.1305 134.23 45.819 134.025 46.121Z" fill="#383838"/>
<path d="M104.927 41.6034C104.625 41.9416 103.936 41.7967 103.03 41.6034C100.837 41.0808 98.5612 41.0068 96.3388 41.386C95.4208 41.4947 94.7202 41.5913 94.4424 41.2411C94.1646 40.8908 94.4424 40.1419 95.3845 39.3688C96.6651 38.439 98.2191 37.9626 99.8008 38.0151C101.382 38.0677 102.901 38.646 104.118 39.6587C104.999 40.5163 105.217 41.3015 104.927 41.6034Z" fill="#383838"/>
<path d="M117.516 75.9492C117.1 76.129 116.537 75.708 115.796 75.1517C114.026 73.7552 111.992 72.7309 109.816 72.1403C108.938 71.8528 108.261 71.6459 108.157 71.2112C108.052 70.7766 108.619 70.214 109.799 69.9088C111.352 69.6038 112.962 69.8251 114.375 70.5379C115.788 71.2507 116.923 72.4143 117.6 73.8445C118.039 74.9934 117.906 75.7971 117.516 75.9492Z" fill="#383838"/>
<path d="M130.223 77.1889C129.912 77.5184 129.227 77.354 128.327 77.1351C126.15 76.5505 123.877 76.412 121.645 76.728C120.724 76.8106 120.021 76.8873 119.753 76.5293C119.485 76.1713 119.784 75.4306 120.748 74.6845C122.054 73.7914 123.621 73.3593 125.201 73.4567C126.78 73.554 128.282 74.1752 129.469 75.2221C130.326 76.1043 130.521 76.8953 130.223 77.1889Z" fill="#383838"/>
<path d="M86.4807 69.1225C87.7663 68.5108 92.8305 90.713 104.871 96.5512C114.914 101.421 128.981 101.403 136.396 93.06C139.995 89.0095 141.001 87.1872 141.001 87.1872C141.001 87.1872 139.741 96.4417 133.808 100.316C128.816 103.576 125.998 104.754 119.242 104.705C112.487 104.656 107.064 102.947 100.894 98.9177C90.0723 91.8496 85.2463 69.6692 86.4807 69.1225Z" fill="#383838"/>
<path d="M139.219 31.53C130.753 33.83 121.775 33.3731 113.587 30.2255C104.468 26.771 94.1403 25.6839 92.0869 27.6527C90.0335 29.6216 90.4684 38.6082 82.134 42.0869C82.134 42.0869 84.4531 59.0818 77.5924 59.1543C70.7316 59.2268 72.3139 32.3876 72.3139 32.3876L88.1251 22.5796L105.905 17.3495L122.912 15.6343L139.219 18.8956V31.53Z" fill="#383838"/>
<path fill-rule="evenodd" clip-rule="evenodd" d="M210.039 228.726C205.944 206.461 194.92 151.687 183.769 140.727C170.212 127.402 150.202 125.05 131.247 122.822C130.528 122.737 129.811 122.653 129.095 122.568C127.531 122.385 126.123 122.234 124.879 122.1C123.577 121.961 122.454 121.84 121.522 121.723C106.85 126.361 91.1038 126.361 76.4315 121.723C71.6126 121.923 67.3653 123.001 63.2465 124.047C61.4084 124.513 59.596 124.974 57.7698 125.346C39.0959 128.97 23.926 142.37 20.1936 154.92C17.5384 163.848 6.8874 205.454 0.960938 228.726H44.0614L47.8772 215.66L48.3487 228.726H167.657L166.89 215.684L170.411 228.726H210.039Z" fill="#FF5A5F"/>
<path d="M48.447 181.102C48.5721 181.705 48.6248 182.322 48.604 182.938C48.604 184.146 48.6886 185.812 48.7248 187.926C48.7248 192.13 48.8093 197.952 48.7248 204.378C48.6402 210.804 48.6161 216.625 48.5195 220.829C48.5195 222.943 48.4107 224.646 48.3624 225.817C48.3781 226.431 48.3172 227.043 48.1812 227.641C48.048 227.043 47.9911 226.43 48.0121 225.817C48.0121 224.61 47.9276 222.931 47.8914 220.829C47.831 216.613 47.8068 210.803 47.8914 204.365C47.9759 197.927 48.0001 192.13 48.0967 187.914C48.0967 185.812 48.2054 184.109 48.2658 182.926C48.2438 182.312 48.3047 181.699 48.447 181.102Z" fill="#383838"/>
<path fill-rule="evenodd" clip-rule="evenodd" d="M167.838 228.726H166.974C166.669 224.65 166.345 220.215 166.008 215.575C165.284 205.598 164.704 196.612 164.317 190.077C164.236 188.45 164.158 186.964 164.089 185.635C164.024 184.389 163.965 183.281 163.919 182.322C163.84 181.374 163.84 180.42 163.919 179.472C164.12 180.402 164.246 181.347 164.293 182.298C164.446 183.965 164.632 186.075 164.853 188.573C164.895 189.045 164.937 189.53 164.982 190.029C165.502 196.28 166.132 204.82 166.831 214.285L166.926 215.575C167.269 220.214 167.572 224.649 167.838 228.726Z" fill="#383838"/>
<g opacity="0.3">
<path opacity="0.3" d="M187.498 161.824C187.498 161.993 149.655 162.138 102.946 162.138C56.2375 162.138 18.3945 161.993 18.3945 161.824C18.3945 161.655 56.2375 161.51 102.946 161.51C149.655 161.51 187.498 161.643 187.498 161.824Z" fill="white"/>
</g>
<g opacity="0.3">
<path opacity="0.3" d="M200.558 211.927C200.558 212.108 156.895 212.241 103.054 212.241C49.2133 212.241 5.53906 212.108 5.53906 211.927C5.53906 211.746 49.1904 211.613 103.054 211.613C156.918 211.613 200.558 211.818 200.558 211.927Z" fill="white"/>
</g>
<g opacity="0.3">
<path opacity="0.3" d="M63.7711 227.641C63.602 227.641 63.457 204.412 63.457 175.77C63.457 147.127 63.602 123.885 63.7711 123.885C63.9402 123.885 64.061 147.087 64.061 175.756C64.061 204.426 63.9523 227.641 63.7711 227.641Z" fill="white"/>
</g>
<g opacity="0.3">
<path opacity="0.3" d="M136.057 227.641C136.057 227.641 136.057 227.548 136.057 227.374C136.057 227.2 136.057 226.913 136.057 226.579C136.057 225.871 136.057 224.848 135.996 223.546C135.996 220.873 135.9 217.071 135.839 212.374C135.682 202.92 135.465 189.898 135.235 175.512C135.006 161.127 134.837 148.078 134.825 138.644C134.825 133.967 134.825 130.132 134.825 127.473C134.825 126.136 134.825 125.148 134.885 124.439C134.885 124.105 134.885 123.838 134.885 123.644C134.87 123.555 134.87 123.466 134.885 123.377C134.885 123.377 134.885 123.47 134.885 123.644C134.885 123.818 134.885 124.105 134.885 124.439C134.885 125.148 134.885 126.17 134.945 127.473C134.945 130.145 135.042 133.94 135.102 138.644C135.259 148.092 135.477 161.121 135.706 175.512C135.936 189.904 136.105 202.906 136.117 212.367C136.117 217.044 136.117 220.886 136.117 223.546C136.117 224.848 136.117 225.871 136.117 226.579C136.117 226.913 136.117 227.174 136.117 227.374C136.112 227.464 136.092 227.553 136.057 227.641Z" fill="white"/>
</g>
<g opacity="0.3">
<path opacity="0.3" d="M187.181 226.001C187.012 226.001 186.867 212.02 186.867 194.777C186.867 177.533 187.012 163.552 187.181 163.552C187.35 163.552 187.495 177.522 187.495 194.777C187.495 212.031 187.362 226.001 187.181 226.001Z" fill="white"/>
</g>
<g opacity="0.3">
<path opacity="0.3" d="M7.1976 228.725C7.01642 228.725 6.88356 223.685 6.88356 217.466C6.88356 211.246 7.01642 206.201 7.1976 206.201C7.37879 206.201 7.51165 211.242 7.51165 217.466C7.51165 223.689 7.36671 228.725 7.1976 228.725Z" fill="white"/>
</g>
<path d="M71.7725 123.377L78.6574 108.907L101.197 124.79L123.446 109.849L131.285 122.556L108.987 137.038H94.0821L71.7725 125.056" fill="#FF5A5F"/>
<path d="M101.204 124.85C101.069 124.909 100.927 124.95 100.781 124.971C100.365 125.023 99.9589 125.133 99.5734 125.297C98.1816 125.864 97.0058 126.858 96.2155 128.136C94.993 130.047 93.9536 132.069 93.1113 134.175C92.5798 135.383 92.0483 136.591 91.3719 137.884C90.7074 139.224 89.8304 140.447 88.775 141.507L88.5575 141.712L88.3401 141.483L87.0598 140.154C82.5906 135.468 78.7858 131.011 76.1888 127.701C74.8602 126.046 73.7731 124.693 73.1208 123.739C72.7246 123.268 72.3766 122.758 72.082 122.217C72.5284 122.632 72.933 123.089 73.2899 123.582L76.5029 127.423C79.2327 130.648 83.0858 135.057 87.5308 139.719L88.8112 141.048H88.3764C89.3928 140.039 90.2338 138.867 90.8646 137.582C91.5289 136.374 92.0725 135.105 92.616 133.958C93.5029 131.841 94.5995 129.817 95.8894 127.918C96.7527 126.605 98.0271 125.615 99.5131 125.104C99.9023 124.971 100.31 124.897 100.721 124.887C101.047 124.778 101.204 124.778 101.204 124.85Z" fill="#383838"/>
<path d="M130.883 122.834C130.57 123.355 130.202 123.841 129.784 124.283C129.023 125.189 127.912 126.47 126.463 127.98C122.654 131.91 118.493 135.484 114.034 138.657C113.055 139.346 112.077 140.01 111.135 140.626L110.7 140.904V140.372C110.425 137.829 109.807 135.334 108.864 132.956C108.164 131.027 107.156 129.224 105.88 127.617C105.056 126.533 103.948 125.697 102.679 125.201C101.786 124.899 101.242 124.863 101.254 124.803C101.266 124.742 101.387 124.803 101.641 124.803C102.017 124.814 102.391 124.875 102.752 124.984C104.102 125.422 105.297 126.24 106.194 127.339C107.553 128.951 108.631 130.781 109.383 132.751C110.377 135.182 111.031 137.739 111.328 140.348L110.845 140.107C111.775 139.479 112.741 138.826 113.719 138.138C118.151 134.991 122.32 131.488 126.185 127.666C127.683 126.204 128.842 124.972 129.651 124.126C130.025 123.662 130.437 123.23 130.883 122.834Z" fill="#383838"/>
<path d="M109.782 224.039C109.782 224.039 109.782 223.949 109.782 223.784C109.782 223.618 109.782 223.356 109.782 223.038C109.782 222.368 109.782 221.405 109.71 220.175C109.71 217.669 109.577 214.073 109.468 209.635C109.226 200.741 108.683 188.454 107.511 174.892C106.34 161.33 104.721 149.069 103.429 140.2C102.752 135.775 102.221 132.192 101.834 129.692C101.653 128.468 101.508 127.512 101.399 126.842C101.399 126.524 101.327 126.281 101.315 126.096C101.296 126.012 101.296 125.926 101.315 125.841C101.315 125.841 101.315 125.924 101.387 126.09C101.46 126.256 101.472 126.524 101.544 126.836C101.677 127.505 101.858 128.462 102.088 129.686C102.559 132.16 103.175 135.743 103.888 140.181C105.301 149.044 106.968 161.311 108.151 174.879C109.335 188.448 109.794 200.734 109.927 209.635C109.999 214.098 109.999 217.688 109.927 220.175C109.927 221.405 109.927 222.368 109.927 223.038C109.927 223.356 109.927 223.599 109.927 223.784C109.895 223.871 109.846 223.956 109.782 224.039Z" fill="#383838"/>
<g opacity="0.2">
<path opacity="0.2" d="M100.677 124.851C103.419 126.409 104.433 129.876 104.445 133.016C104.457 136.157 103.709 139.297 103.974 142.438C103.972 143.262 104.161 144.076 104.526 144.816C104.89 145.556 105.421 146.201 106.076 146.702C107.984 147.91 110.412 146.774 112.369 145.699C116.572 143.392 120.824 141.037 124.267 137.679C125.914 135.983 127.194 133.965 128.025 131.751C128.856 129.538 129.222 127.176 129.098 124.815C123.3 131.035 117.454 134.792 111.113 139.696C110.658 136.385 109.576 133.192 107.924 130.287C106.281 127.436 103.95 124.489 100.677 124.851Z" fill="#383838"/>
</g>
<g opacity="0.2">
<path opacity="0.2" d="M79.957 132.002C82.095 136.193 84.3416 140.457 88.0257 143.44C89.6563 144.733 92.0479 145.711 93.751 144.503C95.116 143.525 95.3455 141.628 95.4542 139.949C95.7441 135.698 97.0002 130.806 97.2901 126.542C93.9201 130.347 92.0721 137.051 88.5209 141.653C84.8973 139.37 82.8076 135.468 80.1986 132.074" fill="#383838"/>
</g>
<g opacity="0.2">
<path opacity="0.2" fill-rule="evenodd" clip-rule="evenodd" d="M196.944 228.726L205.568 224.432C201.219 221.963 195.774 223.867 191.21 225.906C188.407 227.159 185.322 228.43 182.31 228.726H196.944ZM179.833 228.726H170.497L165.43 210.795C167.339 212.891 168.454 215.531 169.564 218.159C169.819 218.763 170.074 219.366 170.338 219.962C171.751 223.151 173.666 226.385 176.809 227.882C177.786 228.346 178.799 228.613 179.833 228.726Z" fill="#383838"/>
</g>
<g opacity="0.2">
<path opacity="0.2" fill-rule="evenodd" clip-rule="evenodd" d="M110.792 228.726H89.221C90.7918 199.398 93.4009 170.169 97.0481 141.037L111.205 222.315C110.751 224.456 110.647 226.593 110.792 228.726Z" fill="#383838"/>
</g>
<path d="M95.9043 128.68L106.57 128.402L109.42 134.139L106.002 143.73H97.2934L92.6793 135.142L95.9043 128.68Z" fill="#007A87"/>
<path fill-rule="evenodd" clip-rule="evenodd" d="M116.158 228.726H93.8113L97.2936 143.73H106.002L116.158 228.726Z" fill="#007A87"/>
<path d="M105.498 143.899C104.156 144.029 102.805 144.029 101.464 143.899C100.122 143.985 98.7747 143.941 97.4414 143.766C100.087 143.06 102.877 143.106 105.498 143.899Z" fill="#383838"/>
<path d="M107.788 130.468C107.437 131.152 106.981 131.775 106.435 132.316C105.218 133.701 103.876 134.971 102.425 136.109C100.985 137.253 99.445 138.263 97.8225 139.128C97.1732 139.543 96.4586 139.845 95.7087 140.022C95.6242 139.853 98.7164 138.259 102.038 135.613C105.36 132.968 107.643 130.335 107.788 130.468Z" fill="#383838"/>
<path d="M107.32 155.652C105.739 157.658 103.998 159.532 102.114 161.256C100.372 163.13 98.4771 164.855 96.4492 166.414C98.0324 164.406 99.7776 162.532 101.667 160.81C103.404 158.935 105.295 157.21 107.32 155.652Z" fill="#383838"/>
<path d="M108.057 164.445C106.269 166.656 104.319 168.732 102.223 170.653C100.281 172.732 98.1851 174.662 95.9538 176.427C97.7431 174.213 99.6931 172.134 101.788 170.207C103.732 168.133 105.827 166.207 108.057 164.445Z" fill="white"/>
<path d="M109.434 172.562C107.326 175.095 105.058 177.492 102.646 179.737C100.373 182.133 97.9527 184.384 95.3984 186.477C97.5046 183.938 99.772 181.537 102.187 179.29C104.453 176.892 106.874 174.644 109.434 172.562Z" fill="#383838"/>
<path d="M110.384 181.114C108.064 183.852 105.592 186.457 102.98 188.917C100.509 191.512 97.8912 193.964 95.1406 196.261C97.4485 193.52 99.9169 190.919 102.533 188.47C105.005 185.868 107.626 183.411 110.384 181.114Z" fill="white"/>
<path d="M111.292 189.726C108.776 192.659 106.107 195.458 103.295 198.109C100.626 200.913 97.8034 203.566 94.8402 206.057C97.3523 203.097 100.022 200.275 102.836 197.602C105.505 194.82 108.328 192.191 111.292 189.726Z" fill="#383838"/>
<path d="M112.381 198.145C112.514 198.266 108.564 202.385 103.588 207.349C98.6113 212.314 94.4562 216.227 94.3354 216.106C97.1117 212.89 100.051 209.818 103.141 206.902C108.117 201.938 112.248 198.024 112.381 198.145Z" fill="white"/>
<path d="M113.287 206.745C113.408 206.866 109.168 211.275 103.829 216.602C98.4906 221.928 94.0576 226.12 93.9369 225.999C93.8161 225.878 98.0437 221.469 103.383 216.155C108.721 210.84 113.154 206.624 113.287 206.745Z" fill="#383838"/>
<path fill-rule="evenodd" clip-rule="evenodd" d="M101.168 228.726H100.324C101.405 227.635 102.575 226.464 103.8 225.25C109.513 219.585 114.212 215.079 114.345 215.2C114.465 215.321 109.936 220.032 104.235 225.697C103.17 226.754 102.14 227.771 101.168 228.726Z" fill="white"/>
<path d="M106.242 147.474C104.86 149.282 103.315 150.96 101.628 152.487C100.086 154.166 98.3922 155.699 96.5671 157.065C97.9514 155.255 99.4956 153.573 101.181 152.04C102.724 150.366 104.418 148.838 106.242 147.474Z" fill="white"/>
<g opacity="0.5">
<path opacity="0.5" d="M87.4136 115.732C86.2216 118.153 84.8445 120.479 83.2948 122.689C81.9247 125.014 80.3738 127.227 78.6565 129.308C79.8548 126.89 81.2316 124.564 82.7754 122.351C84.1406 120.023 85.6917 117.809 87.4136 115.732Z" fill="white"/>
</g>
<g opacity="0.5">
<path opacity="0.5" d="M123.253 129.755C121.867 127.47 120.656 125.084 119.63 122.616C118.417 120.233 117.395 117.757 116.574 115.212C119.185 119.859 121.422 124.705 123.266 129.707L123.253 129.755Z" fill="white"/>
</g>
</svg>
