<svg width="24" height="24" viewBox="0 0 24 24" fill="none" xmlns="http://www.w3.org/2000/svg">
<path fill-rule="evenodd" clip-rule="evenodd" d="M10.9995 4C7.13352 4 3.99951 7.13401 3.99951 11C3.99951 14.866 7.13352 18 10.9995 18C14.8655 18 17.9995 14.866 17.9995 11C17.9995 7.13401 14.8655 4 10.9995 4ZM1.99951 11C1.99951 6.02944 6.02895 2 10.9995 2C15.9701 2 19.9995 6.02944 19.9995 11C19.9995 15.9706 15.9701 20 10.9995 20C6.02895 20 1.99951 15.9706 1.99951 11Z" fill="#00D1C2"/>
<path fill-rule="evenodd" clip-rule="evenodd" d="M15.9413 15.9429C16.3319 15.5524 16.965 15.5524 17.3555 15.9429L21.7055 20.2929C22.0961 20.6834 22.0961 21.3166 21.7055 21.7071C21.315 22.0977 20.6819 22.0977 20.2913 21.7071L15.9413 17.3571C15.5508 16.9666 15.5508 16.3334 15.9413 15.9429Z" fill="#00D1C2"/>
</svg>
