<svg width="157" height="148" viewBox="0 0 157 148" fill="none" xmlns="http://www.w3.org/2000/svg">
<path d="M116.176 111.812L37.0052 132.2C34.3197 132.888 31.4708 132.483 29.0835 131.073C26.6962 129.664 24.9655 127.365 24.2711 124.681L0.327827 31.7013C-0.360501 29.0157 0.0445413 26.1668 1.4541 23.7795C2.86365 21.3922 5.16261 19.6615 7.84661 18.9671L81.5019 0L100.354 8.43956L123.695 99.078C124.383 101.764 123.978 104.613 122.568 107C121.159 109.387 118.86 111.118 116.176 111.812V111.812Z" fill="#F2F2F2"/>
<path d="M8.59775 21.8823C6.68642 22.3768 5.04928 23.6093 4.0455 25.3093C3.04173 27.0093 2.75329 29.0381 3.24347 30.9506L27.1867 123.93C27.6812 125.841 28.9137 127.478 30.6137 128.482C32.3138 129.486 34.3425 129.774 36.255 129.284L115.426 108.897C117.337 108.402 118.974 107.17 119.978 105.47C120.982 103.77 121.27 101.741 120.78 99.8285L97.8011 10.5947L81.2333 3.17786L8.59775 21.8823Z" fill="white"/>
<path d="M100.153 8.91931L87.9006 12.0745C87.0061 12.3048 86.0567 12.1704 85.2614 11.7008C84.466 11.2311 83.8898 10.4648 83.6594 9.57035L81.329 0.520871C81.3188 0.481253 81.32 0.439561 81.3324 0.400577C81.3448 0.361593 81.3679 0.326896 81.3992 0.300463C81.4304 0.274031 81.4685 0.256933 81.5089 0.251132C81.5494 0.24533 81.5908 0.251059 81.6281 0.267662L100.187 8.50959C100.229 8.52794 100.263 8.55868 100.286 8.59756C100.309 8.63644 100.32 8.68152 100.316 8.72655C100.312 8.77159 100.295 8.81434 100.265 8.84888C100.236 8.88342 100.197 8.90804 100.153 8.91931Z" fill="#F2F2F2"/>
<path d="M93.7059 88.3216L57.6607 97.604C57.4392 97.661 57.2087 97.6738 56.9823 97.6418C56.7559 97.6097 56.538 97.5334 56.3411 97.4171C56.1442 97.3008 55.9721 97.1469 55.8347 96.9641C55.6972 96.7814 55.5971 96.5733 55.5401 96.3518C55.4831 96.1304 55.4702 95.8999 55.5023 95.6734C55.5344 95.447 55.6107 95.2291 55.727 95.0322C55.8432 94.8353 55.9972 94.6632 56.1799 94.5258C56.3627 94.3883 56.5707 94.2882 56.7922 94.2312L92.8374 84.9489C93.0589 84.8918 93.2894 84.879 93.5158 84.9111C93.7422 84.9431 93.9601 85.0195 94.1571 85.1357C94.354 85.252 94.5261 85.4059 94.6635 85.5887C94.8009 85.7715 94.901 85.9795 94.958 86.201C95.0151 86.4224 95.0279 86.653 94.9958 86.8794C94.9638 87.1058 94.8874 87.3237 94.7712 87.5206C94.6549 87.7175 94.501 87.8896 94.3182 88.0271C94.1355 88.1645 93.9274 88.2646 93.7059 88.3216Z" fill="#CCCCCC"/>
<path d="M102.129 92.2216L59.1277 103.295C58.6805 103.41 58.2058 103.343 57.8081 103.108C57.4105 102.873 57.1223 102.49 57.0072 102.043C56.892 101.596 56.9592 101.121 57.194 100.723C57.4288 100.326 57.812 100.037 58.2592 99.9223L101.261 88.8489C101.708 88.7342 102.182 88.8017 102.579 89.0365C102.977 89.2714 103.265 89.6544 103.38 90.1014C103.495 90.5483 103.428 91.0227 103.193 91.4203C102.959 91.8179 102.576 92.106 102.129 92.2216Z" fill="#CCCCCC"/>
<path d="M42.9497 108.783C46.3489 108.783 49.1044 106.027 49.1044 102.628C49.1044 99.229 46.3489 96.4735 42.9497 96.4735C39.5506 96.4735 36.795 99.229 36.795 102.628C36.795 106.027 39.5506 108.783 42.9497 108.783Z" fill="#E6E6E6"/>
<path d="M89.8736 72.2148L42.0019 84.5376C40.6184 84.8921 39.1508 84.6833 37.921 83.9571C36.6913 83.2309 35.7998 82.0465 35.4422 80.6638L25.4101 41.6915C25.0556 40.308 25.2644 38.8404 25.9907 37.6106C26.7169 36.3809 27.9013 35.4894 29.284 35.1319L77.1557 22.809C78.5392 22.4545 80.0068 22.6633 81.2366 23.3896C82.4663 24.1158 83.3578 25.3002 83.7154 26.6829L93.7475 65.6551C94.102 67.0386 93.8932 68.5062 93.1669 69.736C92.4407 70.9657 91.2563 71.8572 89.8736 72.2148Z" fill="white"/>
<path d="M89.8736 72.2148L42.0019 84.5376C40.6184 84.8921 39.1508 84.6833 37.921 83.9571C36.6913 83.2309 35.7998 82.0465 35.4422 80.6638L25.4101 41.6915C25.0556 40.308 25.2644 38.8404 25.9907 37.6106C26.7169 36.3809 27.9013 35.4894 29.284 35.1319L77.1557 22.809C78.5392 22.4545 80.0068 22.6633 81.2366 23.3896C82.4663 24.1158 83.3578 25.3002 83.7154 26.6829L93.7475 65.6551C94.102 67.0386 93.8932 68.5062 93.1669 69.736C92.4407 70.9657 91.2563 71.8572 89.8736 72.2148ZM29.442 35.7456C28.222 36.0611 27.1769 36.8477 26.5361 37.9328C25.8953 39.0178 25.7111 40.3128 26.0238 41.5335L36.056 80.5058C36.3715 81.7258 37.1581 82.7708 38.2432 83.4116C39.3282 84.0524 40.6232 84.2367 41.8439 83.9239L89.7156 71.601C90.9357 71.2855 91.9807 70.4989 92.6215 69.4139C93.2623 68.3288 93.4465 67.0339 93.1338 65.8131L83.1016 26.8409C82.7861 25.6208 81.9995 24.5758 80.9144 23.935C79.8294 23.2942 78.5344 23.11 77.3137 23.4227L29.442 35.7456Z" fill="#E6E6E6"/>
<path d="M74.7282 35.912L50.568 42.1312C50.3567 42.1901 50.131 42.1667 49.9364 42.0656C49.7418 41.9645 49.5928 41.7933 49.5196 41.5866C49.4855 41.4786 49.4738 41.3648 49.4852 41.2522C49.4965 41.1395 49.5307 41.0303 49.5857 40.9313C49.6406 40.8323 49.7151 40.7455 49.8047 40.6763C49.8943 40.607 49.9971 40.5567 50.1067 40.5285L74.7003 34.1978C75.6938 34.7012 75.4324 35.7308 74.7279 35.9121L74.7282 35.912Z" fill="#F2F2F2"/>
<path d="M75.8181 40.1504L51.6579 46.3694C51.4467 46.4284 51.221 46.4049 51.0264 46.3038C50.8317 46.2028 50.6828 46.0316 50.6096 45.8249C50.5755 45.7169 50.5638 45.6031 50.5751 45.4904C50.5865 45.3777 50.6207 45.2686 50.6756 45.1696C50.7305 45.0706 50.8051 44.9838 50.8947 44.9145C50.9843 44.8453 51.087 44.795 51.1967 44.7668L75.7903 38.4362C76.7838 38.9395 76.5224 39.9691 75.8179 40.1504L75.8181 40.1504Z" fill="#F2F2F2"/>
<path d="M47.057 50.1271L39.6835 52.0252C39.4427 52.0869 39.1872 52.0506 38.9732 51.9241C38.7591 51.7977 38.6039 51.5915 38.5417 51.3509L36.3019 42.6495C36.2401 42.4087 36.2765 42.1532 36.4029 41.9392C36.5293 41.7251 36.7355 41.5699 36.9762 41.5077L44.3496 39.6097C44.5904 39.548 44.8459 39.5844 45.0599 39.7108C45.2739 39.8372 45.4291 40.0433 45.4914 40.284L47.7312 48.9853C47.793 49.2261 47.7566 49.4816 47.6302 49.6957C47.5038 49.9097 47.2976 50.0649 47.057 50.1271V50.1271Z" fill="#E6E6E6"/>
<path d="M77.9826 48.8452L41.1097 58.3366C40.8985 58.3956 40.6728 58.3721 40.4781 58.271C40.2835 58.17 40.1346 57.9988 40.0614 57.7921C40.0273 57.6841 40.0156 57.5703 40.0269 57.4576C40.0383 57.3449 40.0724 57.2358 40.1274 57.1368C40.1823 57.0378 40.2569 56.951 40.3465 56.8817C40.436 56.8125 40.5388 56.7622 40.6485 56.734L77.9551 47.1309C78.9485 47.6343 78.6871 48.6638 77.9826 48.8452L77.9826 48.8452Z" fill="#F2F2F2"/>
<path d="M79.0726 53.0849L42.1997 62.5769C41.9885 62.6358 41.7627 62.6124 41.5681 62.5113C41.3735 62.4102 41.2245 62.239 41.1513 62.0323C41.1172 61.9243 41.1055 61.8105 41.1169 61.6978C41.1282 61.5852 41.1624 61.476 41.2174 61.377C41.2723 61.278 41.3468 61.1912 41.4364 61.1219C41.526 61.0526 41.6288 61.0024 41.7384 60.9741L79.045 51.3705C80.0385 51.8739 79.7771 52.9036 79.0726 53.0849V53.0849Z" fill="#F2F2F2"/>
<path d="M80.1626 57.3211L43.2897 66.8131C43.0784 66.8721 42.8527 66.8486 42.6581 66.7475C42.4635 66.6464 42.3145 66.4752 42.2413 66.2685C42.2072 66.1605 42.1955 66.0467 42.2068 65.934C42.2182 65.8214 42.2524 65.7122 42.3073 65.6132C42.3623 65.5142 42.4368 65.4274 42.5264 65.3581C42.616 65.2889 42.7187 65.2386 42.8284 65.2103L80.135 55.6067C81.1285 56.1101 80.8671 57.1397 80.1626 57.3211Z" fill="#F2F2F2"/>
<path d="M81.2534 61.5593L44.3805 71.051C44.1692 71.11 43.9435 71.0866 43.7489 70.9855C43.5543 70.8844 43.4053 70.7132 43.3321 70.5064C43.298 70.3985 43.2863 70.2847 43.2977 70.172C43.309 70.0593 43.3432 69.9502 43.3981 69.8511C43.4531 69.7521 43.5276 69.6654 43.6172 69.5961C43.7068 69.5268 43.8096 69.4766 43.9192 69.4483L81.2258 59.845C82.2193 60.3484 81.9579 61.378 81.2534 61.5593L81.2534 61.5593Z" fill="#F2F2F2"/>
<path d="M82.3452 65.7963L45.4723 75.2881C45.261 75.3471 45.0353 75.3237 44.8407 75.2226C44.6461 75.1215 44.4971 74.9503 44.4239 74.7435C44.3898 74.6356 44.3781 74.5218 44.3895 74.4091C44.4008 74.2964 44.435 74.1873 44.4899 74.0882C44.5449 73.9892 44.6194 73.9024 44.709 73.8332C44.7986 73.7639 44.9013 73.7136 45.011 73.6854L82.3176 64.082C83.3111 64.5854 83.0497 65.615 82.3452 65.7963Z" fill="#F2F2F2"/>
<path d="M43.4038 104.785C43.2697 104.82 43.128 104.81 43 104.758L42.9921 104.754L41.3154 104.043C41.2376 104.011 41.1671 103.963 41.1078 103.902C41.0485 103.842 41.0017 103.771 40.9701 103.692C40.9384 103.614 40.9225 103.53 40.9232 103.446C40.924 103.361 40.9414 103.278 40.9745 103.2C41.0075 103.122 41.0556 103.052 41.1159 102.993C41.1763 102.933 41.2477 102.887 41.326 102.855C41.4044 102.824 41.4883 102.808 41.5728 102.809C41.6573 102.81 41.7408 102.827 41.8185 102.86L42.9049 103.322L44.3286 99.9733C44.3616 99.8956 44.4096 99.8252 44.4698 99.7661C44.53 99.707 44.6013 99.6604 44.6796 99.6288C44.7578 99.5972 44.8415 99.5814 44.9259 99.5822C45.0103 99.583 45.0937 99.6004 45.1713 99.6334L45.1715 99.6335L45.163 99.6554L45.1719 99.6334C45.3286 99.7002 45.4524 99.8265 45.5161 99.9846C45.5798 100.143 45.5782 100.319 45.5117 100.476L43.8367 104.414C43.7979 104.505 43.7387 104.586 43.6636 104.65C43.5886 104.714 43.4998 104.76 43.4041 104.785L43.4038 104.785Z" fill="white"/>
<path d="M146.543 147.244H64.7893C62.017 147.241 59.3591 146.138 57.3987 144.178C55.4384 142.218 54.3357 139.56 54.3325 136.787V40.7745C54.3357 38.0022 55.4384 35.3442 57.3987 33.3839C59.3591 31.4235 62.017 30.3208 64.7893 30.3177H140.848L157 43.1919V136.787C156.996 139.56 155.894 142.218 153.933 144.178C151.973 146.138 149.315 147.241 146.543 147.244Z" fill="#DFDFDF"/>
<path d="M64.7882 33.3281C62.814 33.3304 60.9212 34.1156 59.5252 35.5116C58.1292 36.9076 57.3439 38.8004 57.3417 40.7747V136.787C57.3439 138.762 58.1292 140.654 59.5252 142.05C60.9212 143.447 62.814 144.232 64.7882 144.234H146.542C148.516 144.232 150.409 143.447 151.805 142.05C153.201 140.654 153.986 138.762 153.988 136.787V44.6423L139.793 33.3281H64.7882Z" fill="white"/>
<path d="M130.641 61.2456H93.4196C92.9577 61.2456 92.5148 61.0622 92.1882 60.7356C91.8617 60.409 91.6782 59.9661 91.6782 59.5042C91.6782 59.0424 91.8617 58.5995 92.1882 58.2729C92.5148 57.9463 92.9577 57.7628 93.4196 57.7628H130.641C131.103 57.7628 131.546 57.9463 131.872 58.2729C132.199 58.5995 132.382 59.0424 132.382 59.5042C132.382 59.9661 132.199 60.409 131.872 60.7356C131.546 61.0622 131.103 61.2456 130.641 61.2456Z" fill="#00D1C2"/>
<path d="M137.823 67.1228H93.419C92.9576 67.1221 92.5153 66.9384 92.1892 66.6119C91.8632 66.2854 91.6801 65.8429 91.6801 65.3814C91.6801 64.92 91.8632 64.4775 92.1892 64.151C92.5153 63.8245 92.9576 63.6407 93.419 63.6401H137.823C138.052 63.6398 138.279 63.6846 138.49 63.772C138.702 63.8594 138.894 63.9876 139.056 64.1493C139.218 64.311 139.347 64.5031 139.434 64.7145C139.522 64.9259 139.567 65.1526 139.567 65.3814C139.567 65.6103 139.522 65.8369 139.434 66.0484C139.347 66.2598 139.218 66.4519 139.056 66.6136C138.894 66.7753 138.702 66.9035 138.49 66.9909C138.279 67.0783 138.052 67.1231 137.823 67.1228Z" fill="#00D1C2"/>
<path d="M130.641 84.0999H93.4213C92.9595 84.0999 92.5166 84.2834 92.19 84.61C91.8635 84.9365 91.6801 85.3794 91.6801 85.8412C91.6801 86.303 91.8635 86.7459 92.19 87.0725C92.5166 87.3991 92.9595 87.5825 93.4213 87.5825H130.641C131.103 87.5825 131.546 87.3991 131.873 87.0725C132.199 86.7459 132.382 86.303 132.382 85.8412C132.382 85.3794 132.199 84.9365 131.873 84.61C131.546 84.2834 131.103 84.0999 130.641 84.0999Z" fill="#CCCCCC"/>
<path d="M137.825 89.9781H93.4213C92.9595 89.9781 92.5166 90.1616 92.19 90.4881C91.8635 90.8147 91.6801 91.2576 91.6801 91.7194C91.6801 92.1813 91.8635 92.6242 92.19 92.9507C92.5166 93.2773 92.9595 93.4608 93.4213 93.4608H137.825C138.287 93.4608 138.729 93.2773 139.056 92.9507C139.383 92.6242 139.566 92.1813 139.566 91.7194C139.566 91.2576 139.383 90.8147 139.056 90.4881C138.729 90.1616 138.287 89.9781 137.825 89.9781Z" fill="#CCCCCC"/>
<path d="M130.641 113.921H93.4196C92.9577 113.921 92.5148 113.738 92.1882 113.411C91.8617 113.085 91.6782 112.642 91.6782 112.18C91.6782 111.718 91.8617 111.275 92.1882 110.949C92.5148 110.622 92.9577 110.439 93.4196 110.439H130.641C131.103 110.439 131.546 110.622 131.872 110.949C132.199 111.275 132.382 111.718 132.382 112.18C132.382 112.642 132.199 113.085 131.872 113.411C131.546 113.738 131.103 113.921 130.641 113.921Z" fill="#CCCCCC"/>
<path d="M137.823 119.798H93.419C92.9576 119.797 92.5153 119.614 92.1892 119.287C91.8632 118.961 91.6801 118.518 91.6801 118.057C91.6801 117.595 91.8632 117.153 92.1892 116.826C92.5153 116.5 92.9576 116.316 93.419 116.315H137.823C138.052 116.315 138.279 116.36 138.49 116.447C138.702 116.534 138.894 116.663 139.056 116.824C139.218 116.986 139.347 117.178 139.434 117.39C139.522 117.601 139.567 117.828 139.567 118.057C139.567 118.286 139.522 118.512 139.434 118.724C139.347 118.935 139.218 119.127 139.056 119.289C138.894 119.451 138.702 119.579 138.49 119.666C138.279 119.754 138.052 119.798 137.823 119.798Z" fill="#CCCCCC"/>
<path d="M77.9198 68.5976C81.319 68.5976 84.0745 65.8421 84.0745 62.4429C84.0745 59.0438 81.319 56.2882 77.9198 56.2882C74.5207 56.2882 71.7651 59.0438 71.7651 62.4429C71.7651 65.8421 74.5207 68.5976 77.9198 68.5976Z" fill="#00D1C2"/>
<path d="M77.3112 64.7911C77.1728 64.7913 77.038 64.7465 76.9272 64.6634L76.9203 64.6583L75.4739 63.5517C75.4067 63.5004 75.3503 63.4364 75.3078 63.3633C75.2654 63.2902 75.2379 63.2094 75.2267 63.1256C75.2155 63.0418 75.221 62.9566 75.2428 62.8749C75.2646 62.7933 75.3023 62.7167 75.3537 62.6496C75.4052 62.5825 75.4693 62.5262 75.5425 62.484C75.6157 62.4417 75.6966 62.4143 75.7804 62.4033C75.8642 62.3923 75.9493 62.398 76.031 62.42C76.1126 62.442 76.1891 62.4798 76.256 62.5314L77.1929 63.2499L79.4068 60.3614C79.4582 60.2944 79.5222 60.2382 79.5952 60.196C79.6683 60.1538 79.749 60.1264 79.8326 60.1153C79.9163 60.1043 80.0013 60.1098 80.0828 60.1316C80.1643 60.1534 80.2407 60.1911 80.3077 60.2424L80.3079 60.2425L80.2941 60.2616L80.3082 60.2425C80.4433 60.3464 80.5317 60.4996 80.554 60.6685C80.5763 60.8374 80.5306 61.0083 80.4271 61.1436L77.823 64.5396C77.7628 64.6179 77.6853 64.6812 77.5967 64.7247C77.508 64.7681 77.4105 64.7906 77.3118 64.7903L77.3112 64.7911Z" fill="white"/>
<path d="M84.7083 88.7805C84.7086 89.5888 84.5497 90.3893 84.2406 91.1362C83.9315 91.8831 83.4783 92.5618 82.9068 93.1335C82.3354 93.7053 81.6569 94.1588 80.9102 94.4683C80.1634 94.7778 79.363 94.9372 78.5546 94.9373C78.5018 94.9383 78.4488 94.9362 78.3962 94.9309C77.186 94.8999 76.0119 94.5127 75.0207 93.8177C74.0295 93.1227 73.2653 92.1508 72.8237 91.0237C72.3822 89.8965 72.2828 88.6642 72.5381 87.4808C72.7934 86.2975 73.392 85.2158 74.259 84.3709C75.126 83.5261 76.223 82.9558 77.4125 82.7312C78.6021 82.5067 79.8314 82.638 80.9468 83.1086C82.0621 83.5793 83.0138 84.3684 83.6829 85.3773C84.352 86.3862 84.7087 87.5699 84.7083 88.7805Z" fill="#CCCCCC"/>
<path d="M77.9198 121.273C81.319 121.273 84.0745 118.518 84.0745 115.119C84.0745 111.72 81.319 108.964 77.9198 108.964C74.5207 108.964 71.7651 111.72 71.7651 115.119C71.7651 118.518 74.5207 121.273 77.9198 121.273Z" fill="#CCCCCC"/>
<path d="M156.685 43.6062H144.032C143.108 43.6062 142.223 43.2392 141.569 42.5861C140.916 41.933 140.549 41.0471 140.549 40.1235V30.7785C140.549 30.7376 140.561 30.6976 140.583 30.6629C140.604 30.6282 140.636 30.6004 140.672 30.5826C140.709 30.5648 140.75 30.5577 140.791 30.5622C140.832 30.5667 140.87 30.5825 140.902 30.6079L156.82 43.2179C156.855 43.2459 156.881 43.2843 156.894 43.3277C156.906 43.3711 156.905 43.4174 156.89 43.46C156.875 43.5027 156.848 43.5397 156.811 43.5659C156.774 43.5921 156.73 43.6062 156.685 43.6062Z" fill="#CCCCCC"/>
<path d="M84.7071 88.7803C84.7074 89.5886 84.5484 90.3891 84.2393 91.136C83.9302 91.883 83.477 92.5617 82.9056 93.1334C82.3341 93.7051 81.6557 94.1587 80.9089 94.4682C80.1622 94.7777 79.3617 94.9371 78.5534 94.9372C78.5005 94.9382 78.4476 94.9361 78.395 94.9308C77.5998 92.9476 77.2933 90.8022 77.5012 88.6757C77.7091 86.5492 78.4254 84.5038 79.5896 82.7121C81.0213 82.9575 82.3201 83.7012 83.2566 84.8116C84.193 85.922 84.7068 87.3277 84.7071 88.7803Z" fill="#00D1C2"/>
<path d="M91.6782 85.8428C91.6791 85.3808 91.8629 84.938 92.1896 84.6113C92.5162 84.2847 92.9591 84.1008 93.421 84.0999H102.696C103.238 85.2018 103.623 86.374 103.84 87.5825H93.421C92.9594 87.5824 92.5166 87.3992 92.1899 87.073C91.8632 86.7469 91.6792 86.3045 91.6782 85.8428Z" fill="#00D1C2"/>
<path d="M104.056 89.9781C104.056 91.1543 103.901 92.3255 103.593 93.4608H93.4213C92.9595 93.4608 92.5166 93.2773 92.19 92.9507C91.8635 92.6242 91.6801 92.1813 91.6801 91.7194C91.6801 91.2576 91.8635 90.8147 92.19 90.4881C92.5166 90.1616 92.9595 89.9781 93.4213 89.9781H104.056Z" fill="#00D1C2"/>
<path d="M127.006 111.455C126.743 111.885 126.32 112.194 125.83 112.312C125.34 112.431 124.823 112.35 124.392 112.088L102.21 98.5572C101.997 98.4271 101.811 98.2564 101.664 98.0547C101.517 97.853 101.411 97.6243 101.352 97.3817C101.293 97.139 101.283 96.8872 101.321 96.6405C101.36 96.3938 101.447 96.1571 101.577 95.944C101.707 95.7308 101.877 95.5454 102.079 95.3982C102.281 95.251 102.51 95.145 102.752 95.0862C102.995 95.0274 103.247 95.017 103.493 95.0556C103.74 95.0941 103.977 95.1809 104.19 95.3109L126.373 108.842C126.803 109.104 127.112 109.527 127.23 110.017C127.349 110.507 127.268 111.024 127.006 111.455Z" fill="#3F3D56"/>
<path d="M104.822 97.924C103.256 100.492 100.963 102.538 98.2336 103.803C95.5043 105.068 92.4611 105.496 89.489 105.031C86.5168 104.567 83.7491 103.231 81.5359 101.194C79.3226 99.1566 77.7632 96.5086 77.0549 93.5849C76.3466 90.6612 76.5212 87.5932 77.5566 84.7687C78.5919 81.9443 80.4416 79.4903 82.8717 77.717C85.3017 75.9438 88.2031 74.931 91.2087 74.8067C94.2144 74.6824 97.1894 75.4521 99.7576 77.0186C103.198 79.1224 105.663 82.5049 106.613 86.4241C107.562 90.3432 106.918 94.479 104.822 97.924ZM82.0985 84.0634C80.9236 85.9895 80.3463 88.2208 80.4396 90.4751C80.5328 92.7293 81.2924 94.9053 82.6223 96.7279C83.9522 98.5504 85.7927 99.9377 87.9111 100.714C90.0294 101.491 92.3304 101.622 94.5232 101.09C96.7159 100.559 98.7019 99.3897 100.23 97.7297C101.758 96.0698 102.76 93.994 103.108 91.7649C103.456 89.5358 103.136 87.2534 102.187 85.2064C101.238 83.1594 99.7037 81.4398 97.7775 80.2649C95.1938 78.6929 92.092 78.21 89.1526 78.9221C86.2132 79.6342 83.6763 81.4832 82.0985 84.0634Z" fill="#3F3D56"/>
</svg>
