<svg width="119" height="24" viewBox="0 0 119 24" fill="none" xmlns="http://www.w3.org/2000/svg">
<path d="M40.816 9.312L39.088 9.856C39.0133 9.41867 38.7947 9.01867 38.432 8.656C38.0693 8.29333 37.5467 8.112 36.864 8.112C36.2987 8.112 35.8293 8.272 35.456 8.592C35.0933 8.912 34.912 9.296 34.912 9.744C34.912 10.5227 35.3547 11.008 36.24 11.2L37.872 11.536C38.8533 11.728 39.6107 12.1173 40.144 12.704C40.6773 13.2907 40.944 13.9893 40.944 14.8C40.944 15.7387 40.5813 16.5493 39.856 17.232C39.1413 17.904 38.1653 18.24 36.928 18.24C35.5947 18.24 34.5547 17.8933 33.808 17.2C33.0613 16.496 32.64 15.68 32.544 14.752L34.336 14.24C34.4 14.88 34.656 15.4187 35.104 15.856C35.552 16.2933 36.16 16.512 36.928 16.512C37.5893 16.512 38.096 16.368 38.448 16.08C38.8107 15.7813 38.992 15.4027 38.992 14.944C38.992 14.5707 38.8587 14.2507 38.592 13.984C38.3253 13.7067 37.952 13.5147 37.472 13.408L35.872 13.072C34.9867 12.8907 34.2827 12.5227 33.76 11.968C33.248 11.4133 32.992 10.72 32.992 9.888C32.992 8.93867 33.3707 8.12267 34.128 7.44C34.8853 6.75733 35.792 6.416 36.848 6.416C38.0533 6.416 38.976 6.70933 39.616 7.296C40.256 7.872 40.656 8.544 40.816 9.312ZM44.556 13.424V18H42.7V6.416H44.556V10.96C45.0573 10.3093 45.7987 9.984 46.78 9.984C47.6973 9.984 48.4013 10.272 48.892 10.848C49.3827 11.424 49.628 12.1653 49.628 13.072V18H47.772V13.392C47.772 12.8693 47.644 12.4533 47.388 12.144C47.132 11.824 46.7267 11.664 46.172 11.664C45.6813 11.664 45.292 11.8293 45.004 12.16C44.7267 12.4907 44.5773 12.912 44.556 13.424ZM53.7595 15.92C54.1862 16.3573 54.7035 16.576 55.3115 16.576C55.9195 16.576 56.4315 16.3573 56.8475 15.92C57.2742 15.4827 57.4875 14.8747 57.4875 14.096C57.4875 13.328 57.2742 12.7307 56.8475 12.304C56.4315 11.8667 55.9195 11.648 55.3115 11.648C54.7035 11.648 54.1862 11.8667 53.7595 12.304C53.3435 12.7307 53.1355 13.328 53.1355 14.096C53.1355 14.864 53.3435 15.472 53.7595 15.92ZM55.3115 9.968C56.4848 9.968 57.4502 10.3573 58.2075 11.136C58.9755 11.9147 59.3595 12.9013 59.3595 14.096C59.3595 15.2907 58.9755 16.2827 58.2075 17.072C57.4502 17.8507 56.4848 18.24 55.3115 18.24C54.1488 18.24 53.1835 17.8507 52.4155 17.072C51.6582 16.2827 51.2795 15.2907 51.2795 14.096C51.2795 12.9013 51.6582 11.9147 52.4155 11.136C53.1835 10.3573 54.1488 9.968 55.3115 9.968ZM65.3816 10.208H67.3016L69.1416 15.6L70.6936 10.208H72.5816L70.0856 18H68.2296L66.2936 12.4L64.4056 18H62.5016L59.9736 10.208H61.9576L63.5416 15.6L65.3816 10.208ZM81.1176 6.336C81.555 6.336 81.8803 6.38933 82.0936 6.496V8.08C81.9016 8.02667 81.6776 8 81.4216 8C81.123 8 80.8563 8.09067 80.6216 8.272C80.387 8.45333 80.2696 8.75733 80.2696 9.184V10.208H85.4536V18H83.6296V11.824H80.2696V18H78.3976V11.824H77.0376V10.208H78.3976V9.136C78.3976 8.272 78.6483 7.58933 79.1496 7.088C79.651 6.58667 80.307 6.336 81.1176 6.336ZM83.3416 7.456C83.3416 7.11467 83.459 6.82667 83.6936 6.592C83.9283 6.35733 84.211 6.24 84.5416 6.24C84.883 6.24 85.171 6.36267 85.4056 6.608C85.6403 6.84267 85.7576 7.12533 85.7576 7.456C85.7576 7.78667 85.635 8.06933 85.3896 8.304C85.155 8.53867 84.8723 8.656 84.5416 8.656C84.211 8.656 83.9283 8.53867 83.6936 8.304C83.459 8.06933 83.3416 7.78667 83.3416 7.456ZM89.7279 18H87.8719V6.416H89.7279V18ZM94.4739 7.824V10.208H96.0899V11.856H94.4739V15.472C94.4739 15.8133 94.5539 16.064 94.7139 16.224C94.8739 16.3733 95.1245 16.448 95.4659 16.448C95.6792 16.448 95.8925 16.4267 96.1059 16.384V17.92C95.8285 18.0373 95.4499 18.096 94.9699 18.096C94.2445 18.096 93.6739 17.8933 93.2579 17.488C92.8419 17.072 92.6339 16.5013 92.6339 15.776V11.856H91.1939V10.208H91.5939C91.9885 10.208 92.2872 10.096 92.4899 9.872C92.6925 9.648 92.7939 9.35467 92.7939 8.992V7.824H94.4739ZM99.2148 13.248H103.039C103.017 12.7573 102.841 12.3467 102.511 12.016C102.191 11.6853 101.727 11.52 101.119 11.52C100.564 11.52 100.116 11.696 99.7748 12.048C99.4334 12.3893 99.2468 12.7893 99.2148 13.248ZM103.247 15.28L104.815 15.776C104.591 16.4907 104.169 17.0827 103.551 17.552C102.943 18.0107 102.191 18.24 101.295 18.24C100.185 18.24 99.2414 17.8613 98.4628 17.104C97.6948 16.3467 97.3108 15.3333 97.3108 14.064C97.3108 12.8693 97.6841 11.888 98.4308 11.12C99.1881 10.352 100.079 9.968 101.103 9.968C102.297 9.968 103.231 10.336 103.903 11.072C104.575 11.7973 104.911 12.7787 104.911 14.016C104.911 14.3467 104.895 14.544 104.863 14.608H99.1668C99.1881 15.1947 99.4014 15.68 99.8068 16.064C100.223 16.448 100.719 16.64 101.295 16.64C102.297 16.64 102.948 16.1867 103.247 15.28ZM111.244 10.16V12.048C111.031 12.016 110.828 12 110.636 12C109.239 12 108.54 12.7627 108.54 14.288V18H106.684V10.208H108.492V11.456C108.674 11.04 108.967 10.7147 109.372 10.48C109.778 10.2347 110.236 10.112 110.748 10.112C110.919 10.112 111.084 10.128 111.244 10.16ZM112.121 15.888L113.737 15.44C113.769 15.8133 113.924 16.128 114.201 16.384C114.479 16.64 114.852 16.768 115.321 16.768C115.684 16.768 115.967 16.6827 116.169 16.512C116.383 16.3413 116.489 16.128 116.489 15.872C116.489 15.424 116.185 15.136 115.577 15.008L114.425 14.752C113.753 14.6027 113.236 14.3253 112.873 13.92C112.511 13.5147 112.329 13.0347 112.329 12.48C112.329 11.7973 112.607 11.2107 113.161 10.72C113.716 10.2187 114.393 9.968 115.193 9.968C115.705 9.968 116.159 10.0427 116.553 10.192C116.948 10.3413 117.252 10.5387 117.465 10.784C117.689 11.0187 117.86 11.248 117.977 11.472C118.095 11.696 118.169 11.92 118.201 12.144L116.633 12.592C116.591 12.2933 116.452 12.0267 116.217 11.792C115.993 11.5467 115.652 11.424 115.193 11.424C114.873 11.424 114.607 11.5147 114.393 11.696C114.18 11.8667 114.073 12.0747 114.073 12.32C114.073 12.7573 114.335 13.0293 114.857 13.136L116.041 13.376C116.767 13.536 117.321 13.824 117.705 14.24C118.089 14.656 118.281 15.1573 118.281 15.744C118.281 16.3947 118.02 16.976 117.497 17.488C116.985 17.9893 116.265 18.24 115.337 18.24C114.804 18.24 114.324 18.16 113.897 18C113.481 17.84 113.151 17.6373 112.905 17.392C112.671 17.136 112.484 16.8853 112.345 16.64C112.217 16.384 112.143 16.1333 112.121 15.888Z" fill="#00D1C2"/>
<path d="M5.39999 2.09998H18.6C19.7 2.09998 20.6 2.99998 20.6 4.09998V6.29998C20.6 7.09998 20.1 8.09998 19.6 8.59998L15.3 12.4C14.7 12.9 14.3 13.9 14.3 14.7V19C14.3 19.6 13.9 20.4 13.4 20.7L12 21.6C10.7 22.4 8.89999 21.5 8.89999 19.9V14.6C8.89999 13.9 8.49999 13 8.09999 12.5L4.29999 8.49998C3.79999 7.99998 3.39999 7.09998 3.39999 6.49998V4.19998C3.39999 2.99998 4.29999 2.09998 5.39999 2.09998Z" stroke="#00D1C2" stroke-width="1.5" stroke-miterlimit="10" stroke-linecap="round" stroke-linejoin="round"/>
<path d="M10.93 2.09998L6 9.99998" stroke="#00D1C2" stroke-width="1.5" stroke-miterlimit="10" stroke-linecap="round" stroke-linejoin="round"/>
</svg>
