<svg width="158" height="136" viewBox="0 0 158 136" fill="none" xmlns="http://www.w3.org/2000/svg">
<path d="M73.1976 0.643799H142.966C150.974 0.643799 157.466 7.13567 157.466 15.1438V94.322C157.466 102.33 150.974 108.822 142.966 108.822H73.1976C65.1895 108.822 58.6976 102.33 58.6976 94.3219V15.1438C58.6976 7.13566 65.1895 0.643799 73.1976 0.643799Z" fill="#FCF5EB" stroke="#383838"/>
<path d="M136.257 7.87155H79.9041C71.6198 7.87155 64.9041 14.5873 64.9041 22.8715V86.5974C64.9041 94.8816 71.6198 101.597 79.9041 101.597H136.257C144.541 101.597 151.257 94.8816 151.257 86.5974V22.8716C151.257 14.5873 144.541 7.87155 136.257 7.87155Z" fill="#FF5A5F"/>
<path d="M131.779 57.8441C131.148 57.053 130.258 56.5089 129.266 56.3069C128.274 56.1049 127.243 56.2577 126.352 56.7388C126.352 56.7388 132.798 42.5594 128.715 35.518C128.336 34.8648 127.842 34.2852 127.258 33.8068C128.279 29.1244 123.79 27.1554 120.233 25.3346C117.958 24.1684 115.541 23.3018 113.043 22.7566C108.396 21.7898 103.166 21.996 98.941 24.3292C94.2199 26.9298 89.4763 32.2535 84.5651 31.0483C83.5467 33.433 83.695 35.3923 84.3814 38.2347C84.9647 40.6484 86.3536 43.2458 88.1486 45.3856C88.9646 49.2927 90.1973 53.101 91.8256 56.7452C90.9349 56.2642 89.9035 56.1113 88.9116 56.3134C87.9197 56.5154 87.0303 57.0595 86.3987 57.8506C83.9334 60.6865 90.4688 67.8406 91.948 68.7043C93.0678 72.545 94.9192 76.133 97.4006 79.2711C98.9973 81.1893 100.884 82.8464 102.992 84.1824H102.518C102.518 84.1824 101.139 97.1952 98.6155 101.584H118.663C116.337 97.5174 114.986 86.1385 114.796 84.4112C117.063 83.0349 119.086 81.2926 120.784 79.255C123.265 76.1169 125.117 72.5288 126.236 68.6881C127.712 67.8341 134.248 60.6961 131.779 57.8441Z" fill="white"/>
<path d="M105.194 62.6298V58.0215C107.119 56.798 108.798 55.2239 110.143 53.381C111.248 51.8363 111.8 50.3002 111.8 48.7727C111.8 48.5475 111.786 48.3226 111.758 48.0992C111.687 47.4547 111.487 47.0551 111.152 46.8649C110.754 46.6602 110.31 46.5624 109.863 46.5814C109.46 46.5737 109.07 46.7214 108.774 46.9938C108.621 47.1288 108.5 47.2964 108.42 47.4844C108.34 47.6724 108.304 47.8759 108.313 48.0799C108.31 48.3051 108.324 48.5303 108.355 48.7534C108.371 48.8909 108.399 49.0268 108.439 49.1594C108.468 49.2464 108.526 49.3947 108.616 49.6074C108.706 49.82 108.78 49.9973 108.835 50.1359L101.936 51.4797C101.895 51.3314 101.821 51.0994 101.713 50.7836C101.61 50.4613 101.542 50.2519 101.517 50.1391C101.491 50.0263 101.442 49.8587 101.378 49.6267C101.325 49.4432 101.287 49.2556 101.265 49.066C101.249 48.9242 101.233 48.7437 101.21 48.5342C101.188 48.3248 101.181 48.0992 101.181 47.8672V47.7318C101.171 46.9044 101.298 46.081 101.558 45.2955C101.883 44.4144 102.417 43.6252 103.114 42.996C103.812 42.3667 104.651 41.9162 105.561 41.683C106.893 41.2996 108.275 41.1192 109.66 41.1481C112.807 41.1481 115.217 41.7808 116.888 43.0462C118.56 44.3116 119.395 46.0894 119.395 48.3796C119.395 50.427 118.692 52.5034 117.285 54.6088C116.047 56.5631 114.295 58.1394 112.222 59.1656V62.6298H105.194ZM105.003 70.2577V64.3249H112.451V70.2609L105.003 70.2577Z" fill="#007A87"/>
<path d="M9.55634 53.5548C9.55634 53.5548 11.8798 57.6958 10.7455 58.943C10.7455 58.943 13.8649 61.7789 16.3044 60.5865C18.7439 59.3941 17.3292 58.3307 17.3292 58.3307C17.3292 58.3307 15.6245 57.5831 14.7737 54.0124C13.9229 50.4418 9.55634 53.5548 9.55634 53.5548Z" fill="#FFBE9E"/>
<path d="M12.0152 59.8711C12.4431 59.1276 13.051 58.5037 13.783 58.0566C14.5151 57.6095 15.3477 57.3536 16.2045 57.3123C15.4981 56.3244 15.0073 55.199 14.764 54.0092C13.9197 50.4353 9.55634 53.5548 9.55634 53.5548C9.55634 53.5548 11.8798 57.6958 10.7455 58.943C11.1429 59.2861 11.5676 59.5965 12.0152 59.8711Z" fill="#F4A587"/>
<path d="M7.58704 48.6407C7.58704 48.6407 8.95342 44.9541 11.2157 44.9057C13.4779 44.8574 14.9603 45.0733 15.3374 45.9144C15.7144 46.7555 16.4427 49.1048 17.1001 49.9362C17.7575 50.7676 19.1078 51.815 19.1207 52.2178C19.1336 52.6206 17.8542 52.8816 17.7962 53.0492C17.7382 53.2168 17.316 56.1977 16.8713 56.5457C16.4266 56.8938 11.9504 55.5854 11.1673 54.3608C10.3842 53.1362 7.59993 50.9384 7.58704 48.6407Z" fill="#FFBE9E"/>
<path d="M12.2147 48.4892C12.8173 48.8984 14.3062 49.3045 16.591 47.9929C18.8758 46.6813 17.3354 41.3318 12.379 42.1922C7.4227 43.0526 7.81586 44.8154 6.93287 45.2988C6.04988 45.7822 5.38603 46.3784 5.07021 47.4289C4.52559 49.2465 4.67383 51.3315 7.21323 53.1812C9.75264 55.031 11.322 54.5444 11.322 54.5444C11.3575 53.8999 11.2028 52.8719 10.626 52.6109C10.3221 52.5314 10.0297 52.4134 9.75586 52.2596C9.08234 51.8052 9.3337 50.4872 10.5293 50.5419C11.0932 50.5677 11.4542 51.5087 11.8183 51.831C12.1825 52.1532 12.4177 52.0695 12.5982 51.976C12.9494 51.7988 13.0945 50.658 12.1889 49.572C11.5992 48.8823 11.6088 48.0799 12.2147 48.4892Z" fill="#007A87"/>
<path d="M2.03156 126.953C2.03156 126.953 -0.0115621 130.962 0.442823 131.787C0.897208 132.612 9.46608 136.173 10.4812 135.654C11.4963 135.135 11.5575 133.669 9.91724 132.489C8.1577 131.22 7.00079 131.4 5.9599 130.437C4.919 129.473 5.9599 127.655 5.9599 127.655L2.03156 126.953Z" fill="#383838"/>
<path d="M25.1954 128.074C25.1954 128.074 25.4694 132.805 26.2105 133.394C26.9517 133.984 36.2231 133.936 36.9676 133.072C37.712 132.209 37.2415 131 35.3563 130.623C33.658 130.285 32.4076 130.623 31.0928 130.111C29.9391 129.647 29.3139 127.094 29.3139 127.094L25.1954 128.074Z" fill="#383838"/>
<path d="M23.288 79.8771L11.2065 80.6216C11.2065 80.6216 20.2942 102.303 21.5445 104.91C22.7949 107.517 24.7414 129.015 24.7414 129.015L30.31 128.119C30.31 128.119 29.137 106.122 28.8437 104.311C27.4528 96.0683 25.598 87.9107 23.288 79.8771Z" fill="#00D1C1"/>
<path d="M19.1916 88.794C19.5848 86.7735 19.8619 84.1471 20.3034 82.1362C20.4774 81.337 21.5925 81.2983 21.6762 80.5023C21.4915 80.3617 21.3286 80.1944 21.1929 80.006L11.2028 80.6215C11.2028 80.6215 20.2905 102.303 21.5409 104.91C21.6633 105.168 21.8374 105.59 22.0501 106.132C22.0501 105.693 22.0275 105.258 21.9953 104.823C21.7375 101.301 18.7437 91.0917 19.1916 88.794Z" fill="#007A87"/>
<path d="M19.8847 80.8987H9.55632C8.43821 83.4624 8.02866 86.2792 8.37041 89.0551C8.99559 93.4797 7.65177 102.052 7.57766 103.186C7.50354 104.321 2.14437 122.931 1.3645 127.165L6.12104 128.867C6.12104 128.867 13.9358 106.087 14.2355 105.632C14.5352 105.178 19.8847 80.8987 19.8847 80.8987Z" fill="#00D1C1"/>
<path d="M23.9741 75.6588C23.9741 75.6588 26.0172 78.6075 27.4351 78.3819C28.853 78.1563 38.7593 71.6532 38.7593 71.6532L36.6775 70.2707C36.6775 70.2707 28.795 75.6588 28.0023 75.4268C27.5834 75.3076 25.4854 69.9065 23.7807 65.8589C21.6796 60.8736 20.4775 60.1517 20.4775 60.1517L23.9741 75.6588Z" fill="#F08568"/>
<path d="M23.9741 75.6588C23.9741 75.6588 26.0172 78.6075 27.4351 78.3819C28.853 78.1563 38.7593 71.6532 38.7593 71.6532L36.6775 70.2707C36.6775 70.2707 28.795 75.6588 28.0023 75.4268C27.6156 75.3172 25.3179 69.233 23.6389 65.5302C21.3605 60.4933 20.4775 60.1517 20.4775 60.1517L23.9741 75.6588Z" fill="#F4A587"/>
<path d="M24.8087 67.5152C24.8087 67.4894 23.9612 65.6203 23.6743 65.0596C21.3605 60.5222 20.4775 60.158 20.4775 60.158L22.482 69.0395C23.2844 68.598 24.3801 68.1082 24.8087 67.5152Z" fill="#E94762"/>
<path d="M24.8087 67.5152C24.8087 67.4894 23.9612 65.6203 23.6743 65.0596C21.3605 60.5222 20.4775 60.158 20.4775 60.158L22.482 69.0395C23.2844 68.598 24.3801 68.1082 24.8087 67.5152Z" fill="#EF4747"/>
<path d="M7.6032 84.5757C7.6032 84.5757 16.8681 86.8992 24.8086 84.0278C24.8086 84.0278 23.1168 76.3452 23.1168 72.2138C23.1168 68.7044 22.0146 61.1958 20.1745 59.8713C19.2755 59.1823 18.274 58.6386 17.2065 58.26C17.2065 58.26 16.5846 59.7907 15.1666 60.1291C13.7487 60.4675 11.0095 58.6628 11.0095 58.6628C11.0095 58.6628 5.41829 60.851 4.66742 62.0788C3.13347 64.5924 7.21004 71.6918 8.11559 75.3784C9.02114 79.0651 7.6032 84.5757 7.6032 84.5757Z" fill="#FF5A5F"/>
<path d="M14.9478 85.4361C14.5547 83.7411 14.516 81.9944 14.3033 80.2026C14.1358 78.6912 14.0552 77.2314 14.3807 75.8264C14.2679 75.4461 14.1583 75.0594 14.0584 74.7242C13.575 73.0388 13.6234 69.2716 11.6286 67.3671C10.4749 66.2682 9.06662 64.5634 7.35542 64.2669C5.28974 63.9092 6.29519 63.8996 4.45509 63.4709C4.53888 64.1509 3.62688 65.4432 3.91692 66.3713C5.10928 69.3264 7.51655 72.9808 8.10628 75.3945C9.01505 79.078 7.59389 84.5886 7.59389 84.5886C10.0115 85.1116 12.4747 85.3955 14.9478 85.4361Z" fill="#EF4747"/>
<path d="M70.6339 77.2604C74.6186 75.38 77.9785 72.3934 80.313 68.6566C82.6476 64.9199 83.8584 60.5906 83.801 56.1849C83.7437 51.7792 82.4207 47.4829 79.9896 43.8082C77.5586 40.1335 74.1222 37.2353 70.09 35.4592C66.0577 33.6831 61.5998 33.104 57.2476 33.7909C52.8954 34.4778 48.8325 36.4017 45.5433 39.3333C42.2541 42.265 39.8772 46.0806 38.6961 50.3254C37.515 54.5702 37.5794 59.0651 38.8818 63.2743L5.62463 79.3261C4.85822 79.6924 4.26745 80.3465 3.98079 81.1461C3.69413 81.9457 3.73478 82.8262 4.0939 83.596L4.1229 83.654C4.48864 84.421 5.14249 85.0125 5.94217 85.2998C6.74185 85.587 7.62263 85.5468 8.39283 85.188L41.6629 69.1201C44.7025 73.7378 49.3064 77.1035 54.6287 78.599C59.9509 80.0944 65.634 79.6191 70.6339 77.2604ZM44.8145 64.0478C43.3194 60.882 42.7966 57.3441 43.3122 53.8812C43.8279 50.4184 45.3587 47.1862 47.7113 44.5934C50.0638 42.0006 53.1324 40.1636 56.529 39.3148C59.9255 38.4659 63.4975 38.6433 66.7932 39.8245C70.089 41.0057 72.9604 43.1377 75.0445 45.9508C77.1286 48.7639 78.3317 52.1319 78.5017 55.6288C78.6717 59.1257 77.8009 62.5944 75.9995 65.5964C74.1981 68.5984 71.547 70.9989 68.3814 72.4942C64.1356 74.4983 59.2677 74.734 54.8482 73.1494C50.4288 71.5649 46.8196 68.2898 44.8145 64.0445V64.0478Z" fill="#383838"/>
<path d="M10.4008 70.1706C10.4008 70.1706 13.3526 76.242 13.9746 76.2935C14.5966 76.3451 25.3471 75.5201 26.127 75.0496C26.5551 74.7524 26.9563 74.4182 27.3258 74.0506C27.5036 73.8945 27.6897 73.7482 27.8833 73.6123C28.1222 73.4969 28.3536 73.3667 28.5762 73.2224C28.7437 73.0838 29.3302 72.2105 29.6622 72.2911C29.9232 72.3588 29.9007 72.5586 29.8555 72.768C29.7943 73.0419 29.4205 73.2997 29.24 73.4931C29.1369 73.6059 28.8275 73.9185 28.8823 74.0957C28.9564 74.3374 29.4882 73.9153 29.6106 73.8379C29.7964 73.7231 29.9628 73.5795 30.1037 73.4125C30.2658 73.22 30.4175 73.0188 30.5581 72.8099C30.6451 72.6842 30.7289 72.5489 30.8126 72.4232C30.9544 72.2137 31.0801 72.0236 31.2026 71.8012C31.296 71.6337 31.441 71.4435 31.6537 71.5563C31.8664 71.6691 31.6537 72.0784 31.5635 72.246C31.4674 72.423 31.3803 72.6048 31.3025 72.7906C31.2477 72.9163 31.0414 73.1128 31.1156 73.274C31.3441 73.0805 31.5419 72.8534 31.7021 72.6004C31.8116 72.4554 32.3466 71.5531 32.6141 71.7303C33.0137 72.0075 32.5335 72.6004 32.3498 72.8486C32.2305 73.0176 32.0921 73.1722 31.9373 73.3094C31.8696 73.3642 31.5732 73.6832 31.6151 73.6768C31.9921 73.6413 32.2596 73.0645 32.5013 72.797C32.6463 72.6294 33.1071 72.1525 33.1716 72.6294C33.1715 72.8186 33.1015 73.0011 32.975 73.1418C32.8141 73.3878 32.6138 73.6056 32.382 73.7864C32.2338 73.913 32.1037 74.0594 31.9953 74.2214C32.2789 74.2214 32.8364 73.4931 33.0942 73.6865C33.2586 73.8121 33.0781 74.157 32.9847 74.2601C32.3401 74.9884 31.3379 75.4782 30.4904 75.939C29.5651 76.4377 28.6106 76.88 27.6319 77.2635C26.2366 77.8146 14.4193 81.5173 12.9982 81.3466C11.577 81.1758 7.84202 73.9346 6.75923 71.827C5.67644 69.7195 10.4008 70.1706 10.4008 70.1706Z" fill="#FFBE9E"/>
<path d="M6.37615 73.4609C6.37615 73.4609 10.1176 72.0752 12.2735 70.1319C12.2735 70.1319 8.72864 59.0269 5.16124 61.5663C1.09433 64.4602 6.37615 73.4609 6.37615 73.4609Z" fill="#FF5A5F"/>
<path d="M36.7006 70.9377C36.8843 70.8153 37.1421 70.9377 37.4611 71.2278C37.039 70.7025 36.5362 70.1579 37.0325 70.0837C37.5288 70.0096 37.8414 70.7573 38.1894 70.9861C38.0057 70.7283 36.9004 69.9645 37.3354 69.3909C37.5868 69.0525 38.7631 70.3834 39.0047 70.6509C38.7759 70.435 37.7866 69.3909 38.3151 69.1782C38.7856 68.9848 39.4656 69.8743 39.8007 70.145C40.0489 70.3544 40.3969 70.5285 40.4452 70.8701C40.558 71.5307 39.588 71.9851 39.0853 72.1269C38.7506 72.2067 38.4033 72.2194 38.0637 72.1641C37.724 72.1087 37.3987 71.9866 37.1066 71.8046C36.7747 71.608 36.5137 71.057 36.7006 70.9377Z" fill="#FFBE9E"/>
<path d="M16.1113 48.2215C16.2187 48.7347 16.4257 49.2219 16.7204 49.6556C16.9936 50.0095 17.2954 50.3404 17.6227 50.6449C18.0255 51.0509 18.4348 51.457 18.8215 51.8824C18.9149 51.9855 19.0374 52.1144 18.9955 52.2659C18.9536 52.4173 18.8086 52.485 18.6958 52.5462C18.4105 52.6981 18.1103 52.8201 17.7999 52.9104C17.6678 52.9523 17.6871 53.0425 17.8257 53.0006C18.1125 52.9108 18.3934 52.8032 18.6668 52.6783C18.8694 52.6076 19.0489 52.4828 19.1856 52.3174C19.3307 52.0789 19.1115 51.8791 18.9568 51.7148C18.7216 51.4667 18.4831 51.2185 18.2446 50.9768C17.8773 50.5998 17.4841 50.2388 17.1425 49.8392C16.7423 49.3561 16.4678 48.7816 16.3433 48.1667C16.3433 48.1055 16.0952 48.1667 16.1113 48.2279V48.2215Z" fill="#3C3C3B"/>
<path d="M15.8403 54.0708C16.0147 54.338 16.2733 54.5393 16.5752 54.6427C16.8771 54.746 17.2049 54.7455 17.5064 54.6412C17.529 54.6412 17.6031 54.6057 17.5741 54.5703C17.5451 54.5348 17.4484 54.5703 17.4226 54.5703C17.2982 54.6063 17.1676 54.6162 17.0391 54.5993C16.8556 54.5818 16.6783 54.5235 16.5203 54.4285C16.3398 54.3209 16.1865 54.1731 16.0724 53.9967C16.0337 53.9387 15.8178 54.0257 15.8403 54.0611V54.0708Z" fill="#3C3C3B"/>
<path d="M16.1852 49.8717C16.0405 49.8122 15.8852 49.7829 15.7287 49.7854C15.5722 49.788 15.418 49.8225 15.2753 49.8867C15.1326 49.951 15.0045 50.0437 14.8989 50.1591C14.7933 50.2746 14.7123 50.4103 14.6609 50.5581C14.6416 50.6194 14.8736 50.5872 14.893 50.5195C14.9248 50.404 14.9794 50.296 15.0536 50.202C15.1277 50.1079 15.2199 50.0296 15.3248 49.9716C15.4308 49.9246 15.5456 49.9004 15.6615 49.9004C15.7775 49.9004 15.8923 49.9246 15.9983 49.9716C16.0259 49.9794 16.0549 49.9811 16.0833 49.9767C16.1117 49.9722 16.1387 49.9617 16.1627 49.9459C16.1884 49.9459 16.2368 49.8943 16.1852 49.875V49.8717Z" fill="#3C3C3B"/>
<path d="M15.9726 48.8177C15.5392 48.7999 15.1094 48.9037 14.7319 49.1174C14.5123 49.2395 14.3238 49.4104 14.1808 49.6169C14.1132 49.7168 14.4354 49.6749 14.458 49.6717C14.5503 49.6551 14.6401 49.6269 14.7254 49.5879C14.7816 49.5677 14.8316 49.5333 14.8705 49.488L14.922 49.4139L14.9607 49.3688C14.9607 49.3849 14.9607 49.3688 14.9607 49.3527C14.9607 49.3366 15.0316 49.2818 15.0703 49.2496L15.1379 49.198C15.1379 49.198 15.1831 49.1658 15.1379 49.198C15.0928 49.2302 15.1605 49.198 15.1605 49.1819C15.19 49.1701 15.2182 49.1549 15.2443 49.1368C15.2443 49.1368 15.1927 49.1593 15.2443 49.1368L15.3023 49.111C15.2862 49.111 15.2411 49.1335 15.283 49.111C15.3248 49.0884 15.3796 49.0917 15.283 49.111H15.3249C15.399 49.0884 15.2604 49.111 15.3023 49.111H15.3506C15.283 49.1368 15.2958 49.111 15.3281 49.111H15.3732C15.3732 49.111 15.4376 49.111 15.3732 49.111H15.486C15.6591 49.1037 15.8285 49.0586 15.9823 48.9789C16.008 48.9595 16.0757 48.9241 16.066 48.8822C16.0564 48.8403 15.9726 48.8435 15.9436 48.8403L15.9726 48.8177Z" fill="#3C3C3B"/>
<path d="M15.7827 50.6771C15.9749 50.6771 16.1307 50.5213 16.1307 50.3291C16.1307 50.1368 15.9749 49.981 15.7827 49.981C15.5905 49.981 15.4346 50.1368 15.4346 50.3291C15.4346 50.5213 15.5905 50.6771 15.7827 50.6771Z" fill="#3C3C3B"/>
</svg>
