<svg width="157" height="163" viewBox="0 0 157 163" fill="none" xmlns="http://www.w3.org/2000/svg">
<path d="M68.6265 150.994C106.326 150.994 136.888 120.506 136.888 82.8959C136.888 45.2861 106.326 14.7974 68.6265 14.7974C30.9268 14.7974 0.365234 45.2861 0.365234 82.8959C0.365234 120.506 30.9268 150.994 68.6265 150.994Z" fill="#FF5A5F"/>
<path d="M119.983 89.211C123.476 60.9168 103.315 35.1554 74.9532 31.6713C46.5914 28.1872 20.7684 48.2997 17.276 76.5939C13.7835 104.888 33.9442 130.65 62.306 134.134C90.6678 137.618 116.491 117.505 119.983 89.211Z" fill="#FCF5EB"/>
<path d="M77.1171 118.771C96.98 114.095 109.282 94.2396 104.594 74.4241C99.9055 54.6086 80.003 42.3363 60.1402 47.0132C40.2773 51.6901 27.9757 71.5451 32.6638 91.3606C37.3518 111.176 57.2543 123.448 77.1171 118.771Z" fill="#FF5A5F"/>
<path d="M94.1441 82.897C94.1441 87.9143 92.6528 92.819 89.8586 96.9908C87.0644 101.163 83.093 104.414 78.4465 106.334C73.7999 108.254 68.687 108.757 63.7543 107.778C58.8216 106.799 54.2906 104.383 50.7343 100.835C47.178 97.2872 44.7561 92.767 43.775 87.8461C42.7938 82.9251 43.2974 77.8244 45.222 73.1889C47.1467 68.5535 50.406 64.5915 54.5877 61.804C58.7695 59.0165 63.6859 57.5287 68.7153 57.5287C75.4594 57.5287 81.9274 60.2014 86.6962 64.9589C91.465 69.7164 94.1441 76.1689 94.1441 82.897Z" fill="#FCF5EB"/>
<path d="M80.3673 82.8958C80.3673 85.2123 79.6787 87.4768 78.3886 89.403C77.0986 91.3291 75.2649 92.8303 73.1196 93.7168C70.9743 94.6033 68.6137 94.8353 66.3362 94.3833C64.0588 93.9314 61.9668 92.8159 60.3248 91.1779C58.6829 89.5398 57.5647 87.4528 57.1117 85.1808C56.6587 82.9088 56.8912 80.5538 57.7798 78.4136C58.6684 76.2734 60.1732 74.4441 62.104 73.1572C64.0347 71.8702 66.3046 71.1832 68.6267 71.1832C71.739 71.188 74.7225 72.4235 76.9233 74.619C79.124 76.8145 80.3625 79.7909 80.3673 82.8958Z" fill="#FF5A5F"/>
<path d="M99.0119 52.4902L98.056 54.8111C97.5519 54.5077 97.013 54.2661 96.4509 54.0914C95.811 54.0914 95.172 54.0433 94.5393 53.9475C94.141 53.8314 93.7679 53.6423 93.4392 53.3897C93.2408 53.2638 92.9342 52.904 93.2227 52.814C93.5113 52.7241 93.7457 53.0839 93.9081 53.1559C94.1537 53.1844 94.4018 53.1844 94.6475 53.1559L94.0163 52.886C93.5265 52.7183 93.0552 52.5012 92.6096 52.2383C92.4653 52.0943 92.5014 51.7885 92.8981 51.8604C93.2319 51.9387 93.5579 52.0471 93.872 52.1843L94.7016 52.4902L93.8359 52.1303L92.339 51.6086C91.9242 51.4286 92.0144 50.9429 92.339 50.9609C92.8354 51.1265 93.3178 51.331 93.7818 51.5726L94.6114 51.9324C94.6114 51.9324 93.7998 51.5726 93.6556 51.4826C93.5113 51.3927 92.6096 51.0328 92.5013 50.763C92.4871 50.7172 92.4853 50.6684 92.4961 50.6217C92.507 50.575 92.5302 50.532 92.5633 50.4971C92.5963 50.4623 92.6381 50.4369 92.6843 50.4236C92.7304 50.4102 92.7794 50.4094 92.826 50.4211C93.2196 50.5059 93.6012 50.6388 93.9622 50.8169C94.5399 51.1116 95.1436 51.3525 95.7656 51.5366C96.0181 51.5366 96.3067 51.5366 96.3067 51.2128L96.7575 50.3851C96.7575 50.3851 97.0641 50.5291 97.2084 51.2667C97.4248 51.6805 98.0921 52.1843 99.0119 52.4902Z" fill="#FFBE9E"/>
<path d="M126.123 62.0434C126.092 61.0654 125.711 60.1308 125.05 59.4083C124.388 58.6858 123.49 58.2229 122.517 58.1032C119.27 57.6175 113.229 56.6819 111.407 56.3041C108.882 55.7103 98.5304 52.2739 98.5304 52.2739L97.3942 54.9907C97.3942 54.9907 108.648 60.6401 110.686 61.0898C112.724 61.5396 123.112 65.2099 125.113 64.0405C125.456 63.8392 125.733 63.5439 125.912 63.1898C126.091 62.8358 126.165 62.4378 126.123 62.0434Z" fill="#00D1C1"/>
<path d="M134.344 89.0855L133.695 87.1244H104.443L105.074 89.0855H134.344Z" fill="#383838"/>
<path d="M137.827 99.4842L137.159 97.5051H107.763L108.394 99.4842H137.827Z" fill="#383838"/>
<path d="M129.944 78.6858L129.295 76.7247H100.042L100.674 78.6858H129.944Z" fill="#383838"/>
<path d="M141.325 109.992L140.676 107.995H111.117L111.748 109.992H141.325Z" fill="#383838"/>
<path d="M144.878 120.625L144.211 118.61H114.49L115.139 120.625H144.878Z" fill="#383838"/>
<path d="M148.465 131.365L147.798 129.314H117.914L118.564 131.365H148.465Z" fill="#383838"/>
<path d="M152.111 142.215L151.408 140.163H121.38L122.029 142.215H152.111Z" fill="#383838"/>
<path d="M155.464 157.849H155.591C155.809 157.853 156.025 157.804 156.22 157.706C156.415 157.609 156.584 157.465 156.712 157.289C156.839 157.112 156.922 156.907 156.953 156.691C156.984 156.475 156.962 156.256 156.889 156.05L129.422 74.08C129.326 73.8128 129.15 73.5814 128.918 73.4173C128.686 73.2532 128.408 73.1642 128.124 73.1625H126.32L154.184 156.842C154.256 157.127 154.42 157.381 154.652 157.563C154.884 157.746 155.169 157.846 155.464 157.849Z" fill="#383838"/>
<path d="M125.706 157.849H125.869C126.084 157.846 126.296 157.793 126.486 157.693C126.677 157.593 126.841 157.449 126.966 157.274C127.091 157.099 127.172 156.896 127.204 156.684C127.236 156.471 127.217 156.254 127.149 156.05L100.891 74.0802C100.802 73.8066 100.629 73.5683 100.395 73.4C100.162 73.2318 99.8802 73.1423 99.5921 73.1446C99.3737 73.1409 99.1577 73.1899 98.9625 73.2875C98.7673 73.3852 98.5987 73.5285 98.4711 73.7053C98.3435 73.8821 98.2607 74.0871 98.2298 74.3028C98.1989 74.5185 98.2208 74.7384 98.2936 74.9438L124.426 156.842C124.5 157.126 124.666 157.378 124.897 157.56C125.128 157.742 125.412 157.843 125.706 157.849Z" fill="#383838"/>
<path d="M125.651 49.1981L125.471 49.396C124.925 49.9883 124.32 50.5247 123.667 50.9973C123.253 51.2852 122.603 51.4651 122.261 51.7529L121.81 52.0588C122.165 53.8381 122.376 55.6431 122.441 57.4563C122.441 57.4563 126.156 57.1864 127.509 55.6571C126.688 53.567 126.066 51.4045 125.651 49.1981Z" fill="#FFBE9E"/>
<path d="M123.649 55.3693C123.925 54.2928 124.515 53.3223 125.345 52.5806C125.627 52.3488 125.922 52.1326 126.228 51.9329C125.957 51.0396 125.764 50.1246 125.651 49.1981L125.471 49.396C124.925 49.9883 124.32 50.5247 123.667 50.9973C123.253 51.2852 122.603 51.4651 122.261 51.7529L121.81 52.0588C122.165 53.8381 122.376 55.6431 122.441 57.4563C122.441 57.4563 123.09 57.4563 123.92 57.2584C123.618 56.6772 123.523 56.0114 123.649 55.3693Z" fill="#E38D74"/>
<path d="M123.597 115.119C123.597 115.119 123.489 118.717 122.912 119.311C122.335 119.905 114.995 120.031 114.364 119.311C113.732 118.591 114.093 117.512 115.68 117.062C117.267 116.612 118.187 117.062 119.287 116.612C120.387 116.162 120.063 114.507 120.063 114.507L123.597 115.119Z" fill="#FFB400"/>
<path d="M141.809 114.993C141.809 114.993 142.368 118.591 141.809 119.113C141.25 119.635 133.784 120.229 133.116 119.581C132.449 118.933 132.792 117.782 134.343 117.278C135.894 116.774 136.831 117.098 137.95 116.702C139.068 116.307 138.238 114.687 138.238 114.687L141.809 114.993Z" fill="#FFB400"/>
<path d="M136.379 94.3389C136.506 87.4814 135.993 80.627 134.846 73.8644C133.61 73.8708 132.387 74.1088 131.239 74.5661C129.003 75.5916 126.748 76.5631 124.494 77.5527C127.032 83.6233 129.142 89.8636 130.806 96.228C131.419 99.4306 138.128 115.785 138.128 115.785L142.204 115.281C142.06 112.654 136.361 95.2385 136.379 94.3389Z" fill="#D0D1DE"/>
<path d="M128.033 76.0231C126.857 76.5774 125.653 77.0698 124.426 77.4984C126.679 82.9409 128.612 88.5098 130.215 94.1767C130.792 92.3775 133.551 88.3114 134.597 83.7595C135.315 80.7226 135.431 77.5752 134.94 74.4938C132.557 74.5238 130.205 75.0444 128.033 76.0231Z" fill="#ABADC4"/>
<path d="M131.08 75.4653C129.493 76.0051 126.607 76.7787 124.425 77.5524C122.91 81.3666 118.437 90.3984 118.203 94.4825C117.95 98.9805 119.501 116.073 119.501 116.073H124.154C124.154 116.073 124.587 96.8395 125.236 95.616C127.383 91.5319 129.763 88.3114 131.116 85.7746C132.71 82.9675 133.866 79.9339 134.542 76.7787C134.723 75.8971 135.498 72.9645 134.001 72.0289C132.757 72.3708 132.396 75.0335 131.08 75.4653Z" fill="#D0D1DE"/>
<path d="M122.73 78.4704C125.201 79.4122 127.844 79.823 130.485 79.6758C132.55 79.7009 134.596 79.2901 136.491 78.4704C136.491 78.4704 134.687 64.5988 132.649 60.2448C132.166 59.0443 131.434 57.9591 130.502 57.06C129.57 56.1609 128.458 55.4682 127.239 55.0272C125.76 55.8818 124.109 56.398 122.405 56.5385C122.405 56.5385 122.405 65.0486 122.622 68.449C122.838 71.8494 122.73 78.4704 122.73 78.4704Z" fill="#00D1C1"/>
<path d="M122.55 67.2075C122.55 66.8297 122.55 66.4339 122.55 66.0201V65.8761C122.55 65.4623 122.55 65.0485 122.55 64.6347V64.4188C122.55 63.951 122.55 63.4652 122.55 62.9795C122.724 62.9968 122.899 62.9968 123.073 62.9795C124.398 62.6184 125.653 62.0409 126.788 61.2703C126.987 61.1516 127.191 61.0435 127.401 60.9464C127.394 62.7853 127.077 64.61 126.464 66.3439C125.33 70.5669 125.102 74.9812 125.796 79.2979C124.784 79.084 123.79 78.7954 122.821 78.4343C122.821 78.4343 122.821 71.8134 122.694 68.413C122.694 68.1251 122.694 67.7653 122.694 67.3874L122.55 67.2075Z" fill="#007A87"/>
<path d="M127.562 45.7431C127.562 45.7431 125.975 42.4506 123.955 42.5946C121.935 42.7385 120.492 43.0623 120.221 43.872C119.9 45.196 119.466 46.4902 118.923 47.7402C118.382 48.5678 117.228 49.6473 117.246 50.0251C117.264 50.4029 118.472 50.5289 118.544 50.6728C118.788 51.7743 119.176 52.839 119.698 53.8394C121.633 53.6015 123.431 52.7205 124.802 51.3385C125.361 50.1511 127.742 47.8841 127.562 45.7431Z" fill="#FFBE9E"/>
<path d="M123.271 46.0669C123.057 46.1058 122.847 46.16 122.64 46.2289C122.334 46.2289 122.009 46.3188 121.702 46.3728C121.11 46.5142 120.492 46.5142 119.899 46.3728C118.997 46.0669 119.286 45.1674 118.871 44.5736C118.655 44.2678 118.222 44.2678 118.005 43.9259C117.808 43.5688 117.714 43.1638 117.735 42.7565C117.735 41.7849 118.691 41.695 119.43 41.515C120.17 41.3351 120.332 40.8314 120.747 40.1837C121.775 38.5644 123.217 40.7954 124.354 40.6694C124.949 40.6694 125.544 40.2196 126.157 40.5435C126.605 40.8615 126.985 41.2651 127.275 41.7309C127.6 42.1807 127.942 42.0008 128.429 42.1807C128.823 42.364 129.173 42.6276 129.457 42.9544C129.764 43.2955 129.992 43.6992 130.126 44.1374C130.26 44.5755 130.296 45.0375 130.233 45.4912C130.089 46.2289 129.493 46.6247 129.457 47.4163C129.508 48.0774 129.409 48.7413 129.169 49.3594C128.736 50.169 127.744 50.277 127.095 50.8527C126.782 51.1393 126.41 51.3526 126.004 51.4771C125.599 51.6016 125.17 51.6342 124.75 51.5724C124.75 50.9787 124.75 50.0071 125.237 49.7732C125.508 49.6665 125.768 49.5339 126.013 49.3774C126.149 49.235 126.236 49.0527 126.26 48.8573C126.285 48.6619 126.246 48.4639 126.149 48.2924C126.052 48.121 125.902 47.9852 125.721 47.9052C125.541 47.8252 125.34 47.8052 125.147 47.8481C124.48 47.9381 124.173 49.7552 123.452 49.4674C122.73 49.1795 123.56 48.3159 123.722 48.01C123.885 47.7042 124.029 46.5527 123.722 46.2109C123.732 46.1813 123.735 46.1502 123.733 46.1193C123.73 46.0884 123.722 46.0583 123.707 46.0308C123.693 46.0032 123.674 45.9787 123.65 45.9587C123.626 45.9386 123.599 45.9235 123.569 45.914C123.539 45.9046 123.508 45.901 123.477 45.9036C123.446 45.9062 123.416 45.9148 123.389 45.929C123.361 45.9432 123.336 45.9627 123.316 45.9864C123.296 46.01 123.281 46.0374 123.271 46.0669Z" fill="#383838"/>
<path d="M105.636 78.5418C105.455 78.5283 105.275 78.5283 105.094 78.5418C104.692 78.6001 104.281 78.5505 103.904 78.3979C103.277 78.085 102.586 77.9188 101.884 77.9121C101.56 77.9121 99.5218 78.4339 100.081 79.2615C100.081 79.3874 100.387 79.5493 100.46 79.5314L101.253 79.2435C101.253 79.2435 100.802 79.4054 100.712 79.4594C100.61 79.5156 100.519 79.5886 100.442 79.6753C100.315 79.8372 100.442 80.215 100.676 80.269C100.91 80.323 100.983 80.1611 101.127 80.0711C101.001 80.1791 100.694 80.251 100.874 80.6828C101.055 81.1146 101.235 80.8627 101.433 80.8088H101.65C101.506 80.8759 101.367 80.9541 101.235 81.0427C101.037 81.2046 101.47 81.7623 101.848 81.7263C102.227 81.6904 102.624 81.3665 102.75 81.4025C102.891 81.3686 103.029 81.3265 103.165 81.2765C103.639 81.2959 104.11 81.1969 104.535 80.9887L105.275 80.6648C105.676 80.441 106.056 80.1821 106.411 79.8912C106.068 79.3694 105.581 79.2255 105.636 78.5418Z" fill="#FFBE9E"/>
<path d="M106.335 81.0796L104.712 77.8591C108.601 75.4136 112.302 72.6834 115.785 69.6909C118.761 66.7223 121.953 60.695 124.226 60.2632C126.498 59.8314 128.752 61.1269 127.454 64.2574C126.155 67.388 119.501 71.562 118.166 72.9474C114.37 75.8659 110.421 78.5805 106.335 81.0796Z" fill="#00D1C1"/>
<path d="M128.843 4.65042C127.401 4.03871 122.784 1.62782 119.069 10.3718C115.462 18.7019 111.855 29.9827 111.855 29.9827C111.855 29.9827 121.034 22.4262 127.545 16.1291C134.308 9.52617 130.214 5.51402 128.843 4.65042Z" fill="#FF5A5F"/>
<path d="M120.945 11.3248L112.126 20.3207C109.457 23.0532 107.042 26.022 104.912 29.1906L68.8967 82.8957L109.709 38.7441C114.324 33.7632 118.111 28.078 120.927 21.9039L124.371 14.3294C123.028 13.5822 121.86 12.5579 120.945 11.3248Z" fill="#383838"/>
<path d="M110.375 30.6662C110.375 30.6662 104.442 14.1319 109.996 3.42683C115.551 -7.27822 122.819 13.1063 122.819 13.1063L110.375 30.6662Z" fill="#FF5A5F"/>
<path d="M110.269 30.5765C110.269 30.5765 127.871 30.5765 136.094 21.6886C144.318 12.8007 122.604 12.9086 122.604 12.9086L110.269 30.5765Z" fill="#FF5A5F"/>
<path d="M97.1214 52.49C96.9771 52.49 96.8329 52.7959 96.7066 52.7599C96.5804 52.7239 96.7066 52.3641 96.7066 52.3461C96.7066 51.9863 95.2999 51.8963 95.0114 51.7524C94.0916 51.2666 94.4523 50.7089 94.8671 50.8348C95.2819 50.9608 95.7869 51.1047 96.0393 51.2126C96.3452 51.2928 96.661 51.3291 96.9771 51.3206C97.3937 51.5512 97.7864 51.8224 98.1494 52.1302C98.6363 52.49 97.6084 52.7239 97.1214 52.49Z" fill="#FFBE9E"/>
<path d="M33.4777 104.666C28.9695 105.892 24.7013 107.869 20.8534 110.514C15.443 114.526 9.76205 127.012 8.6439 135.702C7.52575 144.392 5.32552 151.301 8.6439 155.781C11.9623 160.261 22.7651 161.178 32.089 162.06C41.4129 162.941 54.1815 160.747 56.7424 157.526C59.3033 154.305 58.9967 129.981 54.1634 120.859C49.3301 111.737 40.5292 104.433 33.4777 104.666Z" fill="#FFB400"/>
<path d="M45.8486 157.075C43.9315 156.561 42.1273 155.695 40.5283 154.521C39.2826 153.3 37.791 152.358 36.1524 151.756C34.5138 151.154 32.7658 150.907 31.0241 151.03C27.2548 151.03 23.6118 151.03 20.3836 148.943C18.9406 147.862 17.8239 146.405 17.1559 144.733C16.4878 143.06 16.2942 141.237 16.5963 139.462C16.9929 137.163 17.9326 134.992 19.3376 133.129C20.321 132.006 21.0024 130.653 21.3179 129.196C21.6333 127.739 21.5725 126.226 21.1411 124.798C20.1329 120.883 20.2014 116.768 21.3394 112.888C22.0611 110.84 23.3957 109.063 25.1628 107.796C23.6068 108.556 22.1221 109.453 20.7263 110.477C15.3159 114.489 9.63494 126.975 8.51679 135.665C7.39864 144.355 5.19841 151.264 8.51679 155.744C11.8352 160.224 22.6379 161.142 31.9619 162.023C41.2858 162.905 54.0544 160.71 56.6153 157.489C57.3034 156.263 57.7042 154.898 57.7875 153.495C54.5774 156.734 50.3933 158.641 45.8486 157.075Z" fill="#E8A400"/>
<path d="M32.4669 106.465C32.4669 106.465 24.6759 104.576 23.6119 98.6927C22.5478 92.8095 25.6137 90.7404 28.0304 92.0718C30.447 93.4032 30.8077 92.6835 32.4669 91.658C34.1261 90.6325 36.5428 92.2877 37.7691 94.0329C38.9955 95.7781 39.1938 93.727 42.0794 93.4932C44.9649 93.2593 45.9388 95.922 44.4239 99.3944C42.909 102.867 41.4662 106.591 32.4669 106.465Z" fill="#FFB400"/>
<path d="M40.9065 103.137C38.8866 103.659 40.095 101.05 39.7523 100.151C39.2293 100.151 39.0309 101.05 38.8506 101.428C38.6603 101.835 38.3568 102.178 37.9762 102.417C37.5957 102.657 37.1542 102.782 36.7044 102.777C35.46 102.777 35.2797 101.392 34.7387 100.565C34.5222 100.205 34.414 100.223 34.2698 100.565C34.1255 100.906 34.2698 101.59 33.8369 101.95C33.0254 102.616 31.6908 101.86 31.0596 101.32C30.4284 100.78 30.0857 99.7549 29.3643 99.1792C29.2338 99.3175 29.1516 99.4942 29.1299 99.6829C28.9495 100.529 29.0036 102.148 27.615 101.842C26.2263 101.536 25.6672 99.6829 25.2885 98.7114C24.8007 97.5695 24.5139 96.3522 24.4409 95.113C24.441 94.5954 24.4772 94.0784 24.5491 93.5658C24.5895 93.1585 24.6866 92.7588 24.8376 92.3783C23.7014 93.3498 23.0342 95.4369 23.6113 98.6754C24.513 103.677 30.2841 105.782 31.9974 106.304C32.2948 106.398 32.605 106.447 32.9172 106.448C40.0409 106.466 42.205 104.001 43.6478 101.23C42.8148 101.974 41.8943 102.615 40.9065 103.137Z" fill="#E8A400"/>
<path d="M35.7515 123.935C39.5748 124.313 42.9653 126.022 42.9653 129.836L36.5991 129.728C36.5991 128.289 35.1022 127.929 34.1824 127.929C33.5873 127.929 31.6937 127.929 31.6756 129.063C31.6756 131.672 43.4342 129.063 43.308 136.547C43.2178 140.991 39.7011 142.575 35.4268 142.808L35.6252 147.522H31.7297L32.0543 142.772C28.1047 142.287 24.4437 140.362 24.5158 136.385L30.8821 136.493V136.619C30.8821 138.418 32.8479 138.76 33.8398 138.778C34.8317 138.796 36.7073 138.778 36.7253 137.483C36.7253 134.766 24.9848 137.033 25.111 129.89C25.111 125.752 28.4113 124.241 32.3249 123.953L32.1626 119.203H36.058L35.7515 123.935Z" fill="white"/>
<path d="M26.7875 103.64L26.0842 107.347C26.0842 107.347 28.086 109.254 33.4965 109.254C36.4008 109.375 39.2846 108.717 41.8465 107.347L41.5038 104C36.6419 105.074 31.5909 104.951 26.7875 103.64Z" fill="#383838"/>
</svg>
