<svg width="582" height="481" viewBox="0 0 582 481" fill="none" xmlns="http://www.w3.org/2000/svg">
<path d="M551.824 257.019C550.232 251.121 549.621 244.995 551.44 239.069C552.861 234.194 555.803 229.901 558.546 225.652C565.838 214.281 570.357 201.973 569.76 188.187C569.107 173.32 559.925 160.997 546.664 154.673C537.654 150.409 527.662 148.561 518.665 144.155C510.835 140.533 504.362 134.509 500.188 126.958C492.528 112.745 492.371 95.9451 487.61 80.78C482.494 64.9679 473.73 50.5809 462.027 38.781C450.589 27.0518 436.772 17.907 421.506 11.9613C413.911 9.01459 405.99 6.99132 397.913 5.93508C389.693 5.13441 381.422 5.00607 373.182 5.55133C356.823 6.14827 340.365 7.69747 324.859 13.3968C306.893 20.02 291.956 31.8735 279.207 45.9727C265.818 60.7256 254.789 77.4115 241.642 92.3635C229.207 106.702 213.747 118.105 196.374 125.749C179.134 133.296 160.757 136.736 142.763 141.867C125.537 146.785 108.297 153.237 93.9422 164.209C87.0206 169.497 80.5395 175.779 76.5031 183.596C73.1223 190.293 71.6473 197.791 72.2392 205.27C72.8362 213.898 75.5224 222.098 78.3792 230.2C81.236 238.301 81.4634 246.843 77.7112 254.703C70.7753 269.242 55.7807 276.022 42.2785 282.915C30.3966 289.041 18.8415 296.844 10.7402 307.66C6.41578 313.341 3.36219 319.884 1.78607 326.847C-0.0189642 335.162 0.464273 344.144 0.975936 352.587C1.80028 366.402 4.28753 380.373 10.2001 392.98C18.273 410.22 32.4858 422.244 50.0672 429.094C56.8609 431.738 63.8963 433.614 70.9032 435.59C83.4958 439.143 95.4914 444.7 107.857 449.092C142.294 461.358 177.784 471.079 214.012 476.267C241.151 480.208 268.626 481.308 295.992 479.55C318.011 477.871 339.904 474.819 361.542 470.411C380.374 466.773 399.149 462.58 418.194 460.206C427.202 459.039 436.273 458.432 445.355 458.387C458.829 458.387 471.848 456.866 484.597 452.318C509.327 443.535 530.149 426.181 546.309 405.814C560.167 388.346 571.551 368.15 577.919 346.703C579.979 339.795 581.756 332.376 581.301 325.113C580.322 310.583 575.65 296.543 567.728 284.322C562.043 275.439 554.723 267.352 551.767 257.019C551.511 256.096 549.45 256.65 549.706 257.56C552.648 267.835 559.797 275.923 565.511 284.706C573.594 296.935 578.337 311.066 579.269 325.696C579.653 332.888 577.847 340.25 575.801 347.1C572.75 357.008 568.742 366.595 563.834 375.725C552.122 397.94 536.047 418.364 515.936 433.6C505.336 441.731 493.432 448.003 480.731 452.148C474.096 454.261 467.262 455.69 460.336 456.412C454.437 457.023 448.553 456.866 442.626 456.952C424.604 457.236 406.753 460.178 389.101 463.561C369.345 467.341 349.674 471.577 329.776 474.476C305.792 478.073 281.53 479.476 257.291 478.669C226.148 477.341 195.233 472.719 165.063 464.882C146.132 460.093 127.485 454.294 109.093 447.728C96.8701 443.378 84.9313 437.864 72.495 434.325C57.5858 430.061 42.648 425.797 30.4108 415.848C10.996 400.058 4.2449 374.73 3.05102 350.668C2.63884 342.382 2.24088 333.613 4.21647 325.497C6.13905 318.052 9.76919 311.156 14.8193 305.357C23.4891 295.138 35.1721 287.904 47.1393 282.134C60.0446 275.894 73.9163 267.921 80.0705 254.219C83.007 247.569 83.5592 240.109 81.6339 233.099C79.4167 224.728 75.9488 216.953 74.7549 208.269C69.4251 168.203 116.612 150.352 147.653 141.952C164.992 137.262 182.488 133.609 198.947 126.162C215.087 118.866 229.538 108.301 241.386 95.135C267.282 66.5245 286.256 29.7558 324.162 15.145C340.137 8.97663 357.292 7.51271 374.262 6.92998C382.605 6.40321 390.979 6.64585 399.277 7.65483C407.588 8.9238 415.706 11.235 423.439 14.5339C454.025 27.4676 479.168 54.6852 487.184 87.1758C490.794 101.787 491.646 117.847 500.06 130.781C504.47 137.293 510.607 142.446 517.784 145.662C526.866 149.926 536.957 151.773 545.94 156.25C552.803 159.531 558.532 164.785 562.394 171.34C566.255 177.896 568.072 185.453 567.614 193.047C567.362 200.496 565.678 207.825 562.654 214.637C560.286 219.417 557.599 224.033 554.609 228.452C552.038 232.258 550.116 236.466 548.924 240.902C547.831 246.431 548.129 252.146 549.791 257.531C550.019 258.483 552.08 257.929 551.824 257.019Z" fill="white"/>
<path d="M90.3481 394.06C90.3517 388.962 89.0617 383.946 86.5989 379.482C84.136 375.018 80.5808 371.252 76.266 368.537C71.9512 365.821 67.0179 364.245 61.928 363.956C56.838 363.666 51.7578 364.673 47.163 366.882C42.5681 369.09 38.6087 372.429 35.6556 376.584C32.7024 380.74 30.8519 385.577 30.2775 390.643C29.703 395.709 30.4232 400.837 32.3708 405.549C34.3184 410.26 37.4296 414.401 41.4132 417.582L35.8702 428.356H39.2955L46.2882 420.752C50.6491 423.033 55.5032 424.209 60.4246 424.177C65.346 424.144 70.1843 422.905 74.5149 420.567L81.6214 428.341H85.0325L79.3473 417.284C82.7819 414.465 85.5496 410.921 87.4517 406.905C89.3537 402.89 90.3429 398.503 90.3481 394.06Z" fill="#FFB400"/>
<path d="M72.0679 415.935C83.8706 409.411 88.1502 394.555 81.6267 382.752C75.1033 370.949 60.247 366.67 48.4443 373.193C36.6416 379.717 32.362 394.573 38.8855 406.376C45.409 418.178 60.2653 422.458 72.0679 415.935Z" fill="#FFE872"/>
<path d="M75.1412 396.718H58.9244L50.553 379.847C50.427 379.597 50.3515 379.325 50.3308 379.045C50.3101 378.766 50.3447 378.485 50.4324 378.22C50.5202 377.954 50.6595 377.708 50.8423 377.495C51.0252 377.283 51.248 377.109 51.4981 376.983C51.7482 376.857 52.0207 376.782 52.3 376.761C52.5793 376.741 52.8599 376.775 53.1258 376.863C53.3918 376.951 53.6378 377.09 53.8499 377.273C54.062 377.456 54.236 377.678 54.362 377.928L61.6106 392.411H75.1412C75.7066 392.411 76.2489 392.636 76.6487 393.036C77.0485 393.436 77.2732 393.978 77.2732 394.543C77.2732 395.109 77.0485 395.651 76.6487 396.051C76.2489 396.451 75.7066 396.675 75.1412 396.675V396.718Z" fill="#FFB400"/>
<path d="M82.5459 320.864L76.9744 322.399L75.3115 314.468C75.1761 313.866 75.2778 313.234 75.5953 312.705C75.9129 312.176 76.422 311.789 77.0171 311.625C77.5968 311.485 78.2078 311.564 78.7326 311.848C79.2574 312.131 79.6588 312.599 79.8596 313.16L82.5459 320.864Z" fill="#007A87"/>
<path d="M107.132 423.907C107.942 426.75 108.909 428.825 109.335 428.711C109.761 428.597 109.506 426.281 108.752 423.452L107.132 423.907Z" fill="#3A3E71"/>
<path d="M110.544 411.883C108.105 406.351 106.068 400.652 104.447 394.827L82.7157 316.145L74.3869 318.447L96.1184 397.13C97.7358 402.962 98.9234 408.905 99.6716 414.91L99.899 416.744C99.9287 417.026 100.043 417.294 100.226 417.511L107.176 426.295C107.377 426.522 107.64 426.687 107.933 426.768C108.225 426.848 108.535 426.842 108.825 426.749C109.12 426.672 109.385 426.507 109.585 426.276C109.786 426.045 109.912 425.76 109.947 425.456L111.369 414.356C111.409 414.071 111.37 413.781 111.255 413.517L110.544 411.883Z" fill="white"/>
<path d="M82.6859 316.143L74.3564 318.444L86.4345 362.174L94.7641 359.874L82.6859 316.143Z" fill="white"/>
<path d="M101.805 419.487L111.071 416.928L111.285 415.251L100.753 418.165L101.805 419.487Z" fill="white"/>
<path d="M98.9434 378.512L95.9144 379.364L101.248 398.329L104.278 397.478L98.9434 378.512Z" fill="#6684C0"/>
<path d="M101.558 387.871L98.5293 388.723L101.235 398.342L104.264 397.491L101.558 387.871Z" fill="white"/>
<path d="M94.5725 359.17L86.243 361.471L86.6554 362.964L94.985 360.664L94.5725 359.17Z" fill="#6684C0"/>
<path d="M83.1884 318.061L74.8588 320.362L75.2713 321.855L83.6008 319.555L83.1884 318.061Z" fill="#007A87"/>
<path d="M101.647 314.837L108.753 411.627L113.003 407.591L106.181 314.496L101.647 314.837Z" fill="#FF5A5F"/>
<path d="M97.1275 315.164L103.95 408.259L108.711 411.03L101.647 314.837L97.1275 315.164Z" fill="#FF9C9F"/>
<path d="M110.503 409.054C110.314 408.69 110.023 408.389 109.665 408.188C109.307 407.987 108.898 407.896 108.488 407.924C108.079 407.953 107.687 408.101 107.36 408.35C107.034 408.598 106.787 408.937 106.651 409.324C106.338 408.92 105.923 408.608 105.447 408.421C104.972 408.233 104.455 408.177 103.951 408.258L107.404 417.369L110.943 417.113L113.033 407.59C112.516 407.573 112.005 407.701 111.558 407.96C111.111 408.218 110.745 408.598 110.503 409.054Z" fill="white"/>
<path d="M109.153 417.099C108.559 417.144 107.97 417.234 107.39 417.369L109.153 422.002C109.18 422.081 109.233 422.148 109.302 422.194C109.371 422.241 109.453 422.263 109.536 422.258C109.62 422.253 109.7 422.219 109.762 422.162C109.824 422.105 109.865 422.029 109.877 421.946L110.929 417.113C110.338 417.059 109.744 417.054 109.153 417.099Z" fill="#3A3E71"/>
<path d="M105.955 311.337L96.8971 312L97.1287 315.162L106.186 314.498L105.955 311.337Z" fill="white"/>
<path d="M102.997 304.064L98.7335 304.377C98.4165 304.398 98.107 304.483 97.8227 304.625C97.5385 304.767 97.2853 304.964 97.0778 305.204C96.8702 305.445 96.7125 305.724 96.6137 306.026C96.5149 306.328 96.4769 306.647 96.5021 306.964L96.8716 312.009L105.925 311.341L105.556 306.31C105.512 305.674 105.218 305.081 104.739 304.66C104.26 304.239 103.634 304.025 102.997 304.064Z" fill="#007A87"/>
<path d="M116.798 312.137L118.887 409.183L123.35 405.359L121.346 312.038L116.798 312.137Z" fill="#FFB400"/>
<path d="M112.265 312.237L114.269 405.558L118.874 408.571L116.799 312.137L112.265 312.237Z" fill="#FFE872"/>
<path d="M120.762 406.695C120.553 406.343 120.264 406.046 119.918 405.826C119.573 405.606 119.18 405.471 118.773 405.43C118.376 405.493 117.999 405.644 117.669 405.873C117.339 406.102 117.065 406.402 116.868 406.752C116.579 406.329 116.18 405.992 115.715 405.777C115.249 405.562 114.734 405.476 114.225 405.53L117.195 414.811L120.734 414.726L123.307 405.331C122.799 405.31 122.296 405.426 121.848 405.666C121.401 405.906 121.026 406.262 120.762 406.695Z" fill="white"/>
<path d="M119.002 414.655C118.41 414.672 117.821 414.733 117.239 414.839L118.746 419.558C118.768 419.638 118.817 419.708 118.884 419.757C118.951 419.806 119.032 419.831 119.115 419.828C119.201 419.829 119.283 419.8 119.348 419.745C119.414 419.69 119.457 419.614 119.471 419.53L120.778 414.754C120.189 414.677 119.595 414.644 119.002 414.655Z" fill="#3A3E71"/>
<path d="M121.303 308.864L112.223 309.059L112.291 312.228L121.371 312.033L121.303 308.864Z" fill="white"/>
<path d="M118.775 301.463L114.511 301.548C114.194 301.556 113.881 301.626 113.591 301.754C113.3 301.882 113.038 302.066 112.819 302.296C112.6 302.526 112.428 302.796 112.314 303.092C112.199 303.388 112.144 303.704 112.152 304.021L112.251 309.081L121.333 308.882L121.234 303.822C121.219 303.184 120.952 302.578 120.491 302.135C120.03 301.693 119.413 301.452 118.775 301.463Z" fill="#007A87"/>
<path d="M135.999 322.996L130.555 321.091L133.654 313.672C133.891 313.107 134.334 312.653 134.894 312.402C135.453 312.151 136.087 312.123 136.667 312.322C137.244 312.526 137.723 312.942 138.005 313.486C138.287 314.029 138.353 314.66 138.188 315.25L135.999 322.996Z" fill="#6684C0"/>
<path d="M97.6671 421.761C96.7432 424.532 96.3311 426.821 96.7432 426.963C97.1554 427.105 98.264 425.058 99.2589 422.315L97.6671 421.761Z" fill="#3A3E71"/>
<path d="M107.303 413.816C108.443 407.868 110.015 402.011 112.007 396.291L138.855 319.215L130.683 316.373L103.835 393.449C101.844 399.168 99.4403 404.735 96.643 410.106L95.7902 411.741C95.6635 411.991 95.6047 412.271 95.6196 412.551L96.3587 423.736C96.3651 424.051 96.468 424.356 96.6536 424.611C96.8392 424.865 97.0984 425.056 97.3962 425.158C97.6844 425.26 97.9966 425.275 98.2929 425.199C98.5892 425.123 98.856 424.96 99.0592 424.731L106.578 416.431C106.764 416.216 106.892 415.957 106.947 415.678L107.303 413.816Z" fill="white"/>
<path d="M130.668 316.348L115.749 359.192L123.909 362.034L138.829 319.19L130.668 316.348Z" fill="white"/>
<path d="M95.7921 415.109L104.86 418.265L105.997 417.014L95.6784 413.418L95.7921 415.109Z" fill="white"/>
<path d="M111.383 380.119L104.886 398.776L107.866 399.814L114.363 381.157L111.383 380.119Z" fill="#6684C0"/>
<path d="M108.176 389.319L104.881 398.781L107.86 399.819L111.156 390.356L108.176 389.319Z" fill="white"/>
<path d="M115.989 358.503L115.479 359.966L123.64 362.808L124.149 361.345L115.989 358.503Z" fill="#6684C0"/>
<path d="M130.01 318.234L129.501 319.698L137.661 322.539L138.171 321.076L130.01 318.234Z" fill="#6684C0"/>
<path d="M128.338 432.278H82.0754C80.986 432.278 79.9413 431.845 79.1709 431.075C78.4006 430.305 77.9679 429.26 77.9679 428.171V357.376H132.446V428.171C132.446 429.26 132.013 430.305 131.243 431.075C130.472 431.845 129.428 432.278 128.338 432.278Z" fill="#BF4447"/>
<path d="M128.721 431.781H84.2633C83.345 431.868 82.4186 431.806 81.5202 431.596C78.436 430.502 79.0045 426.835 79.0045 424.263V357.107L77.5832 357.874H132.061L131.45 357.661V426.75C131.45 428.697 131.549 431.667 128.806 431.824C128.153 431.824 126.589 432.89 127.954 432.819C130.924 432.648 133.454 430.872 133.511 427.731C133.511 426.593 133.511 425.442 133.511 424.305V357.107C133.511 356.879 133.028 356.879 132.914 356.879H78.3934C77.9812 356.879 76.9721 357.107 76.9721 357.661V423.367C76.8248 425.294 76.8486 427.229 77.0432 429.152C77.768 433.259 82.174 432.776 85.2724 432.776H99.7127C108.937 432.776 118.189 432.904 127.399 432.776H127.939C128.579 432.776 130.142 431.781 128.721 431.781Z" fill="#383838"/>
<path d="M492.568 303.211C492.995 308.864 491.765 314.519 489.029 319.484C486.292 324.45 482.168 328.51 477.161 331.168C470.922 334.906 463.446 333.655 457.263 331.168C452.723 328.884 448.858 325.454 446.049 321.219C442.311 313.757 439.824 307.518 441.06 298.805C442.311 292.566 443.562 286.34 448.536 282.603C450.976 280.146 453.893 278.215 457.107 276.929C460.322 275.643 463.765 275.03 467.226 275.127C470.964 275.127 473.466 276.377 477.175 277.614C483.4 281.352 488.389 286.34 490.478 292.111C491.848 295.652 492.557 299.414 492.568 303.211Z" fill="#8CE071"/>
<path d="M485.848 303.936C485.848 316.216 482.167 332.362 467.215 333.655C464.345 333.633 461.538 332.804 459.116 331.263C456.693 329.723 454.752 327.533 453.514 324.943C452.263 319.954 449.776 316.216 448.525 311.227C448.525 303.752 447.289 295.039 451.027 287.563C452.234 284.799 453.918 282.268 456.001 280.087C458.503 276.349 463.477 276.349 467.215 275.098C469.862 275.357 472.417 276.207 474.691 277.586C479.68 281.324 482.167 287.535 484.285 292.523C485.299 296.244 485.824 300.08 485.848 303.936Z" fill="#B6FF9E"/>
<path d="M478.857 304.519C478.431 314.965 478.431 333.655 468.468 331.168C449.778 326.179 448.57 283.825 467.217 276.349C473.456 273.848 475.944 286.298 477.834 292.864C478.489 296.715 478.832 300.613 478.857 304.519Z" fill="#8CE071"/>
<path d="M472.846 304.817C472.207 314.965 473.458 324.943 467.161 333.655C458.449 316.216 458.449 292.538 467.161 275.098C470.899 280.087 472.15 286.312 472.221 293.049C472.591 296.645 472.79 300.639 472.846 304.817Z" fill="#B6FF9E"/>
<path d="M436.887 327.26L449.366 368.974C449.366 368.974 454.326 372.741 465.327 372.94C471.707 373.12 478.074 372.251 484.173 370.367L498.144 328.51L436.887 327.26Z" fill="#BF4447"/>
<path d="M435.849 327.473L442.302 349.019L446.565 363.417L447.873 367.823C447.966 368.323 448.144 368.804 448.399 369.244C449.563 370.155 450.904 370.814 452.336 371.177C455.676 372.358 459.172 373.038 462.711 373.196C469.812 373.657 476.938 372.834 483.746 370.765C484.542 370.509 484.983 370.367 485.296 369.614C485.765 368.534 486.063 367.34 486.433 366.217L490.853 352.985L499.125 328.212C499.196 327.999 498.911 327.928 498.755 327.913L478.075 327.501L445.087 326.833L437.498 326.677C436.993 326.625 436.487 326.762 436.076 327.061C435.877 327.302 435.693 327.587 436.219 327.587L456.898 328.013L489.872 328.681L497.476 328.837L497.106 328.539L484.855 365.251L483.135 370.396L483.789 369.941C476.234 372.402 468.211 373.073 460.352 371.902C457.124 371.531 453.992 370.568 451.114 369.06C450.275 368.562 450.389 368.662 450.104 367.738L441.065 337.493L437.896 326.933C437.754 326.393 435.721 326.961 435.849 327.473Z" fill="#383838"/>
<path d="M498.268 321.802H436.243C434.869 321.802 433.756 322.915 433.756 324.289V336.128C433.756 337.502 434.869 338.616 436.243 338.616H498.268C499.642 338.616 500.755 337.502 500.755 336.128V324.289C500.755 322.915 499.642 321.802 498.268 321.802Z" fill="#FF5A5F"/>
<path d="M499.679 336.413C499.48 338.63 498.258 338.204 496.709 338.204H449.707C445.628 338.204 441.506 338.388 437.441 338.204C435.096 338.104 434.798 336.328 434.798 334.395V324.744C434.798 323.906 434.798 322.57 435.693 322.214C436.051 322.164 436.415 322.164 436.773 322.214H496.368C498.059 322.214 499.58 322.541 499.736 324.701C499.949 327.658 499.736 330.728 499.736 333.698V336.413C499.736 336.726 501.797 336.413 501.797 335.859V327.032C501.797 324.616 502.181 321.575 498.869 321.347C495.145 321.134 491.336 321.347 487.613 321.347H438.337C436.78 321.142 435.201 321.489 433.874 322.328C433.44 322.711 433.11 323.197 432.911 323.74C432.713 324.284 432.653 324.868 432.737 325.441V335.56C432.626 336.218 432.738 336.893 433.055 337.48C433.371 338.067 433.875 338.532 434.485 338.801C435.584 339.052 436.718 339.119 437.839 339H488.053C491.336 339 494.762 339.284 498.002 339C498.905 339.023 499.785 338.715 500.477 338.134C501.168 337.552 501.623 336.738 501.754 335.844C501.825 335.588 499.793 335.787 499.679 336.413Z" fill="#383838"/>
<path d="M539.955 409.864C539.784 409.864 539.585 409.865 539.585 409.964V409.268H394.614C392.34 409.268 390.506 414.853 390.506 421.377C390.506 427.901 392.34 433.472 394.614 433.472H539.585V433.373C539.585 433.373 539.784 433.472 539.955 433.472C542.229 433.472 544.062 428.185 544.062 421.661C544.062 415.137 542.229 409.864 539.955 409.864Z" fill="#FF5A5F"/>
<path d="M533.678 413.176H505.764C507.1 414.74 507.498 418.634 507.498 422.585C507.498 426.536 507.128 429.564 505.821 431.909H533.678C535.099 431.909 536.236 427.645 536.236 422.543C536.236 417.44 535.099 413.176 533.678 413.176Z" fill="#FF9C9F"/>
<path d="M400.19 422.017C400.094 418.708 400.74 415.421 402.08 412.395H396.907C395.485 412.395 394.348 416.658 394.348 421.761C394.348 426.863 395.485 431.127 396.907 431.127H401.81C400.676 428.226 400.125 425.131 400.19 422.017Z" fill="#FF9C9F"/>
<path d="M526.68 388.29C526.538 388.29 526.012 388.19 526.012 388.19H411.186C409.381 388.19 407.917 392.696 407.917 398.736C407.917 404.777 409.338 409.268 411.186 409.268H526.31V409.694C526.31 409.694 526.68 409.78 526.808 409.78C528.613 409.78 530.006 404.876 530.006 398.836C530.006 392.795 528.442 388.29 526.68 388.29Z" fill="#007A87"/>
<path d="M526.68 388.204H411.186C409.381 388.204 407.917 392.894 407.917 398.352H529.92C529.92 392.88 528.442 388.204 526.68 388.204Z" fill="#007A87"/>
<path d="M414.642 398.992C414.558 395.799 415.236 392.632 416.618 389.753H414.401C412.979 389.753 411.842 394.017 411.842 399.12C411.842 404.222 412.979 408.486 414.401 408.486H416.831C415.523 406.923 414.642 403.128 414.642 398.992Z" fill="#C95843"/>
<path d="M522.405 394.429H464.63V399.12H522.405V394.429Z" fill="#FCF5EB"/>
<path d="M507.693 366.672H507.565V367.098H421.691V366.672C419.346 366.672 418.977 371.462 418.977 377.303C418.977 383.145 419.346 387.877 421.691 387.949V388.176H507.565V387.949H507.693C509.2 387.949 510.422 383.187 510.422 377.303C510.422 371.419 509.2 366.672 507.693 366.672Z" fill="#FFB400"/>
<path d="M314.911 426.295C309.837 418.933 309.382 408.998 309.382 408.998H275.684C275.684 408.998 275.229 418.947 270.169 426.295C265.109 433.643 254.535 438.276 254.535 438.276H330.645C330.645 438.276 320.028 433.671 314.911 426.295Z" fill="#FF5A5F"/>
<path d="M448 187.121H136.142C130.035 187.121 125.084 192.071 125.084 198.178V403.597C125.084 409.704 130.035 414.654 136.142 414.654H448C454.107 414.654 459.058 409.704 459.058 403.597V198.178C459.058 192.071 454.107 187.121 448 187.121Z" fill="#FFDEDF"/>
<path d="M436.707 197.663H147.435C141.77 197.663 137.178 201.457 137.178 206.137V363.546C137.178 368.226 141.77 372.019 147.435 372.019H436.707C442.372 372.019 446.964 368.226 446.964 363.546V206.137C446.964 201.457 442.372 197.663 436.707 197.663Z" fill="#FF5A5F"/>
<path d="M125.098 383.088V403.597C125.096 405.048 125.38 406.486 125.935 407.827C126.489 409.169 127.302 410.388 128.327 411.415C129.353 412.442 130.571 413.257 131.912 413.812C133.253 414.368 134.69 414.654 136.141 414.654H448.014C450.947 414.654 453.759 413.489 455.833 411.416C457.907 409.342 459.072 406.529 459.072 403.597V383.088H125.098Z" fill="#FF9C9F"/>
<path d="M79.6739 122.424C79.5175 122.211 79.4749 122.196 79.5318 122.424C79.4848 122.195 79.3719 121.986 79.2071 121.821C79.0423 121.655 78.8327 121.542 78.6042 121.495C78.3758 121.448 78.1385 121.468 77.9217 121.554C77.7049 121.641 77.518 121.788 77.3842 121.979C77.2505 122.171 77.1756 122.397 77.1689 122.63C77.1622 122.863 77.224 123.093 77.3466 123.292C77.4692 123.49 77.6473 123.648 77.8588 123.747C78.0704 123.845 78.3061 123.879 78.5369 123.845C78.3095 123.845 78.3095 123.888 78.5369 123.973C78.7326 124.042 78.9454 124.047 79.1438 123.985C79.3422 123.924 79.5156 123.801 79.6384 123.633C79.7612 123.466 79.8268 123.263 79.8255 123.056C79.8242 122.848 79.7561 122.647 79.6312 122.481L79.6739 122.424Z" fill="white"/>
<path d="M71.2466 150.636C71.7073 150.213 72 149.638 72.0709 149.016C72.0815 148.885 72.0579 148.752 72.0024 148.632C71.947 148.513 71.8615 148.409 71.7543 148.332C71.6471 148.255 71.5218 148.207 71.3906 148.192C71.2593 148.177 71.1265 148.197 71.0049 148.249C70.4311 148.494 69.9698 148.945 69.7116 149.514C69.5783 149.718 69.5285 149.965 69.5722 150.205C69.616 150.445 69.7501 150.659 69.9468 150.803C70.1436 150.947 70.388 151.01 70.6298 150.979C70.8716 150.948 71.0924 150.825 71.2466 150.636Z" fill="white"/>
<path d="M87.5039 147.098C87.7044 147.223 87.9447 147.267 88.1767 147.223C88.4087 147.178 88.6153 147.048 88.7553 146.857C88.8953 146.667 88.9584 146.431 88.9319 146.196C88.9054 145.961 88.7914 145.745 88.6125 145.591C88.4119 145.466 88.1717 145.422 87.9397 145.466C87.7077 145.511 87.501 145.641 87.361 145.831C87.221 146.022 87.1579 146.258 87.1844 146.492C87.2109 146.727 87.325 146.943 87.5039 147.098Z" fill="white"/>
<path d="M448.383 76.7578H449.505C449.753 76.7605 449.995 76.681 450.193 76.5319C450.391 76.3828 450.534 76.1724 450.6 75.9335C450.642 75.7368 450.642 75.5333 450.6 75.3366C450.532 75.0989 450.388 74.8898 450.191 74.741C449.993 74.5923 449.753 74.5119 449.505 74.5122H448.383C448.096 74.5122 447.821 74.626 447.619 74.8286C447.416 75.0312 447.302 75.3059 447.302 75.5924C447.302 75.8789 447.416 76.1536 447.619 76.3562C447.821 76.5588 448.096 76.6726 448.383 76.6726V76.7578Z" fill="white"/>
<path d="M457.551 99.6693C457.74 99.6693 457.92 99.5945 458.054 99.4612C458.187 99.3279 458.262 99.1472 458.262 98.9587C458.262 98.7702 458.187 98.5895 458.054 98.4562C457.92 98.3229 457.74 98.248 457.551 98.248C457.363 98.248 457.182 98.3229 457.049 98.4562C456.915 98.5895 456.84 98.7702 456.84 98.9587C456.84 99.1472 456.915 99.3279 457.049 99.4612C457.182 99.5945 457.363 99.6693 457.551 99.6693Z" fill="white"/>
<path d="M444.859 89.2654C445.076 89.238 445.275 89.1326 445.419 88.9691C445.563 88.8056 445.642 88.5951 445.642 88.3771C445.642 88.1591 445.563 87.9486 445.419 87.7851C445.275 87.6215 445.076 87.5162 444.859 87.4888C444.643 87.5162 444.444 87.6215 444.3 87.7851C444.156 87.9486 444.077 88.1591 444.077 88.3771C444.077 88.5951 444.156 88.8056 444.3 88.9691C444.444 89.1326 444.643 89.238 444.859 89.2654Z" fill="white"/>
<path d="M168.676 224.444C168.282 224.225 167.846 224.094 167.397 224.06C167.223 224.06 167.057 224.129 166.934 224.251C166.812 224.374 166.743 224.54 166.743 224.714C166.765 225.167 166.891 225.61 167.112 226.007C168.079 227.613 170.296 225.41 168.676 224.444Z" fill="#A7B2D4"/>
<path d="M158.213 216.072H158.697C158.989 216.04 159.259 215.901 159.456 215.682C159.652 215.463 159.76 215.18 159.76 214.886C159.76 214.591 159.652 214.308 159.456 214.089C159.259 213.87 158.989 213.731 158.697 213.699H158.213C156.65 213.571 156.65 216.271 158.213 216.158V216.072Z" fill="#A7B2D4"/>
<path d="M177.985 171.416C178.244 171.386 178.484 171.261 178.658 171.066C178.832 170.871 178.928 170.618 178.928 170.357C178.928 170.096 178.832 169.843 178.658 169.648C178.484 169.453 178.244 169.328 177.985 169.298C177.725 169.328 177.485 169.453 177.311 169.648C177.138 169.843 177.042 170.096 177.042 170.357C177.042 170.618 177.138 170.871 177.311 171.066C177.485 171.261 177.725 171.386 177.985 171.416Z" fill="#A7B2D4"/>
<path d="M180.811 179.887C181.094 179.887 181.365 179.774 181.565 179.574C181.765 179.374 181.877 179.103 181.877 178.821C181.877 178.538 181.765 178.267 181.565 178.067C181.365 177.867 181.094 177.755 180.811 177.755C180.529 177.755 180.257 177.867 180.057 178.067C179.858 178.267 179.745 178.538 179.745 178.821C179.745 179.103 179.858 179.374 180.057 179.574C180.257 179.774 180.529 179.887 180.811 179.887Z" fill="#A7B2D4"/>
<path d="M466.802 259.72C467.047 259.691 467.273 259.573 467.437 259.388C467.601 259.203 467.691 258.965 467.691 258.718C467.691 258.471 467.601 258.233 467.437 258.048C467.273 257.863 467.047 257.745 466.802 257.716C466.557 257.745 466.331 257.863 466.167 258.048C466.003 258.233 465.912 258.471 465.912 258.718C465.912 258.965 466.003 259.203 466.167 259.388C466.331 259.573 466.557 259.691 466.802 259.72Z" fill="white"/>
<path d="M478.798 257.617C478.525 257.591 478.249 257.638 478 257.753C477.75 257.868 477.535 258.046 477.377 258.27C477.301 258.4 477.26 258.547 477.26 258.697C477.26 258.847 477.301 258.994 477.377 259.123C477.537 259.345 477.753 259.522 478.002 259.637C478.251 259.751 478.525 259.8 478.798 259.777C480.219 259.777 480.219 257.546 478.798 257.617Z" fill="white"/>
<path d="M472.488 249.515C472.247 249.275 471.985 249.056 471.706 248.861C471.511 248.732 471.276 248.675 471.043 248.701C470.811 248.727 470.594 248.834 470.433 249.004C470.272 249.174 470.175 249.396 470.161 249.629C470.147 249.863 470.216 250.095 470.356 250.283C470.541 250.561 470.755 250.818 470.995 251.05C471.948 252.003 473.44 250.524 472.488 249.629V249.515Z" fill="white"/>
<path d="M478.09 243.404C478.335 243.404 478.57 243.306 478.743 243.133C478.916 242.96 479.014 242.725 479.014 242.48C479.014 242.235 478.916 242 478.743 241.826C478.57 241.653 478.335 241.556 478.09 241.556C477.845 241.556 477.61 241.653 477.437 241.826C477.263 242 477.166 242.235 477.166 242.48C477.166 242.725 477.263 242.96 477.437 243.133C477.61 243.306 477.845 243.404 478.09 243.404Z" fill="white"/>
<path d="M529.271 380.373C529.849 380.328 530.388 380.066 530.781 379.641C531.175 379.215 531.393 378.657 531.393 378.078C531.393 377.498 531.175 376.94 530.781 376.515C530.388 376.089 529.849 375.828 529.271 375.782C528.694 375.828 528.155 376.089 527.761 376.515C527.368 376.94 527.15 377.498 527.15 378.078C527.15 378.657 527.368 379.215 527.761 379.641C528.155 380.066 528.694 380.328 529.271 380.373Z" fill="white"/>
<path d="M531.1 354.264C531.1 354.42 531.1 354.562 531.029 354.719C530.951 354.992 530.937 355.279 530.989 355.558C531.041 355.837 531.157 356.101 531.327 356.327C531.498 356.554 531.72 356.738 531.974 356.865C532.228 356.992 532.508 357.058 532.792 357.058C533.076 357.058 533.356 356.992 533.61 356.865C533.864 356.738 534.085 356.554 534.256 356.327C534.427 356.101 534.543 355.837 534.595 355.558C534.646 355.279 534.632 354.992 534.554 354.719C534.554 354.562 534.554 354.42 534.483 354.264C534.368 353.906 534.142 353.593 533.838 353.372C533.534 353.15 533.168 353.031 532.792 353.031C532.416 353.031 532.049 353.15 531.745 353.372C531.441 353.593 531.216 353.906 531.1 354.264Z" fill="white"/>
<path d="M543.383 378.795C543.949 378.795 544.491 378.571 544.891 378.171C545.291 377.771 545.515 377.229 545.515 376.663C545.515 376.098 545.291 375.556 544.891 375.156C544.491 374.756 543.949 374.531 543.383 374.531C542.818 374.531 542.276 374.756 541.876 375.156C541.476 375.556 541.252 376.098 541.252 376.663C541.252 377.229 541.476 377.771 541.876 378.171C542.276 378.571 542.818 378.795 543.383 378.795Z" fill="white"/>
<path d="M86.6242 417.085L87.0506 417.241C87.404 417.343 87.7762 417.361 88.1377 417.294C88.4993 417.227 88.8404 417.077 89.1342 416.856C89.4279 416.635 89.6662 416.348 89.8304 416.019C89.9945 415.69 90.0799 415.328 90.0799 414.96C90.0799 414.592 89.9945 414.23 89.8304 413.901C89.6662 413.571 89.4279 413.285 89.1342 413.064C88.8404 412.843 88.4993 412.693 88.1377 412.626C87.7762 412.559 87.404 412.577 87.0506 412.679L86.6242 412.849C86.1609 412.982 85.7533 413.261 85.4632 413.646C85.173 414.031 85.016 414.499 85.016 414.981C85.016 415.463 85.173 415.932 85.4632 416.317C85.7533 416.701 86.1609 416.981 86.6242 417.113V417.085Z" fill="#FF9C9F"/>
<path d="M109.79 418.904C110.461 418.904 111.104 418.637 111.578 418.163C112.053 417.689 112.319 417.045 112.319 416.374C112.319 415.703 112.053 415.06 111.578 414.585C111.104 414.111 110.461 413.844 109.79 413.844C109.119 413.844 108.475 414.111 108.001 414.585C107.526 415.06 107.26 415.703 107.26 416.374C107.26 417.045 107.526 417.689 108.001 418.163C108.475 418.637 109.119 418.904 109.79 418.904Z" fill="#FF9C9F"/>
<path d="M101.321 394.472C101.628 394.395 101.901 394.218 102.096 393.968C102.291 393.718 102.396 393.411 102.396 393.094C102.396 392.777 102.291 392.469 102.096 392.219C101.901 391.97 101.628 391.792 101.321 391.715C101.013 391.792 100.741 391.97 100.546 392.219C100.351 392.469 100.245 392.777 100.245 393.094C100.245 393.411 100.351 393.718 100.546 393.968C100.741 394.218 101.013 394.395 101.321 394.472Z" fill="#FF9C9F"/>
<path d="M201.207 49.2418C201.848 49.2418 202.463 48.9872 202.916 48.5341C203.369 48.081 203.623 47.4664 203.623 46.8256C203.623 46.1848 203.369 45.5702 202.916 45.1171C202.463 44.664 201.848 44.4094 201.207 44.4094C200.566 44.4094 199.952 44.664 199.499 45.1171C199.046 45.5702 198.791 46.1848 198.791 46.8256C198.791 47.4664 199.046 48.081 199.499 48.5341C199.952 48.9872 200.566 49.2418 201.207 49.2418Z" fill="white"/>
<path d="M223.849 57.8976C224.324 57.8565 224.766 57.6388 225.088 57.2875C225.411 56.9362 225.589 56.4769 225.589 56.0002C225.589 55.5235 225.411 55.0642 225.088 54.7129C224.766 54.3616 224.324 54.1439 223.849 54.1028C223.374 54.1439 222.932 54.3616 222.61 54.7129C222.288 55.0642 222.109 55.5235 222.109 56.0002C222.109 56.4769 222.288 56.9362 222.61 57.2875C222.932 57.6388 223.374 57.8565 223.849 57.8976Z" fill="white"/>
<path d="M225.454 37.9568H225.014C224.64 38.07 224.313 38.3004 224.08 38.6139C223.847 38.9275 223.722 39.3075 223.722 39.6979C223.722 40.0883 223.847 40.4683 224.08 40.7818C224.313 41.0954 224.64 41.3258 225.014 41.439H225.454C225.732 41.5135 226.023 41.523 226.306 41.4669C226.588 41.4108 226.854 41.2905 227.082 41.1153C227.31 40.9401 227.495 40.7147 227.622 40.4566C227.75 40.1985 227.816 39.9146 227.816 39.6268C227.816 39.339 227.75 39.0551 227.622 38.797C227.495 38.5389 227.31 38.3136 227.082 38.1384C226.854 37.9632 226.588 37.8429 226.306 37.7868C226.023 37.7306 225.732 37.7402 225.454 37.8147V37.9568Z" fill="white"/>
<path d="M332.749 433.472H252.915C252.225 433.472 251.665 434.032 251.665 434.723V440.778C251.665 441.468 252.225 442.028 252.915 442.028H332.749C333.44 442.028 334 441.468 334 440.778V434.723C334 434.032 333.44 433.472 332.749 433.472Z" fill="#FF9C9F"/>
<path d="M441.503 370.95H148.42C146.459 370.95 144.469 371.035 142.508 370.95C137.291 370.68 138.244 364.568 138.244 361.001V204.233C138.244 201.86 138.585 199.046 141.641 198.775C142.095 198.775 142.564 198.775 143.062 198.775H438.902C439.471 198.775 440.054 198.775 440.636 198.775C443.65 198.918 444.9 201.504 444.9 204.134V360.091C444.9 363.105 446.037 370.708 441.503 370.95C440.807 370.95 439.3 372.087 440.665 372.016C441.496 372.037 442.324 371.89 443.096 371.582C443.869 371.274 444.571 370.812 445.16 370.225C445.748 369.637 446.212 368.936 446.521 368.164C446.831 367.392 446.981 366.565 446.961 365.734V203.821C446.961 200.978 445.767 198.406 442.697 197.809C441.916 197.7 441.126 197.662 440.338 197.695H143.673C143.015 197.653 142.355 197.653 141.697 197.695C140.135 197.826 138.685 198.559 137.654 199.739C136.622 200.919 136.089 202.454 136.169 204.02V360.93C136.169 365.037 135.188 371.22 140.902 371.916C142.795 372.032 144.693 372.032 146.587 371.916H440.665C441.404 372.016 442.825 370.95 441.503 370.95Z" fill="#383838"/>
<path d="M436.886 215.717C436.886 215.081 436.761 214.45 436.517 213.862C436.274 213.274 435.917 212.74 435.467 212.29C435.017 211.84 434.482 211.483 433.894 211.24C433.306 210.996 432.676 210.871 432.04 210.871H153.837C152.552 210.871 151.319 211.381 150.41 212.29C149.501 213.199 148.991 214.432 148.991 215.717V229.319H436.886V215.717Z" fill="#FFDEDF"/>
<path d="M437.91 215.433C437.597 209.151 430.534 210.203 426.213 210.203H154.307C153.015 210.156 151.741 210.511 150.659 211.219C149.577 211.926 148.741 212.952 148.266 214.154C147.442 216.499 147.968 219.668 147.968 222.085V229.418C147.971 229.499 147.991 229.579 148.026 229.652C148.062 229.725 148.111 229.79 148.172 229.843C148.234 229.896 148.305 229.937 148.382 229.961C148.459 229.986 148.541 229.995 148.621 229.987H436.503C436.901 229.987 437.924 229.802 437.924 229.219V215.604C437.924 214.637 435.849 215.007 435.849 215.817V229.418L437.27 228.651H153.724C152.433 228.544 151.135 228.544 149.844 228.651H149.361L150.029 229.219V217.11C149.923 216.002 150.049 214.884 150.398 213.827C151.407 211.453 153.241 211.539 155.259 211.539H420.755C424.323 211.539 427.862 211.397 431.472 211.539C432.641 211.55 433.759 212.024 434.58 212.858C435.4 213.692 435.857 214.817 435.849 215.987C435.892 216.797 437.953 216.399 437.91 215.433Z" fill="#383838"/>
<path d="M148.991 229.319V353.994C148.989 354.631 149.113 355.262 149.356 355.851C149.599 356.44 149.956 356.975 150.406 357.425C150.856 357.876 151.391 358.233 151.98 358.476C152.569 358.718 153.2 358.843 153.837 358.841H432.04C433.325 358.841 434.558 358.33 435.467 357.421C436.376 356.512 436.886 355.279 436.886 353.994V229.319H148.991Z" fill="#FCF5EB"/>
<path d="M147.952 229.589V353.241C147.952 356.581 149.843 359.253 153.467 359.366C156.111 359.452 158.768 359.366 161.412 359.366H431.641C433.221 359.425 434.762 358.863 435.933 357.801C437.104 356.738 437.813 355.26 437.909 353.681C437.909 353.298 437.909 352.928 437.909 352.559V229.035C437.909 228.793 437.44 228.736 437.283 228.736H161.071C157.333 228.736 153.609 228.736 149.871 228.736H149.388C148.62 228.736 147.199 229.902 148.592 229.902H432.124C433.416 229.98 434.712 229.98 436.004 229.902C436.165 229.887 436.327 229.887 436.488 229.902L435.848 229.589V352.843C435.848 355.245 435.365 358.031 432.323 358.229C429.481 358.428 426.638 358.229 423.795 358.229H156.594C155.826 358.229 155.073 358.229 154.32 358.229C150.752 358.073 150.056 354.975 150.056 352.161V229.035C150.042 228.409 147.952 228.793 147.952 229.589Z" fill="#383838"/>
<path d="M458.234 212.775C458.596 213.13 458.881 213.556 459.073 214.026V211.851C458.788 212.135 458.461 212.462 458.234 212.775Z" fill="white"/>
<path d="M190.847 448.595H384.341L415.836 463.732H155.173L190.847 448.595Z" fill="#BF4447"/>
<path d="M415.836 463.731H155.173V467.882H415.836V463.731Z" fill="#FF9C9F"/>
<path d="M293.18 388.943H291.432C287.012 388.943 283.43 392.526 283.43 396.945V398.693C283.43 403.112 287.012 406.695 291.432 406.695H293.18C297.599 406.695 301.182 403.112 301.182 398.693V396.945C301.182 392.526 297.599 388.943 293.18 388.943Z" fill="#FF5A5F"/>
<path d="M213.132 454.166H203.183L209.635 451.338H218.788L213.132 454.166Z" fill="#FF9C9F"/>
<path d="M200.995 454.152H191.046L198.479 451.338H207.633L200.995 454.152Z" fill="#FF9C9F"/>
<path d="M237.421 454.195L227.472 454.18L231.963 451.338H241.117L237.421 454.195Z" fill="#FF9C9F"/>
<path d="M225.285 454.18L215.336 454.166L220.808 451.338H229.961L225.285 454.18Z" fill="#FF9C9F"/>
<path d="M261.897 454.209L251.948 454.195L254.463 451.338H263.616L261.897 454.209Z" fill="#FF9C9F"/>
<path d="M249.76 454.195H239.811L243.308 451.338H252.461L249.76 454.195Z" fill="#FF9C9F"/>
<path d="M286.186 454.237L276.237 454.223L276.792 451.338H285.945L286.186 454.237Z" fill="#FF9C9F"/>
<path d="M274.05 454.223L264.087 454.209L265.636 451.338H274.789L274.05 454.223Z" fill="#FF9C9F"/>
<path d="M310.548 454.252H300.599L299.192 451.338H308.345L310.548 454.252Z" fill="#FF9C9F"/>
<path d="M298.41 454.237H288.461L288.035 451.338H297.188L298.41 454.237Z" fill="#FF9C9F"/>
<path d="M334.836 454.28L324.887 454.266L321.519 451.338H330.672L334.836 454.28Z" fill="#FF9C9F"/>
<path d="M322.699 454.266L312.75 454.252L310.362 451.338H319.515L322.699 454.266Z" fill="#FF9C9F"/>
<path d="M359.308 454.294H349.359L344.015 451.338H353.168L359.308 454.294Z" fill="#FF9C9F"/>
<path d="M347.173 454.28H337.224L332.861 451.338H342.014L347.173 454.28Z" fill="#FF9C9F"/>
<path d="M383.599 454.323L373.636 454.308L366.345 451.338H375.498L383.599 454.323Z" fill="#FF9C9F"/>
<path d="M371.465 454.308L361.501 454.294L355.191 451.338H364.344L371.465 454.308Z" fill="#FF9C9F"/>
<path d="M206.708 457.577L195.793 457.549L202.217 454.735H212.337L206.708 457.577Z" fill="#FF9C9F"/>
<path d="M193.392 457.549L182.477 457.52L189.882 454.72H200.001L193.392 457.549Z" fill="#FF9C9F"/>
<path d="M233.344 457.62L222.428 457.591L226.891 454.749L237.011 454.763L233.344 457.62Z" fill="#FF9C9F"/>
<path d="M220.025 457.591L209.109 457.577L214.553 454.735L224.672 454.749L220.025 457.591Z" fill="#FF9C9F"/>
<path d="M260.193 457.663L249.277 457.648L251.779 454.777L261.884 454.792L260.193 457.663Z" fill="#FF9C9F"/>
<path d="M246.874 457.648L235.958 457.62L239.426 454.763L249.546 454.777L246.874 457.648Z" fill="#FF9C9F"/>
<path d="M286.825 457.719L275.91 457.691L276.45 454.806L286.569 454.82L286.825 457.719Z" fill="#FF9C9F"/>
<path d="M273.523 457.691L262.593 457.662L264.114 454.792L274.234 454.806L273.523 457.691Z" fill="#FF9C9F"/>
<path d="M313.56 457.762L302.645 457.748L301.224 454.834L311.329 454.848L313.56 457.762Z" fill="#FF9C9F"/>
<path d="M300.244 457.733L289.328 457.719L288.873 454.82L298.993 454.834L300.244 457.733Z" fill="#FF9C9F"/>
<path d="M340.209 457.805L329.293 457.79L325.896 454.863H336.016L340.209 457.805Z" fill="#FF9C9F"/>
<path d="M326.892 457.79L315.962 457.762L313.56 454.848H323.679L326.892 457.79Z" fill="#FF9C9F"/>
<path d="M367.054 457.862L356.138 457.833L350.766 454.891H360.885L367.054 457.862Z" fill="#FF9C9F"/>
<path d="M353.74 457.833L342.824 457.819L338.432 454.877H348.552L353.74 457.833Z" fill="#FF9C9F"/>
<path d="M393.696 457.904L382.78 457.89L375.461 454.905L385.566 454.92L393.696 457.904Z" fill="#FF9C9F"/>
<path d="M380.379 457.876L369.463 457.862L363.124 454.891L373.23 454.905L380.379 457.876Z" fill="#FF9C9F"/>
<path d="M200.127 460.889L188.259 460.86L194.683 458.032L205.741 458.06L200.127 460.889Z" fill="#FF9C9F"/>
<path d="M185.659 460.846L173.791 460.818L181.21 458.004L192.268 458.032L185.659 460.846Z" fill="#FF9C9F"/>
<path d="M229.052 460.96L217.198 460.931L221.661 458.089L232.719 458.103L229.052 460.96Z" fill="#FF9C9F"/>
<path d="M214.598 460.917L202.73 460.889L208.174 458.061L219.231 458.075L214.598 460.917Z" fill="#FF9C9F"/>
<path d="M286.755 461.102L246.362 461.003L248.85 458.132L286.514 458.203L286.755 461.102Z" fill="#FF9C9F"/>
<path d="M243.748 461.003L231.894 460.96L235.362 458.117L246.42 458.132L243.748 461.003Z" fill="#FF9C9F"/>
<path d="M316.175 461.173L304.322 461.145L302.9 458.231L313.944 458.259L316.175 461.173Z" fill="#FF9C9F"/>
<path d="M301.72 461.145L289.852 461.116L289.412 458.217L300.469 458.231L301.72 461.145Z" fill="#FF9C9F"/>
<path d="M345.113 461.244L333.26 461.216L329.863 458.288L340.921 458.316L345.113 461.244Z" fill="#FF9C9F"/>
<path d="M330.658 461.216L318.791 461.187L316.389 458.259L327.446 458.288L330.658 461.216Z" fill="#FF9C9F"/>
<path d="M374.277 461.329L362.423 461.301L357.051 458.345L368.108 458.359L374.277 461.329Z" fill="#FF9C9F"/>
<path d="M359.81 461.287L347.957 461.258L343.565 458.316L354.623 458.345L359.81 461.287Z" fill="#FF9C9F"/>
<path d="M403.215 461.401L391.347 461.372L384.027 458.387L395.085 458.416L403.215 461.401Z" fill="#FF9C9F"/>
<path d="M388.748 461.358L376.895 461.329L370.542 458.373L381.599 458.387L388.748 461.358Z" fill="#FF9C9F"/>
<path fill-rule="evenodd" clip-rule="evenodd" d="M172.028 151.02C172.588 149.678 173.481 148.502 174.623 147.603C175.765 146.704 177.118 146.111 178.554 145.882C179.989 145.653 181.459 145.794 182.825 146.293C184.19 146.792 185.405 147.631 186.355 148.732C187.396 149.933 188.081 151.401 188.332 152.97C188.583 154.54 188.391 156.149 187.776 157.615C186.902 159.703 185.233 161.358 183.138 162.217C181.043 163.075 178.693 163.066 176.605 162.191C174.516 161.317 172.861 159.648 172.003 157.553C171.145 155.458 171.154 153.108 172.028 151.02ZM162.165 172.169L168.432 176.717L173.151 170.207C174.92 170.964 176.803 171.415 178.722 171.543L179.987 179.474L187.634 178.266L186.369 170.321C188.153 169.617 189.806 168.618 191.258 167.365L197.754 172.083L202.302 165.83L195.806 161.111C196.551 159.335 196.998 157.447 197.128 155.525L205.073 154.26L203.851 146.628L195.92 147.893C195.2 146.107 194.187 144.455 192.921 143.004L197.64 136.494L191.372 131.96L186.653 138.456C184.885 137.699 183.001 137.248 181.082 137.12L179.817 129.189L172.185 130.411L173.435 138.342C171.648 139.059 169.995 140.072 168.546 141.341L162.037 136.622L157.503 142.876L164.012 147.595C163.258 149.369 162.806 151.257 162.676 153.18L154.731 154.445L155.954 162.078L163.884 160.813C164.607 162.601 165.62 164.258 166.883 165.716L162.165 172.169Z" fill="#007A87"/>
<path fill-rule="evenodd" clip-rule="evenodd" d="M151.193 115.758C151.853 114.813 152.743 114.051 153.779 113.544C154.815 113.038 155.963 112.803 157.115 112.863C158.267 112.923 159.384 113.275 160.362 113.886C161.34 114.496 162.147 115.346 162.706 116.355C163.32 117.454 163.611 118.704 163.546 119.961C163.481 121.219 163.061 122.432 162.336 123.461C161.311 124.939 159.74 125.949 157.971 126.269C156.201 126.589 154.376 126.192 152.899 125.167C151.421 124.142 150.411 122.571 150.091 120.801C149.772 119.032 150.168 117.207 151.193 115.73V115.758ZM140.093 130.582L144.2 135.144L148.948 130.88C150.202 131.76 151.595 132.423 153.069 132.842L152.742 139.223L158.868 139.536L159.209 133.154C160.705 132.889 162.147 132.375 163.473 131.634L167.737 136.381L172.299 132.259L168.035 127.512C168.917 126.264 169.58 124.875 169.997 123.404L176.378 123.731L176.691 117.591L170.309 117.265C170.049 115.767 169.535 114.325 168.789 113.001L173.536 108.737L169.414 104.174L164.681 108.438C163.426 107.559 162.033 106.896 160.559 106.477L160.886 100.095L154.746 99.7827L154.42 106.164C152.923 106.427 151.481 106.942 150.156 107.685L145.892 102.938L141.329 107.06L145.593 111.807C144.713 113.059 144.055 114.453 143.646 115.929L137.25 115.488L136.923 121.628L143.305 121.955C143.578 123.449 144.092 124.889 144.826 126.219L140.093 130.582Z" fill="#007A87"/>
<path fill-rule="evenodd" clip-rule="evenodd" d="M411.373 106.676C412.501 106.334 413.709 106.37 414.815 106.777C415.921 107.184 416.864 107.941 417.5 108.933C418.137 109.925 418.433 111.097 418.343 112.272C418.253 113.447 417.782 114.56 417.002 115.443C416.222 116.327 415.175 116.931 414.02 117.165C412.865 117.4 411.665 117.251 410.603 116.742C409.54 116.232 408.673 115.39 408.132 114.343C407.591 113.296 407.407 112.101 407.607 110.94C407.771 109.947 408.211 109.021 408.877 108.267C409.543 107.513 410.408 106.961 411.373 106.676ZM397.047 110.442L397.359 115.346L402.447 115.005C402.798 116.178 403.346 117.284 404.068 118.274L400.699 122.111L404.395 125.352L407.763 121.514C408.837 122.092 409.999 122.485 411.203 122.68L411.544 127.768L416.447 127.441L416.106 122.353C417.276 122.001 418.381 121.458 419.375 120.747L423.212 124.101L426.439 120.406L422.601 117.051C423.187 115.975 423.586 114.807 423.781 113.598L428.869 113.257L428.613 108.382L423.525 108.708C423.174 107.539 422.626 106.439 421.905 105.454L425.273 101.616L421.507 98.4325L418.153 102.27C417.073 101.695 415.906 101.301 414.699 101.105L414.358 96.0164L409.469 96.329L409.795 101.417C408.625 101.766 407.524 102.314 406.541 103.038L402.689 99.6833L399.463 103.364L403.3 106.733C402.719 107.805 402.324 108.968 402.135 110.172L397.047 110.442Z" fill="#007A87"/>
<path fill-rule="evenodd" clip-rule="evenodd" d="M395.923 162.987C395.564 160.27 396.017 157.507 397.227 155.048C398.436 152.588 400.347 150.542 402.718 149.167C405.09 147.793 407.815 147.151 410.55 147.324C413.286 147.497 415.909 148.477 418.088 150.139C420.267 151.801 421.905 154.071 422.795 156.664C423.685 159.256 423.787 162.054 423.089 164.704C422.39 167.355 420.922 169.739 418.87 171.555C416.817 173.372 414.273 174.54 411.557 174.912C407.903 175.401 404.205 174.42 401.273 172.184C398.342 169.948 396.418 166.641 395.923 162.987ZM386.756 146.088C386.623 146.112 386.504 146.186 386.422 146.294C386.341 146.402 386.302 146.536 386.315 146.671L386.557 148.362L384.51 148.646C384.323 148.671 384.142 148.732 383.979 148.827C383.816 148.922 383.673 149.049 383.559 149.2C383.445 149.351 383.363 149.523 383.316 149.706C383.269 149.889 383.26 150.08 383.288 150.267L387.225 178.692C387.294 179.053 387.5 179.372 387.799 179.584C388.099 179.796 388.468 179.884 388.831 179.83L434.909 173.476C435.084 173.456 435.253 173.4 435.406 173.312C435.559 173.224 435.693 173.106 435.799 172.966C435.905 172.825 435.982 172.664 436.024 172.493C436.067 172.322 436.074 172.144 436.046 171.97L432.109 143.473C432.063 143.111 431.879 142.781 431.596 142.551C431.313 142.32 430.952 142.208 430.588 142.237L427.675 142.634L427.518 141.497C427.483 141.271 427.361 141.067 427.178 140.929C426.995 140.791 426.765 140.73 426.538 140.758L420.853 141.54C420.626 141.575 420.422 141.697 420.284 141.88C420.146 142.064 420.085 142.293 420.114 142.521L420.27 143.658L393.436 147.353L393.194 145.662C393.186 145.594 393.164 145.529 393.129 145.47C393.095 145.412 393.05 145.36 392.996 145.319C392.941 145.278 392.879 145.248 392.813 145.232C392.748 145.215 392.679 145.211 392.612 145.221L386.728 146.031L386.756 146.088ZM427.575 148.305C427.801 148.274 428.005 148.154 428.143 147.974C428.281 147.793 428.343 147.565 428.314 147.339L428.201 146.571C428.184 146.465 428.145 146.363 428.088 146.272C428.03 146.182 427.954 146.104 427.864 146.044C427.775 145.984 427.674 145.943 427.568 145.923C427.462 145.904 427.353 145.907 427.248 145.932L421.563 146.714C421.455 146.719 421.35 146.746 421.253 146.794C421.156 146.842 421.07 146.909 421 146.992C420.931 147.075 420.879 147.171 420.849 147.275C420.819 147.379 420.81 147.488 420.824 147.595L420.924 148.348C420.955 148.573 421.075 148.777 421.255 148.916C421.436 149.054 421.664 149.115 421.89 149.087L427.575 148.305Z" fill="#007A87"/>
<path fill-rule="evenodd" clip-rule="evenodd" d="M407.849 148.618C405.331 148.943 402.967 150.011 401.058 151.684C399.149 153.357 397.78 155.56 397.127 158.014C396.474 160.467 396.566 163.059 397.391 165.46C398.215 167.861 399.736 169.962 401.758 171.496C403.781 173.03 406.214 173.927 408.749 174.074C411.283 174.221 413.804 173.61 415.99 172.32C418.176 171.03 419.929 169.118 421.026 166.828C422.122 164.539 422.512 161.975 422.147 159.462C421.663 156.14 419.893 153.141 417.218 151.112C414.543 149.084 411.178 148.188 407.849 148.618ZM400.614 162.39C400.452 161.212 400.523 160.013 400.824 158.861C401.125 157.71 401.65 156.63 402.369 155.682C403.82 153.766 405.973 152.506 408.353 152.178C410.733 151.85 413.147 152.482 415.062 153.933C416.977 155.384 418.237 157.537 418.565 159.917C418.781 161.12 418.752 162.354 418.479 163.545C418.207 164.737 417.696 165.86 416.978 166.849C416.26 167.838 415.349 168.672 414.301 169.3C413.253 169.928 412.088 170.338 410.878 170.505C409.667 170.671 408.435 170.592 407.256 170.27C406.077 169.949 404.975 169.393 404.017 168.635C403.058 167.877 402.262 166.933 401.678 165.86C401.093 164.787 400.731 163.607 400.614 162.39Z" fill="#007A87"/>
<path fill-rule="evenodd" clip-rule="evenodd" d="M408.43 153.138C410.037 152.916 411.674 153.177 413.133 153.886C414.592 154.595 415.808 155.721 416.627 157.121C417.446 158.521 417.831 160.133 417.735 161.752C417.638 163.371 417.063 164.925 416.082 166.218C415.102 167.51 413.761 168.483 412.227 169.013C410.694 169.543 409.038 169.606 407.469 169.195C405.9 168.784 404.488 167.916 403.412 166.702C402.336 165.489 401.644 163.983 401.424 162.376C401.132 160.222 401.706 158.041 403.019 156.31C404.332 154.578 406.278 153.438 408.43 153.138ZM408.857 156.293C407.875 156.435 406.958 156.864 406.221 157.527C405.483 158.19 404.958 159.056 404.713 160.017C404.468 160.978 404.513 161.99 404.842 162.925C405.171 163.86 405.771 164.677 406.564 165.272C407.357 165.867 408.309 166.214 409.299 166.268C410.289 166.322 411.273 166.082 412.127 165.578C412.981 165.073 413.666 164.327 414.095 163.433C414.525 162.54 414.681 161.539 414.542 160.557C414.352 159.238 413.647 158.049 412.581 157.249C411.515 156.45 410.176 156.106 408.857 156.293Z" fill="#007A87"/>
<path fill-rule="evenodd" clip-rule="evenodd" d="M263.22 17.1208C264.341 15.9914 265.8 15.2582 267.375 15.0324C268.951 14.8066 270.557 15.1004 271.95 15.8693C273.344 16.6382 274.449 17.8404 275.097 19.2936C275.746 20.7469 275.904 22.372 275.546 23.9228C275.189 25.4737 274.335 26.8657 273.115 27.888C271.896 28.9102 270.376 29.5071 268.786 29.5881C267.197 29.6691 265.624 29.2298 264.307 28.3368C262.989 27.4439 261.999 26.1458 261.486 24.6394C261.046 23.349 260.975 21.9614 261.281 20.633C261.588 19.3046 262.259 18.0882 263.22 17.1208ZM248.58 30.7935L252.105 36.4787L257.947 32.826C259.115 33.9901 260.47 34.9508 261.955 35.6685L260.42 42.3912L266.886 43.8125L268.421 37.0898C270.076 37.0899 271.72 36.8112 273.282 36.2655L276.949 42.107L282.634 38.5822L278.982 32.7407C280.146 31.5672 281.107 30.2078 281.824 28.7185L288.476 30.2108L289.897 23.744L283.16 22.1948C283.174 20.5445 282.899 18.9044 282.35 17.3482L288.192 13.6813L284.667 7.99612L278.896 11.7341C277.725 10.5673 276.365 9.60627 274.874 8.89153L276.423 2.16884L269.956 0.747559L268.407 7.47024C266.757 7.47013 265.118 7.74884 263.561 8.29459L259.894 2.45311L254.209 5.97789L257.932 11.7341C256.759 12.8949 255.797 14.2512 255.09 15.7421L248.353 14.2071L246.932 20.674L253.654 22.209C253.654 23.864 253.933 25.5073 254.479 27.0698L248.58 30.7935Z" fill="#007A87"/>
<path fill-rule="evenodd" clip-rule="evenodd" d="M364.871 145.037C365.344 144.56 365.93 144.213 366.574 144.027C367.218 143.84 367.899 143.822 368.553 143.973C369.206 144.124 369.81 144.439 370.308 144.889C370.805 145.339 371.179 145.908 371.395 146.543C371.636 147.235 371.677 147.98 371.514 148.694C371.351 149.408 370.989 150.062 370.471 150.58C369.998 151.056 369.412 151.404 368.768 151.591C368.124 151.777 367.442 151.797 366.788 151.648C366.134 151.499 365.529 151.185 365.029 150.737C364.53 150.289 364.153 149.721 363.933 149.087C363.691 148.393 363.65 147.643 363.816 146.926C363.982 146.209 364.348 145.554 364.871 145.037ZM356.983 152.442L358.888 155.469L362.029 153.493C362.653 154.128 363.385 154.647 364.189 155.028L363.365 158.653L366.847 159.449L367.671 155.838C368.562 155.84 369.446 155.691 370.286 155.398L372.262 158.539L375.289 156.634L373.314 153.493C373.944 152.865 374.463 152.135 374.849 151.333L378.459 152.157L379.269 148.675L375.645 147.851C375.646 146.961 375.497 146.076 375.204 145.236L378.345 143.26L376.455 140.233L373.314 142.208C372.68 141.578 371.945 141.059 371.139 140.673L371.978 137.049L368.496 136.253L367.657 139.877C366.767 139.877 365.883 140.026 365.042 140.318L363.081 137.177L360.053 139.067L362.015 142.208C361.384 142.838 360.869 143.575 360.494 144.383L356.869 143.544L356.074 147.027L359.684 147.865C359.683 148.751 359.832 149.63 360.124 150.466L356.983 152.442Z" fill="#007A87"/>
<path fill-rule="evenodd" clip-rule="evenodd" d="M175.411 82.4004C176.307 85.948 178.55 89.0068 181.665 90.9281C184.228 92.5725 187.253 93.3498 190.292 93.1453C196.026 93.0064 201.717 94.1728 206.935 96.5564C206.891 97.0017 207 97.4487 207.243 97.8242C207.486 98.1997 207.85 98.4815 208.274 98.6235C208.698 98.7655 209.158 98.7592 209.579 98.6058C209.999 98.4523 210.355 98.1607 210.588 97.7787C210.73 97.5528 210.825 97.3001 210.867 97.0361C210.909 96.7722 210.896 96.5025 210.829 96.2437L192.353 84.575C191.901 84.9565 191.353 85.2055 190.769 85.2943C190.184 85.3831 189.587 85.3083 189.043 85.0781C188.498 84.848 188.028 84.4715 187.685 83.9904C187.342 83.5094 187.139 82.9426 187.098 82.353C187.057 81.7635 187.181 81.1742 187.454 80.6505C187.728 80.1268 188.142 79.6893 188.65 79.3865C189.157 79.0837 189.739 78.9275 190.33 78.9351C190.921 78.9428 191.498 79.114 191.997 79.4299C192.589 79.8048 193.041 80.3646 193.283 81.0224C193.524 81.6803 193.542 82.3994 193.333 83.0684L211.81 94.7087C212.081 94.6614 212.339 94.5571 212.567 94.4027C212.795 94.2484 212.987 94.0475 213.132 93.8133C213.271 93.5941 213.366 93.3495 213.41 93.0936C213.455 92.8378 213.449 92.5756 213.392 92.3221C213.335 92.0687 213.229 91.8289 213.08 91.6165C212.93 91.4041 212.74 91.2233 212.521 91.0844C212.211 90.8932 211.854 90.792 211.49 90.792C211.126 90.792 210.769 90.8932 210.46 91.0844C203.055 84.7313 201.463 79.7142 199.715 76.6584C198.525 74.2486 196.69 72.2165 194.413 70.7885C191.356 68.8399 187.67 68.1331 184.109 68.8129L178.936 64.7622C178.936 64.7622 177.401 62.9714 176.235 64.7622C175.07 66.553 170.55 73.7163 168.873 76.4736C168.662 76.7404 168.523 77.0567 168.469 77.3924C168.416 77.7281 168.449 78.072 168.566 78.3913C168.683 78.7106 168.879 78.9946 169.137 79.2162C169.395 79.4378 169.705 79.5897 170.038 79.6573L175.411 82.4004Z" fill="#007A87"/>
<path fill-rule="evenodd" clip-rule="evenodd" d="M175.624 66.013C175.887 66.1797 176.073 66.4435 176.143 66.747C176.212 67.0505 176.158 67.3691 175.994 67.6333L171.104 75.3935C170.935 75.6535 170.672 75.8375 170.369 75.9064C170.067 75.9754 169.749 75.924 169.484 75.763L163.7 72.1245C163.569 72.0422 163.456 71.9347 163.368 71.8084C163.279 71.682 163.216 71.5394 163.183 71.3887C163.15 71.2379 163.147 71.0821 163.175 70.9303C163.203 70.7785 163.26 70.6337 163.344 70.5043L168.233 62.744C168.397 62.4821 168.659 62.296 168.96 62.2267C169.261 62.1574 169.577 62.2106 169.839 62.3745L175.624 66.013Z" fill="#007A87"/>
<path fill-rule="evenodd" clip-rule="evenodd" d="M361.06 37.4026C363.59 38.3406 365.452 40.373 365.324 42.1212C365.196 43.8694 362.865 44.6511 360.108 43.6704C357.351 42.6897 355.404 40.3588 355.844 38.6533C356.285 36.9478 358.601 36.4645 361.131 37.4026H361.06ZM393.906 47.2663C392.359 41.879 389.446 36.9831 385.45 33.0534C381.718 29.1816 377.248 26.0981 372.303 23.9856C366.305 21.4984 358.8 20.7735 362.638 26.1602C364.642 29.0028 366.063 30.5946 364.614 32.2291C363.164 33.8636 360.634 32.8687 358.161 29.9266C353.144 23.943 348.212 27.2119 347.743 34.4605C347.174 43.3293 353.229 58.7503 372.644 64.8192C380.944 67.4201 387.61 65.9136 391.362 61.8913C394.617 58.395 395.427 52.7382 393.906 47.181V47.2663ZM369.147 48.0764C371.99 49.0855 374.307 51.4591 374.349 53.591C374.392 55.7229 371.976 56.8458 368.849 55.8082C365.722 54.7707 363.278 51.9992 363.505 49.8814C363.732 47.7637 366.348 47.0389 369.19 48.0764H369.147ZM375.458 31.9448C375.543 33.2666 373.838 33.7214 371.606 32.8402C369.375 31.959 367.584 30.1114 367.655 28.8322C367.726 27.5531 369.517 27.3114 371.592 28.15C373.667 28.9886 375.373 30.6372 375.458 31.9448ZM381.498 44.7364C381.299 43.1019 382.749 42.4766 384.668 43.2156C385.626 43.5712 386.491 44.1397 387.198 44.8783C387.905 45.6169 388.434 46.5063 388.747 47.4795C389.088 49.1282 387.752 49.9952 385.677 49.2419C384.676 48.8843 383.774 48.2928 383.047 47.5165C382.32 46.7403 381.789 45.8018 381.498 44.779V44.7364ZM381.157 50.1515C382.237 50.5196 383.21 51.1457 383.993 51.9755C384.776 52.8053 385.344 53.8135 385.649 54.9128C385.947 56.8315 384.298 57.8833 381.896 57.0589C379.494 56.2346 377.391 53.8895 377.277 51.985C377.164 50.0804 378.869 49.2703 381.157 50.1089V50.1515Z" fill="#007A87"/>
<path fill-rule="evenodd" clip-rule="evenodd" d="M421.852 32.7692C420.943 33.821 400.05 63.6964 394.848 71.1439H395.289C396.223 71.3272 397.11 71.7038 397.89 72.2496C398.671 72.7954 399.329 73.4984 399.822 74.3134C404.655 66.4821 423.757 35.5123 424.368 34.2474C425.477 32.0017 423.586 30.751 421.852 32.7692Z" fill="#007A87"/>
<path fill-rule="evenodd" clip-rule="evenodd" d="M389.016 75.3793C386.927 78.9467 388.064 82.4857 382.734 85.1009C388.419 85.3141 396.648 84.1913 399.008 78.1934C400.798 73.6738 392.725 69.083 389.016 75.3793Z" fill="#007A87"/>
<path d="M350.869 266.244H234.665V268.362H350.869V266.244Z" fill="#FFDEDF"/>
<path d="M409.653 244.569H176.406V249.402H409.653V244.569Z" fill="#FFDEDF"/>
<path d="M350.869 272.81H234.309V274.928H350.869V272.81Z" fill="#FFDEDF"/>
<path d="M350.869 259.663H234.309V261.781H350.869V259.663Z" fill="#FFDEDF"/>
<path d="M350.869 279.376H234.309V281.494H350.869V279.376Z" fill="#FFDEDF"/>
<path d="M350.869 285.957H234.309V288.074H350.869V285.957Z" fill="#FFDEDF"/>
<path d="M350.869 292.523H234.309V294.641H350.869V292.523Z" fill="#FFDEDF"/>
<path d="M350.869 299.09H234.309V301.207H350.869V299.09Z" fill="#FFDEDF"/>
<path d="M350.869 305.656H234.309V307.774H350.869V305.656Z" fill="#FFDEDF"/>
<path d="M297.315 312.236H234.309V314.354H297.315V312.236Z" fill="#FFDEDF"/>
<path d="M401.299 220.237C401.299 220.915 401.098 221.578 400.721 222.141C400.344 222.705 399.808 223.144 399.181 223.403C398.554 223.662 397.865 223.729 397.2 223.595C396.535 223.462 395.925 223.134 395.446 222.654C394.968 222.173 394.643 221.562 394.512 220.896C394.382 220.231 394.452 219.542 394.713 218.916C394.975 218.291 395.416 217.757 395.981 217.382C396.546 217.007 397.21 216.809 397.888 216.812C398.337 216.81 398.783 216.897 399.199 217.069C399.614 217.24 399.992 217.493 400.309 217.811C400.626 218.13 400.877 218.509 401.047 218.925C401.217 219.341 401.303 219.787 401.299 220.237Z" fill="#BF4447"/>
<path d="M415.24 220.237C415.24 220.915 415.038 221.578 414.661 222.141C414.284 222.705 413.749 223.144 413.122 223.403C412.495 223.662 411.806 223.729 411.141 223.595C410.476 223.462 409.866 223.134 409.387 222.654C408.909 222.173 408.584 221.562 408.453 220.896C408.323 220.231 408.392 219.542 408.654 218.916C408.915 218.291 409.357 217.757 409.922 217.382C410.487 217.007 411.151 216.809 411.829 216.812C412.278 216.812 412.722 216.9 413.137 217.073C413.552 217.245 413.929 217.497 414.246 217.816C414.563 218.134 414.814 218.512 414.984 218.927C415.155 219.343 415.242 219.788 415.24 220.237Z" fill="#BF4447"/>
<path d="M429.18 220.237C429.18 220.914 428.98 221.577 428.603 222.14C428.227 222.703 427.692 223.142 427.066 223.401C426.44 223.661 425.751 223.729 425.087 223.596C424.423 223.464 423.812 223.138 423.333 222.659C422.854 222.18 422.528 221.57 422.396 220.905C422.264 220.241 422.331 219.552 422.591 218.926C422.85 218.3 423.289 217.765 423.852 217.389C424.415 217.012 425.078 216.812 425.755 216.812C426.206 216.81 426.652 216.897 427.068 217.068C427.485 217.24 427.863 217.492 428.181 217.811C428.5 218.129 428.752 218.507 428.924 218.924C429.095 219.34 429.182 219.787 429.18 220.237Z" fill="#BF4447"/>
<path d="M224.773 259.592H180.983C178.503 259.592 176.492 261.603 176.492 264.083V344.087C176.492 346.568 178.503 348.579 180.983 348.579H224.773C227.253 348.579 229.264 346.568 229.264 344.087V264.083C229.264 261.603 227.253 259.592 224.773 259.592Z" fill="#FFDEDF"/>
<path d="M404.621 259.592H360.831C358.351 259.592 356.34 261.603 356.34 264.083V344.087C356.34 346.568 358.351 348.579 360.831 348.579H404.621C407.102 348.579 409.112 346.568 409.112 344.087V264.083C409.112 261.603 407.102 259.592 404.621 259.592Z" fill="#FFDEDF"/>
<path d="M343.422 124.385C343.428 115.983 341.433 107.7 337.601 100.222C333.769 92.7445 328.212 86.2869 321.388 81.3843C314.564 76.4816 306.671 73.2749 298.361 72.0297C290.052 70.7845 281.565 71.5365 273.604 74.2236C265.643 76.9107 258.436 81.4554 252.581 87.4816C246.726 93.5078 242.39 100.842 239.933 108.877C237.476 116.912 236.969 125.417 238.452 133.687C239.936 141.958 243.369 149.756 248.465 156.435C260.011 171.752 266.583 190.24 267.297 209.407H313.759C314.508 190.195 321.114 171.672 332.691 156.322C339.673 147.141 343.444 135.92 343.422 124.385Z" fill="#FFE872"/>
<path d="M278.681 193.872V192.451C278.681 192.053 276.734 152.655 261.91 137.319L256.95 132.202L263.488 135.045C263.63 135.045 277.786 141.057 290.421 136.907L290.862 136.765L291.317 136.907C303.98 141.071 318.094 135.102 318.236 135.045L324.802 132.202L319.828 137.333C305.004 152.626 303.071 192.067 303.056 192.465L300.214 192.394C300.205 192.72 300.309 193.04 300.509 193.299C300.708 193.558 300.99 193.74 301.308 193.815C300.114 193.645 287.692 193.815 280.145 193.815L278.681 193.872ZM267.169 139.337C278.539 155.313 280.955 184.221 281.382 190.973C292.752 190.802 297.826 190.788 300.214 190.901C300.669 184.008 303.156 155.256 314.427 139.337C308.969 140.872 299.702 142.549 290.777 139.778C281.894 142.493 272.627 140.872 267.169 139.337Z" fill="#FFB400"/>
<path d="M290.523 249.913C301.724 249.913 310.805 242.633 310.805 233.654C310.805 224.674 301.724 217.394 290.523 217.394C279.322 217.394 270.241 224.674 270.241 233.654C270.241 242.633 279.322 249.913 290.523 249.913Z" fill="#FF9C9F"/>
<path d="M309.226 238.785H271.874C270.745 238.786 269.658 238.356 268.836 237.582C268.014 236.807 267.519 235.748 267.454 234.62L264.853 190.816H316.204L313.603 234.578C313.549 235.705 313.065 236.769 312.251 237.552C311.437 238.334 310.355 238.775 309.226 238.785Z" fill="#BF4447"/>
<path d="M264.682 206.166C263.82 206.166 262.99 205.842 262.357 205.257C261.724 204.673 261.334 203.871 261.266 203.012C261.198 202.153 261.456 201.299 261.989 200.622C262.522 199.945 263.291 199.494 264.142 199.358L315.82 191.086C316.264 191.015 316.718 191.033 317.156 191.137C317.593 191.242 318.006 191.431 318.37 191.695C318.734 191.959 319.043 192.292 319.279 192.675C319.514 193.059 319.672 193.485 319.743 193.929C319.814 194.373 319.796 194.827 319.692 195.264C319.587 195.702 319.398 196.115 319.134 196.479C318.87 196.843 318.537 197.152 318.153 197.387C317.77 197.623 317.344 197.781 316.9 197.852L265.165 206.124C265.005 206.149 264.844 206.163 264.682 206.166Z" fill="#FF9C9F"/>
<path d="M264.682 217.508C263.82 217.508 262.99 217.184 262.357 216.599C261.724 216.014 261.334 215.213 261.266 214.354C261.198 213.494 261.456 212.641 261.989 211.964C262.522 211.287 263.291 210.836 264.142 210.7L315.82 202.428C316.277 202.325 316.749 202.317 317.209 202.404C317.669 202.491 318.106 202.671 318.494 202.933C318.881 203.196 319.211 203.535 319.462 203.929C319.714 204.324 319.882 204.766 319.956 205.228C320.029 205.691 320.008 206.163 319.892 206.616C319.776 207.07 319.569 207.495 319.283 207.865C318.996 208.235 318.637 208.543 318.228 208.769C317.818 208.995 317.366 209.135 316.9 209.179L265.165 217.465C265.005 217.491 264.844 217.505 264.682 217.508Z" fill="#FF9C9F"/>
<path d="M265.72 228.679C264.859 228.68 264.028 228.355 263.395 227.77C262.762 227.186 262.373 226.384 262.304 225.525C262.236 224.666 262.494 223.813 263.027 223.135C263.56 222.458 264.329 222.007 265.18 221.871L314.783 213.926C315.227 213.855 315.681 213.873 316.119 213.977C316.556 214.082 316.969 214.271 317.333 214.535C317.697 214.799 318.006 215.132 318.242 215.516C318.477 215.899 318.635 216.325 318.706 216.769C318.777 217.213 318.759 217.667 318.655 218.105C318.551 218.542 318.361 218.955 318.097 219.319C317.833 219.683 317.5 219.992 317.117 220.228C316.733 220.463 316.307 220.621 315.863 220.692L266.275 228.637L265.72 228.679Z" fill="#FF9C9F"/>
<path d="M268.535 239.14C267.673 239.14 266.843 238.816 266.21 238.231C265.577 237.646 265.187 236.845 265.119 235.986C265.051 235.126 265.309 234.273 265.842 233.596C266.375 232.919 267.144 232.468 267.995 232.332L312.922 225.14C313.366 225.069 313.82 225.087 314.257 225.191C314.695 225.296 315.108 225.485 315.472 225.749C315.836 226.013 316.145 226.346 316.38 226.729C316.616 227.113 316.774 227.539 316.845 227.983C316.916 228.427 316.898 228.881 316.794 229.318C316.689 229.756 316.5 230.169 316.236 230.533C315.972 230.897 315.639 231.206 315.255 231.441C314.872 231.677 314.446 231.835 314.002 231.906L269.075 239.097L268.535 239.14Z" fill="#FF9C9F"/>
<path d="M290.52 65.814C290.072 65.814 289.642 65.6358 289.324 65.3186C289.007 65.0014 288.829 64.5712 288.829 64.1226V32.9396C288.829 32.491 289.007 32.0609 289.324 31.7437C289.642 31.4265 290.072 31.2483 290.52 31.2483C290.969 31.2483 291.399 31.4265 291.716 31.7437C292.033 32.0609 292.212 32.491 292.212 32.9396V64.1226C292.212 64.5712 292.033 65.0014 291.716 65.3186C291.399 65.6358 290.969 65.814 290.52 65.814Z" fill="#FFE872"/>
<path d="M259.75 74.0716C259.46 74.0621 259.178 73.9787 258.929 73.8295C258.68 73.6803 258.474 73.4701 258.329 73.2189L242.695 46.2144C242.576 46.0219 242.497 45.8075 242.463 45.5839C242.428 45.3604 242.439 45.1321 242.494 44.9128C242.55 44.6935 242.648 44.4875 242.785 44.307C242.921 44.1265 243.092 43.9752 243.288 43.8621C243.484 43.7489 243.701 43.6762 243.925 43.6482C244.15 43.6203 244.377 43.6376 244.595 43.6992C244.813 43.7609 245.016 43.8656 245.192 44.0071C245.369 44.1486 245.515 44.3241 245.623 44.5231L261.257 71.5275C261.48 71.9165 261.541 72.3777 261.426 72.8113C261.312 73.2449 261.031 73.616 260.646 73.8442C260.371 73.9941 260.063 74.0723 259.75 74.0716Z" fill="#FFE872"/>
<path d="M237.223 96.5991C236.929 96.5945 236.641 96.5163 236.385 96.3717L209.38 80.7376C208.994 80.5093 208.714 80.1382 208.599 79.7046C208.485 79.271 208.546 78.8098 208.769 78.4209C208.879 78.2288 209.027 78.0606 209.203 77.9258C209.378 77.791 209.579 77.6923 209.793 77.6355C210.007 77.5787 210.23 77.5648 210.45 77.5947C210.669 77.6246 210.881 77.6977 211.072 77.8097L238.076 93.4439C238.399 93.6305 238.65 93.9185 238.793 94.263C238.935 94.6075 238.959 94.9893 238.862 95.3491C238.765 95.7089 238.551 96.0264 238.255 96.2525C237.959 96.4785 237.596 96.6004 237.223 96.5991Z" fill="#FFE872"/>
<path d="M228.981 127.37H197.798C197.349 127.37 196.919 127.192 196.602 126.875C196.285 126.557 196.107 126.127 196.107 125.679C196.107 125.23 196.285 124.8 196.602 124.483C196.919 124.165 197.349 123.987 197.798 123.987H228.981C229.43 123.987 229.86 124.165 230.177 124.483C230.494 124.8 230.672 125.23 230.672 125.679C230.672 126.127 230.494 126.557 230.177 126.875C229.86 127.192 229.43 127.37 228.981 127.37Z" fill="#FFE872"/>
<path d="M210.22 173.761C209.929 173.754 209.646 173.672 209.397 173.522C209.147 173.373 208.941 173.161 208.799 172.908C208.576 172.521 208.516 172.062 208.63 171.631C208.745 171.2 209.025 170.831 209.41 170.605L236.414 154.971C236.802 154.762 237.255 154.712 237.679 154.832C238.102 154.952 238.462 155.233 238.682 155.614C238.902 155.995 238.965 156.447 238.858 156.873C238.75 157.3 238.48 157.668 238.106 157.899L211.101 173.533C210.835 173.692 210.529 173.771 210.22 173.761Z" fill="#FFE872"/>
<path d="M370.824 173.76C370.529 173.761 370.239 173.682 369.985 173.533L342.981 157.899C342.592 157.673 342.309 157.303 342.192 156.869C342.075 156.435 342.133 155.973 342.355 155.582C342.467 155.39 342.616 155.221 342.793 155.086C342.97 154.951 343.172 154.852 343.387 154.796C343.602 154.739 343.826 154.725 344.047 154.755C344.267 154.785 344.48 154.859 344.672 154.971L371.676 170.605C372.064 170.828 372.347 171.196 372.464 171.627C372.581 172.059 372.523 172.519 372.302 172.908C372.154 173.169 371.939 173.386 371.679 173.536C371.419 173.686 371.124 173.764 370.824 173.76Z" fill="#FFE872"/>
<path d="M383.263 127.37H352.08C351.631 127.37 351.201 127.192 350.884 126.875C350.567 126.557 350.388 126.127 350.388 125.679C350.388 125.23 350.567 124.8 350.884 124.483C351.201 124.165 351.631 123.987 352.08 123.987H383.263C383.711 123.987 384.142 124.165 384.459 124.483C384.776 124.8 384.954 125.23 384.954 125.679C384.954 126.127 384.776 126.557 384.459 126.875C384.142 127.192 383.711 127.37 383.263 127.37Z" fill="#FFE872"/>
<path d="M343.834 96.5989C343.544 96.588 343.262 96.5041 343.014 96.355C342.765 96.2059 342.559 95.9965 342.413 95.7461C342.191 95.3576 342.133 94.8973 342.25 94.4658C342.367 94.0343 342.651 93.6668 343.038 93.4436L370.042 77.8095C370.235 77.6971 370.447 77.6237 370.668 77.5937C370.888 77.5636 371.112 77.5773 371.328 77.6341C371.543 77.6909 371.745 77.7896 371.922 77.9245C372.099 78.0595 372.247 78.2281 372.359 78.4206C372.581 78.8113 372.64 79.2738 372.523 79.7075C372.406 80.1413 372.122 80.5114 371.734 80.7373L344.729 96.3715C344.456 96.5236 344.147 96.602 343.834 96.5989Z" fill="#FFE872"/>
<path d="M321.292 74.0718C320.999 74.0654 320.711 73.9873 320.454 73.8444C320.065 73.6184 319.782 73.2484 319.665 72.8146C319.548 72.3808 319.607 71.9184 319.828 71.5277L335.463 44.5232C335.687 44.1331 336.057 43.848 336.491 43.7308C336.926 43.6135 337.389 43.6736 337.779 43.8979C338.169 44.1222 338.455 44.4922 338.572 44.9267C338.689 45.3612 338.629 45.8244 338.405 46.2146L322.771 73.219C322.621 73.4784 322.405 73.6939 322.146 73.8436C321.886 73.9933 321.592 74.072 321.292 74.0718Z" fill="#FFE872"/>
</svg>
