<svg width="40" height="40" viewBox="0 0 40 40" fill="none" xmlns="http://www.w3.org/2000/svg">
<path fill-rule="evenodd" clip-rule="evenodd" d="M25.8275 6.92138C23.0072 5.66472 19.8562 5.35341 16.8445 6.03386C13.8329 6.71431 11.1218 8.35007 9.11572 10.6972C7.10964 13.0443 5.91601 15.977 5.71286 19.0579C5.5097 22.1388 6.30791 25.2029 7.98842 27.7931C9.66894 30.3833 12.1417 32.3609 15.038 33.4309C17.9343 34.5009 21.0988 34.606 24.0597 33.7306C27.0206 32.8551 29.6192 31.046 31.4679 28.5731C33.3166 26.1001 34.3164 23.0958 34.3182 20.0082V18.5455C34.3182 17.6668 35.0305 16.9546 35.9091 16.9546C36.7877 16.9546 37.5 17.6668 37.5 18.5455V20.0091C37.4978 23.7828 36.2759 27.4557 34.0163 30.4782C31.7568 33.5007 28.5807 35.7118 24.9619 36.7818C21.343 37.8518 17.4752 37.7233 13.9353 36.4155C10.3954 35.1077 7.37314 32.6907 5.31918 29.5249C3.26522 26.3591 2.28963 22.6141 2.53793 18.8486C2.78623 15.083 4.24511 11.4986 6.69699 8.62989C9.14887 5.7612 12.4624 3.76194 16.1433 2.93027C19.8243 2.09861 23.6755 2.47911 27.1225 4.01502C27.9251 4.37262 28.2858 5.31313 27.9282 6.1157C27.5706 6.91827 26.6301 7.27898 25.8275 6.92138Z" fill="#00D1C2"/>
<path fill-rule="evenodd" clip-rule="evenodd" d="M37.0336 6.15632C37.6552 6.7773 37.6557 7.78461 37.0347 8.40621L21.1256 24.3312C20.8273 24.6298 20.4226 24.7976 20.0005 24.7977C19.5784 24.7978 19.1736 24.6302 18.8752 24.3318L14.1024 19.559C13.4812 18.9378 13.4812 17.9304 14.1024 17.3092C14.7237 16.6879 15.731 16.6879 16.3523 17.3092L19.9995 20.9564L34.7837 6.15745C35.4047 5.53585 36.412 5.53534 37.0336 6.15632Z" fill="#00D1C2"/>
</svg>
