<svg width="179" height="154" viewBox="0 0 179 154" fill="none" xmlns="http://www.w3.org/2000/svg">
<path d="M106.927 116.88L109.127 149.12H82.6236L84.8242 116.88H106.927Z" fill="#FCF5EB" stroke="#383838"/>
<path d="M75.8065 153.314H115.941C116.268 153.315 116.589 153.227 116.87 153.06M75.8065 153.314L75.8071 152.814M75.8065 153.314V152.814H75.8071M75.8065 153.314L78.8887 144.573M75.8071 152.814H115.941H115.943C116.179 152.815 116.411 152.752 116.614 152.63L116.87 153.06M75.8071 152.814C75.5711 152.814 75.3397 152.75 75.1374 152.628C74.9352 152.507 74.7697 152.333 74.6586 152.125L74.2175 152.36L74.6586 152.125C74.5475 151.917 74.4951 151.682 74.5067 151.446C74.5184 151.211 74.5938 150.983 74.7248 150.787C74.7249 150.787 74.7249 150.787 74.725 150.787L78.8887 144.573M116.87 153.06L116.614 152.63C116.816 152.509 116.982 152.335 117.093 152.127L117.534 152.362M116.87 153.06C117.151 152.892 117.38 152.651 117.534 152.362M117.534 152.362L117.093 152.127C117.204 151.919 117.257 151.684 117.245 151.448C117.232 151.212 117.156 150.984 117.024 150.788L117.023 150.787L112.859 144.573M117.534 152.362L112.859 144.573M112.859 144.573C112.859 144.572 112.859 144.572 112.859 144.572C112.739 144.395 112.578 144.25 112.39 144.149C112.201 144.049 111.991 143.997 111.777 143.997L111.777 143.997L79.971 143.997H79.9707C79.757 143.997 79.5465 144.049 79.3578 144.149C79.1692 144.25 79.0082 144.395 78.8889 144.572C78.8888 144.572 78.8887 144.573 78.8887 144.573M112.859 144.573L78.8887 144.573" fill="#FCF5EB" stroke="#383838"/>
<path d="M28.3659 24.8049H163.385C167.394 24.8049 170.644 28.0546 170.644 32.0634V117.458C170.644 121.466 167.394 124.716 163.385 124.716H28.3659C24.3571 124.716 21.1074 121.466 21.1074 117.458V32.0634C21.1074 28.0546 24.3571 24.8049 28.3659 24.8049Z" fill="#FCF5EB" stroke="#383838"/>
<path d="M156.211 30.99H35.5354C31.1171 30.99 27.5354 34.5717 27.5354 38.99V109.487C27.5354 113.905 31.1171 117.487 35.5354 117.487H156.211C160.63 117.487 164.211 113.905 164.211 109.487V38.99C164.211 34.5717 160.63 30.99 156.211 30.99Z" fill="white"/>
<mask id="mask0" mask-type="alpha" maskUnits="userSpaceOnUse" x="27" y="30" width="138" height="88">
<path d="M156.211 30.99H35.5354C31.1171 30.99 27.5354 34.5717 27.5354 38.99V109.487C27.5354 113.905 31.1171 117.487 35.5354 117.487H156.211C160.63 117.487 164.211 113.905 164.211 109.487V38.99C164.211 34.5717 160.63 30.99 156.211 30.99Z" fill="white"/>
</mask>
<g mask="url(#mask0)">
<path d="M160.802 40.4091H30.9533V117.483H160.802V40.4091Z" fill="#E5E6EE"/>
</g>
<path d="M35.5354 31.49H156.211C160.353 31.49 163.711 34.8478 163.711 38.99V109.487C163.711 113.629 160.353 116.987 156.211 116.987H35.5354C31.3932 116.987 28.0354 113.629 28.0354 109.487V38.99C28.0354 34.8478 31.3932 31.49 35.5354 31.49Z" stroke="#383838"/>
<path opacity="0.5" d="M160.802 40.4092H30.9531V46.7838H160.802V40.4092Z" fill="#00D1C1"/>
<path d="M151.833 67.5847H116.832C115.362 67.5847 114.171 68.7761 114.171 70.2457C114.171 71.7153 115.362 72.9067 116.832 72.9067H151.833C153.303 72.9067 154.494 71.7153 154.494 70.2457C154.494 68.7761 153.303 67.5847 151.833 67.5847Z" fill="white"/>
<path d="M151.833 76.9959H116.832C115.362 76.9959 114.171 78.1873 114.171 79.6569C114.171 81.1265 115.362 82.3178 116.832 82.3178H151.833C153.303 82.3178 154.494 81.1265 154.494 79.6569C154.494 78.1873 153.303 76.9959 151.833 76.9959Z" fill="white"/>
<path d="M151.833 86.407H116.832C115.362 86.407 114.171 87.5984 114.171 89.068C114.171 90.5376 115.362 91.729 116.832 91.729H151.833C153.303 91.729 154.494 90.5376 154.494 89.068C154.494 87.5984 153.303 86.407 151.833 86.407Z" fill="white"/>
<path d="M80.5891 53.1878H45.5877C44.1181 53.1878 42.9267 54.3792 42.9267 55.8488C42.9267 57.3184 44.1181 58.5098 45.5877 58.5098H80.5891C82.0587 58.5098 83.2501 57.3184 83.2501 55.8488C83.2501 54.3792 82.0587 53.1878 80.5891 53.1878Z" fill="white"/>
<path d="M80.5891 62.5942H45.5877C44.1181 62.5942 42.9267 63.7856 42.9267 65.2552C42.9267 66.7248 44.1181 67.9162 45.5877 67.9162H80.5891C82.0587 67.9162 83.2501 66.7248 83.2501 65.2552C83.2501 63.7856 82.0587 62.5942 80.5891 62.5942Z" fill="white"/>
<path d="M62.0416 98.6866L69.3153 111.71L53.2612 98.0536L53.1212 97.9344H52.9373H5.24119C4.09358 97.9344 2.99297 97.4785 2.18149 96.667C1.37001 95.8556 0.914124 94.755 0.914124 93.6073V69.0573C0.916225 67.9111 1.37298 66.8126 2.18415 66.0029C2.99541 65.193 4.09488 64.7382 5.24119 64.7382H81.3701C82.5128 64.7434 83.607 65.2004 84.414 66.0095C85.2212 66.8188 85.6754 67.9146 85.6773 69.0577V93.6157C85.6773 94.7633 85.2215 95.8639 84.41 96.6754C83.5985 97.4869 82.4979 97.9428 81.3503 97.9428H62.4782H61.6262L62.0416 98.6866Z" fill="#FF5A5F" stroke="#383838"/>
<path d="M78.9308 70.8601H30.5763C29.761 70.8601 29.1 71.5211 29.1 72.3364C29.1 73.1516 29.761 73.8126 30.5762 73.8126H78.9308C79.7461 73.8126 80.407 73.1516 80.407 72.3364C80.407 71.5211 79.7461 70.8601 78.9308 70.8601Z" fill="white"/>
<path d="M78.9308 76.8865H30.5763C29.761 76.8865 29.1 77.5475 29.1 78.3628C29.1 79.178 29.761 79.839 30.5763 79.839H78.9308C79.7461 79.839 80.407 79.178 80.407 78.3628C80.407 77.5475 79.7461 76.8865 78.9308 76.8865Z" fill="white"/>
<path d="M78.9308 82.913H30.5763C29.761 82.913 29.1 83.5739 29.1 84.3892C29.1 85.2045 29.761 85.8654 30.5763 85.8654H78.9308C79.7461 85.8654 80.407 85.2045 80.407 84.3892C80.407 83.5739 79.7461 82.913 78.9308 82.913Z" fill="white"/>
<path d="M61.6775 88.9398H30.5763C29.761 88.9398 29.1 89.6007 29.1 90.416C29.1 91.2313 29.761 91.8922 30.5762 91.8922H61.6775C62.4928 91.8922 63.1537 91.2313 63.1537 90.416C63.1537 89.6007 62.4928 88.9398 61.6775 88.9398Z" fill="white"/>
<path d="M25.0566 80.7993C25.0574 82.7579 24.4774 84.6727 23.3899 86.3015C22.3024 87.9304 20.7563 89.2001 18.9471 89.9502C17.1379 90.7003 15.1469 90.8969 13.2259 90.5154C11.3049 90.1338 9.54021 89.1911 8.15504 87.8065C6.76986 86.4219 5.82641 84.6576 5.44402 82.7368C5.06162 80.816 5.25746 78.8249 6.00676 77.0153C6.75607 75.2058 8.02517 73.6592 9.65357 72.571C11.282 71.4828 13.1965 70.902 15.155 70.902C17.7803 70.902 20.2982 71.9446 22.155 73.8006C24.0118 75.6566 25.0555 78.174 25.0566 80.7993Z" fill="#383838"/>
<path d="M15.1426 80.7536C16.6852 80.7536 17.9357 79.4636 17.9357 77.8724C17.9357 76.2812 16.6852 74.9913 15.1426 74.9913C13.6 74.9913 12.3495 76.2812 12.3495 77.8724C12.3495 79.4636 13.6 80.7536 15.1426 80.7536Z" fill="white"/>
<path d="M15.1887 81.1854H15.088C14.4367 81.1854 13.7918 81.3137 13.1901 81.5631C12.5884 81.8125 12.0417 82.178 11.5814 82.6387C11.121 83.0995 10.7559 83.6464 10.5071 84.2483C10.2582 84.8502 10.1304 85.4953 10.131 86.1466V89.3046C11.6393 90.2262 13.3728 90.7139 15.1404 90.7139C16.9081 90.7139 18.6415 90.2262 20.1499 89.3046V86.1466C20.1499 85.4951 20.0216 84.85 19.7723 84.248C19.523 83.6461 19.1575 83.0992 18.6968 82.6385C18.2361 82.1778 17.6892 81.8123 17.0873 81.563C16.4853 81.3137 15.8402 81.1854 15.1887 81.1854Z" fill="white"/>
<path d="M115.048 48.1725L120.119 34.9177L120.379 34.2391H119.652H97.6102C96.4628 34.2381 95.3626 33.7818 94.5513 32.9705C93.74 32.1592 93.2837 31.0591 93.2827 29.9118V5.36149C93.2827 4.21388 93.7386 3.11327 94.5501 2.30179C95.3615 1.49031 96.4622 1.03442 97.6098 1.03442H173.739C174.884 1.03862 175.98 1.49624 176.788 2.30709C177.596 3.11815 178.05 4.21648 178.05 5.36148V29.9116C178.049 31.0564 177.595 32.1543 176.787 32.9652C175.979 33.7759 174.883 34.2339 173.739 34.2391C173.738 34.2391 173.738 34.2391 173.738 34.2391L129.189 34.2391H128.982L128.836 34.3855L115.048 48.1725Z" fill="#D0D1DE" stroke="#383838"/>
<path d="M171.299 7.15656H122.944C122.129 7.15656 121.468 7.81748 121.468 8.63277C121.468 9.44807 122.129 10.109 122.944 10.109H171.299C172.114 10.109 172.775 9.44807 172.775 8.63277C172.775 7.81748 172.114 7.15656 171.299 7.15656Z" fill="white"/>
<path d="M171.299 13.183H122.944C122.129 13.183 121.468 13.8439 121.468 14.6592C121.468 15.4745 122.129 16.1354 122.944 16.1354H171.299C172.114 16.1354 172.775 15.4745 172.775 14.6592C172.775 13.8439 172.114 13.183 171.299 13.183Z" fill="white"/>
<path d="M171.299 19.2096H122.944C122.129 19.2096 121.468 19.8705 121.468 20.6858C121.468 21.5011 122.129 22.162 122.944 22.162H171.299C172.114 22.162 172.775 21.5011 172.775 20.6858C172.775 19.8705 172.114 19.2096 171.299 19.2096Z" fill="white"/>
<path d="M154.045 25.2358H122.944C122.129 25.2358 121.468 25.8967 121.468 26.712C121.468 27.5273 122.129 28.1882 122.944 28.1882H154.045C154.861 28.1882 155.522 27.5273 155.522 26.712C155.522 25.8967 154.861 25.2358 154.045 25.2358Z" fill="white"/>
<path d="M117.404 17.1082C117.404 19.0658 116.824 20.9793 115.736 22.6069C114.649 24.2345 113.103 25.5031 111.294 26.2522C109.486 27.0013 107.496 27.1973 105.576 26.8154C103.656 26.4335 101.893 25.4909 100.508 24.1067C99.1243 22.7226 98.1816 20.959 97.7997 19.0391C97.4178 17.1192 97.6138 15.1292 98.363 13.3207C99.1121 11.5122 100.381 9.96642 102.008 8.87889C103.636 7.79135 105.549 7.21088 107.507 7.21088C110.132 7.21199 112.648 8.25511 114.504 10.111C116.36 11.9669 117.403 14.4836 117.404 17.1082Z" fill="#383838"/>
<path d="M110.3 14.1643C110.283 14.7126 110.104 15.2437 109.787 15.6913C109.47 16.1389 109.028 16.4831 108.516 16.6811C108.004 16.879 107.446 16.9219 106.91 16.8044C106.374 16.6869 105.885 16.4142 105.503 16.0203C105.121 15.6264 104.864 15.1288 104.763 14.5895C104.662 14.0502 104.722 13.4932 104.936 12.988C105.15 12.4827 105.507 12.0516 105.965 11.7484C106.422 11.4452 106.958 11.2834 107.507 11.2831C108.259 11.2953 108.976 11.6055 109.5 12.1457C110.023 12.6859 110.311 13.4119 110.3 14.1643Z" fill="white"/>
<path d="M107.557 17.4732H107.457C106.142 17.4743 104.881 17.9975 103.951 18.9278C103.022 19.8581 102.5 21.1194 102.5 22.4344V25.5966C104.009 26.5133 105.741 26.9981 107.507 26.9981C109.273 26.9981 111.005 26.5133 112.514 25.5966V22.4344C112.514 21.1194 111.992 19.8581 111.063 18.9278C110.133 17.9975 108.872 17.4743 107.557 17.4732Z" fill="white"/>
<path d="M152.328 100.589H122.136C119.679 100.589 117.687 102.581 117.687 105.038V108.544C117.687 111.002 119.679 112.994 122.136 112.994H152.328C154.785 112.994 156.777 111.002 156.777 108.544V105.038C156.777 102.581 154.785 100.589 152.328 100.589Z" fill="#FF5A5F"/>
<path d="M133.435 105.536H132.242L130.479 102.44V105.536H129.279V100.56H130.479L132.239 103.656V100.56H133.435V105.536ZM138.156 103.427H136.269V104.613H138.497V105.536H135.069V100.56H138.504V101.486H136.269V102.535H138.156V103.427ZM143.717 103.68L144.287 100.56H145.477L144.421 105.536H143.177L142.51 102.699L141.857 105.536H140.617L139.557 100.56H140.75L141.321 103.68L142.004 100.56H143.023L143.717 103.68ZM137.988 112.213C137.988 112.038 137.925 111.901 137.8 111.803C137.677 111.705 137.459 111.604 137.147 111.499C136.835 111.394 136.58 111.293 136.382 111.195C135.737 110.878 135.414 110.443 135.414 109.889C135.414 109.614 135.494 109.371 135.654 109.161C135.815 108.949 136.043 108.785 136.337 108.669C136.631 108.551 136.962 108.491 137.328 108.491C137.686 108.491 138.006 108.555 138.289 108.683C138.574 108.81 138.795 108.993 138.952 109.23C139.109 109.464 139.188 109.733 139.188 110.036H137.992C137.992 109.833 137.929 109.676 137.804 109.565C137.68 109.453 137.513 109.397 137.301 109.397C137.087 109.397 136.917 109.445 136.792 109.541C136.669 109.634 136.607 109.754 136.607 109.899C136.607 110.027 136.676 110.143 136.812 110.248C136.949 110.351 137.189 110.458 137.534 110.569C137.878 110.679 138.16 110.797 138.381 110.925C138.919 111.235 139.188 111.662 139.188 112.207C139.188 112.642 139.024 112.984 138.696 113.232C138.367 113.48 137.917 113.605 137.346 113.605C136.942 113.605 136.576 113.533 136.248 113.389C135.923 113.243 135.676 113.045 135.51 112.794C135.346 112.542 135.264 112.251 135.264 111.923H136.467C136.467 112.19 136.535 112.387 136.672 112.514C136.811 112.64 137.036 112.702 137.346 112.702C137.544 112.702 137.7 112.66 137.814 112.576C137.93 112.489 137.988 112.368 137.988 112.213Z" fill="#FCF5EB"/>
<path d="M100.483 61.0091C98.4676 61.3769 96.4117 61.4672 94.3722 61.2775C93.6415 61.2103 92.9218 61.0539 92.2292 60.812C92.3256 63.3534 92.3466 69.317 90.5516 71.7829C90.5516 71.7829 91.2017 74.7186 96.4943 74.8025C101.787 74.8864 102.366 70.898 102.366 70.898C102.366 70.898 100.592 64.7625 100.483 61.0091Z" fill="#FFBE9E"/>
<path d="M90.5639 71.8792C90.5868 71.9497 90.6148 72.0184 90.6478 72.0847C90.6478 72.0847 90.6478 72.0847 90.6478 72.1099C90.6934 72.2178 90.7481 72.3216 90.8113 72.4202C90.8911 72.5527 90.9808 72.6789 91.0797 72.7977L91.1259 72.8522C91.4016 73.1773 91.7238 73.4599 92.0821 73.6909L92.1534 73.7371C92.3833 73.8783 92.6229 74.0031 92.8705 74.1103L92.9754 74.1523C93.2779 74.28 93.589 74.3865 93.9064 74.471C94.0644 73.0928 94.6032 71.7858 95.4623 70.6966C96.9371 68.8281 99.0678 67.591 101.422 67.2367C100.918 65.1848 100.596 63.0923 100.461 60.9837C98.4463 61.3515 96.3904 61.4418 94.3509 61.2521C93.6203 61.1849 92.9006 61.0286 92.2079 60.7866C92.3043 63.3281 92.3253 69.2916 90.5304 71.7576V71.8205C90.5344 71.8434 90.5463 71.8641 90.5639 71.8792Z" fill="#F4A587"/>
<path d="M93.1516 46.7334C93.1516 46.7334 101.82 44.171 103.217 46.272C104.613 48.3731 104.345 51.7659 104.924 53.2589C105.502 54.7519 107.65 56.3288 107.859 56.9285C108.069 57.5282 106.417 58.6689 106.182 59.1344C105.947 59.5999 105.075 64.5109 103.569 65.5929C102.063 66.6749 93.9862 63.8021 91.9857 59.9858C89.9853 56.1694 90.824 47.9873 93.1516 46.7334Z" fill="#FFBE9E"/>
<path d="M97.0979 48.2556C97.2031 49.8038 96.8872 51.3515 96.1836 52.7346C95.6678 53.7705 98.2554 56.53 97.534 57.7672C97.0559 58.6059 96.3556 58.392 95.7181 56.7439C95.4188 56.1804 94.9166 55.7517 94.3132 55.5444C92.1911 54.626 91.6963 57.8594 93.6003 58.8198C94.9339 59.495 94.1413 62.8668 94.1413 62.8668C92.7112 63.9698 87.9806 62.6404 88.5006 59.1889C88.8319 56.9913 88.9745 56.1525 88.207 55.6199C86.8105 54.647 84.9988 51.9587 87.2928 49.6773C90.4549 46.5362 87.5696 45.538 91.2266 44.6448C94.8836 43.7515 97.8989 45.991 97.0979 48.2556Z" fill="#007A87"/>
<path d="M90.6309 46.4105C90.8364 45.6137 92.2791 44.5862 92.992 44.0536C94.1169 43.2545 95.388 42.6846 96.7329 42.3761C98.0954 42.0251 99.5182 41.9764 100.902 42.2335C102.084 42.4599 103.078 42.9884 104.294 43.1268C105.414 43.2526 106.53 43.2022 107.318 42.5396C107.528 43.438 107.578 44.3666 107.465 45.2824C107.268 46.3644 106.555 47.3331 105.905 48.2977C104.148 50.923 99.3624 52.3783 95.9864 50.9901C94.355 50.3191 92.8956 49.732 92.0946 48.3229C91.6984 47.6202 91.2057 46.9765 90.6309 46.4105Z" fill="#007A87"/>
<path d="M136.918 52.0635L145.306 70.6714C145.306 70.6714 142.852 73.4309 142.035 72.8144C141.217 72.1979 128.644 57.1045 127.407 56.3202C126.17 55.536 136.918 52.0635 136.918 52.0635Z" fill="#383838"/>
<path d="M116.13 54.3787C116.13 54.3787 116.163 59.73 119.434 60.9546C119.434 60.9546 136.209 54.0096 139.564 53.3428C142.919 52.676 155.207 52.5712 155.207 52.5712L142.848 30.474C142.848 30.474 136.918 42.3341 131.5 46.2217C126.081 50.1094 116.13 54.3787 116.13 54.3787Z" fill="#FF5A5F"/>
<path d="M127.004 57.8887C128.33 57.3603 129.713 56.8193 131.076 56.2909C129.021 53.9801 127.956 50.7551 127.549 48.7421C126.291 49.4676 124.958 50.1722 123.683 50.839C124.168 53.4346 125.312 55.8621 127.004 57.8887Z" fill="#383838"/>
<path d="M159.783 36.1693C163.276 44.5904 162.043 53.108 157.027 55.184C152.011 57.2599 145.117 52.1225 141.623 43.6971C138.13 35.2718 139.363 26.7584 144.379 24.6782C149.394 22.5981 156.293 27.7439 159.783 36.1693Z" fill="#00D1C1"/>
<path d="M159.108 36.4501C162.077 43.6131 161.028 50.8558 156.763 52.6256C152.498 54.3954 146.631 50.0212 143.658 42.854C140.684 35.6868 141.737 28.4441 146.002 26.6744C150.267 24.9046 156.138 29.2829 159.108 36.4501Z" fill="#383838"/>
<path d="M135.816 65.4585C135.396 65.2194 135.531 63.7222 135.61 63.3322C135.736 62.7199 136.16 61.9273 135.736 61.3443C134.99 60.3127 133.937 63.0848 133.798 63.4874C133.538 64.259 133.442 64.7833 133.606 65.3368C133.972 66.2449 134.518 67.0694 135.212 67.7609C135.132 68.0377 135.048 68.3228 134.943 68.629C135.638 68.928 136.313 69.2697 136.965 69.6523C137.774 70.1178 137.732 70.6965 138.487 71.2166L139.246 69.4761C138.928 69.0819 136.483 65.8611 135.816 65.4585Z" fill="#FFBE9E"/>
<path d="M141.188 59.369C140.462 58.589 139.334 58.8909 138.458 59.5284C137.816 59.9981 135.971 61.4869 136.47 62.5689C136.889 63.4706 139.254 61.4785 139.254 61.4785C138.382 62.2292 136.738 62.8331 137.157 63.5754C137.615 64.4142 139.674 63.2189 140.139 62.8876C139.674 63.0051 137.359 64.41 138.286 65.1439C138.923 65.6471 140.622 64.5903 141.133 64.2338C140.45 64.4393 139.519 65.0474 139.699 65.991C139.997 66.5111 141.028 66.1672 141.603 65.9323C142.471 65.58 143.28 65.4458 143.356 64.368C143.378 64.1746 143.388 63.9798 143.385 63.7851C143.3 62.9584 143.039 62.1594 142.622 61.4408C142.232 60.6934 141.75 59.9975 141.188 59.369Z" fill="#FFBE9E"/>
<path d="M52.9199 65.5467C52.5142 64.901 52.1888 64.2081 51.9512 63.4834C51.7331 62.8669 51.5821 62.2253 51.3682 61.6172C51.1106 61.0408 50.9682 60.4197 50.9488 59.7887C50.9832 59.41 51.0577 59.036 51.1711 58.6731C51.2969 58.1992 51.4689 57.7379 51.5653 57.2598C51.6618 56.7817 51.6157 56.421 51.6953 56.0017C51.8122 55.1847 52.063 54.3926 52.4376 53.6573C52.7426 53.1262 53.1024 52.6286 53.5113 52.1727C53.7061 51.9303 53.9192 51.7032 54.1487 51.4933C54.4079 51.3142 54.6114 51.0656 54.7358 50.7762C54.772 50.6826 54.7874 50.5823 54.781 50.4822C54.7746 50.3821 54.7464 50.2845 54.6986 50.1964C54.6507 50.1082 54.5842 50.0315 54.5038 49.9716C54.4233 49.9117 54.3308 49.87 54.2326 49.8494C53.8036 49.7659 53.3604 49.7933 52.945 49.9291C52.5296 50.0649 52.1558 50.3045 51.8589 50.6252C51.2256 51.4975 50.9279 52.5585 50.2233 53.3973C48.0719 55.9597 46.0547 52.9444 43.5468 51.8582C42.6903 51.4177 41.8785 50.8952 41.1228 50.2981C40.674 49.9584 38.7449 48.1299 37.8348 48.6206C37.1638 48.9728 38.4765 50.512 39.093 50.8894C39.3446 51.0362 41.496 52.7808 41.7728 52.8647C41.1395 52.7599 39.4956 51.6695 38.1703 50.6336C37.2183 49.8871 36.2957 49.1532 35.7757 49.5809C34.1778 50.8894 40.4434 53.8838 40.9341 54.1564C40.414 54.2025 35.5073 50.7259 35.0627 52.005C34.8069 52.7053 35.826 53.4015 36.6606 53.8544C37.7048 54.4206 39.4536 54.8274 39.8479 55.1335C39.1097 55.3852 35.8637 53.175 35.8596 54.5254C35.8596 55.4061 37.8768 56.0687 38.6359 56.2994C39.3949 56.5301 41.7183 58.0986 42.4438 58.4466C44.8678 59.5999 45.8702 59.4657 46.8263 60.921C47.4344 61.8436 48.5039 66.7336 49.4013 68.5956L52.9199 65.5467Z" fill="#FFBE9E"/>
<path d="M134.465 67.9623C132.301 74.253 127.679 85.3918 126.153 84.6117C123.288 83.1439 117.128 78.1071 112.523 75.0247C108.958 72.6342 107.172 71.9381 107.172 71.9381L110.376 87.1364C110.376 87.1364 125.566 98.6735 128.749 96.9037C131.265 95.5114 137.413 77.9729 139.585 70.7009C139.585 70.7009 134.515 67.9917 134.465 67.9623Z" fill="#00D1C1"/>
<path d="M119.417 89.6399C117.706 87.4172 111.172 81.0174 109.403 79.6544L109.914 86.8594C109.914 86.8594 125.226 98.3714 128.614 96.9245C125.708 95.0583 121.514 92.3407 119.417 89.6399Z" fill="#007A87"/>
<path d="M81.3966 72.7432C81.3966 72.7432 62.7174 80.292 60.6834 79.7552C58.6494 79.2184 51.8764 59.9647 51.8764 59.9647L46.219 62.2629C46.219 62.2629 52.2622 90.0426 56.1499 91.3427C60.0375 92.6428 83.2251 85.9411 83.2251 85.9411C83.2251 85.9411 83.6067 79.1974 81.3966 72.7432Z" fill="#00D1C1"/>
<path d="M65.4598 89.6067C63.8117 90.1939 62.1383 90.7768 60.4566 91.2842C68.3787 90.24 83.2248 85.9497 83.2248 85.9497C83.2915 83.5893 83.1512 81.2275 82.8054 78.8916C78.2216 83.8612 71.6792 87.3756 65.4598 89.6067Z" fill="#007A87"/>
<path d="M150.255 41.579C149.416 38.9411 146.828 37.4146 144.513 38.1653C143.742 38.4255 143.068 38.914 142.58 39.566C142.859 40.6868 143.219 41.7857 143.658 42.8539C144.396 44.6503 145.366 46.3422 146.543 47.8865C146.904 47.8789 147.263 47.821 147.608 47.7145C149.923 46.9597 151.11 44.2127 150.255 41.579Z" fill="#D0D1DE"/>
<path d="M81.4304 95.4779C80.7677 101.962 80.2561 115.587 79.8661 117.495H110.519C111.06 107.313 110.879 92.5674 110.376 87.1448C109.499 77.6878 107.172 71.9465 107.172 71.9465C107.172 71.9465 104.882 71.2252 102.169 70.1809C102.169 70.1809 96.528 73.6282 91.2648 70.227C91.2648 70.227 81.7826 72.4707 80.6377 73.0201C79.6941 73.4647 82.1349 88.5456 81.4304 95.4779Z" fill="#00D1C1"/>
<path d="M89.537 104.344C89.5106 101.313 88.9145 98.314 87.7798 95.5034C87.5095 94.8671 87.3206 94.1992 87.2178 93.5155C87.0624 91.9413 86.6233 90.4082 85.9219 88.9904C85.2341 87.9545 84.5422 86.9229 83.8628 85.8828C83.4895 85.3754 83.0953 84.8344 82.6591 84.2053C81.9619 83.1434 81.3357 82.0367 80.7845 80.8922C81.1452 85.6521 81.7826 92.0099 81.4304 95.4782C80.7677 101.962 80.2561 115.587 79.8661 117.496H94.125C92.2923 115.135 91.1893 112.262 90.1115 108.76C89.7113 107.323 89.5178 105.836 89.537 104.344Z" fill="#007A87"/>
<path d="M106.417 59.0212C106.79 58.6353 107.172 58.2495 107.553 57.8679C107.83 57.5911 108.153 57.2933 108.011 56.8614C107.868 56.4294 107.335 56.0226 107.017 55.7081C106.79 55.4732 106.559 55.2426 106.333 55.0035C105.684 54.4055 105.209 53.6434 104.957 52.7976C104.755 51.8065 104.615 50.8035 104.538 49.7948C104.538 49.7361 104.228 49.7948 104.236 49.8745C104.327 50.8274 104.467 51.7751 104.655 52.7137C104.86 53.5585 105.295 54.3297 105.914 54.9406C106.4 55.4732 106.929 55.9639 107.411 56.4965C107.513 56.5821 107.597 56.6876 107.658 56.8065C107.718 56.9254 107.754 57.0554 107.763 57.1885C107.763 57.4988 107.47 57.7211 107.268 57.9266C106.896 58.2956 106.527 58.6689 106.161 59.0463C106.098 59.1092 106.383 59.0757 106.438 59.0212H106.417Z" fill="#3C3C3B"/>
<path d="M101.803 60.4514C102.207 61.0171 102.76 61.4594 103.401 61.7289C104.041 61.9985 104.744 62.0847 105.431 61.9779C105.477 61.9779 105.603 61.9402 105.607 61.8773C105.611 61.8144 105.523 61.8186 105.477 61.8228C104.829 61.9132 104.169 61.8219 103.57 61.5591C102.971 61.2962 102.457 60.872 102.084 60.334C102.03 60.2627 101.736 60.3591 101.803 60.4514Z" fill="#3C3C3B"/>
<path d="M103.565 53.4642C103.057 53.4089 102.544 53.5097 102.094 53.7532C101.644 53.9967 101.28 54.3713 101.048 54.8272C101.019 54.8859 101.149 54.8859 101.178 54.8859C101.213 54.884 101.247 54.8739 101.277 54.8564C101.307 54.8389 101.332 54.8145 101.35 54.7853C101.498 54.4622 101.729 54.1841 102.019 53.9793C102.309 53.7745 102.649 53.6503 103.003 53.6194C103.131 53.6089 103.26 53.6089 103.389 53.6194C103.426 53.6246 103.465 53.6221 103.502 53.6121C103.538 53.602 103.573 53.5845 103.603 53.5607C103.644 53.5229 103.644 53.4684 103.577 53.4642H103.565Z" fill="#3C3C3B"/>
<path d="M102.692 51.3215C102.285 51.4045 101.901 51.575 101.566 51.8212C101.232 52.0674 100.955 52.3835 100.755 52.7474C100.709 52.8397 100.969 52.802 100.998 52.7978C101.077 52.7817 101.154 52.7578 101.229 52.7265C101.277 52.7086 101.321 52.6782 101.354 52.6384C101.521 52.3044 101.768 52.0164 102.072 51.7996C102.144 51.7458 102.221 51.6981 102.302 51.657C102.34 51.6361 102.302 51.657 102.323 51.657L102.378 51.6319L102.441 51.6025C102.441 51.6025 102.508 51.5732 102.466 51.6025H102.491L102.55 51.5815H102.583C102.65 51.5606 102.512 51.5815 102.583 51.5815L102.747 51.5396C102.805 51.5396 103.044 51.4599 103.028 51.3719C103.011 51.2838 102.734 51.3719 102.701 51.3719L102.692 51.3215Z" fill="#3C3C3B"/>
<path d="M103.226 54.8064C103.506 54.8064 103.733 54.5792 103.733 54.2989C103.733 54.0187 103.506 53.7915 103.226 53.7915C102.945 53.7915 102.718 54.0187 102.718 54.2989C102.718 54.5792 102.945 54.8064 103.226 54.8064Z" fill="#3C3C3B"/>
</svg>
