<svg width="40" height="40" viewBox="0 0 40 40" fill="none" xmlns="http://www.w3.org/2000/svg">
<path fill-rule="evenodd" clip-rule="evenodd" d="M19.9999 6.50076C12.5445 6.50076 6.50067 12.5446 6.50067 20C6.50067 27.4554 12.5445 33.4993 19.9999 33.4993C27.4553 33.4993 33.4992 27.4554 33.4992 20C33.4992 12.5446 27.4553 6.50076 19.9999 6.50076ZM3.33325 20C3.33325 10.7953 10.7952 3.33334 19.9999 3.33334C29.2047 3.33334 36.6666 10.7953 36.6666 20C36.6666 29.2048 29.2047 36.6667 19.9999 36.6667C10.7952 36.6667 3.33325 29.2048 3.33325 20Z" fill="#FF5C60"/>
<path fill-rule="evenodd" clip-rule="evenodd" d="M25.6444 14.3552C26.2629 14.9736 26.2629 15.9764 25.6444 16.5949L16.5947 25.6446C15.9762 26.2631 14.9734 26.2631 14.355 25.6446C13.7365 25.0262 13.7365 24.0234 14.355 23.4049L23.4047 14.3552C24.0232 13.7367 25.026 13.7367 25.6444 14.3552Z" fill="#FF5C60"/>
<path fill-rule="evenodd" clip-rule="evenodd" d="M14.355 14.3552C14.9734 13.7367 15.9762 13.7367 16.5947 14.3552L25.6444 23.4049C26.2629 24.0234 26.2629 25.0262 25.6444 25.6446C25.026 26.2631 24.0232 26.2631 23.4047 25.6446L14.355 16.5949C13.7365 15.9764 13.7365 14.9736 14.355 14.3552Z" fill="#FF5C60"/>
</svg>
