<svg width="1256" height="665" viewBox="0 0 1256 665" fill="none" xmlns="http://www.w3.org/2000/svg">
<g opacity="0.3">
<mask id="mask0" mask-type="alpha" maskUnits="userSpaceOnUse" x="-24" y="0" width="1280" height="665">
<rect x="-24" width="1280" height="664.952" fill="#FCF5EB"/>
</mask>
<g mask="url(#mask0)">
<path fill-rule="evenodd" clip-rule="evenodd" d="M156.205 497.927C110.637 469.454 56.7883 453 -0.903625 453C-131.452 453 -242.321 537.256 -282.098 654.355H-278.927C-239.271 538.941 -129.774 456 -0.903625 456C56.8768 456 110.763 472.673 156.205 501.472V497.927ZM-297.807 749.903C-297.807 743.657 -297.614 737.457 -297.234 731.306H-294.228C-294.612 737.456 -294.807 743.657 -294.807 749.903C-294.807 912.222 -163.222 1043.81 -0.903625 1043.81C83.8791 1043.81 160.277 1007.91 213.919 950.48V950.617H217.881C163.609 1009.74 85.6808 1046.81 -0.903625 1046.81C-164.879 1046.81 -297.807 913.878 -297.807 749.903ZM265.067 882.003C284.866 842.217 296 797.36 296 749.903C296 673.447 267.101 603.741 219.631 551.112H215.574C263.65 603.438 293 673.243 293 749.903C293 797.412 281.727 842.288 261.711 882.003H265.067Z" fill="white"/>
<path fill-rule="evenodd" clip-rule="evenodd" d="M-38.7382 527.336C-145.39 545.334 -226.628 638.131 -226.628 749.903C-226.628 874.567 -125.568 975.627 -0.904099 975.627C16.7423 975.627 33.9158 973.602 50.3966 969.771V966.69C33.9268 970.572 16.7513 972.627 -0.904099 972.627C-123.911 972.627 -223.628 872.91 -223.628 749.903C-223.628 639.793 -143.725 548.345 -38.7382 530.379V527.336ZM22.8228 528.428C134.674 540.273 221.82 634.911 221.82 749.903C221.82 774.794 217.736 798.732 210.203 821.083H213.367C220.797 798.706 224.82 774.774 224.82 749.903C224.82 633.252 136.334 537.269 22.8228 525.411V528.428ZM94.6436 951.148C117.601 940.229 138.394 925.498 156.204 907.772V911.977C138.294 929.343 117.513 943.766 94.6436 954.466V951.148ZM189.614 865.33C193.512 858.909 197.095 852.276 200.341 845.451H203.659C200.468 852.27 196.947 858.903 193.115 865.33H189.614Z" fill="white"/>
<path fill-rule="evenodd" clip-rule="evenodd" d="M-0.90387 904.012C69.0633 904.012 128.14 857.385 146.949 793.509H150.075C131.175 859.064 70.7349 907.012 -0.90387 907.012C-87.6727 907.012 -158.013 836.672 -158.013 749.903C-158.013 734.773 -155.874 720.142 -151.882 706.297H-148.757C-152.828 720.124 -155.013 734.758 -155.013 749.903C-155.013 835.015 -86.0158 904.012 -0.90387 904.012ZM-132.552 669.745C-105.492 625.399 -56.6552 595.794 -0.90387 595.794C61.5755 595.794 115.371 632.975 139.563 686.418H142.85C118.461 631.273 63.2723 592.794 -0.90387 592.794C-58.392 592.794 -108.668 623.671 -136.054 669.745H-132.552Z" fill="white"/>
<path fill-rule="evenodd" clip-rule="evenodd" d="M-0.903717 842.451C50.209 842.451 91.6441 801.016 91.6441 749.903C91.6441 737.414 89.1705 725.504 84.6864 714.634H87.9239C92.2603 725.546 94.6441 737.446 94.6441 749.903C94.6441 802.673 51.8659 845.451 -0.903717 845.451C-37.9643 845.451 -70.0967 824.351 -85.9435 793.509H-82.5554C-66.9675 822.636 -36.2496 842.451 -0.903717 842.451ZM-93.4494 750.544C-93.4508 750.331 -93.4515 750.117 -93.4515 749.903C-93.4515 698.79 -52.0165 657.355 -0.903717 657.355C17.7125 657.355 35.045 662.852 49.5593 672.311H54.8652C39.1716 661.011 19.9112 654.355 -0.903717 654.355C-53.6733 654.355 -96.4515 697.133 -96.4515 749.903C-96.4515 750.117 -96.4508 750.331 -96.4494 750.544H-93.4494Z" fill="white"/>
<path fill-rule="evenodd" clip-rule="evenodd" d="M871.783 230.842C809.537 297.569 720.832 339.29 622.381 339.29C434.052 339.29 281.381 186.619 281.381 -1.71048C281.381 -8.94751 281.607 -16.1319 282.051 -23.2569H279.045C278.605 -16.1313 278.381 -8.94699 278.381 -1.71048C278.381 188.275 432.395 342.29 622.381 342.29C722.7 342.29 812.989 299.348 875.87 230.842H871.783ZM927.186 151.344H930.542C953.481 105.246 966.381 53.2744 966.381 -1.71048C966.381 -90.294 932.898 -171.057 877.898 -232.034H873.844C929.448 -171.359 963.381 -90.4977 963.381 -1.71048C963.381 53.3263 950.343 105.318 927.186 151.344ZM622.381 -342.71C472.803 -342.71 345.718 -246.403 299.753 -112.415H296.582C342.669 -248.089 471.125 -345.71 622.381 -345.71C689.224 -345.71 751.615 -326.646 804.411 -293.657V-290.113C751.74 -323.427 689.313 -342.71 622.381 -342.71Z" fill="white"/>
<path fill-rule="evenodd" clip-rule="evenodd" d="M578.546 -259.582C454.977 -238.729 360.852 -131.212 360.852 -1.71054C360.852 142.728 477.943 259.819 622.381 259.819C642.827 259.819 662.725 257.472 681.82 253.035V249.953C662.736 254.443 642.836 256.819 622.381 256.819C479.6 256.819 363.852 141.071 363.852 -1.71054C363.852 -129.55 456.642 -235.718 578.546 -256.539V-259.582ZM649.872 -258.795C779.729 -245.07 880.911 -135.206 880.911 -1.71054C880.911 27.1261 876.189 54.86 867.478 80.7605H870.642C879.25 54.8337 883.911 27.1059 883.911 -1.71054C883.911 -136.865 781.389 -248.074 649.872 -261.812V-258.795ZM733.086 231.984C759.67 219.368 783.759 202.35 804.412 181.871V186.073C783.66 206.193 759.583 222.903 733.086 235.301V231.984ZM843.677 132.026C848.183 124.586 852.324 116.9 856.076 108.994H859.393C855.697 116.894 851.617 124.58 847.177 132.026H843.677Z" fill="white"/>
<path fill-rule="evenodd" clip-rule="evenodd" d="M622.381 177.32C703.712 177.32 772.376 123.087 794.184 48.8122H797.309C775.411 124.766 705.384 180.32 622.381 180.32C521.849 180.32 440.351 98.8221 440.351 -1.71048C440.351 -19.2405 442.829 -36.1918 447.454 -52.2331H450.579C445.875 -36.2105 443.351 -19.2552 443.351 -1.71048C443.351 97.1652 523.506 177.32 622.381 177.32ZM469.293 -94.583C500.698 -146.238 557.51 -180.741 622.381 -180.741C695.041 -180.741 757.591 -137.456 785.652 -75.2655H788.938C760.681 -139.158 696.737 -183.741 622.381 -183.741C555.774 -183.741 497.522 -147.966 465.793 -94.583H469.293Z" fill="white"/>
<path fill-rule="evenodd" clip-rule="evenodd" d="M622.381 105.994C681.865 105.994 730.085 57.7729 730.085 -1.71048C730.085 -16.1749 727.234 -29.9733 722.063 -42.5744H725.299C730.323 -29.9314 733.085 -16.1435 733.085 -1.71048C733.085 59.4297 683.521 108.994 622.381 108.994C579.442 108.994 542.212 84.5468 523.852 48.8122H527.238C545.341 82.8322 581.156 105.994 622.381 105.994ZM514.68 -0.967499C514.678 -1.21496 514.677 -1.46262 514.677 -1.71048C514.677 -61.1938 562.898 -109.415 622.381 -109.415C644.307 -109.415 664.702 -102.863 681.716 -91.6111H686.996C668.813 -104.703 646.498 -112.415 622.381 -112.415C561.241 -112.415 511.677 -62.8507 511.677 -1.71048C511.677 -1.46263 511.678 -1.21497 511.68 -0.967499H514.68Z" fill="white"/>
</g>
</g>
</svg>
