<svg width="352" height="176" viewBox="0 0 352 176" fill="none" xmlns="http://www.w3.org/2000/svg">
<path d="M5.9333 175.219H324.042C328.344 175.219 332.645 175.219 336.927 175.219H337.532C341.082 175.115 344.558 174.182 347.681 172.493C349.525 171.502 351.775 170.203 351.775 167.864V44.958C351.909 43.2922 351.909 41.6183 351.775 39.9525C351.77 39.8799 351.77 39.8071 351.775 39.7345C351.775 37.9404 348.098 37.8314 347.017 37.8017C343.965 37.7858 340.938 38.3509 338.097 39.4668C329.811 42.5593 321.604 45.8798 313.446 49.2894C298.499 55.5438 283.354 61.9765 269.378 70.2231C257.227 77.3794 246.79 87.0731 236.055 96.1622C229.88 101.386 223.626 106.54 217.143 111.377C213.912 113.785 210.621 116.115 207.232 118.315L204.922 119.792C204.546 120.04 204.149 120.268 203.772 120.515C203.832 120.515 205.656 119.376 204.486 120.079L203.713 120.535C202.058 121.526 200.373 122.468 198.668 123.36C197.905 123.766 197.122 124.173 196.339 124.559C195.744 124.847 194.237 125.937 193.623 125.848C194.047 125.618 194.488 125.42 194.941 125.253L194.356 125.511L193.197 126.007C192.295 126.373 191.383 126.73 190.471 127.067L189.311 127.483L188.726 127.682C187.735 128.058 190.709 127.067 190.391 127.146C189.48 127.364 188.588 127.701 187.676 127.949C186.912 128.148 186.1 128.266 185.356 128.514C185.945 128.429 186.528 128.307 187.101 128.148L186.516 128.257L184.98 128.534C184.236 128.653 183.404 128.653 182.67 128.841C182.422 128.911 185.178 128.623 184.216 128.673L183.651 128.722C183.136 128.722 182.66 128.792 182.115 128.812C181.273 128.812 180.43 128.812 179.588 128.812C179.508 128.812 181.441 128.881 180.519 128.812H179.756C179.092 128.812 178.418 128.742 177.774 128.693C175.626 128.521 173.485 128.26 171.351 127.91L169.825 127.642C168.506 127.404 170.974 127.89 169.666 127.642C168.536 127.394 167.416 127.146 166.296 126.859C149.942 122.736 135.232 114.281 119.651 108.106C112.13 104.948 104.197 102.882 96.0908 101.971C87.1402 101.219 78.1289 102.229 69.5669 104.944C53.6486 109.9 39.108 118.256 25.5487 127.811C17.2665 133.668 9.32423 139.992 1.76044 146.752C1.26214 147.094 0.853412 147.551 0.568766 148.084C0.28412 148.617 0.131911 149.21 0.125 149.815C0.125 151.252 0.125 152.689 0.125 154.126V173.236C0.125 174.584 3.09854 175.06 3.79236 175.139C6.28763 175.342 8.79882 175.076 11.1965 174.356C14.17 173.514 20.2261 171.749 20.2261 167.844V144.333L19.3737 146.633C19.7206 146.306 20.0774 145.989 20.4342 145.642L20.91 145.216C21.8021 144.423 19.1854 146.712 20.345 145.711L22.0796 144.224C25.4232 141.376 28.8361 138.614 32.3185 135.938C37.0365 132.301 41.8734 128.812 46.8392 125.521C48.2566 124.589 49.674 123.677 51.1112 122.775C51.7059 122.399 53.936 121.08 51.4184 122.577C52.2808 122.062 53.1332 121.536 53.9955 121.031C56.8402 119.376 59.7344 117.8 62.6782 116.333C63.3126 116.015 63.9469 115.708 64.5912 115.411C65.2355 115.114 68.3478 113.766 64.9678 115.203C66.4943 114.558 68.0108 113.904 69.557 113.31C70.2508 113.042 70.9546 112.794 71.6484 112.546L72.6396 112.219C74.3047 111.644 69.8345 113.092 71.5195 112.576C72.9964 112.13 74.4931 111.704 75.9997 111.347L76.3664 111.258L74.7607 111.605L75.8609 111.387C76.4655 111.278 77.0701 111.179 77.6748 111.099L78.7452 110.961C80.3509 110.752 75.9699 111.179 77.7541 111.07C78.6065 111.01 79.4589 110.96 80.3113 110.941H81.5899C83.2353 110.941 79.449 110.832 81.0943 110.941C81.808 110.99 82.5117 111.02 83.2154 111.079C85.0095 111.238 86.7638 111.565 88.5381 111.823C89.5292 111.962 86.7837 111.436 88.2506 111.763L89.5193 112.051C90.3817 112.249 91.2341 112.457 92.0766 112.685C93.8012 113.151 95.516 113.676 97.201 114.251C100.551 115.371 103.842 116.67 107.113 118.047C113.932 120.922 120.603 124.133 127.372 127.107C142.121 133.579 157.871 138.822 174.196 138.01C190.748 137.237 206.221 130.279 220.087 121.655C232.259 114.083 243.301 104.855 254.204 95.5972C259.288 91.2856 264.333 86.9344 269.517 82.7119C271.737 80.9179 273.978 79.1536 276.277 77.4686C277.268 76.7351 278.259 76.0116 279.31 75.3177C279.753 75.0138 280.199 74.7164 280.648 74.4257C281.342 73.9697 283.81 72.592 280.846 74.2572C286.575 71.0359 292.344 67.9632 298.281 65.1185C301.522 63.5624 304.793 62.0657 308.084 60.5789C309.769 59.8157 305.804 61.5701 307.499 60.8366L308.778 60.2717L311.117 59.2805C312.861 58.5206 314.609 57.7673 316.36 57.0206C325.492 53.122 334.694 49.405 343.965 45.8698L345.471 45.3049L331.763 45.0373V157.526C331.763 162.69 331.585 167.894 331.763 173.058V173.236L346.006 165.882H27.7789C23.4771 165.882 19.1854 165.882 14.8936 165.882H14.3286C11.6315 166.004 8.97581 166.59 6.47845 167.616C4.77363 168.28 2.12719 169.43 0.937773 170.976C-1.85735 174.624 3.38598 175.219 5.9333 175.219Z" fill="#00D1C1"/>
<path d="M18.4914 142.896C24.1312 147.912 29.6124 153.175 35.5 157.893C38.1942 159.89 41.2117 161.409 44.4206 162.383C46.5661 162.981 48.6581 163.757 50.6749 164.702L49.3963 163.969C50.3602 164.482 51.1864 165.22 51.8049 166.12L51.1408 165.128C51.5275 165.802 51.7547 166.554 51.8049 167.329L55.7696 162.373C55.1551 162.74 55.2839 162.7 56.1661 162.254C57.0095 161.828 57.8969 161.496 58.8125 161.263C60.2389 160.854 61.7204 160.67 63.2034 160.718C64.7695 160.807 63.5008 160.718 63.134 160.658C61.7464 160.529 64.71 161.174 63.3719 160.728C62.0338 160.282 60.5272 159.687 59.0603 159.31C54.828 158.24 50.5956 158.458 46.2741 158.458H32.2489C31.1388 158.458 34.5683 158.636 33.6564 158.537H33.0815C32.2489 158.468 32.4868 158.042 34.0727 158.815C33.924 158.745 33.7555 158.706 33.5969 158.636L34.8855 159.37C34.7676 159.313 34.6655 159.228 34.5881 159.122L35.2522 160.113C35.2119 160.051 35.1912 159.979 35.1927 159.905L35.1333 161.124C35.1329 161.038 35.1533 160.953 35.1927 160.876L34.4494 162.155C34.935 161.322 33.8051 162.67 33.6663 162.799C34.5782 161.977 31.684 164.018 33.1014 163.156C33.8646 162.69 31.4263 163.889 31.6443 163.83C31.8624 163.771 31.9912 163.681 32.1597 163.612C33.9538 162.908 29.7413 164.316 31.1686 163.929C31.9912 163.701 32.8238 163.503 33.6564 163.315C34.7269 163.077 31.5452 163.741 31.9119 163.681C32.2787 163.622 32.4174 163.582 32.6751 163.523L33.9835 163.265C38.6817 162.274 43.3402 161.114 48.0384 160.093C52.8639 159.029 57.6285 157.706 62.3114 156.129C66.5833 154.701 71.0536 153.452 74.8993 151.044C77.3361 149.55 79.504 147.657 81.3122 145.444C81.8673 144.77 82.4025 144.076 82.9873 143.461C83.0964 143.332 83.2252 143.214 83.3342 143.075C83.8992 142.44 81.9664 144.234 82.8783 143.511C83.02 143.41 83.1557 143.301 83.2847 143.184C83.9091 142.629 81.2429 144.413 82.4818 143.709C83.7208 143.005 85.9906 141.588 86.4465 139.962C86.843 138.525 85.8717 137.455 84.5633 136.989C82.45 136.341 80.2089 136.229 78.0414 136.662C75.3702 137.045 72.787 137.893 70.4093 139.17C68.1787 140.393 66.1685 141.981 64.4622 143.868C63.471 144.998 62.5393 146.217 61.4887 147.357C60.438 148.497 62.8962 146.256 61.796 147.059C61.0922 147.585 60.4579 147.614 62.4006 146.752C62.027 146.925 61.666 147.123 61.3202 147.347C63.5503 145.949 63.2034 146.514 62.4799 146.792C60.7354 147.486 58.9711 148.06 57.1969 148.655L54.5108 149.557C58.3169 148.259 54.8974 149.418 54.0053 149.696C52.1914 150.251 50.3677 150.746 48.5142 151.153C44.6387 152.005 40.7533 152.828 36.8976 153.77C35.9064 154.007 32.695 154.662 36.8976 153.829L35.0044 154.216C31.7724 154.815 28.5863 155.64 25.4693 156.684C22.8033 157.573 20.2945 158.877 18.0355 160.549C16.6676 161.6 14.4177 163.523 15.0619 165.584C15.7062 167.646 18.4815 168.082 20.1665 168.31C21.7614 168.502 23.3675 168.584 24.9737 168.558H36.2929C38.4438 168.558 40.6046 168.479 42.7653 168.489H43.2114C44.1034 168.489 43.816 168.489 42.349 168.489C42.7852 168.548 43.2411 168.588 43.6772 168.637C45.2135 168.816 42.1607 168.062 43.6178 168.637L45.1442 169.182C47.9153 170.229 50.8455 170.792 53.8071 170.848C58.7183 170.887 63.5471 169.584 67.7728 167.081C69.5965 165.921 71.9654 164.603 71.7375 162.125C71.4599 158.369 67.7728 156.248 64.6109 155.058C61.449 153.869 58.0691 153.076 55.0559 151.46L56.3346 152.194C54.7342 151.154 53.2254 149.981 51.8247 148.685C50.2091 147.287 48.6034 145.9 47.0076 144.492C43.707 141.578 40.4559 138.605 37.1652 135.681C35.8568 134.521 33.4681 134.382 31.8723 134.402C29.1735 134.472 26.51 135.033 24.0123 136.057C22.1092 136.86 19.7403 137.851 18.5211 139.596C17.7678 140.686 17.1632 142.034 18.3725 143.114L18.4914 142.896Z" fill="#00D1C1"/>
<path d="M39.9998 125.432C40.8576 126.318 41.5881 127.318 42.1705 128.405L41.4073 127.008C42.3501 129.004 43.1323 131.072 43.7464 133.193C44.4825 135.468 45.4041 137.679 46.5019 139.804C47.8499 142.381 49.3169 144.879 50.8036 147.377C52.112 149.597 53.5987 151.708 54.8873 153.938L54.1241 152.541C55.1648 154.473 55.4721 156.684 56.3939 158.666C56.9112 159.928 57.6762 161.074 58.6438 162.036C59.3411 162.615 59.9608 163.281 60.4874 164.018L59.7242 162.621C60.7154 164.603 61.3002 166.804 62.9654 168.429C64.8265 170.444 67.201 171.914 69.8342 172.681C73.6055 173.517 77.5463 173.107 81.0643 171.512C83.6422 170.5 85.8679 168.757 87.4673 166.496C88.6666 164.633 89.1226 162.363 89.7966 160.272C90.4706 158.18 91.2932 156.119 91.8384 153.948C92.443 151.53 92.9584 149.091 93.4342 146.653C94.4683 141.696 95.016 136.65 95.0696 131.587C95.0696 128.812 95.0696 126.036 95.0696 123.261C95.0696 121.11 94.8615 118.979 94.802 116.838V118.424C94.7337 117.357 94.8579 116.286 95.1687 115.262L94.5146 116.868C94.5895 116.691 94.6825 116.521 94.7921 116.363L93.5234 117.919C93.5985 117.832 93.6814 117.752 93.7712 117.681L79.5577 121.487L79.746 121.546L77.8727 120.833C77.9956 120.885 78.112 120.952 78.2196 121.031L76.8518 119.951C77.2115 120.285 77.513 120.677 77.7438 121.11L76.9806 119.713C77.7141 121.14 78.0511 122.686 78.6954 124.183C79.746 126.572 80.8462 128.951 82.0356 131.28C84.1667 135.453 86.4959 139.655 90.193 142.649C92.0965 144.261 94.2316 145.577 96.5267 146.554C99.4269 147.731 102.408 148.699 105.447 149.448C111.132 150.815 116.94 151.609 122.783 151.817C129.85 152.075 137.135 152.481 143.984 150.37C146.898 149.468 150.298 148.06 151.914 145.255C152.252 144.802 152.482 144.278 152.588 143.723C152.694 143.168 152.673 142.596 152.526 142.05C152.379 141.504 152.111 140.999 151.74 140.572C151.369 140.145 150.907 139.808 150.387 139.586C147.582 137.524 143.508 137.039 140.119 137.098C138.771 137.098 137.433 137.167 136.094 137.227L135.014 137.286C133.755 137.346 136.62 137.286 136.541 137.286C134.955 137.286 133.359 137.336 131.763 137.376C128.651 137.506 125.533 137.403 122.436 137.068C122.07 136.973 121.694 136.923 121.316 136.92C121.663 136.791 123.566 137.267 122 137.009C121.247 136.88 120.493 136.741 119.75 136.583C118.517 136.346 117.304 136.015 116.122 135.591L118.005 136.305C117.405 136.077 116.833 135.781 116.301 135.423L117.668 136.493C117.386 136.282 117.141 136.024 116.945 135.73L117.698 137.128C117.509 136.755 117.404 136.346 117.391 135.928V137.514C117.407 137.175 117.478 136.84 117.599 136.523L116.945 138.129C117.128 137.722 117.361 137.339 117.639 136.989L116.439 138.545C116.752 138.197 117.083 137.866 117.431 137.554C118.422 136.662 116.439 138.357 116.36 138.377C116.588 138.228 116.806 138.04 117.034 137.881C117.799 137.353 118.589 136.863 119.403 136.414L120.087 136.028C121.197 135.423 117.678 137.316 118.59 136.84L119.581 136.305C121.257 135.413 122.882 134.501 124.488 133.52C125.816 132.707 127.144 131.894 128.452 131.121C128.819 130.913 130.088 130.229 128.452 131.121C126.817 132.013 128.135 131.3 128.522 131.121C129.189 130.778 129.874 130.47 130.574 130.199C132.12 129.595 129.295 130.636 129.176 130.675L130.237 130.308C131.585 129.843 132.943 129.406 134.261 128.871C136.79 127.82 139.133 126.367 141.199 124.57C142.309 123.628 143.637 121.388 143.072 119.812C142.812 119.138 142.4 118.534 141.869 118.044C141.338 117.554 140.702 117.193 140.01 116.987C135.777 115.371 130.346 116.61 126.649 119.019C125.013 120.089 123.259 121.001 121.584 121.992C119.443 123.36 117.409 124.888 115.498 126.562C112.251 129.202 109.305 132.194 106.716 135.482C104.676 138.322 102.841 141.303 101.225 144.403C99.2757 147.581 97.5022 150.863 95.9121 154.235C94.8806 156.592 94.042 159.028 93.4044 161.521C93.1529 162.501 92.9511 163.493 92.7998 164.494C92.8207 165.526 92.7209 166.558 92.5025 167.567L93.1566 165.951C92.3141 167.527 91.2734 168.766 91.323 170.689C91.4221 174.654 95.9419 175.714 99.2028 175.883C102.017 176.002 104.829 175.602 107.499 174.703C109.075 174.188 113.644 172.721 109.214 174.109C109.967 173.871 110.73 173.653 111.503 173.454C114.705 172.632 117.946 171.948 121.187 171.294L123.507 170.828C123.951 170.674 124.415 170.58 124.884 170.55C124.884 170.55 121.99 171.056 123.596 170.798C125.36 170.511 127.114 170.263 128.889 170.094C130.494 169.936 132.11 169.837 133.726 169.767H134.211H133.101H134.32H136.987C140.545 169.767 144.103 169.767 147.671 169.767C155.135 169.767 162.668 170.243 170.082 169.123C171.945 168.845 173.809 168.528 175.692 168.36C176.683 168.271 177.595 168.231 178.547 168.181C180.073 168.102 177.446 168.181 177.427 168.181C178.067 168.147 178.709 168.147 179.349 168.181C183.185 168.181 187.031 168.34 190.867 168.34L198.42 155.93C193.295 155.93 188.171 155.93 183.047 155.93C178.089 156.093 173.127 156.007 168.179 155.673L166.276 155.455L165.285 155.326L166.117 155.445C164.849 155.246 163.58 155.038 162.301 154.81C160.031 154.424 157.752 154.057 155.492 153.601C150.766 152.628 146.126 151.279 141.615 149.567L143.499 150.281C141.905 149.772 140.383 149.063 138.969 148.169L140.347 149.24C139.945 148.913 139.608 148.513 139.355 148.06L140.119 149.458C140.013 149.205 139.946 148.938 139.92 148.665V150.251C139.936 149.963 139.996 149.678 140.099 149.408L139.445 151.024C139.542 150.817 139.662 150.621 139.801 150.439L138.533 151.995C138.652 151.847 138.82 151.708 138.929 151.549C139.375 150.925 137.938 152.293 137.938 152.303C138.245 152.144 138.533 151.876 138.82 151.688L139.286 151.401C140.089 150.885 137.581 152.283 137.839 152.174C138.295 151.995 138.731 151.748 139.177 151.559C139.623 151.371 139.881 151.292 140.218 151.153C140.555 151.014 137.472 152.065 138.493 151.767L139.038 151.599C139.821 151.361 140.624 151.153 141.427 150.965C142.23 150.776 142.914 150.647 143.657 150.499C144.728 150.281 141.467 150.905 141.853 150.836L142.408 150.737L143.677 150.509C145.223 150.231 146.779 149.944 148.326 149.636C148.782 149.547 150.308 149.25 148.405 149.636C146.502 150.023 148.405 149.636 148.9 149.557C150.784 149.24 152.667 148.992 154.56 148.853C155.085 148.804 155.611 148.784 156.136 148.744C157.742 148.655 153.767 148.744 155.383 148.744C156.374 148.744 157.365 148.744 158.356 148.744C162.371 148.903 166.286 149.646 170.25 150.132C174.841 150.532 179.453 150.644 184.058 150.469C186.778 150.538 189.481 150.024 191.987 148.962C193.791 148.16 196.348 146.633 197.31 144.77C198.063 143.313 198.459 141.529 197.161 140.171C195.665 138.775 193.685 138.018 191.64 138.059C187.814 138.059 183.988 138.059 180.162 138.228C176.336 138.495 172.537 139.072 168.803 139.953C167.307 140.27 165.83 140.567 164.323 140.864C168.08 140.101 165.096 140.716 164.214 140.864C163.501 140.993 162.787 141.132 162.073 141.221C157.742 141.786 153.153 142.212 149.545 144.899C147.731 146.247 145.778 147.823 145.848 150.291C145.917 152.759 147.83 153.581 149.872 154.255C155.145 156.059 160.775 154.156 165.889 152.868C166.246 152.778 166.613 152.709 166.97 152.63C167.326 152.55 169.626 152.114 167.515 152.511C165.404 152.907 167.644 152.511 168.06 152.432L169.497 152.184C171.658 151.827 173.819 151.5 175.97 151.193C180.898 150.474 185.782 149.482 190.599 148.219C192.582 147.684 194.475 147.109 196.437 146.673C198.22 146.287 199.972 145.774 201.681 145.136C202.047 144.998 202.365 144.859 202.672 144.69C203.524 144.244 204.377 143.788 205.219 143.313C203.403 144.466 201.35 145.195 199.213 145.444C201.919 145.183 204.523 144.275 206.805 142.797C208.173 141.885 210.334 140.052 210.522 138.208C211.018 133.401 204.991 132.985 201.651 133.173C198.492 133.485 195.444 134.501 192.73 136.146C191.452 136.84 195.188 134.947 193.771 135.552C196.745 134.303 195.635 134.917 194.673 135.135C192.691 135.572 190.788 136.057 188.855 136.593C186.922 137.128 184.96 137.683 182.987 138.109L181.59 138.396L183.126 138.109L182.402 138.238C181.411 138.426 180.331 138.595 179.3 138.763C174.463 139.556 169.636 140.3 164.839 141.241C163.193 141.558 161.617 142.014 160.012 142.46L158.892 142.738C157.276 143.174 161.756 142.381 160.121 142.5C159.881 142.538 159.639 142.561 159.397 142.569L161.241 142.51C160.359 142.44 160.775 142.51 162.509 142.718C162.295 142.676 162.086 142.613 161.885 142.53L162.212 151.896C163.104 151.232 160.448 152.808 160.646 152.709C158.505 153.393 157.871 153.621 158.733 153.413C159.229 153.294 158.931 153.343 157.831 153.571C155.601 154.008 157.524 153.68 158.089 153.641C159.08 153.552 160.012 153.433 160.973 153.274C164.571 152.65 168.159 151.966 171.727 151.193C172.233 151.084 174.513 150.618 172.481 151.004C170.449 151.391 172.927 150.945 173.472 150.875C174.859 150.687 176.257 150.578 177.664 150.499C177.975 150.519 178.286 150.519 178.596 150.499L176.971 150.548H177.674H179.548H184.038L191.581 138.139C186.899 138.306 182.211 138.18 177.546 137.762C173.026 137.207 168.625 136.394 164.006 136.365C158.033 136.394 152.079 137.028 146.234 138.258C145.739 138.347 143.875 138.714 146.105 138.258C148.336 137.802 146.532 138.168 146.056 138.258C144.361 138.565 142.656 138.882 140.961 139.249C139.153 139.57 137.366 139.996 135.609 140.527C132.425 141.496 129.362 142.827 126.48 144.492C123.715 146.118 120.533 148.685 119.76 151.976C118.372 158.151 126.698 160.401 130.93 161.887C139.94 165.148 149.565 166.843 159.05 167.953C164.302 168.427 169.579 168.57 174.85 168.38C180.132 168.38 185.415 168.38 190.708 168.38C193.429 168.448 196.132 167.934 198.638 166.873C200.442 166.07 202.999 164.544 203.951 162.68C204.704 161.223 205.1 159.439 203.812 158.081C202.312 156.692 200.334 155.936 198.291 155.97C191.353 155.97 184.414 155.474 177.536 156.188C174.562 156.495 171.589 157.12 168.615 157.387C168.148 157.479 167.672 157.512 167.198 157.487C167.198 157.487 169.844 157.427 168.288 157.487L166.058 157.378C164.422 157.378 162.787 157.378 161.151 157.378C154.907 157.298 148.653 157.189 142.408 157.298C138.572 157.358 134.727 157.467 130.911 157.853C127.095 158.24 123.368 159.013 119.631 159.756C116.231 160.44 112.832 161.134 109.462 161.977C107.231 162.532 105.16 163.245 102.979 164.008C102.801 164.068 105.953 163.017 104.545 163.453L103.475 163.781C101.889 164.217 106.161 163.364 104.952 163.493C104.149 163.582 104.714 163.562 106.637 163.493C108.351 163.83 108.788 163.88 107.945 163.652L109.828 164.365L109.531 164.236L111.662 166.704C111.564 166.525 111.51 166.324 111.503 166.12L111.553 167.715C111.55 167.529 111.584 167.344 111.652 167.17L110.998 168.776C111.683 167.648 112.286 166.472 112.802 165.257C112.988 164.069 113.104 162.871 113.149 161.669C113.595 159.139 114.299 156.662 115.25 154.275L114.596 155.891C116.24 152.296 118.1 148.804 120.166 145.434C121.891 142.111 123.88 138.933 126.113 135.928L124.845 137.485C127.015 134.946 129.425 132.623 132.041 130.546C133.161 129.605 131.813 130.655 131.456 130.982C131.791 130.699 132.142 130.434 132.506 130.19C133.23 129.664 133.983 129.198 134.746 128.732C136.303 127.821 137.908 126.988 139.425 126.007L124.884 120.446C126.946 118.702 126.252 119.366 125.657 119.782C124.726 120.446 128.215 118.583 126.777 119.187C126.321 119.376 125.866 119.574 125.4 119.752C123.853 120.357 127.957 118.87 126.777 119.267L125.885 119.574C124.557 120.03 123.199 120.456 121.921 121.011C118.734 122.436 115.657 124.092 112.713 125.967L109.541 127.89C108.302 128.623 112.108 126.522 111.018 127.097L108.916 128.227C107.071 129.147 105.301 130.211 103.623 131.409C100.997 133.391 98.3802 135.631 97.4484 138.932C96.5762 141.985 98.4991 144.611 101.046 146.068C103.638 147.376 106.428 148.247 109.303 148.645C112.691 149.3 116.124 149.695 119.572 149.825C122.793 149.894 126.014 149.755 129.236 149.696C130.603 149.696 131.981 149.617 133.359 149.547H134.082C135.698 149.458 131.376 149.547 133.012 149.547C133.626 149.547 134.231 149.547 134.846 149.617C136.313 149.696 132.804 149.19 133.854 149.468C134.251 149.577 134.647 149.676 135.034 149.815L133.151 149.101C133.687 149.32 134.193 149.607 134.657 149.954L141.08 139.179C140.396 139.388 139.722 139.536 139.038 139.705C142.825 138.793 140.029 139.487 139.038 139.576L137.948 139.655C136.402 139.774 140.138 139.655 138.939 139.655C138.126 139.655 137.324 139.655 136.511 139.655C133.537 139.606 130.514 139.526 127.531 139.308C126.024 139.199 124.557 139.051 123.011 138.852C121.276 138.624 123.665 138.852 123.695 138.952C123.725 139.051 122.426 138.753 122.347 138.733C121.594 138.605 120.85 138.466 120.107 138.307C117.005 137.68 113.957 136.815 110.988 135.72L112.861 136.444C111.059 135.762 109.361 134.831 107.816 133.678L109.194 134.749C106.308 132.336 103.947 129.357 102.256 125.997L103.009 127.394C101.378 124.454 99.9317 121.415 98.6775 118.295C97.6863 115.768 97.1114 113.062 94.8714 111.308C93.314 110.153 91.4373 109.509 89.4992 109.464C87.319 109.333 85.1345 109.636 83.0724 110.356C81.0102 111.076 79.1114 112.198 77.4861 113.657C76.0607 114.987 75.122 116.756 74.8199 118.682C74.4829 121.18 74.919 123.727 75.0082 126.235L74.8694 124.57C74.9685 132.023 74.9388 139.437 73.6304 146.742C72.9961 150.33 72.2626 153.928 71.3012 157.437C70.8551 159.063 70.2406 160.609 69.6955 162.195C69.2494 163.473 68.9521 164.792 68.4565 166.05L69.1107 164.435C68.9341 164.874 68.7045 165.29 68.4268 165.674L69.6955 164.108C70.6012 163.28 71.6785 162.663 72.8505 162.299C74.0224 161.936 75.2601 161.836 76.4751 162.006C81.9662 161.788 83.6843 161.398 81.6293 160.837L83.5125 161.56C82.8163 161.276 82.1653 160.892 81.5797 160.42L82.9574 161.491C81.8961 160.706 80.986 159.736 80.2713 158.626L81.0345 160.024C80.2218 158.438 79.8154 156.694 78.6755 155.266C77.8033 154.166 76.6139 153.482 75.9102 152.233L76.6634 153.631C75.9908 152.061 75.4213 150.448 74.9586 148.804C74.1712 146.83 73.1245 144.97 71.8463 143.273C69.7946 140.3 68.0006 136.999 66.2561 133.807L67.0193 135.195C65.517 132.302 64.2764 129.28 63.3123 126.165C62.3211 122.994 60.9533 119.673 58.5844 117.245C57.0637 115.89 55.0999 115.139 53.0635 115.134C50.3382 114.998 47.6199 115.515 45.1341 116.64C43.1517 117.572 40.8423 118.831 39.8214 120.833C39.078 122.28 38.6617 124.094 39.9601 125.432H39.9998Z" fill="#00D1C1"/>
<path d="M227.729 129.862C228.324 128.871 227.075 130.378 227.015 130.427C226.292 131.101 221.504 133.579 219.135 133.639C219.661 133.639 220.196 133.48 220.711 133.411C222.03 133.232 223.358 133.103 224.676 132.965C225.994 132.826 227.174 132.697 228.423 132.568L230.098 132.41C231.604 132.261 229.047 132.489 229.008 132.489C229.488 132.498 229.969 132.469 230.445 132.4C235.639 132.142 240.852 132.291 246.056 132.31C251.26 132.33 256.711 132.31 262.034 132.31C265.919 132.31 269.824 132.429 273.7 132.172C275.256 132.073 276.802 131.973 278.358 131.964H279.647C281.312 131.964 277.437 131.706 278.656 131.884C278.941 131.977 279.238 132.027 279.538 132.033C279.637 132.033 277.555 131.428 278.2 131.666L278.576 131.835L277.278 131.022C277.4 131.102 277.51 131.198 277.605 131.309L276.921 130.199C276.997 130.336 277.034 130.49 277.03 130.645V129.337C277.006 129.476 276.966 129.613 276.911 129.743L277.635 128.385C277.57 128.502 277.494 128.612 277.407 128.712C276.931 129.317 279.042 127.196 278.259 127.83C277.476 128.465 279.756 126.839 279.568 126.948C279.393 127.041 279.225 127.144 279.062 127.255L278.497 127.553C278.249 127.682 281.203 126.304 280.063 126.78C279.617 126.968 279.171 127.156 278.725 127.325C278.279 127.493 278.031 127.583 277.684 127.711L277.169 127.89L279.151 127.216C277.595 127.751 276.049 128.207 274.513 128.812C273.858 129.049 273.194 129.287 272.53 129.505C271.866 129.723 270.36 130.17 273.601 129.149L272.719 129.446C271.232 129.922 269.745 130.368 268.238 130.804C265.39 131.617 262.526 132.353 259.645 133.014C247.394 135.849 235.034 138.228 222.733 140.835C220.84 141.241 225.489 140.28 223.586 140.666L222.188 140.944L219.849 141.419C217.391 141.915 214.893 142.411 212.485 142.976C207.608 144.125 202.959 145.572 198.886 148.605C198.32 148.98 197.841 149.472 197.484 150.049C197.126 150.625 196.898 151.272 196.814 151.946C196.814 153.304 197.657 153.869 198.796 154.513C201.007 155.791 203.832 155.96 206.32 156.099C208.556 156.165 210.794 156.082 213.02 155.851L215.28 155.673C211.097 156.019 214.586 155.752 215.557 155.673C218.412 155.464 221.247 155.207 224.091 154.88C225.211 154.761 226.331 154.632 227.451 154.523L228.899 154.384C230.702 154.215 226.599 154.513 228.294 154.434C230.524 154.334 232.754 154.305 234.984 154.325C237.046 154.325 239.118 154.453 241.179 154.404C241.804 154.404 242.428 154.325 243.053 154.275C247.146 153.968 241.467 154.334 242.864 154.275H243.717C241.952 154.087 241.467 154.067 242.279 154.186C240.865 153.697 240.459 153.608 241.06 153.918L239.752 153.105C239.856 153.168 239.941 153.257 240 153.363L239.326 152.253C239.382 152.379 239.418 152.513 239.435 152.649V151.351C239.424 151.551 239.374 151.746 239.286 151.926L240.01 150.568C239.92 150.727 239.792 150.865 239.712 151.024C239.633 151.182 238.88 151.886 240.099 150.667C241.09 149.676 240.664 150.142 240.446 150.3L239.782 150.845L239.474 151.073C238.642 151.698 240.783 150.201 240.664 150.261C239.752 150.756 238.88 151.341 237.958 151.837L237.195 152.233L236.332 152.699C235.718 153.036 234.756 153.274 237.413 152.184C237.145 152.293 236.887 152.421 236.62 152.54L235.411 153.026L234.796 153.244C233.805 153.631 236.699 152.64 236.402 152.709C235.411 152.927 234.479 153.274 233.508 153.502C233.091 153.601 232.665 153.68 232.249 153.789C231.832 153.898 234.994 153.244 233.904 153.442L233.27 153.571C232.338 153.74 231.406 153.898 230.465 154.047C228.482 154.364 226.45 154.662 224.438 154.909C222.426 155.157 220.265 155.355 218.174 155.534C218.615 155.524 219.055 155.491 219.492 155.435C219.264 155.435 219.007 155.435 218.779 155.484L217.084 155.593C216.043 155.653 215.002 155.702 213.952 155.742C209.204 155.94 204.436 155.98 199.679 155.98C196.976 156.022 194.306 156.573 191.809 157.605C190.084 158.309 187.448 159.588 186.357 161.293C185.614 162.442 185.029 163.939 186.288 165.049C187.547 166.159 189.846 166.526 191.63 166.526H266.613C270.023 166.526 273.432 166.526 276.842 166.526C278.348 166.526 279.875 166.655 281.381 166.615C285.799 166.612 290.136 165.435 293.95 163.205C295.605 162.165 297.805 160.807 297.914 158.616C297.974 156.634 295.823 155.762 294.128 155.554C289.382 155.099 284.6 155.888 280.251 157.843L278.933 158.408C277.883 158.854 276.535 158.874 280.053 158.101C279.518 158.22 278.973 158.378 278.428 158.507C276.624 158.943 281.054 158.022 279.33 158.329C276.872 158.765 274.423 159.072 271.935 159.32C270.944 159.399 271.321 159.38 273.065 159.241L272.134 159.3L270.27 159.409L266.791 159.548C256.572 159.885 246.353 159.598 236.134 159.548C233.432 159.59 230.762 160.142 228.264 161.174C226.54 161.877 223.903 163.156 222.813 164.861C222.069 166.01 221.485 167.507 222.733 168.617C224.141 169.876 226.302 170.084 228.086 170.094C235.926 170.094 243.776 170.332 251.547 169.024C259.318 167.715 267.009 166.179 274.641 164.306C282.208 162.506 289.662 160.258 296.963 157.576C297.072 157.576 294.059 158.567 295.526 158.061L296.725 157.665L298.707 157.021L303.604 155.464C307.35 154.265 311.107 153.046 314.764 151.599C318.717 150.095 322.537 148.261 326.183 146.118C327.699 145.206 323.843 147.109 325.469 146.455C326.004 146.237 326.53 146.009 327.065 145.82L327.878 145.533C325.895 146.177 325.449 146.336 326.46 146.009L327.273 145.751C329.808 145.022 332.291 144.124 334.707 143.065C336.481 142.222 339.018 141.132 340.158 139.378C340.832 138.337 341.288 137.316 340.584 136.166C340.171 135.629 339.648 135.185 339.049 134.866C338.451 134.546 337.792 134.358 337.115 134.313C334.613 134.058 332.085 134.252 329.652 134.888L331.446 134.521L330.99 134.61L330.068 134.769C329.454 134.868 328.849 134.947 328.234 135.026L326.401 135.215C324.914 135.373 327.531 135.135 327.55 135.135C327.104 135.135 326.609 135.195 326.173 135.215C323.635 135.334 321.098 135.304 318.56 135.294H260.725C259.308 135.294 257.881 135.294 256.463 135.294C255.472 135.294 254.481 135.423 253.559 135.502C252.637 135.581 251.755 135.234 254.55 135.423C254.29 135.398 254.028 135.398 253.767 135.423L255.224 135.512C256.424 135.908 256.681 135.958 255.997 135.671L257.98 138.882C258.012 138.746 258.065 138.615 258.138 138.495L257.415 139.843C257.91 139.1 256.424 140.755 256.523 140.676C257.395 139.863 254.54 141.915 255.403 141.429C256.265 140.944 252.915 142.569 253.876 142.173C254.322 141.994 255.175 141.717 253.232 142.371C251.032 143.104 252.717 142.559 253.232 142.42L254.332 142.143C256.701 141.519 259.05 140.775 261.429 140.161C266.9 138.743 272.441 137.574 277.972 136.384C289.549 133.906 301.423 131.973 312.534 127.751C316.965 126.066 321.534 124.292 325.33 121.398C327.144 120.01 330.712 116.194 328.106 113.894C325.281 111.407 321.296 111.595 317.777 111.724C316.41 111.724 315.042 111.724 313.674 111.724C312.95 111.724 312.207 111.724 311.503 111.625C311.602 111.625 313.684 111.823 312.276 111.674L311.077 111.555C308.262 111.248 305.457 110.772 302.662 110.306C297.042 109.365 291.462 108.324 285.871 107.204C279.706 105.995 273.521 104.875 267.336 103.765C264.165 103.2 260.983 102.664 257.851 101.931C256.384 101.594 254.927 101.168 253.45 100.87L252.32 100.682C251.507 100.543 251.795 100.186 253.143 100.93C252.925 100.811 252.677 100.751 252.459 100.613L253.767 101.425C253.656 101.353 253.564 101.254 253.5 101.138L254.184 102.248C254.106 102.098 254.065 101.931 254.065 101.762V103.061C254.085 102.902 254.132 102.748 254.203 102.605L253.48 103.953C254.124 102.962 251.805 105.459 252.776 104.667C250.645 106.411 250.794 105.935 251.567 105.539C251.854 105.39 248.791 106.748 249.852 106.381L250.477 106.133C251.23 105.826 252.568 105.658 248.494 106.778L249.921 106.371L251.121 106.084C252.945 105.678 247.959 106.698 249.763 106.361L251.587 106.034C257.623 104.984 263.669 103.903 269.705 102.833C283.512 100.404 297.31 97.6985 311.008 94.7448C318.501 93.1391 326.381 91.7713 333.448 88.6986C335.648 87.757 338.077 86.5379 339.256 84.3374C340.158 82.6624 339.464 81.1459 337.67 80.4421C334.35 79.1437 330.633 79.223 327.154 79.6888C325.449 79.9168 323.764 80.3133 322.089 80.68L320.88 80.9674L320.216 81.1161C318.798 81.4432 322.991 80.6007 321.871 80.7791C320.751 80.9575 319.542 81.1459 318.372 81.2846L316.687 81.463C316.192 81.5126 313.981 81.691 315.775 81.5522C317.569 81.4135 315.518 81.5522 315.101 81.5522L313.168 81.6414C311.88 81.6414 310.582 81.7207 309.293 81.7406C299.441 81.8793 289.578 81.7406 279.726 81.7406H271.341C270.35 81.7406 269.289 81.7406 268.258 81.8198C267.812 81.8198 267.366 81.8793 266.91 81.8793C266.69 81.8545 266.467 81.8545 266.246 81.8793L267.842 81.9884C267.118 81.8496 267.465 81.9388 268.893 82.2659L264.67 90.5323C264.849 90.453 265.047 90.3836 265.225 90.2944C266.038 89.9178 263.431 90.8297 263.56 90.8297C264.045 90.7636 264.521 90.6405 264.977 90.4629C265.969 90.1953 262.995 90.8297 263.292 90.7999C263.502 90.7773 263.711 90.7443 263.917 90.7008C264.403 90.6215 264.908 90.5521 265.384 90.4927C267.366 90.2449 269.349 90.0268 271.331 89.7592C275.454 89.1942 279.568 88.5401 283.721 88.1634C284.127 88.1634 285.901 87.9949 284.127 88.1634C282.353 88.3319 284.028 88.1634 284.454 88.1634C285.158 88.1634 285.852 88.1634 286.555 88.1634C288.112 88.1634 289.668 88.1634 291.214 88.1634C295.009 88.2781 298.806 88.0292 302.553 87.42C308.698 86.2901 315.171 84.2681 319.859 79.9366C320.85 79.0148 321.891 78.0534 321.93 76.5964C321.97 75.1393 321.088 74.614 319.948 74.0292C318.376 73.3529 316.7 72.9506 314.992 72.8398C313.089 72.592 311.186 72.4136 309.273 72.2054C307.36 71.9973 305.308 71.7594 303.326 71.4224L302.028 71.1746L301.433 71.0359C300.293 70.7881 302.424 71.3035 302.523 71.3431C301.906 71.1518 301.306 70.9098 300.729 70.6196L302.038 71.4224C301.838 71.3049 301.665 71.1461 301.532 70.9565L302.206 72.0667C302.128 71.9312 302.086 71.7773 302.087 71.6207V72.9191V72.8398L293.285 78.7868C300.224 76.517 307.35 75.3277 314.407 73.6625C316.083 73.266 317.748 72.8299 319.413 72.3739C320.275 72.146 321.147 71.9279 322.02 71.7197C322.456 71.6206 322.912 71.5414 323.348 71.4323L321.524 71.809L322.416 71.6405C324.071 71.3431 325.727 71.1449 327.372 70.9665C329.017 70.7881 324.854 71.0953 326.658 71.016C327.114 71.016 327.56 70.9665 328.016 70.9565C328.908 70.9565 329.8 70.9565 330.693 70.9565L338.741 60.4203C335.212 60.4203 331.674 60.4203 328.135 60.4203C325.433 60.4625 322.763 61.014 320.265 62.0459C318.541 62.7496 315.904 64.0282 314.814 65.7331C314.07 66.8828 313.486 68.3795 314.744 69.4896C316.003 70.5997 318.303 70.9665 320.087 70.9665C323.625 70.9665 327.154 70.9665 330.693 70.9665C333.395 70.9327 336.066 70.3844 338.562 69.3508C340.287 68.6372 342.924 67.3685 344.014 65.6537C344.757 64.504 345.342 63.0073 344.093 61.8972C342.666 60.6285 340.545 60.4699 338.741 60.4302C334.424 60.3387 330.108 60.6707 325.856 61.4214C321.455 62.1747 317.203 63.3542 312.881 64.395C305.527 66.1791 298.013 67.3685 290.837 69.7473C288.781 70.3309 286.818 71.2054 285.009 72.3442C284.018 73.0281 282.184 74.3266 282.036 75.6646C281.893 76.275 281.928 76.9133 282.135 77.5048C282.342 78.0963 282.713 78.6166 283.205 79.0049C284.082 79.7154 285.093 80.2413 286.179 80.5511C288.75 81.3154 291.383 81.8495 294.049 82.147C296.388 82.4443 298.737 82.6525 301.086 82.93C301.988 83.039 302.9 83.1381 303.792 83.2967C304.129 83.3562 304.456 83.4355 304.783 83.5049C301.929 82.9795 303.108 82.9201 303.792 83.2967L303.901 77.3497C303.643 77.5776 303.395 77.8056 303.128 78.0237C302.86 78.2417 302.85 78.2219 302.721 78.3309C302.087 78.8463 304.06 77.4686 303.881 77.5578C303.581 77.7092 303.29 77.878 303.009 78.0633C302.682 78.2516 301.958 78.5886 303.554 77.8155C305.15 77.0424 304.159 77.5181 303.782 77.6668L303.306 77.8452C302.315 78.2318 305.527 77.1415 305.14 77.2406C304.753 77.3397 304.486 77.4289 304.149 77.5181L303.653 77.6371C304.285 77.549 304.91 77.4233 305.526 77.2605C305.12 77.31 304.724 77.3992 304.327 77.4587L303.277 77.5776C302.831 77.6272 301.393 77.7362 303.277 77.5776C305.16 77.419 303.742 77.5776 303.277 77.5776H302.028C300.491 77.5776 298.955 77.5776 297.419 77.5776C289.37 77.4587 281.49 78.6382 273.531 79.6987C267.882 80.462 262.192 80.9377 256.889 83.2373C254.689 84.2284 252.261 85.398 251.081 87.6083C250.189 89.2834 250.873 90.8098 252.667 91.5037C255.262 92.3582 258.011 92.6422 260.725 92.3363C263.025 92.1876 265.354 92.3363 267.664 92.3363H282.63C293.107 92.3363 303.633 92.6931 314.08 91.6127C317.213 91.2715 320.322 90.7352 323.388 90.007C323.923 89.888 324.448 89.779 324.973 89.6502C324.362 89.7431 323.757 89.8688 323.16 90.0268L324.071 89.8881C324.795 89.7592 325.756 89.9475 322.624 89.9673C322.852 89.9673 323.09 89.9673 323.318 89.9673C321.019 90.1656 321.385 89.7493 322.079 89.8781C323.259 90.1061 320.315 89.2636 321.455 89.7096L325.687 81.4531C325.043 81.7306 324.399 81.9685 323.754 82.2163C322.347 82.7516 325.231 81.7406 325.172 81.7406C324.831 81.8112 324.499 81.9175 324.18 82.0578C322.793 82.4641 321.385 82.811 319.978 83.148C317.113 83.8121 314.249 84.4762 311.384 85.1304L307.122 86.0621L304.743 86.5577L303.752 86.746L305.041 86.4883L304.565 86.5874C301.473 87.2119 298.38 87.8066 295.288 88.4112C282.967 90.7999 270.637 93.0103 258.287 95.2404C254.302 95.8298 250.352 96.6305 246.452 97.6391C242.963 98.6302 239.405 99.9584 236.541 102.288C235.337 103.163 234.428 104.383 233.934 105.787C233.508 107.769 234.588 109.057 236.253 109.9C238.483 111.02 241.437 111.278 243.865 111.882C246.928 112.616 250.011 113.191 253.103 113.746C259.199 114.846 265.304 115.926 271.39 117.116C278.249 118.454 285.108 119.792 292.017 120.902C296.099 121.588 300.215 122.051 304.347 122.29C306.111 122.379 307.886 122.409 309.66 122.349C310.264 122.349 310.859 122.27 311.454 122.25C311.811 122.25 313.069 122.3 311.454 122.181C310.802 122.191 310.156 122.059 309.561 121.794C309.777 121.866 309.986 121.959 310.185 122.072L308.887 121.269C309.095 121.391 309.288 121.537 309.461 121.705L308.817 119.296C308.802 119.621 308.717 119.939 308.569 120.228L309.293 118.88C309.204 119.029 309.075 119.167 308.996 119.316C308.629 119.98 310.463 118.018 309.838 118.493C309.214 118.969 308.133 119.435 310.532 118.107C310.195 118.285 309.878 118.493 309.541 118.672C309.204 118.85 308.133 119.376 309.898 118.513C311.662 117.651 310.522 118.206 310.106 118.394C308.579 119.058 307.013 119.673 305.457 120.287C304.813 120.545 304.159 120.783 303.475 121.021L302.593 121.328L304.337 120.743L303.901 120.882C302.414 121.328 300.927 121.764 299.421 122.161C296.715 122.865 293.979 123.459 291.244 124.054C279.716 126.562 268.06 128.683 256.671 131.805C254.431 132.41 252.181 133.014 249.961 133.668C247.531 134.344 245.184 135.288 242.963 136.483C240.872 137.633 238.652 139.407 237.869 141.756C237.363 143.273 238.602 144.423 239.851 144.978C241.892 145.812 244.093 146.177 246.294 146.048C247.602 146.048 248.901 145.88 250.199 145.771C250.298 145.771 247.463 145.84 248.801 145.9C249.208 145.9 249.614 145.9 250.021 145.9C252.865 145.9 255.72 145.9 258.564 145.9H275.415C286.823 145.9 298.212 145.9 309.63 145.9C312.653 145.9 315.676 145.959 318.689 145.8C323.228 145.553 327.742 144.957 332.189 144.016L327.134 135.839C326.361 136.206 325.568 136.533 324.755 136.83L323.952 137.108L325.776 136.503L324.964 136.761C322.723 137.475 320.464 138.149 318.293 139.05C316.122 139.952 314.219 141.033 312.217 142.123C311.602 142.46 310.978 142.767 310.354 143.114C313.575 141.419 310.74 142.916 309.947 143.263C308.649 143.828 307.321 144.363 305.982 144.859C305.18 145.166 304.367 145.463 303.554 145.741C302.741 146.018 299.451 147.109 303.326 145.84C300.412 146.831 297.478 147.703 294.554 148.645C292.423 149.339 290.282 150.043 288.161 150.776L285.99 151.43C289.747 150.142 286.387 151.292 285.465 151.589C282.161 152.626 278.834 153.581 275.484 154.453C272.134 155.326 268.764 156.122 265.374 156.842L263.064 157.328C266.851 156.525 263.917 157.159 263.005 157.328C261.142 157.685 259.288 158.032 257.425 158.369C255.561 158.706 253.678 159.043 251.785 159.28C250.952 159.38 247.453 159.528 250.982 159.399C249.991 159.399 249.079 159.508 248.127 159.538C244.163 159.667 240.198 159.538 236.233 159.538L228.185 170.084C238.235 170.084 248.296 170.362 258.346 170.084C263.782 170.001 269.207 169.584 274.592 168.835C278.304 168.32 281.955 167.44 285.495 166.209C286.357 165.892 287.19 165.515 288.032 165.168L288.706 164.89C289.691 164.534 289.146 164.712 287.071 165.426C288.062 165.158 287.507 165.277 285.326 165.763C284.147 165.936 282.948 165.936 281.768 165.763L281.897 158.111C283.98 156.91 286.323 156.229 288.726 156.128C290.471 156.01 289.489 156.079 289.053 156.069C288.617 156.059 287.933 156.019 287.378 156C285.891 155.95 284.405 156 282.898 156H199.758L191.71 166.546C200.776 166.619 209.84 166.235 218.868 165.396C228.314 164.405 238.097 162.928 246.72 158.765C249.29 157.564 251.768 156.176 254.134 154.612C256.652 152.897 261.766 149.101 258.743 145.691C257.048 143.798 253.43 143.65 251.111 143.709C250.457 143.709 249.793 143.798 249.128 143.848L247.602 143.957C247.245 143.957 250.576 143.848 249.436 143.818C248.514 143.818 247.572 143.818 246.641 143.818C241.794 143.759 237.016 143.818 232.169 144.185C229.84 144.373 227.531 144.661 225.231 144.908C224.103 144.91 222.977 145.023 221.871 145.245C221.871 145.245 224.468 145.077 222.951 145.156L221.96 145.216L219.869 145.354L216.558 145.612C215.488 145.701 219.145 145.444 218.055 145.503H217.361H216.132H214.913C214.15 145.503 216.41 145.672 216.291 145.612C216.081 145.555 215.864 145.529 215.646 145.533L215.022 145.414C215.022 145.325 216.846 146.048 216.013 145.672C215.674 145.536 215.343 145.38 215.022 145.206L214.923 151.153L213.684 151.985C214.517 151.51 214.09 151.708 212.386 152.57C212.626 152.492 212.861 152.4 213.089 152.293C209.967 153.591 210.76 153.026 211.553 152.838L212.653 152.55C214.061 152.213 215.468 151.876 216.876 151.559L218.977 151.113C220.285 150.836 216.063 151.698 217.896 151.331L218.828 151.143C221.128 150.687 223.437 150.221 225.766 149.735C232.031 148.417 238.275 147.079 244.539 145.771C257.484 143.065 270.31 140.438 282.779 135.859C283.314 135.661 285.158 135.026 282.62 135.859C280.301 136.632 281.51 136.236 282.055 136.057C283.582 135.542 285.138 135.066 286.645 134.471C289.527 133.479 292.211 131.986 294.574 130.06C296.556 128.276 298.44 125.58 296.071 123.311C294.823 122.389 293.351 121.817 291.809 121.655C290.369 121.431 288.914 121.315 287.457 121.308C284.375 121.219 281.312 121.635 278.229 121.635H259.011C252.072 121.635 245.005 121.358 238.027 121.754C233.864 121.982 229.721 122.428 225.578 122.884C223.307 123.09 221.055 123.461 218.838 123.994C215.399 124.916 211.147 126.631 209.134 129.803C208.351 131.052 207.905 132.36 209.065 133.559C210.225 134.759 212.881 135.066 214.408 135.036C217.111 135.006 219.783 134.454 222.277 133.411C224.171 132.588 226.579 131.527 227.729 129.723V129.862Z" fill="#00D1C1"/>
<path d="M335.332 97.9066C330.451 97.9608 325.583 98.4283 320.781 99.3042C318.799 99.6412 316.816 100.048 314.834 100.454L309.392 101.614L308.015 101.901L307.103 102.099L308.669 101.772C308.134 101.881 307.589 101.98 307.053 102.099C305.428 102.476 309.422 102.099 307.668 102.03C305.901 102 304.135 102.14 302.395 102.446C300.012 102.831 297.683 103.497 295.457 104.429C295.209 104.547 294.951 104.666 294.683 104.775C293.692 105.152 294.178 105.013 296.101 104.339C294.931 104.726 293.762 105.093 292.602 105.489L291.323 105.935L290.461 106.233C292.324 105.648 292.83 105.479 291.987 105.717C292.166 105.717 295.298 105.083 293.553 105.36L292.562 105.509C287.696 106.342 282.948 107.918 279.31 111.387C277.625 112.992 278.636 114.707 280.401 115.46C285.465 117.641 291.621 116.888 297.003 116.779C298.301 116.779 299.59 116.719 300.878 116.729H302.325H303.317C301.939 116.67 301.651 116.67 302.474 116.729C302.989 116.779 303.465 116.808 304.02 116.878L304.764 116.997C305.487 117.135 305.249 117.076 304.05 116.828C304.912 117.215 305.854 117.403 306.716 117.819L305.438 117.126C307.563 118.363 309.404 120.035 310.84 122.032L310.195 121.041C310.615 121.62 310.859 122.309 310.899 123.023L310.968 121.853C310.926 122.294 310.787 122.721 310.562 123.102L311.325 121.873C311.276 121.933 311.008 122.27 311.008 122.29C311.317 122.049 311.608 121.788 311.88 121.507C310.691 122.498 313.704 120.436 312.673 121.011C315.538 119.415 314.656 120.129 313.764 120.476C312.178 121.11 316.816 119.534 314.933 120.089C313.05 120.644 311.117 121.239 309.214 121.834C304.734 123.221 300.293 124.748 295.764 126.007C294.186 126.381 292.633 126.854 291.115 127.424C289.48 128.048 287.932 128.877 286.506 129.892C285.406 130.744 284.068 131.785 283.979 133.262C283.86 135.195 285.565 136.295 287.19 136.909C290.471 138.168 294.297 138.089 297.746 138.139C298.539 138.139 299.61 138.366 296.358 138.079C296.616 138.079 296.884 138.079 297.142 138.139C297.806 138.198 298.48 138.287 299.124 138.386L300.234 138.594C297.835 138.188 299.243 138.376 299.847 138.545C300.627 138.763 301.381 139.062 302.097 139.437L300.829 138.743C301.346 139.018 301.799 139.4 302.157 139.863L301.503 138.872C301.798 139.364 301.933 139.935 301.889 140.507L301.959 139.338C301.881 139.897 301.696 140.435 301.414 140.924L302.167 139.685C301.884 140.111 301.569 140.515 301.225 140.894C300.502 141.727 302.415 139.903 301.75 140.408C301.532 140.557 301.324 140.745 301.116 140.894C299.58 141.994 302.999 139.833 301.423 140.686C301.235 140.795 301.027 140.894 300.829 140.993C300.184 141.34 303.802 139.705 302.167 140.359C300.868 140.874 303.475 139.933 303.545 139.923C303.128 139.992 302.662 140.161 302.256 140.27C300.908 140.607 303.624 139.982 303.673 139.972C303.307 139.972 302.94 140.111 302.583 140.18C300.293 140.587 298.014 141.013 295.754 141.538C293.298 142.089 290.984 143.142 288.954 144.631C287.963 145.473 286.367 146.742 286.784 148.278C287.05 148.988 287.487 149.621 288.056 150.122C288.624 150.623 289.307 150.977 290.045 151.153C292.196 151.78 294.439 152.032 296.676 151.896C297.617 151.896 298.559 151.787 299.491 151.737H300.066C301.057 151.688 297.647 151.539 299.302 151.737C300.73 151.906 298.242 151.301 298.817 151.609C299.144 151.777 299.54 151.876 299.877 152.035L298.608 151.341C299.63 151.943 300.504 152.766 301.166 153.75L300.521 152.758C303.842 158.051 300.64 164.821 303.386 170.342C304.724 173.028 309.392 172.691 311.811 172.255C316.261 171.452 322.06 169.826 324.29 165.396C324.73 164.397 325.002 163.332 325.093 162.244C325.519 159.142 326.401 156.138 327.075 153.086C327.509 151.083 327.801 149.053 327.947 147.01C328.116 145.166 328.205 142.946 329.176 141.31L328.413 142.539C328.473 142.46 328.522 142.381 328.582 142.311C325.862 145.003 322.252 146.607 318.432 146.821L313.714 146.97C314.319 146.97 311.732 146.375 312.495 146.732L311.226 146.038C311.427 146.174 311.604 146.342 311.751 146.534L311.107 145.543C312.297 147.386 311.88 150.122 311.781 152.184C311.712 153.72 311.672 155.256 311.672 156.792C311.672 158.824 312.465 160.698 312.495 162.74L312.564 161.57V161.996C312.423 162.262 312.371 162.567 312.415 162.865C312.46 163.163 312.599 163.438 312.812 163.651C312.963 163.962 313.187 164.232 313.465 164.437C313.743 164.643 314.066 164.778 314.408 164.831C316.526 165.442 318.761 165.528 320.92 165.079C323.59 164.708 326.173 163.869 328.552 162.601L330.415 161.421C331.341 160.813 332.073 159.953 332.527 158.943C332.658 157.511 332.544 156.066 332.19 154.671C331.901 153.461 331.774 152.218 331.813 150.974C331.813 149.19 331.902 147.416 331.972 145.642C332.125 144.139 332.028 142.622 331.684 141.152C330.693 137.861 327.234 137.375 324.23 137.385C320.153 137.465 316.175 138.654 312.723 140.825C311.208 141.687 309.973 142.967 309.165 144.512C308.664 145.632 308.352 146.828 308.243 148.05C307.836 150.945 307.717 153.75 307.033 156.624C306.449 159.072 305.626 161.58 305.279 164.048C305.071 165.564 305.021 167.289 304.219 168.637L304.972 167.398C303.703 169.123 305.332 168.132 309.858 164.425L315.201 162.997H315.052L323.477 164.91C320.732 159.379 323.903 152.649 320.613 147.337C319.525 145.444 317.847 143.961 315.835 143.114C313.376 142.216 310.757 141.838 308.144 142.004C307.212 142.004 306.28 142.143 305.348 142.173H304.546C303.287 142.173 306.905 142.391 305.695 142.173C304.318 141.974 306.518 142.351 306.518 142.41C306.518 142.47 305.785 142.143 305.725 142.113L306.994 142.807C306.783 142.682 306.595 142.521 306.439 142.331L307.083 143.322C306.989 143.168 306.919 143.001 306.875 142.827L297.954 149.567C299.59 149.18 295.308 150.072 296.963 149.765L298.49 149.497C300.274 149.18 302.051 148.827 303.822 148.437C307.003 147.711 310.085 146.603 313 145.136C315.032 144.135 316.911 142.85 318.581 141.32C319.978 140.032 321.554 138.446 321.921 136.503C322.098 135.74 322.077 134.944 321.86 134.191C321.643 133.438 321.238 132.754 320.682 132.201C319.499 131.213 318.116 130.492 316.628 130.09C313.36 129.116 309.968 128.615 306.558 128.603H305.249C304.843 128.603 303.663 128.544 305.408 128.603C307.152 128.663 305.775 128.603 305.348 128.603C304.684 128.554 304.03 128.465 303.366 128.375C302.504 128.256 305.299 128.97 303.961 128.494C303.693 128.395 303.435 128.306 303.168 128.187L304.447 128.881C304.14 128.725 303.872 128.501 303.663 128.227L304.308 129.218C304.203 129.044 304.145 128.846 304.139 128.643L301.959 132.291L302.206 132.063L296.646 134.58C296.874 134.58 297.112 134.471 297.34 134.412C297.865 134.283 298.38 134.124 298.896 133.966L303.009 132.697L310.532 130.358C316.242 128.574 322.744 127.384 327.581 123.657C329.563 122.101 331.981 119.425 330.842 116.64C330.039 114.658 328.344 113.2 326.877 111.783C322.536 107.62 316.39 107.224 310.711 107.125C307.648 107.065 304.595 107.194 301.532 107.224C300.264 107.224 298.955 107.174 297.697 107.224C300.819 107.006 297.934 107.511 297.389 107.095C297.389 107.095 299.124 107.65 297.964 107.214C297.568 107.065 297.171 106.936 296.785 106.778L297.875 110.851C295.971 112.562 293.678 113.78 291.194 114.4L291.502 114.33C289.301 114.767 288.717 114.895 289.737 114.727L290.055 114.677C291.46 114.475 292.853 114.197 294.227 113.845C295.774 113.409 297.3 112.854 298.817 112.338L300.105 111.892L300.531 111.743C297.888 112.616 298.176 112.523 301.394 111.466C302.203 111.202 302.989 110.87 303.743 110.475L299.61 111.575C297.875 111.704 297.498 111.753 298.499 111.714C298.886 111.714 299.282 111.714 299.669 111.714C303.015 111.486 306.333 110.952 309.581 110.118L312.088 109.583L313.456 109.295C309.977 110.049 311.751 109.652 312.564 109.484C314.378 109.107 316.202 108.75 318.036 108.433C319.841 108.005 321.683 107.753 323.537 107.68L321.951 107.828L322.882 107.749L324.042 107.68C325.033 107.62 326.084 107.59 327.095 107.59C329.792 107.502 332.453 106.938 334.955 105.925C336.67 105.251 339.316 104.042 340.466 102.456C341.199 101.465 341.883 100.077 340.644 99.0762C339.227 97.9165 337.086 97.8868 335.381 97.8967L335.332 97.9066Z" fill="#00D1C1"/>
<path d="M235.44 109.504C235.173 111.555 234.697 113.557 234.36 115.599C234.049 117.732 233.917 119.887 233.963 122.042C233.963 126.631 234.033 131.22 234.072 135.809C234.072 138.04 234.162 140.299 234.023 142.53C233.894 144.512 233.032 146.207 232.695 148.1C232.485 150.234 232.448 152.382 232.586 154.523V161.6C232.494 162.461 232.657 163.329 233.056 164.098C233.454 164.866 234.07 165.5 234.826 165.921C236.906 166.982 239.263 167.377 241.576 167.051C244.286 166.8 246.891 165.88 249.158 164.375C250.595 163.315 252.826 161.56 252.826 159.578V152.739C252.695 150.592 252.718 148.439 252.895 146.296C253.172 144.393 254.065 142.639 254.243 140.716C254.451 138.436 254.322 136.067 254.302 133.777C254.302 129.268 254.203 124.758 254.203 120.248C254.144 118.084 254.263 115.919 254.56 113.776C254.897 111.664 255.403 109.593 255.68 107.472C256.295 102.783 250.179 101.594 246.69 102.02C243.98 102.272 241.375 103.191 239.108 104.696C237.532 105.866 235.718 107.422 235.44 109.494V109.504Z" fill="#00D1C1"/>
<path d="M214.893 164.9C215.499 164.24 215.947 163.451 216.204 162.593C216.461 161.735 216.522 160.829 216.38 159.945C216.241 158.834 215.825 157.764 215.667 156.654C215.468 155.256 215.359 153.859 215.161 152.461C214.963 151.064 214.537 149.547 214.358 148.06C214.145 145.257 214.095 142.444 214.209 139.635V130.715C214.209 129.208 211.315 128.385 210.384 128.207C207.883 127.833 205.331 128.015 202.91 128.742C200.444 129.306 198.139 130.425 196.17 132.013L194.852 133.381C194.527 133.748 194.291 134.184 194.162 134.657C194.033 135.13 194.015 135.626 194.108 136.107C194.108 141.32 193.88 146.593 194.108 151.797C194.227 154.305 194.931 156.753 195.209 159.201C195.357 160.51 195.456 161.828 195.724 163.106C196.012 164.031 196.199 164.985 196.279 165.951V164.613C196.238 164.941 196.141 165.26 195.992 165.555L196.715 164.167C196.581 164.392 196.418 164.599 196.23 164.782C195.74 165.303 195.464 165.989 195.454 166.705C195.445 167.42 195.704 168.113 196.18 168.647C197.359 169.916 199.986 170.223 201.542 170.203C206.419 170.134 211.454 168.489 214.844 164.841L214.893 164.9Z" fill="#00D1C1"/>
<path d="M96.4676 125.015C96.7048 125.298 96.9139 125.604 97.0921 125.927L96.2595 124.222C96.5687 124.93 96.7917 125.672 96.9236 126.433C97.2395 127.744 97.7366 129.005 98.4004 130.179C99.1339 131.636 100.155 132.905 100.888 134.362L100.056 132.657C101.047 134.64 101.87 136.79 103.029 138.743C104.207 140.73 105.894 142.365 107.916 143.481C109.994 144.655 112.377 145.176 114.755 144.977C117.486 144.779 120.108 143.825 122.327 142.222C123.923 140.943 125.747 139.139 125.866 136.949C125.975 135.98 125.806 134.999 125.38 134.122C124.953 133.245 124.287 132.507 123.457 131.993C122.854 131.668 122.288 131.275 121.772 130.823L123.22 132.162C122.255 131.217 121.469 130.105 120.9 128.881L121.733 130.576C120.88 128.831 120.127 127.037 119.225 125.322C118.511 123.955 117.53 122.745 116.846 121.358L117.689 123.053C117.327 122.144 117.058 121.201 116.886 120.238C116.54 118.757 115.862 117.374 114.904 116.194C113.428 114.571 111.39 113.572 109.204 113.399C106.483 113.114 103.737 113.594 101.275 114.786C99.2925 115.837 97.0028 117.314 96.1009 119.504C95.3674 121.278 95.1097 123.38 96.4874 124.976L96.4676 125.015Z" fill="#00D1C1"/>
<path d="M133.448 142.589V154.721C133.538 155.023 133.7 155.299 133.922 155.524C134.143 155.748 134.416 155.915 134.717 156.009C135.443 156.472 136.284 156.723 137.145 156.733C138.292 156.865 139.452 156.848 140.595 156.683C141.937 156.597 143.267 156.364 144.559 155.99C147.005 155.422 149.316 154.378 151.359 152.917L152.717 151.698C153.039 151.401 153.283 151.03 153.428 150.617C153.573 150.204 153.615 149.762 153.549 149.329V137.197C153.46 136.895 153.297 136.619 153.076 136.394C152.855 136.169 152.581 136.003 152.281 135.908C151.554 135.446 150.713 135.195 149.852 135.185C148.705 135.053 147.546 135.069 146.403 135.234C145.06 135.321 143.731 135.554 142.438 135.928C139.992 136.496 137.681 137.54 135.639 139.001L134.281 140.22C133.959 140.517 133.715 140.888 133.569 141.301C133.424 141.714 133.383 142.156 133.448 142.589Z" fill="#00D1C1"/>
<path d="M335.549 111.506C333.12 104.802 331.153 97.9405 329.661 90.9685C328.898 87.6381 328.056 84.3177 327.451 80.9477C326.965 78.222 326.936 75.4367 326.321 72.7308C325.765 70.1795 324.602 67.7997 322.931 65.7926C321.008 63.4732 317.976 62.1946 315.081 61.4809C308.088 59.8452 300.771 60.2616 294.009 62.6803C291.27 63.5452 288.779 65.0543 286.743 67.0811C285.727 68.2923 284.962 69.6941 284.493 71.2044C283.849 73.0183 282.888 74.7231 282.353 76.5766C282.05 77.3476 281.907 78.1716 281.931 78.9993C281.955 79.827 282.145 80.6414 282.491 81.3937C283.495 82.8652 284.594 84.2691 285.782 85.5963L285.168 84.734C287.136 87.7484 288.199 91.2639 288.23 94.8638C288.329 96.638 288.31 98.4122 288.31 100.186C288.31 102.298 288.478 104.449 288.31 106.56L288.419 105.509C288.308 106.121 288.068 106.702 287.715 107.214L288.498 106.084C288.23 106.431 287.883 106.708 287.616 107.075C288.607 106.312 288.765 106.084 288.191 106.55C287.616 107.016 287.814 106.817 289.182 105.975C287.199 106.778 291.352 105.122 289.985 105.638C291.844 104.908 293.801 104.46 295.793 104.31L294.911 104.359C292.229 104.483 289.569 104.905 286.981 105.618C285.026 106.153 283.127 106.877 281.312 107.779C276.178 110.346 286.813 104.726 292.383 106.332L293.622 106.917C293.464 106.834 293.328 106.715 293.226 106.57L293.84 107.422C293.166 106.134 293.067 104.399 292.71 102.991C292.254 101.178 291.779 99.3737 291.313 97.5598C290.054 92.6733 284.464 92.6039 280.301 92.703C273.828 92.8121 266.801 94.1799 261.825 98.6006C260.484 99.7792 259.548 101.35 259.149 103.091C258.891 105.095 258.842 107.122 259 109.137C259 110.445 261.974 110.822 262.618 110.881C265.114 111.031 267.616 110.743 270.012 110.029C272.448 109.453 274.761 108.446 276.842 107.055C277.991 106.183 279.121 105.301 279.101 103.725C279.101 102.327 278.953 100.94 279.042 99.5422L278.933 100.593C279.048 99.4673 279.424 98.3844 280.033 97.431L279.25 98.5609C279.409 98.323 279.597 98.1149 279.776 97.8869C280.271 97.4112 280.003 97.6292 278.973 98.551L277.496 99.4133C275.44 100.412 273.25 101.107 270.994 101.475H271.251C267.753 102.01 269.101 101.693 269.983 101.663C270.657 101.663 271.341 101.663 272.015 101.663C272.689 101.663 272.272 101.663 270.805 101.663C271.35 101.713 271.311 101.663 270.686 101.584C269.467 101.346 270.994 101.762 271.271 101.881L270.022 101.297C270.502 101.529 270.923 101.868 271.251 102.288L270.637 101.425C271.549 102.982 271.737 105.132 272.193 106.847C272.49 107.977 272.788 109.107 273.055 110.247C273.178 111.076 273.377 111.892 273.65 112.685C274.274 114.142 275.632 114.608 277.06 114.866C280.618 115.48 284.345 114.658 287.735 113.577C289.224 113.111 290.675 112.531 292.076 111.843L292.77 111.476L293.117 111.298L287.09 113.191C287.09 113.191 284.484 113.379 285.941 113.339H286.615C287.966 113.275 289.313 113.136 290.649 112.923C295.376 112.22 299.887 110.469 303.851 107.799C306.121 106.183 308.173 104.171 308.371 101.287C308.53 98.9772 308.371 96.638 308.371 94.3484C308.371 92.366 308.371 90.2747 308.193 88.2427C308.036 86.0448 307.507 83.8896 306.627 81.8695C305.566 79.56 303.792 77.8354 302.295 75.8332L302.91 76.6856C302.249 75.8004 301.935 74.7039 302.027 73.6031L301.928 74.6537C302.344 72.8694 302.966 71.1397 303.782 69.4996C304.225 68.0992 304.803 66.7449 305.506 65.4556L304.723 66.5855C304.852 66.417 304.991 66.2683 305.11 66.0998C305.705 65.297 304.476 66.6152 304.347 66.7144L302.84 67.5767C303.356 67.319 303.108 67.428 302.107 67.8839C300.406 68.6482 298.614 69.188 296.774 69.4896C297.894 69.3112 294.861 69.6582 295.069 69.6681C295.278 69.678 295.565 69.6681 295.803 69.6185C296.067 69.6433 296.332 69.6433 296.596 69.6185C296.209 69.7176 294.346 69.6185 295.813 69.6185C296.417 69.6185 297.012 69.6681 297.617 69.7176C297.934 69.7176 298.241 69.7969 298.608 69.8366C299.45 69.9159 297.002 69.4599 298.142 69.7573C299.432 70.0733 300.695 70.4908 301.918 71.0061L300.679 70.4214C302.17 71.1396 303.466 72.2073 304.456 73.5337L303.841 72.6812C305.455 75.1455 306.429 77.9729 306.676 80.908C306.904 82.7021 307.003 84.506 307.32 86.3C307.677 88.3518 308.173 90.3738 308.629 92.4057C310.532 100.742 312.405 109.077 315.438 117.096C315.944 118.444 317.876 118.721 319.056 118.84C321.551 118.99 324.054 118.702 326.45 117.988C328.886 117.412 331.198 116.405 333.279 115.014C334.152 114.35 336.055 113.032 335.539 111.684L335.549 111.506Z" fill="#00D1C1"/>
<path d="M7.97502 124.064L36.63 111.089L82.353 90.3836L92.8991 85.6061L89.4994 85.8737L109.323 93.7338L146.839 108.601C154.511 111.644 162.133 114.945 169.894 117.76C171.876 118.493 173.71 117.562 175.434 116.62L181.084 113.498L203.406 101.187L235.609 83.4354L272.025 63.3542L306.508 44.383L333.448 29.5154L347.017 22.032L347.612 21.7049C348.445 21.2489 349.267 20.2578 348.157 19.6333C347.047 19.0089 345.104 19.6333 344.103 20.2181L326.807 29.7632L285.277 52.6594L235.222 80.2637L191.987 104.101C185.049 107.947 177.794 111.545 170.984 115.688L170.687 115.847L174.741 115.262L145.323 103.576L101.354 86.1116L95.6843 83.8517C93.9498 83.1579 92.7108 82.702 90.7285 83.4949C87.8441 84.6348 85.0391 86.0621 82.2142 87.3407L38.9394 106.946C28.0365 111.902 17.1831 116.739 6.33958 121.705L5.81425 121.943C5.1006 122.27 3.46516 123.112 4.23828 124.094C5.01139 125.075 7.21181 124.421 8.01467 124.094L7.97502 124.064Z" fill="#383838"/>
<path d="M5.7751 117.403L34.995 105.251L81.1839 86.0126L91.8589 81.5721L90.5803 81.6712L110.116 90.1458L146.998 106.143L162.242 112.774C164.78 113.875 167.307 115.183 169.914 116.105C171.024 116.491 171.896 115.887 172.888 115.391L178.597 112.467L201.285 100.88L233.994 84.1293L270.905 65.2474L306.181 47.198L333.597 33.1828L347.444 26.1355L348.059 25.8183C348.435 25.63 348.604 25.3227 348.267 25.0452C347.93 24.7677 347.067 25.0452 346.74 25.2633L329.137 34.2632L286.982 55.8014L236.075 81.8397L191.978 104.399L177.626 111.783C175.356 112.943 172.858 113.954 170.687 115.332C170.589 115.389 170.486 115.439 170.38 115.48L171.906 115.262L142.944 102.704L99.4711 83.8716L93.8908 81.4531C92.8996 81.017 92.1364 80.5115 91.0164 80.8683C88.1023 81.81 85.2577 83.267 82.4328 84.4366L38.4245 102.744C27.4522 107.244 16.4402 111.783 5.48766 116.382L4.95242 116.6C3.56477 117.185 4.8434 117.79 5.7751 117.403Z" fill="#383838"/>
<path d="M9.74957 169.807V138.882C9.74957 138.138 4.00073 138.882 4.00073 140.428V171.353C4.00073 172.096 9.74957 171.353 9.74957 169.807Z" fill="#383838"/>
<path d="M93.5638 169.807V103.398C93.5638 102.655 87.8149 103.398 87.8149 104.944V171.353C87.8149 172.097 93.5638 171.353 93.5638 169.807Z" fill="#383838"/>
<path d="M51.6568 169.807V115.926C51.6568 115.183 45.908 115.926 45.908 117.472V171.353C45.908 172.096 51.6568 171.353 51.6568 169.807Z" fill="#383838"/>
<path d="M163.502 169.807V132.697C163.502 131.954 157.753 132.697 157.753 134.243V171.353C157.753 172.096 163.502 171.353 163.502 169.807Z" fill="#383838"/>
<path d="M198.47 169.807V132.697C198.47 131.954 192.721 132.697 192.721 134.243V171.353C192.721 172.096 198.47 171.353 198.47 169.807Z" fill="#383838"/>
<path d="M348.733 169.807V43.5703C348.792 43.0003 348.792 42.4256 348.733 41.8556C348.723 41.7799 348.723 41.7033 348.733 41.6276C348.733 40.8842 342.984 41.6276 342.984 43.1738V169.41C342.924 169.98 342.924 170.555 342.984 171.125C342.994 171.201 342.994 171.277 342.984 171.353C342.984 172.096 348.733 171.353 348.733 169.807Z" fill="#383838"/>
<path d="M303.733 169.807V59.4689C303.792 58.9685 303.792 58.4628 303.733 57.9623C303.723 57.8966 303.723 57.8298 303.733 57.7641C303.733 57.0207 297.984 57.7641 297.984 59.3103V169.648C297.925 170.149 297.925 170.654 297.984 171.155C297.994 171.221 297.994 171.287 297.984 171.353C297.984 172.096 303.733 171.353 303.733 169.807Z" fill="#383838"/>
<path d="M268.764 169.807V77.3893C268.819 76.9715 268.819 76.5483 268.764 76.1305C268.764 76.1305 268.764 76.0116 268.764 75.962C268.764 75.2186 263.015 75.962 263.015 77.5083V169.926C262.961 170.344 262.961 170.767 263.015 171.184C263.015 171.184 263.015 171.303 263.015 171.353C263.015 172.096 268.764 171.353 268.764 169.807Z" fill="#383838"/>
<path d="M127.819 169.807V112.001C127.819 111.258 122.07 112.001 122.07 113.547V171.353C122.07 172.096 127.819 171.353 127.819 169.807Z" fill="#383838"/>
<path d="M233.459 169.807V95.5874C233.459 94.844 227.71 95.5874 227.71 97.1336V171.353C227.71 172.096 233.459 171.353 233.459 169.807Z" fill="#383838"/>
<path d="M5.67566 127.226C7.64635 127.226 9.2439 125.628 9.2439 123.658C9.2439 121.687 7.64635 120.089 5.67566 120.089C3.70498 120.089 2.10742 121.687 2.10742 123.658C2.10742 125.628 3.70498 127.226 5.67566 127.226Z" fill="#383838"/>
<path d="M9.30364 122.399C9.29349 121.616 9.03304 120.857 8.56042 120.232C8.0878 119.608 7.4278 119.152 6.67702 118.93C5.90694 118.717 5.09292 118.723 4.32614 118.947C3.55936 119.171 2.87013 119.605 2.33566 120.198C1.82153 120.8 1.51573 121.551 1.46393 122.341C1.41212 123.131 1.61709 123.916 2.04822 124.579C2.54087 125.246 3.22748 125.745 4.01417 126.006C4.80086 126.268 5.64921 126.281 6.44324 126.042C7.23727 125.803 7.93821 125.325 8.4502 124.673C8.9622 124.021 9.26026 123.227 9.30364 122.399C9.30364 122.28 8.58999 122.399 8.58008 122.597C8.58556 123.28 8.3839 123.949 8.00171 124.515C7.61952 125.081 7.07472 125.518 6.43914 125.769C5.77496 125.955 5.06929 125.929 4.42069 125.694C3.77208 125.459 3.21293 125.028 2.82134 124.46C2.43757 123.915 2.21542 123.272 2.18036 122.606C2.14529 121.939 2.29874 121.277 2.6231 120.694C2.93808 120.093 3.44892 119.618 4.07089 119.348C4.69286 119.077 5.38858 119.028 6.04266 119.207C6.77457 119.423 7.41709 119.87 7.87437 120.481C8.33165 121.091 8.5792 121.834 8.58008 122.597C8.58999 122.686 9.30364 122.617 9.30364 122.399Z" fill="#383838"/>
<path d="M10.4438 124.163C10.4334 123.388 10.1786 122.637 9.71582 122.016C9.25305 121.395 8.60593 120.935 7.86679 120.704C7.09485 120.485 6.27703 120.487 5.50615 120.709C4.73527 120.932 4.04221 121.366 3.5056 121.962C2.98851 122.562 2.68078 123.315 2.62892 124.105C2.57706 124.895 2.78389 125.681 3.21816 126.343C3.71195 127.007 4.39798 127.501 5.18295 127.761C5.96792 128.02 6.81374 128.032 7.6054 127.793C8.39705 127.555 9.09611 127.079 9.60752 126.429C10.1189 125.78 10.4179 124.988 10.4637 124.163C10.4637 124.034 9.75003 124.163 9.75003 124.351C9.7534 125.035 9.55105 125.704 9.16925 126.272C8.78745 126.839 8.24386 127.278 7.60908 127.533C6.9449 127.719 6.23923 127.693 5.59063 127.458C4.94202 127.224 4.38287 126.792 3.99128 126.225C3.6029 125.679 3.37718 125.035 3.34033 124.366C3.30349 123.698 3.45703 123.033 3.78313 122.448C4.09849 121.845 4.61096 121.369 5.23505 121.099C5.85915 120.828 6.55714 120.78 7.21261 120.961C7.94369 121.179 8.58531 121.626 9.04235 122.236C9.4994 122.847 9.74755 123.589 9.75003 124.351C9.76985 124.49 10.4934 124.381 10.4438 124.163Z" fill="#383838"/>
<path d="M91.8195 88.6195C93.7901 88.6195 95.3877 87.022 95.3877 85.0513C95.3877 83.0806 93.7901 81.483 91.8195 81.483C89.8488 81.483 88.2512 83.0806 88.2512 85.0513C88.2512 87.022 89.8488 88.6195 91.8195 88.6195Z" fill="#383838"/>
<path d="M95.4471 83.8023C95.4381 83.0193 95.1795 82.2597 94.7088 81.6339C94.2382 81.0082 93.5801 80.549 92.8304 80.3233C92.0593 80.1131 91.245 80.1214 90.4784 80.3472C89.7118 80.5729 89.0231 81.0073 88.489 81.6019C87.9727 82.2003 87.6654 82.9506 87.6136 83.7393C87.5617 84.528 87.7681 85.3121 88.2016 85.973C88.6455 86.6136 89.2742 87.1038 90.0037 87.3783C90.7332 87.6528 91.5291 87.6985 92.2852 87.5093C93.156 87.3446 93.9443 86.8872 94.5194 86.213C95.0945 85.5387 95.4218 84.6881 95.4471 83.8023C95.4471 83.6734 94.7334 83.8023 94.7334 83.9906C94.7355 84.6742 94.5326 85.3427 94.1509 85.9098C93.7693 86.477 93.2265 86.9167 92.5925 87.1723C91.9283 87.3568 91.2231 87.3299 90.5748 87.0954C89.9265 86.861 89.3673 86.4306 88.9747 85.8639C88.5753 85.3165 88.3414 84.6658 88.301 83.9894C88.2606 83.3129 88.4153 82.639 88.7467 82.0479C89.0621 81.4452 89.5745 80.9688 90.1986 80.6983C90.8227 80.4277 91.5207 80.3793 92.1762 80.5611C92.9167 80.7858 93.5635 81.2463 94.018 81.8726C94.4725 82.4989 94.7098 83.2566 94.6938 84.0303C94.6938 84.1195 95.457 84.0302 95.4471 83.8023Z" fill="#383838"/>
<path d="M96.6757 85.5567C96.6655 84.7738 96.4051 84.0147 95.9325 83.3904C95.4599 82.7662 94.7999 82.3097 94.0491 82.0875C93.279 81.875 92.465 81.8812 91.6982 82.1053C90.9314 82.3293 90.2422 82.7625 89.7077 83.3562C89.1936 83.9577 88.8878 84.7094 88.836 85.499C88.7842 86.2886 88.9891 87.0737 89.4203 87.7372C89.9129 88.4041 90.5995 88.9025 91.3862 89.1644C92.1729 89.4262 93.0213 89.4386 93.8153 89.2C94.6093 88.9614 95.3103 88.4833 95.8223 87.8311C96.3343 87.179 96.6323 86.3846 96.6757 85.5567C96.6757 85.4377 95.9621 85.5566 95.9621 85.7549C95.964 86.4385 95.7598 87.1069 95.3761 87.6727C94.9924 88.2385 94.447 88.6755 93.8112 88.9267C93.147 89.1126 92.4413 89.0865 91.7927 88.8519C91.1441 88.6173 90.585 88.1861 90.1934 87.6183C89.8096 87.0726 89.5875 86.4298 89.5524 85.7636C89.5173 85.0974 89.6708 84.4348 89.9952 83.8518C90.3101 83.2512 90.821 82.7763 91.4429 82.5058C92.0649 82.2354 92.7607 82.1857 93.4147 82.3651C94.1468 82.582 94.7897 83.0287 95.2485 83.6391C95.7072 84.2495 95.9574 84.9913 95.9621 85.7549C95.9224 85.8837 96.6757 85.7747 96.6757 85.5567Z" fill="#383838"/>
<path d="M171.906 119.098C173.877 119.098 175.474 117.501 175.474 115.53C175.474 113.559 173.877 111.962 171.906 111.962C169.935 111.962 168.338 113.559 168.338 115.53C168.338 117.501 169.935 119.098 171.906 119.098Z" fill="#383838"/>
<path d="M175.534 114.271C175.523 113.49 175.263 112.732 174.793 112.109C174.322 111.485 173.666 111.027 172.917 110.802C172.146 110.589 171.33 110.594 170.562 110.818C169.793 111.042 169.102 111.476 168.566 112.071C168.054 112.673 167.749 113.425 167.699 114.215C167.649 115.005 167.856 115.789 168.289 116.452C168.782 117.115 169.468 117.61 170.253 117.869C171.038 118.128 171.884 118.14 172.676 117.901C173.467 117.663 174.167 117.187 174.678 116.537C175.189 115.888 175.488 115.096 175.534 114.271C175.534 114.152 174.82 114.271 174.82 114.469C174.822 115.153 174.618 115.821 174.235 116.387C173.851 116.953 173.305 117.39 172.67 117.641C172.005 117.827 171.3 117.801 170.651 117.566C170.003 117.332 169.443 116.9 169.052 116.333C168.668 115.787 168.446 115.144 168.411 114.478C168.376 113.812 168.529 113.149 168.854 112.566C169.169 111.963 169.681 111.487 170.305 111.217C170.93 110.946 171.628 110.898 172.283 111.079C173.014 111.297 173.656 111.744 174.113 112.354C174.57 112.965 174.818 113.707 174.82 114.469C174.82 114.598 175.544 114.489 175.534 114.271Z" fill="#383838"/>
<path d="M176.724 116.035C176.711 115.253 176.449 114.496 175.977 113.872C175.505 113.248 174.846 112.791 174.097 112.566C173.327 112.353 172.513 112.358 171.746 112.582C170.979 112.806 170.29 113.24 169.756 113.835C169.242 114.436 168.936 115.188 168.884 115.978C168.832 116.767 169.037 117.552 169.468 118.216C169.915 118.854 170.544 119.341 171.273 119.614C172.002 119.886 172.797 119.931 173.552 119.742C174.424 119.578 175.213 119.121 175.79 118.447C176.367 117.773 176.696 116.922 176.724 116.035C176.724 115.907 176.01 116.035 176 116.224C176.005 116.908 175.803 117.578 175.421 118.145C175.039 118.713 174.495 119.152 173.859 119.405C173.195 119.591 172.489 119.565 171.841 119.331C171.192 119.096 170.633 118.665 170.242 118.097C169.858 117.55 169.634 116.906 169.598 116.239C169.561 115.571 169.712 114.907 170.033 114.321C170.349 113.718 170.861 113.242 171.485 112.971C172.109 112.7 172.807 112.652 173.463 112.834C174.194 113.051 174.836 113.498 175.293 114.109C175.75 114.719 175.998 115.461 176 116.224C175.971 116.362 176.724 116.253 176.724 116.035Z" fill="#383838"/>
<path d="M345.561 24.7974C347.532 24.7974 349.129 23.1998 349.129 21.2291C349.129 19.2584 347.532 17.6609 345.561 17.6609C343.59 17.6609 341.993 19.2584 341.993 21.2291C341.993 23.1998 343.59 24.7974 345.561 24.7974Z" fill="#383838"/>
<path d="M349.189 19.9705C349.178 19.1892 348.918 18.4318 348.447 17.8081C347.977 17.1843 347.32 16.7266 346.572 16.5014C345.802 16.29 344.988 16.2967 344.221 16.5208C343.455 16.7448 342.766 17.1773 342.23 17.7701C341.713 18.3701 341.406 19.1221 341.354 19.9125C341.302 20.7029 341.509 21.4887 341.943 22.1511C342.437 22.8141 343.123 23.309 343.908 23.5684C344.693 23.8278 345.539 23.8392 346.33 23.6009C347.122 23.3627 347.821 22.8864 348.332 22.2368C348.844 21.5873 349.143 20.7959 349.189 19.9705C349.189 19.8515 348.475 19.9705 348.475 20.1687C348.476 20.8509 348.273 21.5178 347.891 22.0833C347.51 22.6487 346.967 23.0867 346.334 23.3405C345.67 23.5295 344.963 23.5049 344.314 23.2701C343.665 23.0353 343.106 22.6022 342.716 22.0321C342.329 21.4883 342.103 20.8458 342.067 20.179C342.03 19.5123 342.183 18.8488 342.508 18.2657C342.823 17.663 343.336 17.1866 343.96 16.916C344.584 16.6455 345.282 16.5971 345.937 16.7789C346.669 16.9962 347.31 17.4433 347.767 18.0539C348.224 18.6644 348.472 19.406 348.475 20.1687C348.435 20.2976 349.198 20.1885 349.189 19.9705Z" fill="#383838"/>
<path d="M350.418 21.7346C350.407 20.9517 350.147 20.1926 349.674 19.5684C349.202 18.9442 348.542 18.4876 347.791 18.2654C347.021 18.053 346.207 18.0591 345.44 18.2832C344.673 18.5073 343.984 18.9404 343.45 19.5341C342.936 20.1356 342.63 20.8873 342.578 21.6769C342.526 22.4665 342.731 23.2516 343.162 23.9152C343.658 24.5766 344.345 25.0698 345.13 25.3281C345.915 25.5865 346.76 25.5974 347.552 25.3596C348.343 25.1217 349.043 24.6464 349.555 23.9981C350.068 23.3497 350.369 22.5596 350.418 21.7346C350.418 21.6057 349.704 21.7346 349.704 21.9328C349.706 22.6165 349.502 23.2848 349.118 23.8506C348.734 24.4164 348.189 24.8534 347.553 25.1046C346.889 25.2905 346.183 25.2644 345.535 25.0298C344.886 24.7953 344.327 24.364 343.935 23.7962C343.551 23.249 343.328 22.6045 343.293 21.9365C343.258 21.2686 343.412 20.6043 343.737 20.0198C344.054 19.421 344.565 18.9482 345.187 18.6796C345.809 18.4111 346.504 18.3629 347.157 18.543C347.89 18.7585 348.533 19.2048 348.992 19.8156C349.451 20.4263 349.701 21.1689 349.704 21.9328C349.664 22.0617 350.418 21.9526 350.418 21.7346Z" fill="#383838"/>
<path d="M22.1593 2.57508L29.6427 18.9592L41.5369 45.0966L44.2824 51.1031C44.6888 51.9952 46.3639 51.678 47.0676 51.5293C48.0588 51.3113 49.5258 50.895 50.0412 49.884L57.7823 33.5296L70.1819 7.33272L73.0167 1.38565L67.2976 2.60481L72.8878 19.0088L81.8084 45.0768L83.8502 51.1031C84.1674 52.015 86.0209 51.6681 86.6354 51.5293C87.6266 51.3113 89.0638 50.895 89.609 49.884L97.9051 33.48L111.177 7.39219L114.23 1.44512C114.775 0.38456 112.247 0.553064 111.861 0.612535C110.741 0.781035 109.096 1.22707 108.54 2.33719L100.165 18.7808L86.8832 44.8686L83.8304 50.8157L89.5495 49.5966L83.9593 33.1628L75.0882 7.09485L73.0365 1.06848C72.7292 0.1566 70.8757 0.503504 70.2513 0.642269C69.2601 0.860328 67.7932 1.27663 67.2777 2.28763L59.5763 18.6123L47.1767 44.8092L44.3419 50.7562L50.0709 49.5371L42.5776 33.1529L30.6835 7.01555L27.9478 1.00902C27.1945 -0.626428 21.6043 1.23698 22.199 2.55525L22.1593 2.57508Z" fill="#383838"/>
<path d="M125.351 2.12918L124.954 18.4836L124.31 44.6805L124.161 50.6275C124.161 51.6187 125.063 52.0251 125.955 52.0251H169.567C170.846 52.0251 172.66 51.6385 173.344 50.4194C174.028 49.2002 172.789 48.5758 171.748 48.5758H128.136L129.93 49.9734L130.327 33.6189L130.961 7.42208L131.11 1.47502C131.11 0.166661 129.623 -0.0117507 128.592 0.0972788C127.561 0.206308 125.381 0.870385 125.351 2.12918Z" fill="#383838"/>
<path d="M155.681 23.7767H131.695C130.386 23.7767 128.632 24.1732 127.918 25.4023C127.205 26.6313 128.493 27.3053 129.534 27.3053H153.52C154.829 27.3053 156.583 26.9188 157.297 25.6798C158.01 24.4408 156.722 23.7767 155.681 23.7767Z" fill="#383838"/>
<path d="M171.817 0.345093H136.531C135.322 0.345093 133.459 0.781206 132.725 1.84177C131.992 2.90233 133.379 3.25914 134.212 3.25914H169.498C170.707 3.25914 172.57 2.82303 173.304 1.76247C174.037 0.701909 172.65 0.345093 171.817 0.345093Z" fill="#383838"/>
<path d="M196.686 49.5571V0.989351L193.405 3.2988H193.613C192.513 3.4673 193.227 3.2988 193.613 3.2988C194.446 3.2988 195.288 3.2195 196.121 3.19967C198.85 3.10716 201.576 3.10716 204.298 3.19967C206.033 3.19967 207.767 3.31862 209.492 3.43756C211.524 3.56641 212.545 3.66553 214.567 3.91332C216.371 4.14129 218.184 4.42874 219.969 4.80539C221.518 5.11784 223.047 5.52161 224.548 6.01462C229.286 7.63023 235.015 11.0399 233.33 16.9176C233.217 17.389 233.026 17.838 232.765 18.2458C232.588 18.5268 232.396 18.7981 232.19 19.0585L231.863 19.4451C232.111 19.1675 231.863 19.4451 231.754 19.5343C231.645 19.6235 231.238 20.0001 230.961 20.2281C230.416 20.6741 231.199 20.1092 230.594 20.4957C230.277 20.7039 229.96 20.9021 229.603 21.0805L229.266 21.2688C228.859 21.5166 229.761 21.0607 229.028 21.3878C228.294 21.7149 227.65 21.9627 226.946 22.2402C226.243 22.5177 227.601 22.042 226.897 22.2402L226.491 22.369C226.002 22.5144 225.516 22.6532 225.034 22.7854C224.25 22.9935 223.458 23.1719 222.665 23.3503C222.129 23.4693 222.665 23.3503 222.784 23.3503L222.129 23.4792L220.702 23.7171C218.888 23.9946 217.064 24.1928 215.241 24.3316L214.041 24.4208C214.805 24.4208 214.131 24.4208 213.982 24.4208H213.229C212.505 24.4208 211.781 24.4803 211.058 24.4902C209.522 24.4902 207.985 24.5496 206.459 24.4902L204.199 27.6619C205.745 27.6619 207.301 27.6619 208.857 27.7809C210.414 27.8998 212.158 27.9692 213.813 28.1278H214.051L214.725 28.1972L216.202 28.3756C217.193 28.5045 218.254 28.6432 219.275 28.8018C223.203 29.3384 227.049 30.364 230.723 31.8546C233.597 33.0936 236.67 34.9174 237.978 37.8017C238.244 38.4379 238.434 39.1033 238.543 39.784C238.543 39.903 238.543 40.0219 238.543 40.1409C238.543 40.2598 238.543 39.9129 238.543 40.2598C238.526 40.5003 238.49 40.7389 238.434 40.9735C238.375 41.1915 238.295 41.3898 238.216 41.5979C238.137 41.8061 238.385 41.3204 238.216 41.5979L238.008 41.9448C237.879 42.143 237.721 42.3215 237.582 42.5098C237.443 42.6981 237.711 42.3809 237.582 42.5098L237.255 42.827C237.037 43.0153 236.799 43.1838 236.581 43.3721C236.363 43.5604 237.056 43.0748 236.64 43.3721C236.492 43.4514 236.353 43.5505 236.204 43.6397C236.055 43.7289 235.669 43.947 235.401 44.0957C235.134 44.2444 235.144 44.2146 235.481 44.0957L234.955 44.3336C234.281 44.6408 233.597 44.8886 232.913 45.1463C232.388 45.3446 233.488 44.9679 232.913 45.1463L232.368 45.3148C231.932 45.4536 231.486 45.5824 231.05 45.7014C230.217 45.9294 229.385 46.1375 228.542 46.3258C228.126 46.4249 227.7 46.5042 227.283 46.5934C227.115 46.5934 227.799 46.4943 227.194 46.5934L226.431 46.7322C224.518 47.0791 222.595 47.3567 220.662 47.5945C218.73 47.8324 216.698 48.0307 214.715 48.1992L211.861 48.4073H211.177H211.345H211.008L209.581 48.4866C204.714 48.7443 199.858 48.7641 194.981 48.774C194.905 48.779 194.829 48.779 194.753 48.774C193.524 48.774 191.661 49.2002 190.957 50.3203C190.253 51.4403 191.571 51.926 192.493 51.9458C196.864 52.035 201.245 51.9458 205.616 51.7377C213.903 51.3808 222.308 50.7465 230.396 48.7641C233.857 48.0548 237.17 46.7537 240.189 44.9183C242.399 43.4316 244.401 41.3799 244.153 38.5352C243.886 35.0958 240.982 32.4592 238.256 30.7643C234.563 28.6746 230.54 27.2299 226.362 26.4924C219.874 25.1245 213.258 24.4599 206.627 24.51H206.28C205.032 24.51 203.198 24.9164 202.484 26.0562C201.771 27.1961 203.099 27.6421 204.021 27.6818C208.716 27.8571 213.418 27.6349 218.075 27.0177C221.942 26.5713 225.743 25.6799 229.405 24.3613C232.507 23.1917 235.818 21.3878 237.711 18.5927C238.52 17.3874 239.008 15.9952 239.127 14.5484C239.247 13.1015 238.995 11.6481 238.395 10.3262C237.096 7.60051 234.569 5.78665 231.902 4.51794C225.123 1.26688 217.094 0.553236 209.69 0.1865C204.453 -0.0943754 199.203 -0.057965 193.97 0.29553C192.781 0.374824 190.689 1.15786 190.689 2.60498V51.1727C190.937 52.7883 196.686 51.7377 196.686 49.5571Z" fill="#383838"/>
</svg>
