<svg width="1280" height="868" viewBox="0 0 1280 868" fill="none" xmlns="http://www.w3.org/2000/svg">
<g opacity="0.3">
<mask id="mask0" mask-type="alpha" maskUnits="userSpaceOnUse" x="0" y="0" width="1280" height="868">
<rect y="0.314453" width="1280" height="866.996" fill="#00D1C1"/>
</mask>
<g mask="url(#mask0)">
<path fill-rule="evenodd" clip-rule="evenodd" d="M1568.43 1094.95C1506.92 1160.88 1419.26 1202.1 1321.98 1202.1C1135.87 1202.1 984.999 1051.22 984.999 865.112C984.999 857.96 985.222 850.859 985.661 843.817H982.655C982.22 850.86 981.999 857.96 981.999 865.112C981.999 1052.88 1134.22 1205.1 1321.98 1205.1C1421.13 1205.1 1510.37 1162.66 1572.51 1094.95H1568.43ZM1623.19 1016.38H1626.55C1649.22 970.821 1661.97 919.455 1661.97 865.112C1661.97 777.563 1628.88 697.742 1574.52 637.477H1570.46C1625.43 697.44 1658.97 777.359 1658.97 865.112C1658.97 919.507 1646.08 970.892 1623.19 1016.38ZM1321.98 528.127C1174.17 528.127 1048.59 623.295 1003.16 755.7H999.988C1045.54 621.609 1172.49 525.127 1321.98 525.127C1388.05 525.127 1449.71 543.969 1501.89 576.573V580.117C1449.83 547.188 1388.14 528.127 1321.98 528.127Z" fill="white"/>
<path fill-rule="evenodd" clip-rule="evenodd" d="M1278.66 610.25C1156.53 630.86 1063.51 737.123 1063.51 865.112C1063.51 1007.86 1179.23 1123.59 1321.98 1123.59C1342.19 1123.59 1361.86 1121.27 1380.73 1116.88V1113.8C1361.87 1118.24 1342.2 1120.59 1321.98 1120.59C1180.89 1120.59 1066.51 1006.21 1066.51 865.112C1066.51 738.784 1158.2 633.871 1278.66 613.294V610.25ZM1349.15 611.063C1477.48 624.628 1577.46 733.194 1577.46 865.112C1577.46 893.612 1572.79 921.023 1564.18 946.621H1567.35C1575.85 920.996 1580.46 893.592 1580.46 865.112C1580.46 731.535 1479.14 621.624 1349.15 608.046V611.063ZM1431.4 1096.04C1457.67 1083.57 1481.48 1066.75 1501.89 1046.5V1050.7C1481.38 1070.59 1457.58 1087.1 1431.4 1099.36V1096.04ZM1540.66 997.288C1545.11 989.935 1549.2 982.339 1552.91 974.524H1556.23C1552.58 982.333 1548.54 989.929 1544.16 997.288H1540.66Z" fill="white"/>
<path fill-rule="evenodd" clip-rule="evenodd" d="M1321.98 1042.02C1402.35 1042.02 1470.19 988.434 1491.74 915.045H1494.87C1473.23 990.113 1404.02 1045.02 1321.98 1045.02C1222.62 1045.02 1142.08 964.472 1142.08 865.112C1142.08 847.787 1144.53 831.033 1149.1 815.179H1152.22C1147.57 831.015 1145.08 847.772 1145.08 865.112C1145.08 962.815 1224.28 1042.02 1321.98 1042.02ZM1170.72 773.324C1201.76 722.291 1257.89 688.207 1321.98 688.207C1393.78 688.207 1455.58 730.971 1483.31 792.416H1486.6C1458.67 729.269 1395.47 685.207 1321.98 685.207C1256.15 685.207 1198.58 720.564 1167.22 773.324H1170.72Z" fill="white"/>
<path fill-rule="evenodd" clip-rule="evenodd" d="M1321.98 971.524C1380.75 971.524 1428.4 923.882 1428.4 865.112C1428.4 850.816 1425.58 837.179 1420.46 824.725H1423.7C1428.67 837.221 1431.4 850.848 1431.4 865.112C1431.4 925.539 1382.41 974.524 1321.98 974.524C1279.55 974.524 1242.75 950.363 1224.6 915.045H1227.99C1245.88 948.648 1281.26 971.524 1321.98 971.524ZM1215.57 865.847C1215.57 865.602 1215.57 865.357 1215.57 865.112C1215.57 806.343 1263.21 758.7 1321.98 758.7C1343.63 758.7 1363.76 765.162 1380.56 776.261H1385.84C1367.87 763.322 1345.82 755.7 1321.98 755.7C1261.56 755.7 1212.57 804.686 1212.57 865.112C1212.57 865.357 1212.57 865.602 1212.57 865.847H1215.57Z" fill="white"/>
<path fill-rule="evenodd" clip-rule="evenodd" d="M387.438 -403.415C320.126 -448.857 239.665 -476.589 152.519 -479.67C-44.6772 -486.642 -216.648 -365.292 -282.986 -190.534L-279.818 -190.422C-213.66 -363.5 -43.1062 -483.585 152.413 -476.672C239.647 -473.588 320.137 -445.637 387.313 -399.875L387.438 -403.415ZM-311.818 -47.0458C-311.485 -56.4802 -310.862 -65.8363 -309.96 -75.1058L-306.956 -74.9996C-307.862 -65.7308 -308.486 -56.3747 -308.82 -46.9398C-317.519 199.093 -125.121 405.595 120.912 414.293C249.833 418.852 367.9 368.194 452.34 283.536L456.422 283.681C371.285 370.093 251.594 421.916 120.806 417.292C-126.883 408.534 -320.576 200.643 -311.818 -47.0458ZM531.363 182.556C563.395 123.515 582.609 56.3528 585.143 -15.3325C589.227 -130.821 549.297 -237.658 480.402 -319.69L476.353 -319.834C545.861 -238.08 586.236 -131.13 582.145 -15.4385C579.609 56.2985 560.256 123.476 528.011 182.437L531.363 182.556Z" fill="white"/>
<path fill-rule="evenodd" clip-rule="evenodd" d="M91.4008 -369.403C-70.6605 -347.912 -198.329 -212.078 -204.298 -43.2445C-210.956 145.063 -63.6999 303.114 124.608 309.772C151.264 310.715 177.314 308.573 202.414 303.667L202.522 300.588C177.432 305.546 151.379 307.717 124.714 306.774C-61.9381 300.175 -207.9 143.514 -201.3 -43.1385C-195.39 -210.312 -69.1029 -344.845 91.2932 -366.362L91.4008 -369.403ZM184.386 -366.008C353.557 -342.106 480.798 -193.786 474.627 -19.2401C473.298 18.3487 465.883 54.2874 453.363 87.6621L456.524 87.7739C468.942 54.3693 476.296 18.4346 477.625 -19.1341C483.855 -195.338 355.322 -345.049 184.493 -369.023L184.386 -366.008ZM270.184 279.597C305.395 264.441 337.577 243.46 365.473 217.825L365.325 222.018C337.343 247.293 305.184 267.969 270.067 282.911L270.184 279.597ZM420.073 153.405C426.27 143.91 432.005 134.08 437.244 123.947L440.558 124.064C435.374 134.194 429.701 144.025 423.57 153.528L420.073 153.405Z" fill="white"/>
<path fill-rule="evenodd" clip-rule="evenodd" d="M128.378 203.13C234.92 206.897 327.368 138.97 359.268 42.631L362.391 42.7414C330.341 140.755 236.484 209.954 128.272 206.128C-2.79492 201.494 -105.289 91.4867 -100.655 -39.5799C-99.8467 -62.4342 -95.8347 -84.4198 -89.0658 -105.12L-85.9431 -105.01C-92.7904 -84.3308 -96.848 -62.3428 -97.6566 -39.4739C-102.232 89.9369 -1.0331 198.554 128.378 203.13ZM-59.7087 -159.364C-16.2659 -225.783 59.8444 -268.517 144.947 -265.508C240.191 -262.141 320.154 -202.416 353.914 -119.524L357.197 -119.407C323.302 -204.008 241.993 -265.079 145.053 -268.506C58.2156 -271.576 -19.3775 -227.621 -63.2049 -159.487L-59.7087 -159.364Z" fill="white"/>
<path fill-rule="evenodd" clip-rule="evenodd" d="M131.666 110.14C209.72 112.9 275.233 51.8619 277.992 -26.1922C278.659 -45.0399 275.605 -63.1563 269.49 -79.8346L272.723 -79.7203C278.69 -63.0056 281.656 -44.9028 280.99 -26.0861C278.172 53.6237 211.27 115.957 131.56 113.138C75.579 111.159 28.169 77.5712 5.87922 30.1369L9.26014 30.2564C31.3548 75.9685 77.3977 108.222 131.666 110.14ZM-4.69742 -35.2171C-4.68817 -35.5399 -4.67784 -35.8628 -4.66642 -36.1859C-1.90671 -114.24 63.6058 -175.278 141.66 -172.518C170.922 -171.484 197.792 -161.63 219.806 -145.601L225.047 -145.416C201.945 -163.322 173.207 -174.405 141.766 -175.517C62.056 -178.335 -4.84629 -116.002 -7.66454 -36.2919C-7.67597 -35.9688 -7.68632 -35.6459 -7.69561 -35.3232L-4.69742 -35.2171Z" fill="white"/>
</g>
</g>
</svg>
