<svg width="16" height="16" viewBox="0 0 16 16" fill="none" xmlns="http://www.w3.org/2000/svg">
<path fill-rule="evenodd" clip-rule="evenodd" d="M10.331 2.76855C9.20291 2.26589 7.94252 2.14136 6.73785 2.41354C5.53317 2.68572 4.44875 3.34003 3.64632 4.27887C2.84389 5.21772 2.36643 6.3908 2.28517 7.62317C2.20391 8.85553 2.52319 10.0812 3.1954 11.1172C3.86761 12.1533 4.85672 12.9443 6.01523 13.3724C7.17373 13.8004 8.43956 13.8424 9.62392 13.4922C10.8083 13.1421 11.8477 12.4184 12.5872 11.4292C13.3267 10.44 13.7266 9.23832 13.7273 8.00328V7.41819C13.7273 7.06673 14.0122 6.78182 14.3637 6.78182C14.7151 6.78182 15 7.06673 15 7.41819V8.00364C14.9992 9.51314 14.5104 10.9823 13.6066 12.1913C12.7027 13.4003 11.4323 14.2847 9.98478 14.7127C8.53723 15.1407 6.99011 15.0893 5.57416 14.5662C4.15821 14.0431 2.94929 13.0763 2.1277 11.81C1.30612 10.5436 0.915884 9.04565 1.0152 7.53942C1.11452 6.0332 1.69808 4.59943 2.67883 3.45196C3.65958 2.30448 4.98498 1.50477 6.45736 1.17211C7.92974 0.839443 9.47022 0.991642 10.849 1.60601C11.1701 1.74905 11.3143 2.12525 11.1713 2.44628C11.0283 2.76731 10.6521 2.91159 10.331 2.76855Z" fill="#00D1C2"/>
<path fill-rule="evenodd" clip-rule="evenodd" d="M14.8134 2.46351C15.0621 2.7119 15.0623 3.11482 14.8139 3.36346L8.45025 9.73346C8.33092 9.8529 8.16903 9.92003 8.0002 9.92007C7.83137 9.92011 7.66945 9.85306 7.55007 9.73368L5.64098 7.82459C5.39246 7.57608 5.39246 7.17315 5.64098 6.92464C5.88949 6.67612 6.29241 6.67612 6.54093 6.92464L7.99982 8.38353L13.9135 2.46396C14.1619 2.21532 14.5648 2.21511 14.8134 2.46351Z" fill="#00D1C2"/>
</svg>
