<svg width="16" height="16" viewBox="0 0 16 16" fill="none" xmlns="http://www.w3.org/2000/svg">
<path fill-rule="evenodd" clip-rule="evenodd" d="M15.6187 0.381282C15.9604 0.72299 15.9604 1.27701 15.6187 1.61872L1.61872 15.6187C1.27701 15.9604 0.72299 15.9604 0.381282 15.6187C0.0395728 15.277 0.0395728 14.723 0.381282 14.3813L14.3813 0.381282C14.723 0.0395728 15.277 0.0395728 15.6187 0.381282Z" fill="#00D1C2"/>
<path fill-rule="evenodd" clip-rule="evenodd" d="M0.381282 0.381282C0.72299 0.0395728 1.27701 0.0395728 1.61872 0.381282L15.6187 14.3813C15.9604 14.723 15.9604 15.277 15.6187 15.6187C15.277 15.9604 14.723 15.9604 14.3813 15.6187L0.381282 1.61872C0.0395728 1.27701 0.0395728 0.72299 0.381282 0.381282Z" fill="#00D1C2"/>
</svg>
