<svg width="12" height="12" viewBox="0 0 12 12" fill="none" xmlns="http://www.w3.org/2000/svg">
<path fill-rule="evenodd" clip-rule="evenodd" d="M11.6187 0.381282C11.9604 0.72299 11.9604 1.27701 11.6187 1.61872L1.61872 11.6187C1.27701 11.9604 0.72299 11.9604 0.381282 11.6187C0.0395728 11.277 0.0395728 10.723 0.381282 10.3813L10.3813 0.381282C10.723 0.0395728 11.277 0.0395728 11.6187 0.381282Z" fill="white"/>
<path fill-rule="evenodd" clip-rule="evenodd" d="M0.381282 0.381282C0.72299 0.0395728 1.27701 0.0395728 1.61872 0.381282L11.6187 10.3813C11.9604 10.723 11.9604 11.277 11.6187 11.6187C11.277 11.9604 10.723 11.9604 10.3813 11.6187L0.381282 1.61872C0.0395728 1.27701 0.0395728 0.72299 0.381282 0.381282Z" fill="white"/>
</svg>
