<svg width="24" height="24" viewBox="0 0 24 24" fill="none" xmlns="http://www.w3.org/2000/svg">
<path fill-rule="evenodd" clip-rule="evenodd" d="M20.2467 3.31598C20.0032 3.1069 19.6913 2.99453 19.3703 3.00021L19.3526 3.00036H17.6826V12.0004H19.3526L19.3703 12.0005C19.6913 12.0062 20.0032 11.8938 20.2467 11.6847C20.4756 11.4883 20.6293 11.2192 20.6826 10.9235V4.07723C20.6293 3.78151 20.4756 3.51246 20.2467 3.31598ZM15.6826 12.7881L12.0748 20.9058C11.7734 20.8096 11.4963 20.6424 11.2684 20.4146C10.8934 20.0395 10.6826 19.5308 10.6826 19.0004V15.0004C10.6826 14.4481 10.2349 14.0004 9.68265 14.0004H4.02265L4.01132 14.0004C3.86637 14.0021 3.72279 13.9722 3.59054 13.9128C3.45828 13.8535 3.34052 13.7661 3.24539 13.6567C3.15027 13.5473 3.08007 13.4185 3.03965 13.2793C2.99929 13.1403 2.9896 12.9941 3.01124 12.851C3.01121 12.8512 3.01127 12.8508 3.01124 12.851L4.39134 3.8503C4.4275 3.61184 4.54863 3.39449 4.73239 3.23829C4.91615 3.0821 5.15018 2.99757 5.39134 3.0003L15.6826 3.00036V12.7881ZM19.3446 1.00036C20.1522 0.988428 20.9364 1.27219 21.5494 1.79838C22.1648 2.32667 22.5649 3.06255 22.6736 3.86632C22.6796 3.91075 22.6826 3.95553 22.6826 4.00036V11.0004C22.6826 11.0452 22.6796 11.09 22.6736 11.1344C22.5649 11.9382 22.1648 12.6741 21.5494 13.2023C20.9364 13.7285 20.1522 14.0123 19.3446 14.0004H17.3325L13.5965 22.4065C13.436 22.7676 13.0778 23.0004 12.6826 23.0004C11.6218 23.0004 10.6044 22.5789 9.85422 21.8288C9.10407 21.0786 8.68265 20.0612 8.68265 19.0004V16.0004H4.02776C3.59501 16.0044 3.16649 15.9147 2.77161 15.7375C2.37485 15.5594 2.02155 15.2972 1.73618 14.969C1.45082 14.6409 1.24021 14.2546 1.11896 13.8369C0.99771 13.4193 0.96871 12.9803 1.03397 12.5503L2.41395 3.55043C2.414 3.55012 2.41391 3.55073 2.41395 3.55043C2.52261 2.83542 2.88603 2.18282 3.43709 1.71442C3.98681 1.24716 4.68643 0.993702 5.40773 1.00036H19.3446Z" fill="#00D1C2"/>
</svg>
