<svg width="27" height="27" viewBox="0 0 27 27" fill="none" xmlns="http://www.w3.org/2000/svg">
<g filter="url(#filter0_d)">
<path fill-rule="evenodd" clip-rule="evenodd" d="M2.87868 3.99977C3.44129 3.43716 4.20435 3.12109 5 3.12109H12C12.5523 3.12109 13 3.56881 13 4.12109C13 4.67338 12.5523 5.12109 12 5.12109H5C4.73478 5.12109 4.48043 5.22645 4.29289 5.41399C4.10536 5.60152 4 5.85588 4 6.12109V20.1211C4 20.3863 4.10536 20.6407 4.29289 20.8282C4.48043 21.0157 4.73478 21.1211 5 21.1211H19C19.2652 21.1211 19.5196 21.0157 19.7071 20.8282C19.8946 20.6407 20 20.3863 20 20.1211V13.1211C20 12.5688 20.4477 12.1211 21 12.1211C21.5523 12.1211 22 12.5688 22 13.1211V20.1211C22 20.9167 21.6839 21.6798 21.1213 22.2424C20.5587 22.805 19.7957 23.1211 19 23.1211H5C4.20435 23.1211 3.44129 22.805 2.87868 22.2424C2.31607 21.6798 2 20.9167 2 20.1211V6.12109C2 5.32544 2.31607 4.56238 2.87868 3.99977Z" fill="white"/>
<path fill-rule="evenodd" clip-rule="evenodd" d="M21 3C20.7026 3 20.4174 3.11814 20.2071 3.32843L10.903 12.6326L10.3744 14.747L12.4888 14.2184L21.7929 4.91421C22.0032 4.70392 22.1213 4.41871 22.1213 4.12132C22.1213 3.82393 22.0032 3.53872 21.7929 3.32843C21.5826 3.11814 21.2974 3 21 3ZM18.7929 1.91421C19.3783 1.32885 20.1722 1 21 1C21.8278 1 22.6218 1.32885 23.2071 1.91421C23.7925 2.49957 24.1213 3.29349 24.1213 4.12132C24.1213 4.94915 23.7925 5.74307 23.2071 6.32843L13.7071 15.8284C13.579 15.9566 13.4184 16.0475 13.2426 16.0915L9.24256 17.0915C8.90178 17.1767 8.54129 17.0768 8.29291 16.8284C8.04453 16.58 7.94468 16.2196 8.02988 15.8788L9.02988 11.8788C9.07384 11.703 9.16476 11.5424 9.29291 11.4142L18.7929 1.91421Z" fill="white"/>
</g>
<defs>
<filter id="filter0_d" x="0" y="0" width="26.1213" height="26.1211" filterUnits="userSpaceOnUse" color-interpolation-filters="sRGB">
<feFlood flood-opacity="0" result="BackgroundImageFix"/>
<feColorMatrix in="SourceAlpha" type="matrix" values="0 0 0 0 0 0 0 0 0 0 0 0 0 0 0 0 0 0 127 0"/>
<feOffset dy="1"/>
<feGaussianBlur stdDeviation="1"/>
<feColorMatrix type="matrix" values="0 0 0 0 0 0 0 0 0 0 0 0 0 0 0 0 0 0 0.1 0"/>
<feBlend mode="normal" in2="BackgroundImageFix" result="effect1_dropShadow"/>
<feBlend mode="normal" in="SourceGraphic" in2="effect1_dropShadow" result="shape"/>
</filter>
</defs>
</svg>
