<svg width="16" height="16" viewBox="0 0 16 16" fill="none" xmlns="http://www.w3.org/2000/svg">
<path fill-rule="evenodd" clip-rule="evenodd" d="M8.67837 3.76367L13.6282 8.71803C13.7919 8.48453 13.9466 8.24475 14.0919 7.99921C14.035 7.90406 13.9675 7.79474 13.8897 7.67424C13.5973 7.22153 13.1647 6.62015 12.604 6.02216C11.6045 4.95601 10.2794 3.98377 8.67837 3.76367ZM15.1111 8.00007L15.9062 7.60255C16.0351 7.86043 16.031 8.16483 15.895 8.41911C15.4735 9.2078 14.9707 9.95033 14.3949 10.6346C14.2345 10.8252 14.0016 10.9397 13.7527 10.9504C13.5039 10.961 13.262 10.8668 13.0859 10.6905L6.0136 3.61176C5.78562 3.38357 5.69914 3.04978 5.78765 2.7396C5.87616 2.42942 6.12576 2.19153 6.43983 2.11802C6.95157 1.99823 7.47548 1.93832 8.00104 1.93947C8.00139 1.93947 8.00174 1.93947 8.00209 1.93947L8 2.82836V1.93947C8.00035 1.93947 8.0007 1.93947 8.00104 1.93947C10.6183 1.93987 12.6144 3.43386 13.901 4.80627C14.5525 5.50121 15.0492 6.19276 15.3831 6.70975C15.5506 6.9691 15.6786 7.18679 15.7659 7.34206C15.8096 7.41976 15.8432 7.48201 15.8666 7.52624C15.8783 7.54836 15.8875 7.566 15.8941 7.57882L15.9021 7.5944L15.9046 7.59942L15.9062 7.60255C15.9063 7.60286 15.9062 7.60255 15.1111 8.00007ZM3.62053 3.45361C3.97443 3.18337 4.47368 3.21668 4.78854 3.53154L7.25457 5.99757C7.25662 5.9996 7.25866 6.00164 7.2607 6.00369L9.99632 8.73932C9.99841 8.74139 10.0005 8.74347 10.0026 8.74556L12.4685 11.2115C12.6499 11.3929 12.7441 11.6437 12.7269 11.8996C12.7097 12.1555 12.5828 12.3915 12.3789 12.547C11.1229 13.5044 9.59356 14.0347 8.01453 14.0606L8 14.0607C5.38226 14.0607 3.3858 12.5665 2.099 11.1939C1.44749 10.4989 0.950826 9.80739 0.616935 9.2904C0.449437 9.03105 0.321449 8.81336 0.234105 8.65808C0.190399 8.58039 0.15677 8.51814 0.133365 8.47391C0.12166 8.45178 0.112502 8.43415 0.105911 8.42133L0.0979485 8.40574L0.0954128 8.40073L0.0945069 8.39892C0.094351 8.39861 0.0938426 8.3976 0.888889 8.00007L0.0938426 8.3976C-0.0353233 8.13927 -0.0309239 7.83428 0.10564 7.57978C0.969699 5.96953 2.16813 4.56268 3.62053 3.45361ZM1.90863 8.00178C1.96544 8.09673 2.03274 8.20576 2.11034 8.32591C2.40271 8.77861 2.83534 9.38 3.39595 9.97799C4.53195 11.1897 6.08853 12.2801 7.99273 12.2829C8.84262 12.2679 9.67338 12.0605 10.4246 11.6817L9.28536 10.5425C9.22566 10.5744 9.16474 10.6043 9.10272 10.6319C8.75579 10.7865 8.38127 10.8696 8.00152 10.8763C7.62176 10.883 7.24455 10.8131 6.89238 10.6709C6.54021 10.5286 6.22029 10.3169 5.95173 10.0483C5.68316 9.77978 5.47143 9.45987 5.32918 9.1077C5.18694 8.75553 5.11708 8.37831 5.12378 7.99856C5.13048 7.6188 5.2136 7.24429 5.36818 6.89735C5.39582 6.83533 5.42564 6.77442 5.45756 6.71472L4.10076 5.35791C3.23705 6.11902 2.49722 7.01101 1.90863 8.00178ZM6.90757 8.16473C6.91815 8.25966 6.94164 8.35292 6.97757 8.44189C7.03041 8.57269 7.10905 8.69152 7.2088 8.79127C7.30856 8.89103 7.42738 8.96967 7.55819 9.0225C7.64715 9.05843 7.74041 9.08193 7.83535 9.0925L6.90757 8.16473Z" fill="#9CA199"/>
<path fill-rule="evenodd" clip-rule="evenodd" d="M0.26035 0.26035C0.607482 -0.0867832 1.1703 -0.0867832 1.51743 0.26035L15.7397 14.4826C16.0868 14.8297 16.0868 15.3925 15.7397 15.7397C15.3925 16.0868 14.8297 16.0868 14.4826 15.7397L0.26035 1.51743C-0.0867832 1.1703 -0.0867832 0.607482 0.26035 0.26035Z" fill="#9CA199"/>
</svg>
