<svg width="40" height="40" viewBox="0 0 40 40" fill="none" xmlns="http://www.w3.org/2000/svg">
<path d="M38.4 0H1.6C0.715 0 0 0.715 0 1.6V38.4C0 39.285 0.715 40 1.6 40H38.4C39.285 40 40 39.285 40 38.4V1.6C40 0.715 39.285 0 38.4 0ZM11.865 34.085H5.93V14.995H11.865V34.085ZM8.9 12.385C8.21963 12.385 7.55454 12.1832 6.98884 11.8053C6.42313 11.4273 5.98222 10.89 5.72185 10.2614C5.46149 9.63285 5.39337 8.94118 5.5261 8.27389C5.65883 7.6066 5.98646 6.99365 6.46755 6.51255C6.94865 6.03146 7.56159 5.70383 8.22889 5.5711C8.89618 5.43836 9.58785 5.50649 10.2164 5.76685C10.845 6.02722 11.3823 6.46813 11.7603 7.03384C12.1382 7.59954 12.34 8.26463 12.34 8.945C12.335 10.845 10.795 12.385 8.9 12.385ZM34.085 34.085H28.155V24.8C28.155 22.585 28.115 19.74 25.07 19.74C21.985 19.74 21.51 22.15 21.51 24.64V34.085H15.585V14.995H21.275V17.605H21.355C22.145 16.105 24.08 14.52 26.97 14.52C32.98 14.52 34.085 18.475 34.085 23.615V34.085Z" fill="#00D1C2"/>
</svg>
