<svg width="16" height="16" viewBox="0 0 16 16" fill="none" xmlns="http://www.w3.org/2000/svg">
<path fill-rule="evenodd" clip-rule="evenodd" d="M1.13948 9.41883C1.7834 8.80046 2.64947 8.45898 3.54545 8.45898H8.63636C9.53235 8.45898 10.3984 8.80046 11.0423 9.41883C11.6875 10.0384 12.0568 10.8864 12.0568 11.7784V13.0007C12.0568 13.4839 11.6651 13.8757 11.1818 13.8757C10.6986 13.8757 10.3068 13.4839 10.3068 13.0007V11.7784C10.3068 11.3739 10.1398 10.9784 9.8302 10.6811C9.5194 10.3826 9.09057 10.209 8.63636 10.209H3.54545C3.09125 10.209 2.66242 10.3826 2.35162 10.6811C2.04202 10.9784 1.875 11.3739 1.875 11.7784V13.0007C1.875 13.4839 1.48325 13.8757 1 13.8757C0.516751 13.8757 0.125 13.4839 0.125 13.0007V11.7784C0.125 10.8864 0.494345 10.0384 1.13948 9.41883Z" fill="#565A5C"/>
<path fill-rule="evenodd" clip-rule="evenodd" d="M6.0909 2.875C5.1346 2.875 4.42044 3.61072 4.42044 4.44444C4.42044 5.27817 5.1346 6.01389 6.0909 6.01389C7.04719 6.01389 7.76135 5.27817 7.76135 4.44444C7.76135 3.61072 7.04719 2.875 6.0909 2.875ZM2.67044 4.44444C2.67044 2.57811 4.23556 1.125 6.0909 1.125C7.94623 1.125 9.51135 2.57811 9.51135 4.44444C9.51135 6.31078 7.94623 7.76389 6.0909 7.76389C4.23556 7.76389 2.67044 6.31078 2.67044 4.44444Z" fill="#565A5C"/>
<path fill-rule="evenodd" clip-rule="evenodd" d="M12.2416 9.20173C12.3579 8.73269 12.8324 8.44673 13.3015 8.56303C14.0283 8.74324 14.6789 9.15174 15.1472 9.7319C15.616 10.3128 15.8744 11.0319 15.875 11.7766L15.875 12.9995C15.875 13.4828 15.4832 13.8745 15 13.8745C14.5167 13.8745 14.125 13.4828 14.125 12.9995V11.7776C14.1246 11.4393 14.0076 11.1063 13.7855 10.8311C13.5627 10.5552 13.2457 10.3522 12.8803 10.2616C12.4113 10.1453 12.1253 9.67078 12.2416 9.20173Z" fill="#565A5C"/>
<path fill-rule="evenodd" clip-rule="evenodd" d="M9.69577 1.87136C9.81115 1.40209 10.2851 1.11521 10.7544 1.23059C11.4831 1.40976 12.1357 1.81833 12.6054 2.39943C13.0756 2.98122 13.3345 3.70196 13.3345 4.44834C13.3345 5.19471 13.0756 5.91545 12.6054 6.49725C12.1357 7.07835 11.4831 7.48691 10.7544 7.66608C10.2851 7.78147 9.81115 7.49459 9.69577 7.02532C9.58039 6.55604 9.86727 6.08209 10.3365 5.9667C10.7029 5.87662 11.0209 5.67358 11.2444 5.39716C11.4672 5.12143 11.5845 4.78751 11.5845 4.44834C11.5845 4.10917 11.4672 3.77524 11.2444 3.49951C11.0209 3.22309 10.7029 3.02006 10.3365 2.92997C9.86727 2.81459 9.58039 2.34063 9.69577 1.87136Z" fill="#565A5C"/>
</svg>
