<svg width="16" height="16" viewBox="0 0 16 16" fill="none" xmlns="http://www.w3.org/2000/svg">
<path d="M8.00006 16C12.4183 16 16.0001 12.4183 16.0001 8C16.0001 3.58172 12.4183 0 8.00006 0C3.58178 0 6.10352e-05 3.58172 6.10352e-05 8C6.10352e-05 12.4183 3.58178 16 8.00006 16Z" fill="#8DE177"/>
<path fill-rule="evenodd" clip-rule="evenodd" d="M8.00006 3.80078C8.55235 3.80078 9.00006 4.2485 9.00006 4.80078V11.2008C9.00006 11.7531 8.55235 12.2008 8.00006 12.2008C7.44778 12.2008 7.00006 11.7531 7.00006 11.2008V4.80078C7.00006 4.2485 7.44778 3.80078 8.00006 3.80078Z" fill="white"/>
<path fill-rule="evenodd" clip-rule="evenodd" d="M3.80005 8C3.80005 7.44772 4.24776 7 4.80005 7H11.2C11.7523 7 12.2 7.44772 12.2 8C12.2 8.55228 11.7523 9 11.2 9H4.80005C4.24776 9 3.80005 8.55228 3.80005 8Z" fill="white"/>
</svg>
