<svg width="8" height="10" viewBox="0 0 8 10" fill="none" xmlns="http://www.w3.org/2000/svg">
<path fill-rule="evenodd" clip-rule="evenodd" d="M4.19393 1.89305C3.83897 1.83217 3.47392 1.89887 3.16342 2.08135C2.85293 2.26383 2.61704 2.5503 2.49753 2.89004C2.33717 3.3459 1.83762 3.58546 1.38175 3.42509C0.925885 3.26473 0.686333 2.76518 0.846696 2.30931C1.10335 1.57972 1.60994 0.964496 2.27673 0.572617C2.94352 0.180737 3.72749 0.0374874 4.48978 0.16824C5.25207 0.298993 5.94349 0.695311 6.44157 1.287C6.93952 1.87853 7.21212 2.62716 7.21111 3.40036C7.21077 4.66448 6.27421 5.49257 5.62148 5.92772C5.26842 6.16309 4.9216 6.33588 4.66648 6.44926C4.53768 6.50651 4.42913 6.54999 4.35073 6.57985C4.31146 6.59481 4.27954 6.60644 4.2562 6.61474L4.22769 6.62472L4.2185 6.62786L4.21521 6.62897L4.2139 6.62941C4.21364 6.6295 4.21282 6.62977 3.94491 5.82605L4.21281 6.62977C3.75436 6.78259 3.25883 6.53483 3.10602 6.07638C2.95331 5.61826 3.2006 5.12311 3.65842 4.96991C3.65855 4.96987 3.65828 4.96996 3.65842 4.96991L3.66993 4.96586C3.68174 4.96166 3.70139 4.95454 3.72774 4.9445C3.78059 4.92437 3.85954 4.89285 3.95574 4.85009C4.15063 4.76347 4.4038 4.63626 4.65075 4.47163C5.1979 4.10687 5.46111 3.73517 5.46111 3.39968L5.46111 3.39837C5.46165 3.03823 5.33471 2.68952 5.10278 2.414C4.87085 2.13848 4.54889 1.95394 4.19393 1.89305Z" fill="white"/>
<path fill-rule="evenodd" clip-rule="evenodd" d="M3.125 9C3.125 8.51675 3.51675 8.125 4 8.125H4.008C4.49125 8.125 4.883 8.51675 4.883 9C4.883 9.48325 4.49125 9.875 4.008 9.875H4C3.51675 9.875 3.125 9.48325 3.125 9Z" fill="white"/>
</svg>
