<svg width="14" height="14" viewBox="0 0 14 14" fill="none" xmlns="http://www.w3.org/2000/svg">
<path fill-rule="evenodd" clip-rule="evenodd" d="M6.33337 1.66732C3.75605 1.66732 1.66671 3.75666 1.66671 6.33398C1.66671 8.91131 3.75605 11.0007 6.33337 11.0007C8.9107 11.0007 11 8.91131 11 6.33398C11 3.75666 8.9107 1.66732 6.33337 1.66732ZM0.333374 6.33398C0.333374 3.02028 3.01967 0.333984 6.33337 0.333984C9.64708 0.333984 12.3334 3.02028 12.3334 6.33398C12.3334 9.64769 9.64708 12.334 6.33337 12.334C3.01967 12.334 0.333374 9.64769 0.333374 6.33398Z" fill="#00D1C2"/>
<path fill-rule="evenodd" clip-rule="evenodd" d="M9.62861 9.62886C9.88896 9.36851 10.3111 9.36851 10.5714 9.62886L13.4714 12.5289C13.7318 12.7892 13.7318 13.2113 13.4714 13.4717C13.2111 13.732 12.789 13.732 12.5286 13.4717L9.62861 10.5717C9.36826 10.3113 9.36826 9.88921 9.62861 9.62886Z" fill="#00D1C2"/>
</svg>
