<svg width="16" height="12" viewBox="0 0 16 12" fill="none" xmlns="http://www.w3.org/2000/svg">
<path fill-rule="evenodd" clip-rule="evenodd" d="M1.8995 6C1.95957 6.1005 2.03216 6.21799 2.117 6.34863C2.41015 6.8 2.84367 7.39921 3.40523 7.99485C4.54662 9.20553 6.10341 10.2857 8.00007 10.2857C9.89674 10.2857 11.4535 9.20553 12.5949 7.99485C13.1565 7.39921 13.59 6.8 13.8831 6.34863C13.968 6.21799 14.0406 6.1005 14.1006 6C14.0406 5.8995 13.968 5.78201 13.8831 5.65137C13.59 5.2 13.1565 4.60079 12.5949 4.00515C11.4535 2.79447 9.89674 1.71429 8.00007 1.71429C6.10341 1.71429 4.54662 2.79447 3.40523 4.00515C2.84367 4.60079 2.41015 5.2 2.117 5.65137C2.03216 5.78201 1.95957 5.8995 1.8995 6ZM15.1112 6C15.9111 5.62605 15.9109 5.62577 15.9108 5.62547L15.9096 5.62303L15.9071 5.61814L15.8992 5.60282C15.8927 5.5902 15.8836 5.57279 15.872 5.55093C15.8487 5.5072 15.8152 5.44557 15.7717 5.36857C15.6846 5.2147 15.557 4.99881 15.3899 4.74148C15.0567 4.22857 14.561 3.54206 13.9104 2.85199C12.6275 1.49125 10.6287 0 8.00007 0C5.37144 0 3.37264 1.49125 2.08977 2.85199C1.43919 3.54206 0.943413 4.22857 0.610293 4.74148C0.443173 4.99881 0.315526 5.2147 0.228489 5.36857C0.184937 5.44557 0.151454 5.5072 0.128186 5.55093C0.11655 5.57279 0.107459 5.5902 0.100933 5.60282L0.0930671 5.61814L0.0905785 5.62303L0.089696 5.62478C0.0895459 5.62508 0.0890549 5.62605 0.888897 6L0.0890549 5.62605C-0.029685 5.8622 -0.029685 6.1378 0.0890549 6.37395L0.888897 6C0.0890549 6.37395 0.0889048 6.37365 0.0890549 6.37395L0.0905785 6.37697L0.0930671 6.38186L0.100933 6.39718C0.107459 6.4098 0.11655 6.42721 0.128186 6.44907C0.151454 6.4928 0.184937 6.55443 0.228489 6.63143C0.315526 6.7853 0.443173 7.0012 0.610293 7.25852C0.943413 7.77143 1.43919 8.45794 2.08977 9.14801C3.37264 10.5088 5.37144 12 8.00007 12C10.6287 12 12.6275 10.5088 13.9104 9.14801C14.561 8.45794 15.0567 7.77143 15.3899 7.25852C15.557 7.0012 15.6846 6.7853 15.7717 6.63143C15.8152 6.55443 15.8487 6.4928 15.872 6.44907C15.8836 6.42721 15.8927 6.4098 15.8992 6.39718L15.9071 6.38186L15.9096 6.37697L15.9104 6.37522C15.9106 6.37492 15.9111 6.37395 15.1112 6ZM15.1112 6L15.9111 6.37395C16.0298 6.1378 16.0295 5.86163 15.9108 5.62547L15.1112 6Z" fill="#9CA199"/>
<path fill-rule="evenodd" clip-rule="evenodd" d="M8.00018 4.92815C7.44559 4.92815 6.94967 5.38279 6.94967 5.99958C6.94967 6.61637 7.44559 7.07101 8.00018 7.07101C8.55478 7.07101 9.0507 6.61637 9.0507 5.99958C9.0507 5.38279 8.55478 4.92815 8.00018 4.92815ZM5.17188 5.99958C5.17188 4.48613 6.41257 3.21387 8.00018 3.21387C9.5878 3.21387 10.8285 4.48613 10.8285 5.99958C10.8285 7.51304 9.5878 8.7853 8.00018 8.7853C6.41257 8.7853 5.17188 7.51304 5.17188 5.99958Z" fill="#9CA199"/>
</svg>
