<svg width="16" height="16" viewBox="0 0 16 16" fill="none" xmlns="http://www.w3.org/2000/svg">
<path fill-rule="evenodd" clip-rule="evenodd" d="M13.3194 14C13.6953 14 14 13.6953 14 13.3194L14 2.43056C14 2.05469 13.6953 1.75 13.3194 1.75L2.43056 1.75C2.0547 1.75 1.75 2.05469 1.75 2.43055L1.75 13.3194C1.75 13.6953 2.0547 14 2.43056 14L13.3194 14ZM15.75 13.3194C15.75 14.6618 14.6618 15.75 13.3194 15.75L2.43056 15.75C1.0882 15.75 9.51332e-08 14.6618 2.12486e-07 13.3194L1.16442e-06 2.43055C1.28178e-06 1.0882 1.0882 -1.28178e-06 2.43056 -1.16442e-06L13.3194 -2.12486e-07C14.6618 -9.51332e-08 15.75 1.0882 15.75 2.43056L15.75 13.3194Z" fill="#565A5C"/>
<path fill-rule="evenodd" clip-rule="evenodd" d="M12.6389 11.7637C12.6389 12.2469 12.2472 12.6387 11.7639 12.6387L9.43058 12.6387C8.94733 12.6387 8.55558 12.2469 8.55558 11.7637L8.55558 4.76367C8.55558 4.28042 8.94733 3.88867 9.43058 3.88867L11.7639 3.88867C12.2472 3.88867 12.6389 4.28042 12.6389 4.76367L12.6389 11.7637ZM10.8889 10.8887L10.8889 5.63867L10.3056 5.63867L10.3056 10.8887L10.8889 10.8887Z" fill="#565A5C"/>
<path fill-rule="evenodd" clip-rule="evenodd" d="M7.19434 11.7637C7.19434 12.2469 6.80259 12.6387 6.31934 12.6387L3.986 12.6387C3.50275 12.6387 3.111 12.2469 3.111 11.7637L3.111 7.87478C3.111 7.39153 3.50275 6.99978 3.986 6.99978L6.31934 6.99978C6.80259 6.99978 7.19434 7.39153 7.19434 7.87478L7.19434 11.7637ZM5.44434 10.8887L5.44434 8.74978L4.861 8.74978L4.861 10.8887L5.44434 10.8887Z" fill="#565A5C"/>
</svg>
