<svg width="40" height="40" viewBox="0 0 40 40" fill="none" xmlns="http://www.w3.org/2000/svg">
<path fill-rule="evenodd" clip-rule="evenodd" d="M2 0C0.895416 0 0 0.895447 0 2V38C0 39.1046 0.895416 40 2 40H38C39.1046 40 40 39.1046 40 38V2C40 0.895447 39.1046 0 38 0H2ZM20 7C12.8203 7 7 12.8203 7 20C7 27.1797 12.8203 33 20 33C27.1797 33 33 27.1797 33 20C33 12.8203 27.1797 7 20 7ZM22.2727 30.765C26.9401 29.7845 30.5186 25.8452 30.9552 21H25.7546C25.5027 24.5197 24.294 27.8948 22.2727 30.765ZM25.7546 19H30.9552C30.5186 14.1548 26.9401 10.2155 22.2727 9.23505C24.294 12.1052 25.5027 15.4803 25.7546 19ZM17.7273 9.23505C13.0599 10.2155 9.48145 14.1548 9.04483 19H14.2454C14.4973 15.4803 15.706 12.1052 17.7273 9.23505ZM16.2511 19C16.5273 15.5417 17.8338 12.2455 20 9.53784C22.1662 12.2455 23.4727 15.5417 23.7489 19H16.2511ZM16.2511 21H23.7489C23.4727 24.4583 22.1662 27.7545 20 30.4622C17.8338 27.7545 16.5273 24.4583 16.2511 21ZM14.2454 21C14.4973 24.5197 15.706 27.8948 17.7273 30.765C13.0599 29.7845 9.48145 25.8452 9.04483 21H14.2454Z" fill="#00D1C2"/>
</svg>
